<?xml version="1.0" encoding="UTF-8"?><svg id="Layer_2" xmlns="http://www.w3.org/2000/svg" viewBox="0 0 1226.7061 935.9938"><defs><style>.cls-1{fill:#cdc879;}.cls-2{fill:none;stroke:#000;stroke-miterlimit:10;stroke-width:5px;}.cls-3{fill:#7998cf;}.cls-4{fill:#fcfbe4;}</style></defs><g id="Layer_4"><rect class="cls-1" x="64.9034" y="44.3689" width="571.9834" height="819.4719" rx="12" ry="12" transform="translate(-73.5235 67.831) rotate(-10)"/><path class="cls-4" d="m24.5265,49.4623h547.2467c6.8263,0,12.3683,5.5421,12.3683,12.3683v198.6497H12.1582V61.8306c0-6.8263,5.5421-12.3683,12.3683-12.3683Z" transform="translate(-22.3809 54.1274) rotate(-10)"/><circle class="cls-2" cx="132.2984" cy="188.3851" r="48.9689"/><circle class="cls-2" cx="132.1558" cy="187.5764" r="75.8717"/><circle class="cls-2" cx="132.1558" cy="187.5764" r="25.1445"/><rect x="233.576" y="123.7308" width="282.2981" height="5.3665" rx="2.6832" ry="2.6832" transform="translate(-16.2586 66.9907) rotate(-10)"/><rect x="236.721" y="141.5672" width="282.2981" height="5.3665" rx="2.6832" ry="2.6832" transform="translate(-19.3081 67.8078) rotate(-10)"/><rect x="240.8728" y="170.9099" width="149.7763" height="5.3665" rx="2.6832" ry="2.6832" transform="translate(-25.347 57.4685) rotate(-10)"/><rect x="106.1705" y="371.1003" width="452.0124" height="5.3665" rx="2.6832" ry="2.6832" transform="translate(-59.8602 63.3604) rotate(-10)"/><rect x="103.1901" y="354.1975" width="452.0124" height="5.3665" rx="2.6832" ry="2.6832" transform="translate(-56.9703 62.586) rotate(-10)"/><rect x="109.3155" y="388.9367" width="452.0124" height="5.3665" rx="2.6832" ry="2.6832" transform="translate(-62.9097 64.1775) rotate(-10)"/><rect x="114.0724" y="425.1967" width="239.82" height="5.3665" rx="2.6832" ry="2.6832" transform="translate(-70.7457 47.131) rotate(-10)"/><rect x="134.4472" y="531.466" width="452.0124" height="5.3665" rx="2.6832" ry="2.6832" transform="translate(-87.2778 70.7069) rotate(-10)"/><rect x="131.4668" y="514.5632" width="452.0124" height="5.3665" rx="2.6832" ry="2.6832" transform="translate(-84.3879 69.9325) rotate(-10)"/><rect x="137.5923" y="549.3024" width="452.0124" height="5.3665" rx="2.6832" ry="2.6832" transform="translate(-90.3273 71.524) rotate(-10)"/><rect x="142.3492" y="585.5624" width="239.82" height="5.3665" rx="2.6832" ry="2.6832" transform="translate(-98.1633 54.4775) rotate(-10)"/><rect x="162.724" y="691.8317" width="452.0124" height="5.3665" rx="2.6832" ry="2.6832" transform="translate(-114.6954 78.0534) rotate(-10)"/><rect x="159.7436" y="674.9289" width="452.0124" height="5.3665" rx="2.6832" ry="2.6832" transform="translate(-111.8055 77.279) rotate(-10)"/><rect x="165.869" y="709.6681" width="452.0124" height="5.3665" rx="2.6832" ry="2.6832" transform="translate(-117.7448 78.8705) rotate(-10)"/><rect x="170.6259" y="745.9281" width="239.82" height="5.3665" rx="2.6832" ry="2.6832" transform="translate(-125.5809 61.824) rotate(-10)"/><rect class="cls-3" x="248.858" y="18.144" width="571.9834" height="819.4719" rx="12" ry="12" transform="translate(-28.5445 38.3515) rotate(-4)"/><path class="cls-4" d="m240.0379,19.3626h547.2467c6.8263,0,12.3683,5.5421,12.3683,12.3683v198.6497H227.6696V31.731c0-6.8263,5.5421-12.3683,12.3683-12.3683Z" transform="translate(-7.4594 36.1354) rotate(-4)"/><circle class="cls-2" cx="343.2313" cy="112.245" r="48.9689"/><circle class="cls-2" cx="321.7682" cy="162.8344" r="48.9689"/><circle class="cls-2" cx="370.6179" cy="159.4185" r="48.9689"/><rect x="451.653" y="101.7919" width="282.2981" height="5.3665" rx="2.6832" ry="2.6832" transform="translate(-5.8438 41.6063) rotate(-4)"/><rect x="452.9164" y="119.8593" width="282.2981" height="5.3665" rx="2.6832" ry="2.6832" transform="translate(-7.101 41.7384) rotate(-4)"/><rect x="454.3412" y="142.549" width="149.7763" height="5.3665" rx="2.6832" ry="2.6832" transform="translate(-8.8417 37.2709) rotate(-4)"/><rect x="298.6235" y="343.3588" width="452.0124" height="5.3665" rx="2.6832" ry="2.6832" transform="translate(-22.8607 37.4392) rotate(-4)"/><rect x="297.4262" y="326.237" width="452.0124" height="5.3665" rx="2.6832" ry="2.6832" transform="translate(-21.6693 37.314) rotate(-4)"/><rect x="299.8869" y="361.4262" width="452.0124" height="5.3665" rx="2.6832" ry="2.6832" transform="translate(-24.1179 37.5714) rotate(-4)"/><rect x="301.4087" y="386.8947" width="239.82" height="5.3665" rx="2.6832" ry="2.6832" transform="translate(-26.1493 30.3387) rotate(-4)"/><rect x="309.9826" y="505.8017" width="452.0124" height="5.3665" rx="2.6832" ry="2.6832" transform="translate(-34.1645 38.6273) rotate(-4)"/><rect x="308.7853" y="488.6799" width="452.0124" height="5.3665" rx="2.6832" ry="2.6832" transform="translate(-32.973 38.5021) rotate(-4)"/><rect x="311.246" y="523.8691" width="452.0124" height="5.3665" rx="2.6832" ry="2.6832" transform="translate(-35.4217 38.7595) rotate(-4)"/><rect x="312.7678" y="549.3376" width="239.82" height="5.3665" rx="2.6832" ry="2.6832" transform="translate(-37.453 31.5268) rotate(-4)"/><rect x="321.3417" y="668.2446" width="452.0124" height="5.3665" rx="2.6832" ry="2.6832" transform="translate(-45.4682 39.8154) rotate(-4)"/><rect x="320.1444" y="651.1228" width="452.0124" height="5.3665" rx="2.6832" ry="2.6832" transform="translate(-44.2768 39.6902) rotate(-4)"/><rect x="322.6051" y="686.312" width="452.0124" height="5.3665" rx="2.6832" ry="2.6832" transform="translate(-46.7255 39.9475) rotate(-4)"/><rect x="324.1269" y="711.7806" width="239.82" height="5.3665" rx="2.6832" ry="2.6832" transform="translate(-48.7568 32.7148) rotate(-4)"/><rect class="cls-1" x="418.1094" y="34.4385" width="571.9834" height="819.4719" rx="12" ry="12" transform="translate(32.6996 -48.0342) rotate(4.0001)"/><path class="cls-4" d="m451.6665,35.6572h547.2467c6.8263,0,12.3683,5.5421,12.3683,12.3683v198.6497H439.2981V48.0256c0-6.8263,5.5421-12.3683,12.3683-12.3683Z" transform="translate(11.6142 -50.2504) rotate(4.0001)"/><circle class="cls-2" cx="556.2813" cy="133.4643" r="48.9689"/><circle class="cls-2" cx="556.3386" cy="132.6451" r="75.8717"/><circle class="cls-2" cx="556.3386" cy="132.6451" r="25.1445"/><rect x="665.35" y="129.2993" width="282.2981" height="5.3665" rx="2.6832" ry="2.6832" transform="translate(11.1714 -55.9377) rotate(4.0001)"/><rect x="664.0865" y="147.3667" width="282.2981" height="5.3665" rx="2.6832" ry="2.6832" transform="translate(12.4287 -55.8056) rotate(4.0001)"/><rect x="662.9845" y="160.8121" width="149.7763" height="5.3665" rx="2.6832" ry="2.6832" transform="translate(13.2025 -51.0738) rotate(4.0001)"/><rect x="479.3641" y="359.0274" width="452.0124" height="5.3665" rx="2.6832" ry="2.6832" transform="translate(26.9503 -48.3236) rotate(4.0001)"/><rect x="480.5614" y="341.9056" width="452.0124" height="5.3665" rx="2.6832" ry="2.6832" transform="translate(25.7588 -48.4489) rotate(4.0001)"/><rect x="478.1007" y="377.0948" width="452.0124" height="5.3665" rx="2.6832" ry="2.6832" transform="translate(28.2075 -48.1915) rotate(4.0001)"/><rect x="477.0957" y="387.7615" width="239.82" height="5.3665" rx="2.6832" ry="2.6832" transform="translate(28.6907 -40.6944) rotate(4.0001)"/><rect x="468.0048" y="521.4703" width="452.0124" height="5.3665" rx="2.6832" ry="2.6832" transform="translate(38.2542 -47.1355) rotate(4.0001)"/><rect x="469.2021" y="504.3485" width="452.0124" height="5.3665" rx="2.6832" ry="2.6832" transform="translate(37.0627 -47.2608) rotate(4.0001)"/><rect x="466.7414" y="539.5378" width="452.0124" height="5.3665" rx="2.6832" ry="2.6832" transform="translate(39.5114 -47.0034) rotate(4.0001)"/><rect x="465.7364" y="550.2044" width="239.82" height="5.3665" rx="2.6832" ry="2.6832" transform="translate(39.9946 -39.5063) rotate(4.0001)"/><rect x="456.6456" y="683.9133" width="452.0124" height="5.3665" rx="2.6832" ry="2.6832" transform="translate(49.5581 -45.9474) rotate(4.0001)"/><rect x="457.8429" y="666.7915" width="452.0124" height="5.3665" rx="2.6832" ry="2.6832" transform="translate(48.3667 -46.0727) rotate(4.0001)"/><rect x="455.3822" y="701.9807" width="452.0124" height="5.3665" rx="2.6832" ry="2.6832" transform="translate(50.8154 -45.8153) rotate(4.0001)"/><rect x="454.3772" y="712.6473" width="239.82" height="5.3665" rx="2.6832" ry="2.6832" transform="translate(51.2985 -38.3182) rotate(4.0001)"/><rect class="cls-3" x="589.8192" y="74.9863" width="571.9834" height="819.4719" rx="12" ry="12" transform="translate(97.4767 -144.719) rotate(10)"/><path class="cls-4" d="m654.9328,80.0797h547.2467c6.8263,0,12.3683,5.5421,12.3683,12.3683v198.6497h-571.9834V92.448c0-6.8263,5.5421-12.3683,12.3683-12.3683Z" transform="translate(46.334 -158.4226) rotate(10)"/><circle class="cls-2" cx="766.2434" cy="132.1063" r="48.9689"/><circle class="cls-2" cx="733.1791" cy="176.0006" r="48.9689"/><circle class="cls-2" cx="781.4041" cy="184.504" r="48.9689"/><rect x="869.1314" y="182.2606" width="282.2981" height="5.3665" rx="2.6832" ry="2.6832" transform="translate(47.4636 -172.6237) rotate(10)"/><rect x="865.9864" y="200.097" width="282.2981" height="5.3665" rx="2.6832" ry="2.6832" transform="translate(50.5131 -171.8066) rotate(10)"/><rect x="863.848" y="206.4275" width="149.7763" height="5.3665" rx="2.6832" ry="2.6832" transform="translate(50.5732 -159.833) rotate(10)"/><rect x="659.6866" y="400.1596" width="452.0124" height="5.3665" rx="2.6832" ry="2.6832" transform="translate(83.4086 -147.6789) rotate(10)"/><rect x="662.667" y="383.2567" width="452.0124" height="5.3665" rx="2.6832" ry="2.6832" transform="translate(80.5187 -148.4532) rotate(10)"/><rect x="656.5416" y="417.996" width="452.0124" height="5.3665" rx="2.6832" ry="2.6832" transform="translate(86.4581 -146.8618) rotate(10)"/><rect x="655.0084" y="417.4091" width="239.82" height="5.3665" rx="2.6832" ry="2.6832" transform="translate(84.721 -128.181) rotate(10)"/><rect x="631.4098" y="560.5253" width="452.0124" height="5.3665" rx="2.6832" ry="2.6832" transform="translate(110.8262 -140.3323) rotate(10)"/><rect x="634.3902" y="543.6224" width="452.0124" height="5.3665" rx="2.6832" ry="2.6832" transform="translate(107.9363 -141.1067) rotate(10)"/><rect x="628.2648" y="578.3617" width="452.0124" height="5.3665" rx="2.6832" ry="2.6832" transform="translate(113.8757 -139.5152) rotate(10)"/><rect x="626.7315" y="577.7748" width="239.82" height="5.3665" rx="2.6832" ry="2.6832" transform="translate(112.1387 -120.8345) rotate(10)"/><rect x="603.133" y="720.891" width="452.0124" height="5.3665" rx="2.6832" ry="2.6832" transform="translate(138.2438 -132.9858) rotate(10)"/><rect x="606.1134" y="703.9881" width="452.0124" height="5.3665" rx="2.6832" ry="2.6832" transform="translate(135.354 -133.7601) rotate(10)"/><rect x="599.988" y="738.7274" width="452.0124" height="5.3665" rx="2.6832" ry="2.6832" transform="translate(141.2933 -132.1687) rotate(10)"/><rect x="598.4547" y="738.1405" width="239.82" height="5.3665" rx="2.6832" ry="2.6832" transform="translate(139.5563 -113.488) rotate(10)"/></g></svg>