<?xml version="1.0" encoding="UTF-8"?><svg id="Layer_2" xmlns="http://www.w3.org/2000/svg" xmlns:xlink="http://www.w3.org/1999/xlink" viewBox="0 0 1586.2297 1119.2141"><defs><style>.cls-1{fill:#939393;}.cls-2{fill:#fff;opacity:.21;}.cls-3{fill:#7d8e66;}.cls-4{fill:#898989;}.cls-5{fill:#5c6946;}.cls-6,.cls-7,.cls-8{fill:none;}.cls-7{clip-path:url(#clippath);}.cls-8{clip-path:url(#clippath-1);}</style><clipPath id="clippath"><path class="cls-6" d="m1080.4387,313.2755l108.7424-50.7074-18.9311-40.598c-2.7893-5.9817-9.9654-8.5936-15.9471-5.8043l-109.7988,51.2c-38.48,17.9435-61.0995,56.5292-60.8764,96.5471l-584.2,272.4169c-23.8339-14.3316-54.1337-16.9397-81.2351-4.3021-43.3138,20.1976-62.0535,71.6833-41.8557,114.9975,20.1974,43.3134,71.6835,62.0528,114.9973,41.8552,27.1014-12.6376,44.5798-37.525,48.9213-64.995l588.4741-274.4099c29.9,20.754,69.7898,25.6042,104.981,9.1943l109.7988-51.2c5.9817-2.7893,8.5936-9.9654,5.8043-15.9471l-18.9311-40.598-108.7424,50.7074c-24.2981,11.3304-53.4486.7203-64.7788-23.5774l-.0002-.0004c-11.3302-24.2977-.7204-53.4484,23.5777-64.7787Zm-670.4992,377.1342c10.3176,28.3047-2.5465,60.2888-30.3618,73.2592-29.3898,13.7047-64.3248.9894-78.0293-28.4001-13.7048-29.39-.9894-64.3249,28.4004-78.0296,27.8153-12.9705,60.5856-2.2656,75.6362,23.8321l4.3545,9.3383Zm623.3133-299.4547c2.7891,5.9813.1774,13.1578-5.8043,15.9471l-34.4509,16.0647c-5.9817,2.7893-13.158.177-15.9471-5.8043l-1.449-3.1075c-2.7893-5.9817-.1774-13.1578,5.8043-15.9471l34.4509-16.0647c5.9817-2.7893,13.1578-.1774,15.9471,5.8043l1.449,3.1075Z"/></clipPath><clipPath id="clippath-1"><path class="cls-6" d="m352.32,349.7519c1.3946-2.9906,3.8859-5.139,6.783-6.1936,2.8838-1.0495,6.1733-1.0053,9.1641.3894l434.4115,202.5693,19.9095-42.696c2.7893-5.9817,9.9654-8.5936,15.9471-5.8043l393.2832,183.3909c5.9817,2.7893,8.5936,9.9654,5.8043,15.9471l-49.9577,107.1346c-2.7893,5.9817-9.9654,8.5936-15.9471,5.8043l-393.2832-183.3909c-5.9817-2.7893-8.5936-9.9654-5.8043-15.9471l19.9054-42.6872-434.4115-202.5693c-5.9817-2.7893-8.5936-9.9654-5.8043-15.9471Z"/></clipPath></defs><g id="Layer_4"><path class="cls-1" d="m1080.4387,313.2755l108.7424-50.7074-18.9311-40.598c-2.7893-5.9817-9.9654-8.5936-15.9471-5.8043l-109.7988,51.2c-38.48,17.9435-61.0995,56.5292-60.8764,96.5471l-584.2,272.4169c-23.8339-14.3316-54.1337-16.9397-81.2351-4.3021-43.3138,20.1976-62.0535,71.6833-41.8557,114.9975,20.1974,43.3134,71.6835,62.0528,114.9973,41.8552,27.1014-12.6376,44.5798-37.525,48.9213-64.995l588.4741-274.4099c29.9,20.754,69.7898,25.6042,104.981,9.1943l109.7988-51.2c5.9817-2.7893,8.5936-9.9654,5.8043-15.9471l-18.9311-40.598-108.7424,50.7074c-24.2981,11.3304-53.4486.7203-64.7788-23.5774l-.0002-.0004c-11.3302-24.2977-.7204-53.4484,23.5777-64.7787Zm-670.4992,377.1342c10.3176,28.3047-2.5465,60.2888-30.3618,73.2592-29.3898,13.7047-64.3248.9894-78.0293-28.4001-13.7048-29.39-.9894-64.3249,28.4004-78.0296,27.8153-12.9705,60.5856-2.2656,75.6362,23.8321l4.3545,9.3383Zm623.3133-299.4547c2.7891,5.9813.1774,13.1578-5.8043,15.9471l-34.4509,16.0647c-5.9817,2.7893-13.158.177-15.9471-5.8043l-1.449-3.1075c-2.7893-5.9817-.1774-13.1578,5.8043-15.9471l34.4509-16.0647c5.9817-2.7893,13.1578-.1774,15.9471,5.8043l1.449,3.1075Z"/><g class="cls-7"><rect class="cls-4" x="-50.7267" y="351.5894" width="1615.3043" height="151.4044" transform="translate(-111.0753 381.5875) rotate(-26.431)"/></g><rect class="cls-1" x="328.345" y="445.9159" width="511.8902" height="24" rx="12" ry="12" transform="translate(920.3132 1119.8604) rotate(-155)"/><rect class="cls-3" x="776.1585" y="583.05" width="457.9379" height="142.2112" rx="12" ry="12" transform="translate(1639.6243 1671.807) rotate(-155)"/><rect class="cls-5" x="814.9282" y="695.7234" width="330.4402" height="24" rx="12" ry="12" transform="translate(1569.3677 1763.3672) rotate(-155)"/><rect class="cls-5" x="864.8864" y="588.5877" width="330.4402" height="24" rx="12" ry="12" transform="translate(1709.8809 1580.2468) rotate(-155)"/><rect class="cls-5" x="848.2337" y="624.2996" width="330.4402" height="24" rx="12" ry="12" transform="translate(1663.0431 1641.2869) rotate(-155)"/><rect class="cls-5" x="831.581" y="660.0115" width="330.4402" height="24" rx="12" ry="12" transform="translate(1616.2054 1702.3271) rotate(-155)"/><path class="cls-1" d="m328.606,322.0525l55.5158,8.5751c6.5573,1.0129,10.8781,5.5019,8.8464,9.8589l-21.6136,46.3505c-2.0317,4.357-8.2479,3.9326-13.2387-.4395l-42.2538-37.0156c-1.0998-.9634-1.261-3.2047-.4112-5.0271l9.0399-19.3861c.8498-1.8223,2.6703-3.1395,4.1153-2.9163Z"/><g class="cls-8"><rect class="cls-2" x="351.8463" y="638.8798" width="1284.5963" height="161.1093" transform="translate(1475.9274 1848.0594) rotate(-149.0087)"/></g></g></svg>