<?xml version="1.0" encoding="UTF-8"?><svg id="Layer_2" xmlns="http://www.w3.org/2000/svg" viewBox="0 0 176.7575 357.1452"><defs><style>.cls-1{fill:#231f20;}</style></defs><g id="Layer_1-2"><path class="cls-1" d="m176.7575,106.8636v40.8964c0,.11-.09.2-.2.2h-1.482l-.5743,184.1252c-.02.46-.05.91-.1,1.36-1.17,12-11.43,22.3-22.82,23.28-.19.02-.39.03-.58.05-.02,0-.04.01-.05,0-.25.02-.51.03-.76.03,0,0,0,.34-61.81.34-62.06,0-62.06-.34-62.06-.34-.56,0-1.11-.04-1.64-.12-11.2401-1.18-21.28-11.38-22.44-23.24-.04-.45-.07-.9-.09-1.36l-.4282-174.6952H.205c-.11,0-.2-.09-.2-.21v-25.3288c0-.11.09-.2.2-.2h1.5181v-8.5812H.205c-.11,0-.2-.09-.2-.21v-25.6852c0-.12.09-.21.2-.21h1.5181v-12.4658H.21c-.12,0-.21-.09-.21-.21v-12.2236c0-.11.09-.2.21-.2h1.5131l.4282-46.8055C2.6413,12.63,13.0113,1.69,24.6813.46c.53-.08,1.08-.12,1.64-.12,0,0,0-.34,62.06-.34,61.81,0,61.81.34,61.81.34.25,0,.51.01.76.03.01-.0099.03,0,.05,0,.1899.02.39.03.58.05,11.82,1.02,22.42,12.07,22.92,24.64l.5743,81.6036h1.482c.11,0,.2.09.2.2Z"/></g></svg>