<?xml version="1.0" encoding="UTF-8"?><svg id="Layer_2" xmlns="http://www.w3.org/2000/svg" xmlns:xlink="http://www.w3.org/1999/xlink" viewBox="0 0 1342.3469 1102.1005"><defs><style>.cls-1{clip-path:url(#clippath-2);}.cls-1,.cls-2,.cls-3,.cls-4{fill:none;}.cls-5{fill:#b98f68;}.cls-6{fill:#967153;}.cls-7{fill:#ca77ac;}.cls-8{fill:#2b2b2b;}.cls-9{fill:#eec11b;}.cls-3{clip-path:url(#clippath);}.cls-4{clip-path:url(#clippath-1);}.cls-10{fill:#e099c3;}.cls-11{fill:#d3a72a;}</style><clipPath id="clippath"><path class="cls-2" d="m899.5817,394.4182l-45.8886,489.1285c-.5683,6.057-6.8536,8.5184-13.9674,5.4696l-155.4437-63.7155c-7.1138-3.0488-10.8319-12.7004-10.2636-18.7575l45.8886-489.1285c.5683-6.057,6.8536-8.5184,13.9674-5.4696l153.8063,65.917c7.1138,3.0488,12.4693,10.499,11.901,16.556Z"/></clipPath><clipPath id="clippath-1"><path class="cls-2" d="m1124.3849,643.7096l-33.9825,362.2207c-.4208,4.4855-4.7277,6.3408-9.5708,4.123l-104.7117-47.9523c-4.8431-2.2179-8.4613-7.7025-8.0405-12.188l33.9825-362.2207c.4208-4.4855,4.7277-6.3408,9.5708-4.123l104.7117,47.9523c4.8431,2.2179,8.4613,7.7025,8.0405,12.188Z"/></clipPath><clipPath id="clippath-2"><path class="cls-2" d="m548.845,231.3516l-33.9825,362.2207c-.4208,4.4855-4.7277,6.3408-9.5708,4.123l-104.7117-47.9523c-4.8431-2.2179-8.4613-7.7025-8.0405-12.188l33.9825-362.2207c.4208-4.4855,4.7277-6.3408,9.5708-4.123l104.7117,47.9523c4.8431,2.2179,8.4613,7.7025,8.0405,12.188Z"/></clipPath></defs><g id="Layer_4"><path class="cls-8" d="m1226.157,1100.4345l-17.6412-13.7939c-.4702-.3676-1.16-.2038-1.4147.336l-4.222,8.9477c-.2547.5398.0575,1.1764.6402,1.3055l21.8632,4.8462c.9676.2145,1.5553-1.031.7745-1.6415Z"/><path class="cls-6" d="m1203.365,1097.5562l-117.9419-26.6809c-30.2637-6.8463-63.4059-21.0618-59.9052-28.4809l27.4994-58.2802c3.5007-7.4191,35.5449,9.1235,60.0709,28.1297l95.5815,74.0699c.723.5603.9248,1.748.4893,2.671l-3.4212,7.2507c-.4355.923-1.4806,1.5224-2.3727,1.3206Z"/><path class="cls-5" d="m1204.691,1094.7458l-112.3518-38.5281c-28.8293-9.8862-61.697-24.6835-59.9466-28.3931l13.7497-29.1401c1.7503-3.7095,34.069,12.2513,60.0295,28.2175l101.1716,62.2226c.7653.4707,1.1779,1.2116.9602,1.6731l-1.7106,3.6253c-.2178.4615-1.052.6141-1.9019.3227Z"/><rect class="cls-11" x="-43.8036" y="740.6552" width="1171.4333" height="75.846" rx="12" ry="12" transform="translate(384.0611 -156.8022) rotate(25.2602)"/><rect class="cls-9" x="-43.8037" y="759.617" width="1171.4333" height="37.923" transform="translate(384.0612 -156.8022) rotate(25.2602)"/><path class="cls-8" d="m116.1898,1.666l17.6412,13.7939c.4702.3676,1.16.2038,1.4147-.336l4.222-8.9477c.2547-.5398-.0575-1.1764-.6402-1.3055L116.9643.0245c-.9676-.2145-1.5553,1.031-.7745,1.6415Z"/><path class="cls-6" d="m138.9819,4.5443l117.9419,26.6809c30.2637,6.8463,63.4059,21.0618,59.9052,28.4809l-27.4994,58.2802c-3.5007,7.4191-35.5449-9.1235-60.0709-28.1297L133.6772,15.7866c-.723-.5603-.9248-1.748-.4893-2.671l3.4212-7.2507c.4355-.923,1.4806-1.5224,2.3727-1.3206Z"/><path class="cls-5" d="m137.6558,7.3547l112.3518,38.5281c28.8293,9.8862,61.697,24.6835,59.9466,28.3931l-13.7497,29.1401c-1.7503,3.7095-34.069-12.2513-60.0295-28.2175L135.0035,12.9758c-.7653-.4707-1.1779-1.2116-.9602-1.6731l1.7106-3.6253c.2178-.4615,1.052-.6141,1.9019-.3227Z"/><rect class="cls-11" x="214.7171" y="285.5992" width="1171.4333" height="75.846" rx="12" ry="12" transform="translate(1386.2725 957.6782) rotate(-154.7398)"/><rect class="cls-9" x="214.7172" y="304.5605" width="1171.4333" height="37.923" transform="translate(1386.2728 957.6778) rotate(-154.7398)"/><path class="cls-10" d="m756.017,332.9176l-47.526,491.3299c-.5683,6.057-6.8536,8.5184-13.9674,5.4696l-151.2624-71.4978c-7.1138-3.0488-12.4693-10.499-11.901-16.556l48.0078-489.1384c.5683-6.057,6.8536-8.5184,13.9674-5.4696l150.7806,69.3062c7.1138,3.0488,12.4693,10.499,11.901,16.556Z"/><g class="cls-3"><path class="cls-7" d="m756.5384,333.1781l-47.526,491.3299c-.5683,6.057-6.8536,8.5184-13.9674,5.4696l-152.1689-68.1184c-7.1138-3.0488-12.4693-10.499-11.901-16.556l45.8886-489.1285c.5683-6.057,6.8536-8.5184,13.9674-5.4696l153.8063,65.917c7.1138,3.0488,12.4693,10.499,11.901,16.556Z"/></g><path class="cls-10" d="m1026.6455,598.9703l-33.9825,362.2207c-.4208,4.4855-4.7277,6.3408-9.5708,4.123l-104.7117-47.9523c-4.8431-2.2179-8.4613-7.7025-8.0405-12.188l33.9825-362.2207c.4208-4.4855,4.7277-6.3408,9.5708-4.123l104.7117,47.9523c4.8431,2.2179,8.4613,7.7025,8.0405,12.188Z"/><g class="cls-4"><path class="cls-7" d="m1027.0003,599.1603l-33.9825,362.2207c-.4208,4.4855-4.7277,6.3408-9.5708,4.123l-104.7117-47.9523c-4.8431-2.2179-8.4613-7.7025-8.0405-12.188l33.9825-362.2207c.4208-4.4855,4.7277-6.3408,9.5708-4.123l104.7117,47.9523c4.8431,2.2179,8.4613,7.7025,8.0405,12.188Z"/></g><path class="cls-10" d="m451.1056,186.6123l-33.9825,362.2207c-.4208,4.4855-4.7277,6.3408-9.5708,4.123l-104.7117-47.9523c-4.8431-2.2179-8.4613-7.7025-8.0405-12.188l33.9825-362.2207c.4208-4.4855,4.7277-6.3408,9.5708-4.123l104.7117,47.9523c4.8431,2.2179,8.4613,7.7025,8.0405,12.188Z"/><g class="cls-1"><path class="cls-7" d="m451.4604,186.8023l-33.9825,362.2207c-.4208,4.4855-4.7277,6.3408-9.5708,4.123l-104.7117-47.9523c-4.8431-2.2179-8.4613-7.7025-8.0405-12.188l33.9825-362.2207c.4208-4.4855,4.7277-6.3408,9.5708-4.123l104.7117,47.9523c4.8431,2.2179,8.4613,7.7025,8.0405,12.188Z"/></g></g></svg>