<?xml version="1.0" encoding="UTF-8"?><svg id="Layer_2" xmlns="http://www.w3.org/2000/svg" xmlns:xlink="http://www.w3.org/1999/xlink" viewBox="0 0 2058.8136 1376.6988"><defs><style>.cls-1{fill:#939393;}.cls-2{clip-path:url(#clippath-4);}.cls-2,.cls-3,.cls-4,.cls-5,.cls-6,.cls-7,.cls-8,.cls-9{fill:none;}.cls-3{clip-path:url(#clippath-2);}.cls-4{clip-path:url(#clippath-6);}.cls-10{fill:#8cab4a;}.cls-11{fill:#b98f68;}.cls-12{fill:#cdc879;}.cls-13{fill:#73b555;}.cls-14{fill:#647fbf;}.cls-15{fill:#99ce7d;}.cls-16{fill:#566cb3;}.cls-17{opacity:.21;}.cls-17,.cls-18{fill:#fff;}.cls-19{fill:#7d8e66;}.cls-20{fill:#e0775f;}.cls-21{fill:#6e8f3c;}.cls-22{fill:#967153;}.cls-5{clip-path:url(#clippath-5);}.cls-23{fill:#ca77ac;}.cls-24{fill:#e98a74;}.cls-25{fill:#84c16f;}.cls-26{fill:#898989;}.cls-27{fill:#2b2b2b;}.cls-28{fill:#eec11b;}.cls-29{fill:#5c6946;}.cls-6{clip-path:url(#clippath-3);}.cls-30{fill:#bb752b;}.cls-18{opacity:.53;}.cls-31{fill:#2e2e2e;}.cls-32{fill:#583916;}.cls-33{fill:#f8b864;}.cls-8{clip-path:url(#clippath);}.cls-34{fill:#c66b52;}.cls-35{fill:#7998cf;}.cls-36{fill:#f8d8bd;}.cls-37{fill:#472f16;}.cls-9{clip-path:url(#clippath-1);}.cls-38{fill:#f3bf8d;}.cls-39{fill:#e099c3;}.cls-40{fill:#eaa84b;}.cls-41{fill:#d3a72a;}.cls-42{fill:#fcfbe4;}.cls-43{fill:#a9c945;}</style><clipPath id="clippath"><path class="cls-7" d="m235.1315,427.6071l-71.666,91.2988c-.8875,1.1306-2.3632.8846-3.2794-.5467l-19.8087-30.9455c-.9162-1.4313-.9397-3.5274-.0522-4.6579l71.666-91.2988c.8875-1.1306,2.3632-.8846,3.2794.5467l19.8087,30.9455c.9162,1.4313.9397,3.5274.0522,4.6579Z"/></clipPath><clipPath id="clippath-1"><path class="cls-7" d="m111.6251,419.957l.0039.0083c.0335.0887.0737.1735.1139.2584l31.8493,67.2328c3.9146,8.2637,11.7896,12.7964,17.3714,9.7431l57.1216-31.2458c1.2768-.6984,2.2834-1.694,3.0084-2.8931.0089-.0049.0092-.0217.0184-.0434.6056-.7748,1.1056-1.6779,1.4911-2.6859l12.9332-33.4033c.4111-1.0513.6484-2.1568.7292-3.3254.6903-6.0576-2.2756-14.3825-7.5074-21.26l-10.8225-14.2131c-3.2132-4.2151-8.5452-6.392-12.4521-5.6748-.8441.1523-1.613.443-2.2922.8384-2.4781,1.4426-3.8159,4.3765-2.9879,7.9173l3.3409,14.397c-.2428.3903-.4564.8042-.6487,1.2321l-5.0117,11.4147-25.0689-33.9832-16.9228-25.792-.953-14.3912c-.2358-3.4947-3.5079-6.3444-7.2374-6.3968l-1.6686-.0226c-3.6515-.0513-6.5238,2.638-6.4343,6.0298l.4156,15.1384-.0053.0302c-.1602,1.4142.1493,2.9419.9832,4.3504l11.8443,19.9527-2.1757,1.2919-15.5305-23.4463-1.1338-14.0345c-.2747-3.4135-3.3546-6.0351-6.8122-5.8861l-1.5524.0609c-3.3931.1463-6.0202,2.9325-5.8773,6.2507l.5413,12.7362c-1.1521-2.3735-3.62-3.923-6.2511-3.7113l-1.5347.1206c-3.3446.2646-5.8499,3.3035-5.6114,6.8089l1.0953,15.831c-.0555,1.064.1269,2.15.5359,3.1877-.0263-.0655-.0428-.1272-.0594-.1893.0391.1202.0881.2441.1273.3645.055.1202.1076.2511.1627.3715.0551.1205.12.2444.1812.3614.0541.1033.1047.1999.1649.2997l.099.1586,11.2209,18.6681-3.3637,1.9973-4.4898-8.7306-1.2852-7.2469c-.6004-3.3601-3.4885-5.6757-6.41-5.2094-.623.1001-1.1981.3232-1.7126.6346-1.9003,1.1504-3.0337,3.5989-2.6439,6.2129l1.2265,8.2839c.1404.9652.4632,1.8651.9192,2.6425.0669.1918.1499.3841.2394.5728l8.5552,18.0598c.052.1098.1043.2201.163.3262Zm10.9086-42.7368l-1.1457-10.6908,15.6196,26.0396-3.0806,1.8292-11.3934-17.1779Z"/></clipPath><clipPath id="clippath-2"><path class="cls-7" d="m993.3183,237.1073l36.4202-35.2457-13.1586-13.5972c-1.9388-2.0034-5.1642-2.0563-7.1675-.1175l-36.774,35.5881c-12.8878,12.4722-16.5958,30.9978-10.9863,46.944l-195.6614,189.3513c-11.4927-2.434-23.9496.7045-33.0265,9.4886-14.5067,14.0389-14.8862,37.1796-.8471,51.6865,14.0388,14.5066,37.1796,14.8859,51.6863.847,9.0769-8.7841,12.6219-21.1315,10.5658-32.6977l197.0929-190.7366c14.8005,4.1613,31.3955.595,43.1818-10.8112l36.774-35.5881c2.0034-1.9388,2.0563-5.1641.1175-7.1675l-13.1586-13.5972-36.4202,35.2457c-8.138,7.8755-21.2399,7.6607-29.1153-.4771h-.0001c-7.8754-8.138-7.6607-21.2399.4772-29.1154Zm-215.6706,243.0643c8.0239,9.8773,7.3,24.4215-2.0159,33.437-9.8433,9.5258-25.5451,9.2685-35.0708-.5747-9.5259-9.8433-9.2685-25.5451.5748-35.0709,9.3159-9.0155,23.8761-9.2622,33.4852-.9189l3.0267,3.1276Zm207.5475-205.5417c1.9387,2.0033,1.8859,5.2288-.1175,7.1675l-11.5384,11.1663c-2.0034,1.9388-5.2289,1.8858-7.1675-.1175l-1.0072-1.0408c-1.9388-2.0034-1.8859-5.2288.1175-7.1675l11.5384-11.1663c2.0034-1.9388,5.2287-1.8859,7.1675.1175l1.0072,1.0408Z"/></clipPath><clipPath id="clippath-3"><path class="cls-7" d="m1068.0945,312.2081c.4251.944.4599,1.9791.1653,2.9126-.3151.9981-1.0103,1.8788-2.0088,2.3981l-144.9933,75.4207c-.0195.0101-.0271.0342-.0169.0537l3.2376,6.2242c3.3259,6.394.8157,14.3467-5.5783,17.6726l-114.1831,59.3942c-7.0131,3.648-15.7359.8947-19.3839-6.1184l-13.8424-26.6114c-1.0489-2.0164-.2572-4.5243,1.7592-5.5732l131.2273-68.2601c2.0164-1.0489,4.5243-.2572,5.5732,1.7592l7.3762,14.1805c.0101.0195.0342.0271.0537.0169l144.7539-75.2962c2.1102-1.0977,4.8834-.3423,5.8601,1.8265Z"/></clipPath><clipPath id="clippath-4"><path class="cls-7" d="m807.8768,404.803l.0017.0107c.006.1106.0237.22.0413.3294l10.4632,64.8318c.9338,5.7859,6.9916,8.8159,13.2749,6.898l52.621-16.0626c.978-.2985,1.9075-.7739,2.7517-1.3767.0067-.002.0131-.0112.0262-.0223.62-.3792,1.228-.8346,1.8114-1.3547l19.2893-17.1095c.605-.5343,1.1489-1.1225,1.6445-1.7682,2.7119-3.3287,4.6831-8.6202,5.0603-13.6976l.8442-11.4371c.2685-3.6638-1.5081-6.66-3.9488-7.3032-.5358-.1434-1.098-.1662-1.6623-.0872-2.0805.2915-4.2275,2.0087-5.3881,4.7812l-4.5412,10.8066c-.3134.2074-.6204.4376-.9213.682l-7.9972,6.5826-1.1174-32.4794.6275-31.9624,7.7076-15.5471c1.943-3.9298,1.0174-9.6034-2.1394-12.7159l-1.4585-1.4364c-3.2942-3.248-7.7637-2.5831-9.8519,1.573l-8.939,17.834-.0234.03c-1.0048,1.4636-1.6021,3.3819-1.6015,5.5146l.0363,27.0886-2.659.1685-2.0842-33.9742,7.4989-17.6289c1.9082-4.4823.3361-10.794-3.6078-14.1304l-1.8254-1.5558c-4.1327-3.4964-9.2754-2.5439-11.31,2.2286l-7.5051,17.5762c.0089-4.1996-2.2556-8.7275-5.98-11.1613l-2.2331-1.4644c-5.0359-3.2994-10.8028-1.6914-12.6635,3.6486l-7.9244,22.8371c-.7057,1.3522-1.056,2.9287-1.0302,4.6184-.0024-.1066.0081-.2001.0185-.2943-.0096.188-.0063.389-.0159.5769.0145.2005.0193.4127.0339.6129.0145.2001.0419.4125.0677.6127.0227.1765.044.3414.078.5179l.0589.2827,5.605,29.4108-5.5612.3524-1.7007-12.6467,2.1095-9.6314c1.007-4.6316-2.0302-9.9092-6.8886-11.7683-1.0611-.405-2.1235-.6065-3.1446-.6375-3.8238-.1161-7.1433,2.2159-7.942,6.0687l-2.4542,11.7588c-.2813,1.3263-.2221,2.6907.1225,3.9832.009.2854.0446.582.0923.8781l4.153,25.7327c.023.1422.046.2849.0806.4259Zm37.7011-41.7086l4.878-13.9068,3.4897,39.5195-4.3454.2754-4.0223-25.888Z"/></clipPath><clipPath id="clippath-5"><path class="cls-7" d="m1697.3754,77.7288l-6.5015-27.5563c-.0719-.3048-.1561-.6068-.2618-.8906-.1789-1.3602-.666-2.7133-1.4714-3.9407l-7.0548-10.8202c-2.288-3.5186-6.5351-5.0629-10.4232-4.1566-1.0517.2451-2.0872.6668-3.0496,1.29-4.486,2.9106-5.7705,8.9471-2.8562,13.4264l6.1213,9.3784,3.2824,13.9124-6.3458,1.4792-5.473-32.4912-.0446-.2986c-.0309-.1856-.0712-.3565-.1143-.5393-.0489-.2072-.1007-.4269-.1618-.6312s-.1374-.4183-.1986-.6226c-.0826-.1861-.1562-.3882-.2388-.5743.0475.0919.0949.1833.1331.2906-.6192-1.6954-1.6037-3.1894-2.8912-4.3817l-17.3097-20.9334c-4.0391-4.8728-11.3415-5.5888-16.2359-1.5661l-2.2254,1.8309c-3.7937,3.1097-5.0685,8.205-3.5544,12.5986l-15.9698-16.9495c-4.3383-4.6096-11.6689-4.8435-16.2993-.5225l-2.0901,1.9664c-4.6303,4.321-4.8544,11.6285-.5006,16.2477l17.0894,18.142,9.804,41.5539-3.9983.932-10.1819-33.259c-.7752-2.5208-2.3489-4.5979-4.3613-6.0194l-.0454-.0284-19.7606-18.4194c-4.6442-4.3204-11.9781-4.0768-16.305.5466l-1.9578,2.0895c-4.3269,4.6234-4.0754,11.923.5565,16.2462l18.251,16.9956,12.9127,42.1545,11.3172,47.9671-16.8049-4.2512c-.6439-.1583-1.2941-.29-1.9479-.3819l-12.6603-13.4756c-3.2424-3.4632-7.9605-4.6534-12.0689-3.6957-1.1248.2622-2.2122.6828-3.2077,1.2754-4.5958,2.7176-7.0725,8.7877-5.1656,14.5181l6.0828,18.2374c2.7641,8.2704,8.8932,15.5503,15.6884,18.7644,1.2494.6478,2.5676,1.1507,3.9796,1.5037l42.8791,10.8306c1.2357.3162,2.4792.5024,3.7034.5518.0273.0062.0423.0153.0546.0124,1.7004.2085,3.4747.1297,5.2356-.2808l80.5882-18.7858c8.0697-1.8811,13.1189-10.005,11.2203-18.0519l-18.9608-80.3643c-.0288-.122-.0576-.2441-.0986-.3633l-.0028-.0119c-.0251-.1612-.0626-.3202-.1-.4785Zm-53.8582-1.9808l-5.7347,1.3368-10.7304-45.4803,11.3351,13.7079,5.13,30.4356Z"/></clipPath><clipPath id="clippath-6"><path class="cls-7" d="m2052.8533,636.7127l-.5109-12.1151c-.0057-.134-.0167-.2678-.0383-.3956.0346-.5869-.0612-1.1949-.3013-1.775l-2.0977-5.1098c-.6796-1.6611-2.3444-2.6443-4.0561-2.5672-.463.0209-.9335.1173-1.3895.3044-2.1258.8744-3.1554,3.3161-2.2896,5.4309l1.8209,4.4294.2579,6.1166-2.7938.1258.3217-14.1129.0053-.1293c.002-.0806-.0012-.1557-.0046-.2361-.0038-.0911-.0079-.1877-.0171-.2785s-.0241-.1869-.0333-.2778c-.0198-.0849-.0344-.1757-.0542-.2606.0126.0424.0252.0846.0326.1328-.1238-.7625-.4178-1.4689-.864-2.0719l-5.6011-10.1725c-1.308-2.3687-4.3273-3.2424-6.7152-1.9316l-1.0859.5967c-1.8502,1.0125-2.7995,3.0585-2.5169,5.0276l-5.3587-8.3897c-1.4553-2.2813-4.5255-2.9541-6.8263-1.4971l-1.0398.6644c-2.3007,1.4571-2.9862,4.5172-1.5252,6.8037l5.7341,8.9796.7704,18.2691-1.7603.0793-1.6005-14.8052c-.1228-1.1224-.6179-2.1205-1.351-2.8768l-.0168-.0155-6.8373-9.3057c-1.6076-2.1834-4.7178-2.6554-6.9151-1.0472l-.994.7266c-2.1973,1.6082-2.6818,4.7022-1.0795,6.8859l6.3163,8.5878,2.0318,18.7656.8892,21.0886-6.7377-3.107c-.2585-.1171-.5219-.2235-.7899-.3135l-4.2451-6.6673c-1.0862-1.7126-2.9782-2.5835-4.7869-2.5021-.4952.0223-.9875.1142-1.4549.2858-2.1565.7845-3.6912,3.147-3.3511,5.7098l1.0882,8.1575c.4959,3.6997,2.4898,7.246,5.0934,9.132.4741.3707.9889.6858,1.5554.9451l17.1933,7.9209c.4952.23,1.0041.4058,1.516.5226.011.0047.0166.0097.022.0095.6997.221,1.4537.3268,2.229.2919l35.4794-1.598c3.5527-.16,6.3376-3.1859,6.1884-6.7237l-1.4898-35.332c-.0023-.0537-.0045-.1073-.0122-.1607l-.0002-.0052c.0025-.0699-.0005-.1398-.0034-.2094Zm-22.5357-5.0539l-2.5247.1137-.8431-19.9953,3.6679,6.6613-.3,13.2203Z"/></clipPath></defs><g id="Layer_4"><path class="cls-37" d="m1599.1709,932.5112c-101.8616-45.3103-224.6045-92.0759-389.325-139.2654-5.9133-1.3372,5.8442,10.4753,16.644,24.675,11.4253,14.178,21.8455,30.7371,27.7493,38.2793,124.248,143.573-47.189,292.8298-199.886,415.9094-44.0068,36.7128-86.29,70.6243-119.6816,104.5892h265.53c10.1218-8.196,20.5776-16.4642,31.3372-24.8367,147.301-115.092,357.3486-249.0164,379.5525-388.5005,1.2739-14.8027-5.5928-28.7388-11.9204-30.8503Z"/><path class="cls-37" d="m1444.4542,1013.6968c112.8815,5.5996,252.8002,23.7334,348.8339,32.7476,100.0266,9.9539,149.4836,4.7776,177.7001-8.6499,26.1315-13.8975,32.2296-34.4653,41.7302-53.9402,8.3471-19.8311,20.5367-38.7202,32.0865-57.761,11.2065-19.1047,18.65-39.1877,10.6785-62.5374-6.9698-23.1201-29.1285-49.2837-52.98-75.145-21.2605-25.2917-43.7166-50.4246-33.5944-67.9846,6.8456-18.2844,45.6003-28.6917,74.205-40.1521,3.5674-1.6216-.1984-3.1445-6.834-3.0432-9.8805.1638-18.5117.6497-25.764,1.4761-4.8665.5537-9.7634,2.6875-12.5867,4.3643-26.3013,11.2263-62.1533,21.4036-77.0392,36.9175-16.658,15.1123-12.4221,35.2148,1.546,57.5542,13.5974,22.26,37.3132,47.0779,50.7885,70.1101,14.8331,23.3364,18.8583,44.5908,25.0449,66.6162,6.9963,22.2556.5334,41.4314-8.3605,59.7017-10.4431,17.8489-23.9221,34.8245-67.2535,42.364-42.3051,7.9958-114.6471,5.6726-217.5195-3.146-100.7435-8.5212-227.338-19.4094-329.3708-21.5505-13.1926-.2595-14.9504,1.9734-5.9797,4.646,13.5693,4.0457,25.5034,7.9446,36.0118,11.679,6.9333,2.4724,23.4695,4.8816,38.657,5.7334Z"/><path class="cls-37" d="m1688.4858,182.2666c27.7335,47.5842,58.3656,87.6086,86.5884,131.2036,28.1913,42.8933,53.3519,89.3142,69.1129,133.4868,16.052,44.1555,22.5884,86.1091,20.6039,119.7874-1.7258,34.3354-11.5298,60.394-22.3761,87.8811-10.6168,27.5024-24.9547,51.4224-39.7958,82.0374-15.2841,30.0215-31.3671,66.7354-55.9066,106.167-24.3047,39.2026-57.1958,81.1616-100.2502,116.376-42.3434,35.3755-94.4659,63.8838-140.8185,79.7505-6.3284,2.4058-13.3911.3066-16.1616-4.4436-4.1273-7.1274-8.7484-14.1587-13.8801-21.2939-3.4421-4.7749-1.1572-10.3838,5.4307-12.5308,104.6979-21.866,185.9701-108.5344,231.4922-181.2021,47.0531-76.4648,61.0573-139.0557,73.1208-201.854,6.8002-61.2166,11.1427-122.4631-14.3197-192.3762-22.9539-69.5222-74.4304-147.8567-119.8438-233.6877-3.5125-6.5757-2.8733-13.2812,1.5875-14.4688,6.6953-1.791,13.4021-3.4517,20.0889-4.9653,4.4392-1.0146,11.354,3.71,15.3271,10.1328Z"/><path class="cls-37" d="m1374.0305,982.1811c-80.1145,41.9111-134.6289,67.9771-193.9806,82.8335-58.3033,14.5107-121.2523,17.353-193.9733,4.6343-72.0022-12.4246-153.927-40.5178-233.8804-80.2637-79.4868-39.3621-156.9199-88.7957-208.3813-134.8726-57.7808-45.9009-90.3267-91.1465-117.3801-131.98-26.8301-40.9885-48.5532-77.95-79.584-110.0754-30.0342-32.0984-69.2598-58.6716-107.6057-77.25-37.24-19.7585-71.6213-26.8943-66.3171-48.0007.3906-2.7119,3.3472-6.0615,6.2483-7.3325,4.5269-2.0012,9.8452-4.3948,15.824-7.0342,3.908-1.7302,8.5569-1.7292,10.4712.0774,11.3877,14.5989,48.6152,26.2244,84.207,47.7446,36.5276,20.8518,70.2229,48.7161,96.4399,80.6482,26.9314,31.9795,46.3596,67.6943,71.0366,105.9927,24.7451,38.1628,55.0093,79.2781,105.1721,119.5754,45.6768,40.7358,111.9497,82.5356,181.9263,116.2825,70.2869,33.9829,144.1775,58.9551,212.6023,71.448,68.9309,12.6658,132.4868,12.8269,193.7407,1.5466,61.9774-11.5286,121.611-34.2087,199.3958-73.0613,10.2009-5.1753,21.4346-5.9868,24.5631-1.3088,4.6738,7.032,9.1936,14.0784,13.5375,21.1458,2.9165,4.6907-3.6638,13.5837-14.0623,19.2502Z"/><path class="cls-37" d="m809.0483,491.8052c-56.7927,56.8589-120.7854,129.6279-137.3496,186.8474-19.7507,59.0371,3.3303,94.4551,35.2061,117.97,33.4688,22.48,76.1401,34.7866,116.4402,51.2573,40.8445,15.7637,80.3582,35.8755,120.2339,57.3079,39.9078,21.2349,80.8207,41.8726,123.6375,54.7317,42.688,13.4019,87.0513,19.4995,131.8424,24.8982,44.3424,6.9209,89.1923,12.5586,128.5349,35.4163,39.8077,20.9397,75.0814,60.51,112.7964,94.6562,5.1012,4.394,6.985,2.4512,4.0469-3.2717-4.3822-8.5095-8.8324-16.1365-13.4077-22.8333-3.0708-4.4866-9.5906-10.261-14.2758-13.9329-34.3025-30.8694-66.1394-66.9431-101.0762-90.8806-34.6519-24.9739-73.3105-39.0159-114.2328-48.8562-40.8209-9.9609-83.7469-14.9941-124.9028-24.3142-41.4677-8.6204-81.0155-22.0945-121.8317-32.6948-41.0637-10.1106-79.5325-26.2185-117.0642-42.041-36.782-16.6731-73.9778-33.5339-95.3245-65.7888-21.4607-31.5366-25.4387-78.3892,3.8855-135.6011,27.1831-56.5437,88.4331-118.8499,138.8013-170.1704,6.3013-6.7058,2.3379-8.6873-7.4155-5.1985-14.6904,5.2764-28.2563,9.9741-40.8005,14.1311-8.3188,2.7385-20.2578,10.6355-27.7437,18.3674Z"/><path class="cls-10" d="m1484.4901,414.0884c-20.2191,20.916-35.149,47.916-43.9463,78.3464,5.2833,2.5156,24.2245,20.4688,25.1097,26.988,2.0624,15.1228,3.9894,30.2444,5.7815,45.3667,1.2686,10.8196-19.1533,6.9622-27.7892,5.7646-28.9872-4.051-57.8156-7.9177-86.4829-11.5781-8.5723-1.1096-26.115-10.5115-24.1836-20.7964,2.7522-12.605,5.4004-25.2275,7.9386-37.8662,1.153-6.7603,18.1193-17.4849,23.968-18.0425,10.9324-50.9512,33.1528-96.6187,64.5806-130.9751,6.8578-7.4995,17.2697-7.3906,22.5164-.5337,10.8384,13.8677,21.6814,27.772,32.5262,41.7209,5.2498,6.9131,5.0208,16.3867-.019,21.6052Z"/><path class="cls-21" d="m1440.5406,492.4389c-.0007-.0022-12.0969-1.3757-20.7548-2.3848-4.2517-.4229-7.0012-6.9194-5.6544-14.2954,6.8711-38.23,20.1016-60.3311,42.5029-87.2622,4.3066-5.2017,8.282-9.3687,18.6002-7.9336,2.6162,3.0281,6.9192,8.9739,9.2725,11.9263,6.3641,7.967,4.1366,17.238-.0106,21.6069-17.1332,18.124-32.8636,43.5352-41.4259,70.1606-1.5813,4.9338-2.5303,8.1809-2.5299,8.1821Z"/><path class="cls-43" d="m1416.853,488.5974c.002.0471-10.3035-2.7092-14.2418-1.741-1.8181.4993-1.3137-2.2234.5116-11.2498,10.1448-46.021,25.1787-72.3599,49.2904-98.2771,4.7262-4.9543,13.2303-9.0613,13.2328-9.0234,3.1201,4.2053,6.3098,8.2776,9.5601,12.2168.0366.0493-12.5952,2.418-22.2073,12.9429-13.7286,14.4446-32.09,44.8689-36.1812,82.0015-.8016,6.8.0336,13.1389.0354,13.1301Z"/><path class="cls-33" d="m1662.3287,708.4199c-.0933-.0076-7.2747,43.4036-20.7279,93.3455-13.083,49.9456-32.4375,106.4211-48.3298,132.6313-1.3848,2.3254-13.2212,11.4807-18.6781,11.4583-3.4791-.0117-6.9569-.0239-10.4332-.0361-5.4512-.0205-10.1152-1.7642-11.1913-4.2034-2.3048-5.1846-4.6278-10.3672-6.9684-15.5476-3.6399,7.9971-7.1865,14.957-10.559,20.542-1.3989,2.3159-13.1885,11.4175-18.6304,11.3826-3.4568-.0195-6.9124-.0396-10.3666-.0605-5.4365-.0325-10.0723-1.782-11.123-4.2151-.6344-1.4424-1.2704-2.8848-1.9075-4.3264-6.7953,3.8669-13.5897,7.2712-15.385,7.2595-5.8275-3.0864-11.6591-6.1699-17.4939-9.2505-.0862.7024-.1726,1.405-.2593,2.1077-.8605,2.3215-20.9252,6.8606-24.7112,6.8254-11.4222-1.1028-22.8309-2.2087-34.2261-3.3164-3.757-.0471-32.6722-17.0173-33.423-19.3037-.5698-3.9905-1.1475-7.9797-1.7332-11.9683-2.2181,6.2493-4.4535,12.4934-6.7056,18.7319-1.1665,2.3547-5.7969,3.9939-11.0864,3.9441-3.377-.032-6.7527-.0642-10.127-.0969-5.3032-.0569-29.4719-7.8328-30.5261-10.1802-1.7747-4.6179-3.5596-9.2317-5.3538-13.842-.756,3.4934-1.5172,6.9856-2.2833,10.4766-1.0292,2.4192-5.182,7.0251-9.9514,6.4377-2.1989-.3579-62.5414-33.1133-64.7797-33.71-.931-.2896-4.4064-1.1538-5.9348-4.6143-13.4049-77.9966-29.0836-155.377-46.3339-232.0596-1.2788-2.7268-1.4133-5.5959-.4011-8.4124,32.9915-43.6155,64.9321-88.0056,95.2349-132.877.6191-2.1375,3.8892-3.8259,7.8403-4.0574,2.5204-.1465,5.0414-.2915,7.5632-.4351,3.9537-.2263,7.5321,1.075,8.5768,3.1274,1.9763,4.418,3.949,8.8389,5.9167,13.2642,3.5153-6.6924,6.9962-13.3936,10.4412-20.1035.9423-2.7917,5.3949-8.2722,11.376-7.9902,2.765.1321,9.1893.8738,12.0717,1.5269,1.2095.2612,5.6528,1.002,8.0378,4.8564,7.4219,4.9199,14.8606,9.8647,22.3145,14.833,3.4067-5.5137,6.7866-11.0327,10.1385-16.5552.5607-2.6907,3.5092-7.9612,7.7976-7.5591,1.9904.1941,6.6095,1.0383,8.6919,1.7251.8719.2888,4.09,1.0984,5.9539,4.8911,1.5667,2.5215,3.1323,5.0435,4.6967,7.5679.9147-1.7568,1.8265-3.5146,2.7356-5.2725.5538-2.7122,14.2533-10.9788,18.5679-10.5435,1.9855.2073,6.629,1.0833,8.7374,1.7856.8773.2927,4.1012,1.1272,6.0061,4.9458,2.7163,3.438,5.4316,6.8794,8.146,10.3242,2.4535-1.3945,4.9606-2.7588,7.5355-4.083,15.0227-7.729,19.1685-22.6348,25.2245-22.8442,12.0524-.3835,23.3175,12.2761,26.251,13.3398,4.9797,1.8108,11.24,4.0764,17.3038,6.4316,1.505-3.1501,2.9999-6.3005,4.4844-9.4517.8398-2.8289,5.1292-8.3201,11.3087-7.8154,2.8478.2266,9.5033,1.2109,12.4943,1.9551,1.2585.3184,5.875,1.2344,8.5316,5.2561,34.323,36.2007,68.5837,72.7129,102.4672,109.3811,17.0316,26.3438,4.8002,91.0786,3.1842,94.377Z"/><path class="cls-40" d="m1255.5009,654.0818c-.1848,2.8088-.4878,5.6785-.89,8.4524-8.1438,86.1157,7.696,175.0713,45.5815,251.9116.9246,2.1943,2.2437,6.0684,2.2458,6.0674-.2323.301-19.4962-26.1453-19.7537-26.9802-.2084-.219-.9142-.8313-2.3954-4.0085.2156-.0137-16.8301-38.5898-27.2651-86.4502-11.4822-47.6274-14.5527-103.6353-17.0837-130.7485-.4242-2.9004-1.0616-18.5742-.5068-21.4919,15.7061-41.8296,36.4207-79.3501,60.4111-111.0583.7975-1.7852,2.0482-1.8276,2.047-1.8286-.0016-.0039-.8312,2.0913-.8998,2.5547-.3757,2.48-.8176,4.5708-1.4069,6.4458-17.2126,32.5989-30.9026,68.782-40.0841,107.1345Z"/><path class="cls-40" d="m1574.9665,650.2588c-.8063-3.0127-1.559-6.1426-2.2115-9.1865-11.4751-40.0295-28.3044-79.0515-49.6133-116.0728-1.2024-2.4578-3.4207-7.2371-2.7574-6.9082.3093.1526,1.23.8835,1.7867,1.4839.2292.25.9824.9512,2.9899,4.3975,14.6151,20.1836,28.0197,41.4263,39.9353,63.5425,11.6633,23.3513,21.9041,42.8171,22.5681,45.9946,8.1947,36.333,13.2601,97.4199,4.2869,152.8342-7.5897,55.7598-28.6818,105.7671-39.0453,127.9241-.8889,2.0151-5.0378,9.645-5.415,9.47-.2291-.1047-.4567-.2112-.6852-.3159-.3569-.1626-.0183-1.8018.7977-3.9421,37.5824-84.6509,47.1761-177.9883,27.3632-269.2212Z"/><path class="cls-40" d="m1518.9504,676.9236c2.5542-4.7512-42.729-108.1536-47.0769-109.0647-.0042-.0552-11.2898-13.8882-18.2335-27.9146-3.0055-6.2681-10.2054-17.9893-10.0979-18.0786.2966-.2471,6.925,9.7461,7.514,10.6646,2.8601,4.0674,7.5452,11.021,9.4623,14.4009,14.619,17.2051,28.5155,35.6919,41.4011,55.3599,11.5388,23.6147,27.6267,85.8657,27.1896,89.2822-.4048-.238,7.8625,50.7458,1.8362,107.0059-4.3208,56.4912-23.7849,116.8003-33.0713,140.5586-.7241,2.1565-3.9988,10.5374-4.1687,10.4792-.0966-.0339-.1879-.0725-.2844-.1042-.1495-.0552.2916-1.6953,1.0436-3.957,34.0406-84.9602,42.549-178.7883,24.486-268.6321Z"/><path class="cls-40" d="m1338.561,666.4487c-.319-3.1914,4.1998-51.0278,4.4099-54.1074-.0878-.1113,12.2892-51.4077,16.3875-74.6035.6652-3.9141,2.7003-7.3711,2.7001-7.3711.0002.0015.8127,2.1865.8408,2.9375.0411,1.1279.059,2.4741-.262,4.7744-5.1787,33.8792-6.2634,119.2439-5.9502,119.2527.1965,3.1128.2771,6.3228.2426,9.427.3339,77.134,3.8407,154.4705,10.7322,231.7551.1417,2.3022-.9152,23.1743-1.3184,23.2463-.0023.0059-5.3636-4.9424-5.8145-6.7163-.1483-.4272-5.016-25.6284-5.3158-27.9553-8.5776-73.2603-14.0955-146.874-16.6522-220.6394Z"/><path class="cls-40" d="m1445.7777,663.4551c-.0121-3.2432-21.5001-60.624-23.2146-63.0803-5.348-23.2527-12.0052-46.3889-19.9006-69.2888-1.0664-2.3528-3.6062-9.4133-3.1432-9.0122.218.1838.9038.9734,1.3357,1.5884.179.2563.7483.9902,2.4672,4.3242.3628-.207,23.1196,47.1675,32.1216,71.7129,1.3523,2.6194,19.5508,35.2644,20.0934,38.4502,9.5813,32.3735,23.4412,105.9609,21.9794,171.8538.4034,65.8301-13.8539,123.7134-13.3263,123.4417-.4368,2.2915-3.187,14.2964-3.4388,14.2471-.2686-2.7334-.5576-5.4585-.8636-8.1787-.0535-.0427,4.0088-26.2561,4.1268-28.5444,10.9587-84.3977,3.8811-168.2957-18.2368-247.5137Z"/><path class="cls-38" d="m1262.4708,658.6401c-.2332,2.8215-.5159,5.7327-.8312,8.5356-9.5377,83.4324,3.7037,170.9641,39.0244,248.126,1.0022,2.2239,2.3933,6.176,2.3992,6.1758-.2729.2532-17.3577-28.1902-17.4604-29.033-.1583-.2483-.1559-.7229-1.5748-3.9944-.6365.3821-14.5122-38.1418-22.1434-84.3049-8.5613-45.9731-11.1978-99.7852-10.0065-126.009-.1786-2.844.076-18.1516.5284-21.0261,9.697-42.2698,24.8069-82.0251,44.0587-117.4575.7706-1.8572,1.5153-2.179,1.5153-2.1804-.0022-.0017-.3191,2.4172-.436,2.8755-.6412,2.418-1.5826,4.8564-2.2303,6.7671-15.1995,34.7146-26.415,72.4084-32.8433,111.5254Z"/><path class="cls-38" d="m1588.6521,650.4272c-.7642-3.1003-1.5347-6.3254-2.2509-9.4363-15.4041-41.2192-36.1897-80.4502-60.9849-116.697-1.2513-2.4539-5.078-6.2522-5.0798-6.2437.9368.489,1.8735.9817,2.8104,1.48-.0032.0027.9001,1.2146,3.319,4.2305,17.1686,19.7405,33.3007,40.9666,48.0054,63.5,10.5238,24.2227,18.3734,44.375,19.1171,47.554,9.2239,36.5454,12.3452,98.1699,1.4629,153.1277-9.5314,55.4575-32.369,104.1636-42.1707,126.4846-.8444,2.0232-4.6241,9.8113-4.8297,9.7175-.1184-.0542-.2363-.1104-.3562-.1641-.1885-.0879.3044-1.6548,1.158-3.7812,41.1692-82.5591,55.8984-175.9785,39.7994-269.772Z"/><path class="cls-38" d="m1507.5483,616.5349c-.5889-3.6077-28.9819-48.0974-30.9054-50.3608-.0236-.0911-15.0104-12.5857-22.1945-26.406-3.125-6.2007-10.3286-17.9233-10.2656-17.9819.2134-.187,6.7356,9.8716,7.3015,10.7998,2.7589,4.1172,7.7931,9.2441,9.7166,12.6345,15.1237,16.9338,29.5653,35.2087,43.0431,54.74,11.5692,23.7297,28.1261,86.1946,27.7151,89.6331-.392-.2424,7.4171,51.5945.6665,108.3452-5.0072,57.031-25.348,117.488-34.4922,141.241-.7129,2.1641-3.8931,10.5742-4.0178,10.5242-.068-.0264-.1337-.0493-.2017-.074-.1058-.0361.3746-1.667,1.1353-3.9221,43.1272-103.4402,47.2664-220.9924,12.4991-329.1729Z"/><path class="cls-38" d="m1355.5748,669.2016c-.2455-3.1284.6815-50.6216.8119-53.709-.0997-.0315,3.309-51.5681,5.0111-75.1011.2611-3.9478,1.5609-7.4917,1.5612-7.4858.0002-.0007.2471,2.1243.2468,2.8726.0029,1.1218-.0063,2.4719-.1371,4.7876-2.3488,34.2007-1.9591,119.3442-1.6426,119.3438.1145,3.0989.1982,6.304.2427,9.3997-1.1433,76.1101.7986,152.6453,6.1001,229.3352.1987,2.2942-1.3193,23.8074-1.4366,23.8433-.001.0005-.6597-6.1846-.9468-7.9712-.1068-.4448-2.4337-25.877-2.6719-28.1848-5.3126-72.5183-7.6168-144.9661-7.1388-217.1301Z"/><path class="cls-38" d="m1441.9503,665.0781c.0853-3.1836-18.8812-61.1455-20.667-63.6533-4.8331-23.5327-11.0394-47-18.5571-70.2808-1.0953-2.3408-3.5699-9.4141-3.246-8.9387.1544.2161.4862,1.1604.8522,1.8093.1508.2688.2601,1.2214,1.9296,4.5776.4832-.0449,16.2632,50.5005,24.3737,74.718,1.3054,2.6816,14.71,36.1621,15.2338,39.2068,9.6367,31.5801,25.6218,101.2866,27.2833,164.6108,3.3975,63.0852-7.1279,119.5417-6.6691,119.2407-.4087,2.2961-2.7607,13.2937-2.8666,13.2769.1847-2.2844.3583-4.5686.5176-6.8508.0905-.0137,4.4972-26.2686,4.6394-28.5696,8.5828-82.1672-.1375-163.1917-22.8237-239.147Z"/><path class="cls-38" d="m1460.7429,655.5617c-.0796-3.3547-26.2451-58.7795-27.9211-61.0842-8.4642-21.5366-17.9794-42.625-28.4153-63.1746-1.0698-2.2834-4.0234-8.9285-3.7061-8.4714.149.2092.6752,1.0598,1.0331,1.6846.1466.261.6049,1.0281,2.2352,4.2954.2665-.2708,25.6461,43.2273,34.2073,67.4722,1.24,2.5437,22.0137,32.5881,22.6697,35.7358,10.3364,31.6177,23.6321,106.209,20.9677,172.6123-.7416,66.4514-16.6766,124.4626-16.1193,124.1924-.3627,2.2405-3.8778,17.1389-4.0089,17.1162.6052-3.6206,1.1785-7.2378,1.7205-10.856.08-.0063,4.2692-25.5908,4.4059-27.8289,15.0804-84.2534,12.1439-169.5791-7.0686-251.6938Z"/><path class="cls-30" d="m1373.9713,758.2036c-4.2583,7.4963-8.5491,14.9822-12.8698,22.4556,6.5383,12.5037,13.0181,25.0393,19.4314,37.6045,2.5073-14.3264,4.9094-28.6677,7.2012-43.0225-4.5782-5.6895-9.1664-11.3691-13.7628-17.0376Z"/><path class="cls-32" d="m1376.228,760.9841c-3.5675,6.2688-7.1573,12.5305-10.7686,18.7837,5.4751,10.4624,10.9087,20.9473,16.2961,31.4529,2.068-11.9854,4.0616-23.98,5.978-35.9844-3.8287-4.7581-7.6642-9.509-11.5056-14.2522Z"/><path class="cls-30" d="m1406.5477,752.8955c.0111.0066-11.1481,14.7625-10.8212,19.2805.4238,4.5027,14.7742,44.7698,17.7028,47.6169,3.0902,2.8408,12.6324-37.999,12.3214-40.8269-.1907-2.8335-19.188-26.085-19.203-26.0706Z"/><path class="cls-32" d="m1403.8724,756.6084c.0076.001-8.4106,11.9507-8.1526,15.48.3014,3.5256,9.8102,30.2097,12.8511,37.4692,3.3988,7.8813,10.8375-29.9619,10.5908-32.1736-.1541-2.2073-15.2788-20.7849-15.2893-20.7756Z"/><path class="cls-37" d="m1591.5118,666.4194c-46.7279-29.4495-108.6085-25.8396-148.8975,20.5747-1.4351,1.6499-3.9463,1.8545-5.6896.4546-.7981-.6475-1.5952-1.2925-2.392-1.937-1.7412-1.3926-2.189-4.1689-.8715-6.2041,36.13-56.498,105.2448-77.1846,171.4332-47.708,29.3993,12.4993,49.2069,42.9714,42.1261,48.4702-2.8784,2.7559-5.7639,5.5112-8.6577,8.2664-6.7026,5.356-27.0015-10.0312-47.0511-21.9167Z"/><path class="cls-37" d="m1176.5822,605.4187c58.1272-32.0388,129.9636-17.6287,174.1693,36.5349,1.5907,1.9414,1.5487,4.7095.0239,6.1675-.6962.6755-1.3915,1.3513-2.0875,2.0271-1.524,1.4622-4.0287,1.3826-5.6691-.1765-46.5298-43.8201-107.5508-42.7986-147.9244-12.3591-17.5629,12.3857-35.0592,27.854-42.1637,23.1411-3.1263-2.4487-6.2533-4.8926-9.3757-7.3303-7.4071-4.7861,7.0157-34.3389,33.0272-48.0046Z"/><path class="cls-31" d="m1483.2408,727.9275c-63.6107-24.9202-132.1979-26.4138-195.7072-4.3401-2.0349.7056-4.2688-.3525-4.9669-2.3811t0,0c-.7002-2.0305.4343-4.3113,2.5258-5.0413,64.9711-22.689,135.1998-21.2378,200.4818,4.3027,2.1005.8208,3.2589,3.1846,2.5851,5.2249h0c-.6744,2.0371-2.8856,3.0288-4.9186,2.2349Z"/><path class="cls-31" d="m1345.1784,764.924h0c.1237-26.6462-20.8793-48.9016-46.0579-49.3401-14.791-.2773-29.553-.5288-44.2859-.7554-25.093-.3455-45.5171,20.7429-45.8667,46.7266t0,0c-.3276,25.988,19.6797,47.8772,44.9307,48.7214,14.8105.4692,29.6494.9526,44.5162,1.4495,25.3312.8782,46.6476-20.1555,46.7635-46.802Zm-91.2465,32.1057c-19.0964-.5847-34.3064-17.1536-34.08-36.8669t0,0c.2399-19.7107,15.7552-35.6492,34.7581-35.3491,14.9066.2539,29.8424.5332,44.8083.8362,19.0712.3689,34.8807,17.1882,34.7841,37.3127t0,0c-.0905,20.1272-16.1227,36.053-35.2828,35.4338-15.0248-.4705-30.0206-.9265-44.9877-1.3667Z"/><path class="cls-18" d="m1219.852,760.1628s0-.0002,0,0c.2396-19.7107,15.7543-35.6492,34.7583-35.3491,14.9064.2542,29.8424.533,44.8081.8362,19.0712.3684,34.8807,17.1892,34.7841,37.3125t0,0c-.0909,20.1274-16.1222,36.0508-35.2827,35.4338-15.0248-.4707-30.0206-.9263-44.9877-1.3669-19.0952-.5859-34.3071-17.1567-34.0801-36.8665Z"/><path class="cls-18" d="m1564.0914,770.6006s.0001,0,0,0c.1334,20.5469-16.119,36.7061-35.6492,35.9346-15.3163-.5981-30.6039-1.1865-45.8627-1.7632-19.4681-.7483-35.0841-17.9885-35.1005-38.3501t0,0c-.0002-20.3601,15.5325-36.5618,34.9207-35.9536,15.2061.4871,30.4419.9954,45.7074,1.5237,19.4529.6665,35.8586,18.0625,35.9843,38.6086Z"/><path class="cls-31" d="m1436.3987,766.0556v.0005c.0084,26.8726,20.5162,49.6543,46.2552,50.6729,15.097.585,30.222,1.1797,45.375,1.7834,25.814,1.0398,47.4561-20.3093,47.2622-47.4802,0-.0002,0-.0007-.0001-.0005-.1801-27.1721-22.025-50.1809-47.7053-51.0405-15.0864-.5115-30.1436-1.0017-45.1719-1.4695-25.5989-.7791-45.9954,20.6609-46.0151,47.5339Zm91.7086-34.0637c19.4536.6665,35.8594,18.0625,35.9841,38.6086t0,.0005c.134,20.5461-16.1196,36.7068-35.649,35.9341-15.3164-.5981-30.604-1.1865-45.8625-1.7632-19.4688-.748-35.085-17.9902-35.1007-38.3499v-.0002c-.0007-20.3601,15.533-36.5618,34.9207-35.9536,15.2062.4871,30.4418.9954,45.7075,1.5237Z"/><path class="cls-37" d="m1497.4914,752.5254c.5328,10.8657-7.4857,19.7329-17.7893,19.8159-10.3064.085-18.9741-8.6167-19.4703-19.4421-.493-10.825,7.3412-19.7097,17.6118-19.8323,10.2694-.1216,19.1166,8.5933,19.6478,19.4585Z"/><path class="cls-37" d="m1273.6053,755.7593c.3905,11.7551-8.4916,21.4231-19.7321,21.6082-11.2429.186-20.5659-9.1074-20.9139-20.762-.3457-11.6553,8.3762-21.3462,19.5789-21.6282,11.1991-.2822,20.6783,9.0273,21.0671,20.782Z"/><path class="cls-30" d="m1429.438,919.5305s.0001-.0002,0,0c-29.609,2.7849-55.5138-20.2053-58.3824-50.9612h-.0004c-.8474-9.1443,5.5525-17.3586,14.2952-18.26,25.0782-2.5764,50.2272-5.1667,75.4454-7.7634,8.7882-.9082,16.7841,5.916,17.6848,15.1694t.0001.0005c3.0557,31.1616-19.4519,59.0278-49.0427,61.8147Z"/><path class="cls-37" d="m1429.438,919.5305s.0001-.0002,0,0c-26.1647,2.4585-49.278-20.8047-52.1564-51.5867h0c-.851-9.1506,4.7194-17.2878,12.4468-18.0845,22.1671-2.2781,44.3898-4.5667,66.6663-6.8606,7.7642-.8015,14.9143,6.1052,15.8118,15.3528h0c3.0427,31.1443-16.6216,58.7146-42.7684,61.179Z"/><path class="cls-27" d="m1.173,506.3188l1.9747-.5219c.577-.1525.8633-.8011.5871-1.3302l-.4176-.8c-.2762-.5291-.9721-.665-1.4271-.2788l-1.5571,1.3219c-.7556.6414-.1183,1.8622.8399,1.609Z"/><path class="cls-22" d="m2.4993,502.7487l24.4652-20.5862c6.2777-5.2824,14.568-9.9938,15.5718-8.0709l7.8854,15.1054c1.0038,1.9229-7.6013,6.0312-15.5243,8.1619l-30.877,8.3037c-.2336.0628-.5161-.0844-.6409-.3237l-.981-1.8793c-.1249-.2392-.0842-.5552.1009-.7109Z"/><path class="cls-11" d="m2.8796,503.4771l26.0682-17.5156c6.689-4.4945,15.058-9.0551,15.5599-8.0937l3.9427,7.5527c.5019.9615-8.0245,5.2206-15.5362,8.1392l-29.2741,11.3743c-.2214.086-.4435.0546-.5059-.065l-.4905-.9396c-.0624-.1196.0387-.3198.2359-.4523Z"/><rect class="cls-41" x="20.5119" y="404.3242" width="309.7487" height="20.0551" rx="10.0275" ry="10.0275" transform="translate(522.6098 700.5047) rotate(152.4344)"/><rect class="cls-28" x="20.5119" y="409.338" width="309.7487" height="10.0275" transform="translate(522.6098 700.5046) rotate(152.4344)"/><path class="cls-38" d="m199.5461,462.3012h0c9.243,7.148,19.8426,6.342,23.06-1.9737l12.9235-33.4029c2.9044-7.5069-2.5661-18.0257-11.7083-23.2749h0c-8.7315-5.0134-17.9683-3.5351-20.9229,3.1901l-13.0916,29.7992c-3.2452,7.3868.9424,18.8593,9.7392,25.6622Z"/><path class="cls-38" d="m229.1352,431.4329h0c10.8568-1.3079,8.6004-17.3026-.3818-29.0973l-10.8201-14.2079c-3.213-4.2191-8.5427-6.3896-12.4534-5.6742h0c-3.8741.7087-6.3289,4.2449-5.2819,8.7512l3.4871,15.0074c2.85,12.2657,14.8626,26.4963,25.45,25.2208Z"/><path class="cls-36" d="m204.2272,380.3542c8.5508,8.2533,11.4385,19.9028,11.7909,31.322,0,0-2.5177,2.0554-2.5177,2.0554-3.0024,2.4508-6.5083,4.036-10.4377,4.645-1.4575.2234-3.0132.3503-4.8577.1931l-.6418-.6309,2.3491-2.6592c2.3683-2.638,4.8156-5.2023,7.2817-7.7473,0,0-.2424.741-.2424.741-1.0267-6.6705-2.0103-14.087-2.8425-20.823,0,0-.7724-6.9665-.7724-6.9665l.8906-.1296h0Z"/><path class="cls-39" d="m216.6383,398.7275l-71.666,91.2988c-.8875,1.1306-2.3632.8846-3.2794-.5467l-19.8087-30.9455c-.9162-1.4313-.9397-3.5274-.0522-4.6579l71.666-91.2988c.8875-1.1306,2.3632-.8846,3.2794.5467l19.8087,30.9455c.9162,1.4313.9397,3.5274.0522,4.6579Z"/><g class="cls-8"><path class="cls-23" d="m216.7007,398.8397l-71.666,91.2988c-.8875,1.1306-2.3632.8846-3.2794-.5467l-19.8087-30.9455c-.9162-1.4313-.9397-3.5274-.0522-4.6579l71.666-91.2988c.8875-1.1306,2.3632-.8846,3.2794.5467l19.8087,30.9455c.9162,1.4313.9397,3.5274.0522,4.6579Z"/></g><path class="cls-38" d="m160.9652,497.1988l57.122-31.246c5.8617-3.2064,5.8906-12.3294.2624-19.9589l-45.5331-61.7237c-3.7084-5.0271-10.2789-6.8602-14.7-4.2351l-43.3219,25.7231c-4.2568,2.5275-5.6585,8.9594-3.0506,14.4647l31.8496,67.2328c3.9149,8.2642,11.7896,12.7965,17.3715,9.7431Z"/><path class="cls-38" d="m172.6981,401.6305l1.7438-.8352c3.8485-1.8432,4.6796-6.9104,1.8996-11.1475l-21.8713-33.3346c-2.165-3.2998-6.5484-4.5728-9.7751-2.9049l-1.4628.7561c-3.2081,1.6583-4.2296,5.6962-2.2396,9.0496l20.0813,33.8402c2.5497,4.2966,7.8015,6.4069,11.6241,4.5761Z"/><path class="cls-38" d="m147.3362,367.2489l1.8103.1298c4.0276.2889,7.1568-2.6944,6.8999-6.5661l-1.1095-16.7237c-.2319-3.4949-3.5077-6.3496-7.2333-6.3998l-1.676-.0226c-3.6477-.0491-6.5194,2.6399-6.4277,6.0282l.438,16.1887c.1013,3.742,3.3614,7.0831,7.2983,7.3655Z"/><path class="cls-38" d="m127.3453,370.1117l1.6842.0221c3.7424.0492,6.5895-3.0588,6.2841-6.8401l-1.3177-16.3174c-.2751-3.4067-3.3567-6.029-6.8113-5.885l-1.5559.0649c-3.3901.1413-6.0178,2.9291-5.8764,6.2499l.6763,15.8837c.1565,3.6755,3.2495,6.7737,6.9166,6.8219Z"/><path class="cls-38" d="m151.421,402.3171l1.5902-.9327c3.5047-2.0556,4.1732-7.0723,1.5405-11.047l-20.7756-31.3652c-2.0627-3.114-6.1504-4.1212-9.1201-2.3067l-1.3479.8236c-2.9595,1.8083-3.8448,5.837-1.9342,9.0222l19.2316,32.0617c2.4355,4.0603,7.3249,5.7913,10.8155,3.7439Z"/><path class="cls-38" d="m115.138,387.188l1.6686-.0419c3.7049-.093,6.4144-3.5087,5.9851-7.5138l-1.8466-17.2281c-.3843-3.5857-3.5052-6.2448-6.9046-5.9745l-1.5322.1218c-3.3409.2656-5.8499,3.3017-5.6071,6.8093l1.1648,16.8297c.2704,3.907,3.436,7.0886,7.0719,6.9973Z"/><path class="cls-38" d="m140.0843,420.6287l1.5378-1.0701c3.3849-2.3555,3.8556-7.7535,1.1106-11.8909l-21.6038-32.5626c-2.1393-3.2246-6.2089-4.1425-9.0862-2.1097l-1.3073.9236c-2.8736,2.0301-3.6254,6.347-1.6309,9.6649l20.1355,33.4968c2.5577,4.255,7.4647,5.8999,10.8443,3.548Z"/><path class="cls-38" d="m119.8803,423.2391h0c2.8974-1.6966,3.7314-6.0854,1.8847-9.6766l-9.1525-17.7981c-1.6154-3.1413-5.06-4.373-7.6794-2.7981h0c-2.6139,1.5717-3.5354,5.4158-2.025,8.6042l8.5552,18.0596c1.7257,3.6429,5.5263,5.3016,8.417,3.609Z"/><path class="cls-38" d="m108.2774,404.1158h0c3.1039-.4014,5.1347-3.7144,4.4978-7.2967l-1.4906-8.3844c-.5978-3.3624-3.4872-5.6807-6.4076-5.2106h0c-2.8953.4661-4.8496,3.5204-4.3574,6.8447l1.2266,8.2852c.5238,3.5381,3.4555,6.1596,6.5312,5.7618Z"/><g class="cls-9"><path class="cls-36" d="m143.6061,334.3786c6.3954,7.9608,8.512,17.9079,8.1413,27.7919-.0001,0-.6588-2.9978-.6588-2.9978.6355,1.7869,1.1892,3.6091,1.6384,5.4768,1.3878,6.0291,1.9148,12.115.5225,18.3411,0,0-.8253.3589-.8253.3589-3.269-6.7975-6.494-13.9117-9.5114-20.7993-.1712-4.719-.1777-9.4419-.2727-14.1626-.0303-3.478.0027-10.5096.0662-13.9888,0,0,.8999-.0203.8999-.0203h0Z"/><path class="cls-36" d="m120.0119,342.934c3.2136,6.8826,4.6852,14.4291,5.5514,21.9187-.0001,0-.266-.8408-.266-.8408,3.4282,6.8972,6.5752,13.9418,9.3101,21.147.915,2.4109,1.7778,4.8489,2.5337,7.3416l-.2668.137c-.0285-.0894-14.1997-27.2917-14.1952-27.3838-.9512-6.4509-2.0748-15.7287-2.9643-22.2784,0,0,.2972-.0412.2972-.0412h0Z"/><path class="cls-36" d="m108.2387,351.675c4.3468,8.1448,5.8493,17.278,6.3043,26.3645-.0001,0-.3436-1.3891-.3436-1.3891,1.587,4.0763,2.9898,8.2141,4.1082,12.4556,1.1367,4.3288,2.042,8.6793,2.3494,13.2097,0,0-.4598.1968-.4598.1968-1.7834-3.9744-3.5681-7.9482-5.2893-11.9492-.029-.0749-5.2177-11.9844-5.2433-12.0489-.4241-4.4723-.6822-8.9577-1.0306-13.4357-.2607-3.3196-.7102-10.0372-.8938-13.3635,0,0,.4985-.04.4985-.04h0Z"/><path class="cls-36" d="m102.9293,371.3124c6.5911,8.6141,8.753,19.2161,8.539,29.7429-.0002,0-.5487-2.6442-.5487-2.6442,3.708,11.124,6.324,22.6757,5.5155,34.5398-.0002,0-.8376.3296-.8376.3296-1.9677-4.6932-4.6829-11.1366-6.5129-15.7923,0,.0001-6.3758-15.8458-6.3758-15.8458l-.052-.1294-.0071-.1555-.1704-3.7485c-.1248-5.3893-.3014-13.3491-.4263-18.7576-.0356-2.5017-.0134-5.0053-.0232-7.5078l.8994-.031h0Z"/><polygon class="cls-36" points="152.1485 386.7094 154.2102 385.4878 153.1411 382.9894 150.6602 384.4625 152.1485 386.7094"/><polygon class="cls-36" points="134.7005 395.463 138.3691 394.8448 137.1059 392.5105 133.9298 394.3964 134.7005 395.463"/><polygon class="cls-36" points="117.9148 405.5281 121.78 405.2099 120.5875 402.3101 117.06 404.4132 117.9148 405.5281"/></g><path class="cls-1" d="m993.3183,237.1073l36.4202-35.2457-13.1586-13.5972c-1.9388-2.0034-5.1642-2.0563-7.1675-.1175l-36.774,35.5881c-12.8878,12.4722-16.5958,30.9978-10.9863,46.944l-195.6614,189.3513c-11.4927-2.434-23.9496.7045-33.0265,9.4886-14.5067,14.0389-14.8862,37.1796-.8471,51.6865,14.0388,14.5066,37.1796,14.8859,51.6863.847,9.0769-8.7841,12.6219-21.1315,10.5658-32.6977l197.0929-190.7366c14.8005,4.1613,31.3955.595,43.1818-10.8112l36.774-35.5881c2.0034-1.9388,2.0563-5.1641.1175-7.1675l-13.1586-13.5972-36.4202,35.2457c-8.138,7.8755-21.2399,7.6607-29.1153-.4771h-.0001c-7.8754-8.138-7.6607-21.2399.4772-29.1154Zm-215.6706,243.0643c8.0239,9.8773,7.3,24.4215-2.0159,33.437-9.8433,9.5258-25.5451,9.2685-35.0708-.5747-9.5259-9.8433-9.2685-25.5451.5748-35.0709,9.3159-9.0155,23.8761-9.2622,33.4852-.9189l3.0267,3.1276Zm207.5475-205.5417c1.9387,2.0033,1.8859,5.2288-.1175,7.1675l-11.5384,11.1663c-2.0034,1.9388-5.2289,1.8858-7.1675-.1175l-1.0072-1.0408c-1.9388-2.0034-1.8859-5.2288.1175-7.1675l11.5384-11.1663c2.0034-1.9388,5.2287-1.8859,7.1675.1175l1.0072,1.0408Z"/><g class="cls-3"><rect class="cls-26" x="538.7254" y="295.2789" width="682.3181" height="63.9545" transform="translate(29.6948 725.3399) rotate(-45.4921)"/></g><path class="cls-38" d="m874.4109,457.3959h0c3.1116,4.7675,9.6204,4.9531,14.4604.6588l19.2845-17.1104c4.2997-3.815,5.9812-10.7529,3.7555-15.6369h0c-2.3014-5.0503-7.989-6.2302-12.6647-2.3829l-21.0517,17.322c-5.3043,4.3646-7.0119,12.2038-3.784,17.1495Z"/><path class="cls-38" d="m903.2754,442.6541h0c5.7387.6264,10.9575-8.6326,11.5877-17.1781l.8432-11.4337c.2704-3.6665-1.508-6.6577-3.9498-7.3033h0c-2.4931-.6591-5.565,1.1556-7.0494,4.6903l-4.7246,11.2508c-3.629,8.6417-2.7269,19.317,3.2929,19.974Z"/><path class="cls-36" d="m907.9845,408.5426c2.4714,8.189.7718,16.4966-3.5624,23.5239-.0001,0-1.9401,3.083-1.9401,3.083-5.1022,1.9143-10.481,1.3519-15.2397-1.6647,0,.0001-.3704-.8202-.3704-.8202l2.488-1.3303c2.4976-1.3043,5.0435-2.5108,7.5991-3.6929,0,0-.4202.4004-.4202.4004,2.4229-4.8675,5.249-10.1904,7.865-14.9917,0,0,2.7791-4.9167,2.7791-4.9167l.8015.4092h0Z"/><rect class="cls-1" x="903.2592" y="348.1912" width="174.5842" height="8.1854" rx="3.7229" ry="3.7229" transform="translate(-50.7906 496.8621) rotate(-27.482)"/><rect class="cls-19" x="771.9628" y="401.1146" width="156.1833" height="48.5023" rx="12" ry="12" transform="translate(-100.3699 440.2739) rotate(-27.482)"/><rect class="cls-29" x="784.4023" y="403.3894" width="112.6993" height="8.1854" rx="3.7229" ry="3.7229" transform="translate(-93.1668 433.963) rotate(-27.482)"/><rect class="cls-29" x="803.0073" y="439.1567" width="112.6993" height="8.1854" rx="3.7229" ry="3.7229" transform="translate(-107.5729 446.5848) rotate(-27.482)"/><rect class="cls-29" x="796.8056" y="427.2343" width="112.6993" height="8.1854" rx="3.7229" ry="3.7229" transform="translate(-102.7709 442.3775) rotate(-27.482)"/><rect class="cls-29" x="790.604" y="415.3118" width="112.6993" height="8.1854" rx="3.7229" ry="3.7229" transform="translate(-97.9688 438.1703) rotate(-27.482)"/><path class="cls-1" d="m1080.412,311.3377l-13.8508,13.2367c-1.636,1.5635-3.7478,1.7999-4.5044.3453l-8.0491-15.4742c-.7566-1.4546.6493-3.048,2.8687-3.49l18.7897-3.7418c.4891-.0974,1.1288.3245,1.4453.9329l3.3665,6.4721c.3165.6084.2946,1.3745-.0659,1.719Z"/><g class="cls-6"><rect class="cls-17" x="647.5366" y="423.3331" width="438.1217" height="54.9476" transform="translate(-101.4385 581.6676) rotate(-35.1823)"/></g><path class="cls-38" d="m831.6597,476.8723l52.6208-16.0625c4.4311-1.3526,7.8287-6.3113,7.6631-11.1236l-1.8115-52.6596c-.1989-5.7825-4.3599-10.3365-9.3902-10.0178l-61.1498,3.8752c-7.4808.4741-12.847,6.9661-11.67,14.2588l10.4629,64.8316c.9338,5.7862,6.9913,8.816,13.2747,6.8979Z"/><path class="cls-38" d="m881.5325,411.0801l1.7047-.1122c3.6819-.2424,6.6957-3.923,6.7802-8.2297l.8005-40.7639c.0952-4.8488-2.9911-9.2791-6.9547-9.8029l-1.8378-.2429c-4.1233-.5449-7.5776,3.2496-7.5714,8.3848l.0516,43.0306c.0054,4.5315,3.2078,7.9877,7.0269,7.7362Z"/><path class="cls-38" d="m878.2132,368.7327l1.5917,1.2337c3.4269,2.656,7.7751,1.5087,9.7477-2.4714l8.9105-17.9781c1.9463-3.927,1.0208-9.6092-2.1341-12.7162l-1.4651-1.4428c-3.2923-3.2422-7.7611-2.5772-9.845,1.5767l-9.5445,19.0244c-2.1139,4.2135-.839,10.0007,2.7387,12.7736Z"/><path class="cls-38" d="m855.607,358.2888l1.955,1.2805c4.2011,2.7516,9.1042,1.264,11.0139-3.2251l8.67-20.3804c1.9034-4.4743.3298-10.7886-3.6074-14.1287l-1.8321-1.5542c-4.1259-3.5001-9.2704-2.5462-11.3087,2.2285l-9.2853,21.7507c-2.0455,4.7915-.0083,11.145,4.3947,14.0288Z"/><path class="cls-38" d="m863.3555,404.2831l1.9314-.2179c4.1688-.4704,7.2704-4.6044,6.985-9.2568l-2.7381-44.6311c-.3301-5.3814-4.306-10.1577-8.948-10.5485l-2.1547-.1814c-4.8396-.4075-8.4867,3.9933-7.9823,9.7058l4.1661,47.1773c.4325,4.8975,4.4105,8.4412,8.7404,7.9526Z"/><path class="cls-38" d="m830.0743,369.6314l2.3301,1.1242c5.0001,2.4123,10.382.296,12.1122-4.6373l7.9014-22.5281c1.7449-4.9749-.6225-11.5367-5.4079-14.6696l-2.2304-1.4602c-5.0313-3.2938-10.8018-1.6941-12.6574,3.6539l-8.4004,24.2103c-1.839,5.3,1.097,11.7713,6.3524,14.3067Z"/><path class="cls-38" d="m843.1425,416.5279l2.1311-.445c4.5991-.9604,7.6779-5.5638,6.9377-10.3229l-7.1922-46.2477c-.8787-5.6499-5.8313-10.2633-11.1287-10.1552l-2.4602.0502c-5.529.1128-9.2272,5.1927-8.0858,11.18l9.2955,48.7613c.9518,4.9929,5.7241,8.1773,10.5026,7.1794Z"/><path class="cls-38" d="m817.8423,411.7231h0c4.6134-.5491,7.8213-4.5761,7.2243-9.0158l-3.3071-24.5898c-.652-4.8482-5.1835-8.8467-10.1799-8.8216h0c-5.1318.0258-8.7546,4.2646-7.934,9.3488l4.1528,25.7322c.7482,4.6362,5.3133,7.9092,10.0439,7.3461Z"/><path class="cls-38" d="m810.8513,385.2083h0c4.8795,1.4081,9.5784-1.1848,10.5746-5.7441l2.4261-11.1042c1.0122-4.6326-2.0257-9.9149-6.8846-11.768h0c-5.0076-1.9099-10.0622.5179-11.0868,5.4266l-2.4547,11.7609c-1.0074,4.8268,2.3988,9.9782,7.4254,11.4288Z"/><g class="cls-2"><path class="cls-36" d="m894.7889,329.1429c.6504,12.8317-3.7995,24.894-10.0259,35.7942-.0002,0,.8289-2.6873.8289-2.6873-.804,4.3732-1.9523,8.6509-3.6191,12.8142-1.78,4.4258-3.8875,8.5659-7.0378,12.3958,0,0-.8934-.1092-.8934-.1092.3664-3.9094.8514-9.2658,1.3228-13.0953,0,0,1.4692-13.0773,1.4692-13.0773.0063-.1268.0293-.1822.0894-.2895,1.0072-2.0326,3.0989-6.0905,4.177-8.0859,2.1189-4.0045,6.3865-12.0882,8.5053-16.0935l4.3838-7.9792.7998.4131h0Z"/><path class="cls-36" d="m863.7604,316.4767c-1.2561,11.3319-4.4054,22.4283-8.0304,33.2019-.0001,0,.1249-.8511.1249-.8511.0785,9.9701-.1586,19.9483-.8393,29.8989-.2273,3.3245-.5135,6.6501-.92,9.978l-.2998.0054c.0132-.0907-.8815-39.8405-.8391-39.9194,2.9621-9.4282,7.4431-22.8709,10.5181-32.4054,0,.0001.2857.0917.2857.0917h0Z"/><path class="cls-36" d="m841.5855,315.3058c-.8344,14.0538-4.7547,27.7017-9.5057,40.8631-.0002,0,.234-1.5659.234-1.5659.0619,8.9279-.3415,17.8695-1.4995,26.7324-.3909,2.9773-.8619,5.9573-1.554,8.9441l-.4998.0156c-.4645-10.3096-1.0273-25.2457-1.3211-35.7065,3.1832-9.5383,6.9081-20.0403,10.1851-29.6065,0,0,3.4876-9.8374,3.4876-9.8374l.4734.1611h0Z"/><path class="cls-36" d="m820.5252,338.0382c1.3653,15.0989-2.6089,29.7553-8.3096,43.5157-.0002,0,.4851-3.4046.4851-3.4046.2629,6.9473.1751,13.8881-.4555,20.8367-.642,7.0936-1.7215,14.2396-3.8901,21.0979,0,0-.8975.0683-.8975.0683-.5775-6.1519-1.3943-14.6042-1.851-20.6613,0,.0001-1.7039-20.672-1.7039-20.672-.0205-.1742-.0185-.1932.0523-.3667,2.0545-5.7494,5.5585-14.6391,7.7549-20.4061,1.9169-5.0771,5.9248-15.2953,7.9727-20.3241,0,0,.8427.3161.8427.3161h0Z"/><polygon class="cls-36" points="872.0011 390.3931 874.4899 390.2132 874.8562 387.3819 871.8281 387.5738 872.0011 390.3931"/><polygon class="cls-36" points="849.8983 390.4554 854.2019 391.6514 854.0823 388.6983 849.6043 388.9821 849.8983 390.4554"/><polygon class="cls-36" points="824.0328 392.3223 829.3253 393.9957 829.2757 390.2614 823.4437 390.64 824.0328 392.3223"/></g><rect class="cls-13" x="1638.0136" y="87.0341" width="13.3575" height="20.1744" rx="5.3665" ry="5.3665" transform="translate(921.7258 1577.5823) rotate(-67.3514)"/><rect class="cls-13" x="1608.1445" y="74.5711" width="13.3575" height="20.1744" rx="5.3665" ry="5.3665" transform="translate(914.8605 1542.3528) rotate(-67.3514)"/><rect class="cls-13" x="1578.2753" y="62.1081" width="13.3575" height="20.1744" rx="5.3665" ry="5.3665" transform="translate(907.9953 1507.1233) rotate(-67.3514)"/><rect class="cls-13" x="1548.4062" y="49.645" width="13.3575" height="20.1744" rx="5.3665" ry="5.3665" transform="translate(901.1301 1471.8937) rotate(-67.3514)"/><rect class="cls-25" x="1640.5654" y="80.7933" width="13.3575" height="20.1744" transform="translate(929.0545 1576.0997) rotate(-67.3514)"/><rect class="cls-25" x="1610.7407" y="68.3488" width="13.3575" height="20.1744" transform="translate(922.1995 1540.9226) rotate(-67.3514)"/><rect class="cls-25" x="1580.8716" y="55.8858" width="13.3575" height="20.1744" transform="translate(915.3343 1505.6931) rotate(-67.3514)"/><rect class="cls-25" x="1551.0025" y="43.4227" width="13.3575" height="20.1744" transform="translate(908.469 1470.4636) rotate(-67.3514)"/><rect class="cls-15" x="1589.6487" y="-7.7441" width="37.5965" height="132.1403" transform="translate(935.2413 1520.276) rotate(-67.3514)"/><rect class="cls-34" x="1684.6725" y="147.2155" width="13.3575" height="20.1744" rx="5.3665" ry="5.3665" transform="translate(894.877 1657.6499) rotate(-67.3514)"/><rect class="cls-34" x="1654.8034" y="134.7524" width="13.3575" height="20.1744" rx="5.3665" ry="5.3665" transform="translate(888.0117 1622.4204) rotate(-67.3514)"/><rect class="cls-34" x="1624.9343" y="122.2894" width="13.3575" height="20.1744" rx="5.3665" ry="5.3665" transform="translate(881.1465 1587.1909) rotate(-67.3514)"/><rect class="cls-34" x="1595.0652" y="109.8264" width="13.3575" height="20.1744" rx="5.3665" ry="5.3665" transform="translate(874.2813 1551.9614) rotate(-67.3514)"/><rect class="cls-20" x="1687.2244" y="140.9746" width="13.3575" height="20.1744" transform="translate(902.2058 1656.1673) rotate(-67.3514)"/><rect class="cls-20" x="1657.3997" y="128.5301" width="13.3575" height="20.1744" transform="translate(895.3507 1620.9902) rotate(-67.3514)"/><rect class="cls-20" x="1627.5306" y="116.0671" width="13.3575" height="20.1744" transform="translate(888.4855 1585.7607) rotate(-67.3514)"/><rect class="cls-20" x="1597.6615" y="103.6041" width="13.3575" height="20.1744" transform="translate(881.6203 1550.5312) rotate(-67.3514)"/><rect class="cls-24" x="1636.3077" y="52.4372" width="37.5965" height="132.1403" transform="translate(908.3925 1600.3436) rotate(-67.3514)"/><rect class="cls-16" x="1562.7223" y="96.3312" width="13.3575" height="20.1744" rx="5.3665" ry="5.3665" transform="translate(866.8475 1513.8142) rotate(-67.3514)"/><rect class="cls-16" x="1532.8532" y="83.8681" width="13.3575" height="20.1744" rx="5.3665" ry="5.3665" transform="translate(859.9822 1478.5847) rotate(-67.3514)"/><rect class="cls-16" x="1502.9841" y="71.4051" width="13.3575" height="20.1744" rx="5.3665" ry="5.3665" transform="translate(853.117 1443.3551) rotate(-67.3514)"/><rect class="cls-16" x="1473.115" y="58.9421" width="13.3575" height="20.1744" rx="5.3665" ry="5.3665" transform="translate(846.2518 1408.1256) rotate(-67.3514)"/><rect class="cls-14" x="1565.2742" y="90.0903" width="13.3575" height="20.1744" transform="translate(874.1762 1512.3316) rotate(-67.3514)"/><rect class="cls-14" x="1535.4495" y="77.6458" width="13.3575" height="20.1744" transform="translate(867.3212 1477.1545) rotate(-67.3514)"/><rect class="cls-14" x="1505.5804" y="65.1828" width="13.3575" height="20.1744" transform="translate(860.456 1441.925) rotate(-67.3514)"/><rect class="cls-14" x="1475.7113" y="52.7197" width="13.3575" height="20.1744" transform="translate(853.5907 1406.6955) rotate(-67.3514)"/><rect class="cls-35" x="1514.3575" y="1.5529" width="37.5965" height="132.1403" transform="translate(880.363 1456.5079) rotate(-67.3514)"/><rect class="cls-13" x="1609.2198" y="156.4705" width="13.3575" height="20.1744" rx="5.3665" ry="5.3665" transform="translate(839.9382 1593.707) rotate(-67.3514)"/><rect class="cls-13" x="1579.3507" y="144.0075" width="13.3575" height="20.1744" rx="5.3665" ry="5.3665" transform="translate(833.0729 1558.4775) rotate(-67.3514)"/><rect class="cls-13" x="1549.4816" y="131.5445" width="13.3575" height="20.1744" rx="5.3665" ry="5.3665" transform="translate(826.2077 1523.248) rotate(-67.3514)"/><rect class="cls-13" x="1519.6125" y="119.0814" width="13.3575" height="20.1744" rx="5.3665" ry="5.3665" transform="translate(819.3424 1488.0184) rotate(-67.3514)"/><rect class="cls-25" x="1611.7717" y="150.2297" width="13.3575" height="20.1744" transform="translate(847.2669 1592.2244) rotate(-67.3514)"/><rect class="cls-25" x="1581.947" y="137.7852" width="13.3575" height="20.1744" transform="translate(840.4119 1557.0473) rotate(-67.3514)"/><rect class="cls-25" x="1552.0779" y="125.3221" width="13.3575" height="20.1744" transform="translate(833.5467 1521.8178) rotate(-67.3514)"/><rect class="cls-25" x="1522.2088" y="112.8591" width="13.3575" height="20.1744" transform="translate(826.6814 1486.5883) rotate(-67.3514)"/><rect class="cls-15" x="1560.855" y="61.6922" width="37.5965" height="132.1403" transform="translate(853.4537 1536.4007) rotate(-67.3514)"/><rect class="cls-38" x="1595.8771" y="75.2141" width="112.7148" height="112.7148" rx="12" ry="12" transform="translate(13.604 380.7297) rotate(-13.1987)"/><rect class="cls-38" x="1579.9743" y="135.0158" width="37.9445" height="73.6596" rx="10.3527" ry="10.3527" transform="translate(1003.041 1665.5182) rotate(-74.3846)"/><path class="cls-38" d="m1583.2162,183.1885h0c-10.8025,6.4215-25.0706-4.6907-29.7155-18.6912l-6.0545-18.2494c-1.9039-5.7387.5777-11.811,5.1679-14.5396h0c4.5901-2.7286,11.1102-2.0073,15.2418,2.4071l13.1387,14.0382c10.0797,10.7698,13.0242,28.6133,2.2217,35.0348Z"/><rect class="cls-38" x="1581.5591" y="41.6181" width="25.8909" height="79.4785" rx="7.064" ry="7.064" transform="translate(45.528 468.3141) rotate(-16.9471)"/><rect class="cls-38" x="1563.286" y="19.4857" width="25.8909" height="51.793" rx="7.064" ry="7.064" transform="translate(467.0186 1166.1909) rotate(-46.9471)"/><rect class="cls-38" x="1592.3303" y="-1.0864" width="25.8909" height="51.793" rx="7.064" ry="7.064" transform="translate(418.0733 1105.5858) rotate(-43.1988)"/><rect class="cls-38" x="1608.2124" y="22.1636" width="25.8909" height="79.4785" rx="7.064" ry="7.064" transform="translate(28.6904 371.7935) rotate(-13.1987)"/><rect class="cls-38" x="1628.9806" y="2.9701" width="25.8909" height="51.793" rx="7.064" ry="7.064" transform="translate(356.4477 1050.7765) rotate(-39.4907)"/><rect class="cls-38" x="1642.4306" y="27.1696" width="25.8909" height="79.4785" rx="7.064" ry="7.064" transform="translate(11.6254 273.8644) rotate(-9.4906)"/><rect class="cls-38" x="1675.0565" y="42.1699" width="19.4353" height="47.7673" rx="5.3027" ry="5.3027" transform="translate(29.4231 386.4284) rotate(-13.1987)"/><rect class="cls-38" x="1667.8933" y="28.9064" width="19.4353" height="32.3489" rx="5.3027" ry="5.3027" transform="translate(246.1911 921.1219) rotate(-33.0063)"/><g class="cls-5"><path class="cls-36" d="m1556.9816,18.5922c17.8819,4.6519,32.7495,15.8085,45.4414,28.6975,4.6987,11.5283,7.8542,23.7508,6.6242,36.3736-.0002,0-1.0234.4778-1.0234.4778-4.0426-7.9749-11.8432-23.7567-14.8524-30.517-8.6179-7.6561-19.2887-17.712-27.8239-25.5273,0,0-9.1261-8.6717-9.1261-8.6717l.7602-.833h0Z"/><path class="cls-36" d="m1598.4429-.3329c10.4639,8.7932,19.3499,19.3776,27.565,30.2312-.0001.0001.3754.4973.3754.4973l.1686.5329c2.3419,7.5497,4.4334,15.1728,6.3962,22.8318,1.9392,7.7006,3.7164,15.417,5.0138,23.2677,0,0-.3591.1132-.3591.1132.0144-.0109-14.6933-45.4764-14.4799-45.0056-7.328-9.2868-17.6208-22.767-24.9773-32.238.0001,0,.2972-.2306.2972-.2306h0Z"/><path class="cls-36" d="m1626.3986-4.5545c13.6107,9.1115,24.7132,21.3548,34.6526,34.2024,4.001,13.066,7.3035,26.3983,8.0612,40.103-.0002,0-.5951.2003-.5951.2003-3.7077-10.427-9.6602-27.5009-12.9512-37.3676-7.2533-8.761-15.0955-18.6264-22.3121-27.4999,0,0-7.3421-9.2433-7.3421-9.2433l.4866-.3948h0Z"/><path class="cls-36" d="m1658.6831,13.8316c16.6761,6.1831,29.6817,18.4668,40.2595,32.2609,3.8515,13.7231,6.4668,27.8829,6.0959,42.2212-.0361,2.0403-.1588,4.1084-.4253,6.2225l-1.0761.3444c-4.0442-11.6783-11.3612-33.2493-14.5352-43.606-7.3163-8.2515-16.2922-19.0233-23.5053-27.4215,0,0-7.6678-9.2848-7.6678-9.2848l.8544-.7368h0Z"/><path class="cls-36" d="m1551.8817,128.1651c11.6783.9979,21.6475,6.5371,30.2584,13.9019,1.1007,1.0456,2.2465,2.0404,3.3033,3.1357l-6.8832-2.5045c7.6115.5847,14.7541,3.4053,20.3862,8.9147,0,0,.0292,1.1264.0292,1.1264-6.7676.5315-13.7808.8497-20.5464,1.0435-4.7217-4.0466-9.3008-8.2539-13.9552-12.3767-3.358-3.0405-10.0619-9.27-13.3406-12.3975,0,0,.7483-.8433.7483-.8433h0Z"/><polygon class="cls-36" points="1613.3941 86.6093 1609.6359 87.4854 1607.9769 84.0327 1612.5355 82.9701 1613.3941 86.6093"/><polygon class="cls-36" points="1643.734 77.5863 1638.6381 80.6888 1637.5997 77.1273 1643.5119 75.7491 1643.734 77.5863"/><polygon class="cls-36" points="1675.2136 70.383 1669.989 74.0398 1668.5035 69.9127 1675.1668 68.3702 1675.2136 70.383"/></g><rect class="cls-35" x="1959.4696" y="577.6601" width="61.2704" height="87.7812" rx="12" ry="12" transform="translate(837.6729 2359.0038) rotate(-73.7888)"/><path class="cls-42" d="m1940.5943,601.165h36.5337c6.8263,0,12.3683,5.5421,12.3683,12.3683v10.2357h-61.2704v-10.2357c0-6.8263,5.5421-12.3683,12.3683-12.3683Z" transform="translate(823.8744 2322.4547) rotate(-73.7888)"/><path d="m1956.5788,630.6712c-.8487,2.9192-3.9141,4.6036-6.8333,3.7549-2.9192-.8487-4.6036-3.9141-3.7549-6.8333.8487-2.9192,3.9141-4.6036,6.8333-3.7549,2.9192.8487,4.6036,3.9141,3.7549,6.8333Zm-10.0739-2.9289c-.7663,2.6356.7546,5.4032,3.3901,6.1695,2.6356.7663,5.4032-.7545,6.1695-3.3901.7663-2.6356-.7545-5.4032-3.3901-6.1695-2.6356-.7663-5.4032.7546-6.1695,3.3902Z"/><path d="m1960.8699,634.7009c-.8487,2.9192-3.9141,4.6036-6.8333,3.7549s-4.6036-3.9141-3.7549-6.8333c.8487-2.9192,3.9141-4.6036,6.8333-3.7549,2.9192.8487,4.6036,3.9141,3.7549,6.8333Zm-10.0739-2.9289c-.7663,2.6356.7545,5.4032,3.3901,6.1695s5.4032-.7546,6.1695-3.3902c.7663-2.6356-.7545-5.4032-3.3901-6.1695s-5.4032.7545-6.1695,3.3901Z"/><path d="m1962.3344,629.6639c-.8487,2.9192-3.9141,4.6036-6.8333,3.7549-2.9192-.8487-4.6036-3.9141-3.7549-6.8333.8487-2.9192,3.9141-4.6036,6.8333-3.7549s4.6036,3.9141,3.7549,6.8333Zm-10.0739-2.9289c-.7663,2.6356.7546,5.4032,3.3901,6.1695s5.4032-.7545,6.1695-3.3901-.7545-5.4032-3.3901-6.1695c-2.6356-.7663-5.4032.7546-6.1695,3.3902Z"/><rect x="1944.6199" y="603.4693" width="30.2396" height=".5749" rx=".2647" ry=".2647" transform="translate(832.8716 2317.0197) rotate(-73.7888)"/><rect x="1946.4829" y="604.0109" width="30.2396" height=".5749" rx=".2647" ry=".2647" transform="translate(833.6944 2319.199) rotate(-73.7888)"/><rect x="1953.4621" y="611.3681" width="16.0439" height=".5749" rx=".2647" ry=".2647" transform="translate(826.5442 2324.3884) rotate(-73.7888)"/><rect x="1957.2903" y="619.262" width="48.4192" height=".5749" rx=".2647" ry=".2647" transform="translate(833.3921 2349.2985) rotate(-73.7888)"/><rect x="1955.5249" y="618.7487" width="48.4192" height=".5749" rx=".2647" ry=".2647" transform="translate(832.6124 2347.2333) rotate(-73.7888)"/><rect x="1959.1533" y="619.8036" width="48.4192" height=".5749" rx=".2647" ry=".2647" transform="translate(834.2148 2351.4778) rotate(-73.7888)"/><rect x="1969.2084" y="631.2583" width="25.6893" height=".5749" rx=".2647" ry=".2647" transform="translate(822.2714 2358.4768) rotate(-73.7888)"/><rect x="1974.04" y="624.1318" width="48.4192" height=".5749" rx=".2647" ry=".2647" transform="translate(840.7894 2368.8925) rotate(-73.7888)"/><rect x="1972.2746" y="623.6185" width="48.4192" height=".5749" rx=".2647" ry=".2647" transform="translate(840.0098 2366.8272) rotate(-73.7888)"/><rect x="1975.903" y="624.6734" width="48.4192" height=".5749" rx=".2647" ry=".2647" transform="translate(841.6122 2371.0718) rotate(-73.7888)"/><rect x="1985.9581" y="636.1281" width="25.6893" height=".5749" rx=".2647" ry=".2647" transform="translate(829.6688 2378.0708) rotate(-73.7888)"/><rect x="1990.7897" y="629.0016" width="48.4192" height=".5749" rx=".2647" ry=".2647" transform="translate(848.1868 2388.4864) rotate(-73.7888)"/><rect x="1989.0243" y="628.4883" width="48.4192" height=".5749" rx=".2647" ry=".2647" transform="translate(847.4071 2386.4212) rotate(-73.7888)"/><rect x="1992.6527" y="629.5432" width="48.4192" height=".5749" rx=".2647" ry=".2647" transform="translate(849.0096 2390.6657) rotate(-73.7888)"/><rect x="2002.7078" y="640.9979" width="25.6893" height=".5749" rx=".2647" ry=".2647" transform="translate(837.0662 2397.6647) rotate(-73.7888)"/><rect class="cls-12" x="1977.4434" y="567.7835" width="61.2704" height="87.7812" rx="12" ry="12" transform="translate(-46.3745 1042.6583) rotate(-28.7888)"/><path class="cls-42" d="m1974.1423,571.8564h36.5337c6.8263,0,12.3683,5.5421,12.3683,12.3683v10.2357h-61.2704v-10.2357c0-6.8263,5.5421-12.3683,12.3683-12.3683Z" transform="translate(-34.5785 1031.5877) rotate(-28.7888)"/><path d="m1979.398,597.1009c-2.6643,1.464-6.0229.4875-7.487-2.1768-1.464-2.6643-.4876-6.023,2.1767-7.487,2.6643-1.464,6.0229-.4875,7.487,2.1768,1.464,2.6643.4876,6.023-2.1767,7.487Zm-5.0523-9.1944c-2.4055,1.3218-3.2871,4.3542-1.9653,6.7597,1.3218,2.4055,4.3542,3.2871,6.7596,1.9653,2.4055-1.3218,3.2871-4.3542,1.9653-6.7597-1.3218-2.4055-4.3542-3.2871-6.7596-1.9653Z"/><path d="m1980.7434,599.5494c-4.0569,2.2293-9.1711.7424-11.4004-3.3146-2.2293-4.0569-.7424-9.1711,3.3145-11.4004,4.0569-2.2293,9.1711-.7424,11.4004,3.3146,2.2293,4.0569.7424,9.1711-3.3145,11.4004Zm-7.828-14.2456c-3.7981,2.087-5.1901,6.875-3.1031,10.6731,2.0871,3.7981,6.875,5.1901,10.6731,3.1031,3.7981-2.087,5.1901-6.875,3.1031-10.6731-2.0871-3.7981-6.875-5.1901-10.6731-3.1031Z"/><path d="m1978.1266,594.7871c-1.431.7863-3.235.2619-4.0213-1.1691-.7863-1.431-.2619-3.235,1.1692-4.0213s3.235-.2619,4.0213,1.1691.2619,3.235-1.1692,4.0213Zm-2.5942-4.7211c-1.1722.6441-1.6018,2.1218-.9577,3.294s2.1218,1.6018,3.294.9577c1.1722-.6441,1.6018-2.1218.9577-3.294s-2.1218-1.6018-3.294-.9577Z"/><rect x="1984.0697" y="577.333" width="30.2396" height=".5749" rx=".2647" ry=".2647" transform="translate(-31.0735 1034.1685) rotate(-28.7888)"/><rect x="1985.0041" y="579.0333" width="30.2396" height=".5749" rx=".2647" ry=".2647" transform="translate(-31.7769 1034.8286) rotate(-28.7888)"/><rect x="1986.8157" y="584.1518" width="16.0439" height=".5749" rx=".2647" ry=".2647" transform="translate(-34.8952 1032.9155) rotate(-28.7888)"/><rect x="1979.1996" y="603.887" width="48.4192" height=".5749" rx=".2647" ry=".2647" transform="translate(-43.3399 1039.4826) rotate(-28.7888)"/><rect x="1978.3141" y="602.2757" width="48.4192" height=".5749" rx=".2647" ry=".2647" transform="translate(-42.6734 1038.8571) rotate(-28.7888)"/><rect x="1980.1339" y="605.5873" width="48.4192" height=".5749" rx=".2647" ry=".2647" transform="translate(-44.0433 1040.1427) rotate(-28.7888)"/><rect x="1982.4729" y="612.7608" width="25.6893" height=".5749" rx=".2647" ry=".2647" transform="translate(-48.6135 1036.6827) rotate(-28.7888)"/><rect x="1987.5999" y="619.1743" width="48.4192" height=".5749" rx=".2647" ry=".2647" transform="translate(-49.6637 1045.4176) rotate(-28.7888)"/><rect x="1986.7145" y="617.563" width="48.4192" height=".5749" rx=".2647" ry=".2647" transform="translate(-48.9972 1044.792) rotate(-28.7888)"/><rect x="1988.5342" y="620.8746" width="48.4192" height=".5749" rx=".2647" ry=".2647" transform="translate(-50.3671 1046.0777) rotate(-28.7888)"/><rect x="1990.8733" y="628.0481" width="25.6893" height=".5749" rx=".2647" ry=".2647" transform="translate(-54.9373 1042.6176) rotate(-28.7888)"/><rect x="1996.0003" y="634.4616" width="48.4192" height=".5749" rx=".2647" ry=".2647" transform="translate(-55.9875 1051.3526) rotate(-28.7888)"/><rect x="1995.1149" y="632.8503" width="48.4192" height=".5749" rx=".2647" ry=".2647" transform="translate(-55.321 1050.727) rotate(-28.7888)"/><rect x="1996.9346" y="636.1619" width="48.4192" height=".5749" rx=".2647" ry=".2647" transform="translate(-56.6909 1052.0127) rotate(-28.7888)"/><rect x="1999.2736" y="643.3353" width="25.6893" height=".5749" rx=".2647" ry=".2647" transform="translate(-61.2611 1048.5526) rotate(-28.7888)"/><rect class="cls-38" x="2005.1303" y="631.4706" width="48.4689" height="48.4689" rx="12" ry="12" transform="translate(-26.6395 89.0334) rotate(-2.4969)"/><rect class="cls-38" x="1995.4744" y="652.6297" width="16.3167" height="31.6746" rx="7.5142" ry="7.5142" transform="translate(516.1572 2168.07) rotate(-63.6827)"/><path class="cls-38" d="m1996.0803,672.0037h0c-5.0772,1.8507-10.2186-3.984-11.0633-10.2705l-1.101-8.1944c-.3462-2.5768,1.1873-4.9444,3.3446-5.7308h0c2.1574-.7864,4.8547.039,6.248,2.2342l4.4306,6.9808c3.399,5.3555,3.2183,13.1301-1.8589,14.9808Z"/><rect class="cls-38" x="2003.4148" y="612.7895" width="11.1334" height="34.1768" rx="5.1272" ry="5.1272" transform="translate(-56.5989 222.287) rotate(-6.2453)"/><rect class="cls-38" x="1998.5665" y="602.0822" width="11.1334" height="22.2717" rx="5.1272" ry="5.1272" transform="translate(25.2524 1303.5925) rotate(-36.2453)"/><rect class="cls-38" x="2012.4814" y="595.709" width="11.1334" height="22.2717" rx="5.1272" ry="5.1272" transform="translate(-10.0442 1179.2264) rotate(-32.497)"/><rect class="cls-38" x="2016.2303" y="606.6977" width="11.1334" height="34.1768" rx="5.1272" ry="5.1272" transform="translate(-25.2562 88.6735) rotate(-2.4969)"/><rect class="cls-38" x="2027.6435" y="600.3497" width="11.1334" height="22.2717" rx="5.1272" ry="5.1272" transform="translate(-43.1771 1054.7395) rotate(-28.7889)"/><rect class="cls-38" x="2030.2889" y="611.5453" width="11.1334" height="34.1768" rx="5.1272" ry="5.1272" transform="translate(13.7431 -42.8938) rotate(1.2112)"/><rect class="cls-38" x="2044.1669" y="620.3495" width="8.3574" height="20.5406" rx="3.8488" ry="3.8488" transform="translate(-25.5287 89.8368) rotate(-2.4969)"/><rect class="cls-38" x="2042.8149" y="614.2309" width="8.3574" height="13.9105" rx="3.8488" ry="3.8488" transform="translate(-82.6019 823.3689) rotate(-22.3045)"/><g class="cls-4"><path class="cls-36" d="m1998.4745,600.8072c7.1592,3.3602,12.522,9.2238,16.8279,15.6465,1.0476,5.2234,1.3887,10.6183-.1506,15.8382,0,0-.4699.1211-.4699.1211-1.0585-3.6755-3.0692-10.9333-3.7905-14.0163-3.0123-3.8997-6.6956-8.9708-9.6603-12.9311,0,0-3.1444-4.3672-3.1444-4.3672l.3877-.2912h0Z"/><path class="cls-36" d="m2017.477,596.085c3.6983,4.5232,6.5867,9.6771,9.1707,14.8919,0,0,.118.2389.118.2389l.0279.2376c.3762,3.3631.641,6.7375.8486,10.117.1943,3.3952.3191,6.7843.2308,10.1923,0,0-.1605.0196-.1605.0196.0069-.0035-2.5134-20.3042-2.4616-20.0891-2.3369-4.4854-5.5839-10.9691-7.9179-15.5343,0,0,.1439-.0738.1439-.0738h0Z"/><path class="cls-36" d="m2029.5991,596.4972c4.9986,4.9038,8.6869,10.9301,11.8362,17.1197.6292,5.8164.9425,11.6902.1533,17.5215,0,0-.267.0377-.267.0377-.719-4.682-1.8464-12.3392-2.4352-16.7526-2.3479-4.2581-4.8547-9.0274-7.178-13.33,0,0-2.3463-4.4682-2.3463-4.4682l.237-.1282h0Z"/><path class="cls-36" d="m2041.7166,606.7702c6.5272,3.9106,11.0142,10.103,14.356,16.7413.513,6.0814.4698,12.2499-.8462,18.2596-.1803.8565-.3992,1.7179-.6825,2.5874l-.4813.0608c-.7596-5.2353-2.0982-14.8935-2.5981-19.504-2.4157-4.0484-5.3269-9.2884-7.6872-13.3905,0,0-2.4802-4.5112-2.4802-4.5112l.4196-.2434h0Z"/><path class="cls-36" d="m1987.4625,646.5557c4.8405,1.3352,8.5935,4.4492,11.6265,8.2256.3793.5266.7816,1.0353,1.1384,1.5794l-2.698-1.5941c3.1602.8426,5.942,2.5901,7.8697,5.3517,0,0-.0788.4767-.0788.4767-2.8948-.3064-5.876-.7218-8.7427-1.1703-1.6624-2.0742-3.2517-4.2049-4.8797-6.3059-1.1691-1.5436-3.4903-4.6925-4.619-6.2666,0,0,.3835-.2966.3835-.2966h0Z"/><polygon class="cls-36" points="2016.7452 633.8732 2015.0906 633.9477 2014.6708 632.3636 2016.6777 632.2732 2016.7452 633.8732"/><polygon class="cls-36" points="2030.2603 632.4501 2027.8619 633.3575 2027.7124 631.7762 2030.3153 631.6589 2030.2603 632.4501"/><polygon class="cls-36" points="2044.1085 631.8826 2041.611 633.0134 2041.3188 631.1589 2044.2515 631.0313 2044.1085 631.8826"/></g></g></svg>