<?xml version="1.0" encoding="UTF-8"?><svg id="Layer_2" xmlns="http://www.w3.org/2000/svg" xmlns:xlink="http://www.w3.org/1999/xlink" viewBox="0 0 1898.4953 1262.9068"><defs><style>.cls-1{fill:#5e52a2;}.cls-2{fill:#96d1ac;}.cls-3{clip-path:url(#clippath-2);}.cls-3,.cls-4,.cls-5,.cls-6,.cls-7,.cls-8{fill:none;}.cls-9{fill:#ead269;}.cls-10,.cls-11{fill:#fff;}.cls-12{fill:#8cab4a;}.cls-13{fill:#b0b1b5;}.cls-14{fill:#4a4a4e;}.cls-15{fill:#7fc898;}.cls-16{fill:#dbc34f;}.cls-17{fill:#63be6f;}.cls-18{fill:#90388f;}.cls-19{fill:#6583c2;}.cls-11{opacity:.5;}.cls-20{fill:#9d499c;}.cls-21{fill:#499c4d;}.cls-22{fill:#625eaa;}.cls-23{fill:#122b47;}.cls-24{fill:#6e8f3c;}.cls-25{fill:#c3c4c7;}.cls-26{fill:#c5b37a;}.cls-27{fill:#9a4f9f;}.cls-28{fill:#575da9;}.cls-29{fill:#383017;}.cls-30{fill:#eaeaea;}.cls-31{fill:#4eb749;}.cls-32{fill:#89bae4;}.cls-4{clip-path:url(#clippath-3);}.cls-33{fill:#bb752b;}.cls-5{opacity:.75;}.cls-34{fill:#2e2e2e;}.cls-35{fill:#583916;}.cls-36{fill:#353535;}.cls-37{fill:#f8b864;}.cls-38{fill:#4f6bb3;}.cls-7{clip-path:url(#clippath);}.cls-39{fill:#4a494a;}.cls-40{fill:#472f16;}.cls-8{clip-path:url(#clippath-1);}.cls-41{fill:#f3bf8d;}.cls-42{fill:#eaa84b;}.cls-43{fill:#a9c945;}.cls-44{fill:#42814b;}.cls-45{fill:#7a1b54;}</style><clipPath id="clippath"><circle class="cls-6" cx="1312.3781" cy="787.4385" r="175.1557"/></clipPath><clipPath id="clippath-1"><circle class="cls-6" cx="583.5774" cy="328.4273" r="175.1557"/></clipPath><clipPath id="clippath-2"><circle class="cls-6" cx="1298.9507" cy="326.5919" r="175.1557"/></clipPath><clipPath id="clippath-3"><circle class="cls-6" cx="583.5774" cy="787.4385" r="175.1557"/></clipPath></defs><g id="Layer_4"><path class="cls-36" d="m210.9122,0h1476.6708C1706.0945,0,1721.1234,15.0289,1721.1234,33.5404v1046.9068H177.3719V33.5404C177.3719,15.0289,192.4008,0,210.9122,0Z"/><rect class="cls-10" x="222.9868" y="47.4037" width="1452.5217" height="969.5404"/><rect class="cls-25" x="0" y="1222.0726" width="1898.4952" height="20.2628"/><path class="cls-13" d="m1896.1719,1224.4472H2.3234c-2.1972,0-3.1622-2.7714-1.4402-4.1361l176.4887-139.8639h1543.7516l176.4887,139.8639c1.722,1.3647.7571,4.1361-1.4402,4.1361Z"/><path class="cls-14" d="m1875.6815,1262.9068H18.7697s-18.7697-20.5714-18.7697-20.5714h1898.4953l-16.0438,17.5839c-1.7364,1.9031-4.1937,2.9875-6.77,2.9875Z"/><path class="cls-25" d="m1595.2879,1182.1825H303.2074c-1.4991,0-2.367-1.9257-1.2948-2.8744l111.7283-98.8609h1071.2136l111.7282,98.8609c1.0722.9487.2043,2.8744-1.2948,2.8744Z"/><rect class="cls-39" x="222.9868" y="47.4037" width="1452.5217" height="51.5179"/><rect class="cls-30" x="222.9868" y="98.9217" width="726.2609" height="459.0112"/><rect class="cls-30" x="951.7875" y="557.9329" width="726.2608" height="459.0112"/><circle class="cls-10" cx="1312.3781" cy="787.4385" r="175.1557"/><circle class="cls-10" cx="583.5774" cy="328.4273" r="175.1557"/><circle class="cls-30" cx="1298.9507" cy="326.5919" r="175.1557"/><circle class="cls-30" cx="583.5774" cy="787.4385" r="175.1557"/><g class="cls-7"><path class="cls-40" d="m1352.6841,1167.0128c-27.2627-1.9907-54.6338-1.9907-81.8965,0-2.377.1772-4.5088-1.6411-4.7422-4.0713-8.2393-86.1313-16.4668-173.356-24.6782-262.7061-.5586-6.0874,2.0342-10.7466,5.7773-10.3076,42.918,4.9663,86.2646,4.9663,129.1826,0,3.7373-.4395,6.3398,4.2197,5.7759,10.3081-8.2104,89.3496-16.438,176.5742-24.6768,262.7056-.2329,2.4316-2.3657,4.2461-4.7422,4.0713Z"/><path class="cls-12" d="m1358.8464,677.4009c-11.2795,8.4034-20.3001,19.3888-26.3528,31.9471,2.2556,1.1318,9.7158,8.8589,9.704,11.5778l-.0668,18.9688c-.0168,4.5262-9.0004,2.7039-12.8425,2.097l-38.6185-6.1002c-3.842-.6069-11.4151-4.9066-10.0361-9.2176l5.6226-15.8052c.8994-2.8234,9.3655-6.969,12.1045-7.0852,8.1465-21.1655,22.1501-39.6753,40.4352-53.2963,3.9899-2.9736,8.9528-2.7385,10.7517.1889,3.7592,5.9279,7.5195,11.8498,11.2855,17.7729,1.8039,2.934.8206,6.8539-1.9868,8.9521Z"/><path class="cls-24" d="m1332.4918,709.3496s-5.4496-.7498-9.3591-1.312c-1.9224-.244-2.7695-3.0034-1.6522-6.0607,5.7789-15.8409,13.7068-24.7818,26.6497-35.5896,2.4973-2.0889,4.7673-3.7497,9.4835-3.0047.9395,1.292,2.3934,3.8144,3.2179,5.0686,2.2254,3.3849.332,7.1958-1.983,8.9529-9.6015,7.2874-18.9022,17.6031-24.6438,28.5729-1.0637,2.0322-1.713,3.3726-1.713,3.3726Z"/><path class="cls-43" d="m1321.8814,707.3824c-.0005.019-4.5591-1.3013-6.4316-.9678-.8628.1787-.4692-.9521.9688-4.6924,7.7695-19.0459,17.0156-29.6885,30.7603-40.0332,2.6855-1.9761,7.1055-3.5376,7.1035-3.5254,1.0625,1.79,2.1719,3.5254,3.3218,5.2021.0181.019-6.1685.8149-11.6304,5.0239-7.7573,5.7686-18.8677,18.0801-23.2363,33.5112-.834,2.8286-.8564,5.4858-.856,5.4814Z"/><path class="cls-37" d="m1420.0737,800.5144s-19.5073,71.9533-32.5968,93.7825c-.5775.9666-5.6163,4.7856-7.9973,4.7856h-4.5556c-2.381,0-4.4437-.719-4.9447-1.7326l-3.2178-6.4651c-1.5145,3.3357-2.9821,6.2411-4.3847,8.5749-.5834.9666-5.6165,4.7856-8.0034,4.7856h-4.5497c-2.3869,0-4.4496-.719-4.9446-1.7326l-.8958-1.8034c-2.9349,1.6325-5.8758,3.0764-6.6655,3.0764l-7.8206-3.8249-.0883.884c-.3478.9724-9.1349,2.9408-10.8087,2.9408l-15.1698-1.2729c-1.6679,0-14.6571-7.0664-15.0047-8.0388l-.8604-5.0624-2.823,7.9562c-.4951,1.0019-2.5342,1.7149-4.8857,1.7149h-4.5027c-2.3574,0-13.1895-3.2119-13.6787-4.2139l-2.4811-5.8935-.9488,4.485c-.442,1.0373-2.2572,3.0234-4.3907,2.7935-.9901-.106-28.1648-13.997-29.1666-14.2917-.4186-.1237-1.9803-.4892-2.6757-1.9862l-18.6706-101.3558c-.5245-1.2141-.5245-2.4693,0-3.6774l48.0142-55.0803c.383-.8958,1.9683-1.5324,3.8013-1.5324h3.5066c1.8328,0,3.4182.6365,3.8013,1.5324l2.0981,5.7637,5.7638-8.2862c.5716-1.1609,2.9054-3.3769,5.646-3.1234,1.267.1177,4.1843.5715,5.4749.9076.5423.1355,2.546.5422,3.4359,2.2158l9.4413,6.6773,5.5398-6.7714c.4068-1.12,2.0627-3.2768,4.0076-3.0293.9017.1177,2.9703.554,3.8838.878.383.1355,1.8093.5306,2.4398,2.1513l1.709,3.2472,1.556-2.1629c.4066-1.1257,7.1782-4.3611,9.129-4.1136.8958.1177,2.9644.554,3.8838.878.383.1355,1.8034.5306,2.4339,2.1513l3.0764,4.4201c1.2023-.5482,2.4282-1.0846,3.6834-1.6031,7.3137-3.0293,10.2252-9.1821,13.0128-9.1939,5.5339-.0118,9.7773,5.3631,11.0385,5.8345,2.1394.8017,4.8267,1.8034,7.414,2.8348l2.705-3.8837c.5834-1.1669,2.9408-3.4066,5.7166-3.147,1.279.1177,4.2316.5775,5.534.9076.5481.1413,2.5755.554,3.4771,2.2394l38.5375,45.7216c5.7991,10.9383-2.3515,37.7711-3.0293,39.1386Z"/><path class="cls-42" d="m1241.0635,774.5817c-.1543,1.2017-.373,2.4341-.6255,3.6143-5.9009,36.8613.4644,75.5684,17.7471,108.2822.4258.9326,1.0303,2.5908,1.0352,2.5874-.1147.1401-8.8198-11.1372-8.9209-11.5044-.0947-.0913-.4082-.3589-1.0781-1.7158-.2783.2051-7.6455-16.6104-11.7598-37.2437-4.6104-20.498-5.9697-44.8125-5.7144-56.4927-.125-1.2598-.0244-8.0254.3076-9.2676,8.2246-17.7427,19.0352-33.3433,31.4902-46.2686.4463-.7383,1.0254-.7334,1.0229-.7314,0-.0039-.4736.8701-.5308,1.0649-.2842,1.0474-.5811,1.9165-.9341,2.7061-9.3345,13.4722-16.8491,28.6548-22.0396,44.9692Z"/><path class="cls-42" d="m1384.0664,776.1769c-.2236-1.252-.4141-2.5615-.5615-3.8242-3.2305-16.6748-8.4443-32.9639-15.5884-48.5176-.3784-1.0283-1.0601-3.0371-.7788-2.8921.1338.0664.501.3809.708.6313.0879.1045.3779.4082,1.0547,1.8516,5.2456,8.5039,9.9165,17.4062,13.9697,26.6519,3.8667,9.7573,7.4507,17.8735,7.5923,19.1948,1.7954,15.1143,1.6606,40.4785-3.1465,63.4927-4.3071,23.1538-13.2856,43.9585-17.6377,53.1982-.3765.8374-2.1177,4.0181-2.2871,3.9487-.1011-.043-.2017-.0879-.3022-.1309-.1597-.0703-.0298-.749.3145-1.6426,15.6226-35.2905,21.2642-73.9897,16.6631-111.9619Z"/><path class="cls-42" d="m1358.2251,787.0016c1.0718-1.9302-14.3579-45.3579-16.0645-45.8237.0073-.0195-4.3384-5.9053-6.6685-11.8457-.9951-2.6509-3.5664-7.6323-3.5088-7.6694.1514-.0981,2.5586,4.1626,2.7739,4.5449,1.0552,1.73,2.7729,4.688,3.4458,6.1201,5.6294,7.3433,10.8706,15.1802,15.6519,23.4717,3.8687,9.9307,8.5669,35.9326,8.3457,37.355-.1606-.0942,1.646,21.1538-1.7393,44.5947-2.7437,23.5317-10.8774,48.7085-14.644,58.6665-.2959.8999-1.6289,4.4146-1.7036,4.3882-.0425-.0142-.0835-.0298-.1265-.0439-.0674-.0254.1074-.709.4087-1.6567,13.8066-35.5796,18.4746-74.5718,13.8291-112.1016Z"/><path class="cls-42" d="m1278.1704,781.0431c-.1064-1.3613,3.5264-21.5625,3.7993-22.8516-.0913-.0601,7.5962-21.5337,10.7446-31.2051.5034-1.6387,1.6147-3.0488,1.6147-3.0527.002.0015.2568.9351.2305,1.251-.043.478-.1025,1.0425-.3667,2.0039-4.313,14.1392-7.8882,50.1968-7.6055,50.2144-.0107,1.3169-.0723,2.6782-.1826,3.9888-2.1709,32.6221-1.6162,65.4639,1.6973,98.1792.061.9775-.2954,9.8164-.4653,9.8467,0,.0063-2.4131-2.0815-2.6206-2.8315-.0801-.1787-2.3389-10.8574-2.4629-11.8438-3.9277-31.0669-5.3926-62.3979-4.3828-93.6992Z"/><path class="cls-42" d="m1326.2222,780.879c.042-1.3491-7.2744-25.5972-7.8706-26.6577-1.3652-9.8062-3.2061-19.5845-5.5273-29.2988-.3579-1.0005-1.1147-3.9976-.9248-3.8247.0908.0801.3584.4238.5195.6875.064.1084.2876.4297.8804,1.8501.1528-.0684,7.9106,20.0889,10.8755,30.4497.4712,1.1211,7.2153,14.9561,7.3506,16.2866,2.9136,13.6357,6.6187,44.4727,5.3486,72.0371-.5815,27.5381-6.1382,51.8027-5.9209,51.6958-.1738.9595-1.248,5.9946-1.3569,5.9775-.1519-1.1455-.3101-2.2861-.4746-3.4253-.0405-.0195,1.522-11.0127,1.5762-11.9712,4.2734-35.3813,2.5664-70.4487-4.4756-103.8066Z"/><path class="cls-41" d="m1244.0962,776.6495c-.1792,1.2051-.3892,2.4424-.5981,3.6479-6.4395,35.6499-1.251,73.6821,14.9019,106.5459.4595.9478,1.103,2.6304,1.104,2.6323-.1313.1196-7.8765-12.0142-7.9053-12.3848-.0693-.1094-.0713-.2979-.7109-1.71-.2788.168-6.5894-16.3359-9.6006-36.2417-3.479-19.8184-3.6606-43.0381-2.4702-54.2837-.0151-1.2222.4771-7.7983.7656-9.0254,5.502-17.9995,13.8047-34.687,24.2524-49.2954.4395-.772.7959-.8931.7949-.8916-.0068.0044-.2578,1.0181-.332,1.21-.4077,1.0137-.9438,2.0254-1.3267,2.8247-8.5063,14.4082-14.9243,30.3018-18.875,46.9717Z"/><path class="cls-41" d="m1390.104,776.2989c-.1953-1.2939-.3887-2.6289-.5591-3.9258-4.8721-17.1704-11.7881-33.5562-20.5508-48.8115-.4023-1.0283-1.874-2.6367-1.875-2.6357.3906.2109.7812.4238,1.1719.6382-.0005.0015.3208.5161,1.2144,1.7847,6.4282,8.3389,12.3091,17.2471,17.5625,26.6714,3.2837,10.1016,5.7798,18.4932,5.9512,19.8159,2.2295,15.2002,1.2324,40.7793-4.3765,63.5972-5.1265,23.0234-14.8638,43.2861-18.9736,52.5957-.3584.8418-1.9385,4.0918-2.0293,4.0518-.0518-.0225-.1055-.0449-.1572-.0679-.083-.0381.1182-.6904.4727-1.5762,17.1987-34.4219,24.9204-73.1416,22.1489-112.1377Z"/><path class="cls-41" d="m1355.6792,761.775c-.126-1.4946-10.5605-20.2681-11.2769-21.249-.0005-.0405-6.0796-5.4038-8.5327-11.2563-1.0557-2.6274-3.623-7.606-3.5889-7.6323.1094-.0693,2.4658,4.2051,2.667,4.5996,1.0083,1.751,2.9839,3.9521,3.6641,5.3862,5.8623,7.2368,11.3574,14.9878,16.4009,23.2246,3.8628,9.9761,8.7241,36.0708,8.5132,37.4966-.1553-.1025,1.3926,21.5127-2.3193,45.1426-3.0635,23.751-11.5664,48.9912-15.2749,58.9448-.291.9067-1.5791,4.4214-1.6357,4.4072-.0293-.0112-.0596-.021-.0889-.0308-.0474-.0166.1431-.7021.4482-1.6421,17.4492-43.3208,21.2041-92.0894,11.0239-137.3911Z"/><path class="cls-41" d="m1285.7237,782.4093c-.0703-1.3276,1.9502-21.3901,2.1851-22.689-.0962-.0181,3.5464-21.7202,5.6011-31.5806.3188-1.6548,1.0962-3.1226,1.0981-3.1211-.0024.0024.0034.894-.0361,1.2124-.062.4741-.1304,1.0405-.3081,2.0117-3.0215,14.332-5.9102,50.2949-5.6309,50.3052-.0449,1.3076-.1084,2.667-.1802,3.9756-2.79,32.1558-2.9111,64.6362-.3027,97.103.0859.9702-.4727,10.0835-.5132,10.0991.0005-.001-.3306-2.6221-.4702-3.3735-.062-.1904-1.1997-10.959-1.2886-11.9365-2.4707-30.7231-2.5098-61.4868-.1543-92.0063Z"/><path class="cls-41" d="m1324.4605,781.527c.0791-1.3252-6.1074-25.7988-6.7319-26.8804-1.127-9.9189-2.75-19.8311-4.8774-29.6982-.3716-.999-1.0962-4.0039-.9771-3.7954.0571.0928.1558.4951.2861.771.0508.1138.0498.5161.6211,1.9478.1851-.0049,4.6431,21.3955,7.27,31.627.4453,1.1396,5.0566,15.2998,5.1982,16.5771,3.0342,13.3242,7.8867,42.5928,7.979,69.1079.7373,26.416-3.2852,50.0791-3.0908,49.959-.1636.9604-1.0854,5.5796-1.1333,5.5713.0571-.9585.1089-1.9165.1582-2.8735.0249-.0034,1.7632-11.0161,1.8325-11.981,3.3369-34.4385.916-68.3203-6.5347-100.3325Z"/><path class="cls-41" d="m1333.1738,777.6974c.0317-1.3853-9.3423-24.8276-9.9375-25.8267-2.8066-9.1128-6.0205-18.064-9.6289-26.8301-.3608-.9722-1.3315-3.8042-1.2119-3.6055.0601.0894.2466.4507.376.7217.0518.1118.2158.4399.7764,1.834.125-.0957,9.2656,18.4727,12.0127,28.6958.4292,1.0859,8.4116,13.8535,8.5859,15.1694,3.2324,13.3159,6.54,44.5474,4.6787,72.314-1.1562,27.7832-7.4795,52.1016-7.2529,51.9951-.1465.9365-1.5312,7.1914-1.5859,7.1812.2241-1.5181.437-3.0356.6382-4.5537.0215-.0044,1.6553-10.731,1.7222-11.667,6.1304-35.3125,6.2896-70.9355.8271-105.4282Z"/><path class="cls-34" d="m1340.2373,806.4103c-27.8281-9.6099-58.0781-9.6089-85.9062,0-.894.3091-1.8706-.1353-2.1865-.999h0c-.3135-.8652.1807-1.8418,1.0972-2.1572,28.5332-9.853,59.5508-9.854,88.085,0,.918.3203,1.4121,1.293,1.0972,2.1572h0c-.311.8623-1.2935,1.3076-2.1865.999Z"/><path class="cls-34" d="m1278.9269,823.7133h0c0-11.3036-9.2485-20.552-20.552-20.552h-19.8999c-11.3038,0-20.5522,9.2484-20.5522,20.552h0c0,11.3038,9.2484,20.5522,20.5522,20.5522h19.8999c11.3035,0,20.552-9.2484,20.552-20.5522Zm-40.5613,14.8472c-8.5524,0-15.5499-6.9975-15.5499-15.5499h0c0-8.5526,6.9975-15.5501,15.5499-15.5501h20.1184c8.5524,0,15.5501,6.9975,15.5501,15.5501h0c0,8.5524-6.9976,15.5499-15.5501,15.5499h-20.1184Z"/><rect class="cls-11" x="1232.8748" y="797.4013" width="31.0999" height="51.2183" rx="15.55" ry="15.55" transform="translate(2071.4353 -425.4143) rotate(90)"/><rect class="cls-11" x="1334.3333" y="797.4013" width="31.0999" height="51.2183" rx="15.55" ry="15.55" transform="translate(526.8728 2172.8938) rotate(-90)"/><path class="cls-34" d="m1319.3812,823.0104h0c0,11.3038,9.2485,20.5522,20.552,20.5522h19.8999c11.3038,0,20.5522-9.2484,20.5522-20.552h0c0-11.3038-9.2484-20.5522-20.5522-20.5522h-19.8999c-11.3035,0-20.552,9.2484-20.552,20.552Zm40.5613-15.5499c8.5524,0,15.5499,6.9975,15.5499,15.5499h0c0,8.5526-6.9975,15.5501-15.5499,15.5501h-20.1184c-8.5524,0-15.5501-6.9975-15.5501-15.5499h0c0-8.5526,6.9976-15.5501,15.5501-15.5501h20.1184Z"/><polygon class="cls-33" points="1292.3855 819.8601 1285.9253 829.0218 1293.4426 845.3485 1297.906 827.3774 1292.3855 819.8601"/><polygon class="cls-35" points="1293.2894 821.0889 1287.8869 828.7506 1294.1734 842.4041 1297.906 827.3754 1293.2894 821.0889"/><path class="cls-33" d="m1307.0157,818.4379s-5.4688,5.9301-5.4688,7.8409,5.1394,19.1739,6.3913,20.4258,6.6549-15.6817,6.6549-16.8678-7.5773-11.3989-7.5773-11.3989Z"/><path class="cls-35" d="m1305.6957,819.9317s-4.1489,4.8177-4.1489,6.31,3.3693,12.9383,4.526,16.0543c1.2557,3.3827,5.6629-12.3493,5.6629-13.2756s-6.04-9.0888-6.04-9.0888Z"/><path class="cls-40" d="m1390.669,782.9474c-19.2451-12.3423-47.1963-11.353-66.6299,7.7686-.687.6797-1.813.75-2.5435.147-.3354-.2769-.6694-.5532-1.0049-.8306-.7305-.5977-.8467-1.7656-.1934-2.6094,17.9131-23.3921,50.2725-31.2856,77.9697-18.8823,12.3428,5.2769,19.6113,17.9243,16.3066,20.1987-1.3765,1.1387-2.7534,2.2773-4.1294,3.416-3.145,2.2075-11.4409-4.2046-19.7754-9.208Z"/><path class="cls-40" d="m1200.5537,757.8229c27.6978-12.4043,60.0571-4.5107,77.9702,18.8818.6519.8423.5376,2.0142-.1934,2.6094-.3345.2769-.6704.5542-1.0049.8306-.7354.6001-1.8564.5308-2.5435-.147-19.4336-19.1216-47.3848-20.1108-66.6304-7.7676-8.3335,4.9995-16.6255,11.4204-19.7744,9.2075-1.3765-1.1392-2.7534-2.2769-4.1294-3.416-3.3018-2.2744,3.9639-14.9229,16.3057-20.1987Z"/><path class="cls-40" d="m1323.0728,861.1808c-8.7007,17.1353-34.4312,17.1353-43.1318,0-1.6914-3.3101-.8486-6.9595.918-7.209h0c1.7734-.2666,3.6553,1.874,4.8433,4.1411,6.376,12.5581,25.2334,12.5581,31.6094,0,1.1895-2.2666,3.0713-4.4072,4.8433-4.1411h0c1.7656.2495,2.6133,3.8931.918,7.209Z"/><path class="cls-40" d="m1260.0542,826.5055c-4.8296-11.3643-21.9976-11.3643-26.8271,0-.9497,2.1221-2.3921,4.2949-3.9355,4.2212h0c-1.5303-.0605-2.5361-3.4072-1.1807-6.562,6.6719-15.6978,30.3877-15.6978,37.0596,0,1.356,3.1577.3511,6.5015-1.1807,6.562h0c-1.542.0762-2.9932-2.0967-3.9355-4.2212Z"/><path class="cls-40" d="m1363.2969,826.5055c-4.8301-11.3633-21.9971-11.3633-26.8271,0-.9463,2.124-2.3926,4.2969-3.9355,4.2212h0c-1.5308-.0576-2.5356-3.4043-1.1807-6.561,6.6714-15.6978,30.3882-15.6987,37.0596,0,1.353,3.1548.3521,6.5034-1.1807,6.561h0c-1.5444.0762-2.9907-2.0938-3.9355-4.2212Z"/></g><g class="cls-5"><g class="cls-8"><path class="cls-45" d="m538.2569,417.171c27.2632,2.6851,54.5259,2.6851,81.7891,0,2.3755-.2344,4.561,1.6357,4.8589,4.2051,10.4888,91.0088,20.0132,183.4912,25.0381,278.8398.3379,6.4937-2.4785,11.3638-6.2212,10.7686-43.0469-6.6929-86.0938-6.6929-129.1406,0-3.7471.5947-6.5605-4.2686-6.2212-10.7686,5.0249-95.3477,14.5493-187.8311,25.0381-278.8398.2949-2.5688,2.4824-4.438,4.8589-4.2051Z"/><path class="cls-22" d="m530.5049,240.6954c11.8735,8.9331,21.5591,16.7603,28.0371,27.647-2.4014,1.3755-10.2051,8.3237-10.1616,10.5562.0737,5.4795.1479,10.9697.2227,16.46.0474,3.9819,9.4429,2.98,13.5,2.3525,13.5552-1.7544,27.2495-5.0405,40.856-9.6392,4.0654-1.3047,12.0566-7.71,10.6362-12.0674-1.939-5.2295-3.8853-10.4141-5.8418-15.54-.9302-2.7949-9.9126-4.8203-12.8462-4.1816-8.6055-20.1499-23.7617-31.979-43.458-38.9502-4.2949-1.6201-9.5791-.834-11.4531,1.6348-3.9341,5.1455-7.8149,9.7373-11.6738,13.8193-1.8428,1.9907-.7744,5.6011,2.1826,7.9087Z"/><path class="cls-1" d="m558.5435,268.3434c.0029.0215,5.7695-1.21,9.9375-2.3901,2.0449-.5234,2.9434-3.3027,1.7402-5.9658-6.2061-13.9512-14.7656-19.334-28.5718-27.7642-2.6606-1.7339-5.0806-3.0112-10.022-3.0542-.9663.9429-2.4614,2.7681-3.3037,3.6201-2.2715,2.2734-.2578,5.998,2.1782,7.9087,10.1094,7.8384,20.0586,15.4565,26.2065,24.7896,1.1406,1.7124,1.835,2.854,1.835,2.856Z"/><path class="cls-28" d="m569.8111,265.1349c.0024.0469,4.8521-2.0273,6.854-2.1191.9243-.0024.5054-1.0298-1.0425-4.313-8.3198-16.791-18.3345-22.873-33.0088-30.5171-2.8687-1.4492-7.5483-2.9756-7.5439-3.0059-1.0967,1.4233-2.2412,2.7466-3.4321,3.9771-.0244.0889,6.4834,1.5684,12.3135,4.6602,8.2754,4.4507,20.2207,12.6382,24.9302,26.3364.8892,2.4966.9292,4.9819.9297,4.9814Z"/><path class="cls-15" d="m689.4243,321.0211c.0156-.3838-4.8623,17.2314-11.3608,42.5791-6.4985,24.8516-14.6177,57.4355-21.0928,75.5547-.5669,1.6279-5.4712,10.4521-7.7837,12.3511-1.4751,1.2686-2.9497,2.4395-4.4302,3.5391-2.3237,1.7163-4.3403,2.186-4.8208,1.3906-1.0244-1.686-2.0547-3.4165-3.0889-5.2041-1.54,4.3721-3.0342,8.1748-4.4478,11.2715-.5879,1.3721-5.6289,7.2422-8.021,7.6084-1.5176.3032-3.0332.5269-4.5562.668-2.3965.2217-4.4658-.5947-4.9585-1.6909-.2959-.6494-.5928-1.3027-.8906-1.9604-2.9678,1.665-5.958,2.6953-6.7559,2.5425-2.6309-1.8247-5.2705-3.8325-7.917-5.9795-.0283.2944-.0625.5981-.0928.8916-.3555,1.0977-9.3066-.3467-11.0068-1.3457-5.1528-2.8457-10.3062-6.1123-15.4507-9.4858-1.7056-1.0698-14.9263-15.2036-15.2769-16.103-.2993-1.6777-.603-3.3516-.9043-5.0215-.9395,1.8882-1.874,3.7603-2.8032,5.6172-.4976.6279-2.5454.1582-4.9116-1.0259-1.5083-.7529-3.0132-1.4766-4.521-2.1621-2.3843-1.3687-13.188-7.8784-13.665-8.5869-.8379-1.8823-1.6836-3.7476-2.5254-5.5918-.2939,1.1982-.584,2.3965-.876,3.5972-.4204.791-2.1812,2.1006-4.2676,1.6392-.5669.1694-7.4077-4.0718-14.2007-6.0264-6.793-2.3438-13.5381-2.3975-13.9126-2.8325-.3867.0259-1.8457.2749-2.5225-.917-6.478-30.8682-12.9741-66.1934-19.4385-114.1602-.5039-1.9932-.5381-3.6113-.0938-4.6396,13.9473-8.1631,29.1201-12.4219,45.085-21.8696.3818-.6089,1.9717-.5278,3.8472.0718,1.1914.3853,2.3896.7378,3.5884,1.0596,1.876.5059,3.5234,1.3896,3.9287,2.2271.7441,1.7646,1.4883,3.5254,2.2329,5.2759,1.9512-1.9478,3.9102-3.9546,5.8799-6.0537.582-.9028,2.9863-2.5093,5.8608-2.1436,1.3291.187,4.3887.6665,5.751.9629.5723.1274,2.6816.4731,3.6328,1.9312,3.3306,1.9209,6.6626,3.7979,10.0063,5.6714,1.9419-2.1504,3.8872-4.3779,5.8413-6.6812.4263-1.0854,2.1792-3.2993,4.2495-3.3452.9653-.0103,3.1567.0991,4.1328.2734.4043.0742,1.9248.2305,2.5981,1.7124.6104.9722,1.2139,1.9399,1.8193,2.9194.5542-.7905,1.1001-1.5815,1.6543-2.376.4326-1.1226,7.6445-5.6538,9.7158-5.8735.9502-.0688,3.1475-.0806,4.1265.0581.4033.0591,1.9131.1489,2.5771,1.6987,1.085,1.312,2.1621,2.6343,3.2441,3.9639,1.2783-.8408,2.5791-1.6875,3.9053-2.5371,7.7485-4.958,10.855-12.5293,13.7832-13.3018,5.814-1.5532,10.1763,3.1431,11.4771,3.3022,2.2139.2749,4.9883.6167,7.6289,1.0039.9434-1.6626,1.8887-3.3149,2.8296-4.9585.6138-1.4248,3.0649-4.4717,5.8887-4.8745,1.3022-.1934,4.2866-.416,5.5977-.3638.5542.0156,2.5835.0029,3.4624,1.5464,12.6265,12.9702,24.6919,24.23,35.9751,32.6382,4.9575,6.0571-3.0767,29.0522-3.7266,31.5454Z"/><path class="cls-17" d="m508.5073,319.1295c-.1377,1.001-.3203,2.0283-.5522,2.9902-5.082,31.9214,1.7422,66.9341,19.1587,96.4282.4297.8784,1.0586,2.4106,1.0552,2.4111-.1255-.0732-8.8237-10.9512-8.9214-11.1211-.085-.0913-.4072-.3374-1.0796-1.5513.0908-.1294-7.6885-14.3179-12.1626-32.9409-4.9751-18.6519-5.7759-41.6694-6.4512-52.7285-.1519-1.2251-.1821-7.5259.1172-8.5435,7.6108-13.0308,18.1177-20.9058,30.8032-29.1821.4502-.5244,1.0498-.4121,1.0469-.4072.0049.001-.4844.6377-.5342.7886-.2788.8208-.5757,1.4946-.9292,2.0776-9.4492,9.2637-16.7168,19.0576-21.5508,31.7788Z"/><path class="cls-17" d="m655.6655,319.649c-.1948-1.1895-.3657-2.4609-.4932-3.7051-2.9248-15.7866-7.8945-31.1733-15.0249-46.0166-.3779-1.0073-1.041-2.9937-.7617-2.9155.1318.0352.5078.2686.7188.4844.0879.0933.3838.3247,1.0576,1.7036,5.2646,7.7012,9.8516,15.7285,13.7461,23.8369,3.7031,8.7466,7.0703,15.2202,7.1792,16.4761,1.4893,14.4355.8682,39.2871-4.1978,66.5376-4.5835,27.0669-13.6714,56.0874-18.0981,68.3062-.376,1.125-2.1416,5.5049-2.3091,5.5034-.1016.0112-.1973.0161-.2974.0142-.1562.019-.0176-.7944.3311-1.9355,15.8525-47.6797,22.0215-92.1699,18.1494-128.2896Z"/><path class="cls-17" d="m629.4688,341.693c1.1934-2.2012-14.377-45.8359-16.25-46.0015-.002-.021-4.5078-5.4702-6.9434-11.2974-1.0356-2.6221-3.7358-7.333-3.6733-7.3779.1611-.1387,2.6885,3.8389,2.9121,4.2114,1.1099,1.6152,2.8999,4.4023,3.603,5.7915,5.8828,6.6655,11.2969,14.0249,16.1704,21.8247,3.9233,9.8921,8.4116,36.728,8.1699,38.2993-.1572-.04,1.4131,22.4492-2.2681,49.1045-3.0405,26.7339-11.4585,55.8696-15.334,66.2949-.3052.9834-1.6772,4.7314-1.7505,4.6904-.042-.0137-.083-.0312-.126-.0498-.0713-.0278.1084-.7593.4233-1.7637,14.1699-38.7461,19.3877-84.9004,15.0664-123.7266Z"/><path class="cls-17" d="m546.1353,333.8204c-.1235-1.144,3.4761-18.061,3.7524-19.2207-.1064.0791,7.7686-18.0596,11.0684-27.166.5264-1.4951,1.6904-2.8379,1.6919-2.8394.0049-.0024.2754.8472.2495,1.1309-.0376.4365-.1001.9551-.377,1.8433-4.5015,13.1919-7.9819,44.6089-7.6875,44.6318-.0054,1.1646-.0601,2.3608-.1636,3.5098-2.0347,28.5674-1.186,57.2578,2.3813,88.3433.0742.9155-.2344,8.6792-.4097,8.6172.0015-.0083-2.4565-3.1284-2.6738-3.8892-.0796-.2275-2.4517-10.791-2.5835-11.6899-4.2207-29.2017-6.0166-56.3901-5.2485-83.271Z"/><path class="cls-17" d="m596.3208,339.5655c.0596-1.5244-7.5723-26.1719-8.2183-27.0601-1.4238-9.8184-3.3682-19.4521-5.8374-28.7236-.3789-.9434-1.1875-3.7812-.9844-3.6367.0972.0688.3804.3608.5508.6001.0713.0962.3027.3794.9365,1.6982.1743-.2095,8.394,18.9683,11.4741,29.5562.4971,1.0645,7.5469,14.958,7.668,16.3921,3.0059,14.0176,6.6641,46.8105,5.1987,76.1211-.7661,29.4448-6.5337,53.7124-6.3032,53.5024-.1851.9644-1.2954,5.896-1.4048,5.834-.147-1.2407-.3013-2.478-.4697-3.7109-.0352-.0103,1.5811-11.022,1.6519-12.0278,4.4956-36.0024,3.0093-74.1011-4.2622-108.5449Z"/><path class="cls-2" d="m511.5366,321.9298c-.1514.9893-.3398,2.0166-.5303,3.0005-5.7007,30.1211.022,64.2832,16.3242,93.9712.4639.8936,1.1211,2.4717,1.125,2.4683-.1416-.063-7.916-11.605-7.9453-11.8062-.0718-.0996-.0786-.2725-.7207-1.5303-.2739.0327-6.6802-14.3257-9.9463-31.9941-3.7197-17.6514-4.332-38.8711-3.3618-48.5088-.0381-1.1016.333-6.8125.5889-7.8008,5.082-14.2192,13.1064-24.7446,23.7031-34.8101.4438-.5552.8149-.5894.8101-.5898.0029-.0029-.25.8066-.3286.9507-.4106.769-.9458,1.5122-1.3325,2.0967-8.5825,10.2075-14.7505,21.1675-18.3857,34.5527Z"/><path class="cls-2" d="m661.6084,316.7745c-.1675-1.2026-.3296-2.4644-.4761-3.6899-4.4756-14.9536-11.0898-29.7202-19.875-43.7646-.3975-.9946-1.8867-2.3257-1.8911-2.3218.4014.1162.7979.2471,1.1958.3599-.0029,0,.3232.4688,1.2217,1.5854,6.4697,7.1797,12.2676,14.7998,17.2993,22.4634,3.0762,9.1118,5.3486,16.2241,5.4946,17.4507,1.8882,14.0439.4116,39.1719-5.4155,66.8711-5.3594,27.5859-15.1875,56.6104-19.3799,68.7046-.3652,1.123-1.9648,5.4795-2.0566,5.4795-.0547.0039-.1025.0068-.1538.0083-.0771.0015.127-.8101.4868-1.9497,17.3984-47.9761,25.5107-94.5601,23.5498-131.1968Z"/><path class="cls-2" d="m627.1128,314.8815c-.0859-1.5273-10.7656-19.4639-11.541-20.3867.0034-.0254-6.3335-4.5215-8.8989-10.2471-1.0913-2.5854-3.7964-7.2944-3.7563-7.3213.1152-.1069,2.584,3.9048,2.8008,4.29,1.0542,1.645,3.1343,3.5679,3.8325,4.959,6.1406,6.4756,11.8047,13.6865,16.9424,21.3223,3.915,9.9194,8.5586,36.7329,8.3218,38.3062-.1514-.0532,1.1416,22.8774-2.8711,49.9009-3.3594,27.1401-12.1641,56.439-15.9717,66.855-.291.9893-1.6299,4.7451-1.6831,4.7178-.0322-.0161-.0586-.0278-.0903-.0356-.0479-.0186.1465-.75.4644-1.7505,17.8672-48.0215,22.4287-105.0996,12.4507-150.6099Z"/><path class="cls-2" d="m553.9702,336.485c-.0859-1.1543,1.8877-18.6621,2.126-19.833-.1055.0269,3.5762-19.0542,5.7065-28.1943.3262-1.5127,1.1445-2.8848,1.1455-2.8877.0005.0039.0054.8164-.0332,1.1094-.0571.436-.1401.9556-.3154,1.8486-3.1323,13.2974-5.9312,45.0259-5.6309,45.0435-.0366,1.1636-.0942,2.3638-.1626,3.5249-2.7065,28.2471-2.5581,56.5156.2944,87.0308.0928.9238-.4141,8.8359-.457,8.8208-.0015.0039-.3521-2.5273-.4995-3.2773-.0679-.2183-1.2808-10.4146-1.3882-11.3193-2.7183-28.5913-3.022-55.2798-.7856-81.8662Z"/><path class="cls-2" d="m594.4751,340.2262c.1021-1.478-6.356-26.3442-7.0298-27.2646-1.1792-9.9268-2.8901-19.7129-5.1538-29.1597-.3921-.9336-1.1655-3.7822-1.0386-3.5996.0684.084.1602.4648.3037.7173.0601.1055.0542.5.6616,1.8306.2017-.1089,4.9292,20.6069,7.6758,30.9624.4683,1.0825,5.2944,15.4087,5.4316,16.7686,3.1646,13.564,8.0796,44.4194,8.0391,72.457.6245,28.0527-3.5806,51.9492-3.3779,51.7593-.1763.9648-1.1343,5.4863-1.1748,5.4619.0601-.979.1128-1.9585.1699-2.9375.0225.0234,1.8359-10.9756,1.9146-11.9917,3.5557-35.2935,1.2969-72.0034-6.4214-105.0039Z"/><path class="cls-2" d="m603.6035,335.9942c.0576-1.5708-9.6934-25.353-10.3447-26.1943-2.938-9.1172-6.3315-17.8301-10.1631-26.0093-.3823-.916-1.4165-3.5635-1.2876-3.3872.0562.085.2671.4102.3984.6567.0562.0996.2339.3984.8252,1.7002.1431-.2329,9.8237,17.1958,12.6748,27.6777.4648,1.0454,8.792,13.6675,8.9595,15.0669,3.3286,13.6777,6.5483,47.0273,4.4585,76.6982-1.3667,29.8745-7.9165,54.1909-7.6816,53.9497-.1484.959-1.5859,7.0908-1.6421,7.0508.2285-1.5166.457-3.0332.667-4.5615.0215.0239,1.7324-10.7856,1.8027-11.772,6.4009-35.8564,6.8755-74.9375,1.333-110.876Z"/></g></g><g class="cls-5"><g class="cls-3"><path class="cls-29" d="m1348.8648,697.3468c-27.2632,11.9839-54.5259,11.9839-81.7891,0-2.3735-1.0498-4.7554-4.3447-5.293-7.2256-18.9126-102.061-33.2349-197.5415-26.1948-280.2334.4971-5.5752,4.084-12.5615,7.812-15.2148,43.0469-29.877,86.0938-29.877,129.1406,0,3.73,2.6479,7.312,9.6411,7.8115,15.2148,7.04,82.6919-7.2812,178.1724-26.1943,280.2334-.542,2.876-2.9219,6.1797-5.293,7.2256Z"/><path class="cls-21" d="m1275.2686,199.1603c9.6772-12.5728,16.1333,14.3579,19.5044,33.1772-2.0522-2.5815-9.2603,2.8813-9.561,7.6294-.7266,8.5513-1.457,17.564-2.2002,26.6953-.501,6.4414,6.9814,6.6084,10.0898,6.7588,10.4893.6797,20.7324.4053,31.6787.4175,3.2188.6465,10.4424-1.8057,10.1147-6.9209-.5981-4.2388-1.1538-7.7231-1.6729-11.2095-.1934-1.2573-6.6191,5.606-8.9297,4.8921-1.3467-6.8906-4.0566-15.5312-8.4004-33.9736-4.3457-16.9644-10.3262-43.729-18.2173-52.7422-3.4219-3.5869-8.4141-2.3887-10.5483-1.9468-4.457,1.4868-8.6934,4.8491-12.8394,19.585-1.9951,7.6245-1.4219,11.2915.9814,7.6377Z"/><path class="cls-44" d="m1294.7744,232.3409c-.0015-.188,4.6567,5.5728,7.9922,10.603,1.6279,2.3252,2.7686,1.5986,2.3159-2.1919-1.1943-9.98-3.1494-21.0767-6.1519-32.7271-3.0039-11.3511-7.0547-23.2573-12.4443-27.9385-2.0791-1.5039-4.0527-3.1562-8.6265,1.3975-1.0337,1.9497-2.6724,6.7622-3.5728,10.0405-2.4297,9.2275-.9932,10.6377.9785,7.6455,8.2461-11.6504,15.1553,9.9639,18.5186,27.7676.6333,3.2939.9897,5.3994.9902,5.4033Z"/><path class="cls-31" d="m1303.9063,244.1305c-.0059.0034,4.002,5.2827,5.5151,7.6924.6953,1.1064.5508.0996-.0308-4.1309-3.3525-20.7168-9.709-59.5205-21.4102-70.3511-2.2959-2.1226-6.3545-1.9175-6.3604-1.8291-1.2261,1.3984-2.4771,3.3037-3.75,5.9473-.0293-.1284,5.832-5.0356,10.3813.624,6.5942,5.5459,14.605,39.1191,15.7852,56.7593.2505,3.3149-.1313,5.2749-.1304,5.2881Z"/><path class="cls-9" d="m1194.9277,323.2135c-.234.4573,6.9907,16.788,13.6577,36.2802,6.9617,19.5123,13.3656,42.1861,18.2899,55.7966.4679,1.0806,5.0141,5.5761,7.3876,5.5669,1.5194-.0337,3.0382-.067,4.5533-.0984,2.3755-.0446,4.5309-1.0115,5.164-2.3162,1.3557-2.7721,2.699-5.5162,4.0244-8.2267,1.0794,4.0598,2.1557,7.7588,3.2518,10.8036.4512,1.2196,4.9795,6.3407,7.3772,6.3801,1.5168,0,3.0339,0,4.5505,0,2.3862.0009,4.5254-1.0052,5.1105-2.4144.3542-.8337.7082-1.6636,1.0587-2.4898,2.7539,2.2172,5.5833,4.2546,6.3712,4.2543,2.6993-1.8011,5.368-3.5956,8.0028-5.3717.0147.4081.0296.8173.0432,1.227.2751,1.3407,8.9536,4.1297,10.6436,4.1364,5.0552-.6081,10.0894-1.2135,15.1014-1.806,1.7404-.1059,14.1023-9.7254,14.2911-10.8822.1496-2.2256.2999-4.4092.4481-6.5556,1.103,3.4046,2.2339,6.8917,3.3896,10.4612.5727,1.3519,2.6526,2.3418,4.9743,2.3669,1.4829.0178,2.9654.0357,4.4497.0558,2.3395-.0158,12.6612-3.9974,13.0128-5.1905.566-2.463,1.1352-4.8676,1.707-7.2209.4973,1.8362,1.0009,3.6929,1.5082,5.568.5715,1.3082,2.64,3.867,4.7369,3.6397.7226-.7522,26.6026-15.0594,28.1039-14.6413.4368-.0863,2.0679-.3211,2.7013-1.8354,3.9461-35.0399,11.6721-64.9683,20.6571-98.9303.7505-1.2115.7539-2.4667,0-3.6719-23.0219-18.323-40.7357-32.7752-55.3298-48.3443-.3235-.8052-1.8521-1.2414-3.6351-1.0662-1.1375.1117-2.2644.2199-3.3818.3255-1.7499.1655-3.2866.897-3.6952,1.7577-.7732,1.8426-1.5335,3.6618-2.284,5.4575-1.6311-2.3643-3.2345-4.7585-4.8198-7.1991-.4495-1.0426-2.4431-2.9608-4.9044-2.5488-1.1421.1954-3.7441.7945-4.8851,1.1767-.4846.1557-2.2521.6495-3.0898,2.24-2.8146,2.2135-5.5605,4.3602-8.2509,6.4474-1.484-1.9634-2.97-3.9623-4.467-6.0022-.3142-1.0224-1.6616-3-3.2975-2.7355-.7565.1266-2.4941.564-3.2581.8737-.3194.1278-1.5148.5151-2.046,2.0144-.4788,1.002-.9548,1.9931-1.4282,2.9769-.4253-.6518-.8512-1.3079-1.28-1.9686-.3226-1.0106-5.9715-4.0541-7.6152-3.8705-.7476.0961-2.4748.4737-3.2382.7528-.3157.1171-1.503.4619-1.9942,1.9416-.8253,1.3344-1.6472,2.6523-2.4676,3.9562-1.019-.5306-2.0619-1.0544-3.1398-1.5715-6.2727-2.9936-9.1706-9.0126-11.6405-9.2005-4.909-.3217-8.4716,4.4506-9.5959,4.7818-1.9105.5928-4.3398,1.3111-6.7211,2.0524-.9315-1.2834-1.8737-2.579-2.8259-3.8877-.6357-1.1548-3.0581-3.5231-5.7804-3.5646-1.2466-.0173-4.1646.1047-5.4728.2737-.5447.0754-2.5862.2388-3.408,1.7502-12.2131,13.0738-26.6901,25.3045-44.7751,39.7305-8.2083,10.8244,3.3755,37.5844,4.1597,38.5651Z"/><path class="cls-16" d="m1362.9212,297.949c.166,1.0515.3945,2.1301.6673,3.1703,6.4537,33.0831,1.6187,66.2644-11.1124,103.8873-.307,1.097-.6996,3.0682-.7027,3.0728.1042-.025,7.3634-12.6712,7.4601-12.8819.0846-.0944.3672-.3718.882-1.8325-.0918-.1217,5.6469-17.7774,8.9052-36.9867,3.7332-19.308,3.6935-41.1127,4.1781-51.6829.1355-1.1335.0043-7.2405-.3603-8.3565-9.3662-15.9305-19.944-28.5589-30.7747-39.3274-.3778-.6357-.9073-.5896-.9102-.5865-.0017-.002.3954.7519.4345.9246.2095.9266.4397,1.6903.7295,2.368,7.9855,11.3884,15.0882,23.935,20.6035,38.2313Z"/><path class="cls-16" d="m1238.1233,299.3478c.2314-1.0849.4236-2.225.5747-3.3177,3.2866-14.4695,7.9916-28.124,13.8473-41.778.2955-.9151.8193-2.7067.5652-2.6014-.1191.0475-.4489.3088-.6314.5252-.0745.0886-.3295.3419-.8912,1.6181-4.49,7.3752-8.7018,14.8928-12.612,22.807-3.6851,8.3565-7.555,15.4516-7.6969,16.6301-1.8342,13.3933-1.9568,35.8598,1.6639,57.097,3.1925,21.133,9.6517,42.8779,12.7918,54.0458.2693.962,1.5994,4.7542,1.7692,4.6705.1033-.0578.2081-.1165.3142-.1741.1652-.0904.1203-.9237-.107-1.9934-10.789-41.4356-14.3895-73.8853-9.5878-107.529Z"/><path class="cls-16" d="m1262.8134,308.2111c-.5413-1.7378,12.1849-36.713,13.3227-37.2655.0043-.0236,3.4771-4.8195,5.2618-9.9475.7614-2.2736,2.7752-6.6696,2.7303-6.7173-.1318-.0809-2.0276,3.6601-2.1991,3.9876-.8409,1.5116-2.1893,4.0377-2.7134,5.2517-4.5013,6.1789-8.7067,12.5138-12.7138,19.2225-3.0359,8.025-7.4037,29.345-7.3392,30.6417.1557.0271-1.7983,17.2263-.2081,39.0313,1.0417,21.3549,6.1496,50.4775,8.9875,64.3073.2069,1.1718,1.1957,5.9222,1.2722,5.903.0432-.0193.0875-.04.1292-.0604.065-.034-.0403-.9761-.2521-2.2524-10.0097-47.8813-10.5582-80.9301-6.2782-112.1019Z"/><path class="cls-16" d="m1327.8548,303.2756c.0282-1.1142-2.9289-17.323-3.0863-18.3912.0296-.0089-5.9611-17.34-8.2825-25.9482-.3741-1.4276-1.2673-2.6679-1.2679-2.6653,0,.002-.2388.8411-.225,1.1234.023.4187.0581.9257.2541,1.7652,3.0949,12.715,5.6681,41.1619,5.5631,41.1734.0132,1.0472.0662,2.1309.1588,3.1767,1.8403,26.0587,2.9085,52.8602,2.0762,91.8149-.0058,1.0619.964,12.043,1.141,12.1786.0023-.002,2.1531-2.5821,2.2924-3.507.063-.362,1.3689-13.1469,1.4046-14.134,1.2607-35.6417.9091-61.2949-.0285-86.5865Z"/><path class="cls-16" d="m1289.3947,303.0514c-.0055-1.0434,5.6969-20.0844,6.1651-21.0222,1.0541-7.8624,2.4814-15.9515,4.3974-24.5799.2895-.8863.9232-3.581.7675-3.4282-.0699.0717-.2955.383-.4282.6213-.0584.0984-.2357.3931-.7263,1.661-.1819.1496-6.3769,17.5262-8.6218,25.5848-.3603.9298-5.6523,11.8574-5.7697,12.894-2.2144,10.9078-5.4707,34.267-5.5625,60.684-.678,25.6717,3.0774,57.8861,2.9844,57.9816.1131,1.2334.9131,8.0897,1.023,8.0995.2063-1.5879.417-3.151.6319-4.6929.0314-.1905-.9436-14.5052-.947-15.521-2.1945-43.8424.6319-71.9515,6.0863-98.2819Z"/><path class="cls-26" d="m1359.7278,299.759c.1908,1.0406.402,2.1272.6331,3.1749,6.9712,31.7226,3.5968,64.5125-8.0523,102.4983-.3416,1.1093-.7577,3.1318-.764,3.1338.122-.065,6.313-13.7973,6.3392-14.0088.055-.1163.0331-.3459.5137-1.8596.299.1145,4.642-17.6988,6.4676-36.326,2.2262-18.7374,1.8647-39.3956.5047-49.3638.0052-1.0895-.5669-6.8903-.865-7.9663-5.9493-15.8689-13.8214-29.6138-22.7086-42.043-.3658-.6682-.6904-.7465-.6901-.7496-.0012,0,.1859.9082.2429,1.0714.3258.8852.7678,1.7571,1.0886,2.446,7.176,12.2828,13.1518,25.4792,17.2902,39.9927Z"/><path class="cls-26" d="m1231.6957,299.454c.2129-1.1419.4201-2.3223.5994-3.4659,5.2276-15.1458,11.7875-28.8187,19.2119-42.0773.322-.9102,1.6216-2.2765,1.6204-2.2745-.3586.1623-.7142.3263-1.0708.4918.0006.0012-.2745.4495-1.0498,1.5439-5.6414,7.126-11.1159,14.5463-16.4246,22.6147-3.189,8.7838-5.9355,16.2111-6.115,17.3987-2.3862,13.5863-1.4918,36.4494,3.0351,57.4363,4.1044,20.967,11.3354,42.0793,14.2338,53.3307.2495.975,1.4063,4.8471,1.5019,4.8103.0521-.0334.1108-.0599.1632-.0904.0817-.0486-.0259-.8429-.2708-1.9047-12.3225-40.3682-18.3955-72.605-15.4347-107.8136Z"/><path class="cls-26" d="m1265.0091,287.611c.1804-1.2,8.7173-16.4217,9.2255-17.2925.0132-.0319,4.9663-4.3312,6.848-9.3881.8106-2.2483,2.8239-6.6494,2.7965-6.6799-.0961-.0633-1.9516,3.7059-2.109,4.0368-.7925,1.5272-2.3971,3.3873-2.9139,4.6063-4.7059,6.0871-9.1329,12.3656-13.3806,19.0283-3.0368,8.0911-7.5542,29.5154-7.5044,30.8239.1531.0305-1.5672,17.5382.314,39.4785,1.3197,21.5192,6.7585,50.6867,9.5441,64.5231.1968,1.177,1.147,5.9372,1.2029,5.9274.0305-.0141.0622-.0268.0906-.0417.0472-.0213-.0783-.9565-.2915-2.2339-12.557-58.0371-11.7294-95.3594-3.8221-132.7881Z"/><path class="cls-26" d="m1321.534,304.3248c.0104-1.0656-1.5856-17.0303-1.7183-18.1003.0426.0403-2.5997-17.46-4.0236-26.2469-.221-1.4483-.8391-2.7289-.8351-2.7298.0035.0006-.0299.7988,0,1.0762.0374.4173.084.9151.2058,1.766,2.0285,12.8563,4.0877,41.1346,3.9726,41.1504.0403,1.0371.095,2.1197.158,3.1597,2.3508,25.6406,3.9047,52.2844,3.7105,90.9896-.0253,1.0506,1.1545,12.3904,1.2052,12.5075.0023-.0075.1255-3.3243.1991-4.2532.0443-.3701.3367-13.3179.3586-14.2989.1327-35.3467-1.2009-60.6126-3.2328-85.0205Z"/><path class="cls-26" d="m1290.7846,303.5573c-.0391-1.0259,4.7798-20.2315,5.2684-21.186.8714-7.947,2.1272-16.1368,3.8828-24.9002.3013-.8765.9102-3.5798.8101-3.4005-.046.0846-.1283.4455-.2374.6964-.0483.1022-.0414.4653-.5142,1.747-.1836.221-3.7623,18.6208-5.7738,26.5315-.3462.9479-3.9375,12.111-4.0567,13.0945-2.3303,10.5956-6.3453,32.7375-7.3809,58.0268-1.5649,24.5295.8432,55.3108.7522,55.377.1082,1.2181.7856,7.3637.8328,7.3853-.0049-1.2984-.021-2.5836-.0196-3.85-.0319-.1701-1.1778-14.2269-1.187-15.2266-1.3657-41.8661,1.8503-69.0434,7.6232-94.2952Z"/><path class="cls-26" d="m1283.8664,300.5582c.0224-1.0832,7.3663-19.5549,7.8146-20.4473,2.1747-7.3375,4.6846-14.7757,7.6356-22.556.2987-.8575,1.097-3.4031.9994-3.2287-.046.0806-.2066.4098-.3102.6512-.0417.1013-.1787.4006-.6391,1.6437-.1586.0932-7.4627,16.1242-9.53,24.1293-.3214.9027-6.6172,11.0022-6.7683,12.0304-2.4639,10.711-5.4043,34.37-5.0434,60.6337-.2532,25.5833,4.172,57.3827,4.0791,57.4835.0843,1.1637,1.1134,9.5913,1.1715,9.6339-.1436-2.0906-.2742-4.1482-.3914-6.1703-.0256-.164-1.0466-13.9412-1.0512-14.9288-3.7974-43.2189-2.2072-71.5587,2.0334-98.8744Z"/></g></g><g class="cls-5"><g class="cls-4"><path class="cls-23" d="m622.7969,1188.7057c-27.2632,11.9834-54.5259,11.9834-81.7891,0-2.3818-1.0493-4.2666-4.3511-4.1934-7.2256,2.4253-102.061.2612-197.5425-23.2646-280.2339-1.6206-5.5723.0083-12.5654,3.7822-15.2148,43.0469-29.8765,86.0938-29.8765,129.1406,0,3.7778,2.6514,5.4038,9.6416,3.7822,15.2148-23.5273,82.6919-25.6914,178.1733-23.2646,280.2339.0776,2.8765-1.8101,6.1782-4.1934,7.2256Z"/><path class="cls-20" d="m611.4282,686.0211c-15.8525,8.4019-28.1406,19.3921-33.4395,31.9468,2.3882,1.1323,11.6519,8.8618,12.3271,11.5786,1.293,6.3228,3.1631,12.647,5.415,18.9692,1.6147,4.5269-8.5884,2.7007-12.8022,2.0962-14.1826-2.0332-27.7461-4.0664-40.4077-6.0996-3.8384-.605-12.0376-4.9097-11.8535-9.2178.3218-5.2676.9663-10.5361,2.0933-15.8047.4355-2.8262,7.9746-6.9678,10.6089-7.0854,6.6079-21.167,31.3228-39.6748,62.9453-53.2969,6.8179-2.9756,11.4458-2.7412,10.6978.189-1.3086,5.9277-1.1221,11.8447.2925,17.7729.6108,2.9331-1.9604,6.854-5.877,8.9517Z"/><path class="cls-18" d="m577.9873,717.9708c-.0107.0059-5.9102-.752-9.9819-1.3125-2.0044-.2427-3.0884-2.9985-1.9146-6.0615,6.3657-15.8359,18.5386-24.7832,38.3057-35.5884,3.8774-2.0825,7.3218-3.7495,12.0044-3.0059.2563,1.2959.5532,3.8145.9014,5.0698.8882,3.3853-2.6255,7.1938-5.8726,8.9517-13.5757,7.291-26.2427,17.6006-31.8232,28.5732-1.0518,2.0322-1.6182,3.373-1.6191,3.3735Z"/><path class="cls-27" d="m566.6655,716.0021c-.0122.022-4.7573-1.3003-6.6079-.9668-.8408.1758-.583-.9541.8735-4.6919,8.3647-19.0425,24.2466-29.6938,45.2881-40.0342,4.1431-1.978,9.9165-3.5405,9.897-3.5259-.1064,1.793-.0068,3.5283.2837,5.2031.0312.022-7.25.8179-15.4238,5.0229-11.5327,5.7739-29.146,18.0796-33.5879,33.5112-.8862,2.8271-.7212,5.4834-.7227,5.4814Z"/><path class="cls-19" d="m690.6538,809.1344c-2.437.001-3.2261,71.9521-28.6123,93.7837-.8394.9688-7.4634,4.7852-9.8228,4.7856h-4.3257c-2.2764-.0015-3.7617-.7163-3.5806-1.7329.3701-2.1548.6709-4.311.8965-6.4658-3.2114,3.3374-6.5308,6.2397-9.5908,8.5752-1.1738.9653-9.251,4.7866-11.7285,4.7856-1.5171-.0005-3.0347-.0005-4.5498,0-2.3906-.0015-3.7764-.7212-3.3516-1.7329.2441-.6016.4814-1.2021.707-1.8032-4.2944,1.6279-8.6284,3.0811-9.417,3.0762-1.3755-1.2749-2.7729-2.5503-4.2075-3.8247-.2949.2954-.5898.5894-.8896.8833-1.207.9766-11.9082,2.9414-13.6006,2.9414-4.6289-.4243-9.2617-.8491-13.9243-1.2729-1.4258.0015-8.4355-7.0649-8.3638-8.0391.9688-1.687,1.8438-3.3745,2.6284-5.0625-2.7002,2.6523-5.5918,5.3047-8.6753,7.957-1.3115,1.0039-3.9961,1.7158-6.4077,1.7153h-4.6338c-2.313,0-11.3638-3.2158-11.397-4.2144.3369-1.9653.54-3.9272.6196-5.8931-1.1143,1.4946-2.2744,2.9888-3.479,4.4839-1.0762,1.0376-4.2285,3.0259-6.3672,2.7935.5176-.106-25.6729-14.0005-28.3501-14.291-.5044-.1221-2.3706-.4912-3.0278-1.9863-3.292-33.7861-18.5293-67.5713-24.3364-101.356-.5435-1.2114-.522-2.4692-.0132-3.6768,15.9194-18.3608,22.7935-36.7202,32.2788-55.0811.1699-.895,1.2871-1.5317,2.7129-1.5322.9082-.0005,1.8223-.0005,2.7461,0,1.4443-.002,2.8174.6357,3.2749,1.5322.8828,1.9209,1.8213,3.8428,2.813,5.7642.9907-2.7632,2.0552-5.5249,3.2251-8.2866.2954-1.1553,1.9341-3.3818,4.3032-3.123,1.0874.1201,3.6675.5752,4.8467.9072.4927.1372,2.3032.5396,3.3784,2.2158,3.1787,2.2261,6.5068,4.4517,9.979,6.6772,1.1631-2.2573,2.4043-4.5142,3.7432-6.771.1758-1.1187,1.4111-3.2788,3.3218-3.0293.8774.1201,2.9517.5566,3.8931.8779.3984.1353,1.8457.5356,2.7598,2.1514.7598,1.083,1.54,2.165,2.3413,3.2476.3569-.7202.7241-1.4438,1.1011-2.1636.1411-1.1221,6.4585-4.3623,8.561-4.1133.9463.1201,3.1602.5566,4.1768.8779.4248.1353,1.9717.5356,2.9238,2.1514,1.3481,1.4736,2.7368,2.9463,4.1611,4.4199,1.1548-.5469,2.3599-1.0908,3.6089-1.603,7.2314-3.0283,9.8291-9.1826,13.0278-9.1934,6.2622-.0137,11.9136,5.3594,13.4985,5.8345,2.6323.7993,5.9741,1.8081,9.2407,2.8345.873-1.2949,1.7783-2.5898,2.7144-3.8843.5542-1.167,3.2095-3.4062,6.6924-3.147,1.5933.1196,5.3345.5747,7.0142.9082.7031.1406,3.3125.5596,4.6201,2.2388,17.9053,15.2397,37.7842,30.481,52.5322,45.7217,6.0659,10.939-1.9204,37.7681-1.6895,39.1382Z"/><path class="cls-38" d="m510.0821,783.2018c.1865,1.1992.3301,2.4307.4111,3.6138,2.9268,36.8584,22.1914,75.5674,28.0166,108.2832.0562.9419-.0962,2.5845-.1011,2.5869.2656.146-5.2344-11.1401-5.7012-11.5034-.0913-.0942-.3784-.355-.8076-1.7168.3896-.0059-4.709-16.5264-12.4219-37.2134-7.7568-20.5806-13.749-44.8081-16.8867-56.5225-.4204-1.2607-1.853-8.0166-1.8213-9.2676,3.9907-17.7417,7.856-33.3442,15.2749-46.269.2046-.7383.686-.7334.6846-.731-.002-.0034-.2051.8657-.2036,1.064-.0015,1.0469-.0415,1.9219-.145,2.7065-4.4697,13.4648-5.8203,28.6592-6.2988,44.9692Z"/><path class="cls-38" d="m653.5435,784.798c-.6045-1.2593-1.2041-2.5581-1.7451-3.8252-8.3906-16.6724-19.748-32.9634-31.3311-48.5171-.6543-1.0327-1.8145-3.0366-1.4565-2.8921.1631.0649.6611.3813.9565.6313.1255.1016.5249.4062,1.5981,1.8516,7.8823,8.502,15.7944,17.4033,22.9512,26.6519,7.1421,9.7524,13.1206,17.8745,13.5835,19.1948,5.8169,15.1138,12.4585,40.4849,11.792,63.4922.4126,23.1519-10.7759,43.9575-19.6172,53.1978-.6738.8364-3.832,4.021-3.9717,3.9507-.0625-.0444-.1357-.0845-.2002-.1318-.1084-.0649.3789-.7524,1.1323-1.6421,29.9751-35.2925,21.0239-73.9907,6.3081-111.9619Z"/><path class="cls-38" d="m632.2857,795.6227c.6177-1.9312-34.5483-45.3647-36.0547-45.8237-.0015-.021-6.8862-5.9077-11.1021-11.8457-1.8794-2.6494-5.8159-7.6328-5.7368-7.6714.1138-.0972,3.7153,4.1538,4.0791,4.5469,1.5791,1.7349,4.292,4.6831,5.4761,6.1211,8.3555,7.3389,17.083,15.1816,25.5771,23.4702,8.3174,9.9341,23.9678,35.938,24.0264,37.355-.4604-.0933,10.8286,21.1616,11.2573,44.5957,2.3281,23.5303-15.0098,48.7109-27.8247,58.6641-.9219.9087-5.1504,4.4155-5.2402,4.3887-.0337-.0117-.0591-.0293-.0864-.0425-.0474-.0239.7241-.7075,1.8027-1.6567,42.5435-35.5767,33.3218-74.5737,13.8262-112.1016Z"/><path class="cls-38" d="m549.8394,789.6632c-.689-1.3662-6.3628-21.5635-6.6201-22.8516-.2026-.0566-2.2124-21.5342-1.5356-31.2051.0186-1.6353.7139-3.0542.7109-3.0527-.0029-.001.4717.9375.5278,1.251.0859.4736.1738,1.042.1909,2.0034-.9907,14.1387,13.2319,50.2012,13.5137,50.2148.6118,1.313,1.1997,2.6763,1.7139,3.9893,13.1587,32.6211,27.8286,65.4678,16.564,98.1797-.1396.9785-5.4932,9.8096-5.9131,9.8467.0166,0-1.2354-2.0791-1.0435-2.8315.3462-.1792,3.0083-10.8608,2.8857-11.8447,6.7568-31.0625-7.958-62.3965-20.9946-93.6992Z"/><path class="cls-38" d="m598.0322,789.4991c-.6685-1.3506-20.1401-25.5967-21.0342-26.6572-5.8979-9.8052-11.6899-19.5835-16.5483-29.2983-.625-1.0059-2.0898-3.9961-1.8511-3.8247.1099.0854.4536.4224.6719.687.0957.1084.377.4258,1.3218,1.8501-.3457-.0669,13.9014,20.0913,22.2407,30.4502.918,1.1196,14.4551,14.9624,15.2744,16.2861,9.272,13.6309,30.4526,44.4736,31.8647,72.0352,3.7793,27.5396-20.3438,51.8032-20.6006,51.6973-.8081.9609-6.1362,5.9971-6.3125,5.978.8809-1.1416,1.71-2.2842,2.4878-3.4248.3667-.02,9.6743-11.0112,9.8677-11.9707,24.041-35.3813,6.0762-70.4526-17.3823-103.8081Z"/><path class="cls-32" d="m513.7178,785.2701c.1909,1.207.3579,2.4482.5049,3.647,2.731,35.6479,20.1606,73.6831,24.3584,106.5464.0835.9502-.0659,2.6299-.0674,2.6323.2954.1191-3.7095-12.0098-4.1104-12.3838-.0605-.1084.0176-.3115-.3628-1.7109-.1499.168-3.4077-16.3359-9.4067-36.2432-6.0044-19.8184-12.1646-43.0391-13.9595-54.2817-.3394-1.2295-1.645-7.7988-1.7085-9.0249.5244-17.9902,1.9609-34.6924,7.3101-49.2964.1938-.772.4565-.8901.4624-.8921-.001.0059.0098,1.0195-.0088,1.21-.1089,1.0098-.3159,2.0244-.4424,2.8242-3.5405,14.4106-3.6616,30.3003-2.5693,46.9731Z"/><path class="cls-32" d="m659.6187,784.92c-.543-1.293-1.1006-2.6299-1.6318-3.9258-9.6035-17.1685-22.8506-33.5562-36.2827-48.8115-.6743-1.0312-2.7173-2.6348-2.7197-2.6367.5039.2104,1.0078.4233,1.5146.6387.0024.001.4712.5127,1.7783,1.7856,9.2671,8.3423,18.6167,17.2446,27.0381,26.6704,6.3716,10.1035,11.106,18.4941,11.5977,19.8164,5.9941,15.2007,11.3477,40.772,10.0137,63.5967-.3286,23.0225-12.0229,43.29-20.6904,52.5967-.6562.8413-3.71,4.0962-3.8003,4.0503-.0386-.022-.0757-.0503-.1045-.0674-.0532-.0352.4771-.6855,1.2407-1.5762,31.0869-34.4165,23.667-73.1392,12.0464-112.1372Z"/><path class="cls-32" d="m618.9317,770.3951c-.8086-1.4946-19.5518-20.2739-20.521-21.2495-.0044-.0371-8.5767-5.3975-12.896-11.2554-1.9336-2.6279-5.874-7.6045-5.8105-7.6309.0659-.0815,3.6313,4.2036,3.9805,4.5981,1.5371,1.7573,4.3135,3.9478,5.4829,5.3862,8.5454,7.2344,17.4937,14.9873,26.2051,23.2251,8.2793,9.9775,24.0322,36.0703,24.1016,37.4961-.4604-.0996,10.6685,21.5059,10.9097,45.1406,2.168,23.7549-15.5312,48.9893-28.3027,58.9468-.9175.9053-5.1118,4.4268-5.1899,4.4062-.0234-.0103-.04-.0161-.0625-.0293-.0308-.0161.7524-.7007,1.832-1.6436,51.832-43.3179,28.832-92.0933.271-137.3906Z"/><path class="cls-32" d="m558.1328,791.0289c-.687-1.3315-8.2397-21.3892-8.5332-22.688-.2378-.019-6.4038-21.7192-6.8579-31.5806-.1709-1.6587.1816-3.1206.1831-3.1216-.0029.0005.2324.895.2822,1.2129.0757.4712.1587,1.0405.2656,2.0112.4224,14.3325,15.4917,50.2964,15.7554,50.3057.5864,1.3159,1.1694,2.6626,1.7246,3.9746,12.4224,32.1606,25.9282,64.6313,13.979,97.1045-.103.9727-5.8579,10.083-6.1392,10.0986.0161-.0015,1.314-2.6177,1.5835-3.3735.3691-.1895,4.3232-10.9551,4.23-11.9355,8.3267-30.7251-4.5532-61.4849-16.4731-92.0083Z"/><path class="cls-32" d="m596.6021,790.1471c-.6108-1.3237-19.1108-25.7935-20.0342-26.8804-5.7363-9.9175-11.3779-19.8335-16.0869-29.6982-.6436-.998-2.0693-4-1.8955-3.7954.0781.1011.2627.4966.4604.772.0786.1143.1606.5156,1.0898,1.9473-.3521-.0059,11.1304,21.3945,19.1699,31.627.8936,1.1401,12.5146,15.3022,13.335,16.5771,9.3994,13.3262,30.9072,42.5928,33.8613,69.1079,5.1475,26.418-15.5107,50.0811-15.7466,49.9585-.7588.9624-5.2666,5.5728-5.3706,5.5708.8516-.9595,1.6611-1.9155,2.4395-2.8726.4072-.001,9.2539-11.0225,9.4141-11.981,20.687-34.4434,2.605-68.3174-20.6362-100.333Z"/><path class="cls-32" d="m603.3765,786.318c-.6841-1.3838-21.6489-24.8262-22.5034-25.8267-6.9531-9.1108-13.7031-18.0591-19.6128-26.8301-.6348-.9761-2.2686-3.8032-2.0933-3.6055.0762.0952.3555.4487.5405.7222.0815.1084.311.4385,1.2217,1.834-.3174-.0986,14.75,18.4707,22.6812,28.6953.8525,1.0894,15.0752,13.856,15.9175,15.1694,9.3164,13.3154,30.3174,44.5498,31.9658,72.314,3.9863,27.7871-19.8076,52.1025-20.0776,51.9946-.6689.9399-7.1416,7.1929-7.3145,7.1821,1.5635-1.5156,3.0303-3.0371,4.416-4.5542.3867-.0054,9.1582-10.7319,9.3389-11.6675,24.5981-35.3154,7.7515-70.9326-14.48-105.4277Z"/></g></g></g></svg>