<?xml version="1.0" encoding="UTF-8"?><svg id="Layer_2" xmlns="http://www.w3.org/2000/svg" viewBox="0 0 1221.5601 660.8395"><defs><style>.cls-1{fill:#be705f;}.cls-2{fill:#669555;}.cls-3{fill:#578940;}.cls-4{fill:#4d6394;}.cls-5{fill:#415288;}.cls-6{fill:#5f78a3;}.cls-7{fill:#79a262;}.cls-8{fill:#9b5440;}.cls-9{fill:#b5604d;}</style></defs><g id="Layer_4"><rect class="cls-8" x="517.3697" y="24.7344" width="51.4712" height="34.0791" rx="5.3665" ry="5.3665" transform="translate(448.9619 -494.7383) rotate(75.6491)"/><rect class="cls-8" x="537.8363" y="104.7311" width="51.4712" height="34.0791" rx="5.3665" ry="5.3665" transform="translate(541.8561 -454.3976) rotate(75.6491)"/><rect class="cls-8" x="558.3029" y="184.7278" width="51.4712" height="34.0791" rx="5.3665" ry="5.3665" transform="translate(634.7502 -414.0568) rotate(75.6491)"/><rect class="cls-8" x="578.7695" y="264.7244" width="51.4712" height="34.0791" rx="5.3665" ry="5.3665" transform="translate(727.6444 -373.7161) rotate(75.6491)"/><rect class="cls-9" x="500.7353" y="29.117" width="51.4712" height="34.0791" transform="translate(440.6963 -475.3267) rotate(75.6491)"/><rect class="cls-9" x="521.1715" y="108.9947" width="51.4712" height="34.0791" transform="translate(533.4523 -435.0459) rotate(75.6491)"/><rect class="cls-9" x="541.6381" y="188.9913" width="51.4712" height="34.0791" transform="translate(626.3465 -394.7052) rotate(75.6491)"/><rect class="cls-9" x="562.1047" y="268.988" width="51.4712" height="34.0791" transform="translate(719.2407 -354.3644) rotate(75.6491)"/><rect class="cls-1" x="351.1417" y="127.2331" width="337.1318" height="95.9206" transform="translate(560.6197 -371.7207) rotate(75.6491)"/><rect class="cls-3" x="742.0717" y="533.5733" width="51.4712" height="34.0791" rx="5.3665" ry="5.3665" transform="translate(-88.2012 150.6729) rotate(-10.6025)"/><rect class="cls-3" x="823.2353" y="518.3803" width="51.4712" height="34.0791" rx="5.3665" ry="5.3665" transform="translate(-84.0201 165.3471) rotate(-10.6025)"/><rect class="cls-3" x="904.3988" y="503.1872" width="51.4712" height="34.0791" rx="5.3665" ry="5.3665" transform="translate(-79.839 180.0214) rotate(-10.6025)"/><rect class="cls-3" x="985.5623" y="487.9942" width="51.4712" height="34.0791" rx="5.3665" ry="5.3665" transform="translate(-75.6578 194.6957) rotate(-10.6025)"/><rect class="cls-2" x="745.3575" y="550.4586" width="51.4712" height="34.0791" transform="translate(-91.2519 151.5657) rotate(-10.6025)"/><rect class="cls-2" x="826.4003" y="535.2882" width="51.4712" height="34.0791" transform="translate(-87.077 166.2181) rotate(-10.6025)"/><rect class="cls-2" x="907.5638" y="520.0951" width="51.4712" height="34.0791" transform="translate(-82.8959 180.8924) rotate(-10.6025)"/><rect class="cls-2" x="988.7273" y="504.9021" width="51.4712" height="34.0791" transform="translate(-78.7148 195.5667) rotate(-10.6025)"/><rect class="cls-7" x="730.8458" y="534.7225" width="337.1318" height="95.9206" transform="translate(-91.8551 175.4349) rotate(-10.6025)"/><rect class="cls-8" x="558.3207" y="470.3831" width="51.4712" height="34.0791" rx="5.3665" ry="5.3665" transform="translate(-79.7117 115.7848) rotate(-10.6025)"/><rect class="cls-8" x="639.4842" y="455.1901" width="51.4712" height="34.0791" rx="5.3665" ry="5.3665" transform="translate(-75.5306 130.4591) rotate(-10.6025)"/><rect class="cls-8" x="720.6477" y="439.997" width="51.4712" height="34.0791" rx="5.3665" ry="5.3665" transform="translate(-71.3494 145.1334) rotate(-10.6025)"/><rect class="cls-8" x="801.8113" y="424.804" width="51.4712" height="34.0791" rx="5.3665" ry="5.3665" transform="translate(-67.1683 159.8076) rotate(-10.6025)"/><rect class="cls-9" x="561.6064" y="487.2684" width="51.4712" height="34.0791" transform="translate(-82.7624 116.6777) rotate(-10.6025)"/><rect class="cls-9" x="642.6492" y="472.098" width="51.4712" height="34.0791" transform="translate(-78.5875 131.3301) rotate(-10.6025)"/><rect class="cls-9" x="723.8127" y="456.9049" width="51.4712" height="34.0791" transform="translate(-74.4064 146.0044) rotate(-10.6025)"/><rect class="cls-9" x="804.9763" y="441.7119" width="51.4712" height="34.0791" transform="translate(-70.2253 160.6786) rotate(-10.6025)"/><rect class="cls-1" x="547.0947" y="471.5323" width="337.1318" height="95.9206" transform="translate(-83.3655 140.5469) rotate(-10.6025)"/><rect class="cls-5" x="889.7077" y="408.4114" width="51.4712" height="34.0791" rx="5.3665" ry="5.3665" transform="translate(-62.6516 175.7002) rotate(-10.6025)"/><rect class="cls-5" x="970.8712" y="393.2184" width="51.4712" height="34.0791" rx="5.3665" ry="5.3665" transform="translate(-58.4704 190.3745) rotate(-10.6025)"/><rect class="cls-5" x="1052.0347" y="378.0253" width="51.4712" height="34.0791" rx="5.3665" ry="5.3665" transform="translate(-54.2893 205.0488) rotate(-10.6025)"/><rect class="cls-5" x="1133.1983" y="362.8323" width="51.4712" height="34.0791" rx="5.3665" ry="5.3665" transform="translate(-50.1082 219.723) rotate(-10.6025)"/><rect class="cls-4" x="892.9934" y="425.2967" width="51.4712" height="34.0791" transform="translate(-65.7023 176.5931) rotate(-10.6025)"/><rect class="cls-4" x="974.0362" y="410.1263" width="51.4712" height="34.0791" transform="translate(-61.5274 191.2455) rotate(-10.6025)"/><rect class="cls-4" x="1055.1998" y="394.9333" width="51.4712" height="34.0791" transform="translate(-57.3462 205.9198) rotate(-10.6025)"/><rect class="cls-4" x="1136.3633" y="379.7402" width="51.4712" height="34.0791" transform="translate(-53.1651 220.594) rotate(-10.6025)"/><rect class="cls-6" x="878.4817" y="409.5606" width="337.1318" height="95.9206" transform="translate(-66.3054 200.4622) rotate(-10.6025)"/><rect class="cls-5" x="244.623" y="409.503" width="51.4712" height="34.0791" rx="5.3665" ry="5.3665" transform="translate(769.3866 504.0238) rotate(131.1936)"/><rect class="cls-5" x="190.2398" y="471.6384" width="51.4712" height="34.0791" rx="5.3665" ry="5.3665" transform="translate(725.9426 648.0048) rotate(131.1936)"/><rect class="cls-5" x="135.8566" y="533.7739" width="51.4712" height="34.0791" rx="5.3665" ry="5.3665" transform="translate(682.4986 791.9857) rotate(131.1936)"/><rect class="cls-5" x="81.4734" y="595.9094" width="51.4712" height="34.0791" rx="5.3665" ry="5.3665" transform="translate(639.0546 935.9667) rotate(131.1936)"/><rect class="cls-4" x="231.5981" y="398.2663" width="51.4712" height="34.0791" transform="translate(739.328 495.1878) rotate(131.1936)"/><rect class="cls-4" x="177.2958" y="460.3094" width="51.4712" height="34.0791" transform="translate(695.9486 638.9546) rotate(131.1936)"/><rect class="cls-4" x="122.9126" y="522.4448" width="51.4712" height="34.0791" transform="translate(652.5046 782.9355) rotate(131.1936)"/><rect class="cls-4" x="68.5294" y="584.5803" width="51.4712" height="34.0791" transform="translate(609.0606 926.9164) rotate(131.1936)"/><rect class="cls-6" x="-21.4579" y="434.7735" width="337.1318" height="95.9206" transform="translate(607.2457 689.9677) rotate(131.1936)"/><rect class="cls-3" x="776.6728" y="211.1021" width="51.4712" height="34.0791" rx="5.3665" ry="5.3665" transform="translate(20.3844 518.5659) rotate(-36.2453)"/><rect class="cls-3" x="843.2675" y="162.2811" width="51.4712" height="34.0791" rx="5.3665" ry="5.3665" transform="translate(62.136 548.4924) rotate(-36.2453)"/><rect class="cls-3" x="909.8623" y="113.4602" width="51.4712" height="34.0791" rx="5.3665" ry="5.3665" transform="translate(103.8876 578.419) rotate(-36.2453)"/><rect class="cls-3" x="976.4571" y="64.6393" width="51.4712" height="34.0791" rx="5.3665" ry="5.3665" transform="translate(145.6393 608.3455) rotate(-36.2453)"/><rect class="cls-2" x="786.9422" y="224.9024" width="51.4712" height="34.0791" transform="translate(14.2122 527.3081) rotate(-36.2453)"/><rect class="cls-2" x="853.4379" y="176.1541" width="51.4712" height="34.0791" transform="translate(55.9017 557.1901) rotate(-36.2453)"/><rect class="cls-2" x="920.0327" y="127.3332" width="51.4712" height="34.0791" transform="translate(97.6534 587.1166) rotate(-36.2453)"/><rect class="cls-2" x="986.6274" y="78.5122" width="51.4712" height="34.0791" transform="translate(139.405 617.0432) rotate(-36.2453)"/><rect class="cls-7" x="766.3636" y="152.1397" width="337.1318" height="95.9206" transform="translate(62.6076 591.4919) rotate(-36.2453)"/></g></svg>