<?xml version="1.0" encoding="UTF-8"?><svg id="Layer_2" xmlns="http://www.w3.org/2000/svg" xmlns:xlink="http://www.w3.org/1999/xlink" viewBox="0 0 2925.5573 2574.2627"><defs><style>.cls-1{fill:#c2abc8;}.cls-2{fill:#c8beba;}.cls-3{clip-path:url(#clippath-2);}.cls-3,.cls-4,.cls-5,.cls-6,.cls-7{fill:none;}.cls-8{fill:#4b4b4b;}.cls-9{fill:#b154a0;}.cls-10{fill:#e4a573;}.cls-11{fill:#d4a07b;}.cls-5{clip-path:url(#clippath);}.cls-12{fill:#bd76b1;}.cls-13{fill:#2f2f2e;}.cls-14{fill:#b88cbd;}.cls-6{clip-path:url(#clippath-1);}.cls-7{opacity:.34;}.cls-15{fill:#e5dcd5;}.cls-16{fill:#d8a8ce;}</style><clipPath id="clippath"><path class="cls-4" d="m809.9072,1930.3072l-279.8098-323.7879c3.5287-1.3765,5.8201-3.2755,6.3511-5.6067,22.2402-100.7129,98.0318-165.1842,181.0834-218.2022,41.4426-26.5819,84.4039-50.5601,124.9653-73.399,40.8096-22.6213,79.2184-44.104,117.2991-60.6694,13.2781-5.839,23.4165-24.4667,19.0082-44.097-14.9557-69.9342-70.1419-162.3642-138.9034-253.0931-64.0687-84.4043-139.8113-167.3351-212.2083-234.9693-3.1351-8.5774-6.4509-17.3132-10.0383-26.2866-15.2035-38.5999-35.3388-81.5145-57.8308-126.4908-3.4853-6.9959-9.6154-9.1843-14.0984-5.2777-28.5985,25.1456-71.4106,37.8579-114.1454,50.6367-43.0816,12.4752-86.0859,25.0185-123.0692,42.8294-5.8364,2.7269-9.0244,9.5701-7.2387,15.0826,11.5891,35.438,22.2107,70.0294,37.7653,108.9362,8.0348,20.4009,17.4586,42.0163,27.8694,64.4956-21.141,22.4233-40.7256,45.8901-58.3269,70.6783-56.6121,77.1321-102.8855,159.2089-148.4346,234.8812-44.4209,76.6586-87.7385,147.244-105.1839,230.4865-8.4421,41.8667-9.8265,87.4126-1.9739,138.1783,5.2243,34.7585,14.8183,71.9861,27.4626,110.4093l7.1868,397.7679c.1856,10.2396,5.2961,19.0752,11.3542,19.4683l410.0998,26.6116c6.0582.3929,7.7096-8.0041,3.7344-18.4891l-59.5291-157.0179c-2.1684-5.7202,5.9768-9.4681,8.9103-4.0996l90.5332,165.6828c5.593,10.2359,13.2425,17.295,16.9065,15.5185l248.042-120.2342c3.6647-1.7758.1047-10.8176-7.781-19.9427Z"/></clipPath><clipPath id="clippath-1"><path class="cls-4" d="m916.2963,2359.5039l-152.4193-416.9386c-28.7416-78.6219,17.43-147.7193,94.0714-147.7765l58.8897-.0439c60.0222-.0448,115.5395,51.7156,128.8447,111.7438l74.9985,338.3647c8.8021,39.7115-13.106,89.9322-51.3151,115.2285l-36.3484,24.0645c-45.6975,30.2541-99.8324,21.558-116.7217-24.6423Z"/></clipPath><clipPath id="clippath-2"><path class="cls-4" d="m1756.3738,2126.2057l-281.9188-311.1621c-55.5705-61.3348-35.188-115.9216,34.5769-115.9134l50.2954.0059c48.5589.0057,108.0675,35.612,137.5595,76.7967l165.1239,230.5902c19.2561,26.8905,22.2111,66.1454,5.5867,91.0755l-16.4147,24.6156c-21.5185,32.2693-64.8305,37.0796-94.8089,3.9917Z"/></clipPath></defs><g id="Layer_4"><path class="cls-11" d="m893.2965,460.5166v.0002c20.5643,42.7613,74.4226,62.6453,122.6314,42.9852l99.5322-40.5905c6.96-2.8384,10.3625-10.0469,7.5021-15.9949l-75.6533-157.3134c-2.8604-5.9479-10.6158-7.7906-17.1783-4.1258l-93.849,52.408c-45.456,25.384-63.5493,79.87-42.9851,122.6313Z"/><path class="cls-11" d="m916.2257,272.5978l-2.7301,83.7688c-.4228,12.9737,8.0975,23.8801,18.955,23.5919l40.6423-1.079c10.8575-.2883,18.3519-11.6199,16.7345-24.5394l-10.4429-83.419c-1.0557-8.4333-8.6255-14.8943-16.8615-14.6756l-30.8295.8185c-8.236.2187-15.1919,7.0653-15.4679,15.5339Z"/><path class="cls-10" d="m962.8709,314.7983l14.9555-45.5623c2.3162-7.0565-2.9935-13.0897-11.9145-13.0565l-33.3934.1242c-8.921.0332-16.7696,6.1153-17.4095,13.1656l-4.132,45.522c-.4177,4.6021,4.7901,8.2049,11.5571,8.1797l25.3308-.0942c6.7671-.0252,13.4942-3.6724,15.0061-8.2785Z"/><rect class="cls-10" x="-69.0045" y="2023.9984" width="779.0133" height="325.8557" rx="162.9277" ry="162.9277" transform="translate(2441.8297 1566.1707) rotate(82.0267)"/><path class="cls-11" d="m902.5203,1033.339l-175.5562-239.7336c-3.8452-5.2509-3.1097-12.5567,1.705-16.9358l275.3759-250.4568c5.0862-4.626,5.5794-12.4551,1.1139-17.6827l-87.9002-102.9018c-4.4655-5.2277-12.2755-5.9641-17.6395-1.6633l-353.7541,283.6353c-16.6255,13.3299-29.0832,29.7742-36.9329,47.2925-16.836,32.1117-15.1512,72.3543,7.7155,103.5801l227.584,310.7808c32.0087,43.7103,93.391,53.1961,137.1012,21.1871v-.0002c43.7108-32.0087,53.1967-93.3913,21.1875-137.1016Z"/><path class="cls-10" d="m591.9455,654.6089l-116.0828-273.5268c-2.5426-5.9911-.1559-12.9351,5.5327-16.0971l325.3528-180.8481c6.0093-3.3403,8.2797-10.8492,5.128-16.9595l-62.0398-120.276c-3.1518-6.1103-10.5864-8.6132-16.7918-5.653l-409.2413,195.2242c-19.2332,9.1748-35.1212,22.3346-46.7689,37.5937-23.733,27.4108-31.2955,66.9723-16.1754,102.5999l150.4851,354.589c21.165,49.8717,78.7516,73.1429,128.6234,51.9776l.0002-.0002c49.8721-21.165,73.1434-78.7518,51.9779-128.6237Z"/><path class="cls-11" d="m700.5005,1821.9913l207.4787,283.7404c4.5444,6.2148,13.0452,8.0001,19.7058,4.1385l380.9486-220.8611c7.0362-4.0793,16.0402-1.8335,20.3364,5.0724l84.5672,135.9365c4.2962,6.9059,2.3315,15.9754-4.4374,20.4844l-446.4083,297.3609c-20.9798,13.9752-43.9795,22.1366-66.5412,24.7179-42.2321,7.4909-87.0038-8.8106-114.0284-45.7686l-268.9668-367.8296c-37.8294-51.7337-26.5574-124.3389,25.1766-162.1681h.0003c51.7339-37.8298,124.3393-26.5579,162.1686,25.1764Z"/><path class="cls-10" d="m750.0317,852.6051h132.1021c6.623,0,12,5.377,12,12v66.0511c0,43.0775-34.9735,78.051-78.051,78.051h-.0002c-43.0775,0-78.051-34.9735-78.051-78.051v-66.0511c0-6.623,5.377-12,12-12Z" transform="translate(814.6535 -307.1281) rotate(41.181)"/><path class="cls-12" d="m809.9073,1930.3072l-310.2764-359.043c-3.276-3.7912-7.8243-5.942-10.1408-4.8188l-168.0235-59.9577c-1.9313-1.8007-4.2582-3.0178-6.3884-3.1561l-227.8951,109.3643c-3.8302-.2485-6.9019,2.9927-6.8253,7.2462l7.2792,402.8674c.1852,10.2393,5.63,21.491,11.3539,19.468,106.8171-37.7533,307.5747,19.96,410.0998,26.6116,6.0582.393,7.7096-8.0041,3.7344-18.4891l-59.5288-157.0175c-2.1688-5.7205,5.9766-9.4683,8.9101-4.0997l90.533,165.6826c5.5934,10.2362,13.2425,17.295,16.9068,15.5188l248.042-120.2342c3.6643-1.7762.1047-10.8176-7.781-19.9427Z"/><path class="cls-10" d="m738.4779,437.4128h543.0559c6.623,0,12,5.377,12,12v247.6297c0,156.4832-127.0445,283.5277-283.5277,283.5277h-.0006c-156.4832,0-283.5277-127.0445-283.5277-283.5277v-247.6297c0-6.623,5.377-12,12-12Z" transform="translate(1183.2728 -512.7938) rotate(63.0039)"/><rect class="cls-11" x="1012.3357" y="277.3908" width="76.8795" height="44.9002" rx="12" ry="12" transform="translate(-16.2892 535.2269) rotate(-28.366)"/><rect class="cls-11" x="1047.5899" y="311.0276" width="76.8795" height="48.7054" rx="12" ry="12" transform="translate(-28.9411 556.2434) rotate(-28.366)"/><rect class="cls-11" x="897.4794" y="165.8622" width="76.8795" height="48.7054" rx="12" ry="12" transform="translate(76.751 607.2957) rotate(-37.3824)"/><rect class="cls-10" x="1031.7138" y="265.0367" width="56.4104" height="48.7054" rx="12" ry="12" transform="translate(-34.5418 385.9819) rotate(-20.3149)"/><rect class="cls-10" x="1052.8799" y="308.8515" width="70.4029" height="45.8349" rx="12" ry="12" transform="translate(-32.0398 530.0623) rotate(-26.9961)"/><rect class="cls-11" x="909.8024" y="115.3164" width="76.8795" height="48.7054" rx="12" ry="12" transform="translate(109.97 604.3953) rotate(-37.3824)"/><rect class="cls-11" x="893.1077" y="65.2716" width="76.8795" height="48.7054" rx="12" ry="12" transform="translate(136.9247 583.9804) rotate(-37.3824)"/><rect class="cls-11" x="879.0121" y="15.445" width="76.8795" height="48.7054" rx="12" ry="12" transform="translate(164.2808 565.1881) rotate(-37.3824)"/><path class="cls-16" d="m978.8045,1204.545c-14.9557-69.9342-70.1419-162.3642-138.9034-253.0931-64.0687-84.4043-139.8113-167.3351-212.2083-234.9693-3.1351-8.5774-6.4509-17.3132-10.0383-26.2866-15.2035-38.5999-35.3388-81.5145-57.8308-126.4908-3.4853-6.9959-9.6154-9.1843-14.0984-5.2777-28.5985,25.1456-71.4106,37.8579-114.1454,50.6367-43.0816,12.4752-86.0859,25.0185-123.0692,42.8294-5.8364,2.7269-9.0244,9.5701-7.2387,15.0826,11.5891,35.438,22.2107,70.0294,37.7653,108.9362,8.0348,20.4009,17.4586,42.0163,27.8694,64.4956-21.141,22.4233-40.7256,45.8901-58.3269,70.6783-56.6121,77.1321-106.403,128.6333-164.7602,209.0797-52.0242,71.7163-119.2121,162.2937-136.6575,245.5362-8.4421,41.8667-9.8265,87.4126-1.9739,138.1783,7.5966,50.5416,24.4313,106.3028,46.4503,163.3705,6.1563,15.5795,16.501,17.9012,24.1406,6.8365,66.5363-96.485,267.4942-88.4945,425.5717-65.8747,18.0362,2.4548,33.5948-.7014,35.0977-7.3003,22.2401-100.7128,98.0318-165.1841,181.0834-218.2023,41.4426-26.5819,84.4039-50.56,124.9652-73.3989,40.8096-22.6213,79.2184-44.104,117.2991-60.6694,13.2781-5.839,23.4165-24.4667,19.0082-44.097Z"/><path class="cls-10" d="m700.1575,119.6545v-.0002c-5.1385-47.1701,30.0781-92.512,81.3951-101.2966L887.5021.221c7.4087-1.2682,14.1067,3.0535,14.8214,9.6147l18.9036,173.5327c.7147,6.5612-4.8956,12.2237-12.4036,12.5804l-107.3695,5.1009c-52.0047,2.4706-96.158-34.2251-101.2965-81.3952Z"/><rect class="cls-10" x="881.626" y=".1019" width="76.8795" height="44.9002" rx="12" ry="12" transform="translate(.0759 -2.9076) rotate(.1811)"/><rect class="cls-10" x="895.6105" y="46.2654" width="76.8795" height="48.7054" rx="12" ry="12" transform="translate(.2278 -2.9516) rotate(.1811)"/><rect class="cls-10" x="899.5957" y="147.1278" width="76.8795" height="48.7054" rx="12" ry="12" transform="translate(.5466 -2.9637) rotate(.1811)"/><path class="cls-10" d="m818.9277,267.0751l-46.5846-69.6745c-7.2148-10.7909-5.7448-24.5526,3.6253-30.0454l35.0743-20.561c9.37-5.4928,21.7206.167,27.1748,11.99l35.2164,76.3387c3.5602,7.7175.5479,17.2029-6.5597,21.3695l-26.6058,15.5967c-7.1077,4.1666-16.6311,2.0298-21.3405-5.014Z"/><path class="cls-10" d="m893.9164,281.1942l-61.0906-4.513c-9.4615-.6989-15.0578-8.1547-11.9662-16.5336l11.5725-31.3643c3.0916-8.3789,13.2479-13.2819,22.1284-11.0085l57.3398,14.6787c5.7968,1.4839,8.4421,7.8526,6.097,14.2085l-8.7784,23.7916c-2.3451,6.3559-9.1265,11.1969-15.3025,10.7407Z"/><g class="cls-7"><g class="cls-5"><path class="cls-9" d="m898.8624,744.6471c-2.5254,0-15.6699,37.8172-48.7349,97.7034-32.1909,59.8862-84.3013,141.8415-144.7339,230.1175-118.2749,176.552-274.813,378.387-256.9487,479.5193,8.936,50.5662,35.6353,115.4131,77.3369,184.2398,41.3823,68.827,97.7671,141.6337,158.7544,208.1197,60.6709,66.486,125.9434,126.6512,177.793,170.1948,51.5347,43.5436,89.646,70.466,88.6719,70.4659-13.3853-304.7035,180.4312-609.4071,318.4521-914.1106-88.313-175.4166-195.1157-350.8333-370.5908-526.2499Z"/></g></g><rect class="cls-10" x="900.9504" y="96.5316" width="87.9111" height="48.7054" rx="12" ry="12" transform="translate(.3868 -2.9856) rotate(.1811)"/><rect class="cls-10" x="433.3004" y="1889.6219" width="229.5387" height="738.2059" rx="114.7692" ry="114.7692" transform="translate(1622.8097 197.8628) rotate(41.181)"/><path class="cls-1" d="m780.9875,2202.9405c-105.9251-33.1142-73.8725-151.0661-140.4275-231.1764,63.6371-95.0069,140.7471-176.9181,217.3885-176.9753l58.8897-.0439c60.0222-.0448,115.5395,51.7156,128.8447,111.7438l74.9985,338.3647c8.8021,39.7115-13.106,89.9322-51.3151,115.2285l-36.3484,24.0645c-152.9411,87.8938-162.7078-153.2818-252.0306-181.2058Z"/><path class="cls-15" d="m916.2963,2359.5039l-152.4193-416.9386c-28.7416-78.6219,17.43-147.7193,94.0714-147.7765l58.8897-.0439c60.0222-.0448,115.5395,51.7156,128.8447,111.7438l74.9985,338.3647c8.8021,39.7115-13.106,89.9322-51.3151,115.2285l-36.3484,24.0645c-45.6975,30.2541-99.8324,21.558-116.7217-24.6423Z"/><g class="cls-6"><rect class="cls-2" x="869.6303" y="1566.7982" width="34.0204" height="630.0852" transform="translate(2710.2519 880.8924) rotate(86.4661)"/><rect class="cls-2" x="885.5887" y="1640.6578" width="34.0204" height="630.0852" transform="translate(2798.9458 934.2714) rotate(86.4661)"/><rect class="cls-2" x="929.2497" y="1711.2255" width="34.0204" height="630.0852" transform="translate(2910.349 956.9114) rotate(86.4661)"/><rect class="cls-2" x="945.2081" y="1785.0851" width="34.0204" height="630.0852" transform="translate(2999.0429 1010.2903) rotate(86.4661)"/><rect class="cls-2" x="968.9262" y="1854.2375" width="34.0204" height="630.0852" transform="translate(3090.3201 1051.5073) rotate(86.4661)"/><rect class="cls-2" x="984.8846" y="1928.0971" width="34.0204" height="630.0852" transform="translate(3179.014 1104.8862) rotate(86.4661)"/><rect class="cls-2" x="972.3626" y="2002.1575" width="34.0204" height="630.0852" transform="translate(3241.1834 1186.8799) rotate(86.4661)"/></g><path class="cls-14" d="m1486.3823,2047.8865c-153.5077,45.7427-114.4484-103.4992-177.7488-158.8775,64.9799-106.1508,67.5003-149.104,173.1503-186.5541l67.8891-.0926c60.6523-9.7309,124.605,32.2057,147.151,89.0845l166.1239,234.6093c14.9153,37.628.3876,90.5461-34.3923,121.5866l-33.0862,29.5289c-129.7002,64.491-157.1348-160.3454-309.0872-129.2851Z"/><path class="cls-15" d="m1756.3738,2126.2057l-281.9188-311.1621c-55.5705-61.3348-35.188-115.9216,34.5769-115.9134l50.2954.0059c48.5589.0057,108.0675,35.612,137.5595,76.7967l165.1239,230.5902c19.2561,26.8905,22.2111,66.1454,5.5867,91.0755l-16.4147,24.6156c-21.5185,32.2693-64.8305,37.0796-94.8089,3.9917Z"/><g class="cls-3"><polygon class="cls-2" points="1250.895 1776.1509 1265.8755 1805.6879 1795.6608 1753.5932 1783.6587 1731.7517 1250.895 1776.1509"/><polygon class="cls-2" points="1296.6107 1839.6994 1311.6734 1869.339 1829.1226 1800.8885 1817.0769 1778.9904 1296.6107 1839.6994"/><polygon class="cls-2" points="1371.2963 1897.2148 1386.2747 1926.4913 1878.3554 1844.333 1866.3772 1822.6329 1371.2963 1897.2148"/><polygon class="cls-2" points="1416.0395 1959.4726 1431.0965 1988.8474 1911.2906 1890.9099 1899.2702 1869.1549 1416.0395 1959.4726"/><polygon class="cls-2" points="1466.8187 2016.1331 1481.8978 2045.4581 1947.1073 1933.6177 1935.0814 1911.8889 1466.8187 2016.1331"/><polygon class="cls-2" points="1511.1141 2077.7863 1526.2702 2107.2075 1979.7973 1979.8557 1967.7299 1958.0728 1511.1141 2077.7863"/><polygon class="cls-2" points="1527.3098 2146.1901 1542.7149 2176.1767 1996.7864 2029.8611 1984.5649 2007.7683 1527.3098 2146.1901"/></g><path class="cls-13" d="m1187.3367,158.0514c109.7635,224.0803,265.9904,392.8273,438.7788,499.7145,169.8937,107.7396,356.3489,153.617,459.7065,151.6135,215.9165,2.5495,481.2973,86.2405,575.164,151.093,162.233,112.0868,263.8312,325.7629,264.5713,327.5785-1.2546-.2253-156.8112-123.6886-254.8251-148.0252-155.9061-38.711-173.0693,57.1374-415.6043,94.0653-153.0951,23.31-219.5281-85.3833-403.5073-130.5993-184.5944-43.8959-441.023,46.267-574.5814-101.2315-72.9539-80.2079-119.1164-192.6129-149.5421-322.721-28.9885-129.0581-42.2406-275.8214-16.1756-400.4819,9.2017-44.487,49.0215-174.4804,76.0153-121.0059Z"/><path class="cls-13" d="m1548.6888,347.7226c-15.9596,66.4743-92.8417,75.2523-126.0041,68.2993-68.4867-13.9886-89.953,27.8892-90.267,27.9676.871.2978,68.845,153.6737,173.424,81.2308,27.6312-18.8453,53.5255-38.3646,61.103-90.3112,6.5253-44.8089-16.4944-94.7467-18.2559-87.1866Z"/><path class="cls-13" d="m1582.3861,629.1361c283.5206,164.4842,442.0215,39.8722,548.9451,19.3142,149.2286-28.6918,384.2896-26.9804,385.6224-27.0696-3.5017.6261-236.4301,232.056-688.8678,140.7807-108.5555-21.9001-236.7104-3.1445-287.8912-37.7564-44.1029-29.8612,32.009-99.9981,42.1915-95.269Z"/><path class="cls-13" d="m1097.3028,735.5983c32.081,66.3168-41.3018,171.4195-80.8141,209.3629-81.3293,78.6155-72.9648,135.0982-73.2334,135.5568,1.1221-.9174,183.9267,17.0657,239.4683-167.5434,14.8908-48.5731,27.4854-95.3723-2.6648-140.8896-26.0189-39.2489-86.4602-43.9599-82.756-36.4867Z"/><path class="cls-13" d="m1180.2439,1156.1385c-44.5591-64.5873,10.1508-147.1498,43.0375-174.8807,67.597-57.5417,48.7731-109.5297,48.9597-109.8981-.9634.6439-188.6977-44.6191-210.7896,112.0898-6.0922,41.188-10.194,81.1512,28.5929,126.7773,33.4664,39.3461,95.3105,53.2042,90.1994,45.9117Z"/><path class="cls-13" d="m2466.5424,1259.4201c-170.2439,77.2469-449.7164-118.0575-551.6219-221.866-211.098-213.7095-357.5708-196.4088-358.7861-197.1289,2.4767,2.9364-30.1492,469.1858,455.0299,624.6195,127.6786,41.6053,250.5581,77.2093,366.7746,3.3934,100.2103-63.7036,107.7812-217.9505,88.6034-209.018Z"/><path class="cls-13" d="m1263.6778,1154.1677c-26.1601-43.0985,16.8026-132.2922,41.161-166.6816,50.1038-71.1617,40.7074-111.0571,40.8597-111.4376-.7023.8595-126.1158,18.4484-151.7287,162.7796-6.9274,38.022-12.4109,74.3609,11.0702,102.5747,20.2616,24.325,61.6462,17.6065,58.6378,12.7648Z"/><path class="cls-13" d="m1406.454,192.7642c-59.5254,51.125-27.6217,144.8901-2.8726,180.0757,50.7326,72.8465,19.3011,118.3344,19.3879,118.7382-.7679-.8678-193.8403-4.8584-175.3348-162.0312,4.5875-41.3826,10.7882-81.0743,59.9072-115.3307,42.3757-29.5367,105.7105-27.2041,98.9122-21.452Z"/><path class="cls-13" d="m1034.0097,303.0561c-3.4388,50.2992,75.695,109.7899,113.1286,129.1468,77.1937,40.1934,87.1738,79.9468,87.4839,80.2148-1.0186-.4408-120.4966,41.5462-209.5478-74.8902-23.6192-30.5908-45.1826-60.3498-37.286-96.1971,6.8233-30.914,46.6694-43.957,46.2213-38.2743Z"/><path class="cls-13" d="m1849.0019,822.3492c45.447,261.7233,172.3587,562.2976,298.8257,639.5584,162.3495,97.6812,232.1327,193.4617,257.0264,268.5483,25.5807,74.4556,6.2724,128.2182,6.3026,127.2942-.2115-1.2658-43.8798-.4816-112.8994-14.7377-68.7876-13.7771-162.9261-42.5957-258.6539-91.9661-95.9225-49.1667-193.4429-118.8893-273.5475-209.8538-80.7339-91.0435-144.0519-203.3288-186.0642-339.4275-22.2011-72.6154-23.8553-157.7718-3.4165-229.8316,20.903-72.0458,63.8985-130.9948,141.7266-150.8752,28.6471-7.1598,122.615-44.1962,130.7001,1.2909Z"/><path class="cls-13" d="m1383.7391,1342.8313c-1.1961,1.0063-3.8946-186.9381-35.094-340.8029-31.9369-153.719-92.3756-273.3594-226.088-132.3078-139.2282,143.7531-228.3223,180.7193-293.6547,179.8246-65.2849-1.8741-106.8072-41.608-149.8108-73.8107-55.9175-39.4512-90.1575-85.1006-110.3134-125.799-20.1715-39.9101-26.2581-74.8734-26.2294-74.756-.0267,1.486,26.2184,73.1291,96.6094,83.5483,71.1207,9.5517,185.6978-20.2438,378.8199-230.3867,191.707-209.9979,282.86-132.1545,325.2835,7.2861,41.6656,140.8595,44.1966,345.8115,46.1313,424.081.8771,73.8412-6.0143,283.6322-5.6539,283.1228Z"/><path class="cls-13" d="m468.004,601.7413c-.353.3219,63.6733,29.701,127.8672,33.5287,68.252,4.9651,131.873-18.2874,233.3984-107.3699,108.9072-85.4268,199.8213-98.7414,263.083-95.1827,64.9521,5.8078,110.001,28.596,164.7158,71.5802,52.3472,42.3481,69.7163,86.2689,76.5356,117.4721,6.4307,31.4567,2.6318,51.4376,2.6035,51.4763-.3813.4778-10.2505-24.164-60.2632-54.2028-25.2686-14.6705-61.6934-30.6646-113.0581-38.4846-50.8779-7.4504-117.8271-6.3315-192.1118,22.6401-146.1958,62.8142-204.6655,115.6606-259.1841,122.7191-51.0532,10.6351-95.8413-15.9941-127.5596-36.405-27.5088-19.845-115.0586-88.2504-116.0269-87.7714Z"/><path class="cls-13" d="m1139.8627,399.4234c-12.0055-48.168-6.228-129.9383,5.8787-185.792,11.9538-56.4345,30.2366-86.9512,39.7077-45.9892,20.8569,95.2875,58.3939,105.0077,111.4891,134.7649,52.0115,29.7725,119.582,79.5814,175.5184,255.4081,98.2709,325.383,140.138,534.6235,183.5073,694.3369,42.1508,160.2109,85.8031,270.894,159.4775,410.6759,47.5267,89.4599,124.8098,166.1572,217.8368,224.7575,92.7069,58.8451,201.1575,99.5926,303.6115,122.7751,102.4587,23.5393,198.927,29.5154,267.8414,27.0358,69.2493-2.0103,110.9455-12.4755,111.5704-10.9837-.9519-1.1908-61.7365,42.6359-170.4227,77.8072-107.6223,35.7514-263.1466,62.8473-428.8808,41.6451-164.2567-17.1388-338.7523-82.5893-470.5811-180.8556-133.9556-99.179-225.2452-231.1751-272.0902-402.4431-30.1912-105.4617-57.8174-281.8051-78.4396-468.8942-18.2245-185.4514-29.4432-381.6468,28.5449-488.9963,49.3534-84.5874,21.529-91.7132-49.8889-97.0676-32.9114-2.6875-112.6629-17.1134-134.6804-108.185Z"/><path class="cls-8" d="m1345.8339,600.5013c63.9161,14.573,158.2275,35.9277,171.1974,38.9119l-155.3973-83.9386c27.5681-17.2352,66.567-41.6204,68.8911-43.0595-4.6237.0012-42.9778.2357-74.7941.4232-1.822-.573-3.6047-1.1336-5.3299-1.6764,23.9071-28.4159,49.4991-58.8354,54.4288-64.6935l-84.1567,38.1085-2.8542-149.524-48.3622,148.9551c-.2769.488-.351.6192-.6205,1.0944l-7.3315-7.9322s-8.7871,7.1898-14.408,11.7888c-13.1125-9.3701-26.4048-18.8683-32.9791-23.563l4.301,44.8384c-53.79-20.7782-110.9934-42.8462-119.1238-46.0095,8.3089,5.8878,33.7766,24.0184,63.9197,45.4645-5.6685-.9875-9.0263-1.5724-9.0263-1.5724,2.4359,1.4681,14.4194,8.7487,30.3733,18.4425l-51.8707-4.54,69.5407,31.6579c.1883.1955.377.3911.5648.5862-23.7242,10.8952-43.5328,19.9958-49.0083,22.5243,7.2122-.2082,29.7662-.8322,56.4016-1.5722.3424,1.9601.6553,3.7529.6553,3.7529.8189.3108,1.7167.6517,2.6592,1.0093-37.0938,43.4303-78.0175,91.3445-81.3569,95.2879,0,0,74.2539-46.9496,122.4014-77.3924.8353-.3939,1.6833-.7975,2.5435-1.2106-.1165,4.1178-.2131,7.8026-.2826,10.8529l.0452.0037c-.0347.2342-.07.4737-.104.7028,0,0,2.2986.192,4.0405.3376,3.5481,30.2947,8.7286,72.4227,10.8312,89.8997,1.1771-6.6724,7.7652-44.3407,12.5777-71.8342,5.1916,5.5285,9.9662,10.6126,9.9662,10.6126.2472-5.0238.8971-17.9835,1.4658-29.3493,16.256,21.9837,31.2455,42.2549,31.2455,42.2549-1.1819-6.367-3.5436-19.0719-6.4283-34.5891l8.2624,6.9599-4.8681-11.6261c3.0778,1.4648,5.942,2.8335,8.4932,4.0625,0,0,.0108-.5153.0112-.5282,27.2962,15.4574,51.0408,28.8997,58.6552,33.218l-45.1694-47.1391Zm-47.9099-56.0282c3.3365,2.3193,7.3594,5.114,7.8409,5.4542-.4117.008-7.348.1732-12.2514.2896l6.2942,21.8932c-.9993-1.3266-8.3064-10.9294-13.2469-17.4499l-.8507,9.1954c-.2845-1.0982-1.1733-4.5203-2.1951-8.4549-.0014.0017-.0632.0651-.0632.0651-.121-.341-.258-.7222-.4057-1.1313l-.8637,1.8061-.0401-1.4749c-1.5284,2.1446-2.7797,3.9006-3.407,4.7802,0,0,.8275-3.6278,1.7255-7.562-1.399,1.3734-2.9944,2.9392-3.612,3.5467,0,0,.1018-.9846.2126-2.0555-3.7418,3.0693-8.8678,7.2747-9.7769,8.0189,1.8411-2.331,6.2664-7.9582,9.4679-11.9917-.1642-.1465-.3811-.3395-.3811-.3395.0304-.0262.0621-.0536.0936-.08l-.0042-.0037c.3666-.3747.811-.8265,1.3083-1.3308-.138-.0118-.2739-.0238-.4077-.0364-8.6035.2459-21.872.625-21.872.625.8129-.2451,10.7231-3.1984,19.7058-5.8754-.056-.1139-.1092-.2222-.1579-.3213,0,0,.1785-.2464.3742-.5156-2.8618-1.8689-5.2849-3.4517-6.0607-3.9568.8685.0883,4.0044.4135,7.7599.8033.0035-.038.0067-.0763.0102-.1143l-3.5125-9.062,4.868,4.3841c-.5193-2.3815-.9092-4.1703-.9904-4.5327,0,0,.2808.3202.7549.8602-.6118-4.8897-1.1281-9.0224-1.2995-10.3673.4739.9925,3.8317,7.952,6.9859,14.4996l4.8369-5.8997c.1315,1.0686.3966,3.2297.6582,5.3621,1.1273-.1588,2.8903-.4071,2.8903-.4071l-.1709,1.5276c.0839-.0394.1069-.0503.1935-.0906l22.5942-14.9873-17.3264,18.829,13.2582,1.4508c-1.204.3663-7.4553,2.2701-13.295,4.0482.1159.1945.2353.3955.3578.601Z"/></g></svg>