<?xml version="1.0" encoding="UTF-8"?><svg id="Layer_2" xmlns="http://www.w3.org/2000/svg" viewBox="0 0 4571.214 2578.592"><defs><style>.cls-1{fill:#e64142;}.cls-2,.cls-3,.cls-4,.cls-5,.cls-6,.cls-7,.cls-8,.cls-9{stroke-miterlimit:10;}.cls-2,.cls-4,.cls-10,.cls-6,.cls-7,.cls-8,.cls-9{fill:none;}.cls-2,.cls-4,.cls-6,.cls-7,.cls-8{stroke-linecap:round;}.cls-2,.cls-4,.cls-6,.cls-7,.cls-8,.cls-9{stroke-width:5px;}.cls-2,.cls-9{stroke:#7b7b7b;}.cls-3,.cls-11{fill:#e1b824;}.cls-3,.cls-5{stroke:#c65c28;stroke-width:.1px;}.cls-12{fill:#be982e;}.cls-13,.cls-5{fill:#fae64e;}.cls-4{stroke:#efa13f;}.cls-14{fill:#f09f39;}.cls-15{fill:#978dc4;}.cls-16{fill:#90572f;}.cls-17{fill:#5c903f;}.cls-18{fill:#8e3a91;}.cls-6{stroke:#c69849;}.cls-7{stroke:#61bd61;}.cls-19{fill:#6960aa;}.cls-20{fill:#ddc8b1;}.cls-21{fill:#b86fae;}.cls-8{stroke:#68be61;}</style></defs><g id="Layer_4"><path class="cls-9" d="m1865.8657,568.6404c134.8961,0,209.6086-40.4402,242.2782-64.684,12.2934-9.1228,16.2316-25.7438,9.3089-39.3977L1891.0118,17.944c-10.4405-20.592-39.8516-20.592-50.292,0l-225.5646,444.8862c-7.1525,14.107-2.7395,31.4073,10.4228,40.1777,36.1999,24.121,116.4834,65.6325,240.2879,65.6325Z"/><path class="cls-9" d="m2360.7922,702.4711c-68.8545,81.1018-167.3804,149.0662-288.1201,187.1318-120.3887,38.0659-262.9932,46.2334-411.8967,7.7415-5.8342-22.2759-10.7083-44.5166-14.6365-66.6487,141.335,43.323,277.5898,40.4343,392.7732,8.0964,115.5342-32.3389,209.9966-94.1279,275.8525-168.6057,14.5974,11.3481,29.9509,22.1343,46.0276,32.2847Z"/><path class="cls-9" d="m2475.3535,758.8693c-73.8137,97.7925-179.9446,181.4736-311.1072,234.2844-130.811,52.8101-286.6533,74.749-451.781,49.0559-10.0483-22.0879-19.1187-44.2974-27.217-66.5566,157.7122,31.9805,307.5706,16.7764,433.752-28.8513,126.533-45.6272,229.3889-121.678,301.2031-211.3909,17.7192,8.564,36.1167,16.4072,55.1501,23.4585Z"/><path class="cls-9" d="m2607.853,792.8547c-76.2437,117.6428-187.9121,220.2024-327.8872,290.918-139.6243,70.7158-307.5549,109.5874-488.2168,99.8538-14.292-21.217-27.6089-42.7136-39.948-64.4158,173.6245,17.4761,336.1626-13.2046,471.959-75.2817,136.1475-62.0769,245.5537-155.55,321.0229-263.6582,20.4587,5.0959,41.4998,9.3147,63.0701,12.584Z"/><path class="cls-9" d="m1279.3836,568.6404c134.8961,0,209.6086-40.4402,242.2782-64.684,12.2934-9.1228,16.2316-25.7438,9.3089-39.3977L1304.5296,17.944c-10.4405-20.592-39.8516-20.592-50.292,0l-225.5646,444.8862c-7.1525,14.107-2.7395,31.4073,10.4228,40.1777,36.1999,24.121,116.4834,65.6325,240.2879,65.6325Z"/><polygon class="cls-9" points="1448.7101 710.1588 1476.2066 765.8729 1537.6908 774.8071 1493.2004 818.1745 1503.7032 879.4102 1448.7101 850.4986 1393.7169 879.4102 1404.2197 818.1745 1359.7293 774.8071 1421.2135 765.8729 1448.7101 710.1588"/><polygon class="cls-9" points="1071.6922 710.1588 1099.1888 765.8729 1160.673 774.8071 1116.1826 818.1745 1126.6853 879.4102 1071.6922 850.4986 1016.6991 879.4102 1027.2018 818.1745 982.7115 774.8071 1044.1956 765.8729 1071.6922 710.1588"/><polygon class="cls-9" points="1265.9418 710.1588 1293.4384 765.8729 1354.9226 774.8071 1310.4322 818.1745 1320.9349 879.4102 1265.9418 850.4986 1210.9487 879.4102 1221.4514 818.1745 1176.961 774.8071 1238.4452 765.8729 1265.9418 710.1588"/><polygon class="cls-9" points="1448.7101 879.4102 1476.2066 935.1243 1537.6908 944.0585 1493.2004 987.4259 1503.7032 1048.6617 1448.7101 1019.7501 1393.7169 1048.6617 1404.2197 987.4259 1359.7293 944.0585 1421.2135 935.1243 1448.7101 879.4102"/><polygon class="cls-9" points="1071.6922 879.4102 1099.1888 935.1243 1160.673 944.0585 1116.1826 987.4259 1126.6853 1048.6617 1071.6922 1019.7501 1016.6991 1048.6617 1027.2018 987.4259 982.7115 944.0585 1044.1956 935.1243 1071.6922 879.4102"/><polygon class="cls-9" points="1265.9418 879.4102 1293.4384 935.1243 1354.9226 944.0585 1310.4322 987.4259 1320.9349 1048.6617 1265.9418 1019.7501 1210.9487 1048.6617 1221.4514 987.4259 1176.961 944.0585 1238.4452 935.1243 1265.9418 879.4102"/><polygon class="cls-9" points="1448.7101 1048.6617 1476.2066 1104.3758 1537.6908 1113.31 1493.2004 1156.6774 1503.7032 1217.9131 1448.7101 1189.0015 1393.7169 1217.9131 1404.2197 1156.6774 1359.7293 1113.31 1421.2135 1104.3758 1448.7101 1048.6617"/><polygon class="cls-9" points="1071.6922 1048.6617 1099.1888 1104.3758 1160.673 1113.31 1116.1826 1156.6774 1126.6853 1217.9131 1071.6922 1189.0015 1016.6991 1217.9131 1027.2018 1156.6774 982.7115 1113.31 1044.1956 1104.3758 1071.6922 1048.6617"/><polygon class="cls-9" points="1265.9418 1048.6617 1293.4384 1104.3758 1354.9226 1113.31 1310.4322 1156.6774 1320.9349 1217.9131 1265.9418 1189.0015 1210.9487 1217.9131 1221.4514 1156.6774 1176.961 1113.31 1238.4452 1104.3758 1265.9418 1048.6617"/><path class="cls-2" d="m370.8245,102.7978c-28.9443,17.0719-31.6882,22.6324-61.0944,49.7466-27.6282,23.661-30.7897.4662-51.4512,3.3635-17.6995-5.1108-12.404,24.9578-26.2437,12.4074-13.0658-11.8103-14.8-27.0105-30.4571-19.4818-16.2723,13.9839-21.1033,13.0423-41.419,52.396-20.1076,42.3765-22.3868,47.572-40.2227,89.1645-14.9974,33.8189-2.6628,27.1441-14.7756,56.8796"/><path class="cls-2" d="m370.8245,102.2816c-26.6319-.2451-27.0763-2.442-53.2538.7943-25.8013,4.5629-29.0562-8.3693-54.5407-.1453-25.018,9.4931-19.7486,26.8017-43.4691,38.2334-23.2151,12.5647-25.7828,5.6967-48.073,21.0327-21.6875,16.206-24.3674,10.4303-44.9348,29.0307-19.9467,19.3898-20.5387,18.3975-39.0699,39.5266-17.8528,21.851-11.3179,32.263-27.4416,54.8163"/><path class="cls-2" d="m370.8245,349.3431c-28.9443,17.0719-31.6882,22.6324-61.0944,49.7466-27.6282,23.661-30.7897.4662-51.4512,3.3635-17.6995-5.1108-12.404,24.9578-26.2437,12.4074-13.0658-11.8103-14.8-27.0105-30.4571-19.4818-16.2723,13.9839-21.1033,13.0423-41.419,52.396-20.1076,42.3765-22.3868,47.572-40.2227,89.1645-14.9974,33.8189-2.6628,27.1441-14.7756,56.8796"/><path class="cls-2" d="m370.8245,348.8268c-26.6319-.2451-27.0763-2.442-53.2538.7943-25.8013,4.5629-29.0562-8.3693-54.5407-.1453-25.018,9.4931-19.7486,26.8017-43.4691,38.2334-23.2151,12.5647-25.7828,5.6967-48.073,21.0327-21.6875,16.206-24.3674,10.4303-44.9348,29.0307-19.9467,19.3898-20.5387,18.3975-39.0699,39.5266-17.8528,21.851-11.3179,32.263-27.4416,54.8163"/><path class="cls-9" d="m707.9535,568.6404c-134.8961,0-209.6086-40.4402-242.2782-64.684-12.2934-9.1228-16.2316-25.7438-9.3089-39.3977L682.8075,17.944c10.4405-20.592,39.8516-20.592,50.292,0l225.5646,444.8862c7.1525,14.107,2.7395,31.4073-10.4228,40.1777-36.1999,24.121-116.4834,65.6325-240.2879,65.6325Z"/><g id="Layer_4-2"><path class="cls-9" d="m2890.8796,194.7525l392.5638,392.5637-555.1896.001c0-142.0732,54.2085-284.1474,162.6259-392.5648Z"/><path class="cls-9" d="m3283.4434,32.1684v555.1482l-392.5638-392.5641c108.4174-108.417,250.5108-162.6043,392.5638-162.5841Z"/><path class="cls-9" d="m3676.0074,194.7525l-392.5637,392.5637V32.1684c142.115.001,284.1892,54.2095,392.5637,162.5841Z"/><path class="cls-9" d="m3676.0074,194.7525c108.3968,108.3968,162.6047,250.4703,162.6057,392.5853l-555.1694-.0213,392.5638-392.5637v-.0003Z"/><path class="cls-9" d="m3929.8882,621.1575c0,142.0732-54.2085,284.1477-162.6047,392.5435l-392.5647-392.5647,555.1694.0213h0Z"/><path class="cls-9" d="m3283.4434,587.3166l392.5647,392.5648c-108.4174,108.4174-250.4916,162.6259-392.5647,162.6259v-555.1906h0Z"/><path class="cls-9" d="m3283.4434,587.3166v555.1907c-142.0948-.0212-284.1882-54.2085-392.5853-162.6057l392.5853-392.5853v.0004Z"/><path class="cls-9" d="m3283.4434,587.3166l-392.5853,392.5854c-108.3958-108.3962-162.5841-250.4909-162.6043-392.5843l555.1897-.001Z"/><path class="cls-9" d="m2914.5835,218.4578l368.8595,368.8595-521.6654.001c0-133.4943,50.9353-266.9899,152.8059-368.8605h0Z"/><path class="cls-9" d="m3283.4427,65.691v521.6263l-368.8592-368.8595c101.8706-101.8706,235.3841-152.786,368.8592-152.7667Z"/><path class="cls-9" d="m3652.3022,218.4578l-368.8595,368.8595V65.691c133.5334.001,267.0291,50.9363,368.8595,152.7667Z"/><path class="cls-9" d="m3652.3022,218.4578c101.8517,101.8517,152.786,235.346,152.7869,368.8794l-521.6465-.0199,368.8595-368.8595h0Z"/><path class="cls-9" d="m3896.3647,621.1572c0,133.4943-50.9353,266.9899-152.786,368.8403l-368.8605-368.8605,521.6465.0199v.0003Z"/><path class="cls-9" d="m3283.4427,587.3173l368.8605,368.8605c-101.8706,101.8706-235.3659,152.8059-368.8605,152.8059v-521.6664h0Z"/><path class="cls-9" d="m3283.4427,587.3173v521.6665c-133.5145-.0199-267.0281-50.9353-368.8794-152.7869l368.8794-368.8794h0Z"/><path class="cls-9" d="m3283.4427,587.3173l-368.8794,368.8794c-101.8507-101.8507-152.7667-235.3652-152.786-368.8784l521.6654-.001h0Z"/></g><path class="cls-9" d="m292.5267,791.5427c0,2.5353-42.1914,2.731-42.3526,5.2256-.1633,2.5276,57.6315,10.2412,57.3079,12.7217-.3274,2.5091-15.2885,3.6051-15.7745,6.0608-.4909,2.4798,4.6719,6.9911,4.0248,9.4109-.6525,2.4399-1.1693,5.8801-1.9751,8.2534-.8113,2.3896-19.0187-1.4225-19.9796.8937-.9663,2.3292,4.6422,7.6051,3.5305,9.8542-1.1167,2.2591-20.9384-6.0671-22.1958-3.8946-1.2617,2.1799,4.4001,7.5633,3.0028,9.6499-1.4009,2.0918-21.8207-11.3027-23.3518-9.3108-1.5336,1.9951,18.3406,19.7593,16.6824,21.6481-1.6595,1.8903,10.4001,16.7426,8.622,18.5203-1.7781,1.7776.4359,9.1602-1.4547,10.8191-1.889,1.6575-33.0571-32.9112-35.0524-31.3783-1.9921,1.5305,15.2663,28.4361,13.1745,29.8363-2.0867,1.3968-15.9125-17.0974-18.0926-15.8363-2.1726,1.2568-6.125-4.0387-8.3842-2.9226-2.2485,1.1108,14.3833,43.2191,12.0548,44.1846-2.315.9599-14.4954-23.294-16.8837-22.4835-2.3721.805-7.1476-9.4635-9.5862-8.8116-2.4192.6467,3.5408,37.0836,1.0617,37.5741-2.4529.4853-5.5857,4.6457-8.0919,4.9726-2.4801.3235-9.0865-41.8279-11.6135-41.6647-2.4939.1611-3.6073-12.2638-6.1419-12.2638s-2.9812,2.09-5.4758,1.9288c-2.5276-.1633-7.3786,33.7396-9.8592,33.416-2.5091-.3274-8.9511,18.5424-11.4067,18.0563-2.4798-.4909,6.271-48.5048,3.8511-49.152-2.4399-.6525-9.4206,17.6164-11.7939,16.8105-2.3896-.8113-10.4995,13.4552-12.8157,12.4943-2.3292-.9663-8.5689,4.6815-10.8181,3.5698-2.2591-1.1167-1.9645-8.8041-4.137-10.0615-2.1799-1.2617,17.2153-35.8662,15.1287-37.2636-2.0918-1.4009-35.7216,41.4402-37.7135,39.909-1.9951-1.5336,6.3854-17.2949,4.4965-18.9532-1.8903-1.6595,2.7407-10.4757.963-12.2538-1.7776-1.7781-12.0435,4.1218-13.7024,2.2312-1.6575-1.889,1.1598-7.9456-.3731-9.9409-1.5305-1.9921,14.6377-16.0568,13.2375-18.1487-1.3968-2.0867.8815-4.906-.3796-7.086-1.2568-2.1726-16.4642,4.1449-17.5802,1.8857-1.1108-2.2485-26.6238,6.0081-27.5892,3.6797-.9599-2.315,30.5741-17.1339,29.7636-19.5222-.805-2.3721-25.9311,2.6774-26.583.2388-.6467-2.4192,28.1096-11.4648,27.6191-13.9439-.4853-2.4529-20.423-1.1796-20.7499-3.6858-.3235-2.4801-34.4635-2.9021-34.6268-5.4291-.1611-2.4939,62.7199-7.3041,62.7199-9.8387s.7954-3.2319.9566-5.7265c.1633-2.5276,7.2151-2.2904,7.5388-4.7709.3274-2.5091-30.2608-8.7696-29.7747-11.2252.4909-2.4798-2.3485-5.5672-1.7014-7.987.6525-2.4399-2.9727-6.2866-2.1669-8.6599.8113-2.3896,37.7328,9.9193,38.6937,7.6031.9663-2.3292-55.8545-30.6598-54.7428-32.909,1.1167-2.2591,57.6976,25.4187,58.955,23.2462,1.2617-2.1799-16.4788-14.3807-15.0815-16.4673,1.4009-2.0918-16.112-17.6666-14.5808-19.6585,1.5336-1.9951,14.6197,5.2424,16.2779,3.3536,1.6595-1.8903,16.94,10.2298,18.7181,8.4521,1.7781-1.7776.1097-5.1542,2.0003-6.8131,1.889-1.6575-9.9556-19.0538-7.9603-20.5868,1.9921-1.5305,24.5246,27.511,26.6165,26.1108,2.0867-1.3968-33.646-63.5033-31.466-64.7644,2.1726-1.2568,33.4738,51.136,35.733,50.02,2.2485-1.1108-1.4301-12.2147.8984-13.1801,2.315-.9599,2.3856-5.7863,4.7739-6.5967,2.3721-.805-.9586-20.675,1.48-21.3268,2.4192-.6467,13.4279,38.3492,15.907,37.8588,2.4529-.4853,2.9771-.8888,5.4833-1.2158,2.4801-.3235,1.3962-26.5101,3.9232-26.6733,2.4939-.1611,4.8086-25.747,7.3431-25.747s3.4853,46.714,5.9798,46.8752c2.5276.1633,6.6829-24.4701,9.1635-24.1464,2.5091.3274.6688,22.7991,3.1244,23.2852,2.4798.4909,17.0661-49.8801,19.486-49.233,2.4399.6525-4.9713,36.5703-2.598,37.3761,2.3896.8113,3.2143,4.3568,5.5306,5.3178,2.3292.9663,22.6375-35.7828,24.8867-34.6711,2.2591,1.1167-9.6739,31.0553-7.5014,32.3127,2.1799,1.2617,3.0475,4.5817,5.134,5.9791,2.0918,1.4009,19.6601-17.4923,21.652-15.9611,1.9951,1.5336-2.9931,13.4013-1.1042,15.0595,1.8903,1.6595.3912,7.7919,2.1688,9.57s15.1465-6.0691,16.8054-4.1785c1.6575,1.889-25.9332,28.0099-24.4003,30.0051,1.5305,1.9921-12.2035,12.9109-10.8033,15.0028,1.3968,2.0867,56.185-29.2775,57.4461-27.0975,1.2568,2.1726-22.954,19.0592-21.8379,21.3185,1.1108,2.2485,1.543,4.7684,2.5085,7.0969.9599,2.315,21.914-2.2082,22.7245.1801.805,2.3721-18.7776,11.5906-18.1258,14.0292.6467,2.4192,17.7504,1.5205,18.2408,3.9996.4853,2.4529-41.4762,11.4989-41.1492,14.0051.3235,2.4801,61.6462-.7363,61.8095,1.7907.1611,2.4939-27.6708,7.2133-27.6708,9.7479Z"/><path class="cls-9" d="m274.5143,1086.671c0,2.5353-42.1914,2.731-42.3526,5.2256-.1633,2.5276,57.6315,10.2412,57.3079,12.7217-.3274,2.5091-15.2885,3.6051-15.7745,6.0608-.4909,2.4798,4.6719,6.9911,4.0248,9.4109-.6525,2.4399-1.1693,5.8801-1.9751,8.2534-.8113,2.3896-19.0187-1.4225-19.9796.8937-.9663,2.3292,4.6422,7.6051,3.5305,9.8542-1.1167,2.2591-20.9384-6.0671-22.1958-3.8946-1.2617,2.1799,4.4001,7.5633,3.0028,9.6499-1.4009,2.0918-21.8207-11.3027-23.3518-9.3108-1.5336,1.9951,18.3406,19.7593,16.6824,21.6481-1.6595,1.8903,10.4001,16.7426,8.622,18.5203-1.7781,1.7776.4359,9.1602-1.4547,10.8191-1.889,1.6575-33.0571-32.9112-35.0524-31.3783-1.9921,1.5305,15.2663,28.4361,13.1745,29.8363-2.0867,1.3968-15.9125-17.0974-18.0926-15.8363-2.1726,1.2568-6.125-4.0387-8.3842-2.9226-2.2485,1.1108,14.3833,43.2191,12.0548,44.1846-2.315.9599-14.4954-23.294-16.8837-22.4835-2.3721.805-7.1476-9.4635-9.5862-8.8116-2.4192.6467,3.5408,37.0836,1.0617,37.5741-2.4529.4853-5.5857,4.6457-8.0919,4.9726-2.4801.3235-9.0865-41.8279-11.6135-41.6647-2.4939.1611-3.6073-12.2638-6.1419-12.2638s-2.9812,2.09-5.4758,1.9288c-2.5276-.1633-7.3786,33.7396-9.8592,33.416-2.5091-.3274-8.9511,18.5424-11.4067,18.0563-2.4798-.4909,6.271-48.5048,3.8511-49.152-2.4399-.6525-9.4206,17.6164-11.7939,16.8105-2.3896-.8113-10.4995,13.4552-12.8157,12.4943-2.3292-.9663-8.5689,4.6815-10.8181,3.5698-2.2591-1.1167-1.9645-8.8041-4.137-10.0615-2.1799-1.2617,17.2153-35.8662,15.1287-37.2636-2.0918-1.4009-35.7216,41.4402-37.7135,39.909-1.9951-1.5336,6.3854-17.2949,4.4965-18.9532-1.8903-1.6595,2.7407-10.4757.963-12.2538-1.7776-1.7781-12.0435,4.1218-13.7024,2.2312-1.6575-1.889,1.1598-7.9456-.3731-9.9409-1.5305-1.9921,14.6377-16.0568,13.2375-18.1487-1.3968-2.0867.8815-4.906-.3796-7.086-1.2568-2.1726-16.4642,4.1449-17.5802,1.8857-1.1108-2.2485-26.6238,6.0081-27.5892,3.6797-.9599-2.315,30.5741-17.1339,29.7636-19.5222-.805-2.3721-25.9311,2.6774-26.583.2388-.6467-2.4192,28.1096-11.4648,27.6191-13.9439-.4853-2.4529-20.423-1.1796-20.7499-3.6858-.3235-2.4801-34.4635-2.9021-34.6268-5.4291-.1611-2.4939,62.7199-7.3041,62.7199-9.8387s.7954-3.2319.9566-5.7265c.1633-2.5276,7.2151-2.2904,7.5388-4.7709.3274-2.5091-30.2608-8.7696-29.7747-11.2252.4909-2.4798-2.3485-5.5672-1.7014-7.987.6525-2.4399-2.9727-6.2866-2.1669-8.6599.8113-2.3896,37.7328,9.9193,38.6937,7.6031.9663-2.3292-55.8545-30.6598-54.7428-32.909,1.1167-2.2591,57.6976,25.4187,58.955,23.2462,1.2617-2.1799-16.4788-14.3807-15.0815-16.4673,1.4009-2.0918-16.112-17.6666-14.5808-19.6585,1.5336-1.9951,14.6197,5.2424,16.2779,3.3536,1.6595-1.8903,16.94,10.2298,18.7181,8.4521,1.7781-1.7776.1097-5.1542,2.0003-6.8131,1.889-1.6575-9.9556-19.0538-7.9603-20.5868,1.9921-1.5305,24.5246,27.511,26.6165,26.1108,2.0867-1.3968-33.646-63.5033-31.466-64.7644,2.1726-1.2568,33.4738,51.136,35.733,50.02,2.2485-1.1108-1.4301-12.2147.8984-13.1801,2.315-.9599,2.3856-5.7863,4.7739-6.5967,2.3721-.805-.9586-20.675,1.48-21.3268,2.4192-.6467,13.4279,38.3492,15.907,37.8588,2.4529-.4853,2.9771-.8888,5.4833-1.2158,2.4801-.3235,1.3962-26.5101,3.9232-26.6733,2.4939-.1611,4.8086-25.747,7.3431-25.747s3.4853,46.714,5.9798,46.8752c2.5276.1633,6.6829-24.4701,9.1635-24.1464,2.5091.3274.6688,22.7991,3.1244,23.2852,2.4798.4909,17.0661-49.8801,19.486-49.233,2.4399.6525-4.9713,36.5703-2.598,37.3761,2.3896.8113,3.2143,4.3568,5.5306,5.3178,2.3292.9663,22.6375-35.7828,24.8867-34.6711,2.2591,1.1167-9.6739,31.0553-7.5014,32.3127,2.1799,1.2617,3.0475,4.5817,5.134,5.9791,2.0918,1.4009,19.6601-17.4923,21.652-15.9611,1.9951,1.5336-2.9931,13.4013-1.1042,15.0595,1.8903,1.6595.3912,7.7919,2.1688,9.57s15.1465-6.0691,16.8054-4.1785c1.6575,1.889-25.9332,28.0099-24.4003,30.0051,1.5305,1.9921-12.2035,12.9109-10.8033,15.0028,1.3968,2.0867,56.185-29.2775,57.4461-27.0975,1.2568,2.1726-22.954,19.0592-21.8379,21.3185,1.1108,2.2485,1.543,4.7684,2.5085,7.0969.9599,2.315,21.914-2.2082,22.7245.1801.805,2.3721-18.7776,11.5906-18.1258,14.0292.6467,2.4192,17.7504,1.5205,18.2408,3.9996.4853,2.4529-41.4762,11.4989-41.1492,14.0051.3235,2.4801,61.6462-.7363,61.8095,1.7907.1611,2.4939-27.6708,7.2133-27.6708,9.7479Z"/><circle class="cls-9" cx="498.2876" cy="794.7845" r="68.8696"/><circle class="cls-9" cx="659.5798" cy="793.8901" r="68.8696"/><circle class="cls-9" cx="820.872" cy="793.8901" r="68.8696"/><circle class="cls-9" cx="498.2876" cy="964.4831" r="68.8696"/><circle class="cls-9" cx="659.5798" cy="963.5887" r="68.8696"/><circle class="cls-9" cx="820.872" cy="963.5887" r="68.8696"/><circle class="cls-9" cx="498.2876" cy="1135.0762" r="68.8696"/><circle class="cls-9" cx="659.5798" cy="1134.1818" r="68.8696"/><circle class="cls-9" cx="820.872" cy="1134.1818" r="68.8696"/><circle class="cls-9" cx="4138.3385" cy="152.591" r="77.8772"/><circle class="cls-9" cx="4316.3" cy="152.591" r="77.8772"/><circle class="cls-9" cx="4490.8369" cy="152.591" r="77.8772"/><circle class="cls-9" cx="4138.3385" cy="331.0258" r="77.8772"/><circle class="cls-9" cx="4316.3" cy="331.0258" r="77.8772"/><circle class="cls-9" cx="4490.8369" cy="331.0258" r="77.8772"/><circle class="cls-9" cx="4138.3385" cy="509.4606" r="77.8772"/><circle class="cls-9" cx="4316.3" cy="509.4606" r="77.8772"/><circle class="cls-9" cx="4490.8369" cy="509.4606" r="77.8772"/><path class="cls-9" d="m4402.8811,649.1176c67.6963,67.6963,109.5635,161.2232,109.5633,264.5221h-374.1059s264.5424-264.5222,264.5424-264.5222l.0002.0002Z"/><rect class="cls-9" x="4138.3385" y="913.3342" width="374.1059" height="113.2136"/><circle class="cls-9" cx="4419.5055" cy="741.2417" r="20.4224"/><circle class="cls-9" cx="4283.3542" cy="838.5833" r="12.2236"/><circle class="cls-9" cx="4392.1741" cy="913.6397" r="44.1242"/><circle class="cls-9" cx="4169.1821" cy="920.4361" r="12.6851"/><circle class="cls-9" cx="4271.1306" cy="997.9049" r="17.2038"/><circle class="cls-9" cx="4480.6416" cy="991.565" r="6.3918"/><path class="cls-18" d="m1865.8657,1925.5719c134.8961,0,209.6086-40.4402,242.2782-64.684,12.2934-9.1228,16.2316-25.7438,9.3089-39.3977l-226.4411-446.6147c-10.4405-20.592-39.8516-20.592-50.292,0l-225.5646,444.8862c-7.1525,14.107-2.7395,31.4073,10.4228,40.1777,36.1999,24.121,116.4834,65.6325,240.2879,65.6325Z"/><path class="cls-21" d="m2359.5935,2058.0091c-68.1001,81.228-166.2207,149.3862-286.7961,187.3501-120.2122,37.9636-262.8787,45.7322-411.6965,6.1792-5.71-22.3252-10.4487-44.6089-14.2319-66.7778,141.1426,44.4065,277.3774,41.949,392.323,9.7544,115.3081-32.1943,209.3257-94.127,274.4072-168.6697,14.5793,11.3159,29.9221,22.0615,45.9944,32.1638Z"/><path class="cls-21" d="m2474.2007,2113.9468c-73.0647,98.1013-178.8489,182.1394-309.9622,234.9878-130.7505,52.8491-286.8296,74.5088-452.1101,47.8528-9.97-22.1541-18.9519-44.4275-26.9502-66.7471,157.7549,32.9966,307.7715,18.1353,433.8425-27.4565,126.4331-45.5923,228.9209-121.916,299.9907-211.8457,17.7273,8.4917,36.1379,16.2529,55.1892,23.2087Z"/><path class="cls-21" d="m2606.853,2147.1209c-75.4346,118.2043-186.7632,221.3513-326.7708,292.3152-139.645,70.9636-307.9668,109.7439-489.0144,99.2148-14.2642-21.2856-27.542-42.8511-39.8301-64.6235,173.9043,18.3574,336.7656-12.1372,472.551-74.3567,136.147-62.2205,245.2183-156.1658,319.9158-264.7104,20.4839,4.9697,41.5508,9.0479,63.1484,12.1606Z"/><path class="cls-10" d="m2281.7022,2510.4314c134.8961,0,209.6086-40.4402,242.2782-64.684,12.2934-9.1228,16.2316-25.7438,9.3089-39.3977l-226.4411-446.6147c-10.4405-20.592-39.8516-20.592-50.292,0l-225.5646,444.8862c-7.1525,14.107-2.7395,31.4073,10.4228,40.1777,36.1999,24.121,116.4834,65.6325,240.2879,65.6325Z"/><path class="cls-19" d="m1279.3836,1925.5719c134.8961,0,209.6086-40.4402,242.2782-64.684,12.2934-9.1228,16.2316-25.7438,9.3089-39.3977l-226.4411-446.6147c-10.4405-20.592-39.8516-20.592-50.292,0l-225.5646,444.8862c-7.1525,14.107-2.7395,31.4073,10.4228,40.1777,36.1999,24.121,116.4834,65.6325,240.2879,65.6325Z"/><polygon class="cls-15" points="1448.7101 2067.0902 1476.2066 2122.8044 1537.6908 2131.7385 1493.2004 2175.1059 1503.7032 2236.3417 1448.7101 2207.4301 1393.7169 2236.3417 1404.2197 2175.1059 1359.7293 2131.7385 1421.2135 2122.8044 1448.7101 2067.0902"/><polygon class="cls-15" points="1071.6922 2067.0902 1099.1888 2122.8044 1160.673 2131.7385 1116.1826 2175.1059 1126.6853 2236.3417 1071.6922 2207.4301 1016.6991 2236.3417 1027.2018 2175.1059 982.7115 2131.7385 1044.1956 2122.8044 1071.6922 2067.0902"/><polygon class="cls-15" points="1265.9418 2067.0902 1293.4384 2122.8044 1354.9226 2131.7385 1310.4322 2175.1059 1320.9349 2236.3417 1265.9418 2207.4301 1210.9487 2236.3417 1221.4514 2175.1059 1176.961 2131.7385 1238.4452 2122.8044 1265.9418 2067.0902"/><polygon class="cls-15" points="1448.7101 2236.3417 1476.2066 2292.0558 1537.6908 2300.99 1493.2004 2344.3574 1503.7032 2405.5932 1448.7101 2376.6816 1393.7169 2405.5932 1404.2197 2344.3574 1359.7293 2300.99 1421.2135 2292.0558 1448.7101 2236.3417"/><polygon class="cls-15" points="1071.6922 2236.3417 1099.1888 2292.0558 1160.673 2300.99 1116.1826 2344.3574 1126.6853 2405.5932 1071.6922 2376.6816 1016.6991 2405.5932 1027.2018 2344.3574 982.7115 2300.99 1044.1956 2292.0558 1071.6922 2236.3417"/><polygon class="cls-15" points="1265.9418 2236.3417 1293.4384 2292.0558 1354.9226 2300.99 1310.4322 2344.3574 1320.9349 2405.5932 1265.9418 2376.6816 1210.9487 2405.5932 1221.4514 2344.3574 1176.961 2300.99 1238.4452 2292.0558 1265.9418 2236.3417"/><polygon class="cls-15" points="1448.7101 2405.5932 1476.2066 2461.3073 1537.6908 2470.2415 1493.2004 2513.6089 1503.7032 2574.8446 1448.7101 2545.933 1393.7169 2574.8446 1404.2197 2513.6089 1359.7293 2470.2415 1421.2135 2461.3073 1448.7101 2405.5932"/><polygon class="cls-15" points="1071.6922 2405.5932 1099.1888 2461.3073 1160.673 2470.2415 1116.1826 2513.6089 1126.6853 2574.8446 1071.6922 2545.933 1016.6991 2574.8446 1027.2018 2513.6089 982.7115 2470.2415 1044.1956 2461.3073 1071.6922 2405.5932"/><polygon class="cls-15" points="1265.9418 2405.5932 1293.4384 2461.3073 1354.9226 2470.2415 1310.4322 2513.6089 1320.9349 2574.8446 1265.9418 2545.933 1210.9487 2574.8446 1221.4514 2513.6089 1176.961 2470.2415 1238.4452 2461.3073 1265.9418 2405.5932"/><path class="cls-6" d="m370.8245,1459.7293c-28.9443,17.0719-31.6882,22.6324-61.0944,49.7466-27.6282,23.661-30.7897.4662-51.4512,3.3635-17.6995-5.1108-12.404,24.9578-26.2437,12.4074-13.0658-11.8103-14.8-27.0105-30.4571-19.4818-16.2723,13.9839-21.1033,13.0423-41.419,52.396-20.1076,42.3765-22.3868,47.572-40.2227,89.1645-14.9974,33.8189-2.6628,27.1441-14.7756,56.8796"/><path class="cls-4" d="m370.8245,1459.2131c-26.6319-.2451-27.0763-2.442-53.2538.7943-25.8013,4.5629-29.0562-8.3693-54.5407-.1453-25.018,9.4931-19.7486,26.8017-43.4691,38.2334-23.2151,12.5647-25.7828,5.6967-48.073,21.0327-21.6875,16.206-24.3674,10.4303-44.9348,29.0307-19.9467,19.3898-20.5387,18.3975-39.0699,39.5266-17.8528,21.851-11.3179,32.263-27.4416,54.8163"/><path class="cls-7" d="m370.8245,1706.2746c-28.9443,17.0719-31.6882,22.6324-61.0944,49.7466-27.6282,23.661-30.7897.4662-51.4512,3.3635-17.6995-5.1108-12.404,24.9578-26.2437,12.4074-13.0658-11.8103-14.8-27.0105-30.4571-19.4818-16.2723,13.9839-21.1033,13.0423-41.419,52.396-20.1076,42.3765-22.3868,47.572-40.2227,89.1645-14.9974,33.8189-2.6628,27.1441-14.7756,56.8796"/><path class="cls-8" d="m370.8245,1705.7583c-26.6319-.2451-27.0763-2.442-53.2538.7943-25.8013,4.5629-29.0562-8.3693-54.5407-.1453-25.018,9.4931-19.7486,26.8017-43.4691,38.2334-23.2151,12.5647-25.7828,5.6967-48.073,21.0327-21.6875,16.206-24.3674,10.4303-44.9348,29.0307-19.9467,19.3898-20.5387,18.3975-39.0699,39.5266-17.8528,21.851-11.3179,32.263-27.4416,54.8163"/><path class="cls-14" d="m707.9535,1925.5719c-134.8961,0-209.6086-40.4402-242.2782-64.684-12.2934-9.1228-16.2316-25.7438-9.3089-39.3977l226.4411-446.6147c10.4405-20.592,39.8516-20.592,50.292,0l225.5646,444.8862c7.1525,14.107,2.7395,31.4073-10.4228,40.1777-36.1999,24.121-116.4834,65.6325-240.2879,65.6325Z"/><g id="Layer_4-3"><path class="cls-3" d="m2890.8796,1551.684l392.5638,392.5637-555.1896.001c0-142.0732,54.2085-284.1474,162.6259-392.5648Z"/><path class="cls-3" d="m3283.4434,1389.0999v555.1482l-392.5638-392.5641c108.4174-108.417,250.5108-162.6043,392.5638-162.5841Z"/><path class="cls-3" d="m3676.0074,1551.684l-392.5637,392.5637v-555.1478c142.115.001,284.1892,54.2095,392.5637,162.5841Z"/><path class="cls-11" d="m3676.0074,1551.684c108.3968,108.3968,162.6047,250.4703,162.6057,392.5853l-555.1694-.0213,392.5638-392.5637v-.0003Z"/><path class="cls-11" d="m3929.8882,1978.089c0,142.0732-54.2085,284.1477-162.6047,392.5435l-392.5647-392.5647,555.1694.0213h0Z"/><path class="cls-3" d="m3283.4434,1944.2481l392.5647,392.5648c-108.4174,108.4174-250.4916,162.6259-392.5647,162.6259v-555.1906h0Z"/><path class="cls-3" d="m3283.4434,1944.2481v555.1907c-142.0948-.0212-284.1882-54.2085-392.5853-162.6057l392.5853-392.5853v.0004Z"/><path class="cls-3" d="m3283.4434,1944.2481l-392.5853,392.5854c-108.3958-108.3962-162.5841-250.4909-162.6043-392.5843l555.1897-.001Z"/><path class="cls-5" d="m2914.5835,1575.3892l368.8595,368.8595-521.6654.001c0-133.4943,50.9353-266.9899,152.8059-368.8605h0Z"/><path class="cls-5" d="m3283.4427,1422.6225v521.6263l-368.8592-368.8595c101.8706-101.8706,235.3841-152.786,368.8592-152.7667Z"/><path class="cls-5" d="m3652.3022,1575.3892l-368.8595,368.8595v-521.6263c133.5334.001,267.0291,50.9363,368.8595,152.7667Z"/><path class="cls-13" d="m3652.3022,1575.3892c101.8517,101.8517,152.786,235.346,152.7869,368.8794l-521.6465-.0199,368.8595-368.8595h0Z"/><path class="cls-5" d="m3896.3647,1978.0887c0,133.4943-50.9353,266.9899-152.786,368.8403l-368.8605-368.8605,521.6465.0199v.0003Z"/><path class="cls-5" d="m3283.4427,1944.2488l368.8605,368.8605c-101.8706,101.8706-235.3659,152.8059-368.8605,152.8059v-521.6664h0Z"/><path class="cls-5" d="m3283.4427,1944.2488v521.6665c-133.5145-.0199-267.0281-50.9353-368.8794-152.7869l368.8794-368.8794h0Z"/><path class="cls-5" d="m3283.4427,1944.2488l-368.8794,368.8794c-101.8507-101.8507-152.7667-235.3652-152.786-368.8784l521.6654-.001h0Z"/></g><path class="cls-16" d="m292.5267,2148.4741c0,2.5353-42.1914,2.731-42.3526,5.2256-.1633,2.5276,57.6315,10.2412,57.3079,12.7217-.3274,2.5091-15.2885,3.6051-15.7745,6.0608-.4909,2.4798,4.6719,6.9911,4.0248,9.4109-.6525,2.4399-1.1693,5.8801-1.9751,8.2534-.8113,2.3896-19.0187-1.4225-19.9796.8937-.9663,2.3292,4.6422,7.6051,3.5305,9.8542-1.1167,2.2591-20.9384-6.0671-22.1958-3.8946-1.2617,2.1799,4.4001,7.5633,3.0028,9.6499-1.4009,2.0918-21.8207-11.3027-23.3518-9.3108-1.5336,1.9951,18.3406,19.7593,16.6824,21.6481-1.6595,1.8903,10.4001,16.7426,8.622,18.5203-1.7781,1.7776.4359,9.1602-1.4547,10.8191-1.889,1.6575-33.0571-32.9112-35.0524-31.3783-1.9921,1.5305,15.2663,28.4361,13.1745,29.8363-2.0867,1.3968-15.9125-17.0974-18.0926-15.8363-2.1726,1.2568-6.125-4.0387-8.3842-2.9226-2.2485,1.1108,14.3833,43.2191,12.0548,44.1846-2.315.9599-14.4954-23.294-16.8837-22.4835-2.3721.805-7.1476-9.4635-9.5862-8.8116-2.4192.6467,3.5408,37.0836,1.0617,37.5741-2.4529.4853-5.5857,4.6457-8.0919,4.9726-2.4801.3235-9.0865-41.8279-11.6135-41.6647-2.4939.1611-3.6073-12.2638-6.1419-12.2638s-2.9812,2.09-5.4758,1.9288c-2.5276-.1633-7.3786,33.7396-9.8592,33.416-2.5091-.3274-8.9511,18.5424-11.4067,18.0563-2.4798-.4909,6.271-48.5048,3.8511-49.152-2.4399-.6525-9.4206,17.6164-11.7939,16.8105-2.3896-.8113-10.4995,13.4552-12.8157,12.4943-2.3292-.9663-8.5689,4.6815-10.8181,3.5698-2.2591-1.1167-1.9645-8.8041-4.137-10.0615-2.1799-1.2617,17.2153-35.8662,15.1287-37.2636-2.0918-1.4009-35.7216,41.4402-37.7135,39.909-1.9951-1.5336,6.3854-17.2949,4.4965-18.9532-1.8903-1.6595,2.7407-10.4757.963-12.2538-1.7776-1.7781-12.0435,4.1218-13.7024,2.2312-1.6575-1.889,1.1598-7.9456-.3731-9.9409-1.5305-1.9921,14.6377-16.0568,13.2375-18.1487-1.3968-2.0867.8815-4.906-.3796-7.086-1.2568-2.1726-16.4642,4.1449-17.5802,1.8857-1.1108-2.2485-26.6238,6.0081-27.5892,3.6797-.9599-2.315,30.5741-17.1339,29.7636-19.5222-.805-2.3721-25.9311,2.6774-26.583.2388-.6467-2.4192,28.1096-11.4648,27.6191-13.9439-.4853-2.4529-20.423-1.1796-20.7499-3.6858-.3235-2.4801-34.4635-2.9021-34.6268-5.4291-.1611-2.4939,62.7199-7.3041,62.7199-9.8387s.7954-3.2319.9566-5.7265c.1633-2.5276,7.2151-2.2904,7.5388-4.7709.3274-2.5091-30.2608-8.7696-29.7747-11.2252.4909-2.4798-2.3485-5.5672-1.7014-7.987.6525-2.4399-2.9727-6.2866-2.1669-8.6599.8113-2.3896,37.7328,9.9193,38.6937,7.6031.9663-2.3292-55.8545-30.6598-54.7428-32.909,1.1167-2.2591,57.6976,25.4187,58.955,23.2462,1.2617-2.1799-16.4788-14.3807-15.0815-16.4673,1.4009-2.0918-16.112-17.6666-14.5808-19.6585,1.5336-1.9951,14.6197,5.2424,16.2779,3.3536,1.6595-1.8903,16.94,10.2298,18.7181,8.4521,1.7781-1.7776.1097-5.1542,2.0003-6.8131,1.889-1.6575-9.9556-19.0538-7.9603-20.5868,1.9921-1.5305,24.5246,27.511,26.6165,26.1108,2.0867-1.3968-33.646-63.5033-31.466-64.7644,2.1726-1.2568,33.4738,51.136,35.733,50.02,2.2485-1.1108-1.4301-12.2147.8984-13.1801,2.315-.9599,2.3856-5.7863,4.7739-6.5967,2.3721-.805-.9586-20.675,1.48-21.3268,2.4192-.6467,13.4279,38.3492,15.907,37.8588,2.4529-.4853,2.9771-.8888,5.4833-1.2158,2.4801-.3235,1.3962-26.5101,3.9232-26.6733,2.4939-.1611,4.8086-25.747,7.3431-25.747s3.4853,46.714,5.9798,46.8752c2.5276.1633,6.6829-24.4701,9.1635-24.1464,2.5091.3274.6688,22.7991,3.1244,23.2852,2.4798.4909,17.0661-49.8801,19.486-49.233,2.4399.6525-4.9713,36.5703-2.598,37.3761,2.3896.8113,3.2143,4.3568,5.5306,5.3178,2.3292.9663,22.6375-35.7828,24.8867-34.6711,2.2591,1.1167-9.6739,31.0553-7.5014,32.3127,2.1799,1.2617,3.0475,4.5817,5.134,5.9791,2.0918,1.4009,19.6601-17.4923,21.652-15.9611,1.9951,1.5336-2.9931,13.4013-1.1042,15.0595,1.8903,1.6595.3912,7.7919,2.1688,9.57s15.1465-6.0691,16.8054-4.1785c1.6575,1.889-25.9332,28.0099-24.4003,30.0051,1.5305,1.9921-12.2035,12.9109-10.8033,15.0028,1.3968,2.0867,56.185-29.2775,57.4461-27.0975,1.2568,2.1726-22.954,19.0592-21.8379,21.3185,1.1108,2.2485,1.543,4.7684,2.5085,7.0969.9599,2.315,21.914-2.2082,22.7245.1801.805,2.3721-18.7776,11.5906-18.1258,14.0292.6467,2.4192,17.7504,1.5205,18.2408,3.9996.4853,2.4529-41.4762,11.4989-41.1492,14.0051.3235,2.4801,61.6462-.7363,61.8095,1.7907.1611,2.4939-27.6708,7.2133-27.6708,9.7479Z"/><path class="cls-17" d="m274.5143,2443.6025c0,2.5353-42.1914,2.731-42.3526,5.2256-.1633,2.5276,57.6315,10.2412,57.3079,12.7217-.3274,2.5091-15.2885,3.6051-15.7745,6.0608-.4909,2.4798,4.6719,6.9911,4.0248,9.4109-.6525,2.4399-1.1693,5.8801-1.9751,8.2534-.8113,2.3896-19.0187-1.4225-19.9796.8937-.9663,2.3292,4.6422,7.6051,3.5305,9.8542-1.1167,2.2591-20.9384-6.0671-22.1958-3.8946-1.2617,2.1799,4.4001,7.5633,3.0028,9.6499-1.4009,2.0918-21.8207-11.3027-23.3518-9.3108-1.5336,1.9951,18.3406,19.7593,16.6824,21.6481-1.6595,1.8903,10.4001,16.7426,8.622,18.5203-1.7781,1.7776.4359,9.1602-1.4547,10.8191-1.889,1.6575-33.0571-32.9112-35.0524-31.3783-1.9921,1.5305,15.2663,28.4361,13.1745,29.8363-2.0867,1.3968-15.9125-17.0974-18.0926-15.8363-2.1726,1.2568-6.125-4.0387-8.3842-2.9226-2.2485,1.1108,14.3833,43.2191,12.0548,44.1846-2.315.9599-14.4954-23.294-16.8837-22.4835-2.3721.805-7.1476-9.4635-9.5862-8.8116-2.4192.6467,3.5408,37.0836,1.0617,37.5741-2.4529.4853-5.5857,4.6457-8.0919,4.9726-2.4801.3235-9.0865-41.8279-11.6135-41.6647-2.4939.1611-3.6073-12.2638-6.1419-12.2638s-2.9812,2.09-5.4758,1.9288c-2.5276-.1633-7.3786,33.7396-9.8592,33.416-2.5091-.3274-8.9511,18.5424-11.4067,18.0563-2.4798-.4909,6.271-48.5048,3.8511-49.152-2.4399-.6525-9.4206,17.6164-11.7939,16.8105-2.3896-.8113-10.4995,13.4552-12.8157,12.4943-2.3292-.9663-8.5689,4.6815-10.8181,3.5698-2.2591-1.1167-1.9645-8.8041-4.137-10.0615-2.1799-1.2617,17.2153-35.8662,15.1287-37.2636-2.0918-1.4009-35.7216,41.4402-37.7135,39.909-1.9951-1.5336,6.3854-17.2949,4.4965-18.9532-1.8903-1.6595,2.7407-10.4757.963-12.2538-1.7776-1.7781-12.0435,4.1218-13.7024,2.2312-1.6575-1.889,1.1598-7.9456-.3731-9.9409-1.5305-1.9921,14.6377-16.0568,13.2375-18.1487-1.3968-2.0867.8815-4.906-.3796-7.086-1.2568-2.1726-16.4642,4.1449-17.5802,1.8857-1.1108-2.2485-26.6238,6.0081-27.5892,3.6797-.9599-2.315,30.5741-17.1339,29.7636-19.5222-.805-2.3721-25.9311,2.6774-26.583.2388-.6467-2.4192,28.1096-11.4648,27.6191-13.9439-.4853-2.4529-20.423-1.1796-20.7499-3.6858-.3235-2.4801-34.4635-2.9021-34.6268-5.4291-.1611-2.4939,62.7199-7.3041,62.7199-9.8387s.7954-3.2319.9566-5.7265c.1633-2.5276,7.2151-2.2904,7.5388-4.7709.3274-2.5091-30.2608-8.7696-29.7747-11.2252.4909-2.4798-2.3485-5.5672-1.7014-7.987.6525-2.4399-2.9727-6.2866-2.1669-8.6599.8113-2.3896,37.7328,9.9193,38.6937,7.6031.9663-2.3292-55.8545-30.6598-54.7428-32.909,1.1167-2.2591,57.6976,25.4187,58.955,23.2462,1.2617-2.1799-16.4788-14.3807-15.0815-16.4673,1.4009-2.0918-16.112-17.6666-14.5808-19.6585,1.5336-1.9951,14.6197,5.2424,16.2779,3.3536,1.6595-1.8903,16.94,10.2298,18.7181,8.4521,1.7781-1.7776.1097-5.1542,2.0003-6.8131,1.889-1.6575-9.9556-19.0538-7.9603-20.5868,1.9921-1.5305,24.5246,27.511,26.6165,26.1108,2.0867-1.3968-33.646-63.5033-31.466-64.7644,2.1726-1.2568,33.4738,51.136,35.733,50.02,2.2485-1.1108-1.4301-12.2147.8984-13.1801,2.315-.9599,2.3856-5.7863,4.7739-6.5967,2.3721-.805-.9586-20.675,1.48-21.3268,2.4192-.6467,13.4279,38.3492,15.907,37.8588,2.4529-.4853,2.9771-.8888,5.4833-1.2158,2.4801-.3235,1.3962-26.5101,3.9232-26.6733,2.4939-.1611,4.8086-25.747,7.3431-25.747s3.4853,46.714,5.9798,46.8752c2.5276.1633,6.6829-24.4701,9.1635-24.1464,2.5091.3274.6688,22.7991,3.1244,23.2852,2.4798.4909,17.0661-49.8801,19.486-49.233,2.4399.6525-4.9713,36.5703-2.598,37.3761,2.3896.8113,3.2143,4.3568,5.5306,5.3178,2.3292.9663,22.6375-35.7828,24.8867-34.6711,2.2591,1.1167-9.6739,31.0553-7.5014,32.3127,2.1799,1.2617,3.0475,4.5817,5.134,5.9791,2.0918,1.4009,19.6601-17.4923,21.652-15.9611,1.9951,1.5336-2.9931,13.4013-1.1042,15.0595,1.8903,1.6595.3912,7.7919,2.1688,9.57s15.1465-6.0691,16.8054-4.1785c1.6575,1.889-25.9332,28.0099-24.4003,30.0051,1.5305,1.9921-12.2035,12.9109-10.8033,15.0028,1.3968,2.0867,56.185-29.2775,57.4461-27.0975,1.2568,2.1726-22.954,19.0592-21.8379,21.3185,1.1108,2.2485,1.543,4.7684,2.5085,7.0969.9599,2.315,21.914-2.2082,22.7245.1801.805,2.3721-18.7776,11.5906-18.1258,14.0292.6467,2.4192,17.7504,1.5205,18.2408,3.9996.4853,2.4529-41.4762,11.4989-41.1492,14.0051.3235,2.4801,61.6462-.7363,61.8095,1.7907.1611,2.4939-27.6708,7.2133-27.6708,9.7479Z"/><circle class="cls-20" cx="498.2876" cy="2151.716" r="68.8696"/><circle class="cls-20" cx="659.5798" cy="2150.8216" r="68.8696"/><circle class="cls-20" cx="820.872" cy="2150.8216" r="68.8696"/><circle class="cls-20" cx="498.2876" cy="2321.4146" r="68.8696"/><circle class="cls-20" cx="659.5798" cy="2320.5202" r="68.8696"/><circle class="cls-20" cx="820.872" cy="2320.5202" r="68.8696"/><circle class="cls-20" cx="498.2876" cy="2492.0077" r="68.8696"/><circle class="cls-20" cx="659.5798" cy="2491.1133" r="68.8696"/><circle class="cls-20" cx="820.872" cy="2491.1133" r="68.8696"/><circle class="cls-1" cx="4138.3385" cy="1509.5225" r="77.8772"/><circle class="cls-1" cx="4316.3" cy="1509.5225" r="77.8772"/><circle class="cls-1" cx="4490.8369" cy="1509.5225" r="77.8772"/><circle class="cls-1" cx="4138.3385" cy="1687.9573" r="77.8772"/><circle class="cls-1" cx="4316.3" cy="1687.9573" r="77.8772"/><circle class="cls-1" cx="4490.8369" cy="1687.9573" r="77.8772"/><circle class="cls-1" cx="4138.3385" cy="1866.3921" r="77.8772"/><circle class="cls-1" cx="4316.3" cy="1866.3921" r="77.8772"/><circle class="cls-1" cx="4490.8369" cy="1866.3921" r="77.8772"/><path class="cls-5" d="m4402.8811,2006.0491c67.6963,67.6963,109.5635,161.2232,109.5633,264.5221h-374.1059s264.5424-264.5222,264.5424-264.5222l.0002.0002Z"/><rect class="cls-11" x="4138.3385" y="2270.2657" width="374.1059" height="113.2136"/><circle class="cls-11" cx="4419.5055" cy="2098.1732" r="20.4224"/><circle class="cls-11" cx="4283.3542" cy="2195.5148" r="12.2236"/><circle class="cls-12" cx="4392.1741" cy="2270.5712" r="44.1242"/><circle class="cls-12" cx="4169.1821" cy="2277.3676" r="12.6851"/><circle class="cls-12" cx="4271.1306" cy="2354.8364" r="17.2038"/><circle class="cls-12" cx="4480.6416" cy="2348.4965" r="6.3918"/></g></svg>