<?xml version="1.0" encoding="UTF-8"?><svg id="Layer_2" xmlns="http://www.w3.org/2000/svg" xmlns:xlink="http://www.w3.org/1999/xlink" viewBox="0 0 1569.2293 1636.6638"><defs><style>.cls-1{fill:#89aa3e;}.cls-2{fill:#2761a1;}.cls-3{fill:#b84c36;}.cls-4{fill:#fff8ee;}.cls-5{fill:#ffd79d;}.cls-6{opacity:.36;}.cls-6,.cls-7,.cls-8,.cls-9{fill:none;}.cls-10{fill:#e2dbd3;}.cls-11{fill:#bd5b44;}.cls-8{clip-path:url(#clippath);}.cls-9{clip-path:url(#clippath-1);}.cls-12{fill:#686868;}</style><clipPath id="clippath"><path class="cls-7" d="m835.3183,1503.9953l183.552,72.9772c8.8393,3.5143-4.7462,16.5626-25.6253,27.7287l-15.7975,8.4485c-15.8865,8.4961-35.8226,15.0841-47.2807,15.6654l-149.8755,7.6035c-42.9748,2.1802-93.2706-10.2426-103.8857-35.1611l-14.3427-33.6686c-26.563-62.3552,76.8023-101.9419,173.2553-63.5938Z"/></clipPath><clipPath id="clippath-1"><path class="cls-7" d="m951.4051,841.4522c-81.2023-12.4821-168.359-35.0178-277.3795-176.2228-17.7123-22.9412-57.3251-100.7681-57.3251-100.7681-1.4093-2.8852-4.9234-4.0923-7.8083-2.6828l-129.3348,52.9085c-2.8851,1.4096-4.0924,4.9235-2.6827,7.8086l22.7461,34.7324c1.4097,2.8851,4.9236,4.0923,7.8087,2.6826l76.6631-35.3429,177.4889,299.4597-36.0142,102.294c-1.0662,3.0288.5393,6.3794,3.5682,7.4457l141.0811,63.3987c3.0289,1.0663-12.6852-155.0622-9.7684-156.4055,45.8668-21.1226,92.165-92.2048,92.165-92.2048,1.0055-1.5028,4.3835-6.9611,4.3835-6.9611,0,0-3.7975.1335-5.5917-.1423Z"/></clipPath></defs><g id="Layer_4"><path class="cls-3" d="m745.9108,41.9645s-36.2498,71.2933-105.2929,99.3288c-69.0431,28.0355-144.7342,2.1968-144.7342,2.1968,0,0,36.2498-71.2933,105.2929-99.3288,69.0431-28.0355,144.7342-2.1968,144.7342-2.1968Z"/><path class="cls-3" d="m585.1985,30.9589c-.2794.4656-23.725,18.9825-34.5131,54.5077-12.2419,35.2857-6.7473,74.1645-7.265,73.7156.6702-.0223-11.8177-11.0757-18.6322-30.7569-7.2789-19.1198-8.8846-46.8675,2.8174-67.3145,11.2691-20.8168,27.9155-28.1426,39.2488-30.3955,11.7385-2.2455,18.1638.5818,18.3441.2436Z"/><path class="cls-3" d="m525.2169,8.7508c.1556-.0594,4.1557,5.7426,7.2149,17.9457,3.475,11.9889,6.0098,30.3792,12.8264,50.5453,6.3472,20.6887,18.2998,35.9411,28.2943,44.0708,10.0441,8.4628,18.13,9.8031,17.8847,10.3571-.4117-.0537-4.7408,5.0581-15.1944,9.192-10.2305,3.6927-26.5858,6.4075-45.8917-8.6284-19.6166-14.1984-29.2177-48.5448-24.6052-75.7648,3.0917-27.763,20.3971-48.3995,19.4711-47.7177Z"/><path class="cls-11" d="m547.0135,147.1703c-.0672-.2702,3.8038-3.1665,6.6557-10.3325,2.5567-6.9948,4.0939-18.2593-7.4516-31.302-10.9713-13.2369-36.0409-19.871-55.9168-17.5724-20.2485,1.3786-35.3031,11.6894-34.8604,11.1024-.0569.1393,4.8288,2.4229,14.3545,4.6873,9.3743,2.4846,23.3893,4.9503,38.0855,10.5427,15.0757,5.3054,25.8138,13.7765,31.6339,20.6812,6.0184,6.9382,7.1186,12.3097,7.4991,12.1933Z"/><path class="cls-3" d="m587.1801,90.9987s36.9391,106.1284-9.2358,164.6161c-46.1749,58.4877-157.9784,47.1867-157.9784,47.1867,0,0-36.9391-106.1284,9.2358-164.6161,46.1749-58.4877,157.9784-47.1867,157.9784-47.1867Z"/><path class="cls-5" d="m677.9018,412.2551h-.0003c-81.2964,30.6387-164.5876-10.2901-183.0273-82.8314l-27.189-106.9613c-.6552-2.5776,1.2694-5.6044,4.2741-6.7368l230.9474-87.0385c3.0048-1.1324,6.4483-.1288,7.6573,2.2401l50.1692,98.3006c34.0249,66.6676-1.5351,152.3886-82.8315,183.0273Z"/><path class="cls-11" d="m508.4803,146.4404c-.035.2155-27.4769,16.9914-40.2818,55.902-13.4546,38.3771-10.0623,77.2609-11.2239,76.5349.7892.1238-13.3555-13.8676-19.4706-36.6271-6.8426-22.1611-5.6555-53.0901,8.9978-73.0209,14.2294-20.4183,31.9525-25.2331,43.6164-25.8166,12.0737-.4558,18.0883,3.3197,18.3623,3.0277Z"/><path class="cls-3" d="m801.1021,168.1695c0,.8096-18.5949,7.7126-47.7268,22.2723-29.1323,13.5574-68.8014,34.7717-110.9482,41.0568-42.1475,6.345-78.7935-12.357-104.9017-36.4973-26.1089-23.494-41.6804-52.4261-41.6806-51.6145,0-.8096,18.5951-7.7125,47.7269-22.2722,29.132-13.5575,68.8009-34.7719,110.9481-41.0569,42.1472-6.3448,78.7926,12.3572,104.9015,36.4975,26.1086,23.4939,41.6812,52.4261,41.6808,51.6143Z"/><path class="cls-3" d="m555.3304,257.4091c-18.3215,1.8284-25.7484-14.464-26.1595-30.49-.586-16.4994,5.8444-32.7322,11.1907-41.7257,22.4932-36.8284,6.4308-59.7647,6.5306-59.8798.3349.0134-24.876,1.4781-44.3311,8.3274-9.9106,3.5862-18.6364,8.7248-24.4892,18.0204-5.9688,9.4146-9.0648,22.9862-10.3851,46.1861-.0424,12.0401.1673,24.0404,3.9694,36.08,3.841,11.8573,11.2737,23.7531,26.5728,31.3753,13.2498,6.7478,29.3604,4.5934,40.7169.7662,11.5112-3.8049,18.2686-9.2825,16.3845-8.6599Z"/><path class="cls-11" d="m548.6174,114.5211c.0393-.2994-4.5599,12.3322-5.6939,25.4724-1.7647,13.6069-.0635,27.7226-1.987,41.1699-4.3532,26.1285-17.129,63.2445-17.7153,63.4922.9684-.3855-17.181-7.1731-30.3347-27.5776-13.5176-19.2018-22.0394-52.0207-10.2163-76.6929,11.2092-24.8263,30.8047-31.173,44.1105-31.3177,13.8769-.1609,21.4641,5.8802,21.8366,5.4536Z"/><path class="cls-5" d="m862.0735,1218.6998h.0002c52.4799,5.7107,78.2226,6.1682,79.4503-38.3781l19.6271-179.6688c.7573-27.4798-26.1772-56.7231-61.2872-67.4216h-.0001c-36.8609-11.2321-73.8662.5468-81.0981,28.9333l-38.7139,151.9586c-12.3793,48.591,25.6381,98.4411,82.0218,104.5766Z"/><path class="cls-5" d="m943.6063,1515.0091h.0002c58.0906-29.7948,80.4974-63.8355,72.7519-109.3972-7.4273-43.69-74.8344-225.2902-74.8344-225.2902-10.8981-40.237-38.5515-113.7296-82.6504-111.8546h-.0002c-48.178,2.0485-87.5674,40.3662-82.9496,88.8785l125.6593,233.3748c8.0168,84.2202,16.3144,96.4403,42.0231,124.2887Z"/><path class="cls-5" d="m1178.7786,698.8614h0c22.1575,21.7736,31.1729,33.2624-3.6393,49.1816l-135.4752,70.8466c-21.475,9.8203-53.6536,7.7204-73.916-4.4743h0c-21.273-12.8029-24.3986-33.6073-4.3831-46.6696l107.1471-69.9248c34.2619-22.3595,86.4609-22.3526,110.2665,1.0405Z"/><path class="cls-5" d="m1440.4933,633.553c4.5767,4.7141,9.2683,24.5927,9.2683,24.5927,6.2217,27.4172-32.6861,33.8427-71.3176,46.0525-37.0446,11.7082-203.3046,43.8447-203.3046,43.8447-35.4809,8.947-102.8912,21.7832-116.2328,1.1852h0c-14.5757-22.5034,2.4828-53.5396,42.3962-68.1821l226.9169-33.8279c77.8591-17.1154,101.2468-25.0231,112.2738-13.6652Z"/><path class="cls-11" d="m701.9764.7239c-1.5976,49.3505-66.2769,75.8676-96.1405,80.0223-61.6064,8.8317-72.4519,42.9742-72.7083,43.1113.8055-.031,87.4724,85.8044,164.3828,8.7026,20.3747-20.1712,39.1287-40.335,36.1575-77.5909-2.5724-32.134-31.556-59.8437-31.6915-54.2454Z"/><path class="cls-2" d="m1126.5602,787.0114l-52.9001-91.447c-1.3668-2.3628-4.4848-3.5644-6.9513-2.6688l-89.2163,32.3923-30.0341-21.5254c-12.3647-8.8619-31.6515-5.9831-43.498,6.2996l-123.1841,127.7206c-14.6249,15.1636-18.8004,39.0754-8.5813,53.4108l28.0945,39.41-39.7619,97.3488c-2.4157,5.9143.2084,11.5984,5.9066,12.4811l232.8801,36.0794c6.3137.978,10.5557-3.9352,9.4422-10.7361l-28.4328-173.6393,17.4828-22.0728c.6277-.1878,1.2514-.4517,1.8539-.8116l125.4107-74.9282c2.3466-1.402,3.0063-4.6909,1.4892-7.3134Z"/><path class="cls-5" d="m639.2589,368.5512h78.09c3.8092,0,6.9018,3.0926,6.9018,6.9018v36.6939c0,25.3587-20.5881,45.9468-45.9468,45.9468h0c-25.3587,0-45.9468-20.5881-45.9468-45.9468v-36.6939c0-3.8092,3.0926-6.9018,6.9018-6.9018Z" transform="translate(-102.1826 265.7675) rotate(-20.6502)"/><path class="cls-1" d="m946.5588,784.6119c-13.7373,26.5121-29.6948,56.6526-49.4721,85.0153-19.5634,28.1448-43.0052,54.7359-67.2998,68.5092-28.8594,16.486-61.6146,24.6333-82.1503-16.2683-28.0971-55.0926-55.658-111.9783-86.4123-173.0641-30.0574-61.0234-63.2991-127.4076-86.1952-199.7692-9.2019-28.8401-6.9287-60.9739,5.7873-87.4771,12.4176-26.6351,35.0795-47.2734,59.5383-56.5657,34.604-13.2576,69.6806-24.4414,103.1713-34.2425,47.4745-13.591,79.659,13.4426,91.1659,58.6329,18.7045,54.0172,45.8297,103.7009,69.3294,147.3988,24.1103,43.8598,44.4235,82.6233,63.893,118.7905,10.6514,28.9275-7.0113,58.8316-21.3556,89.0402Z"/><path class="cls-5" d="m416.5168,633.675l169.2109-54.2847c11.3303-5.1572,13.6386-27.0219,5.455-48.7364h0c-8.1837-21.7146-24.273-36.4163-36.0935-32.5599l-176.2156,35.6985c-18.6521,5.641-25.6991,33.7509-14.957,62.2538h0c10.7421,28.503,34.7155,45.3056,52.6003,37.6286Z"/><path class="cls-5" d="m194.1765,477.8681l25.9129,49.4293c4.0133,7.6554,1.6109,16.7778-5.538,19.8917l-26.76,11.656c-7.1489,3.1139-15.291-1.4156-17.961-9.6561l-17.2395-53.2072c-1.7428-5.379,1.3218-11.5467,6.7446-13.9087l20.299-8.8417c5.4228-2.362,11.9223-.3602,14.5419,4.6369Z"/><path class="cls-5" d="m30.8047,614.9942l43.3655,2.4158c3.199.1782,5.75,2.6106,5.6688,5.4054l-.5891,20.277c-.0812,2.7948-2.765,4.9356-5.9641,4.7574l-43.3655-2.4158c-3.199-.1782-5.75-2.6106-5.6688-5.4054l.5891-20.277c.0812-2.7948,2.765-4.9356,5.9641-4.7574Z"/><path class="cls-5" d="m18.689,575.682l43.3634,2.463c3.1989.1817,5.7406,2.8245,5.6484,5.873l-.6696,22.1176c-.0923,3.0484-2.7851,5.394-5.9839,5.2123l-43.3634-2.463c-3.1989-.1817-5.7406-2.8245-5.6484-5.873l.6696-22.1176c.0923-3.0484,2.7851-5.394,5.9839-5.2123Z"/><path class="cls-5" d="m52.0446,505.8266l20.1688,5.1602c1.4878.3807,2.1716,3.1127,1.5195,6.0713l-4.7312,21.4654c-.6521,2.9585-2.4029,5.0677-3.8908,4.6871l-20.1688-5.1602c-1.4878-.3807-2.1716-3.1127-1.5195-6.0713l4.7312-21.4654c.6521-2.9585,2.4029-5.0677,3.8908-4.6871Z"/><path class="cls-5" d="m10.7167,534.3501l42.5094,8.9104c3.1359.6573,5.257,3.6362,4.7137,6.6198l-3.9423,21.6469c-.5434,2.9836-3.5536,4.8869-6.6895,4.2296l-42.5094-8.9104c-3.1359-.6573-5.257-3.6362-4.7137-6.6198l3.9423-21.6469c.5434-2.9836,3.5536-4.8869,6.6895-4.2296Z"/><path class="cls-5" d="m247.5227,577.3381h0c-1.0619,31.8793-30.3826,60.1125-67.4204,62.9116l-76.4687,5.7789c-5.3472.4041-9.6385-2.8905-9.4908-7.3248l3.9069-117.2796c.1477-4.4343,4.6638-7.8874,9.9905-7.6755l76.1751,3.0312c36.8956,1.4682,64.3694,28.679,63.3074,60.5582Z"/><path class="cls-5" d="m73.9941,617.426l42.7852-2.6546c3.1562-.1958,5.7371,2.12,5.7352,5.1464l-.0118,19.3818c-.0018,3.0263-2.5857,5.6626-5.742,5.8584l-42.7852,2.6546c-3.1562.1958-5.7371-2.12-5.7352-5.1464l.0118-19.3818c.0018-3.0263,2.5857-5.6626,5.742-5.8584Z"/><path class="cls-5" d="m58.9394,577.9399l42.7016,3.767c3.1501.2779,5.356,2.9533,4.9021,5.9454l-3.2935,21.7087c-.4539,2.9921-3.4027,5.2128-6.5527,4.9349l-42.7016-3.767c-3.1501-.2779-5.356-2.9533-4.9021-5.9454l3.2935-21.7087c.4539-2.9921,3.4027-5.2128,6.5527-4.9349Z"/><path class="cls-5" d="m226.6119,631.3995l182.3655,3.9383c12.2389-2.3414,19.4872-26.8297,16.4586-54.4857h0c-3.0285-27.6561-15.3767-49.7396-27.7971-49.0549l-183.8922-6.7275c-19.4971.568-29.0853,22.5481-25.1099,58.85h0c3.9753,36.302,19.5407,45.6944,37.975,47.4798Z"/><path class="cls-5" d="m71.3597,510.8151l38.0872,3.2172c2.8097.2373,4.7456,2.8806,4.3021,5.8739l-3.2179,21.7177c-.4435,2.9933-3.1052,5.2482-5.9149,5.0109l-38.0872-3.2172c-2.8097-.2373-4.7456-2.8806-4.3021-5.8739l3.2179-21.7177c.4435-2.9933,3.1052-5.2482,5.9149-5.0109Z"/><path class="cls-5" d="m52.3941,543.3024l50.4727,4.4526c3.1501.2779,5.356,2.9533,4.9021,5.9454l-3.2935,21.7087c-.4539,2.9921-3.4027,5.2128-6.5527,4.9349l-50.4727-4.4526c-3.1501-.2779-5.356-2.9533-4.9021-5.9454l3.2935-21.7087c.4539-2.9921,3.4027-5.2128,6.5527-4.9349Z"/><path class="cls-5" d="m142.73,463.9168l42.6056,6.6877c6.5986,1.0358,9.8023,6.3618,6.7916,11.7842l-11.2697,20.2974c-3.0107,5.4224-10.6552,8.0943-16.688,6.0397l-38.9528-13.2664c-3.9379-1.3412-5.1699-5.7625-2.8862-9.8757l8.5487-15.3967c2.2838-4.1132,7.5436-6.9462,11.8508-6.2701Z"/><path class="cls-5" d="m995.6521,420.9791l-156.0044,72.3402c-14.3125,5.1805-29.3356-8.147-33.2491-29.1412h0c-3.8163-20.4727,4.3713-40.8107,18.0691-45.6392l149.6329-67.2276c13.0599-4.581,28.6191,6.699,34.7456,25.4597h0c6.2774,19.2229.4222,39.3056-13.1942,44.2082Z"/><path class="cls-5" d="m1036.0828,268.7651l7.239,27.9438c1.1541,4.4549,5.0583,7.8627,8.5642,7.3243l12.6949-1.9496c3.2814-.5039,4.384-4.4844,2.5886-8.6259l-11.3828-26.2575c-1.1309-2.6088-4.0507-4.5157-6.5569-4.3412l-9.6122.6691c-2.6314.1832-4.2467,2.4887-3.5347,5.2371Z"/><path class="cls-5" d="m1132.3247,292.9606l-14.3325,6.2203c-1.1.4774-1.5781,1.7725-1.057,2.8754l3.7783,7.996c.5204,1.1013,1.8369,1.5828,2.9202,1.0727l14.1155-6.646c1.001-.4713,1.411-1.7155.9159-2.7672l-3.5949-7.6363c-.4958-1.0532-1.7291-1.556-2.7455-1.1149Z"/><path class="cls-5" d="m1127.0472,277.5619l-14.8815,4.6116c-1.1417.3538-1.7491,1.8026-1.3441,3.2176l2.9358,10.2579c.4043,1.4127,1.6629,2.2431,2.7914,1.8477l14.7094-5.1549c1.0435-.3657,1.5789-1.7674,1.1946-3.117l-2.7904-9.7988c-.3849-1.3516-1.5595-2.1913-2.6152-1.8641Z"/><path class="cls-5" d="m1097.6162,247.5353l-12.4865,8.9306c-.9384.6711-1.0211,2.2388-.1826,3.4809l6.0547,8.9685c.8305,1.2302,2.2645,1.6747,3.1853.9906l12.2551-9.1037c.8876-.6593.9552-2.1867.1514-3.397l-5.8592-8.8222c-.8114-1.2217-2.214-1.6944-3.1183-1.0476Z"/><path class="cls-5" d="m1124.6325,256.0627l-19.5021,9.4284c-1.4946.7226-2.2496,2.4289-1.6712,3.7872l4.1802,9.8158c.5739,1.3475,2.2517,1.8261,3.7219,1.0684l19.1881-9.8895c1.3629-.7025,2.0335-2.3326,1.496-3.6269l-3.9148-9.4262c-.5416-1.3042-2.1131-1.8268-3.498-1.1572Z"/><path class="cls-5" d="m1050.6087,326.8357h0c11.3297,14.1655,30.499,17.7126,42.6087,7.9301l22.481-18.1606c1.4583-1.1781,1.544-3.5388.1903-5.2467l-35.9598-45.3696c-1.3656-1.7229-3.685-2.1686-5.1541-.9896l-22.6474,18.1741c-12.1995,9.7899-12.8783,29.4594-1.5187,43.6623Z"/><path class="cls-5" d="m1117.554,299.479l-13.9387,9.3291c-1.0708.7167-1.202,2.1387-.2859,3.1561l5.8661,6.5153c.9158,1.0172,2.5241,1.2363,3.5687.4908l13.597-9.7034c.9633-.6874,1.0336-2.0406.1609-3.0105l-5.5896-6.2125c-.8729-.9702-2.3911-1.2259-3.3785-.565Z"/><path class="cls-5" d="m1111.1524,282.5993l-13.7051,9.1369c-1.0522.7015-1.1903,2.2946-.3023,3.5358l6.4207,8.9735c.8819,1.2325,2.4422,1.6352,3.4629.8996l13.2969-9.5833c.9428-.6795,1.028-2.1982.1934-3.3791l-6.0757-8.5964c-.8402-1.1888-2.3192-1.6348-3.2907-.9871Z"/><path class="cls-5" d="m1085.1174,341.3824l-84.3489,76.6671c-8.1933,4.9766-23.6382-4.5904-34.2699-21.1438h0c-10.5573-16.4376-12.5687-33.8658-4.5212-38.8436l90.0804-66.7125c8.1233-5.1416,19.5423,1.4905,30.6593,17.8456h0c11.1965,16.4721,8.759,25.3666,2.4003,32.1872Z"/><path class="cls-5" d="m1084.5383,256.8669l-12.2581,10.2597c-.9374.7846-.7892,2.3069.3327,3.3787l8.1119,7.7491c1.1142,1.0644,2.7672,1.2688,3.67.4588l11.808-10.5943c.8405-.7541.6568-2.207-.4053-3.2328l-7.7316-7.4664c-1.0692-1.0325-2.6552-1.2831-3.5277-.5529Z"/><path class="cls-5" d="m1104.6481,265.7866l-16.0895,10.7244c-1.0521.7013-1.148,2.2723-.2085,3.4868l6.7924,8.7804c.9329,1.206,2.5336,1.5878,3.5525.8532l15.5864-11.2373c.9288-.6696.9684-2.1539.0918-3.3025l-6.3811-8.3612c-.8824-1.1562-2.3854-1.5827-3.344-.9438Z"/><path class="cls-5" d="m1048.9272,251.8757l-12.1233,11.7833c-1.9666,1.9115-1.3534,4.9347,1.4697,6.5907l10.4217,6.113c2.7458,1.6106,6.1066.9737,7.404-1.2703l8.0364-13.9c.7811-1.3509-.1946-3.3855-2.1414-4.5849l-7.3601-4.5346c-1.9859-1.2235-4.534-1.3372-5.707-.1971Z"/><path class="cls-1" d="m636.9841,565.552l-102.1753,54.6638c-3.6903,1.9743-7.9657.3986-9.4465-3.5306l-43.2289-114.7034c-1.4808-3.9292.6911-7.9347,4.7666-8.8871l112.8387-26.3697c2.4285-.5675,5.3111,1.4089,6.433,4.3857l32.7507,86.9006c1.1219,2.9768.2607,6.3642-1.9383,7.5406Z"/><path class="cls-1" d="m886.0993,484.3098l-87.8678,35.1446c-.3184.1274-.6126.3045-.8929.5021-3.2051,2.2586-7.2266,1.7719-9.0695-1.2358l-50.2343-82.5158c-1.8827-3.0727-.302-6.7524,3.437-8.3043.2296-.0953.471-.164.7134-.2189l112.9828-25.6034c.3069-.1133.6329-.1751.9691-.1896,2.1206-.0915,4.3467,1.8101,5.1572,4.2204l26.9933,71.1117c.0822.2165.1869.4233.2949.6282.0113.0215.0225.043.0335.0646,1.2372,2.4207.0073,5.3865-2.5168,6.3961Z"/><path class="cls-1" d="m862.1046,1379.8389c26.5199-51.0304,98.8305,38.2616,153.4134,22.6005,66.8207,92.2931,19.5134,177.1414-12.814,195.9684l-24.6644,14.3641c-24.9835,14.55-63.167,12.7855-87.2651-2.1693l-199.772-9.1757c-21.7817-13.5173-32.5642-34.2648-31.9806-59.7622.3019-13.1935,12.2253-40.2202,12.2253-40.2202,39.151-95.5482,150.1192-43.216,190.8574-121.6057Z"/><path class="cls-1" d="m1417.5553,606.3186c-34.5553,12.2705,22.0682,48.9697,7.7947,82.6199,69.9099,16.2643,79.0301,27.7097,104.3908,20.7089,6.0802-1.6785,15.2878-10.7914,19.0814-15.564,8.8908-11.1854,17.5888-26.2349,15.7992-54.0165,0,0,10.7502-89.6342-.5894-116.0677-3.7646-8.7756-20.6899-21.3857-35.3182-20.7938-7.9297.3209-21.4182-.6327-24.7383,4.0021-38.1687,53.2826-34.1958,80.5664-86.4201,99.1112Z"/><path class="cls-4" d="m835.3183,1503.9953l183.552,72.9772c8.8393,3.5143-4.7462,16.5626-25.6253,27.7287l-15.7975,8.4485c-15.8865,8.4961-35.8226,15.0841-47.2807,15.6654l-149.8755,7.6035c-42.9748,2.1802-93.2706-10.2426-103.8857-35.1611l-13.8368-32.4811c-26.563-62.3552,76.2964-103.1294,172.7495-64.7813Z"/><g class="cls-8"><polygon class="cls-10" points="1081.2133 1549.7652 1084.1237 1544.5722 889.1593 1653.5045 896.0039 1652.7886 1081.2133 1549.7652"/><polygon class="cls-10" points="1083.7104 1539.9637 1087.2053 1533.3703 868.0317 1657.2652 876.7988 1656.265 1083.7104 1539.9637"/><polygon class="cls-10" points="1074.5803 1534.4458 1077.9058 1526.42 832.5492 1667.1991 844.4913 1665.4833 1074.5803 1534.4458"/><polygon class="cls-10" points="1076.7452 1518.4423 1080.9299 1507.3481 795.9566 1674.288 812.1896 1671.8294 1076.7452 1518.4423"/><polygon class="cls-10" points="1074.2777 1500.1092 1079.1248 1484.4461 745.334 1685.5424 768.1924 1681.7937 1074.2777 1500.1092"/><polygon class="cls-10" points="1077.522 1465.9207 1084.4082 1440.1282 672.5851 1699.9675 707.1956 1694.0509 1077.522 1465.9207"/><polygon class="cls-10" points="1114.6302 1386.3782 1133.2325 1329.9915 575.0607 1711.8315 631.0881 1702.844 1114.6302 1386.3782"/></g><path class="cls-4" d="m1564.015,523.9541c-2.2572-5.2617-9.2471-11.899-17.6346-16.2455,1.3116,1.6614,2.3366,3.2886,2.9961,4.8041,12.3203,28.312,2.4304,123.5476,2.4304,123.5476-3.4308,31.4231-6.5856,45.4799-15.7474,57.2466-3.9089,5.0205-13.4353,14.5762-19.794,16.2677-2.7993.7448-5.4103,1.271-7.9308,1.5996,7.1126,1.0027,13.4566.6179,21.3894-1.5719,6.0803-1.6785,15.2877-10.7914,19.0813-15.564,8.8909-11.1854,17.5888-26.235,15.799-54.0165,0,0,10.7503-89.6343-.5894-116.0678Z"/><g class="cls-6"><g class="cls-9"><path class="cls-12" d="m1126.3251,787.0775l-52.9003-91.447c-1.3667-2.3628-4.4847-3.5643-6.951-2.6689l-89.2166,32.3924-.8677-.6223c-2.1202-3.9416-4.6635-7.9014-7.6836-11.8891-31.1719-34.4368-51.6522-75.7821-73.5125-117.1344-15.7274-30.7145-32.5023-61.9329-50.4006-94.9049l41.0713-16.4274c2.5243-1.0096,3.7539-3.9753,2.5171-6.3962-.0111-.0214-.0223-.043-.0339-.0644-.1077-.2049-.2126-.4118-.2946-.6282l-26.9933-71.1119c-.8104-2.4104-3.0366-4.3119-5.1574-4.2203-.3362.0145-.6618.0762-.969.1895l-71.2383,16.1436c-.2158-.1347-.4306-.2722-.6468-.4054-18.0235-10.8604-37.6701-16.3731-57.5923-12.2421-28.3294,5.8759-57.5967,12.2998-87.5384,19.3043-20.7452,4.8884-42.3114,20.3298-56.8916,42.5224-.9266,1.3972-1.824,2.8219-2.6928,4.2715l-91.6679,21.4222c-4.0756.9526-6.2475,4.958-4.7667,8.8872l43.2289,114.7034c1.4808,3.9292,5.7561,5.5049,9.4466,3.5305l45.0803-24.118c18.3313,50.9481,45.8973,98.4615,75.1872,142.5787,38.9733,58.5779,80.5932,111.6947,115.8652,169.1722,8.4006,14.045,17.2183,23.8022,26.3245,30.1567l-36.7386,89.947c-2.4158,5.9144.2086,11.5983,5.9067,12.4811l232.8801,36.0793c6.3138.978,10.5556-3.9352,9.4421-10.736l-28.433-173.6393,17.4828-22.0729c.6279-.1878,1.2514-.4517,1.854-.8117l125.4105-74.9281c2.3469-1.4021,3.0064-4.6909,1.4895-7.3135Z"/></g></g></g></svg>