<?xml version="1.0" encoding="UTF-8"?><svg id="Layer_2" xmlns="http://www.w3.org/2000/svg" xmlns:xlink="http://www.w3.org/1999/xlink" viewBox="0 0 329.8035 434.045"><defs><style>.cls-1{clip-path:url(#clippath-4);}.cls-1,.cls-2,.cls-3,.cls-4,.cls-5,.cls-6,.cls-7,.cls-8{fill:none;}.cls-2{clip-path:url(#clippath-2);}.cls-9{fill:#fcc79e;}.cls-10{fill:#fdb614;}.cls-3{clip-path:url(#clippath-5);}.cls-11{fill:#f5842e;}.cls-12{fill:#f6a0ad;}.cls-4{clip-path:url(#clippath-3);}.cls-13{fill:#ffdc8f;}.cls-6{clip-path:url(#clippath);}.cls-7{opacity:.25;}.cls-8{clip-path:url(#clippath-1);}.cls-14{fill:#ef3d5d;}</style><clipPath id="clippath"><path class="cls-5" d="m108.1124,401.0831c57.3908,0,89.1768-17.205,103.0759-27.5194,5.2301-3.8812,6.9056-10.9526,3.9604-16.7615l-96.338-190.0097c-4.4418-8.7607-16.9546-8.7607-21.3965,0L1.449,356.0667c-3.043,6.0017-1.1655,13.3621,4.4343,17.0934,15.401,10.2622,49.5572,27.923,102.2291,27.923Z"/></clipPath><clipPath id="clippath-1"><path class="cls-5" d="m108.1124,333.9863c57.3908,0,89.1768-17.205,103.0759-27.5194,5.2301-3.8812,6.9056-10.9526,3.9604-16.7615L118.8106,99.6957c-4.4418-8.7607-16.9546-8.7607-21.3965,0L1.449,288.97c-3.043,6.0017-1.1655,13.3621,4.4343,17.0934,15.401,10.2622,49.5572,27.923,102.2291,27.923Z"/></clipPath><clipPath id="clippath-2"><path class="cls-5" d="m108.1124,269.4806c57.3908,0,89.1768-17.205,103.0759-27.5194,5.2301-3.8812,6.9056-10.9526,3.9604-16.7615L118.8106,35.19c-4.4418-8.7607-16.9546-8.7607-21.3965,0L1.449,224.4642c-3.043,6.0017-1.1655,13.3621,4.4343,17.0934,15.401,10.2622,49.5572,27.923,102.2291,27.923Z"/></clipPath><clipPath id="clippath-3"><path class="cls-5" d="m221.3227,434.045c57.3908,0,89.1768-17.205,103.0759-27.5194,5.2301-3.8812,6.9056-10.9526,3.9604-16.7615l-96.338-190.0097c-4.4418-8.7607-16.9546-8.7607-21.3965,0l-95.9652,189.2743c-3.043,6.0017-1.1655,13.3621,4.4343,17.0934,15.401,10.2622,49.5572,27.923,102.2291,27.923Z"/></clipPath><clipPath id="clippath-4"><path class="cls-5" d="m221.3227,366.9483c57.3908,0,89.1768-17.205,103.0759-27.5194,5.2301-3.8812,6.9056-10.9526,3.9604-16.7615l-96.338-190.0097c-4.4418-8.7607-16.9546-8.7607-21.3965,0l-95.9652,189.2743c-3.043,6.0017-1.1655,13.3621,4.4343,17.0934,15.401,10.2622,49.5572,27.923,102.2291,27.923Z"/></clipPath><clipPath id="clippath-5"><path class="cls-5" d="m221.3227,302.4426c57.3908,0,89.1768-17.205,103.0759-27.5194,5.2301-3.8812,6.9056-10.9526,3.9604-16.7615l-96.338-190.0097c-4.4418-8.7607-16.9546-8.7607-21.3965,0l-95.9652,189.2743c-3.043,6.0017-1.1655,13.3621,4.4343,17.0934,15.401,10.2622,49.5572,27.923,102.2291,27.923Z"/></clipPath></defs><g id="Layer_4"><path class="cls-14" d="m108.1124,401.0831c57.3908,0,89.1768-17.205,103.0759-27.5194,5.2301-3.8812,6.9056-10.9526,3.9604-16.7615l-96.338-190.0097c-4.4418-8.7607-16.9546-8.7607-21.3965,0L1.449,356.0667c-3.043,6.0017-1.1655,13.3621,4.4343,17.0934,15.401,10.2622,49.5572,27.923,102.2291,27.923Z"/><g class="cls-7"><g class="cls-6"><polygon class="cls-12" points="191.174 322.0324 202.8723 345.7357 229.0303 349.5367 210.1022 367.9871 214.5705 394.0395 191.174 381.7392 167.7775 394.0395 172.2458 367.9871 153.3176 349.5367 179.4757 345.7357 191.174 322.0324"/><polygon class="cls-12" points="156.883 250.0254 168.5812 273.7286 194.7393 277.5296 175.8112 295.98 180.2795 322.0324 156.883 309.7322 133.4865 322.0324 137.9548 295.98 119.0266 277.5296 145.1847 273.7286 156.883 250.0254"/><polygon class="cls-12" points="132.6012 175.4196 144.2995 199.1228 170.4576 202.9238 151.5294 221.3742 155.9977 247.4266 132.6012 235.1264 109.2047 247.4266 113.6731 221.3742 94.7449 202.9238 120.903 199.1228 132.6012 175.4196"/><polygon class="cls-12" points="78.8477 250.0254 90.546 273.7286 116.7041 277.5296 97.7759 295.98 102.2442 322.0324 78.8477 309.7322 55.4512 322.0324 59.9196 295.98 40.9914 277.5296 67.1495 273.7286 78.8477 250.0254"/><polygon class="cls-12" points="54.8435 175.4196 66.5418 199.1228 92.6999 202.9238 73.7717 221.3742 78.24 247.4266 54.8435 235.1264 31.447 247.4266 35.9153 221.3742 16.9872 202.9238 43.1453 199.1228 54.8435 175.4196"/><polygon class="cls-12" points="110.9145 322.0324 122.6127 345.7357 148.7708 349.5367 129.8426 367.9871 134.311 394.0395 110.9145 381.7392 87.518 394.0395 91.9863 367.9871 73.0581 349.5367 99.2162 345.7357 110.9145 322.0324"/><polygon class="cls-12" points="31.7549 322.0324 43.4532 345.7357 69.6113 349.5367 50.6831 367.9871 55.1514 394.0395 31.7549 381.7392 8.3584 394.0395 12.8268 367.9871 -6.1014 349.5367 20.0567 345.7357 31.7549 322.0324"/></g></g><polygon class="cls-12" points="108.2966 131.6025 115.019 145.2236 130.0508 147.4078 119.1737 158.0103 121.7414 172.9814 108.2966 165.913 94.8518 172.9814 97.4195 158.0103 86.5424 147.4078 101.5742 145.2236 108.2966 131.6025"/><path class="cls-11" d="m108.1124,333.9863c57.3908,0,89.1768-17.205,103.0759-27.5194,5.2301-3.8812,6.9056-10.9526,3.9604-16.7615L118.8106,99.6957c-4.4418-8.7607-16.9546-8.7607-21.3965,0L1.449,288.97c-3.043,6.0017-1.1655,13.3621,4.4343,17.0934,15.401,10.2622,49.5572,27.923,102.2291,27.923Z"/><g class="cls-7"><g class="cls-8"><polygon class="cls-9" points="191.174 254.9357 202.8723 278.639 229.0303 282.4399 210.1022 300.8904 214.5705 326.9428 191.174 314.6425 167.7775 326.9428 172.2458 300.8904 153.3176 282.4399 179.4757 278.639 191.174 254.9357"/><polygon class="cls-9" points="156.883 182.9286 168.5812 206.6319 194.7393 210.4329 175.8112 228.8833 180.2795 254.9357 156.883 242.6354 133.4865 254.9357 137.9548 228.8833 119.0266 210.4329 145.1847 206.6319 156.883 182.9286"/><polygon class="cls-9" points="132.6012 108.3228 144.2995 132.0261 170.4576 135.8271 151.5294 154.2775 155.9977 180.3299 132.6012 168.0296 109.2047 180.3299 113.6731 154.2775 94.7449 135.8271 120.903 132.0261 132.6012 108.3228"/><polygon class="cls-9" points="78.8477 182.9286 90.546 206.6319 116.7041 210.4329 97.7759 228.8833 102.2442 254.9357 78.8477 242.6354 55.4512 254.9357 59.9196 228.8833 40.9914 210.4329 67.1495 206.6319 78.8477 182.9286"/><polygon class="cls-9" points="54.8435 108.3228 66.5418 132.0261 92.6999 135.8271 73.7717 154.2775 78.24 180.3299 54.8435 168.0296 31.447 180.3299 35.9153 154.2775 16.9872 135.8271 43.1453 132.0261 54.8435 108.3228"/><polygon class="cls-9" points="110.9145 254.9357 122.6127 278.639 148.7708 282.4399 129.8426 300.8904 134.311 326.9428 110.9145 314.6425 87.518 326.9428 91.9863 300.8904 73.0581 282.4399 99.2162 278.639 110.9145 254.9357"/><polygon class="cls-9" points="31.7549 254.9357 43.4532 278.639 69.6113 282.4399 50.6831 300.8904 55.1514 326.9428 31.7549 314.6425 8.3584 326.9428 12.8268 300.8904 -6.1014 282.4399 20.0567 278.639 31.7549 254.9357"/></g></g><polygon class="cls-9" points="108.2966 64.5057 115.019 78.1268 130.0508 80.3111 119.1737 90.9136 121.7414 105.8846 108.2966 98.8163 94.8518 105.8846 97.4195 90.9136 86.5424 80.3111 101.5742 78.1268 108.2966 64.5057"/><path class="cls-10" d="m108.1124,269.4806c57.3908,0,89.1768-17.205,103.0759-27.5194,5.2301-3.8812,6.9056-10.9526,3.9604-16.7615L118.8106,35.19c-4.4418-8.7607-16.9546-8.7607-21.3965,0L1.449,224.4642c-3.043,6.0017-1.1655,13.3621,4.4343,17.0934,15.401,10.2622,49.5572,27.923,102.2291,27.923Z"/><g class="cls-7"><g class="cls-2"><polygon class="cls-13" points="191.174 190.43 202.8723 214.1332 229.0303 217.9342 210.1022 236.3846 214.5705 262.437 191.174 250.1367 167.7775 262.437 172.2458 236.3846 153.3176 217.9342 179.4757 214.1332 191.174 190.43"/><polygon class="cls-13" points="156.883 118.4229 168.5812 142.1262 194.7393 145.9272 175.8112 164.3776 180.2795 190.43 156.883 178.1297 133.4865 190.43 137.9548 164.3776 119.0266 145.9272 145.1847 142.1262 156.883 118.4229"/><polygon class="cls-13" points="132.6012 43.8171 144.2995 67.5204 170.4576 71.3214 151.5294 89.7718 155.9977 115.8242 132.6012 103.5239 109.2047 115.8242 113.6731 89.7718 94.7449 71.3214 120.903 67.5204 132.6012 43.8171"/><polygon class="cls-13" points="78.8477 118.4229 90.546 142.1262 116.7041 145.9272 97.7759 164.3776 102.2442 190.43 78.8477 178.1297 55.4512 190.43 59.9196 164.3776 40.9914 145.9272 67.1495 142.1262 78.8477 118.4229"/><polygon class="cls-13" points="54.8435 43.8171 66.5418 67.5204 92.6999 71.3214 73.7717 89.7718 78.24 115.8242 54.8435 103.5239 31.447 115.8242 35.9153 89.7718 16.9872 71.3214 43.1453 67.5204 54.8435 43.8171"/><polygon class="cls-13" points="110.9145 190.43 122.6127 214.1332 148.7708 217.9342 129.8426 236.3846 134.311 262.437 110.9145 250.1367 87.518 262.437 91.9863 236.3846 73.0581 217.9342 99.2162 214.1332 110.9145 190.43"/><polygon class="cls-13" points="31.7549 190.43 43.4532 214.1332 69.6113 217.9342 50.6831 236.3846 55.1514 262.437 31.7549 250.1367 8.3584 262.437 12.8268 236.3846 -6.1014 217.9342 20.0567 214.1332 31.7549 190.43"/></g></g><polygon class="cls-13" points="108.2966 0 115.019 13.6211 130.0508 15.8053 119.1737 26.4079 121.7414 41.3789 108.2966 34.3105 94.8518 41.3789 97.4195 26.4079 86.5424 15.8053 101.5742 13.6211 108.2966 0"/><path class="cls-14" d="m221.3227,434.045c57.3908,0,89.1768-17.205,103.0759-27.5194,5.2301-3.8812,6.9056-10.9526,3.9604-16.7615l-96.338-190.0097c-4.4418-8.7607-16.9546-8.7607-21.3965,0l-95.9652,189.2743c-3.043,6.0017-1.1655,13.3621,4.4343,17.0934,15.401,10.2622,49.5572,27.923,102.2291,27.923Z"/><g class="cls-7"><g class="cls-4"><polygon class="cls-12" points="304.3843 354.9944 316.0826 378.6977 342.2407 382.4987 323.3125 400.9491 327.7808 427.0015 304.3843 414.7012 280.9878 427.0015 285.4561 400.9491 266.528 382.4987 292.686 378.6977 304.3843 354.9944"/><polygon class="cls-12" points="270.0933 282.9874 281.7915 306.6906 307.9496 310.4916 289.0215 328.942 293.4898 354.9944 270.0933 342.6942 246.6968 354.9944 251.1651 328.942 232.2369 310.4916 258.395 306.6906 270.0933 282.9874"/><polygon class="cls-12" points="245.8115 208.3816 257.5098 232.0848 283.6679 235.8858 264.7397 254.3362 269.208 280.3886 245.8115 268.0884 222.415 280.3886 226.8834 254.3362 207.9552 235.8858 234.1133 232.0848 245.8115 208.3816"/><polygon class="cls-12" points="192.058 282.9874 203.7563 306.6906 229.9144 310.4916 210.9862 328.942 215.4546 354.9944 192.058 342.6942 168.6615 354.9944 173.1299 328.942 154.2017 310.4916 180.3598 306.6906 192.058 282.9874"/><polygon class="cls-12" points="168.0538 208.3816 179.7521 232.0848 205.9102 235.8858 186.982 254.3362 191.4503 280.3886 168.0538 268.0884 144.6573 280.3886 149.1256 254.3362 130.1975 235.8858 156.3556 232.0848 168.0538 208.3816"/><polygon class="cls-12" points="224.1248 354.9944 235.823 378.6977 261.9811 382.4987 243.053 400.9491 247.5213 427.0015 224.1248 414.7012 200.7283 427.0015 205.1966 400.9491 186.2684 382.4987 212.4265 378.6977 224.1248 354.9944"/><polygon class="cls-12" points="144.9652 354.9944 156.6635 378.6977 182.8216 382.4987 163.8934 400.9491 168.3617 427.0015 144.9652 414.7012 121.5687 427.0015 126.0371 400.9491 107.1089 382.4987 133.267 378.6977 144.9652 354.9944"/></g></g><polygon class="cls-12" points="221.5069 164.5645 228.2293 178.1855 243.2611 180.3698 232.384 190.9723 234.9517 205.9433 221.5069 198.875 208.0621 205.9433 210.6298 190.9723 199.7527 180.3698 214.7845 178.1855 221.5069 164.5645"/><path class="cls-11" d="m221.3227,366.9483c57.3908,0,89.1768-17.205,103.0759-27.5194,5.2301-3.8812,6.9056-10.9526,3.9604-16.7615l-96.338-190.0097c-4.4418-8.7607-16.9546-8.7607-21.3965,0l-95.9652,189.2743c-3.043,6.0017-1.1655,13.3621,4.4343,17.0934,15.401,10.2622,49.5572,27.923,102.2291,27.923Z"/><g class="cls-7"><g class="cls-1"><polygon class="cls-9" points="304.3843 287.8977 316.0826 311.6009 342.2407 315.4019 323.3125 333.8523 327.7808 359.9047 304.3843 347.6045 280.9878 359.9047 285.4561 333.8523 266.528 315.4019 292.686 311.6009 304.3843 287.8977"/><polygon class="cls-9" points="270.0933 215.8906 281.7915 239.5939 307.9496 243.3949 289.0215 261.8453 293.4898 287.8977 270.0933 275.5974 246.6968 287.8977 251.1651 261.8453 232.2369 243.3949 258.395 239.5939 270.0933 215.8906"/><polygon class="cls-9" points="245.8115 141.2848 257.5098 164.9881 283.6679 168.7891 264.7397 187.2395 269.208 213.2919 245.8115 200.9916 222.415 213.2919 226.8834 187.2395 207.9552 168.7891 234.1133 164.9881 245.8115 141.2848"/><polygon class="cls-9" points="192.058 215.8906 203.7563 239.5939 229.9144 243.3949 210.9862 261.8453 215.4546 287.8977 192.058 275.5974 168.6615 287.8977 173.1299 261.8453 154.2017 243.3949 180.3598 239.5939 192.058 215.8906"/><polygon class="cls-9" points="168.0538 141.2848 179.7521 164.9881 205.9102 168.7891 186.982 187.2395 191.4503 213.2919 168.0538 200.9916 144.6573 213.2919 149.1256 187.2395 130.1975 168.7891 156.3556 164.9881 168.0538 141.2848"/><polygon class="cls-9" points="224.1248 287.8977 235.823 311.6009 261.9811 315.4019 243.053 333.8523 247.5213 359.9047 224.1248 347.6045 200.7283 359.9047 205.1966 333.8523 186.2684 315.4019 212.4265 311.6009 224.1248 287.8977"/><polygon class="cls-9" points="144.9652 287.8977 156.6635 311.6009 182.8216 315.4019 163.8934 333.8523 168.3617 359.9047 144.9652 347.6045 121.5687 359.9047 126.0371 333.8523 107.1089 315.4019 133.267 311.6009 144.9652 287.8977"/></g></g><polygon class="cls-9" points="221.5069 97.4677 228.2293 111.0888 243.2611 113.273 232.384 123.8756 234.9517 138.8466 221.5069 131.7782 208.0621 138.8466 210.6298 123.8756 199.7527 113.273 214.7845 111.0888 221.5069 97.4677"/><path class="cls-10" d="m221.3227,302.4426c57.3908,0,89.1768-17.205,103.0759-27.5194,5.2301-3.8812,6.9056-10.9526,3.9604-16.7615l-96.338-190.0097c-4.4418-8.7607-16.9546-8.7607-21.3965,0l-95.9652,189.2743c-3.043,6.0017-1.1655,13.3621,4.4343,17.0934,15.401,10.2622,49.5572,27.923,102.2291,27.923Z"/><g class="cls-7"><g class="cls-3"><polygon class="cls-13" points="304.3843 223.392 316.0826 247.0952 342.2407 250.8962 323.3125 269.3466 327.7808 295.399 304.3843 283.0987 280.9878 295.399 285.4561 269.3466 266.528 250.8962 292.686 247.0952 304.3843 223.392"/><polygon class="cls-13" points="270.0933 151.3849 281.7915 175.0881 307.9496 178.8891 289.0215 197.3396 293.4898 223.392 270.0933 211.0917 246.6968 223.392 251.1651 197.3396 232.2369 178.8891 258.395 175.0881 270.0933 151.3849"/><polygon class="cls-13" points="245.8115 76.7791 257.5098 100.4824 283.6679 104.2833 264.7397 122.7338 269.208 148.7862 245.8115 136.4859 222.415 148.7862 226.8834 122.7338 207.9552 104.2833 234.1133 100.4824 245.8115 76.7791"/><polygon class="cls-13" points="192.058 151.3849 203.7563 175.0881 229.9144 178.8891 210.9862 197.3396 215.4546 223.392 192.058 211.0917 168.6615 223.392 173.1299 197.3396 154.2017 178.8891 180.3598 175.0881 192.058 151.3849"/><polygon class="cls-13" points="168.0538 76.7791 179.7521 100.4824 205.9102 104.2833 186.982 122.7338 191.4503 148.7862 168.0538 136.4859 144.6573 148.7862 149.1256 122.7338 130.1975 104.2833 156.3556 100.4824 168.0538 76.7791"/><polygon class="cls-13" points="224.1248 223.392 235.823 247.0952 261.9811 250.8962 243.053 269.3466 247.5213 295.399 224.1248 283.0987 200.7283 295.399 205.1966 269.3466 186.2684 250.8962 212.4265 247.0952 224.1248 223.392"/><polygon class="cls-13" points="144.9652 223.392 156.6635 247.0952 182.8216 250.8962 163.8934 269.3466 168.3617 295.399 144.9652 283.0987 121.5687 295.399 126.0371 269.3466 107.1089 250.8962 133.267 247.0952 144.9652 223.392"/></g></g><polygon class="cls-13" points="221.5069 32.962 228.2293 46.5831 243.2611 48.7673 232.384 59.3698 234.9517 74.3409 221.5069 67.2725 208.0621 74.3409 210.6298 59.3698 199.7527 48.7673 214.7845 46.5831 221.5069 32.962"/></g></svg>