<?xml version="1.0" encoding="UTF-8"?><svg id="Layer_2" xmlns="http://www.w3.org/2000/svg" viewBox="0 0 382.6566 337.2895"><defs><style>.cls-1{fill:#cfcfce;}.cls-2{fill:#a9a8a9;}</style></defs><g id="Layer_4"><path class="cls-2" d="m135.0737,315.2047c-36.7536,3.8106-72.3151,7.7052-106.1314,11.6764-6.2365.7445-15.9767-1.1087-19.7908-4.2029-40.0747-31.6177,67.0432-61.2147,24.1163-100.0896-4.4989-4.0743-4.9602-5.2948,1.746-5.6022,35.9946-1.6496,83.804-3.826,119.6043-5.6756,6.6541-.3411,6.5178.6886,12.5255,3.602,61.3261,29.8841-32.1428,63.4025-22.2333,93.6802.8118,2.9585-2.9982,5.8974-9.8366,6.6116Z"/><path d="m174.0746,248.8429c-41.3336,2.7783-83.0063,5.6909-125.0242,8.7377-.5475.0388-.8529-.1247-.6677-.3651h0c.182-.2432.7851-.4726,1.3353-.5107,41.9486-3.0298,83.5417-5.9238,124.7943-8.685.5425-.0362.8956.1189.7728.3449h0c-.1246.2272-.6649.443-1.2105.4781Z"/><path d="m175.3724,246.2116c-41.0751,2.7221-82.4954,5.5783-124.2711,8.5698-.5512.0381-.8638-.1237-.7005-.366h0c.1663-.2405.742-.4694,1.2896-.5085,41.6966-2.9745,83.0317-5.8123,124.025-8.5168.5356-.036.9118.1205.8144.3457h0c-.0923.2262-.6144.439-1.1575.4758Z"/><path d="m172.4005,251.6255c-41.5847,2.8378-83.5117,5.8072-125.7584,8.9132-.5539.0393-.8435-.1215-.6396-.3645t0,0c.1987-.2399.8247-.4718,1.3771-.5124,42.1848-3.088,84.0341-6.0423,125.547-8.8611.5454-.0362.8776.1174.7345.3447q-.0001.0006,0,0c-.1429.2247-.7126.4451-1.2606.4802Z"/><path d="m110.3935,258.646c-22.0377,1.5818-44.1569,3.1981-66.3653,4.8535-.5586.0404-.8384-.1206-.6171-.3633t0,0c.2204-.2412.859-.473,1.4101-.5143,22.1773-1.646,44.2675-3.2547,66.2701-4.8266.5527-.0381.8585.12.66.3532h0c-.1915.2327-.8031.4574-1.3577.4975Z"/><path d="m170.2965,224.216c-38.6328,2.2344-77.4388,4.6022-116.5427,7.1027-.5192.0324-1.0635-.1313-1.2204-.3651h0c-.1603-.2321.118-.4527.6327-.4844,38.9973-2.4827,77.7052-4.8315,116.2409-7.0484.5043-.0292,1.1356.1245,1.3757.3444h0c.2485.2173.018.422-.4862.4508Z"/><path d="m167.2403,221.6792c-38.3391,2.1772-76.8237,4.4843-115.5797,6.927-.5108.0318-1.1003-.1297-1.311-.3641q-.0005.0002,0,0c-.2165-.2326.017-.4487.5254-.4808,38.6431-2.4226,77.0313-4.7134,115.2808-6.8727.5031-.0282,1.1683.1259,1.4668.3434.0014.0004.0016-.0004,0,0,.3006.2171.1232.4186-.3824.4473Z"/><path d="m172.8685,226.9078c-38.936,2.2962-78.0895,4.7245-117.5643,7.2878-.5144.0329-1.0279-.1297-1.1316-.3665t0,0c-.1106-.2346.2275-.4535.7399-.488,39.3634-2.5453,78.4199-4.955,117.2623-7.2323.513-.0292,1.0945.1257,1.2838.3447h0c.194.2178-.076.4249-.5901.4543Z"/><path d="m118.4728,233.0773c-20.6642,1.3001-41.4069,2.6361-62.2462,4.0084-.5299.0365-.9869-.1308-1.0515-.3666t0,0c-.0524-.2361.3174-.4572.8409-.4915,20.7824-1.3624,41.4725-2.69,62.084-3.9795.5185-.0316,1.0292.1268,1.137.3549q.0002-.001,0,0c.0965.2288-.2441.442-.7641.4743Z"/><path d="m152.526,273.9427c-42.7952,3.2852-85.7124,6.6969-128.5875,10.2344-.5676.047-.8412-.1114-.6283-.3517h0c.2109-.2402.8646-.4739,1.4263-.5208,42.9002-3.5215,85.8157-6.9191,128.6032-10.1889.5653-.0418.8374.1071.616.3352h0c-.2223.2275-.8684.4469-1.4296.4917Z"/><path d="m155.1352,271.2976c-42.7449,3.234-85.6634,6.5977-128.5978,10.087-.56.044-.8451-.1115-.6098-.3538q-.0025.0004,0,0c.2326-.2416.8782-.474,1.4476-.5205,42.9401-3.4738,85.8489-6.8217,128.5777-10.0402.5624-.042.8382.1081.6132.3366q.0006-.0004,0,0c-.2208.2275-.8682.448-1.4309.491Z"/><path d="m149.8131,276.7302c-42.8106,3.3361-85.6943,6.8-128.4577,10.3874-.5595.044-.8568-.1093-.6527-.3494h0c.2047-.2406.8347-.473,1.3982-.5211,42.8014-3.5722,85.7007-7.0209,128.51-10.3425.5633-.0454.8458.1048.6247.3334q-.0015,0,0,0c-.2205.2244-.8595.4498-1.4224.4921Z"/><path d="m85.9712,284.4465c-22.362,1.8343-44.706,3.7015-66.99,5.6036-.5623.0475-.8663-.1061-.6829-.347t0,0c.1873-.2391.8023-.4734,1.3622-.521,22.3157-1.8954,44.6754-3.755,67.0527-5.5811.5614-.0456.855.1067.6504.3391q-.0014-.0004,0,0c-.2052.2328-.8289.4593-1.3925.5063Z"/><path d="m134.1164,298.7585c-41.4195,3.7159-82.3019,7.5433-122.2301,11.4733-.5251.0522-.994-.095-1.0359-.3264t0,0c-.0373-.2307.3584-.4658.8904-.5143,40.101-3.9181,81.1188-7.7352,122.6457-11.4382.5477-.0491.9284.0932.853.3139t0,0c-.0737.222-.5762.4416-1.1231.4916Z"/><path d="m135.09,296.178c-41.746,3.6759-83.0418,7.4636-123.5056,11.3582-.5273.0492-.9735-.0954-.9744-.3295q.001,0,0,0c.0023-.2316.4397-.4627.9768-.5163,40.6214-3.8823,82.0368-7.6585,123.8717-11.3214.549-.0487.9156.0958.8121.3166h0c-.1014.2221-.6299.4449-1.1806.4923Z"/><path d="m133.4543,301.469c-41.0298,3.7576-81.4151,7.6244-120.711,11.5908-.5167.0533-1.0251-.0948-1.1052-.3231q-.0026.0006,0,0c-.0846-.2318.2736-.461.7915-.5132,39.4911-3.9549,80.0302-7.8115,121.1797-11.5563.536-.0492.9466.0901.9023.3111h0c-.0457.2208-.518.4401-1.0573.4907Z"/><path d="m75.704,309.6728c-20.7942,2.0378-41.3229,4.1054-61.51,6.1971-.5084.0514-1.0416-.0912-1.1799-.3197h0c-.1397-.2288.1752-.4597.6865-.5108,20.2984-2.0864,40.9288-4.1487,61.8114-6.1811.5264-.0514.9914.0916,1.0439.3142t0,0c.0473.2236-.3256.4494-.8518.5003Z"/><path class="cls-1" d="m322.6766,314.1908c-30.3777,7.1913-61.8314,14.6521-94.3763,22.3883-5.0165,1.1989-15.5427.8864-22.2411-.9853-92.1564-25.5479-24.4783-79.7331-163.2378-112.4204-12.7175-3.011-17.2874-5.7151-7.8076-6.1869,59.2935-2.9729,113.7619-5.6868,163.9931-8.1748,7.3226-.3586,20.2847,1.3687,27.6258,3.9461,83.746,29.0776,42.6539,71.321,96.3161,96.2573,3.9667,1.8738,4.2011,4.1116-.2722,5.1757Z"/><path d="m269.8756,250.0621c-39.1399,4.5263-80.6468,9.3269-124.7314,14.4252-.6001.068-1.2802-.1081-1.5234-.3935h0c-.2431-.2861.0431-.5776.6471-.6439,44.203-5.0486,85.807-9.7981,125.0362-14.2771.5038-.0572,1.0426.0962,1.1987.3402t0,0c.1594.2448-.1243.4929-.6272.5491Z"/><path d="m267.9727,247.2196c-39.4355,4.3757-81.2741,9.0171-125.7469,13.9534-.6001.0663-1.3198-.1123-1.5875-.3959t0,0c-.2708-.2825-.003-.5736.6021-.6378,44.6029-4.8851,86.5553-9.4789,126.0889-13.8069.5063-.0568,1.0626.0966,1.2417.3422q-.0003-.0009,0,0c.1726.2425-.094.4887-.5982.545Z"/><path d="m271.6581,253.068c-38.8609,4.6861-80.0477,9.654-123.7729,14.9268-.5974.071-1.2492-.1048-1.4664-.3908h0c-.2118-.2875.0917-.5773.6873-.649,43.8267-5.2203,85.102-10.1391,124.0463-14.7778.4982-.0595,1.0211.0922,1.159.3369q.0009.0007,0,0c.1381.2441-.1525.4964-.6533.5539Z"/><path d="m217.3049,263.1007c-21.6273,2.7166-43.9485,5.516-66.9722,8.408-.5842.0758-1.2301-.1002-1.4173-.3872q-.0007-.0001,0,0c-.1885-.2858.1268-.5829.7193-.6542,23.0789-2.8625,45.4376-5.638,67.1131-8.3275.5394-.0672,1.1012.0966,1.2554.3584h0c.1538.2639-.1641.5341-.6983.6025Z"/><path d="m238.7912,223.6222c-43.9158,3.1751-90.9434,6.5783-141.4436,10.2396-.6943.0501-1.8264-.1268-2.5497-.3944h0c-.7185-.2664-.7539-.5249-.0591-.5732,50.8626-3.6196,98.1874-6.9829,142.3713-10.1158.561-.0389,1.3996.1176,1.8674.3487h0c.4553.2307.3757.4552-.1864.4951Z"/><path d="m233.2171,220.9302c-44.7875,3.0459-92.8377,6.3182-144.5289,9.8468-.708.0469-1.9304-.1302-2.7249-.3918h0c-.7972-.2629-.8917-.5189-.1763-.5658,52.0983-3.4879,100.4891-6.7213,145.5675-9.727.5762-.0379,1.4652.1179,1.9778.3489h0c.5092.2286.4564.4499-.1153.4889Z"/><path d="m244.0796,226.4867c-43.0987,3.3134-89.1635,6.8605-138.5476,10.6646-.6715.0514-1.7346-.1262-2.3802-.3957q-.0007.0003,0,0c-.6447-.2691-.6259-.5308.052-.5827,49.6982-3.7626,96.0427-7.264,139.3691-10.5373.5544-.0412,1.3503.1153,1.76.3485h0c.4129.2336.2953.461-.2534.5025Z"/><path d="m187.2918,234.394c-23.9487,1.9544-48.7519,3.9803-74.4663,6.0818-.6579.0548-1.6526-.1244-2.2283-.3972h0c-.5752-.2724-.5056-.5388.1551-.5915,25.8701-2.0775,50.8105-4.079,74.8865-6.0115.594-.0491,1.4605.1193,1.9129.3717q.0003-.0009,0,0c.4556.2526.3272.4969-.2598.5468Z"/><path d="m281.6884,276.8971c-37.1833,5.9434-76.4616,12.2216-118.0074,18.8628-.5661.0906-1.1456-.0618-1.3058-.3367h0c-.1529-.2765.1873-.5731.7453-.6634,41.6287-6.593,80.972-12.8278,118.2205-18.7264.4819-.0738.9433.0574,1.0388.2942h0c.0932.2383-.2105.4939-.6915.5695Z"/><path d="m280.5938,274.1256c-37.3768,5.8017-76.8795,11.9335-118.6771,18.4221-.5649.0887-1.1509-.0676-1.3-.346q.0015-.0004,0,0c-.1481-.279.1927-.5795.763-.6657,41.8784-6.4405,81.4409-12.5245,118.8798-18.2817.4812-.0753.9417.063,1.0372.3015h0c.0927.2373-.2232.4951-.7029.5699Z"/><path d="m282.9081,279.7921c-36.9662,6.088-75.9955,12.5166-117.2565,19.3129-.5635.091-1.1522-.0539-1.3169-.3258.0004.0009.0013.0008,0,0-.1649-.2691.1576-.5714.7192-.66,41.3469-6.7522,80.4492-13.1365,117.4839-19.1812.4743-.0789.9459.053,1.0453.286,0-.0004-.0008-.0002,0,0,.0997.2345-.204.4899-.675.5681Z"/><path d="m231.0576,291.6668c-20.4843,3.474-41.5697,7.048-63.276,10.7299-.5538.0946-1.162-.0479-1.3358-.3137h0c-.1807-.2671.1305-.5637.6857-.6557,21.7598-3.6587,42.8866-7.2109,63.418-10.6624.5128-.0857,1.0371.0488,1.1768.2955.0036-.0006-.0012.0002,0,0,.1388.2454-.1603.5199-.6687.6064Z"/><path d="m298.503,301.1951c-34.2742,6.9908-70.1995,14.3217-107.8871,22.0159-.508.1035-1.2318.0138-1.6072-.2011h0c-.3695-.2148-.2567-.4778.26-.5807,37.879-7.6759,73.9674-14.9855,108.3819-21.9536.4432-.0897.9913.001,1.2242.1979h0c.2344.1985.0688.4315-.3717.5217Z"/><path d="m295.8672,298.8688c-34.7134,6.9157-71.1496,14.1743-109.4228,21.8043-.5166.104-1.2217.004-1.5587-.2194h0c-.3393-.2229-.1852-.4925.3358-.5958,38.4475-7.6058,75.0303-14.8417,109.8753-21.7311.4501-.088.979.0057,1.193.2108h0c.2131.2051.0204.4397-.4226.5312Z"/><path d="m301.5859,303.5722c-33.7661,7.058-69.0989,14.4524-106.111,22.1989-.4963.1042-1.2536.0253-1.6607-.1813t0,0c-.4154-.2039-.3261-.46.1705-.5641,37.2165-7.7332,72.7343-15.108,106.6542-22.1491.4414-.0908.9997-.0066,1.2598.1843h0c.2598.1905.1231.4206-.3128.5114Z"/><path d="m257.0931,316.1309c-18.3181,3.928-37.0687,7.9505-56.2631,12.0699-.4908.1058-1.2621.034-1.7185-.1609h0c-.45-.1945-.4144-.4404.0783-.5449,19.3154-4.1144,38.1759-8.1336,56.6015-12.0535.4555-.0979,1.1169-.0212,1.4754.1692h0c.3544.1876.2802.423-.1736.5203Z"/><path class="cls-1" d="m353.2275,307.6728c-44.4727,9.3677-87.4004,19.1089-128.0806,29.2178-6.0874,1.5435-16.3003-3.7827-21.1455-11.9194-61.5308-101.0249,67.4536-205.2378-4.6401-309.2305-5.8232-8.3809-6.7607-15.6738-.1191-16.2788,43.7905-4.0469,87.5015-7.708,131.3047-10.979,6.6123-.4907,19.2139,5.4604,26.2808,13.2788,87.4609,97.2104-18.9727,194.7886,4.4956,289.5532,1.7373,7.624-1.3809,14.9268-8.0957,16.3579Z"/><path d="m377.9248,108.4199c-48.7529,5.6211-97.8672,11.6279-147.3589,18.0264-.5439.0742-.8926-.3682-.7642-.9741.0288-.1387.0571-.2783.0859-.4199.1216-.6021.6646-1.1636,1.2124-1.2295,49.4097-6.3496,98.438-12.3066,147.0986-17.8838.5322-.0542.9297.3569.8647.9302-.0137.1318-.0283.2646-.0435.3965-.0645.5762-.5566,1.0938-1.0952,1.1543Z"/><path d="m378.6806,100.4849c-48.4629,5.4746-97.2852,11.3271-146.5059,17.5679-.5459.0693-.9023-.3691-.7969-.9785.0234-.1401.0469-.2798.0703-.4199.1055-.6104.6221-1.1562,1.1665-1.2275,49.1313-6.1934,97.8618-12.001,146.2275-17.4233.5322-.061.9434.3608.9072.9331-.0054.1348-.0171.2627-.0254.397-.041.5713-.5098,1.0947-1.0435,1.1514Z"/><path d="m376.7636,116.7905c-49.0361,5.7817-98.4355,11.9536-148.187,18.5093-.5527.0713-.875-.3623-.7354-.9707.0342-.1406.0674-.2793.0991-.4194.1431-.605.7056-1.1616,1.2534-1.2319,49.6763-6.5088,98.9927-12.6318,147.9497-18.3662.54-.0635.917.3545.8257.9258-.0195.1284-.0381.2642-.0605.396-.0933.5742-.6011,1.0879-1.145,1.1572Z"/><path d="m304.6796,133.9023c-26.0215,3.3086-52.1357,6.7227-78.3364,10.2456-.5527.0732-.8672-.3672-.7119-.9658.0396-.1372.0737-.2798.1094-.4204.1567-.6016.7388-1.1641,1.2856-1.2349,26.1694-3.4922,52.2456-6.8867,78.23-10.1714.5469-.0625.8877.3535.7544.9443-.0312.1362-.0625.271-.0923.4072-.1309.5864-.6943,1.1245-1.2388,1.1953Z"/><path d="m365.9604,33.0449c-45.6641,4.1572-91.5117,8.7021-137.6763,13.6406-.5073.0532-1.1021-.397-1.3174-1.0063-.0518-.1343-.1006-.2847-.1528-.4219-.2251-.6055.0093-1.1455.5127-1.2026,46.0371-4.8867,91.7666-9.3857,137.3301-13.4956.5034-.0396,1.1704.3833,1.4717.9609.0698.1338.1382.2676.208.3984.3003.5791.1294,1.0791-.376,1.1265Z"/><path d="m361.54,25.0952c-45.3315,4.0039-90.814,8.3926-136.5723,13.1748-.5068.0498-1.1357-.3994-1.4077-1.0107-.0664-.1401-.125-.2788-.1899-.4189-.2759-.6069-.0972-1.1538.4048-1.2012,45.6348-4.7319,90.9961-9.0786,136.23-13.0298.499-.043,1.2061.3916,1.5605.9653.0815.1323.1685.2622.2466.397.356.5762.2261,1.0771-.272,1.1235Z"/><path d="m369.8501,41.4341c-46.02,4.3228-92.2622,9.0308-138.8477,14.1313-.5151.0576-1.063-.3955-1.229-1.0034-.0386-.1377-.0767-.2773-.1152-.4204-.1699-.605.1094-1.1538.6191-1.207,46.4614-5.0518,92.5864-9.7129,138.5005-13.9863.5039-.0557,1.1289.3848,1.3789.958.0547.1333.1133.2622.1724.397.248.5708.0254,1.0835-.479,1.1309Z"/><path d="m306.6147,56.4868c-24.459,2.5454-48.9902,5.2007-73.6411,7.957-.5195.0576-1.0332-.3906-1.1475-.999-.0269-.1367-.0532-.2822-.0806-.4219-.1167-.6079.2017-1.1489.7188-1.21,24.5781-2.73,49.0547-5.3589,73.4536-7.8794.5117-.0513,1.0713.3853,1.2344.9756.0381.1323.0762.2749.1118.4087.1587.5845-.1353,1.1206-.6494,1.1689Z"/><path d="m359.7177,183.479c-50.3511,7.063-100.8159,14.5093-151.1865,22.333-.5493.0835-.8794-.3374-.7197-.9375.0356-.1353.0718-.2817.1108-.4175.1587-.6006.7505-1.167,1.3032-1.25,50.3999-7.7798,100.8745-15.1792,151.2178-22.1934.5552-.0747.8755.3276.7041.895-.041.1318-.0742.2656-.1167.394-.1621.5688-.7607,1.1011-1.313,1.1763Z"/><path d="m362.0434,175.5923c-50.3101,6.9111-100.7817,14.2061-151.2402,21.8843-.5552.0859-.8755-.333-.7021-.9419.0396-.1406.0786-.2812.1172-.417.1694-.6011.7681-1.1685,1.3232-1.2495,50.4746-7.6318,100.9404-14.8809,151.2319-21.7427.5537-.0776.874.3257.7017.8979-.0396.1304-.0786.2632-.1167.395-.1709.5728-.7529,1.0981-1.3149,1.1738Z"/><path d="m357.309,191.7944c-50.356,7.2197-100.7612,14.8203-150.9868,22.8062-.5566.0884-.8906-.3345-.7441-.9341.0347-.1387.0669-.2764.1006-.416.1484-.6045.7217-1.1641,1.2749-1.2529,50.2778-7.937,100.7017-15.4956,151.062-22.6665.5571-.083.8745.3223.7124.8906-.0361.1333-.0742.2622-.1138.394-.1641.5703-.751,1.0977-1.3052,1.1787Z"/><path d="m283.227,210.8887c-26.3379,4.0591-52.6416,8.2222-78.8672,12.4897-.5581.084-.8979-.3262-.7744-.9287.0283-.1396.0576-.2793.0874-.416.1279-.6016.6875-1.1689,1.2393-1.2554,26.2622-4.2388,52.5923-8.3853,78.9502-12.4165.5576-.083.8887.3232.7378.9067-.0337.1372-.0669.2661-.1011.4043-.146.5801-.7192,1.1328-1.272,1.2158Z"/><path d="m345.0991,257.8945c-48.5874,8.4697-96.4985,17.3184-143.2378,26.543-.5142.1025-1.0239-.3008-1.123-.8965-.022-.1377-.0474-.2764-.0679-.4116-.1006-.5942.2559-1.1665.7681-1.2671,46.9541-9.1821,95.0264-17.979,143.7446-26.4067.5342-.0942.958.2925.936.8555-.0054.1318-.0083.2627-.0142.3896-.021.5684-.4692,1.0996-1.0059,1.1938Z"/><path d="m345.4985,250.0913c-48.9824,8.3252-97.3994,17.0234-144.792,26.105-.52.1001-1.0083-.3101-1.062-.9023-.0132-.1372-.0269-.2759-.041-.4116-.0571-.5986.3306-1.1621.855-1.2671,47.5811-9.0322,96.1484-17.6865,145.2417-25.9658.5435-.0942.939.2964.895.8599-.0127.1318-.0215.2617-.0337.3906-.0449.562-.5254,1.1011-1.063,1.1914Z"/><path d="m345.1084,266.1182c-48.1118,8.6226-95.4106,17.6226-141.3911,27.0029-.5049.1021-1.0459-.2974-1.1909-.8921-.0371-.1367-.0664-.2744-.1006-.4116-.1387-.5957.1621-1.1621.6709-1.2671,46.2119-9.3291,93.7031-18.2871,141.9604-26.8667.5322-.0977.9727.291.9829.8496-.001.1299.0039.2637.0078.3896.0137.5596-.4053,1.0996-.9395,1.1953Z"/><path d="m278.4174,287.1123c-24.4058,4.7871-48.4819,9.6826-72.1411,14.6807-.4956.1045-1.0688-.2969-1.2646-.8877-.0454-.1377-.0903-.2744-.1353-.4116-.1963-.5889.0664-1.165.5654-1.2686,23.7959-4.9707,47.9961-9.8457,72.5073-14.6089.5171-.0981,1.0181.2964,1.125.8657.0273.1333.0479.2681.0747.3984.1069.5791-.2192,1.1299-.7314,1.2319Z"/></g></svg>