<?xml version="1.0" encoding="UTF-8"?><svg id="Layer_2" xmlns="http://www.w3.org/2000/svg" xmlns:xlink="http://www.w3.org/1999/xlink" viewBox="0 0 3225.3798 3363.9842"><defs><style>.cls-1{fill:#c8beba;}.cls-2{opacity:.46;}.cls-2,.cls-3,.cls-4,.cls-5{fill:none;}.cls-6{fill:#555554;}.cls-7{fill:#909039;}.cls-8{fill:#9f302e;}.cls-9{fill:#e4a573;}.cls-10{fill:#227b87;}.cls-11{fill:#a43f3b;}.cls-4{clip-path:url(#clippath);}.cls-5{clip-path:url(#clippath-1);}.cls-12{fill:#e5dcd5;}</style><clipPath id="clippath"><path class="cls-3" d="m1716.9058,3091.2986l377.2711,149.9967c18.1681,7.2233-9.7554,34.0425-52.67,56.9934l-32.4699,17.365c-32.6529,17.4628-73.6294,31.0038-97.1803,32.1986l-308.0528,15.6283c-88.3299,4.4812-191.7075-21.0525-213.5258-72.2697l-29.4798-69.2022c-54.5973-128.1643,157.8587-209.5304,356.1075-130.71Z"/></clipPath><clipPath id="clippath-1"><path class="cls-3" d="m959.0112,1291.2749s247.9726-150.4231,290.9043-150.4231,296.4615,782.3504,419.4659,725.6352c127.455-58.7672,326.5649-285.5112,326.5649-403.5733s4.782,324.2764-42.3759,446.5882c-47.158,122.3118-26.1502,336.4787-282.1874,327.5346-114.8396-4.0117-712.3718-945.7617-712.3718-945.7617Z"/></clipPath></defs><g id="Layer_4"><path class="cls-8" d="m1533.1384,86.2535s-74.5076,146.5356-216.4181,204.1596c-141.9105,57.6239-297.4853,4.5152-297.4853,4.5152,0,0,74.5076-146.5356,216.4181-204.1596,141.9105-57.6239,297.4853-4.5152,297.4853-4.5152Z"/><path class="cls-8" d="m1202.8117,63.6327c-.5742.9569-48.7642,39.0165-70.938,112.0347-25.1619,72.5259-13.8684,152.4371-14.9324,151.5145,1.3774-.0459-24.29-22.7649-38.2964-63.2175-14.9609-39.2986-18.2612-96.3311,5.7908-138.3576,23.1624-42.7866,57.3772-57.844,80.6716-62.4747,24.1272-4.6155,37.3337,1.1958,37.7043.5006Z"/><path class="cls-8" d="m1079.5261,17.9864c.3198-.1221,8.5415,11.8032,14.8293,36.8855,7.1426,24.6418,12.3525,62.4412,26.3633,103.8904,13.0459,42.5234,37.6133,73.8729,58.1558,90.5826,20.6445,17.3943,37.2642,20.1491,36.76,21.2878-.8462-.1104-9.7441,10.3964-31.2305,18.8931-21.0276,7.59-54.6443,13.17-94.3254-17.7347-40.3198-29.1832-60.0537-99.7786-50.5732-155.7263,6.3547-57.0638,41.9241-99.4799,40.0208-98.0785Z"/><path class="cls-11" d="m1124.3267,302.4925c-.1382-.5553,7.8182-6.5085,13.6801-21.2373,5.2549-14.377,8.4145-37.5301-15.316-64.3379-22.5503-27.207-74.0782-40.8426-114.9308-36.1182-41.6186,2.8336-72.5617,24.0263-71.6517,22.8197-.1169.2862,9.925,4.9801,29.5042,9.6343,19.2679,5.1069,48.0741,10.1748,78.2805,21.6694,30.9865,10.9047,53.0575,28.3161,65.0201,42.508,12.3703,14.2607,14.6315,25.3013,15.4135,25.062Z"/><path class="cls-8" d="m1206.8848,187.038s75.9243,218.1353-18.9832,338.3504c-94.9075,120.2151-324.7073,96.9871-324.7073,96.9871,0,0-75.9243-218.1353,18.9832-338.3504s324.7073-96.9871,324.7073-96.9871Z"/><path class="cls-9" d="m1393.3532,847.3455l-.0006.0002c-167.0959,62.9744-338.292-21.1504-376.1926-170.2512l-55.884-219.8473c-1.3467-5.298,2.609-11.5192,8.785-13.8467l474.6872-178.8981c6.176-2.3276,13.2538-.2647,15.7387,4.6043l103.1174,202.0461c69.9344,137.0281-3.1553,313.2182-170.2512,376.1926Z"/><path class="cls-11" d="m1045.1259,300.9922c-.072.443-56.4758,34.9241-82.7949,114.9005-27.6545,78.8799-20.6819,158.8013-23.0696,157.3091,1.6221.2545-27.4507-28.5034-40.0198-75.283-14.0642-45.5497-11.6243-109.121,18.4939-150.0864,29.2471-41.9676,65.6748-51.8638,89.6487-53.0632,24.8162-.9369,37.1785,6.8232,37.7417,6.223Z"/><path class="cls-8" d="m1646.5781,345.654c0,1.6641-38.2197,15.8525-98.0972,45.7783-59.8782,27.8658-141.4138,71.4694-228.042,84.3879-86.6296,13.0415-161.9514-25.3984-215.614-75.0162-53.6641-48.2893-85.6694-107.7562-85.6699-106.088,0-1.6641,38.2202-15.8522,98.0974-45.7781,59.8777-27.866,141.4128-71.4699,228.0417-84.3881,86.6289-13.0411,161.9497,25.3988,215.6135,75.0165,53.6633,48.2892,85.6711,107.7561,85.6704,106.0876Z"/><path class="cls-8" d="m1141.4211,529.0765c-37.6578,3.758-52.923-29.7293-53.7679-62.6689-1.2044-33.9127,12.0126-67.2774,23.0014-85.7627,46.2323-75.6968,13.2177-122.8398,13.4229-123.0765.6884.0276-51.1299,3.0381-91.1178,17.1161-20.3701,7.371-38.3051,17.933-50.3349,37.0389-12.2681,19.3507-18.6318,47.2457-21.3455,94.9306-.0871,24.747.3438,49.4124,8.1586,74.1585,7.8947,24.3713,23.1719,48.8219,54.6175,64.4886,27.2334,13.8694,60.3472,9.4412,83.6891,1.5749,23.6601-7.8206,37.5491-19.0792,33.6766-17.7995Z"/><path class="cls-11" d="m1127.6232,235.3857c.0808-.6154-9.3723,25.3474-11.7031,52.3558-3.6272,27.9675-.1306,56.9807-4.084,84.6202-8.9475,53.7042-35.2068,129.9922-36.4119,130.5014,1.9905-.7924-35.3137-14.7435-62.3496-56.6828-27.7839-39.4672-45.2996-106.9228-20.9985-157.6339,23.0393-51.0277,63.3157-64.0728,90.6643-64.3701,28.5225-.3308,44.1172,12.0861,44.8828,11.2094Z"/><path class="cls-9" d="m1771.8983,2504.9047h.0004c107.8668,11.7377,160.7781,12.6781,163.3014-78.8819l40.3413-369.2896c1.5566-56.4817-53.8044-116.5882-125.9691-138.5778h-.0003c-75.7637-23.0863-151.8239,1.1238-166.6883,59.4692l-79.5722,312.3343c-25.4444,99.8735,52.6964,202.335,168.5868,214.9458Z"/><path class="cls-9" d="m1939.4799,3113.9361l.0005-.0002c119.3988-61.2398,165.4536-131.2068,149.5337-224.8537-15.2659-89.8-153.814-463.0595-153.814-463.0595-22.3998-82.7027-79.2383-233.7588-169.8788-229.9049h-.0003c-99.0246,4.2104-179.9853,82.9683-170.4939,182.68l258.2789,479.6765c16.4776,173.1054,33.5324,198.2225,86.374,255.4618Z"/><path class="cls-9" d="m2422.851,1436.4334l.0002.0002c45.5422,44.7531,64.0726,68.367-7.4803,101.0872l-278.4545,145.6175c-44.1396,20.1845-110.2791,15.8684-151.9263-9.1964h-.0002c-43.7243-26.3149-50.1486-69.0762-9.0089-95.9242l220.2292-143.7228c70.4216-45.9575,177.7109-45.9433,226.6407,2.1387Z"/><path class="cls-9" d="m2960.7771,1302.1991c9.407,9.6893,19.05,50.5477,19.05,50.5477,12.7879,56.3531-67.1827,69.5601-146.5856,94.6559-76.1412,24.0649-417.8706,90.1181-417.8706,90.1181-72.9271,18.3896-211.4816,44.7731-238.904,2.4361v-.0002c-29.959-46.2531,5.103-110.0447,87.1406-140.1407l466.403-69.5296c160.031-35.1789,208.1018-51.4322,230.7665-28.0873Z"/><path class="cls-11" d="m1442.8361,1.4878c-3.2837,101.4345-136.2249,155.9376-197.6064,164.4772-126.6253,18.1525-148.9171,88.3287-149.444,88.6106,1.6555-.0638,179.79,176.3615,337.8708,17.8873,41.8781-41.4597,80.4249-82.9041,74.3179-159.4797-5.2874-66.0479-64.8599-123.0021-65.1384-111.4954Z"/><path class="cls-10" d="m2315.5218,1617.6162l-108.7303-187.9594c-2.8093-4.8565-9.218-7.3262-14.2876-5.4855l-183.3745,66.5789-61.7319-44.243c-25.4143-18.2146-65.0563-12.2977-89.4054,12.9481l-253.1916,262.5157c-30.0598,31.1671-38.6423,80.3152-17.6379,109.7801l57.7452,81.0031-81.7262,200.0899c-4.9653,12.1563.4283,23.8392,12.1404,25.6536l478.6596,74.1572c12.9772,2.0103,21.6962-8.0884,19.4074-22.0669l-58.4405-356.8967,35.9339-45.3683c1.2901-.3859,2.5721-.9284,3.8105-1.6682l257.7681-154.0067c4.8232-2.8816,6.1792-9.6416,3.0609-15.032Z"/><path class="cls-9" d="m1311.741,757.5169h164.8774c6.623,0,12,5.377,12,12v92.1585c0,44.0905-35.7959,79.8863-79.8863,79.8863h-29.1047c-44.0905,0-79.8863-35.7959-79.8863-79.8863v-92.1585c0-6.623,5.377-12,12-12Z" transform="translate(-210.0252 546.256) rotate(-20.6502)"/><path class="cls-7" d="m1945.5485,1612.6843c-28.2356,54.4928-61.0344,116.4433-101.6846,174.7398-40.2104,57.8486-88.3926,112.5037-138.3274,140.8132-59.3174,33.8853-126.6421,50.6311-168.8511-33.4377-57.7505-113.2369-114.3989-230.1593-177.6111-355.7145-61.7798-125.4269-130.1045-261.8724-177.1648-410.6039-18.9136-59.2778-14.2412-125.3253,11.8953-179.7997,25.5229-54.7455,72.1021-97.1654,122.3745-116.2646,71.1248-27.2496,143.2209-50.2366,212.0574-70.3818,97.5786-27.9348,163.7305,27.6299,187.3816,120.5135,38.4451,111.0264,94.198,213.146,142.499,302.9623,49.5562,90.1491,91.3076,169.8232,131.3252,244.1609,21.8928,59.4573-14.4109,120.9219-43.894,183.0125Z"/><path class="cls-9" d="m856.1049,1302.45l347.7946-111.5763c23.2882-10.6,28.0327-55.5406,11.2121-100.1723v-.0002c-16.8207-44.6318-49.8906-74.8496-74.1864-66.9231l-362.1919,73.3745c-38.3373,11.5944-52.8217,69.3713-30.7426,127.956v.0002c22.0792,58.5847,71.3541,93.1206,108.1142,77.3412Z"/><path class="cls-9" d="m399.1086,982.2059l53.2612,101.5965c8.2489,15.7348,3.3111,34.4849-11.3827,40.8851l-55.0023,23.9576c-14.6937,6.4002-31.429-2.9097-36.9169-19.8471l-35.4339-109.3616c-3.5822-11.0559,2.7169-23.733,13.8629-28.5879l41.7223-18.1731c11.146-4.8549,24.5049-.7403,29.8894,9.5306Z"/><path class="cls-9" d="m63.3156,1264.0535l89.133,4.9654c6.5753.3663,11.8185,5.3659,11.6516,11.1102l-1.2109,41.6773c-.1669,5.7443-5.6832,10.1445-12.2585,9.7782l-89.133-4.9654c-6.5753-.3663-11.8185-5.3659-11.6516-11.1102l1.2109-41.6773c.1669-5.7443,5.6832-10.1445,12.2585-9.7782Z"/><path class="cls-9" d="m38.4131,1183.2517l89.1287,5.0624c6.575.3734,11.7993,5.8055,11.6096,12.0712l-1.3763,45.4602c-.1897,6.2657-5.7244,11.0867-12.2994,10.7132l-89.1287-5.0624c-6.575-.3734-11.7993-5.8055-11.6096-12.0712l1.3763-45.4602c.1897-6.2657,5.7244-11.0867,12.2994-10.7132Z"/><path class="cls-9" d="m106.972,1039.6715l41.4548,10.6063c3.0581.7824,4.4636,6.3979,3.1232,12.4789l-9.7244,44.1197c-1.3403,6.081-4.939,10.4162-7.9971,9.6337l-41.4548-10.6063c-3.0581-.7824-4.4636-6.3979-3.1232-12.4789l9.7244-44.1197c1.3403-6.081,4.939-10.4162,7.9971-9.6337Z"/><path class="cls-9" d="m22.0271,1098.2984l87.3735,18.3143c6.4455,1.351,10.8053,7.4738,9.6885,13.6062l-8.1029,44.4929c-1.1168,6.1324-7.3041,10.0444-13.7496,8.6934l-87.3735-18.3143c-6.4455-1.351-10.8053-7.4738-9.6885-13.6062l8.1029-44.4929c1.1168-6.1324,7.3041-10.0444,13.7496-8.6934Z"/><path class="cls-9" d="m508.756,1186.6556v.0002c-2.1827,65.5243-62.4481,123.5545-138.5753,129.3076l-157.173,11.878c-10.9906.8306-19.8109-5.9411-19.5073-15.0554l8.0302-241.0554c.3036-9.1142,9.586-16.2118,20.5344-15.7761l156.5696,6.2303c75.8349,3.0177,132.3042,58.9465,130.1215,124.4707Z"/><path class="cls-9" d="m152.0869,1269.052l87.9403-5.4562c6.4873-.4025,11.792,4.3575,11.7882,10.5778l-.0243,39.8373c-.0038,6.2203-5.3147,11.6389-11.802,12.0414l-87.9403,5.4562c-6.4873.4025-11.792-4.3575-11.7882-10.5778l.0243-39.8373c.0038-6.2203,5.3147-11.6389,11.802-12.0414Z"/><path class="cls-9" d="m121.1436,1187.8925l87.7686,7.7427c6.4746.5712,11.0087,6.0702,10.0756,12.2201l-6.7694,44.6198c-.933,6.1499-6.9938,10.7143-13.4684,10.1431l-87.7686-7.7427c-6.4746-.5712-11.0087-6.0702-10.0756-12.2201l6.7694-44.6198c.933-6.1499,6.9938-10.7143,13.4684-10.1431Z"/><path class="cls-9" d="m465.7762,1297.7729l374.8325,8.0946c25.1558-4.8124,40.0537-55.1454,33.8289-111.9893v-.0002c-6.2249-56.8439-31.6052-102.2341-57.1339-100.8267l-377.9704-13.8276c-40.0742,1.1675-59.7816,46.3451-51.6107,120.9597v.0003c8.1709,74.6146,40.1638,93.9195,78.0536,97.5893Z"/><path class="cls-9" d="m146.6722,1049.9248l78.284,6.6126c5.775.4878,9.7541,5.9207,8.8425,12.0732l-6.614,44.6383c-.9116,6.1524-6.3824,10.7872-12.1574,10.2993l-78.284-6.6126c-5.775-.4878-9.7541-5.9207-8.8425-12.0732l6.614-44.6383c.9116-6.1524,6.3824-10.7872,12.1574-10.2993Z"/><path class="cls-9" d="m107.6903,1116.699l103.7411,9.1518c6.4746.5712,11.0087,6.0702,10.0756,12.2201l-6.7694,44.6198c-.933,6.1499-6.9938,10.7143-13.4684,10.1431l-103.7411-9.1518c-6.4746-.5712-11.0087-6.0702-10.0756-12.2201l6.7694-44.6198c.933-6.1499,6.9938-10.7143,13.4684-10.1431Z"/><path class="cls-9" d="m293.3659,953.5305l87.5711,13.7458c13.5626,2.1289,20.1476,13.076,13.9595,24.2211l-23.1637,41.719c-6.1881,11.1451-21.9005,16.6369-34.3004,12.4138l-80.0633-27.2677c-8.094-2.7566-10.6262-11.8441-5.9322-20.2983l17.571-31.6462c4.694-8.4542,15.505-14.2772,24.358-12.8875Z"/><path class="cls-9" d="m2046.4544,865.2766l-320.65,148.6874c-29.4177,10.6479-60.296-16.7454-68.3399-59.8966v-.0002c-7.844-42.0793,8.9846-83.8818,37.139-93.8063l307.5541-138.1791c26.8433-9.4157,58.8235,13.7691,71.4159,52.3297h0c12.9026,39.5105.8678,80.7885-27.1191,90.8651Z"/><path class="cls-9" d="m2129.5553,552.4173l14.8791,57.4355c2.3721,9.1565,10.3968,16.1609,17.6028,15.0542l26.0929-4.0073c6.7446-1.0358,9.0108-9.2172,5.3205-17.7296l-23.3962-53.9694c-2.3245-5.3621-8.3257-9.2814-13.477-8.9229l-19.7569,1.3752c-5.4085.3765-8.7287,5.1153-7.2653,10.7643Z"/><path class="cls-9" d="m2327.3702,602.1485l-29.4589,12.7852c-2.2609.9812-3.2436,3.6432-2.1725,5.91l7.7659,16.435c1.0696,2.2636,3.7755,3.2532,6.0021,2.2048l29.0128-13.6602c2.0575-.9687,2.9002-3.526,1.8825-5.6878l-7.389-15.6956c-1.0191-2.1648-3.554-3.1981-5.643-2.2915Z"/><path class="cls-9" d="m2316.5227,570.4982l-30.5873,9.4787c-2.3466.7272-3.595,3.7051-2.7626,6.6135l6.0343,21.0839c.831,2.9036,3.418,4.6105,5.7373,3.7977l30.2336-10.5952c2.1449-.7517,3.2453-3.6328,2.4554-6.4066l-5.7354-20.1404c-.7911-2.7781-3.2054-4.5039-5.3753-3.8315Z"/><path class="cls-9" d="m2256.0306,508.7819l-25.6646,18.3559c-1.9287,1.3794-2.0987,4.6017-.3752,7.1546l12.4447,18.4337c1.707,2.5285,4.6544,3.4421,6.5471,2.0361l25.1891-18.7117c1.8243-1.3552,1.9632-4.4946.3111-6.9822l-12.043-18.1331c-1.6677-2.511-4.5507-3.4826-6.4093-2.1533Z"/><path class="cls-9" d="m2311.5596,526.3089l-40.0844,19.379c-3.0719,1.4851-4.6239,4.9924-3.4349,7.7842l8.5919,20.1753c1.1795,2.7697,4.6281,3.7534,7.65,2.196l39.439-20.3267c2.8014-1.4438,4.1796-4.7944,3.0748-7.4546l-8.0465-19.3745c-1.1133-2.6805-4.3432-3.7548-7.1898-2.3785Z"/><path class="cls-9" d="m2159.4117,671.7753h0c23.2869,29.1156,62.6873,36.4064,87.5776,16.2995l46.2072-37.3271c2.9974-2.4214,3.1736-7.2735.3912-10.784l-73.9115-93.2522c-2.8068-3.5412-7.5741-4.4572-10.5936-2.0341l-46.5493,37.3548c-25.0748,20.122-26.47,60.5506-3.1216,89.743Z"/><path class="cls-9" d="m2297.0106,615.5464l-28.6495,19.175c-2.201,1.4731-2.4705,4.3958-.5876,6.4871l12.0571,13.3915c1.8823,2.0906,5.1881,2.541,7.3351,1.0088l27.9472-19.9444c1.9799-1.4129,2.1244-4.1942.3308-6.1877l-11.4888-12.769c-1.7942-1.9941-4.9146-2.5197-6.9442-1.1613Z"/><path class="cls-9" d="m2283.8528,580.8521l-28.1693,18.7799c-2.1627,1.4418-2.4466,4.7163-.6213,7.2674l13.197,18.4441c1.8126,2.5333,5.0196,3.361,7.1175,1.849l27.3304-19.6974c1.9378-1.3966,2.113-4.5181.3975-6.9453l-12.488-17.6689c-1.727-2.4434-4.7668-3.3601-6.7637-2.0288Z"/><path class="cls-9" d="m2230.3406,701.6743l-173.3701,157.5808c-16.8404,10.2289-48.5858-9.4351-70.4381-43.4588h0c-21.6993-33.7856-25.8336-69.6075-9.2927-79.8387l185.1505-137.1204c16.6965-10.5681,40.1671,3.0637,63.0168,36.6797h0c23.0131,33.8566,18.0031,52.1382,4.9336,66.1573Z"/><path class="cls-9" d="m2229.1504,527.962l-25.1952,21.0878c-1.9266,1.6126-1.6221,4.7417.6839,6.9445l16.6732,15.9275c2.2902,2.1877,5.6877,2.6079,7.5433.9431l24.2701-21.7755c1.7276-1.55,1.35-4.5363-.8331-6.6446l-15.8915-15.3464c-2.1975-2.1222-5.4575-2.6372-7.2507-1.1363Z"/><path class="cls-9" d="m2270.4838,546.2954l-33.0703,22.0429c-2.1624,1.4414-2.3596,4.6706-.4286,7.1667l13.961,18.0472c1.9175,2.4787,5.2075,3.2635,7.3018,1.7536l32.0362-23.097c1.909-1.3763,1.9903-4.4272.1886-6.788l-13.1156-17.1855c-1.8137-2.3765-4.9029-3.2531-6.8732-1.9399Z"/><path class="cls-9" d="m2155.9556,517.7031l-24.9181,24.2194c-4.0421,3.9288-2.7818,10.1428,3.0208,13.5464l21.4206,12.5645c5.6437,3.3104,12.5515,2.0014,15.2181-2.611l16.5179-28.57c1.6054-2.7767-.4001-6.9585-4.4014-9.4238l-15.1278-9.3203c-4.0819-2.5148-9.3192-2.7484-11.73-.4052Z"/><path class="cls-7" d="m1309.2514,1162.4306l-210.0102,112.3555c-7.585,4.058-16.3726.8194-19.4162-7.2567l-88.8523-235.7603c-3.0437-8.076,1.4205-16.3089,9.7971-18.2665l231.9276-54.2001c4.9914-1.1665,10.9164,2.8958,13.2224,9.0143l67.3156,178.6148c2.3059,6.1185.5358,13.0809-3.9839,15.499Z"/><path class="cls-7" d="m1821.2805,995.446l-180.6027,72.2358c-.6545.2618-1.2591.6259-1.8352,1.0319-6.5877,4.6424-14.8534,3.642-18.6413-2.54l-103.251-169.6022c-3.8696-6.3156-.6207-13.8789,7.0643-17.0685.4719-.1959.968-.337,1.4664-.45l232.2239-52.6251c.6307-.2329,1.3008-.3598,1.9918-.3896,4.3586-.1882,8.9341,3.7205,10.6001,8.6747l55.4819,146.1624c.1689.445.3842.8701.6061,1.2913.0233.0441.0462.0884.0689.1327,2.5428,4.9755.015,11.0714-5.1731,13.1465Z"/><path class="cls-7" d="m1771.9622,2836.1087c54.5087-104.8874,203.1353,78.6426,315.3246,46.4529,137.3427,189.6985,40.1078,364.0949-26.3378,402.7917l-50.695,29.5239c-51.3509,29.9059-129.8329,26.2791-179.3638-4.4587l-410.6096-18.8597c-44.7698-27.7832-66.9321-70.4276-65.7327-122.8346.6206-27.1179,25.1278-82.6682,25.1278-82.6682,80.4706-196.3889,308.5538-88.8257,392.2866-249.9472Z"/><path class="cls-7" d="m2913.6306,1246.2219c-71.0247,25.2207,45.3588,100.6518,16.0211,169.8162,143.6923,33.4295,162.4378,56.9543,214.5639,42.5649,12.4973-3.4499,31.4225-22.1805,39.2198-31.9901,18.274-22.9904,36.1519-53.9231,32.4734-111.0251,0,0,22.096-184.2334-1.2114-238.5646-7.7377-18.0373-42.5257-43.956-72.5927-42.7393-16.2986.6596-44.0229-1.3004-50.847,8.2259-78.4515,109.5165-70.2858,165.5955-177.6271,203.7122Z"/><path class="cls-12" d="m1716.9058,3091.2986l377.2711,149.9967c18.1681,7.2233-9.7554,34.0425-52.67,56.9934l-32.4699,17.365c-32.6529,17.4628-73.6294,31.0038-97.1803,32.1986l-308.0528,15.6283c-88.3299,4.4812-191.7075-21.0525-213.5258-72.2697l-28.44-66.7613c-54.5973-128.1643,156.8189-211.9713,355.0677-133.1509Z"/><g class="cls-4"><polygon class="cls-1" points="2222.3162 3185.3736 2228.2982 3174.6998 1827.57 3398.5984 1841.6383 3397.127 2222.3162 3185.3736"/><polygon class="cls-1" points="2227.4486 3165.2277 2234.6322 3151.6757 1784.1446 3406.3281 1802.1645 3404.2724 2227.4486 3165.2277"/><polygon class="cls-1" points="2208.6827 3153.8862 2215.518 3137.39 1711.2143 3426.7462 1735.7598 3423.2195 2208.6827 3153.8862"/><polygon class="cls-1" points="2213.1325 3120.9928 2221.7337 3098.1899 1636.0021 3441.3166 1669.3673 3436.2632 2213.1325 3120.9928"/><polygon class="cls-1" points="2208.0607 3083.311 2218.0234 3051.1174 1531.9528 3464.4489 1578.9359 3456.7438 2208.0607 3083.311"/><polygon class="cls-1" points="2214.7291 3013.0403 2228.883 2960.0266 1382.4254 3494.0981 1453.5636 3481.9371 2214.7291 3013.0403"/><polygon class="cls-1" points="2291.0009 2849.5493 2329.236 2733.6526 1181.9747 3518.4832 1297.1329 3500.0103 2291.0009 2849.5493"/></g><path class="cls-12" d="m3214.6625,1076.9306c-4.6394-10.8148-19.0064-24.4571-36.246-33.3908,2.6959,3.4149,4.8027,6.7594,6.1582,9.8743,25.323,58.1921,4.9955,253.9386,4.9955,253.9386-7.0516,64.5867-13.536,93.479-32.3671,117.6642-8.0343,10.3191-27.6148,29.9597-40.6845,33.4366-5.7537,1.5308-11.1203,2.6124-16.301,3.2877,14.6192,2.061,27.6586,1.2701,43.9636-3.2308,12.4974-3.4501,31.4222-22.1804,39.2196-31.9901,18.2743-22.9905,36.1518-53.9231,32.4731-111.025,0,0,22.096-184.2335-1.2114-238.5647Z"/><path class="cls-3" d="m1957.1021,1740.4422c-166.9025-25.6555-346.0436-71.9754-570.1233-362.2069-36.4056-47.1532-117.8254-207.1179-117.8254-207.1179-2.8966-5.9303-10.1195-8.4114-16.049-5.5142l-265.8336,108.7477c-5.93,2.8973-8.4115,10.1198-5.514,16.0497l46.7521,71.3886c2.8975,5.9299,10.1199,8.4112,16.0499,5.5139l157.5727-72.6434,364.8091,615.5068-74.0233,210.2542c-2.1915,6.2253,1.1085,13.1122,7.3341,15.3039l289.9769,130.3092c6.2256,2.1916-26.0731-318.7135-20.0779-321.4744,94.2741-43.4151,189.435-189.517,189.435-189.517,2.0668-3.0888,9.0097-14.3078,9.0097-14.3078,0,0-7.8054.2743-11.4931-.2925Z"/><g class="cls-2"><g class="cls-5"><path class="cls-6" d="m2315.451,1617.6152l-108.7305-187.9595c-2.8092-4.8564-9.2179-7.3262-14.2876-5.4854l-183.3745,66.5791-13.6497-9.7827c1.7097-17.2402.2028-34.3496-6.037-51.2959-40.0176-74.3379-81.769-154.0117-131.3252-244.1611-28.2867-52.5991-59.1254-109.4243-87.5504-169.7808l50.7136-20.2837c5.188-2.0752,7.7158-8.1714,5.1731-13.1465-.0227-.0444-.0457-.0889-.069-.1328-.2219-.4214-.4371-.8462-.6061-1.2915l-55.4819-146.1621c-1.6659-4.9546-6.2415-8.8628-10.6001-8.6748-.6909.0298-1.3611.1567-1.9917.3896l-57.4092,13.0098c-31.2588-65.9678-90.7434-100.6816-172.059-77.4028-68.8364,20.145-140.9326,43.1323-212.0574,70.3818-50.2725,19.0991-96.8516,61.519-122.3745,116.2646-3.4043,7.0952-6.4355,14.3906-9.1069,21.8379l-183.9282,42.9834c-8.3766,1.9575-12.8408,10.1904-9.7971,18.2661l88.8523,235.7603c3.0437,8.0762,11.8312,11.3149,19.4163,7.2568l112.5992-60.2407c43.6777,115.7383,97.5664,223.7031,147.234,324.5396,63.2122,125.5552,119.8606,242.4775,177.6111,355.7148,24.089,47.9785,56.3593,63.1113,90.652,60.9717l-64.156,157.0728c-4.9652,12.1562.4283,23.8394,12.1404,25.6538l478.6597,74.1572c12.9772,2.0103,21.6963-8.0884,19.4075-22.0669l-58.4406-356.897,35.934-45.3682c1.29-.3857,2.572-.9282,3.8103-1.6685l257.7681-154.0063c4.8232-2.8818,6.1792-9.6416,3.061-15.0322Z"/></g></g></g></svg>