<?xml version="1.0" encoding="UTF-8"?><svg id="Layer_2" xmlns="http://www.w3.org/2000/svg" xmlns:xlink="http://www.w3.org/1999/xlink" viewBox="0 0 299.9377 337.0007"><defs><style>.cls-1{fill:#a3a3a3;}.cls-1,.cls-2,.cls-3,.cls-4,.cls-5,.cls-6{stroke-width:0px;}.cls-3{fill:#cfcfce;}.cls-4{fill:#fcb561;}.cls-5{fill:none;}.cls-7{clip-path:url(#clippath);}.cls-8{opacity:.42;}.cls-6{fill:#e39a4a;}</style><clipPath id="clippath"><path class="cls-5" d="m124.4177,319.7719S21.0299,337.2701.3727,261.9014c-1.8276-6.6846,3.261-12.0981,10.9956-13.5845,102.5934-19.7153,158.8562,17.2521,255.4569-72.5702,4.8861-4.5432,13.0288-2.8286,17.0459,2.438,45.2729,59.4473-19.5107,98.3298-19.5107,98.3298l-139.9427,43.2574Z"/></clipPath></defs><g id="Layer_4"><path class="cls-4" d="m243.5317,97.0827l24.7841,83.2759c2.6612,9.9987-9.5955,1.2836-18.0787,3.0121l-31.7547,6.4701c-8.4832,1.7285-16.3405-5.7235-17.4076-16.0469l-6.8904-66.6565c-.6966-6.7387,4.0199-13.1171,10.4549-14.4282l24.0877-4.9079c6.435-1.3111,13.0676,2.7549,14.8047,9.2815Z"/><path class="cls-4" d="m190.6074,67.4374l44.9167,19.1474c6.9565,2.9655,9.2564,10.0314,4.7651,15.5548l-16.8117,20.6753c-4.4912,5.5234-13.4155,6.6043-19.5281,2.601l-39.4677-25.8486c-3.99-2.6132-4.3441-8.0987-.9373-12.2884l12.7526-15.6834c3.4068-4.1898,9.7695-6.0937,14.3103-4.158Z"/><rect class="cls-6" x="86.2943" y="99.175" width="61.2801" height="38.8228" rx="11.8482" ry="11.8482" transform="translate(265.4795 193.8904) rotate(161.4805)"/><rect class="cls-6" x="63.3576" y="134.2527" width="61.2801" height="38.8228" rx="11.8482" ry="11.8482" transform="translate(231.9355 269.5145) rotate(161.4805)"/><rect class="cls-6" x="63.143" y="175.8684" width="61.2801" height="38.8228" rx="11.8482" ry="11.8482" transform="translate(244.7356 350.6593) rotate(161.4805)"/><path class="cls-3" d="m144.9597,329.6406c-21.6323,14.924-53.3218,5.1021-76.3089-11.2049-23.7106-16.5686-40.3801-38.3047-49.3575-54.0167-2.8931-5.344,1.3702-13.3742,9.4111-16.9397,20.6561-7.1398,41.4544-17.8969,55.9611-34.6643,14.8117-16.473,22.5368-37.9882,24.84-59.262,2.5127-43.9929-7.4439-81.161-16.4495-122.7673-2.698-8.3217-1.4457-18.0472,3.9609-21.1812C112.7068.8231,124.8679-1.6969,138.3417,1.068c13.8804,2.8052,28.7163,9.7025,59.2158,20.5052,9.9887,3.8708,20.8051,15.8245,21.773,25.1953,4.7239,45.1868,8.8296,89.1368,3.0058,134.3457-5.6882,44.5883-21.3045,90.4365-52.8932,125.0838-5.987,7.2456-16.6713,18.91-24.4834,23.4425Z"/><path class="cls-2" d="m210.4514,73.85c-65.4386-21.1038-97.765-17.7404-109.1087-15.1343-.1065.0211-.2635-.3513-.3496-.8756-.0243-.1694-.0586-.3491-.0876-.5231-.0882-.519-.0712-.9625.0416-1.0064,11.9022-2.9144,43.3392-6.3188,109.1895,14.8873.6061.2143,1.178.8631,1.2408,1.429.0198.1874.046.3884.0674.5763.0586.5636-.3771.8709-.9934.6468Z"/><path class="cls-2" d="m209.4398,65.3572c-66.5978-21.3931-95.8916-18.1385-109.3438-14.381-.1207.0433-.281-.3439-.3721-.8738-.0228-.1824-.0544-.3528-.0847-.5314-.0844-.5211-.0538-1.0058.0763-1.0443,14.2966-4.2272,42.5149-7.3201,109.4028,14.168.6209.2227,1.1963.8704,1.2666,1.4459.0237.189.0478.382.067.5756.0756.5775-.3847.8576-1.0121.641Z"/><path class="cls-2" d="m211.4865,82.787c-63.8652-20.7866-98.7132-17.8754-108.7588-16.0358-.0997.0315-.2582-.3701-.3434-.8786-.0325-.1765-.0683-.3395-.0915-.5129-.0962-.5094-.0775-.9514.0161-.9782,10.3296-2.0288,44.5079-5.1314,108.8746,15.7595.5954.2242,1.1454.8476,1.2072,1.4191.0163.1961.0476.3792.0636.5763.0635.5709-.3692.8672-.9677.6507Z"/><path class="cls-2" d="m141.3941,75.4246c-19.7026-2.1845-31.7863-1.8096-37.2016-.721-.0953.0252-.2548-.3767-.3489-.878-.0293-.1633-.0633-.344-.0963-.5111-.0994-.5076-.0908-.9364.0036-.9603,5.4018-1.1704,17.4139-1.6339,37.0681.4713.3641.0408.7452.5378.8749,1.0903.0397.1909.0871.3774.1262.5649.122.5551-.0591.9732-.4259.9439Z"/><path class="cls-2" d="m216.1625,136.3642c-49.1293-16.3086-87.1708-20.8443-104.295-21.8128-.1737-.0122-.3844-.4487-.4694-.9754-.0274-.1756-.0543-.3511-.0894-.5337-.0977-.5253-.0271-.9539.1387-.9499,16.3332.7057,54.5939,4.878,104.5808,21.5653.4683.1678.8729.772.899,1.3485.0091.1951.0165.3908.0249.5885.0262.5589-.3307.9288-.7896.7695Z"/><path class="cls-2" d="m215.6834,127.7308c-51.8627-17.4657-90.4949-20.7682-105.1999-20.9985-.157-.0048-.3478-.4284-.4441-.9453-.0325-.1824-.0602-.3474-.096-.5254-.0949-.5198-.0644-.9467.0861-.9474,14.0179.0527,52.7804,2.9465,105.4757,20.7273.4855.1635.9269.7855.9595,1.3638.017.1936.023.3868.0365.5815.036.5776-.3406.9143-.8178.744Z"/><path class="cls-2" d="m216.5041,145.5257c-46.1871-14.8518-83.3278-20.5662-103.3443-22.5807-.1967-.0218-.428-.4727-.4927-1.0124-.0196-.1729-.0408-.365-.0763-.5424-.079-.5308.0196-.9601.208-.9471,19.1247,1.6662,56.5716,7.0543,103.6226,22.36.4448.158.8151.7473.8319,1.3302-.0005.1892.0053.3984.0142.5887.0116.573-.3302.9536-.7633.8036Z"/><path class="cls-2" d="m160.4906,140.0215c-18.4991-4.0597-33.8788-6.749-46.2827-8.528-.2284-.0328-.4534-.5023-.5111-1.0539-.019-.1867-.0393-.3667-.0578-.5532-.0613-.5462.0762-.9657.2882-.9412,11.9451,1.5491,27.1272,4.0494,45.7345,8.0645.3364.071.7608.6583.9406,1.3087.0622.2196.1132.4468.1796.6552.1774.6573.0416,1.1201-.2913,1.0479Z"/><path class="cls-2" d="m212.5227,207.3648c-28.8674.7224-58.7735-7.9313-100.6769-25.9533-.3884-.1722-.6034-.7544-.4693-1.3241.0446-.1882.0931-.3811.1315-.5662.1288-.5642.5401-.8837.9303-.7313,41.024,16.9711,71.1104,25.6303,100.5525,25.8014.2863.0094.4504.4939.3449,1.0877-.0351.2117-.0715.3994-.1035.6002-.1076.5937-.4325,1.086-.7095,1.0856Z"/><path class="cls-2" d="m213.9118,198.4918c-30.8186-2.0735-61.3733-10.7416-100.3831-25.4925-.3678-.1408-.5926-.7107-.4967-1.2778.0314-.1929.0626-.381.09-.5729.0848-.5637.4475-.916.8085-.7931,38.0535,13.7913,68.8694,22.4436,100.3504,25.3608.3016.0329.5072.5376.4147,1.1329-.0243.1981-.0612.4028-.0839.6025-.0812.6005-.3964,1.0699-.7,1.0401Z"/><path class="cls-2" d="m210.7036,216.7003c-27.1037,3.8292-56.676-4.7784-101.3219-26.5455-.42-.2083-.6018-.8251-.431-1.3653.0655-.1845.1147-.3644.178-.5547.1849-.5544.6505-.8384,1.0597-.6523,43.8659,20.6285,73.4975,29.2494,101.0938,26.355.2769-.0221.4009.4491.2733,1.0356-.0369.201-.0905.4043-.1268.5953-.1267.591-.4527,1.0991-.7251,1.1321Z"/><path class="cls-2" d="m167.8794,225.3436c-16.9585-4.201-37.5135-13.5355-61.7035-26.6624-.441-.2404-.6135-.86-.3842-1.4009.0807-.1855.1518-.3518.2255-.5388.2218-.5409.7564-.7809,1.1879-.5582,23.8552,12.5369,44.2177,21.5191,61.1421,25.7175.3137.0834.4916.7408.3882,1.486-.0278.2506-.0668.4976-.1015.7479-.1011.7485-.4408,1.2902-.7546,1.2089Z"/><path class="cls-2" d="m188.4811,276.2841c-26.2219,25.5111-66.3108,9.7691-114.3998-37.5163-.4666-.4359-.4487-1.0857.0275-1.4362.1613-.1159.324-.2385.4843-.3547.4724-.3617,1.2448-.285,1.7209.1439,48.6954,46.4556,87.775,61.2574,113.5489,36.6467.2543-.2093.2323.0532-.0655.5884-.0972.1852-.2059.3635-.2985.5436-.2951.5429-.7607,1.1638-1.0177,1.3846Z"/><path class="cls-2" d="m192.774,268.1728c-24.9868,22.5946-62.0133,9.5617-111.7409-34.8772-.4816-.4112-.5062-1.0696-.0578-1.4547.1523-.1313.2929-.2632.4471-.3956.4366-.3867,1.1889-.3798,1.6685.0175,50.0649,43.4295,86.2462,55.7961,110.9491,34.1386.2548-.192.2336.1059-.0357.6561-.0929.1811-.1862.3733-.2749.5566-.2818.5413-.7105,1.1565-.9554,1.3587Z"/><path class="cls-2" d="m183.5518,284.6433c-28.11,28.366-71.95,8.6879-117.3559-40.7744-.4492-.4599-.3988-1.0996.1201-1.4001.1695-.1051.3456-.2067.5165-.3109.515-.3017,1.2967-.1891,1.7545.2726,46.3192,48.9242,88.969,67.3174,116.4671,39.7589.2747-.2383.2391-.0075-.0871.5165-.1026.1698-.2161.3617-.3246.5298-.3321.5411-.8106,1.1585-1.0905,1.4076Z"/><path class="cls-2" d="m125.2396,302.4159c-22.4143-8.2867-44.5895-27.8682-67.4078-54.1485-.4261-.4871-.32-1.0888.2173-1.35.1906-.0944.3618-.1824.5454-.267.536-.2696,1.3316-.0922,1.7588.3872,23.3263,26.1109,45.6299,45.3056,67.6912,53.1845.3974.1362.2343.647-.36,1.1271-.199.1493-.4055.3216-.6074.4792-.6075.4797-1.428.7243-1.8375.5874Z"/><rect class="cls-6" x="62.2754" y="213.9918" width="61.2801" height="38.8228" rx="11.8482" ry="11.8482" transform="translate(255.1544 425.2074) rotate(161.4805)"/><path class="cls-4" d="m277.299,232.5006h0c-8.28,36.904-46.5282,62.0293-87.4996,55.4308l-84.5901-13.6233c-5.9151-.9526-9.8536-5.9386-8.7018-11.0718l30.4614-135.7646c1.1517-5.1332,6.8428-7.9586,12.5979-6.2928l82.3017,23.822c39.8631,11.5383,63.7106,50.5958,55.4306,87.4997Z"/><rect class="cls-4" x="55.7618" y="231.1775" width="61.2801" height="35.7896" rx="5.4775" ry="5.4775" transform="translate(86.804 512.7049) rotate(-160.956)"/><rect class="cls-4" x="57.6002" y="189.8016" width="61.2801" height="38.8228" rx="9.4766" ry="9.4766" transform="translate(103.3861 435.7676) rotate(-160.956)"/><rect class="cls-4" x="80.5869" y="112.6956" width="61.2801" height="38.8228" rx="8.6838" ry="8.6838" transform="translate(173.2606 293.2762) rotate(-160.956)"/><rect class="cls-4" x="57.8788" y="149.0577" width="70.0733" height="38.8228" rx="8.9199" ry="8.9199" transform="translate(125.775 358.0354) rotate(-160.956)"/><g class="cls-8"><g class="cls-7"><path class="cls-1" d="m268.3089,180.4693c-.0034-.0112-.0049-.021-.0078-.0322l-24.7842-83.2764c-.2598-.9766-.6406-1.8896-1.103-2.7466-.6309-3.2021-3.0483-6.1074-6.9043-7.751l-44.917-19.1475c-4.5405-1.936-10.9033-.0317-14.3101,4.1577l-12.7529,15.6836c-3.4067,4.1899-3.0527,9.6753.9375,12.2886l31.02,20.3159,1.8633,18.0254-49.0547-14.1987c.8496-2.4048.9478-5.0928.0796-7.6841l-4.8047-14.3428c-2.0698-6.1792-8.8188-9.5415-14.998-7.4717l-35.6372,11.9375c-.0566.019-.1089.0449-.1646.0649-3.1318.4424-5.9233,2.5747-7.0215,5.7549l-7.0005,20.2808c-.6992,2.0254-.5923,4.1401.1396,5.9995l-8.8896,2.9775c-.0972.0327-.1875.0767-.2832.1113-2.9258.6553-5.4658,2.7549-6.5107,5.7817l-.0015.0049c-.479.9478-.8247,1.9609-1.0381,3.0078l-5.8071,16.8218c-1.6006,4.6377.8838,9.7417,5.5215,11.3423l10.5767,3.6509-2.6724.895c-2.4009.8047-4.3687,2.3203-5.7656,4.2295-.6382.8086-1.1602,1.7275-1.5142,2.7524l-.0005.001c-.0171.0439-.0298.0898-.0459.1338l-6.437,18.6475c-1.7007,4.9268.939,10.3491,5.8657,12.0503l4.4688,1.542c-1.0239.6499-1.9248,1.4434-2.6885,2.3477-.9873.6416-1.7793,1.5977-2.1909,2.7905l-8.1035,23.4756c-.9829,2.8477.543,5.9819,3.3906,6.9648l46.2183,15.9541c.0757.0273.1528.0532.229.0791l1.123.3877c.6528.2251,1.3198.313,1.9727.2891l83.4785,13.4443c40.9717,6.5981,79.2197-18.5269,87.5-55.4307v-.0005c4.0405-18.0088.4131-36.5225-8.9756-52.1094Z"/></g></g></g></svg>