<?xml version="1.0" encoding="UTF-8"?><svg id="Layer_2" xmlns="http://www.w3.org/2000/svg" xmlns:xlink="http://www.w3.org/1999/xlink" viewBox="0 0 1423.358 1252.4442"><defs><style>.cls-1{fill:#f3bcd7;}.cls-2{fill:#636464;}.cls-3{clip-path:url(#clippath-2);}.cls-3,.cls-4,.cls-5,.cls-6,.cls-7{fill:none;}.cls-8{fill:#da58a0;}.cls-9{fill:#da84b7;}.cls-10{fill:#fff8ee;}.cls-11{fill:#e2c1dc;}.cls-12{fill:#edc28a;}.cls-13{fill:#ffd79d;}.cls-14{fill:#494949;}.cls-15{fill:#e2dbd3;}.cls-5{clip-path:url(#clippath);}.cls-6{clip-path:url(#clippath-1);}.cls-16{fill:#d8a0c8;}.cls-7{opacity:.34;}</style><clipPath id="clippath"><path class="cls-4" d="m394.0404,939.1435l-136.1346-157.531c1.7168-.6697,2.8316-1.5936,3.09-2.7278,10.8204-48.9994,47.695-80.3663,88.1017-106.1609,20.1629-12.9328,41.0647-24.5988,60.7988-35.7105,19.8549-11.0059,38.5418-21.4577,57.069-29.5172,6.4601-2.8408,11.3927-11.9037,9.248-21.4543-7.2764-34.0248-34.1258-78.9943-67.58-123.1362-31.171-41.0649-68.0217-81.4128-103.2447-114.3185-1.5253-4.1731-3.1385-8.4233-4.8839-12.7891-7.3969-18.7799-17.1932-39.6589-28.1361-61.541-1.6957-3.4037-4.6781-4.4684-6.8592-2.5677-13.9139,12.234-34.7431,18.4188-55.5346,24.636-20.9603,6.0695-41.883,12.1722-59.8763,20.8376-2.8396,1.3267-4.3906,4.6561-3.5218,7.3381,5.6384,17.2415,10.8061,34.0711,18.3738,53.0002,3.9091,9.9255,8.4941,20.442,13.5592,31.3787-10.2856,10.9095-19.814,22.3267-28.3775,34.3868-27.5432,37.5267-50.0564,77.4592-72.2172,114.2757-21.6119,37.2964-42.687,71.638-51.1747,112.1375-4.1073,20.3692-4.7809,42.5284-.9603,67.2273,2.5417,16.9109,7.2095,35.0231,13.3613,53.7169l3.4966,193.5242c.0903,4.9818,2.5767,9.2806,5.5241,9.4718l199.524,12.9472c2.9475.1912,3.7509-3.8942,1.8169-8.9954l-28.9624-76.3932c-1.055-2.783,2.9079-4.6065,4.3351-1.9946l44.0467,80.6089c2.7211,4.98,6.4428,8.4145,8.2254,7.5502l120.6788-58.497c1.783-.864.0509-5.263-3.7856-9.7026Z"/></clipPath><clipPath id="clippath-1"><path class="cls-4" d="m445.8015,1147.9586l-74.1558-202.8512c-13.9835-38.2515,8.4801-71.8692,45.7681-71.897l28.6514-.0214c29.2023-.0218,56.2129,25.161,62.6862,54.3662l36.4887,164.623c4.2824,19.3206-6.3764,43.7543-24.9661,56.0616l-17.6844,11.708c-22.233,14.7194-48.571,10.4885-56.7881-11.9891Z"/></clipPath><clipPath id="clippath-2"><path class="cls-4" d="m854.5205,1034.4531l-137.1607-151.3883c-27.0364-29.8409-17.1199-56.3988,16.8225-56.3948l24.47.0029c23.6251.0028,52.5776,17.3261,66.9262,37.3635l80.337,112.188c9.3686,13.0829,10.8063,32.1814,2.7181,44.3105l-7.9862,11.9761c-10.4693,15.6999-31.5417,18.0402-46.1269,1.942Z"/></clipPath></defs><g id="Layer_4"><path class="cls-12" d="m434.6115,224.053h0c10.005,20.8046,36.2085,30.4786,59.6632,20.9135l48.4249-19.7483c3.3862-1.3809,5.0416-4.8881,3.65-7.7819l-36.8073-76.537c-1.3917-2.8938-5.1648-3.7903-8.3577-2.0073l-45.6599,25.4978c-22.1155,12.3499-30.9183,38.8588-20.9133,59.6633Z"/><path class="cls-12" d="m445.7671,132.6258l-1.3282,40.7556c-.2057,6.3121,3.9396,11.6183,9.2221,11.4781l19.7735-.525c5.2825-.1402,8.9287-5.6534,8.1418-11.9391l-5.0807-40.5855c-.5136-4.103-4.1965-7.2464-8.2036-7.1401l-14.9993.3982c-4.007.1064-7.3912,3.4375-7.5255,7.5577Z"/><path class="cls-13" d="m468.4612,153.1574l7.2762-22.1672c1.1269-3.4332-1.4564-6.3685-5.7967-6.3523l-16.2468.0604c-4.3403.0161-8.1588,2.9753-8.4702,6.4054l-2.0103,22.1476c-.2032,2.239,2.3305,3.9919,5.6228,3.9796l12.3241-.0458c3.2923-.0122,6.5652-1.7867,7.3008-4.0277Z"/><rect class="cls-13" x="-33.5725" y="984.7267" width="379.0098" height="158.5371" rx="79.2685" ry="79.2685" transform="translate(1188.0122 761.9819) rotate(82.0267)"/><path class="cls-12" d="m439.0991,502.7457l-85.4125-116.6365c-1.8708-2.5547-1.5129-6.1092.8295-8.2397l133.9774-121.8536c2.4746-2.2507,2.7145-6.0597.5419-8.6031l-42.7657-50.0644c-2.1726-2.5434-5.9724-2.9017-8.5821-.8092l-172.1104,137.9958c-8.0887,6.4853-14.1497,14.4859-17.9688,23.009-8.1911,15.6231-7.3715,35.2022,3.7538,50.3944l110.7254,151.2028c15.573,21.2662,45.4371,25.8812,66.7032,10.308h0c21.2663-15.5732,25.8815-45.4373,10.3082-66.7035Z"/><path class="cls-13" d="m287.9965,318.4838l-56.4772-133.0778c-1.237-2.9148-.0758-6.2933,2.6918-7.8316l158.2924-87.9872c2.9237-1.6251,4.0283-5.2784,2.4949-8.2512l-30.1839-58.5173c-1.5334-2.9728-5.1506-4.1905-8.1696-2.7503l-199.1063,94.9815c-9.3574,4.4638-17.0874,10.8663-22.7543,18.2903-11.5467,13.3361-15.2261,32.5837-7.8697,49.9174l73.2148,172.5166c10.2973,24.2639,38.3147,35.5859,62.5785,25.2884h0c24.264-10.2974,35.5861-38.3148,25.2886-62.5788Z"/><path class="cls-12" d="m340.8113,886.4451l100.9437,138.0469c2.211,3.0236,6.3468,3.8922,9.5874,2.0135l185.3412-107.4545c3.4233-1.9847,7.804-.8921,9.8942,2.4678l41.1441,66.1366c2.0902,3.3599,1.1343,7.7725-2.1589,9.9662l-217.189,144.6736c-10.2072,6.7993-21.3972,10.77-32.374,12.0259-20.547,3.6445-42.3296-4.2866-55.4777-22.2676l-130.8592-178.9584c-18.405-25.1698-12.9209-60.494,12.2491-78.8989h.0001c25.1699-18.4052,60.4943-12.9211,78.8992,12.249Z"/><path class="cls-13" d="m364.9095,414.814h64.271c3.2222,0,5.8383,2.6161,5.8383,5.8383v32.1355c0,20.9583-17.0155,37.9738-37.9738,37.9738h0c-20.9583,0-37.9738-17.0155-37.9738-37.9738v-32.1355c0-3.2222,2.6161-5.8383,5.8383-5.8383Z" transform="translate(396.3496 -149.4256) rotate(41.181)"/><path class="cls-9" d="m394.0405,939.1435l-150.9574-174.6835c-1.5939-1.8445-3.8067-2.8909-4.9337-2.3445l-81.7477-29.171c-.9396-.8761-2.0717-1.4682-3.1081-1.5355l-110.8768,53.2085c-1.8635-.1209-3.358,1.456-3.3207,3.5255l3.5415,196.0052c.0901,4.9817,2.7391,10.4559,5.5239,9.4717,51.9692-18.368,149.6429,9.7111,199.524,12.9472,2.9475.1912,3.7509-3.8942,1.8169-8.9954l-28.9623-76.393c-1.0552-2.7832,2.9078-4.6066,4.335-1.9946l44.0466,80.6088c2.7213,4.9802,6.4428,8.4145,8.2256,7.5503l120.6788-58.497c1.7828-.8641.0509-5.263-3.7856-9.7026Z"/><path class="cls-13" d="m359.2883,212.8125h264.2105c3.2222,0,5.8383,2.6161,5.8383,5.8383v120.4781c0,76.133-61.8104,137.9434-137.9434,137.9434h-.0003c-76.133,0-137.9434-61.8104-137.9434-137.9434v-120.4781c0-3.2222,2.6161-5.8383,5.8383-5.8383Z" transform="translate(575.6923 -249.4872) rotate(63.0039)"/><rect class="cls-12" x="492.5271" y="134.9577" width="37.4038" height="21.8451" rx="10.9225" ry="10.9225" transform="translate(-7.9251 260.4015) rotate(-28.366)"/><rect class="cls-12" x="509.6791" y="151.3229" width="37.4038" height="23.6964" rx="11.8482" ry="11.8482" transform="translate(-14.0806 270.6266) rotate(-28.366)"/><rect class="cls-12" x="436.6465" y="80.6962" width="37.4038" height="23.6964" rx="11.8482" ry="11.8482" transform="translate(37.3413 295.4648) rotate(-37.3824)"/><rect class="cls-13" x="501.955" y="128.9471" width="27.4451" height="23.6964" rx="11.8482" ry="11.8482" transform="translate(-16.8055 187.79) rotate(-20.3149)"/><rect class="cls-13" x="512.2528" y="150.2641" width="34.2528" height="22.2999" rx="11.1499" ry="11.1499" transform="translate(-15.5882 257.8888) rotate(-26.9961)"/><rect class="cls-12" x="442.642" y="56.1044" width="37.4038" height="23.6964" rx="11.8482" ry="11.8482" transform="translate(53.5032 294.0537) rotate(-37.3824)"/><rect class="cls-12" x="434.5196" y="31.7563" width="37.4038" height="23.6964" rx="11.8482" ry="11.8482" transform="translate(66.6174 284.1213) rotate(-37.3824)"/><rect class="cls-12" x="427.6617" y="7.5144" width="37.4038" height="23.6964" rx="11.8482" ry="11.8482" transform="translate(79.9268 274.9784) rotate(-37.3824)"/><path class="cls-1" d="m476.2132,586.0417c-7.2764-34.0248-34.1258-78.9943-67.58-123.1362-31.171-41.0649-68.0217-81.4128-103.2447-114.3185-1.5253-4.1731-3.1385-8.4233-4.8839-12.7891-7.3969-18.7799-17.1932-39.6589-28.1361-61.541-1.6957-3.4037-4.6781-4.4684-6.8592-2.5677-13.9139,12.234-34.7431,18.4188-55.5346,24.636-20.9603,6.0695-41.883,12.1722-59.8763,20.8376-2.8396,1.3267-4.3906,4.6561-3.5218,7.3381,5.6384,17.2415,10.8061,34.0711,18.3738,53.0002,3.9091,9.9255,8.4941,20.442,13.5592,31.3787-10.2856,10.9095-19.814,22.3267-28.3775,34.3868-27.5432,37.5267-51.7678,62.5834-80.16,101.7226-25.3111,34.8918-57.9997,78.96-66.4874,119.4596-4.1073,20.3692-4.7809,42.5284-.9603,67.2273,3.696,24.5898,11.8865,51.719,22.5993,79.4839,2.9952,7.5798,8.0281,8.7094,11.745,3.3261,32.3716-46.9424,130.1427-43.0548,207.0515-32.0497,8.775,1.1943,16.3447-.3412,17.0759-3.5518,10.8204-48.9993,47.6949-80.3663,88.1017-106.161,20.1629-12.9328,41.0646-24.5987,60.7987-35.7104,19.8549-11.0059,38.5418-21.4577,57.069-29.5172,6.4601-2.8408,11.3927-11.9037,9.248-21.4543Z"/><path class="cls-13" d="m340.6444,58.215h0c-2.5-22.9495,14.6338-45.0095,39.6008-49.2834L431.7923.1075c3.6045-.617,6.8633,1.4856,7.211,4.6778l9.1971,84.4281c.3477,3.1922-2.3818,5.9472-6.0347,6.1207l-52.238,2.4817c-25.3016,1.202-46.7833-16.6514-49.2833-39.6008Z"/><rect class="cls-13" x="428.9334" y=".0496" width="37.4038" height="21.8451" rx="10.9225" ry="10.9225" transform="translate(.0369 -1.4146) rotate(.1811)"/><rect class="cls-13" x="435.7373" y="22.5093" width="37.4038" height="23.6964" rx="11.8482" ry="11.8482" transform="translate(.1109 -1.436) rotate(.1811)"/><rect class="cls-13" x="437.6762" y="71.5814" width="37.4038" height="23.6964" rx="11.8482" ry="11.8482" transform="translate(.2659 -1.4419) rotate(.1811)"/><path class="cls-13" d="m398.4291,129.9388l-22.6646-33.8984c-3.5102-5.25-2.795-11.9454,1.7638-14.6178l17.0645-10.0035c4.5588-2.6724,10.5676.0813,13.2212,5.8334l17.1337,37.1407c1.7321,3.7547.2666,8.3696-3.1915,10.3968l-12.9444,7.5882c-3.4581,2.0272-8.0914.9875-10.3827-2.4394Z"/><path class="cls-13" d="m434.913,136.8081l-29.7221-2.1957c-4.6032-.3401-7.326-3.9675-5.8219-8.044l5.6303-15.2595c1.5041-4.0766,6.4454-6.462,10.7661-5.3559l27.8972,7.1416c2.8203.722,4.1073,3.8205,2.9663,6.9128l-4.2709,11.5752c-1.141,3.0923-4.4403,5.4476-7.445,5.2256Z"/><g class="cls-7"><g class="cls-5"><path class="cls-8" d="m437.3194,362.2897c-1.2287,0-7.6238,18.399-23.7107,47.5352-15.6617,29.1362-41.0147,69.0095-70.4167,111.958-57.5437,85.897-133.7035,184.0949-125.0121,233.2983,4.3476,24.6017,17.3375,56.1514,37.6264,89.6374,20.1336,33.4861,47.5662,68.9084,77.238,101.2555,29.5179,32.3471,61.2746,61.619,86.5008,82.8041,25.0729,21.1851,43.6151,34.2835,43.1411,34.2834-6.5123-148.246,87.7843-296.492,154.9351-444.7381-42.9665-85.3446-94.9288-170.6893-180.3019-256.0339Z"/></g></g><rect class="cls-13" x="438.3353" y="46.9651" width="42.771" height="23.6964" rx="11.8482" ry="11.8482" transform="translate(.1882 -1.4526) rotate(.1811)"/><rect class="cls-13" x="210.8116" y="919.3491" width="111.6764" height="359.156" rx="55.8382" ry="55.8382" transform="translate(789.5382 96.2653) rotate(41.181)"/><path class="cls-11" d="m379.9703,1071.7865c-51.5353-16.1109-35.9409-73.4975-68.3215-112.4732,30.9611-46.2233,68.477-86.0752,105.765-86.103l28.6514-.0214c29.2023-.0218,56.2129,25.161,62.6862,54.3662l36.4887,164.623c4.2824,19.3206-6.3764,43.7543-24.9661,56.0616l-17.6844,11.708c-74.4097,42.7626-79.1615-74.5755-122.6193-88.1612Z"/><path class="cls-10" d="m445.8015,1147.9586l-74.1558-202.8512c-13.9835-38.2515,8.4801-71.8692,45.7681-71.897l28.6514-.0214c29.2023-.0218,56.2129,25.161,62.6862,54.3662l36.4887,164.623c4.2824,19.3206-6.3764,43.7543-24.9661,56.0616l-17.6844,11.708c-22.233,14.7194-48.571,10.4885-56.7881-11.9891Z"/><g class="cls-6"><rect class="cls-15" x="423.0972" y="762.2871" width="16.5518" height="306.5525" transform="translate(1318.6064 428.5766) rotate(86.4661)"/><rect class="cls-15" x="430.8614" y="798.2217" width="16.5518" height="306.5525" transform="translate(1361.7582 454.5468) rotate(86.4661)"/><rect class="cls-15" x="452.1036" y="832.5547" width="16.5518" height="306.5525" transform="translate(1415.9588 465.5617) rotate(86.4661)"/><rect class="cls-15" x="459.8677" y="868.4892" width="16.5518" height="306.5525" transform="translate(1459.1106 491.5319) rotate(86.4661)"/><rect class="cls-15" x="471.4072" y="902.1337" width="16.5518" height="306.5525" transform="translate(1503.5192 511.585) rotate(86.4661)"/><rect class="cls-15" x="479.1714" y="938.0682" width="16.5518" height="306.5525" transform="translate(1546.6711 537.5552) rotate(86.4661)"/><rect class="cls-15" x="473.0791" y="974.1005" width="16.5518" height="306.5525" transform="translate(1576.9181 577.4472) rotate(86.4661)"/></g><path class="cls-16" d="m723.1628,996.3488c-74.6854,22.255-55.6821-50.355-86.4793-77.2979,31.6143-51.6451,32.8406-72.5429,84.242-90.7633l33.0298-.0451c29.5089-4.7343,60.6235,15.6689,71.5927,43.3419l80.8235,114.1434c7.2567,18.307.1886,44.053-16.7327,59.155l-16.0973,14.3666c-63.1025,31.3765-76.4501-78.0121-150.3788-62.9005Z"/><path class="cls-10" d="m854.5205,1034.4531l-137.1607-151.3883c-27.0364-29.8409-17.1199-56.3988,16.8225-56.3948l24.47.0029c23.6251.0028,52.5776,17.3261,66.9262,37.3635l80.337,112.188c9.3686,13.0829,10.8063,32.1814,2.7181,44.3105l-7.9862,11.9761c-10.4693,15.6999-31.5417,18.0402-46.1269,1.942Z"/><g class="cls-3"><polygon class="cls-15" points="608.5922 864.1426 615.8806 878.5131 873.6346 853.1676 867.7953 842.5412 608.5922 864.1426"/><polygon class="cls-15" points="630.8341 895.0605 638.1624 909.4809 889.9146 876.178 884.0541 865.524 630.8341 895.0605"/><polygon class="cls-15" points="667.1705 923.0432 674.4579 937.287 913.8676 897.3149 908.0399 886.7572 667.1705 923.0432"/><polygon class="cls-15" points="688.9392 953.3332 696.2648 967.6248 929.8914 919.9757 924.0432 909.3914 688.9392 953.3332"/><polygon class="cls-15" points="713.6446 980.9 720.9809 995.1674 947.3172 940.7542 941.4663 930.1825 713.6446 980.9"/><polygon class="cls-15" points="735.1954 1010.8958 742.5692 1025.21 963.2217 963.2501 957.3506 952.6522 735.1954 1010.8958"/><polygon class="cls-15" points="743.075 1044.176 750.57 1058.7653 971.4873 987.579 965.5413 976.8303 743.075 1044.176"/></g><path class="cls-14" d="m577.6695,76.896c53.4027,109.0208,129.4111,191.1205,213.477,243.1238,82.6576,52.4181,173.3728,74.7386,223.6589,73.7638,105.0489,1.2404,234.1634,41.9582,279.8319,73.5106,78.9305,54.5331,128.3606,158.4919,128.7207,159.3753-.6104-.1096-76.2927-60.1777-123.9789-72.018-75.8523-18.8339-84.2026,27.7988-202.2021,45.7652-74.4847,11.3409-106.806-41.5411-196.3165-63.5399-89.8099-21.3565-214.5689,22.5101-279.5484-49.2517-35.4939-39.0232-57.9531-93.7111-72.7561-157.012-14.1036-62.79-20.5511-134.1941-7.8699-194.8446,4.4769-21.6441,23.8502-84.8892,36.9834-58.8724Z"/><path class="cls-14" d="m753.4765,169.1759c-7.7648,32.3414-45.1699,36.6121-61.3042,33.2293-33.3205-6.8058-43.7644,13.5688-43.9172,13.607.4238.1449,33.4948,74.7661,84.3752,39.5208,13.4433-9.1687,26.0415-18.6654,29.7281-43.9387,3.1747-21.8007-8.0249-46.0967-8.882-42.4185Z"/><path class="cls-14" d="m769.871,306.0907c137.94,80.0258,215.0547,19.3988,267.0757,9.3969,72.6035-13.9593,186.9667-13.1266,187.6151-13.1701-1.7037.3046-115.0292,112.9011-335.1517,68.4934-52.815-10.655-115.1656-1.5299-140.0664-18.3694-21.4572-14.5282,15.5732-48.6516,20.5273-46.3508Z"/><path class="cls-14" d="m533.8657,357.8873c15.6082,32.2648-20.0944,83.3999-39.3181,101.8604-39.5688,38.2485-35.4992,65.7287-35.6299,65.9518.5459-.4463,89.485,8.3029,116.5074-81.5141,7.2447-23.632,13.3724-46.401-1.2965-68.5464-12.6589-19.0956-42.0651-21.3876-40.2629-17.7517Z"/><path class="cls-14" d="m574.2186,562.4907c-21.6791-31.4234,4.9386-71.5921,20.9389-85.0839,32.8876-27.9955,23.7294-53.289,23.8201-53.4682-.4687.3133-91.8062-21.7083-102.5545,54.5345-2.964,20.039-4.9596,39.4821,13.9112,61.6804,16.2823,19.1429,46.371,25.8852,43.8843,22.3372Z"/><path class="cls-14" d="m1200.0356,612.7399c-82.828,37.5826-218.7984-57.438-268.3781-107.9434-102.7046-103.9751-173.9673-95.5579-174.5585-95.9082,1.205,1.4286-14.6684,228.2708,221.3836,303.8933,62.1189,20.242,121.9029,37.5643,178.4452,1.651,48.7549-30.9934,52.4383-106.0385,43.1078-101.6926Z"/><path class="cls-14" d="m614.8114,561.5319c-12.7276-20.9685,8.1749-64.3635,20.0259-81.0948,24.3768-34.622,19.8052-54.0321,19.8793-54.2172-.3417.4182-61.3585,8.9756-73.8199,79.1964-3.3703,18.4987-6.0382,36.1785,5.3859,49.9052,9.8578,11.8347,29.9925,8.566,28.5288,6.2104Z"/><path class="cls-14" d="m684.2756,93.7847c-28.9606,24.8736-13.4386,70.4927-1.3976,87.6114,24.6827,35.4417,9.3905,57.5727,9.4327,57.7692-.3736-.4222-94.3082-2.3637-85.3048-78.8323,2.2319-20.1337,5.2488-39.4447,29.1464-56.1113,20.6169-14.3704,51.4309-13.2355,48.1233-10.4369Z"/><path class="cls-14" d="m503.072,147.4445c-1.6731,24.4718,36.8276,53.4156,55.0399,62.8332,37.5567,19.5551,42.4123,38.8962,42.5631,39.0265-.4956-.2145-58.6247,20.2133-101.9503-36.436-11.4913-14.8832-21.9825-29.3617-18.1406-46.8023,3.3197-15.0405,22.7058-21.3862,22.4878-18.6214Z"/><path class="cls-14" d="m899.5864,400.0938c22.1111,127.3351,83.8569,273.5721,145.3863,311.1614,78.9872,47.5244,112.9385,94.124,125.0499,130.6556,12.4457,36.2246,3.0517,62.3814,3.0664,61.9319-.1029-.6158-21.3486-.2343-54.9284-7.1702-33.4669-6.7029-79.2677-20.7239-125.8417-44.7439-46.6687-23.9208-94.1149-57.8427-133.0878-102.0992-39.2791-44.295-70.0849-98.9246-90.525-165.1401-10.8014-35.3292-11.6062-76.76-1.6622-111.8189,10.1698-35.0521,31.0882-63.7323,68.9536-73.4046,13.9376-3.4834,59.6553-21.5026,63.5889.6281Z"/><path class="cls-14" d="m673.2242,653.3215c-.5819.4896-1.8948-90.9501-17.0741-165.8093-15.5381-74.7882-44.9431-132.9963-109.9976-64.3711-67.738,69.9395-111.0846,87.9245-142.8705,87.4893-31.7628-.9118-51.9644-20.2433-72.8868-35.9108-27.2053-19.194-43.8639-41.4036-53.6703-61.2044-9.814-19.4173-12.7752-36.4278-12.7613-36.3707-.013.723,12.7559,35.5792,47.0029,40.6484,34.602,4.6472,90.3467-9.8491,184.3055-112.089,93.2703-102.1693,137.6186-64.2965,158.2587,3.5449,20.2714,68.5317,21.5028,168.2461,22.4441,206.3262.4268,35.9256-2.9261,137.9943-2.7508,137.7465Z"/><path class="cls-14" d="m227.6959,292.7624c-.1718.1566,30.9787,14.4503,62.2106,16.3125,33.2063,2.4156,64.1596-8.8973,113.5543-52.2382,52.9861-41.5623,97.2181-48.0402,127.9966-46.3088,31.6009,2.8256,53.5183,13.9127,80.1384,34.8256,25.4682,20.6034,33.9188,41.972,37.2365,57.1532,3.1287,15.3045,1.2805,25.0257,1.2667,25.0445-.1855.2324-4.9871-11.7564-29.3196-26.371-12.2938-7.1376-30.0154-14.9191-55.0056-18.7237-24.7534-3.6248-57.3259-3.0805-93.4673,11.015-71.128,30.5607-99.575,56.2718-126.0996,59.7059-24.8387,5.1743-46.6292-7.7816-62.061-17.7119-13.3837-9.6551-55.9789-42.9361-56.45-42.703Z"/><path class="cls-14" d="m554.5722,194.3296c-5.841-23.435-3.0301-63.2183,2.8601-90.3925,5.8158-27.4568,14.7109-42.304,19.3188-22.3749,10.1474,46.3598,28.4101,51.0889,54.2423,65.5666,25.3049,14.4851,58.1797,38.7184,85.3942,124.2625,47.8113,158.3071,68.1807,260.1079,89.281,337.8125,20.5074,77.9467,41.7454,131.7968,77.5898,199.8042,23.1229,43.5245,60.7232,80.8397,105.9831,109.3502,45.1043,28.6296,97.8682,48.4543,147.7147,59.7332,49.8487,11.4525,96.783,14.36,130.3116,13.1536,33.6915-.9781,53.9778-6.0696,54.2818-5.3438-.4631-.5793-30.0364,20.7434-82.915,37.8552-52.361,17.394-128.0275,30.5768-208.6614,20.2614-79.9151-8.3385-164.8116-40.1818-228.9497-87.9908-65.1728-48.2531-109.5875-112.4726-132.3788-195.7988-14.6888-51.3098-28.1296-137.1053-38.1629-228.129-8.8667-90.2268-14.3249-185.6809,13.8878-237.9091,24.0117-41.1539,10.4744-44.6208-24.2722-47.2259-16.0123-1.3075-54.8134-8.3261-65.5254-52.6348Z"/><path class="cls-2" d="m654.7824,292.1592c31.0968,7.0901,76.9817,17.4797,83.2919,18.9316l-75.6047-40.8383c13.4126-8.3854,32.3865-20.2494,33.5173-20.9495-2.2496.0006-20.9098.1147-36.3892.2059-.8864-.2788-1.7538-.5515-2.5931-.8156,11.6314-13.8251,24.0826-28.6249,26.481-31.475l-40.9444,18.5407-1.3886-72.7472-23.5294,72.4704c-.1347.2374-.1708.3013-.3019.5324l-3.567-3.8592s-4.2752,3.498-7.0099,5.7356c-6.3795-4.5588-12.8466-9.1799-16.0452-11.464l2.0926,21.815c-26.1702-10.1091-54.0011-20.8457-57.9568-22.3848,4.0425,2.8646,16.4332,11.6856,31.0986,22.1196-2.7579-.4805-4.3915-.765-4.3915-.765,1.1851.7143,7.0154,4.2565,14.7774,8.9727l-25.2364-2.2088,33.8333,15.4024c.0916.0951.1834.1903.2748.2852-11.5424,5.3008-21.1798,9.7285-23.8438,10.9586,3.5089-.1013,14.482-.4049,27.4408-.7649.1666.9536.3188,1.8259.3188,1.8259.3984.1512.8352.317,1.2938.4911-18.0471,21.1299-37.9575,44.4414-39.5822,46.36,0,0,36.1264-22.8422,59.5514-37.6534.4064-.1916.819-.388,1.2375-.589-.0567,2.0034-.1037,3.7962-.1375,5.2802l.022.0018c-.0169.1139-.0341.2305-.0506.3419,0,0,1.1183.0934,1.9658.1642,1.7262,14.7392,4.2467,35.2355,5.2696,43.7385.5727-3.2463,3.778-21.5729,6.1194-34.9491,2.5259,2.6897,4.8488,5.1633,4.8488,5.1633.1203-2.4442.4365-8.7494.7131-14.2792,7.9089,10.6956,15.2017,20.5581,15.2017,20.5581-.575-3.0977-1.724-9.279-3.1275-16.8285l4.0199,3.3862-2.3684-5.6564c1.4974.7127,2.8909,1.3786,4.1322,1.9765,0,0,.0053-.2507.0055-.257,13.2803,7.5204,24.8326,14.0604,28.5372,16.1614l-21.976-22.9344Zm-23.3094-27.2592c1.6233,1.1284,3.5805,2.4881,3.8148,2.6536-.2003.0039-3.575.0843-5.9606.1409l3.0623,10.6516c-.4862-.6454-4.0413-5.3174-6.445-8.4898l-.4139,4.4738c-.1384-.5343-.5709-2.1992-1.068-4.1135-.0007.0008-.0307.0317-.0307.0317-.0589-.1659-.1255-.3514-.1974-.5504l-.4202.8787-.0195-.7176c-.7436,1.0434-1.3524,1.8977-1.6576,2.3257,0,0,.4026-1.765.8395-3.6791-.6806.6682-1.4568,1.43-1.7573,1.7256,0,0,.0496-.479.1034-1-1.8205,1.4933-4.3144,3.5393-4.7567,3.9014.8957-1.1341,3.0488-3.8719,4.6064-5.8342-.0799-.0713-.1854-.1652-.1854-.1652.0148-.0127.0302-.0261.0455-.0389l-.002-.0018c.1783-.1823.3946-.4021.6365-.6475-.0671-.0057-.1333-.0116-.1984-.0177-4.1858.1196-10.6413.3041-10.6413.3041.3955-.1192,5.217-1.5561,9.5874-2.8585-.0272-.0554-.0531-.1081-.0768-.1563,0,0,.0869-.1199.1821-.2509-1.3923-.9093-2.5712-1.6793-2.9487-1.9251.4225.0429,1.9483.2012,3.7754.3908.0017-.0185.0032-.0371.005-.0556l-1.7089-4.4089,2.3684,2.133c-.2527-1.1587-.4424-2.029-.4818-2.2053,0,0,.1366.1558.3673.4185-.2976-2.379-.5488-4.3896-.6322-5.0439.2306.4829,1.8642,3.8688,3.3988,7.0544l2.3533-2.8704c.064.5199.193,1.5713.3202,2.6088.5484-.0773,1.4062-.1981,1.4062-.1981l-.0832.7432c.0408-.0192.052-.0245.0942-.0441l10.9926-7.2917-8.4297,9.1608,6.4505.7058c-.5858.1782-3.6272,1.1045-6.4684,1.9696.0564.0946.1145.1924.1741.2924Z"/></g></svg>