<?xml version="1.0" encoding="UTF-8"?><svg id="Layer_2" xmlns="http://www.w3.org/2000/svg" viewBox="0 0 1359.7418 1284.6628"><defs><style>.cls-1{fill:#939598;}</style></defs><g id="Layer_4"><path class="cls-1" d="m88.832,275.6094c166.7064-61.6973,366.6931-86.0753,543.158-62.6503,76.946,10.4118,152.9573,30.606,223.6264,63.0264,43.9111,20.2288,85.9076,45.3018,123.8047,75.0634-12.2771-7.4455-24.7951-14.8996-37.3569-21.8515-25.1899-13.6472-51.2255-26.3865-77.7058-37.169-241.5284-98.7013-526.662-78.2362-775.5263-16.419h0Z"/><path class="cls-1" d="m35.3118,324.7158c35.0467,2.248,69.4497,10.5889,103.0145,20.6145,47.1123,14.3418,92.5836,33.9084,135.9211,57.2893,74.2115,40.004,142.6631,91.554,201.6214,151.8159,2.2141,2.4009,16.1252,16.8206,18.1388,19.0674,3.3149,3.7613,7.175,8.0498,10.4412,11.8467,2.8715,3.3116,9.1926,10.5063,12.089,13.8609,1.9345,2.3461,12.7845,15.9476,14.8164,18.4377,8.6128,10.733,17.0446,22.5327,24.987,33.7337,3.7779,5.1497,8.148,12.1727,11.6198,17.4777,3.7512,5.9101,7.5024,11.8012,11.0727,17.8168-7.616-6.4984-15.9659-14.1331-23.3658-20.949-7.5971-7.0356-15.5557-13.8751-23.1642-20.8475-3.8087-3.5504-11.5007-10.3919-15.4586-13.7522-53.4504-47.5066-109.48-92.9374-167.8852-134.2004-97.8699-68.8101-202.6279-127.5794-313.8482-172.2114h0Z"/><path class="cls-1" d="m0,409.2739c33.1033,25.2621,63.459,53.8981,92.766,83.4413,62.0649,63.3582,117.6696,133.3389,165.1374,208.3317,91.7982,145.7421,156.472,316.3633,147.3953,490.7275-1.1028,20.7482-3.3744,41.8071-6.8775,62.2862-1.6217,10.0315-3.8948,20.6947-6.1291,30.6023-.0223-7.8067.1789-15.5456.2028-23.3274-.0812-5.7058-.1788-13.7068-.2051-19.3563-.3845-11.4071-.7449-23.2576-1.5463-34.6734C372.3031,910.1751,187.1085,631.38,0,409.2739h0Z"/><path class="cls-1" d="m1251.9309,0c-52.6603,79.3332-97.7531,164.3013-123.5964,256.2218-4.3128,15.1368-7.893,30.3176-11.7652,45.8124-.2194-3.5332-.3283-7.0713-.4421-10.6202-.2606-7.0604.0881-14.2629.3428-21.2955,2.459-40.9003,12.9743-81.2435,28.689-119.0087,18.6869-44.2731,44.2397-85.7008,76.2371-121.5152,9.5113-10.5182,19.4592-20.7063,30.5347-29.5947h0Z"/><path class="cls-1" d="m1287.8533,72.5435c-6.1078,27.0721-13.5799,53.5297-21.1703,80.1436-6.7981,26.7595-19.2978,51.7224-26.0376,78.533-5.6198,22.2162-7.2557,45.6466-7.7371,68.5241-.1701,9.2841-1.1095,31.6404-1.5369,41.208-.3379,13.1579-.5116,27.9524-.6766,41.0492-.2215,22.8036-1.0294,45.6147-1.0918,68.4332-.3432,18.4994-.022,36.9756-.7777,55.4932-.0002,0-1.9767.3042-1.9767.3042-2.9269-8.9076-5.665-17.9039-7.7061-27.0576-9.4538-41.0657-12.3541-83.7299-8.0581-125.666,1.404-13.5632,2.9063-28.4034,5.4414-41.7208,2.4649-13.8009,6.0583-27.3828,9.3306-40.9931,4.2562-18.0784,8.1787-36.2414,10.5513-54.6724,2.0937-15.0165,3.4616-30.2376,6.691-45.0786,3.8289-17.0875,9.6754-33.6784,16.3103-49.8624,7.2758-17.2651,15.5536-34.283,26.6357-49.4918.0002,0,1.8088.8541,1.8088.8541h0Z"/><path class="cls-1" d="m1359.1433,170.6362c1.0217,21.7952.5438,43.8872-.0215,65.6665-.7726,23.8593-1.7689,47.7871-3.183,71.5884-.6774,18.1052-2.0909,37.5825-3.1134,55.6465-1.0242,13.4599-1.897,26.9834-3.358,40.4546-.5654,6.8696-1.3132,13.8993-2.4536,20.7408,0,0-.333,2.1089-.333,2.1089,0,0-.4072,2.126-.4072,2.126l-1.9741.3228c-1.1294-7.7104-3.3532-20.7389-4.2848-28.2808-1.2219-11.0485-2.7035-25.612-3.1521-36.6499-1.265-18.9351-1.1724-38.2368-.7599-57.2217.7191-18.5531,2.484-38.6016,4.8599-57.0215,2.0666-16.1466,4.8387-32.4307,8.119-48.3677,2.4151-10.6401,4.9605-21.2236,8.1489-31.6963l1.9126.5835h0Z"/></g></svg>