<?xml version="1.0" encoding="UTF-8"?><svg id="Layer_2" xmlns="http://www.w3.org/2000/svg" viewBox="0 0 356.3296 329.3108"><defs><style>.cls-1,.cls-2{fill:#e1b824;}.cls-1,.cls-3{stroke:#c55b27;stroke-miterlimit:10;stroke-width:.1px;}.cls-3,.cls-4{fill:#fbe64e;}.cls-5{fill:#e54041;}</style></defs><g id="Layer_4"><path class="cls-1" d="m48.2679,48.2555l116.3935,116.3935-164.6114.0003C.05,122.5252,16.1226,80.4008,48.2679,48.2555Z"/><path class="cls-1" d="m164.6614.05v164.5991L48.2679,48.2555C80.4132,16.1103,122.5433.044,164.6614.05Z"/><path class="cls-1" d="m281.055,48.2555l-116.3935,116.3935V.05c42.1365.0003,84.2609,16.0729,116.3935,48.2055Z"/><path class="cls-2" d="m281.055,48.2555c32.1392,32.1392,48.2116,74.2634,48.2119,116.3999l-164.6054-.0063,116.3935-116.3935Z"/><path class="cls-2" d="m356.3296,174.6828c0,42.1241-16.0726,84.2486-48.2116,116.3875l-116.3938-116.3938,164.6054.0063Z"/><path class="cls-1" d="m164.6614,164.6491l116.3938,116.3938c-32.1453,32.1453-74.2697,48.2179-116.3938,48.2179v-164.6117Z"/><path class="cls-1" d="m164.6614,164.6491v164.6117c-42.1305-.0063-84.2606-16.0726-116.3999-48.2119l116.3999-116.3999Z"/><path class="cls-1" d="m164.6614,164.6491l-116.3999,116.3999C16.1226,248.91.056,206.7795.05,164.6494l164.6114-.0003Z"/><path class="cls-3" d="m55.296,55.284l109.3653,109.3653-154.6716.0003c0-39.5805,15.1021-79.1614,45.3063-109.3656Z"/><path class="cls-3" d="m164.6612,9.9893v154.66S55.296,55.284,55.296,55.284C85.5002,25.0798,125.0864,9.9836,164.6612,9.9893Z"/><path class="cls-3" d="m274.0265,55.284l-109.3653,109.3653V9.9893c39.5921.0003,79.173,15.1024,109.3653,45.2947Z"/><path class="cls-4" d="m274.0265,55.284c30.1986,30.1986,45.3004,69.7791,45.3007,109.3712l-154.666-.0059,109.3653-109.3653Z"/><path class="cls-3" d="m346.39,174.6827c0,39.5805-15.1021,79.1614-45.3004,109.3596l-109.3656-109.3656,154.666.0059Z"/><path class="cls-3" d="m164.6612,164.6493l109.3656,109.3656c-30.2042,30.2042-69.785,45.3063-109.3656,45.3063v-154.6719Z"/><path class="cls-3" d="m164.6612,164.6493v154.6719c-39.5865-.0059-79.1727-15.1021-109.3712-45.3007l109.3712-109.3712Z"/><path class="cls-3" d="m164.6612,164.6493l-109.3712,109.3712c-30.1983-30.1983-45.2947-69.7848-45.3004-109.3709l154.6716-.0003Z"/><circle class="cls-5" cx="58.4388" cy="121.5518" r="13.5627"/><circle class="cls-5" cx="91.0444" cy="64.4143" r="13.5627"/><circle class="cls-5" cx="191.0054" cy="89.513" r="13.5627"/><circle class="cls-5" cx="136.2177" cy="53.9058" r="13.5627"/><circle class="cls-5" cx="122.9877" cy="195.8918" r="13.5627"/><circle class="cls-5" cx="134.3879" cy="126.9383" r="13.5627"/><circle class="cls-5" cx="275.7349" cy="135.8814" r="13.5627"/><circle class="cls-5" cx="206.384" cy="136.3011" r="13.5627"/><circle class="cls-5" cx="260.07" cy="69.2405" r="13.5627"/><circle class="cls-5" cx="52.2111" cy="199.7694" r="13.5627"/><circle class="cls-5" cx="133.0397" cy="274.4333" r="13.5627"/><circle class="cls-5" cx="84.4223" cy="258.2628" r="13.5627"/><circle class="cls-5" cx="214.1125" cy="272.2559" r="13.5627"/><circle class="cls-5" cx="185.5311" cy="216.6187" r="13.5627"/><circle class="cls-5" cx="299.0231" cy="223.8263" r="13.5627"/><circle class="cls-5" cx="255.3408" cy="199.3246" r="13.5627"/></g></svg>