<?xml version="1.0" encoding="UTF-8"?><svg id="Layer_2" xmlns="http://www.w3.org/2000/svg" xmlns:xlink="http://www.w3.org/1999/xlink" viewBox="0 0 5381.2743 3262.7074"><defs><style>.cls-1{fill:#c2abc8;}.cls-2{clip-path:url(#clippath-4);}.cls-2,.cls-3,.cls-4,.cls-5,.cls-6,.cls-7,.cls-8,.cls-9,.cls-10,.cls-11{fill:none;}.cls-12{fill:#c8beba;}.cls-3{clip-path:url(#clippath-2);}.cls-13,.cls-14{fill:#fff;}.cls-4{opacity:.46;}.cls-15{fill:#939598;}.cls-16{fill:#365984;}.cls-17{fill:#4b4b4b;}.cls-18{fill:#555554;}.cls-5,.cls-14{opacity:.17;}.cls-19{fill:#909039;}.cls-20{fill:#2f9086;}.cls-21{fill:#9ed7f5;}.cls-6{clip-path:url(#clippath-5);}.cls-22{fill:#b154a0;}.cls-23{fill:#9f302e;}.cls-24{fill:#f4bc94;}.cls-25{fill:#e4a573;}.cls-26{fill:#437db4;}.cls-7{clip-path:url(#clippath-3);}.cls-27{fill:#ccebf4;}.cls-28{fill:#2b2825;}.cls-29{fill:#d4a07b;}.cls-30{fill:#e3c521;}.cls-31{fill:#227b87;}.cls-32{fill:#a43f3b;}.cls-9{clip-path:url(#clippath);}.cls-33{fill:#bd76b1;}.cls-34{fill:#2f2f2e;}.cls-35{fill:#b88cbd;}.cls-36{fill:#2a2824;}.cls-37{fill:#403b34;}.cls-38{fill:#3b3730;}.cls-10{clip-path:url(#clippath-1);}.cls-11{opacity:.34;}.cls-39{fill:#e5dcd5;}.cls-40{fill:#d8a8ce;}</style><clipPath id="clippath"><path class="cls-8" d="m3238.0409,2073.3701l163.4096,110.9699c7.8693,5.3439-8.218,15.143-31.0188,21.5261l-17.2514,4.8296c-17.3486,4.8568-38.238,6.9744-49.5504,5.0623l-147.9694-25.0108c-42.4282-7.1715-88.8438-30.1843-93.8148-56.8095l-6.7166-35.9746c-12.4394-66.626,97.0433-82.9056,182.9119-24.593Z"/></clipPath><clipPath id="clippath-1"><path class="cls-8" d="m3067.5643,1138.5685s133.6238-45.3419,154.0162-40.8217c20.3924,4.5202,58.4461,402.8273,122.8442,388.8387,66.7281-14.4948,185.178-101.2335,197.6085-157.3125,12.4305-56.0791-31.8709,154.5336-67.1487,207.6661-35.2778,53.1325-47.8483,157.0729-168.5234,125.8668-54.126-13.9967-238.7968-524.2373-238.7968-524.2373Z"/></clipPath><clipPath id="clippath-2"><path class="cls-8" d="m4879.3252,1049.254l-204.3748,39.7442c.273-1.8225.0259-3.2491-.8295-4.0374-37.126-33.7591-45.9962-81.3505-48.2754-129.2344-1.1905-23.9245-.9145-47.8599-.7385-70.5066.3279-22.6989.5555-44.1089,2.7791-64.1904.7488-7.0173-4.66-15.8043-14.0122-18.6941-33.1365-10.6115-85.5034-9.6867-140.4376-2.6205-51.1291,6.616-104.4613,18.5159-150.5276,32.7053-4.379-.7525-8.8685-1.467-13.5241-2.1244-19.9711-2.9241-42.9568-4.8107-67.3831-6.2016-3.7962-.2219-6.2033,1.8358-5.6393,4.6733,3.6925,18.1558-1.3024,39.3019-6.2505,60.4315-5.1602,21.2025-10.2729,42.3888-11.7052,62.3086-.2614,3.1233,1.8554,6.1249,4.6142,6.7052,17.7619,3.6844,34.9323,7.5724,55.118,10.4225,10.555,1.5457,21.9588,2.799,33.9661,3.8448,4.3482,14.3494,9.5134,28.2944,15.7164,41.7221,18.8553,42.5601,42.2996,81.9531,63.216,119.4905,21.6057,37.2999,40.9151,72.6645,71.8277,100.1721,15.6278,13.6948,34.5164,25.3011,57.8435,34.2718,15.9348,6.2064,33.9693,11.166,53.2465,15.1275l169.6258,93.2251c4.3668,2.3996,9.3327,2.3808,10.9647-.081l110.4748-166.6516c1.6319-2.4619-1.5126-5.191-6.9-6.0505l-80.6786-12.8723c-2.9391-.469-2.5499-4.8139.4259-4.7529l91.8388,1.8832c5.6738.1164,10.5044-1.404,10.6412-3.3803l9.2779-133.7878c.1373-1.9765-4.5405-2.662-10.3002-1.5419Z"/></clipPath><clipPath id="clippath-3"><path class="cls-8" d="m5086.2228,1108.2143l-212.863-36.5659c-40.1394-6.8952-58.1302-43.1043-39.6073-75.4663l14.2326-24.8663c14.5063-25.3445,49.7879-36.2509,78.3439-27.3401l160.9636,50.2284c18.8912,5.895,34.7862,27.295,36.2166,49.5436l1.3607,21.1652c1.7107,26.609-15.0601,47.3534-38.6471,43.3016Z"/></clipPath><clipPath id="clippath-4"><path class="cls-8" d="m5191.0502,697.1839l-199.5562,43.6898c-39.3355,8.6119-57.4426-13.2008-40.5563-42.6446l12.1738-21.2268c11.7535-20.494,41.1828-36.9942,65.7027-39.4754l137.2851-13.8921c16.0096-1.62,33.2931,6.6323,39.7923,19.682l6.4172,12.8851c8.4126,16.8914-.0385,36.3363-21.2587,40.9821Z"/></clipPath><clipPath id="clippath-5"><path class="cls-8" d="m1185.54,2634.7149c-5.4767.4979-95.5077,7.5596-182.1389-4.0038-86.6312-11.5634-119.9924,49.33-147.017,55.2855-22.4449,4.9463-29.5509-37.8736-24.2015-108.5726,5.3494-70.699,27.2457-96.5542,43.6758-112.9842s317.22,82.6482,317.22,82.6482l-7.5383,87.627Z"/></clipPath></defs><g id="Layer_4"><path class="cls-36" d="m536.1791,3234.8923c-2.7671-13.1387-5.5483-26.2744-8.3433-39.4072-1.2954-9.7017-11.9097-16.2788-23.6914-14.5898-11.7822,1.6855-20.123,10.9893-18.6455,20.6582,1.0059,13.3901,2.0264,26.7778,3.061,40.1641.0063.8213.0649,1.6436.1914,2.4722,1.7158,11.1279,13.7334,18.5098,26.8501,16.6328,13.1172-1.8843,22.5693-12.3413,21.0884-23.5044-.1128-.8315-.2876-1.6401-.5107-2.4258Z"/><path class="cls-38" d="m482.8251,2980.9799c-4.7666.6714-9.5332,1.3545-14.2988,2.0493-7.3223,1.0654-12.5059,7.3125-11.5132,13.8369,10.0601,66.8245,20.1177,133.6497,30.1777,200.4744.1357.8735.3652,1.7065.6768,2.4985,2.832,8.3613,11.5127,13.7451,20.8105,12.415,9.2988-1.3345,16.1113-8.9419,16.481-17.7598.0776-.8462.0669-1.7104-.0522-2.5884-9.1167-66.96-18.2329-133.9199-27.3491-200.8796-.8809-6.5415-7.6074-11.0796-14.9326-10.0464Z"/><path class="cls-36" d="m1305.7084,3243.4059c1.0908-13.3823,2.166-26.7661,3.2266-40.1519,1.5166-9.6646-6.7822-18.9995-18.5625-20.7354-11.7773-1.7388-22.415,4.7993-23.7544,14.4912-2.8496,13.1211-5.6855,26.2451-8.5063,39.3726-.228.7876-.4048,1.5933-.521,2.4238-1.522,11.1558,7.8833,21.6538,20.9946,23.5918,13.1113,1.9341,25.1572-5.3979,26.9219-16.5215.1284-.8281.1899-1.6504.2012-2.4707Z"/><path class="cls-38" d="m1326.8905,2984.8139c-4.7622-.7151-9.5269-1.4182-14.2915-2.1096-7.3218-1.0642-14.0659,3.45-14.9761,9.9846-9.395,66.9211-18.7886,133.843-28.1841,200.7644-.126.8735-.1348,1.7407-.064,2.5874.335,8.8203,7.1172,16.457,16.4102,17.8286,9.2905,1.3745,17.9956-3.9839,20.8647-12.3276.3169-.7905.5522-1.6255.6875-2.4956,10.3374-66.7827,20.6743-133.5649,31.0117-200.3469,1.0142-6.5225-4.1382-12.7866-11.4585-13.8853Z"/><path class="cls-36" d="m1679.2816,3067.7844c2.5503-13.1904,5.0864-26.3838,7.6074-39.5801,2.6377-9.4204-5.4404-19.9185-18.0625-23.3254-12.6279-3.4072-24.873,1.603-27.3335,11.073-4.46,12.6733-8.9043,25.3511-13.3369,38.0337-.3257.7505-.606,1.5317-.8179,2.3418-2.8159,10.9033,6.355,22.7002,20.4487,26.5063,14.0981,3.8037,27.9771-1.7754,31.0244-12.6143.2261-.8066.3774-1.6211.4702-2.4351Z"/><path class="cls-38" d="m1728.8412,2812.9706c-5.0767-1.384-10.1538-2.7546-15.2354-4.1121-7.8101-2.0874-15.5669,1.4653-17.2368,7.8491-17.146,65.3662-34.2925,130.7319-51.4395,196.0986-.2222.8521-.3325,1.7153-.3369,2.5708-.5493,8.8374,6.0415,17.4116,16.0186,20.103,9.9746,2.6948,19.9932-1.396,23.9673-9.3105.4209-.7422.7627-1.5391,1.0024-2.3906,18.0718-65.1165,36.144-130.2332,54.2153-195.3496,1.771-6.3596-3.1577-13.3337-10.9551-15.4587Z"/><path class="cls-36" d="m154.5072,3054.1662c-4.4355-12.6816-8.8838-25.3584-13.3457-38.0308-2.4619-9.4685-14.7129-14.4761-27.3364-11.0657-12.6245,3.4075-20.7007,13.9084-18.0581,23.3293,2.5244,13.1958,5.0625,26.3892,7.6172,39.5786.0952.8149.2427,1.6265.4707,2.4351,3.0552,10.8389,16.9321,16.4102,31.0283,12.6064,14.0996-3.8081,23.2617-15.6128,20.4424-26.5117-.208-.8086-.4902-1.5889-.8184-2.3413Z"/><path class="cls-38" d="m69.0853,2809.0363c-5.0806,1.3591-10.1587,2.7312-15.2344,4.1157-7.7998,2.127-12.7246,9.103-10.9521,15.4609,18.0859,65.1128,36.1719,130.2251,54.2573,195.3379.2363.8521.5791,1.646,1.0029,2.3901,3.979,7.9136,13.9956,12.0024,23.9697,9.3057,9.9731-2.6963,16.5669-11.2695,16.0142-20.1074-.0039-.8511-.1172-1.7153-.3369-2.5693-17.1602-65.3625-34.3203-130.7249-51.4819-196.0879-1.6685-6.3862-9.4331-9.9351-17.2388-7.8457Z"/><path class="cls-16" d="m1768.098,2862.9338c-29.6885,73.4126-147.1445,105.1768-303.9995,120.7852-157.8901,15.271-356.2983,15.9619-572.771,16.5234-216.5186-.4495-414.1328.6067-570.7417-13.2368-155.623-14.1455-271.4902-44.7393-301.1143-118.1748-21.9053-56.6128-43.6445-98.0757,44.5557-175.8662,68.895-60.3467,188.4976-128.5825,336.1274-178.6587,147.1401-50.5312,322.3081-82.9033,491.019-82.0137,182.959-.6416,358.6641,31.7896,502.0898,81.7781,143.8413,49.7673,255.4028,117.0906,319.6602,181.1365,65.8018,65.7725,85.7295,90.6836,55.1743,167.7271Z"/><path class="cls-26" d="m1775.9774,2835.9533c-29.7437,73.4028-147.0942,103.4331-305.0166,117.0474-158.9087,13.3118-359.6577,11.8025-579.6421,12.3599-219.9824-.4565-420.7305,1.1426-579.644-12.0972-157.9346-13.541-275.2949-43.52-305.0767-116.907-29.373-71.7908,40.2969-177.176,198.9097-270.7192,156.8223-93.0613,405.0498-168.9817,685.6558-168.2273,280.603-.8845,528.8784,74.9177,685.751,167.9087,158.6704,93.4707,228.396,198.8242,199.063,270.6348Z"/><path class="cls-28" d="m1593.6952,2780.0204c-21.8872,54.0898-111.1958,76.9521-237.0312,87.6299-126.1738,10.498-288.875,8.8115-465.3511,9.6379-176.4756-.7864-339.1758.9377-465.3525-9.5288-125.8379-10.6477-215.1533-33.4861-237.0581-87.5671-21.4536-52.063,37.8081-130.2124,163.9556-197.03,125.1562-66.5137,317.1992-121.6963,538.4053-120.7822,221.2051-.9685,413.2637,54.1658,538.437,120.6484,126.165,66.7871,185.4424,144.9229,163.9951,196.9919Z"/><path class="cls-37" d="m1448.2787,2764.4572c-21.126,39.5154-94.6309,50.6248-193.479,53.3831-99.4106,2.5261-225.2095-2.6584-363.4937-2.2429-138.2842-.3811-264.0693,4.8372-363.4927,2.3298-98.8491-2.7341-172.3667-13.8274-193.4956-53.334-20.6133-38.2622,18.5801-100.7061,117.3804-158.4709,97.3286-57.3193,257.0903-106.9004,439.5693-106.2153,182.4814-.7271,342.2588,48.8105,439.5942,106.1089,98.8179,57.74,138.0161,120.1814,117.417,158.4414Z"/><path class="cls-27" d="m5343.3582,1362.9909c-12.0954-502.7486-425.9264-901.4098-927.1613-896.4397-108.9684-207.9362-329.2071-347.4688-579.7771-341.4404-267.4007,6.4333-492.3255,176.7867-581.0294,412.665-68.4598-23.0334-142.0287-34.7311-218.4193-32.8933-351.6391,8.46-629.841,300.3781-621.381,652.0173,2.7937,116.1206,36.506,224.2278,93.0648,316.6533-119.4845,65.7959-199.0993,194.2517-195.5918,340.0397.6754,28.074,4.4242,55.3485,10.8711,81.5347-83.6975,25.2275-146.5886,97.3986-158.9189,185.2855-1.0135-.0021-2.0299.0078-3.0491.0323-63.1882,1.5202-113.1808,53.9773-111.6606,117.1659,1.5202,63.1889,53.9776,113.1811,117.1659,111.6609,27.4132-.6595,52.3387-10.9101,71.6558-27.4602,41.3717,36.6891,96.1752,58.4337,155.8162,56.9989,102.1868-2.4585,186.9383-72.1732,212.9773-165.7969,29.4543,6.5807,60.169,9.7343,91.7023,8.9756,59.436-1.4299,115.3221-16.5368,164.7507-42.2118,123.8701,385.4797,489.8415,660.1887,915.1851,649.9555,351.8148-8.4642,653.6901-209.6894,807.0704-500.2607,439.2283-77.9152,767.7881-466.821,756.7293-926.4815Z"/><circle class="cls-30" cx="3718.88" cy="650.8671" r="47.1189"/><circle class="cls-30" cx="4822.989" cy="820.9928" r="73.4921"/><circle class="cls-30" cx="4210.3212" cy="1144.0961" r="42.6042"/><circle class="cls-30" cx="5071.574" cy="1718.0321" r="241.2966"/><circle class="cls-30" cx="2572.5063" cy="396.7616" r="105.0443"/><circle class="cls-30" cx="4167.2439" cy="2326.1599" r="47.0485"/><circle class="cls-30" cx="4436.9621" cy="1972.0142" r="84.8767"/><circle class="cls-30" cx="2968.9582" cy="1531.8872" r="85.3514"/><path class="cls-23" d="m3467.1466,626.6364s-50.8192,61.7591-124.2933,74.1888c-73.4741,12.4297-141.7798-29.1769-141.7798-29.1769,0,0,50.8192-61.7591,124.2933-74.1888s141.7798,29.1769,141.7798,29.1769Z"/><path class="cls-23" d="m3312.6244,581.1122c-.3735.3941-27.2708,13.3984-45.4912,45.7472-19.5879,31.8003-22.6372,70.9469-23.0454,70.3966.6591.1232-9.1408-13.3707-11.5346-34.0602-2.9687-20.2419,1.4685-47.6796,17.318-65.1096,15.5069-17.8848,33.3442-21.4346,44.8966-21.1815,11.9463.348,17.6075,4.4988,17.8567,4.2076Z"/><path class="cls-23" d="m3258.8702,546.4499c.1648-.0243,2.8144,6.5058,3.1603,19.0818.7982,12.4568-.7069,30.9599,1.5841,52.1233,1.7196,21.572,10.0883,39.0496,18.0865,49.1495,7.9747,10.4359,15.5789,13.4942,15.2195,13.982-.3903-.1415-5.723,3.9123-16.8236,5.6859-10.7872,1.3913-27.3425.5023-42.937-18.3552-16.0791-18.1071-18.0198-53.7174-7.626-79.2942,9.0266-26.436,30.3878-42.8385,29.3362-42.3732Z"/><path class="cls-32" d="m3250.1953,686.3062c-.0072-.2783,4.3989-2.2683,8.734-8.6473,4.0098-6.2758,7.9483-16.9407-.501-32.1728-7.8467-15.2975-30.8867-27.1996-50.7889-29.2568-20.067-3.036-36.9962,3.7725-36.4369,3.2952-.0857.1236,4.19,3.4105,13,7.6827,8.6145,4.4544,21.7637,9.8946,34.9014,18.5349,13.5704,8.4422,22.2208,19.0363,26.4087,27.0369,4.3743,8.0762,4.286,13.5585,4.6826,13.5272Z"/><path class="cls-23" d="m3301.5661,640.1581s13.0968,111.6073-44.6411,158.7165c-57.7379,47.1091-164.4463,11.8808-164.4463,11.8808,0,0-13.0968-111.6073,44.6411-158.7165,57.7379-47.1091,164.4463-11.8808,164.4463-11.8808Z"/><path class="cls-25" d="m3320.6155,973.4346h-.0003c-86.0004,12.3195-158.4606-45.6643-160.7647-120.4771l-3.3974-110.3105c-.0819-2.6583,2.4521-5.1969,5.6307-5.6522l244.3105-34.9972c3.1786-.4553,6.3234,1.2697,6.9911,3.8441l27.7074,106.8282c18.7912,72.4511-34.4768,148.4453-120.4772,160.7647Z"/><path class="cls-32" d="m3212.7332,677.2547c-.0809.2028-30.5029,10.6426-51.4249,45.86-21.4409,34.556-26.5437,73.2525-27.5207,72.2923.7437.2917-10.0379-16.4292-11.0829-39.9727-1.8846-23.1167,5.9676-53.0559,24.5868-69.3433,18.3109-16.8551,36.6559-17.7204,48.1697-15.7659,11.8862,2.1678,16.9412,7.1555,17.272,6.9297Z"/><path class="cls-23" d="m3493.7184,761.7945c-.1752.7905-19.8233,3.5058-51.4157,11.4161-31.3758,6.9317-74.6959,19.0585-117.2041,16.0739-42.5219-2.9264-74.2522-29.1157-94.5176-58.334-20.406-28.5874-29.3472-60.2038-29.5231-59.4114.1752-.7904,19.8235-3.5056,51.4158-11.416,31.3756-6.9319,74.6955-19.0589,117.204-16.074,42.5215,2.9265,74.2513,29.1157,94.5173,58.334,20.4056,28.5873,29.3481,60.2039,29.5234,59.4113Z"/><path class="cls-23" d="m3234.4585,795.7326c-18.283-2.1799-22.0081-19.6934-18.9413-35.4286,2.9985-16.2352,12.7894-30.6917,19.9553-38.3152,29.9301-31.088,19.2119-56.9568,19.3343-57.0476.3241.0856-24.6064-3.9403-45.0827-1.4635-10.4518,1.3565-20.0829,4.485-27.8086,12.2937-7.8647,7.8998-13.8244,20.4798-20.134,42.8442-2.6469,11.7456-5.0392,23.5069-3.9327,36.084,1.1839,12.4075,5.8662,25.63,19.1532,36.3824,11.4755,9.4553,27.6706,10.8384,39.5862,9.5595,12.0619-1.2237,19.8445-5.1091,17.8703-4.9089Z"/><path class="cls-32" d="m3258.8267,654.7778c.1032-.2838-7.1206,11.0531-11.0714,23.6366-4.6675,12.9026-6.0614,27.0519-10.8493,39.7643-9.9044,24.5672-30.4097,58.039-31.0357,58.154,1.0289-.1668-15.2216-10.7212-23.6478-33.4888-9.0418-21.6721-10.2595-55.5574,6.6227-77.0864,16.3162-21.8122,36.8208-23.768,49.8426-21.0297,13.5829,2.8459,19.683,10.3858,20.139,10.05Z"/><path class="cls-25" d="m3325.9023,1800.6252h.0002c50.0005,16.9325,75.0342,22.9501,85.8729-20.2749l58.0436-171.1637c6.6862-26.6647-13.2816-61.0439-45.2443-79.0869h-.0001c-33.5568-18.9429-72.2341-15.4514-85.4377,10.6974l-70.6815,139.9797c-22.6015,44.7606,3.7272,101.6567,57.4469,119.8486Z"/><path class="cls-25" d="m3341.3793,2107.5572h.0002c63.1618-16.5175,92.4043-44.9025,94.7023-91.0607,2.2036-44.262-24.3066-236.1463-24.3066-236.1463-1.9322-41.6419-13.026-119.3774-56.4856-127.0901h-.0002c-47.4796-8.4262-94.2279,20.4594-100.2179,68.8214l72.1775,255.0381c-10.3991,83.9593-4.9426,97.6855,14.1303,130.4375Z"/><path class="cls-25" d="m3747.5994,1361.6427h0c16.9204,26.0527,23.236,39.2202-14.1964,47.2286l-147.5966,39.8499c-23.0913,4.9402-54.0529-4.0736-71.1962-20.3643h0c-17.9982-17.1031-16.5475-38.091,5.8205-46.5122l119.7403-45.0803c38.2887-14.4151,89.2493-3.1121,107.4283,24.8784Z"/><path class="cls-25" d="m4017.2455,1354.5189c3.4481,5.5928,3.7266,26.0157,3.7266,26.0157.1409,28.1139-39.2354,25.9673-79.5937,29.5275-38.7005,3.414-207.9753-1.1909-207.9753-1.1909-36.5763,1.0567-105.167-.9994-113.735-23.9965h0c-9.3605-25.1244,14.0103-51.7336,56.1466-57.3915l228.8603,16.0802c79.718.1394,104.2627-2.5195,112.5705,10.9555Z"/><path class="cls-32" d="m3433.1782,576.8653c-12.2396,47.8353-81.1246,59.7269-111.1797,57.3205-62.0578-4.7097-80.035,26.2767-80.3149,26.3551.7931.144,66.8309,102.7007,158.6041,44.0701,24.2571-15.2839,46.9303-30.9114,52.092-67.9275,4.4426-31.9292-17.8576-65.2545-19.2014-59.8182Z"/><path class="cls-31" d="m3677.542,1436.4034l-31.8567-100.728c-.8231-2.6026-3.6071-4.4504-6.209-4.1099l-94.1121,12.3176-24.6642-27.5149c-10.1539-11.3277-29.6067-12.691-43.8305-3.263l-147.9047,98.036c-17.5598,11.6393-26.8111,34.0809-19.9364,50.2881l18.9001,44.556-59.8866,86.4372c-3.6384,5.2514-2.3065,11.3686,3.0656,13.4636l219.5537,85.6214c5.9524,2.3212,11.1572-1.5576,11.5418-8.4383l9.8178-175.6777,21.8452-17.7664c.6534-.0475,1.3195-.1702,1.9856-.3912l138.6539-46.0128c2.5944-.8609,3.9502-3.9291,3.0366-6.8179Z"/><path class="cls-25" d="m3281.7321,929.7924h78.09c3.8092,0,6.9018,3.0926,6.9018,6.9018v36.6939c0,25.3587-20.5881,45.9468-45.9468,45.9468h0c-25.3587,0-45.9468-20.5881-45.9468-45.9468v-36.6939c0-3.8092,3.0926-6.9018,6.9018-6.9018Z" transform="translate(-104.6384 480.7381) rotate(-8.1521)"/><path class="cls-19" d="m3502.3254,1395.1071c-19.1492,22.911-41.2512,48.8839-66.6978,72.2946-25.1906,23.2442-53.8314,44.1322-80.5309,52.3215-31.7432,9.85-65.4854,10.7157-76.683-33.6608-15.5088-59.8675-30.1061-121.3696-46.9122-187.6633-16.1392-66.082-34.2272-138.0868-40.921-213.6886-2.7427-30.1481,6.4307-61.0285,24.5809-84.1518,17.8873-23.3166,44.4785-38.5617,70.3687-42.3407,36.653-5.4549,73.3187-8.7828,108.1368-11.104,49.2907-2.9951,74.8623,30.3629,76.317,76.9725,6.5715,56.7849,22.302,111.1614,35.7883,158.9094,14.0474,48.0382,25.4905,90.279,36.6718,129.8024,4.1389,30.5471-19.5767,55.9202-40.1185,82.3087Z"/><path class="cls-25" d="m3017.5076,1133.0418l176.9488-16.3798c12.1779-2.583,19.1632-23.4301,15.8726-46.401h0c-3.2906-22.971-15.8171-40.8062-28.192-39.5992l-179.7653-3.2818c-19.4308,1.4709-32.3941,27.3896-28.0748,57.5418h0c4.3193,30.1523,24.0884,51.7448,43.2107,48.12Z"/><path class="cls-25" d="m2834.1539,932.8109l14.602,53.8657c2.2615,8.3425-2.0581,16.7288-9.7114,18.2218l-28.6483,5.5887c-7.6533,1.493-14.6223-4.6912-15.4457-13.3142l-5.3165-55.6771c-.5375-5.6287,3.7893-10.987,9.5948-12.1196l21.7314-4.2393c5.8055-1.1325,11.7177,2.2284,13.1939,7.674Z"/><path class="cls-25" d="m2644.9784,1031.3326l41.815,11.7432c3.0847.8663,5.0488,3.7931,4.3647,6.5041l-4.9633,19.669c-.6841,2.711-3.7676,4.2202-6.8523,3.354l-41.815-11.7432c-3.0847-.8663-5.0488-3.7931-4.3647-6.5041l4.9633-19.669c.6841-2.711,3.7676-4.2202,6.8523-3.354Z"/><path class="cls-25" d="m2641.6572,990.3301l41.8028,11.7888c3.0838.8696,4.9934,3.9999,4.2436,6.9561l-5.4401,21.4485c-.7498,2.9562-3.8864,4.6634-6.9701,3.7938l-41.8028-11.7888c-3.0838-.8696-4.9934-3.9999-4.2436-6.9561l5.4401-21.4485c.7498-2.9562,3.8864-4.6634,6.9701-3.7938Z"/><path class="cls-25" d="m2689.3397,929.3485l18.5742,9.4026c1.3702.6936,1.4465,3.5089.1697,6.2563l-9.2643,19.9328c-1.2769,2.7473-3.4427,4.4276-4.8129,3.734l-18.5742-9.4026c-1.3702-.6936-1.4465-3.5089-.1697-6.2563l9.2643-19.9328c1.2769-2.7473,3.4427-4.4276,4.8129-3.734Z"/><path class="cls-25" d="m2642.8184,948.2524l39.5738,17.8986c2.9193,1.3204,4.3456,4.6877,3.1694,7.483l-8.5334,20.2808c-1.1761,2.7953-4.527,4.002-7.4463,2.6817l-39.5738-17.8986c-2.9193-1.3204-4.3456-4.6877-3.1694-7.483l8.5334-20.2808c1.1761-2.7953,4.527-4.002,7.4463-2.6817Z"/><path class="cls-25" d="m2864.7099,1041.4683h0c-7.9357,30.8941-42.6714,52.113-79.4373,46.8305l-75.9072-10.9064c-5.3079-.7626-8.7846-4.9079-7.6808-9.2051l29.1945-113.6549c1.1038-4.2972,6.2602-6.6912,11.4148-5.3316l73.714,19.4442c35.7036,9.4179,56.6377,41.9294,48.702,72.8233Z"/><path class="cls-25" d="m2686.6181,1043.0534l42.3458,6.6674c3.1238.4918,5.1423,3.3113,4.4856,6.2656l-4.2059,18.92c-.6567,2.9542-3.7499,4.9689-6.8737,4.477l-42.3458-6.6674c-3.1238-.4918-5.1423-3.3113-4.4856-6.2656l4.2059-18.92c.6567-2.9542,3.7499-4.9689,6.8737-4.477Z"/><path class="cls-25" d="m2680.4652,1001.245l40.8745,12.9187c3.0153.953,4.59,4.0424,3.4993,6.8654l-7.9134,20.4815c-1.0907,2.8229-4.4501,4.3529-7.4654,3.3999l-40.8745-12.9187c-3.0153-.953-4.59-4.0424-3.4993-6.8654l7.9134-20.4815c1.0907-2.8229,4.4501-4.3529,7.4654-3.3999Z"/><path class="cls-25" d="m2832.5954,1089.7234l177.1918,43.3102c12.4556.3627,24.8315-21.9767,27.8597-49.6327h0c3.0282-27.6561-4.2483-51.8886-16.5225-53.9079l-178.0787-46.3637c-19.158-3.6648-33.2756,15.7195-37.2505,52.0214h0c-3.9749,36.3021,9.1891,48.8403,26.8002,54.5728Z"/><path class="cls-25" d="m2707.1175,938.3987l36.4884,11.3833c2.6917.8397,4.0098,3.8393,2.929,6.6657l-7.8415,20.5067c-1.0808,2.8264-4.1674,4.4519-6.8591,3.6121l-36.4884-11.3833c-2.6917-.8397-4.0098-3.8393-2.929-6.6657l7.8415-20.5067c1.0808-2.8264,4.1674-4.4519,6.8591-3.6121Z"/><path class="cls-25" d="m2681.5708,966.0118l48.3131,15.2697c3.0153.953,4.59,4.0424,3.4993,6.8654l-7.9134,20.4815c-1.0907,2.8229-4.4501,4.3529-7.4654,3.3999l-48.3131-15.2697c-3.0153-.953-4.59-4.0424-3.4993-6.8654l7.9134-20.4815c1.0907-2.8229,4.4501-4.3529,7.4654-3.3999Z"/><path class="cls-25" d="m2786.9457,908.0568l40.1487,15.7494c6.2181,2.4392,8.1933,8.3323,4.0805,12.9747l-15.3952,17.3775c-4.1128,4.6424-12.1543,5.5966-17.5996,2.2851l-35.1588-21.3817c-3.5544-2.1616-3.8004-6.7447-.6806-10.2662l11.6781-13.1818c3.1198-3.5215,8.868-5.1491,12.9269-3.5569Z"/><path class="cls-25" d="m3628.9482,1050.7154l-167.9625,36.8654c-15.0944,1.9604-26.8773-14.3024-26.1548-35.646h0c.7046-20.8134,13.0994-38.8977,27.5175-40.6474l160.6356-33.2528c13.7418-1.6462,26.4912,12.7337,28.4126,32.3756h0c1.9687,20.1258-8.0938,38.4656-22.4485,40.3053Z"/><path class="cls-25" d="m3701.3611,910.8579l1.0203,28.8482c.1627,4.5991,3.2369,8.771,6.7762,9.0041l12.816.8438c3.3127.2181,5.2505-3.4294,4.3939-7.8613l-5.4308-28.0986c-.5396-2.7917-2.9774-5.2852-5.462-5.6573l-9.5292-1.4269c-2.6087-.3906-4.6847,1.5107-4.5843,4.348Z"/><path class="cls-25" d="m3790.0863,955.3075l-15.339,2.9713c-1.1772.228-1.9243,1.389-1.6542,2.5785l1.9584,8.6242c.2697,1.1878,1.4508,1.9428,2.6189,1.6792l15.2192-3.4338c1.0793-.2435,1.7488-1.3695,1.493-2.5035l-1.8572-8.2333c-.2561-1.1356-1.3514-1.8933-2.4392-1.6826Z"/><path class="cls-25" d="m3788.2662,939.1316l-15.5268,1.2819c-1.1912.0983-2.0977,1.3814-2.0086,2.8505l.6464,10.6501c.089,1.4667,1.1381,2.5498,2.3254,2.408l15.4764-1.8495c1.098-.1312,1.924-1.3839,1.8408-2.7846l-.6037-10.1705c-.0833-1.4029-1.0483-2.4768-2.1498-2.3859Z"/><path class="cls-25" d="m3766.0306,903.4475l-14.1232,6.0168c-1.0614.4522-1.4814,1.9648-.9315,3.3589l3.9704,10.0662c.5446,1.3808,1.8484,2.125,2.8955,1.6565l13.9348-6.2359c1.0092-.4516,1.4057-1.9282.8829-3.2837l-3.8112-9.8811c-.5278-1.3683-1.7949-2.1334-2.8177-1.6976Z"/><path class="cls-25" d="m3790.5614,917.6193l-21.0803,4.9846c-1.6155.382-2.722,1.8845-2.4512,3.3358l1.9569,10.4878c.2687,1.4398,1.8032,2.2701,3.4025,1.8485l20.8735-5.5027c1.4827-.3909,2.4901-1.8373,2.2454-3.2172l-1.7822-10.05c-.2466-1.3905-1.6677-2.2408-3.1647-1.8868Z"/><path class="cls-25" d="m3702.9758,970.696h0c7.9957,16.2816,25.9431,23.8931,39.8829,16.9631l25.8783-12.8652c1.6787-.8345,2.2732-3.1208,1.3212-5.0812l-25.2894-52.0764c-.9604-1.9776-3.1284-2.9146-4.8178-2.0816l-26.0438,12.8423c-14.029,6.9178-18.9484,25.9743-10.9316,42.2989Z"/><path class="cls-25" d="m3774.255,958.475l-15.6273,6.0916c-1.2006.468-1.6363,1.8279-.9621,3.0195l4.3171,7.6304c.674,1.1912,2.1968,1.7532,3.3779,1.2515l15.3747-6.531c1.0892-.4627,1.4507-1.7686.8086-2.9043l-4.1127-7.2749c-.6423-1.1361-2.0691-1.7143-3.1762-1.2828Z"/><path class="cls-25" d="m3771.658,940.6099l-15.3576,5.9545c-1.1791.4572-1.6587,1.9826-1.0603,3.3865l4.3266,10.1504c.5942,1.3941,2.0304,2.125,3.1861,1.6277l15.0557-6.4786c1.0675-.4593,1.4794-1.9236.9201-3.2571l-4.0714-9.7075c-.563-1.3424-1.9105-2.0979-2.9991-1.6758Z"/><path class="cls-25" d="m3733.5188,992.3658l-98.9415,56.5966c-9.0761,3.0856-22.0847-9.5971-28.8822-28.0591h0c-6.7499-18.3327-4.942-35.7833,3.992-38.9015l102.3829-45.6376c9.0435-3.2618,18.7567,5.6843,26.0708,24.0576h0c7.3665,18.5048,3.0619,26.661-4.6221,31.9439Z"/><path class="cls-25" d="m3751.2432,909.7278l-14.1879,7.3639c-1.0849.5631-1.2697,2.0815-.4063,3.3706l6.2427,9.321c.8575,1.2803,2.427,1.8376,3.4837,1.2422l13.8209-7.7879c.9838-.5544,1.1189-2.0126.3039-3.2439l-5.9326-8.9627c-.8204-1.2394-2.3146-1.8273-3.3244-1.3032Z"/><path class="cls-25" d="m3768.9462,922.788l-18.0291,6.9884c-1.1789.457-1.6126,1.9701-.9582,3.359l4.7313,10.0423c.6498,1.3793,2.1299,2.0985,3.2837,1.6017l17.6489-7.598c1.0517-.4528,1.4115-1.8933.8043-3.2044l-4.4204-9.544c-.6113-1.3198-1.9864-2.0614-3.0605-1.6451Z"/><path class="cls-25" d="m3717.5561,897.1484l-14.386,8.8805c-2.3337,1.4406-2.3893,4.5249.0086,6.7525l8.8518,8.2234c2.3322,2.1666,5.7512,2.2722,7.5034.3621l10.854-11.8315c1.0549-1.1499.5426-3.3474-1.0984-4.9397l-6.2043-6.0199c-1.6741-1.6243-4.1372-2.2867-5.5291-1.4275Z"/><path class="cls-19" d="m3247.4929,1114.2439l-111.5837,31.2569c-4.0301,1.1289-7.8632-1.3346-8.4586-5.4912l-17.3818-121.3403c-.5954-4.1566,2.3919-7.5971,6.5768-7.645l115.8713-1.3257c2.4937-.0285,4.8804,2.5249,5.3315,5.6739l13.1687,91.9289c.4511,3.1491-1.1227,6.2698-3.5242,6.9425Z"/><path class="cls-19" d="m3508.2862,1088.8373l-93.3912,15.2965c-.3384.0554-.6639.1647-.9804.2969-3.6179,1.5115-7.4388.166-8.5871-3.1692l-31.1868-91.4315c-1.1731-3.4073,1.1664-6.6578,5.1526-7.3637.2448-.0434.4953-.0582.7439-.0593l115.8463-.5464c.3241-.0442.6558-.0339.9871.0246,2.0901.3695,3.852,2.7079,4.1217,5.2365l10.9646,75.2682c.0334.2292.0909.4538.152.6772.0064.0234.0126.0468.0187.0703.684,2.6311-1.1586,5.2605-3.8413,5.6999Z"/><path class="cls-19" d="m3291.0609,1957.9526c36.9348-44.082,88.2084,58.7426,144.8871,55.2648,45.2643,104.5666-19.2837,177.1666-54.9194,188.5515l-27.1885,8.6862c-27.5402,8.7986-64.437-1.1873-84.7277-21.0027l-193.0523-52.1905c-18.3403-17.9107-24.3773-40.5-18.2898-65.2668,3.15-12.8155,20.6396-36.6214,20.6396-36.6214,58.9006-84.8114,155.9141-9.7049,212.6511-77.421Z"/><path class="cls-19" d="m4000.7448,1322.966c-36.3919,4.5017,10.9479,52.585-10.2696,82.3489,64.7336,31.0079,71.1608,44.1558,97.4355,42.8091,6.2994-.3229,17.2609-7.2272,21.9974-11.0658,11.1007-8.9963,22.8495-21.8069,27.1144-49.3175,0,0,29.893-85.1837,24.5425-113.4448-1.7763-9.3823-15.5715-25.3564-29.9813-27.9441-7.8112-1.4028-20.7738-5.2528-25.0182-1.4463-48.7949,43.7599-50.8207,71.257-105.8206,78.0606Z"/><path class="cls-39" d="m3238.0409,2073.3701l163.4096,110.9699c7.8693,5.3439-8.218,15.143-31.0188,21.5261l-17.2514,4.8296c-17.3486,4.8568-38.238,6.9744-49.5504,5.0623l-147.9694-25.0108c-42.4282-7.1715-88.8438-30.1843-93.8148-56.8095l-6.4797-34.7058c-12.4394-66.626,96.8064-84.1745,182.675-25.8619Z"/><g class="cls-9"><polygon class="cls-12" points="3468.204 2171.2689 3472.1693 2166.8287 3258.2511 2230.9879 3265.0884 2231.7702 3468.204 2171.2689"/><polygon class="cls-12" points="3472.763 2162.24 3477.602 2156.5592 3236.8103 2230.0873 3245.5861 2231.0081 3472.763 2162.24"/><polygon class="cls-12" points="3465.0434 2154.877 3470.027 2147.7611 3200.0189 2232.1072 3212.0493 2233.0164 3465.0434 2154.877"/><polygon class="cls-12" points="3470.6203 2139.7213 3477.1067 2129.7956 3162.7593 2231.1091 3179.1397 2232.2217 3470.6203 2139.7213"/><polygon class="cls-12" points="3472.1787 2121.2886 3480.3005 2107.0457 3110.9008 2231.1418 3134.0288 2232.4287 3472.1787 2121.2886"/><polygon class="cls-12" points="3482.7448 2088.6124 3495.0495 2064.9213 3036.7541 2229.4816 3071.8249 2231.1952 3482.7448 2088.6124"/><polygon class="cls-12" points="3536.1872 2018.9853 3566.5512 1967.9605 2938.9733 2219.9595 2995.618 2223.3096 3536.1872 2018.9853"/></g><path class="cls-39" d="m4161.5581,1274.2483c-1.065-5.6255-6.4529-13.6182-13.7011-19.6768.921,1.9059,1.5696,3.7163,1.8855,5.3386,5.9014,30.3073-24.3638,121.1459-24.3638,121.1459-10.1497,29.936-16.2718,42.977-27.7629,52.4822-4.9027,4.0556-16.2713,11.3233-22.8454,11.5987-2.8941.1213-5.5572.07-8.0891-.1546,6.7271,2.5182,13.004,3.5154,21.2227,3.0942,6.2995-.3229,17.2608-7.2273,21.9973-11.0658,11.1008-8.9963,22.8494-21.8069,27.1142-49.3174,0,0,29.893-85.1838,24.5425-113.4449Z"/><path class="cls-8" d="m3494.362,1457.0081c-76.5768-29.7591-156.7913-70.6222-232.6705-232.0739-12.3279-26.2306-34.1597-110.7858-34.1597-110.7858-.7515-3.1218-3.9211-5.0608-7.0427-4.309l-137.7198,23.6657c-3.1218.7519-5.0609,3.9212-4.309,7.043l14.6907,38.8317c.752,3.1218,3.9213,5.0608,7.0431,4.3089l82.4949-17.9149,108.4776,330.7734-57.298,92.0762c-1.6964,2.7263-.854,6.3449,1.8724,8.0415l124.018,92.4274c2.7264,1.6965,21.172-154.1329,24.3104-154.8131,49.3509-10.6961,109.9348-70.0747,109.9348-70.0747,1.3069-1.2496,5.786-5.8476,5.786-5.8476,0,0-3.7364-.6915-5.4284-1.349Z"/><g class="cls-4"><g class="cls-10"><path class="cls-18" d="m3677.5085,1436.3955l-31.8567-100.728c-.823-2.6026-3.6071-4.4504-6.209-4.1098l-94.1122,12.3177-5.4535-6.0839c2.6273-8.009,3.7129-16.2946,2.5333-25.001-11.1813-39.5236-22.6244-81.7643-36.6718-129.8026-7.8981-27.9626-16.5633-58.2013-23.7103-89.8632l26.2244-4.2952c2.6828-.4395,4.5253-3.069,3.8414-5.6999-.0061-.0235-.0123-.047-.0188-.0703-.061-.2235-.1185-.448-.1519-.6773l-10.9646-75.268c-.2696-2.5288-2.0315-4.8669-4.1217-5.2366-.3313-.0586-.663-.0689-.9871-.0246l-28.6389.1351c-7.9022-34.6256-32.5022-57.3776-73.5778-54.8818-34.8181,2.3212-71.4838,5.6492-108.1368,11.1041-25.8901,3.7789-52.4813,19.024-70.3687,42.3407-2.3641,3.0118-4.572,6.1579-6.625,9.4141l-91.8908,1.0516c-4.185.0479-7.1723,3.4884-6.5768,7.6448l17.3818,121.3403c.5954,4.1566,4.4284,6.6202,8.4586,5.4913l59.8268-16.7588c8.5609,59.574,22.7905,116.5307,35.7656,169.657,16.8061,66.2937,31.4034,127.7958,46.9122,187.6635,6.3906,25.3259,20.1256,35.9116,36.6398,38.5059l-47.0117,67.8541c-3.6384,5.2514-2.3065,11.3687,3.0656,13.4637l219.5537,85.6214c5.9525,2.3212,11.1573-1.5576,11.5419-8.4383l9.8178-175.6778,21.8452-17.7663c.6534-.0474,1.3194-.1701,1.9855-.3913l138.6539-46.0126c2.5944-.861,3.9502-3.9291,3.0367-6.818Z"/></g></g><path class="cls-29" d="m4279.148,658.3732h0c23.0248,1.6685,44.4508-16.2517,47.8192-41.3569l6.9544-51.8325c.4863-3.6245-1.7328-6.8051-4.9355-7.0371l-84.7054-6.1382c-3.2027-.2321-5.8572,2.5953-5.8985,6.252l-.5912,52.2936c-.2864,25.3285,18.3322,46.1506,41.357,47.8192Z"/><path class="cls-29" d="m4205.3816,603.2198l34.6958,21.4241c5.3735,3.3181,12.0387,2.3612,14.5445-2.2912l9.3799-17.4151c2.5058-4.6524-.4633-10.5578-6.3077-13.0016l-37.736-15.7795c-3.8149-1.5952-8.3738.0362-10.2746,3.5653l-7.1152,13.2103c-1.9008,3.5291-.6943,8.1219,2.8133,10.2877Z"/><path class="cls-25" d="m4234.4811,593.7445l-15.6114-17.3382c-2.4178-2.6853-6.2492-1.9042-8.394,1.8691l-8.0287,14.1245c-2.1448,3.7733-1.4771,8.5578,1.3438,10.5341l18.2136,12.7602c1.8413,1.29,4.6222-.0362,6.2492-2.8985l6.0902-10.7142c1.627-2.8623,1.7155-6.5842.1373-8.337Z"/><rect class="cls-25" x="4679.6975" y="1238.6504" width="379.0098" height="158.5371" rx="79.2685" ry="79.2685" transform="translate(840.5462 -1717.8629) rotate(21.8547)"/><path class="cls-29" d="m4523.1523,793.1012l-143.6688,16.0826c-3.1468.3523-6.0524-1.7262-6.7355-4.818l-39.0707-176.8381c-.7216-3.2662-3.9067-5.369-7.1938-4.7493l-64.7035,12.1983c-3.2871.6197-5.4879,3.7379-4.9707,7.0426l34.1071,217.9484c1.6029,10.2429,5.5288,19.4804,11.0232,27.0329,9.4792,14.8769,26.8721,23.9044,45.5854,21.8096l186.2464-20.8488c26.1949-2.9322,45.0529-26.5444,42.1205-52.7394h0c-2.9322-26.1951-26.5444-45.0532-52.7395-42.1208Z"/><path class="cls-25" d="m4288.1429,832.5347l-143.5396-17.1973c-3.144-.3767-5.4973-3.0645-5.4552-6.2306l2.4034-181.0869c.0444-3.3447-2.5755-6.1201-5.9172-6.2685l-65.7785-2.9211c-3.3417-.1484-6.1973,2.3839-6.4495,5.7193l-16.6364,219.9728c-.7819,10.3381.9276,20.2286,4.5493,28.8374,5.826,16.6504,20.6937,29.416,39.3901,31.656l186.0789,22.2939c26.1713,3.1357,49.9292-15.5385,53.0647-41.7099h0c3.1357-26.1716-15.5385-49.9296-41.71-53.065Z"/><path class="cls-29" d="m4807.132,1069.2194l169.968-18.9067c3.7228-.4141,6.5335-3.57,6.5155-7.3158l-1.0309-214.2353c-.019-3.957,3.1078-7.2138,7.0622-7.3559l77.8399-2.7972c3.9545-.1421,7.307,2.8819,7.572,6.8301l17.4783,260.3767c.8215,12.2369-1.2997,23.9195-5.67,34.0668-7.0583,19.6378-24.7734,34.5897-46.9121,37.0523l-220.3396,24.5098c-30.9899,3.4473-58.9067-18.8805-62.3539-49.8705h0c-3.4474-30.9902,18.8804-58.9072,49.8706-62.3543Z"/><path class="cls-25" d="m4426.7596,766.7614h64.271c3.2222,0,5.8383,2.6161,5.8383,5.8383v32.1355c0,20.9583-17.0155,37.9738-37.9738,37.9738h0c-20.9583,0-37.9738-17.0155-37.9738-37.9738v-32.1355c0-3.2222,2.6161-5.8383,5.8383-5.8383Z" transform="translate(-19.1779 1494.8123) rotate(-18.991)"/><path class="cls-33" d="m4879.3252,1049.2539l-226.6278,44.0717c-2.3929.4653-4.4014,1.8645-4.4879,3.114l-65.9676,56.4084c-1.2274.3794-2.3042,1.067-2.8781,1.9326l-8.9903,122.6539c-1.0318,1.5565-.4071,3.6373,1.4067,4.6343l171.8005,94.4202c4.3665,2.3997,10.4332,2.8245,10.9645-.081,9.9148-54.2207,82.8566-124.9883,110.4748-166.6516,1.632-2.4619-1.5126-5.191-6.9-6.0505l-80.6784-12.8723c-2.9393-.469-2.55-4.8139.4258-4.7528l91.8386,1.8832c5.674.1163,10.5044-1.404,10.6415-3.3804l9.2779-133.7878c.1371-1.9764-4.5405-2.662-10.3002-1.5419Z"/><path class="cls-25" d="m4280.1602,537.1137h264.2105c3.2222,0,5.8383,2.6161,5.8383,5.8383v120.4781c0,76.133-61.8104,137.9434-137.9434,137.9434h-.0003c-76.133,0-137.9434-61.8104-137.9434-137.9434v-120.4781c0-3.2222,2.6161-5.8383,5.8383-5.8383Z" transform="translate(38.4534 -217.1769) rotate(2.8319)"/><rect class="cls-29" x="4230.7388" y="542.1003" width="37.4038" height="21.8451" rx="10.9225" ry="10.9225" transform="translate(3588.1766 4786.9702) rotate(-88.538)"/><rect class="cls-29" x="4254.2704" y="534.8952" width="37.4038" height="23.6964" rx="11.8482" ry="11.8482" transform="translate(3617.3852 4804.3749) rotate(-88.538)"/><rect class="cls-29" x="4156.6739" y="563.1231" width="37.4038" height="23.6964" rx="11.8482" ry="11.8482" transform="translate(4154.3191 4789.6969) rotate(-97.5544)"/><rect class="cls-25" x="4233.5196" y="534.7862" width="27.4451" height="23.6964" rx="11.8482" ry="11.8482" transform="translate(3006.1682 4645.1231) rotate(-80.4869)"/><rect class="cls-25" x="4254.8181" y="533.8536" width="34.2528" height="22.2999" rx="11.1499" ry="11.1499" transform="translate(3516.5453 4784.8044) rotate(-87.1681)"/><rect class="cls-29" x="4138.3221" y="545.69" width="37.4038" height="23.6964" rx="11.8482" ry="11.8482" transform="translate(4150.8365 4751.7794) rotate(-97.5544)"/><rect class="cls-29" x="4113.1595" y="540.6256" width="37.4038" height="23.6964" rx="11.8482" ry="11.8482" transform="translate(4127.3863 4721.1051) rotate(-97.5544)"/><rect class="cls-29" x="4088.718" y="534.5171" width="37.4038" height="23.6964" rx="11.8482" ry="11.8482" transform="translate(4105.787 4689.9641) rotate(-97.5544)"/><path class="cls-40" d="m4613.874,802.3351c-33.1365-10.6115-85.5034-9.6867-140.4376-2.6205-51.1291,6.616-104.4613,18.5159-150.5276,32.7053-4.379-.7525-8.8685-1.467-13.5241-2.1244-19.9711-2.9241-42.9568-4.8107-67.3831-6.2016-3.7962-.2219-6.2033,1.8358-5.6393,4.6733,3.6925,18.1558-1.3024,39.3019-6.2505,60.4315-5.1602,21.2025-10.2729,42.3888-11.7052,62.3086-.2614,3.1233,1.8554,6.1249,4.6142,6.7052,17.7619,3.6844,34.9323,7.5724,55.118,10.4225,10.555,1.5457,21.9588,2.799,33.9661,3.8448,4.3482,14.3494,9.5134,28.2944,15.7164,41.7221,18.8553,42.5601,28.5433,76.0386,48.3752,120.1372,17.6797,39.313,39.6507,89.5906,70.5632,117.0982,15.6278,13.6948,34.5164,25.3011,57.8435,34.2718,23.1705,9.0246,50.7797,15.4132,80.1949,19.9298,8.0655,1.1718,11.5488-2.6326,8.7274-8.5346-24.622-51.4322,27.3817-134.3171,75.1831-195.5633,5.4008-7.0185,7.8338-14.3492,5.4123-16.5804-37.126-33.7591-45.9962-81.3505-48.2754-129.2344-1.1905-23.9245-.9145-47.8598-.7384-70.5066.3279-22.6989.5555-44.1089,2.7791-64.1904.7488-7.0173-4.66-15.8043-14.0122-18.6941Z"/><path class="cls-25" d="m4088.5407,657.4043h0c-21.1526-9.2462-31.7679-35.0828-23.0571-58.868l17.9844-49.1074c1.2576-3.4339,4.7026-5.2151,7.6448-3.929l77.8179,34.0157c2.9423,1.2861,3.9746,5.0244,2.3082,8.2796l-23.8301,46.552c-11.5422,22.5476-37.7154,32.3032-58.868,23.057Z"/><rect class="cls-25" x="4082.0716" y="530.1662" width="37.4038" height="21.8451" rx="10.9225" ry="10.9225" transform="translate(1581.271 3821.5198) rotate(-59.9909)"/><rect class="cls-25" x="4105.7432" y="534.9698" width="37.4038" height="23.6964" rx="11.8482" ry="11.8482" transform="translate(1588.1423 3844.8819) rotate(-59.9909)"/><rect class="cls-25" x="4149.2788" y="557.6962" width="37.4038" height="23.6964" rx="11.8482" ry="11.8482" transform="translate(1590.2243 3893.9415) rotate(-59.9909)"/><path class="cls-25" d="m4179.5048,642.95l-40.681,2.8011c-6.3005.4338-11.7532-3.5169-11.804-8.801l-.1904-19.7796c-.0509-5.2841,5.3268-9.1272,11.6368-8.5682l40.7427,3.6099c4.1189.3649,7.3934,3.9318,7.432,7.94l.1444,15.0039c.0386,4.0083-3.1679,7.5107-7.2806,7.7939Z"/><path class="cls-25" d="m4203.6111,614.7162l-16.6885,24.6925c-2.5846,3.8243-7.0858,4.382-9.8741,1.0495l-10.4375-12.4745c-2.7883-3.3325-2.4-8.8058.7086-12.0038l20.0715-20.6493c2.0291-2.0875,5.3573-1.6629,7.4724.865l7.9174,9.4626c2.1151,2.5279,2.5173,6.5617.8302,9.0579Z"/><g class="cls-11"><g class="cls-3"><path class="cls-22" d="m4400.4184,724.7826c-.6111,1.0659,12.1695,15.7655,29.4442,44.2135,17.4862,28.0791,39.4667,69.9064,62.101,116.7758,45.8955,92.6455,93.2026,207.5592,140.2108,224.4929,23.505,8.4652,57.3362,12.889,96.4777,11.9437,39.0643-.8104,83.4389-6.9898,126.2595-16.6415,42.744-9.5181,83.9338-22.508,114.8597-33.8548,30.8498-11.2139,51.4357-20.7845,51.2-20.3734-131.8459-68.0877-213.5498-223.6294-308.7559-355.6214-95.4099-5.1758-195.2942-2.5477-311.797,29.0652Z"/></g></g><rect class="cls-25" x="4126.9026" y="542.5522" width="42.771" height="23.6964" rx="11.8482" ry="11.8482" transform="translate(1593.4946 3869.3188) rotate(-59.9909)"/><rect class="cls-25" x="4898.739" y="1059.6662" width="111.6764" height="359.156" rx="55.8382" ry="55.8382" transform="translate(-133.5954 1679.7677) rotate(-18.991)"/><path class="cls-1" d="m4987.3975,1127.4365c-39.6101,36.6945-81.6376-5.378-131.556,3.3266-24.6998-49.8508-40.6118-102.219-22.089-134.581l14.2326-24.8663c14.5063-25.3445,49.7879-36.2509,78.3439-27.3401l160.9636,50.2284c18.8912,5.895,34.7862,27.295,36.2166,49.5436l1.3607,21.1652c.0862,85.8221-104.0707,31.5807-137.4724,62.5238Z"/><path class="cls-39" d="m5086.2228,1108.2143l-212.863-36.5659c-40.1394-6.8952-58.1302-43.1043-39.6073-75.4663l14.2326-24.8663c14.5063-25.3445,49.7879-36.2509,78.3439-27.3401l160.9636,50.2284c18.8912,5.895,34.7862,27.295,36.2166,49.5436l1.3607,21.1652c1.7107,26.609-15.0601,47.3534-38.6471,43.3016Z"/><g class="cls-7"><rect class="cls-12" x="4869.1622" y="851.8621" width="16.5518" height="306.5525" transform="translate(949.915 -2056.6042) rotate(26.2941)"/><rect class="cls-12" x="4904.1981" y="863.0003" width="16.5518" height="306.5525" transform="translate(958.4741 -2070.972) rotate(26.2941)"/><rect class="cls-12" x="4944.5485" y="861.6493" width="16.5518" height="306.5525" transform="translate(962.0506 -2088.9862) rotate(26.2941)"/><rect class="cls-12" x="4979.5845" y="872.7875" width="16.5518" height="306.5525" transform="translate(970.6097 -2103.3539) rotate(26.2941)"/><rect class="cls-12" x="5014.5115" y="879.5114" width="16.5518" height="306.5525" transform="translate(977.2021 -2118.1301) rotate(26.2941)"/><rect class="cls-12" x="5049.5474" y="890.6496" width="16.5518" height="306.5525" transform="translate(985.7612 -2132.4979) rotate(26.2941)"/><rect class="cls-12" x="5077.7759" y="913.8572" width="16.5518" height="306.5525" transform="translate(998.9624 -2142.6013) rotate(26.2941)"/></g><path class="cls-35" d="m5092.6568,792.1867c-17.8417,75.8608-71.3802,23.259-110.0723,36.5749-29.0783-53.1143-46.5977-64.5727-36.8374-118.2273l16.3898-28.6765c10.5705-27.9545,43.7471-44.7986,73.2101-40.5501l139.2234-13.3415c19.4912,2.8106,38.3107,21.7483,42.9955,43.9395l4.4566,21.1106c-4.1672,70.3494-105.7034,27.5191-129.3657,99.1704Z"/><path class="cls-39" d="m5191.0502,697.1839l-199.5562,43.6898c-39.3355,8.6119-57.4426-13.2008-40.5563-42.6446l12.1738-21.2268c11.7535-20.494,41.1828-36.9942,65.7027-39.4754l137.2851-13.8921c16.0096-1.62,33.2931,6.6323,39.7923,19.682l6.4172,12.8851c8.4126,16.8914-.0385,36.3363-21.2587,40.9821Z"/><g class="cls-2"><polygon class="cls-12" points="4920.9777 825.8202 4937.0697 826.6452 5043.2883 590.431 5031.1651 590.2112 4920.9777 825.8202"/><polygon class="cls-12" points="4958.8628 821.9034 4975.018 822.7185 5071.348 587.753 5059.1903 587.5379 4958.8628 821.9034"/><polygon class="cls-12" points="5001.2121 804.2992 5017.1936 805.0621 5101.5988 577.4867 5089.5411 577.291 5001.2121 804.2992"/><polygon class="cls-12" points="5038.3171 800.4806 5054.3591 801.234 5129.2278 574.8571 5117.1367 574.666 5038.3171 800.4806"/><polygon class="cls-12" points="5074.5202 792.7598 5090.5466 793.4919 5155.9211 570.0751 5143.8398 569.8925 5074.5202 792.7598"/><polygon class="cls-12" points="5111.2617 788.9838 5127.3472 789.7067 5183.3477 567.467 5171.2335 567.2889 5111.2617 788.9838"/><polygon class="cls-12" points="5144.0523 798.7015 5160.4368 799.4561 5208.5649 572.3975 5196.2826 572.2094 5144.0523 798.7015"/></g><path class="cls-34" d="m4222.6427,461.0716c121.1404,7.8986,230.1701-17.2041,317.0984-64.2669,86.5876-45.6347,151.0727-113.23,175.2392-157.3392,53.3272-90.5153,152.872-182.2721,202.9599-206.1965,86.5685-41.3493,201.3416-32.5222,202.287-32.3951-.3987.475-90.1533,36.2534-124.1441,71.7329-54.0676,56.4356-17.7661,86.8747-60.8726,198.1784-27.21,70.2581-89.1629,71.9941-152.7697,138.7044-63.1985,67.2894-87.1981,197.3398-181.7738,218.0169-51.5081,11.3818-110.1222,3.664-172.4001-14.9799-61.4869-18.9964-126.6385-48.9193-172.9466-90.088-16.5499-14.6495-61.7802-62.9143-32.6777-61.367Z"/><path class="cls-34" d="m4390.1436,354.4548c24.1947,22.8227,9.2945,57.3967-1.6654,69.711-22.4778,25.5211-9.9971,44.7157-10.04,44.8672.3365-.2956,81.5216,8.131,76.2533-53.5398-1.2674-16.2228-3.2396-31.8757-23.3311-47.6448-17.3335-13.5978-43.9815-15.9666-41.2169-13.3936Z"/><path class="cls-34" d="m4517.0749,408.3333c138.0352-79.8614,123.7967-176.9158,140.9949-227.0202,24.0028-69.9285,81.6092-168.727,81.894-169.3111-.5831,1.6295,40.729,155.9472-107.2842,324.8201-35.5135,40.5184-58.6104,99.1478-85.6046,112.3738-23.2763,11.3883-34.4603-37.7093-30.0001-40.8626Z"/><path class="cls-34" d="m4444.6211,638.8368c35.754,2.508,62.3564,58.9153,68.8094,84.7745,13.5,53.3515,39.3639,63.4897,39.4925,63.714-.1156-.6956,51.7126-73.5004-12.7648-141.6178-16.8978-18.0395-33.6026-34.6806-60.1104-32.9701-22.8624,1.4837-39.4773,25.8543-35.4267,26.0993Z"/><path class="cls-34" d="m4642.1906,705.599c-38.0436,3.1772-59.6513-39.8941-63.3973-60.4855-7.9285-42.4557-34.4265-47.0916-34.5368-47.2595.0386.5624-64.4967,68.8463-3.7004,116.0937,15.91,12.5387,31.7847,23.9409,60.4285,18.6114,24.7057-4.6036,45.5208-27.3527,41.206-26.9602Z"/><path class="cls-34" d="m4997.0629,187.6826c-8.5947,90.5486-158.6586,161.2431-227.1341,179.1332-141.2858,37.3815-169.4296,103.3903-170.0276,103.7289,1.8387-.3348,190.7341,126.2665,373.75-40.8994,48.4582-43.8212,93.2221-87.0691,90.1905-153.984-2.6369-57.712-65.9081-98.2347-66.7789-87.9787Z"/><path class="cls-34" d="m4661.5496,669.907c-24.5213.6118-51.7706-39.1062-60.3908-57.7093-17.9104-38.3683-37.023-44.0569-37.1467-44.2132.1928.5044-22.733,57.6944,31.9869,103.4325,14.3716,12.1251,28.3822,23.2334,45.9729,20.1503,15.1701-2.6653,22.3494-21.7584,19.5778-21.6603Z"/><path class="cls-34" d="m4290.3197,376.9887c7.1735,37.4961,54.4697,46.7212,75.3097,44.7901,43.0236-3.7842,54.6164,20.4901,54.8078,20.5512-.5521.1141-48.9593,80.6388-110.8192,34.7928-16.3563-11.9507-31.6085-24.1731-34.1805-53.1948-2.2118-25.0334,14.0995-51.2007,14.8822-46.9394Z"/><path class="cls-34" d="m4246.7405,560.8772c20.3977,13.6237,64.6571-5.38,81.886-16.4953,35.6451-22.8546,54.8391-17.4467,55.0272-17.5128-.4326.3232-11.6243,60.9123-82.3189,70.321-18.6273,2.5661-36.406,4.4659-49.6252-7.542-11.3967-10.361-7.2592-30.3353-4.9691-28.771Z"/><path class="cls-34" d="m4663.1448,342.5593c121.464,44.1543,279.0402,63.3264,342.2544,28.6451,80.5165-44.8846,137.8301-51.1596,175.5462-43.4958,37.6161,7.2211,55.6352,28.381,55.2525,28.1446-.5854-.217-10.822,18.4039-33.5416,44.0852-22.4613,25.6993-57.406,58.4585-101.4097,86.915-43.9648,28.588-96.9924,52.876-154.7709,64.6728-57.9642,12.0433-120.6794,11.5954-188.2897-3.6079-36.0215-8.2022-72.3639-28.1116-97.8322-54.1765-25.3501-26.2574-39.826-58.67-29.3828-96.3301,3.9106-13.8238,11.0185-62.4477,32.1739-54.8524Z"/><path class="cls-34" d="m4770.2336,664.8885c.1353.7484-79.8438-43.5946-152.3359-67.661-72.6091-23.7198-137.7319-27.163-110.5559,63.4073,26.9814,93.552,21.0233,140.1019,4.8354,167.4603-16.5897,27.1014-43.4085,35.0113-67.4071,45.369-30.1831,14.0541-57.7364,17.4589-79.7917,16.1172-21.7263-1.1443-37.9563-7.0363-37.8998-7.02.6207.3709,37.2105,6.631,58.6425-20.5577,21.2425-27.7066,36.3939-83.2767-5.5665-215.642-42.2417-131.7329,12.6725-151.3682,81.7928-135.5298,69.5357,16.5017,156.6527,65.0311,190.1563,83.1555,31.3786,17.4991,118.2577,71.1765,118.1299,70.9012Z"/><path class="cls-34" d="m4235.8355,872.0531c.0504.2269,27.9447-19.6872,45.0949-45.8553,18.6124-27.6057,24.1942-60.0854,11.1638-124.4941-9.7011-66.6397,6.6801-108.234,23.4913-134.0738,18.1695-26.009,38.6894-39.5082,70.0727-52.1997,30.5418-11.8462,53.2828-8.5485,68.103-3.8757,14.8332,4.8982,22.3472,11.3369,22.3567,11.3582.1094.2766-12.6795-1.5212-37.461,12.3185-12.3069,7.1149-27.8723,18.6183-43.603,38.4055-15.4569,19.6712-31.1861,48.1993-36.9347,86.5638-8.8668,76.906-.7113,114.373-10.9254,139.0919-7.8659,24.1218-29.944,36.5814-46.2345,45.0294-15.033,6.8083-65.0918,27.2067-65.124,27.7313Z"/><path class="cls-34" d="m4313.0305,539.5202c-23.2357-6.5893-56.3504-28.816-76.9949-47.4423-20.9266-18.7023-29.3825-33.8039-9.8016-27.8887,45.2655,14.2561,58.4519.7651,83.8605-14.4437,25.1527-14.7477,62.5275-31.2138,150.2754-12.2734,161.1162,37.2642,259.5624,70.2288,337.4682,90.574,77.8209,20.9799,135.1008,29.3404,211.9277,32.0713,49.2598,1.5893,100.3338-12.4692,147.5796-37.5522,47.2716-24.8886,90.7147-60.8018,125.2929-98.4347,34.7299-37.5485,60.5973-76.8188,76.2278-106.5057,15.9096-29.7147,21.5829-49.846,22.3638-49.7487-.7329.1136,3.0554,36.375-8.4015,90.7597-10.9546,54.0761-37.1546,126.2756-86.2105,191.0964-46.9834,65.1806-116.8355,122.9915-190.2131,154.8525-74.2775,32.5379-152.0811,39.126-235.7048,17.4517-51.8186-12.7785-132.9336-43.7928-216.8891-80.3637-82.6841-37.1866-168.2075-79.9301-199.4838-130.3835-23.7586-41.3006-33.4996-31.2811-53.0424-2.4333-9.0988,13.2406-34.4872,43.4105-78.254,30.6644Z"/><path class="cls-17" d="m4447.7441,501.2458c21.6184-23.4506,53.4546-58.089,57.8528-62.841l-73.0338,45.2759c-.6031-15.8066-1.4578-38.168-1.5028-39.4972-1.1184,1.9518-10.301,18.1968-17.9213,31.6709-.6828.6303-1.3508,1.2471-1.9974,1.8439-6.2081-16.9671-12.8541-35.1302-14.1337-38.6285l-4.2811,44.7423-63.8006-34.9796,51.1662,56.459c.139.235.1764.298.3117.5267l-5.1222,1.1749s.9081,5.4487,1.489,8.9341c-7.128,3.2669-14.3537,6.5786-17.9261,8.2174l19.9659,9.0354c-21.7869,17.675-44.9442,36.4785-48.2469,39.1447,4.4958-2.0821,18.3113-8.4438,34.6576-15.9764-1.7886,2.1535-2.848,3.4292-2.848,3.4292,1.2091-.6729,7.182-3.9688,15.1343-8.3567l-14.4687,20.7945,30.1905-21.6901c.1281-.0321.2563-.0645.3841-.0965-1.1426,12.6499-2.0951,23.2129-2.353,26.1358,1.6575-3.0945,6.852-12.7649,12.9854-24.186.9101.3298,1.7426.6316,1.7426.6316.3294-.2704.6905-.5669,1.0695-.8781,9.3541,26.1663,19.674,55.0341,20.5302,57.3978,0,0-1.8469-42.7021-3.0444-70.3909.0359-.4479.0708-.9035.1046-1.3665,1.7098,1.0456,3.2417,1.9782,4.5123,2.7457l.0125-.0182c.0905.0713.183.1442.2715.214,0,0,.6373-.9237,1.1203-1.6237,13.6452,5.8337,32.6798,13.842,40.5652,17.1839-2.5314-2.1115-16.8358-14.0078-27.2754-22.6923,3.5898-.8534,6.8911-1.6383,6.8911-1.6383-2.0606-1.3201-7.3732-4.7306-12.0328-7.7211,13.2126-1.5412,25.3959-2.9623,25.3959-2.9623-2.9733-1.042-8.9072-3.1197-16.1547-5.6572l4.9371-1.8031-6.0851-.7588c1.3631-.9446,2.6339-1.8222,3.77-2.6016,0,0-.2149-.1293-.2202-.1326,13.1297-7.7803,24.5494-14.5492,28.2147-16.7181l-30.8269,7.6572Zm-35.242,6.6628c1.7863-.847,3.9394-1.8686,4.1995-1.9895-.0963.1757-1.7051,3.1433-2.8425,5.2411l10.7637,2.6415c-.8018.1008-6.6231.861-10.5708,1.3683l3.6753,2.5843c-.5324-.1457-2.1918-.5987-4.0998-1.1196.0004.001.0122.0424.0122.0424-.1732-.0315-.3672-.0659-.5756-.1025l.5533.8016-.6322-.34c.5353,1.1641.9736,2.1172,1.1931,2.5948,0,0-1.3309-1.2272-2.7742-2.5583.2411.9228.5159,1.9751.6229,2.3828,0,0-.3909-.2812-.8161-.5871.39,2.3221.9245,5.5033,1.0186,6.0671-.5383-1.3412-1.8425-4.5707-2.7701-6.8981-.1016.0339-.2355.0787-.2355.0787-.0037-.0192-.0076-.0392-.0111-.0589l-.0026.0009c-.0695-.2454-.1526-.5423-.2451-.8742-.0384.0554-.0763.1098-.114.1633-1.9783,3.6908-5.0291,9.3828-5.0291,9.3828.0933-.4024,1.245-5.2999,2.2889-9.7391-.0616-.004-.1202-.0077-.1738-.0111,0,0-.0608-.135-.1271-.2827-1.4813.7556-2.7358,1.3953-3.1367,1.6005.2474-.3452,1.1436-1.5901,2.2169-3.0808-.0152-.0107-.0306-.0213-.0458-.032l-4.6748-.7105,3.0285-.9937c-1.1308-.3571-1.9802-.6255-2.1528-.6789,0,0,.2031-.041.5458-.1105-2.2118-.9251-4.0811-1.7073-4.6902-1.9603.5336.0401,4.2836.3071,7.8104.5603l-1.3196-3.4692c.4828.2031,1.4592.6142,2.4225,1.0198.2058-.5142.5276-1.3184.5276-1.3184l.6034.4418c.0037-.045.0046-.0573.0086-.1036l-.858-13.1632,3.7543,11.8696,3.8208-5.2448c-.1368.5968-.846,3.696-1.5087,6.5911.1101-.0019.2239-.0036.3402-.0056Z"/><path class="cls-15" d="m3705.1608,1580.2229c123.8072-23.2712,280.4684,2.3719,376.805,87.7307,14.2346,12.6275,27.1962,26.6235,38.2785,41.8709-3.6677-2.9868-7.085-6.1804-10.7961-9.0625-3.0236-2.5067-7.7472-6.3026-10.9365-8.7532-111.2422-85.8019-256.3001-107.7607-393.3508-111.7858h0Z"/><path class="cls-15" d="m3674.5685,1597.9131c27.8675,3.9355,53.8575,16.2544,77.7631,30.606,68.5715,42.2311,128.028,118.3489,142.393,198.5711-4.3357-4.1611-8.5964-8.8131-12.5719-13.2732-2.9108-3.1229-5.8518-6.3038-8.626-9.4779-27.4748-31.0052-57.2167-65.4881-85.5904-95.4345-35.9234-38.217-74.7377-75.1608-113.3678-110.9915h0Z"/><path class="cls-15" d="m3648.8927,1634.3599c106.5682,107.5268,176.9749,318.8102,94.1701,457.1102,1.2161-10.2459,2.5254-20.2435,3.4324-30.2198.6598-7.3567,1.1558-14.951,1.5786-22.3162,6.6429-141.3982-47.2544-275.4999-99.1811-404.5742h0Z"/><path class="cls-15" d="m4419.7035,1316.209c-16.8422,21.8151-33.841,41.6732-50.1845,63.2444-16.6074,21.5547-30.4889,42.9905-45.9124,65.9689.0154-3.4923.2001-7.1754.6776-10.6381,6.1589-49.2907,48.6911-101.9154,95.4192-118.5752h0Z"/><path class="cls-15" d="m4429.5343,1354.7634c-2.1762,9.1215-5.4714,17.4595-9.1586,25.8543-3.7333,8.0413-7.3389,16.061-12.5913,23.2535-5.2501,7.1735-12.0748,13.7421-16.2794,21.6567-2.1454,3.9275-3.8404,8.0697-5.159,12.3454-2.7266,8.5322-3.4191,17.7713-4.9563,26.5413-.7966,4.3814-1.7353,8.6895-2.7031,12.9807-1.7472,8.6056-3.2284,17.2189-5.4699,25.7009-3.77,13.9315-8.0326,27.767-13.1698,41.2928-1.2132,3.3141-2.4944,6.4969-4.0743,9.7346,0,0-1.9956-.1309-1.9956-.1309-1.346-4.5626-2.3445-9.222-2.9241-13.9097-3.0366-23.1114.462-46.7412,9.5333-68.1401,3.245-8.694,7.5086-16.945,12.5712-24.7383,4.9535-7.7681,9.3793-15.6778,12.479-24.3185,3.1367-8.4976,4.2605-18.0657,7.3777-26.8032,3.1315-8.7106,8.4201-16.3751,14.0624-23.6241,5.979-7.3097,12.522-14.0552,20.8767-18.9204,0,0,1.5811,1.2249,1.5811,1.2249h0Z"/><path class="cls-15" d="m4453.0099,1408.947c3.1766,25.9742-5.448,52.0087-22.3898,71.5409-2.8111,3.0699-5.3656,6.2933-9.4979,9.6956l-1.9956-.1355c.2888-7.4751,1.0044-15.0007,2.7375-22.3208,4.0114-18.3251,11.9861-35.7852,22.6479-51.1836,2.2049-3.0425,4.4166-6.0434,6.9568-8.8718,0,0,1.541,1.2751,1.541,1.2751h0Z"/><path class="cls-24" d="m1166.4544,2763.9621l-23.0953-8.4959c-3.5769-1.3158-5.7117-4.5978-4.5663-7.2279l4.2876-9.8452c1.1454-2.6301,4.9697-3.2276,8.3313-1.4175l21.7056,11.687c2.1943,1.1815,3.2111,3.7441,2.3423,5.7392l-3.2524,7.4682c-.8689,1.9951-3.4181,2.9512-5.7529,2.0923Z"/><path class="cls-24" d="m1183.1542,2765.6l-14.6832-1.2108c-2.2741-.1875-3.9209-2.2016-3.5466-4.4664l1.401-8.4777c.3743-2.2648,2.5732-3.5913,4.7769-2.9782l14.2291,3.9586c1.4385.4002,2.3388,2.1209,2.0549,3.8389l-1.0628,6.4308c-.2839,1.718-1.6849,3.0272-3.1694,2.9048Z"/><path class="cls-23" d="m1314.7918,2562.402s-34.4049,28.2571-41.3618,69.1506c-6.9569,40.8935,16.1685,78.9379,16.1685,78.9379,0,0,34.4049-28.2571,41.3618-69.1506,6.9569-40.8935-16.1685-78.9379-16.1685-78.9379Z"/><path class="cls-23" d="m1344.3948,2634.9091c-.1666.2522-3.8261,16.4753-19.068,30.4329-14.7721,14.6299-35.6126,21.219-35.2627,21.371-.1499-.3418,8.402,3.2702,19.9215,1.9595,11.3493-.9426,25.6663-6.8079,33.1183-17.599,7.7418-10.6627,7.4174-20.7815,5.8237-27.0132-1.6949-6.4333-4.6592-8.9794-4.5328-9.1512Z"/><path class="cls-23" d="m1369.966,2659.6837c-.0076-.0924-3.8822-.7057-10.7445.6924-6.8546,1.1378-16.697,4.2868-28.4605,5.7131-11.913,1.7876-22.4443-.5462-28.9289-3.6093-6.6637-3.008-9.2807-6.7453-9.4999-6.489.1259.1938-1.3996,3.5963-.9617,9.8385.6058,6.0241,3.1751,14.8882,15.3657,20.9657,11.8448,6.4349,31.3971,2.9972,43.9541-5.863,13.1953-8.2273,19.3952-21.8773,19.2755-21.2484Z"/><path class="cls-32" d="m1295.231,2682.0209c.1518-.0312.6752-2.671,3.5872-5.8258,2.8971-2.9654,8.1829-6.4455,17.507-3.7849,9.2835,2.3257,18.6417,13.317,22.2665,23.8484,4.1762,10.4974,2.6192,20.5347,2.8075,20.1712-.0562.062-2.3774-1.8418-5.8046-6.0798-3.5013-4.1091-8.1088-10.5525-14.45-16.5863-6.2883-6.2933-13.123-9.6477-17.9889-10.9096-4.9304-1.3534-7.8917-.6143-7.9247-.8333Z"/><path class="cls-23" d="m1303.0488,2655.6715s-62.4038,4.3241-82.2317,40.7595c-19.8279,36.4353,10.4286,91.1846,10.4286,91.1846,0,0,62.4038-4.3241,82.2317-40.7595,19.8279-36.4353-10.4286-91.1846-10.4286-91.1846Z"/><path class="cls-25" d="m1118.7665,2679.5577v.0002c2.1134,48.3153,41.2929,81.9863,82.457,75.5456l60.6959-9.4967c1.4627-.2289,2.5906-1.8764,2.5125-3.6622l-6.0038-137.2544c-.0781-1.7858-1.3455-3.3285-2.8226-3.4288l-61.2933-4.1607c-41.5692-2.8218-77.659,34.1417-75.5456,82.457Z"/><path class="cls-23" d="m1239.5202,2535.9401c-.4438.0784-2.4274,10.94-7.5878,28.3191-4.611,17.2822-12.399,41.0819-11.7634,64.7942.6029,23.7185,14.4031,41.9959,30.1642,53.9703,15.4068,12.0373,32.7744,17.7717,32.3294,17.8505.4438-.0784,2.4273-10.9401,7.5877-28.3191,4.6111-17.2821,12.3992-41.0816,11.7635-64.7941-.6029-23.7183-14.4031-41.9954-30.1642-53.9701-15.4067-12.0371-32.7744-17.7722-32.3294-17.8506Z"/><path class="cls-23" d="m1224.8487,2708.3979c3.0746,9.7775,13.0389,10.0125,21.3313,6.715,8.5729-3.3116,15.4736-10.156,18.9064-14.8609,13.9259-19.5737,29.181-16.3731,29.218-16.4494-.0802-.1685,4.6885,13.0555,5.4414,24.5122.3338,5.8574-.3862,11.4482-3.8627,16.4784-3.5121,5.1157-9.7805,9.6709-21.3657,15.4249-6.153,2.6571-12.3409,5.1765-19.3352,5.8659-6.9095.6295-14.6249-.5708-21.8749-6.7327-6.3539-5.3044-8.7776-14.0217-9.3046-20.6719-.5722-6.7245.7522-11.382.8459-10.2814Z"/><path class="cls-32" d="m1299.4506,2680.5573c.1446-.0857-5.3137,5.0332-11.7909,8.4898-6.578,3.8816-14.175,6.1007-20.6365,10.0285-12.4201,7.9472-28.6203,22.6104-28.6187,22.9647-.0147-.58,7.432,7.2234,20.7546,9.4894,12.7866,2.7155,31.4492-.1066,41.4889-11.5582,10.2529-11.1712,9.2121-22.5897,6.3737-29.4316-2.9551-7.1377-7.7078-9.6986-7.571-9.9826Z"/><path class="cls-25" d="m862.4408,2485.9351h0c-15.994-6.5746-23.8476-8.6741-24.3753,12.6279l-6.6066,84.8459c-.3255,13.1408,7.7927,29.1507,18.4693,36.8521h0c11.2091,8.0855,22.5413,5.1314,24.8457-7.972l12.3355-70.1454c3.9445-22.43-7.4848-49.1448-24.6685-56.2085Z"/><path class="cls-25" d="m689.0542,2629.2241c.6721,3.5951,8.2002,12.1154,8.2002,12.1154,10.4631,11.6382,25.8863-3.9824,43.8499-17.6187,17.2257-13.0762,85.2587-78.3221,85.2587-78.3221,15.4681-13.2527,42.9642-39.7689,37.8886-52.4522h0c-5.545-13.8565-25.1339-16.0757-44.6152-2.6385l-88.2931,92.2737c-32.7987,29.8906-43.9084,37.9804-42.2891,46.6423Z"/><path class="cls-32" d="m1324.1255,2577.1567c-24.9087,11.6199-24.3231,50.5281-19.9128,66.7222,8.9647,33.4643-6.1361,46.4886-6.1501,46.6499-.1604-.419-63.0627-25.9883-40.4355-82.229,5.8642-14.8434,12.0793-28.8556,31.7979-35.4897,17.0098-5.7171,37.5362,3.0518,34.7006,4.3466Z"/><path class="cls-20" d="m684.0458,2610.0463c16.6814-11.764,15.1676,25.7668,35.0497,30.0918-15.0718,37.0035-12.8,44.8269-24.1315,54.1048-2.7167,2.2244-9.8177,3.4813-13.2061,3.6721-7.9412.447-17.5769-.4353-29.6298-10.1761,0,0-44.1972-23.9163-52.5686-37.5647-2.7792-4.5311-3.0724-16.2765,1.8973-22.7355,2.694-3.5013,6.5949-9.9389,9.7685-9.9587,36.4843-.2277,47.6094,10.3454,72.8204-7.4337Z"/><path class="cls-24" d="m805.6632,2686.3903h0c-14.9327,17.6126-23.182,25.3368-41.1535,8.3033l-77.2904-64.3997c-11.0863-10.5077-13.8002-29.8209-6.5227-44.2895h0c7.6404-15.1902,24.4039-21.438,37.968-12.4741l72.6113,47.9855c23.2186,15.3441,30.4308,45.9519,14.3873,64.8745Z"/><path class="cls-21" d="m751.3518,2578.8832l55.6064,50.9303,7.4705-13.7794c-.0413-.3624-.0427-.7393.0096-1.1265l10.8986-80.5882c.2039-1.5079,1.7428-2.5655,3.4172-2.363l58.3833,7.0585c1.5085.1824,2.806,1.5152,2.8875,2.9736l2.9494,52.7527,17.5911,10.6603c7.2421,4.3887,9.9904,14.8902,6.2969,23.6419l-38.406,91.0042c-4.5598,10.8044-15.8843,18.1755-25.4582,16.083l-26.3203-5.7529s-45.3647-15.5203-59.4273-23.007c-19.6011-10.4353-70.4235-49.1217-72.1226-51.8449l56.2238-76.6426Z"/><path class="cls-25" d="m995.2941,2598.9935l-3.3609-8.7297c-.5452-1.4161-2.1189-1.8716-3.4561-.9293l-4.9362,3.4786c-1.3005.9165-1.6358,2.6847-.8025,3.8626l5.1615,7.296c.5017.7091,1.6683.7459,2.6181.1103l3.5908-2.4028c.9689-.6483,1.5105-1.8411,1.1853-2.6857Z"/><path class="cls-25" d="m1118.1322,2654.6633h0c14.1161,0,25.5766,11.4605,25.5766,25.5766v20.426c0,2.1204-1.7215,3.842-3.842,3.842h-43.4694c-2.1204,0-3.842-1.7215-3.842-3.842v-20.426c0-14.1161,11.4605-25.5766,25.5766-25.5766Z" transform="translate(-1510.0306 3913.7487) rotate(-92.5046)"/><path class="cls-25" d="m1010.0841,2544.2906l48.1827,80.8556c4.8782,6.7501,15.8959,5.2287,24.2729-3.2043h0c8.1689-8.2235,10.8387-20.0537,6.1293-26.4545l-46.8931-76.5635c-4.4972-6.0923-15.1152-5.6738-23.7962,1.0584h0c-8.8949,6.8981-12.5447,17.8985-7.8956,24.3083Z"/><path class="cls-20" d="m1038.9381,2597.2809l24.8714,46.4388c.0901.1683.1521.3491.2008.5337.5575,2.1102,2.446,3.3425,4.3083,2.7203l50.9546-17.1877c1.9026-.6357,2.5462-2.7701,1.5081-4.7702-.0638-.1228-.142-.2385-.2257-.3487l-38.9927-51.3635c-.0902-.1582-.2071-.3012-.3452-.4277-.8711-.7982-2.5008-.7846-3.7093-.0474l-36.9653,20.6474c-.1126.0629-.2312.1135-.3506.1622-.0125.0051-.025.0103-.0374.0155-1.394.5889-1.9316,2.2934-1.2171,3.6274Z"/><path class="cls-14" d="m1038.9381,2597.2809l24.8714,46.4388c.0901.1683.1521.3491.2008.5337.5575,2.1102,2.446,3.3425,4.3083,2.7203l50.9546-17.1877c1.9026-.6357,2.5462-2.7701,1.5081-4.7702-.0638-.1228-.142-.2385-.2257-.3487l-38.9927-51.3635c-.0902-.1582-.2071-.3012-.3452-.4277-.8711-.7982-2.5008-.7846-3.7093-.0474l-36.9653,20.6474c-.1126.0629-.2312.1135-.3506.1622-.0125.0051-.025.0103-.0374.0155-1.394.5889-1.9316,2.2934-1.2171,3.6274Z"/><path class="cls-20" d="m869.423,2623.5203c-10.5624,12.8342-22.4959,27.5989-32.6834,43.9295-10.1228,16.1734-18.6014,33.9918-20.3331,49.441-2.1209,18.3793.8789,36.9273,26.3081,38.485,34.3474,2.3215,69.4952,3.976,107.4917,6.3456,37.812,2.0266,79.0647,4.5096,121.1123.3891,16.7751-1.6031,32.7241-9.8002,43.5055-22.1097,10.9142-12.1856,16.5169-28.3018,15.919-42.8542-.7889-20.6128-2.7427-41.0136-5.057-60.3001-3.4355-27.2731-24.3166-37.8284-49.9644-33.8262-31.7411,2.2504-63.1075-.7576-90.6166-3.2201-27.7257-2.7397-52.0117-4.6515-74.7844-6.6998-17.137.8803-28.5763,16.466-40.8978,30.42Z"/><path class="cls-24" d="m1204.596,2686.725l-19.7152,6.6926c-1.4544.4937-3.0149-.161-3.4679-1.455l-3.2866-9.3879c-.453-1.2939.3663-2.7565,1.8207-3.2502l19.7152-6.6926c1.4544-.4937,3.0149.161,3.4679,1.455l3.2866,9.3879c.453,1.2939-.3663,2.7565-1.8207,3.2502Z"/><g class="cls-5"><g class="cls-6"><path class="cls-13" d="m1130.732,2697.1347c-.7889-20.6129-2.7427-41.0136-5.0571-60.3001-3.4354-27.273-24.3166-37.8283-49.9644-33.8262-31.7409,2.2506-63.1073-.7575-90.6165-3.2201-27.7255-2.7395-52.0117-4.6514-74.7844-6.6997-4.9053.252-9.3422,1.7126-13.4682,3.9912l-3.8781-2.3503-2.9496-52.7526c-.0815-1.4585-1.3789-2.7914-2.8874-2.9736l-58.3833-7.0588c-1.6743-.2022-3.2133.8554-3.4171,2.3631l-10.8986,80.5882c-.0525.3871-.0511.7643-.0098,1.1266l-7.4703,13.7795-55.6066-50.9304-56.2238,76.6427c1.6991,2.7232,52.5216,41.4096,72.1228,51.8448,9.698,5.1632,34.282,14.1467,48.6087,19.2259.199,14.7218,5.9395,27.498,26.8552,28.7791,34.3475,2.3215,69.4953,3.976,107.4918,6.3456,37.812,2.0269,79.0648,4.5098,121.1123.3892,16.775-1.6031,32.7241-9.8002,43.5055-22.1098,10.9141-12.1856,16.5168-28.3018,15.919-42.8543Z"/></g></g><path class="cls-24" d="m1212.9304,2709.4961l-20.7392,1.0148c-1.5299.0749-2.8728-1.0702-2.9842-2.5445l-.8081-10.697c-.1114-1.4744,1.0492-2.7419,2.5791-2.8168l20.7392-1.0148c1.5299-.0749,2.8728,1.0702,2.9842,2.5445l.8081,10.697c.1114,1.4744-1.0492,2.7419-2.5791,2.8168Z"/><path class="cls-24" d="m1216.3922,2728.081l-20.7792-.43c-1.5329-.0317-2.8055-1.2771-2.8281-2.7674l-.1637-10.8131c-.0226-1.4904,1.2131-2.6838,2.746-2.6521l20.7792.43c1.5329.0317,2.8055,1.2771,2.8281,2.7674l.1637,10.8131c.0226,1.4904-1.2131,2.6838-2.746,2.6521Z"/><path class="cls-24" d="m1185.2123,2692.9936l-17.3422,11.5936c-1.2793.8553-2.8996.5022-3.6007-.7845l-4.49-8.2407c-.7011-1.2867-.228-3.0392,1.0514-3.8945l17.3422-11.5936c1.2793-.8553,2.8996-.5022,3.6007.7845l4.49,8.2407c.7011,1.2867.228,3.0392-1.0514,3.8945Z"/><path class="cls-25" d="m940.235,2608.5631l6.8688-5.3326c.5272-.4093,1.2629-.3216,1.6323.1967l2.678,3.7581c.3688.5176.2284,1.2644-.3094,1.6578l-7.007,5.1249c-.4969.3634-1.1901.2557-1.5428-.2378l-2.5612-3.5826c-.3533-.4941-.2457-1.2064.2414-1.5845Z"/><path class="cls-25" d="m927.61,2602.7024l8.3183-5.3951c.6251-.4054,1.6685-.3007,2.3165.2332l4.679,3.8549c.6418.5288.6496,1.2853.0195,1.6808l-8.386,5.2636c-.6074.3812-1.6214.2726-2.2554-.2409l-4.6218-3.7438c-.64-.5184-.6725-1.262-.0701-1.6527Z"/><path class="cls-25" d="m980.8916,2573.1574h0c5.742,8.2265-.7133,20.6485-11.0938,26.084l-13.5906,7.1164c-.704.3686-1.6223.1926-2.0569-.3837l-11.7048-15.5195c-.4506-.5975-.3827-1.57.164-2.1741l10.6082-11.7231c8.173-9.0319,21.8268-11.7769,27.6739-3.4Z"/><path class="cls-25" d="m947.4439,2603.0276l7.8121-4.0318c.6002-.3097,1.2858-.0096,1.5206.6685l1.5032,4.3423c.2347.6779-.0723,1.4714-.679,1.7618l-7.8973,3.7802c-.5595.2678-1.1982-.0428-1.4221-.6889l-1.4342-4.1387c-.224-.6463.0433-1.4077.5968-1.6933Z"/><path class="cls-25" d="m934.0042,2591.1621l8.0166-2.5125c.6155-.1929,1.2122.0428,1.3229.5243l.8003,3.4817c.1099.4782-.3068,1.0151-.9228,1.1927l-8.0248,2.3127c-.569.164-1.1213-.0746-1.2303-.5297l-.7933-3.3129c-.1097-.4581.2632-.9783.8315-1.1564Z"/><path class="cls-25" d="m921.4288,2597.092l12.2047-5.7819c.937-.4439,1.8191-.4385,1.9553.0139l.9848,3.2711c.1353.4493-.5246,1.1688-1.4614,1.597l-12.2046,5.5792c-.8653.3956-1.6805.3695-1.8158-.0563l-.9849-3.0998c-.1362-.4287.4567-1.1134,1.3219-1.5233Z"/><path class="cls-24" d="m1193.234,2710.3726l-20.1612,4.4603c-1.4873.329-2.8625-.6021-3.0562-2.0693l-1.4048-10.6446c-.1936-1.4671.8648-2.9367,2.3521-3.2657l20.1612-4.4603c1.4873-.329,2.8625.6021,3.0562,2.0693l1.4048,10.6446c.1936,1.4671-.8648,2.9367-2.3521,3.2657Z"/><path class="cls-25" d="m936.7528,2597.0078l9.3948-5.2988c.7184-.4052,1.713-.1836,2.2066.4938l3.5689,4.898c.4902.6728.2922,1.5393-.4363,1.9243l-9.5286,5.0362c-.6783.3585-1.6189.1253-2.0937-.5171l-3.4558-4.6761c-.4779-.6466-.3245-1.4833.3441-1.8604Z"/><path class="cls-24" d="m1196.7679,2727.5265l-23.8302,5.272c-1.4873.329-2.8625-.6021-3.0562-2.0693l-1.4048-10.6446c-.1936-1.4671.8648-2.9367,2.3521-3.2657l23.8302-5.272c1.4873-.329,2.8625.6021,3.0562,2.0693l1.4048,10.6446c.1936,1.4671-.8648,2.9367-2.3521,3.2657Z"/><path class="cls-24" d="m1119.3151,2735.3148h0c-3.5533-13.9937,4.102-29.8064,17.852-35.4866l28.3885-11.7274c1.9851-.8201,4.0275.0958,4.5217,2.0423l13.0721,51.4807c.4942,1.9465-.796,3.9925-2.8498,4.5422l-29.3704,7.8601c-14.2257,3.8071-28.0608-4.7177-31.6141-18.7113Z"/><path class="cls-24" d="m1200.6427,2741.0152l-26.3898,6.674c-1.9468.4923-3.6821-.0592-3.8562-1.2256l-1.2637-8.4626c-.1742-1.1664,1.2761-2.5235,3.2229-3.0159l26.3898-6.674c1.9468-.4923,3.6821.0592,3.8562,1.2256l1.2637,8.4626c.1742,1.1664-1.2761,2.5235-3.2229,3.0159Z"/><path class="cls-24" d="m1001.3502,2750.517l98.2038,11.8403c4.9221,1.1721,14.4307-4.1844,15.0088,4.0247.2449,3.4779-1.8598,16.9095.7022,14.5447l3.739-8.5749c-2.1148,12.4154-8.8966,16.3701-15.7638,15.5086,0,0-73.6092,27.9344-98.3721,23.5535-12.5685-2.2236-30.9213-19.1971-28.1453-35.4939h0c2.7759-16.2969,14.0379-27.6894,24.6275-25.403Z"/><path class="cls-20" d="m1033.0462,2734.9327l-7.4277,73.4329c-.2683,2.6522,1.9222,4.7486,4.8717,4.6196l86.4983-27.2816c2.9495-.129,4.9485-2.4086,4.4497-5.0273l8.9836-74.1514c-.2972-1.5604-2.366-2.7429-4.6005-2.6451l-88.423,28.0162c-2.2345.0977-4.1921,1.4563-4.352,3.0367Z"/><path class="cls-24" d="m1142.8212,2753.4717s-100.1318,44.4138-136.4234,37.9976c-7.5796-1.34-18.8854.4965-22.1485-12.5371h0c-3.2631-13.0336,1.6264-25.5705,10.9584-28.5262,34.316-10.8688,135.9798-47.3393,135.9798-47.3393,14.6732-4.4491,26.2241,3.0168,30.5073,20.1249h0c4.2832,17.1082-5.4642,25.0402-18.8736,30.28Z"/><path class="cls-39" d="m599.5446,2650.152c-1.6664-2.7168-2.4372-8.0268-1.7176-13.236.3337,1.1301.744,2.1189,1.2209,2.9056,8.9101,14.6978,55.3769,40.8051,55.3769,40.8051,15.3856,8.5379,22.7889,11.6209,31.0814,11.2375,3.5381-.1635,10.9428-1.4231,13.755-3.7698,1.238-1.0331,2.3163-2.0508,3.2755-3.0909-1.8298,3.5552-4.0432,6.3152-7.5877,9.2173-2.7168,2.2244-9.8177,3.4813-13.2061,3.672-7.9413.447-17.5769-.4354-29.6297-10.1761,0,0-44.1972-23.9163-52.5686-37.5648Z"/><path class="cls-8" d="m836.3387,2634.2874c24.1627,38.8285,54.7745,78.504,150.9088,103.3945,15.6187,4.0439,64.1226,7.283,64.1226,7.283,1.7852.0898,3.1722,1.6241,3.0822,3.4092l1.2303,77.7768c-.09,1.7852-1.6242,3.1723-3.4094,3.0823l-22.7554-4.0393c-1.7852-.09-3.1722-1.6242-3.0823-3.4094l1.3084-46.9736-192.1187-25.2937-44.4727,40.8236c-1.3168,1.2087-3.3831,1.1204-4.5919-.1965l-63.3295-58.3305c-1.2087-1.3169,82.1401-27.4487,82.1891-29.2356.7712-28.0988,27.0182-67.3541,27.0182-67.3541.5491-.8436,2.6033-3.7672,2.6033-3.7672,0,0,.7629,1.9729,1.2968,2.8308Z"/><path class="cls-25" d="m990.3863,2599.2662l-16.0217-1.2269c-2.5542-.1956-4.8043-2.0008-4.853-3.9747l-.1763-7.1474c-.0456-1.8475,2.0274-2.8419,4.4728-2.2641l15.504,3.6629c1.5404.3639,2.8715,1.7768,3.0217,3.1673l.5758,5.3327c.1576,1.4598-.9474,2.571-2.5231,2.4503Z"/><path class="cls-25" d="m980.9243,2590.1755l63.5324-49.3781c4.8407-4.8591,2.3094-13.7262,2.3094-13.7262l-5.1991-8.5923c-5.3105-7.5494-14.3875-7.5789-19.1903-2.8085l-59.6823,53.1184c-4.9111,4.8123-4.35,11.929,1.5273,19.1088h0c5.9194,7.2311,11.3525,5.9738,16.7026,2.2779Z"/><path class="cls-24" d="m497.7853,2681.6964h0c-2.4336-13.3649.0746-22.1451,8.9722-28.4027,9.9273-6.9818,86.3258-43.8439,86.3258-43.8439,27.9095-15.3374,106.8325-53.7794,125.7262-34.9999h0c21.6833,21.5524-6.8469,69.8414-58.2701,83.1841-31.5699,8.1914-95.0805,15.7389-128.5373,22.3221-20.3125,3.9968-26.7368,2.8579-34.2168,1.7403Z"/><path class="cls-20" d="m510.4696,2639.316c20.2926,2.2073-5.6624,29.3585,6.3913,45.751-35.7763,17.7897-39.2459,25.1605-53.8814,24.6264-3.5089-.1281-9.6666-3.8811-12.3344-5.9788-6.2524-4.9163-12.8968-11.9503-15.4962-27.2277,0,0-17.3368-47.168-14.5905-62.9419.9117-5.2368,8.4592-14.241,16.4584-15.7995,4.3362-.8448,11.5196-3.094,13.9132-1.0102,27.518,23.9566,28.8709,39.2448,59.5396,42.5807Z"/><path class="cls-39" d="m420.5618,2613.5184c.5467-3.1399,3.48-7.6328,7.4647-11.0644-.497,1.0684-.8432,2.0814-1.0057,2.9869-3.0362,16.9173,14.5542,67.2298,14.5542,67.2298,5.8947,16.5791,9.4092,23.7875,15.8831,28.9838,2.7621,2.2172,9.1494,6.1691,12.8108,6.2685,1.6119.0438,3.0937-.0066,4.5011-.1524-3.7236,1.4568-7.2092,2.0633-11.7871,1.8963-3.5089-.1281-9.6666-3.8811-12.3344-5.9789-6.2525-4.9163-12.8967-11.9503-15.4961-27.2277,0,0-17.3369-47.168-14.5905-62.9419Z"/><circle class="cls-27" cx="1369.9677" cy="2570.8934" r="27.1557"/><circle class="cls-27" cx="1523.8062" cy="2514.6279" r="27.1557"/><circle class="cls-27" cx="1612.4793" cy="2405.3084" r="32.0814"/><circle class="cls-27" cx="1791.0708" cy="2429.3122" r="43.9472"/><circle class="cls-27" cx="1898.7066" cy="2312.8818" r="42.1503"/><circle class="cls-27" cx="2024.4725" cy="2256.2718" r="30.1863"/><circle class="cls-27" cx="2062.9321" cy="2240.396" r="40.472"/></g></svg>