<?xml version="1.0" encoding="UTF-8"?><svg id="Layer_2" xmlns="http://www.w3.org/2000/svg" xmlns:xlink="http://www.w3.org/1999/xlink" viewBox="0 0 356.8337 395.846"><defs><style>.cls-1{clip-path:url(#clippath-4);}.cls-1,.cls-2,.cls-3,.cls-4,.cls-5,.cls-6,.cls-7,.cls-8,.cls-9{fill:none;}.cls-2{clip-path:url(#clippath-2);}.cls-10{fill:#fff;}.cls-3{stroke:#4a88c7;}.cls-3,.cls-9{stroke-linecap:round;stroke-miterlimit:10;stroke-width:5px;}.cls-11{fill:#3ac0f0;}.cls-12{fill:#ded826;}.cls-13{fill:#909039;}.cls-14{fill:#2f9086;}.cls-15{fill:#fdb614;}.cls-4{clip-path:url(#clippath-5);}.cls-5{clip-path:url(#clippath-3);}.cls-16{fill:#ffdc8f;}.cls-7{clip-path:url(#clippath);}.cls-8{clip-path:url(#clippath-1);}.cls-9{stroke:#3fc0ef;}</style><clipPath id="clippath"><path class="cls-6" d="m137.2687,369.2217c57.3908,0,89.1768-17.205,103.0759-27.5194,5.2301-3.8812,6.9056-10.9526,3.9604-16.7615l-96.338-190.0097c-4.4418-8.7607-16.9546-8.7607-21.3965,0L30.6053,324.2054c-3.043,6.0017-1.1655,13.3621,4.4343,17.0934,15.401,10.2622,49.5572,27.923,102.2291,27.923Z"/></clipPath><clipPath id="clippath-1"><path class="cls-6" d="m134.5366,305.3669c57.3908,0,89.1768-17.205,103.0759-27.5194,5.2301-3.8812,6.9056-10.9526,3.9604-16.7615l-96.338-190.0097c-4.4418-8.7607-16.9546-8.7607-21.3965,0L27.8732,260.3506c-3.043,6.0017-1.1655,13.3621,4.4343,17.0934,15.401,10.2622,49.5572,27.923,102.2291,27.923Z"/></clipPath><clipPath id="clippath-2"><path class="cls-6" d="m134.905,240.8612c-57.3908,0-89.1768-17.205-103.0759-27.5194-5.2301-3.8812-6.9056-10.9526-3.9604-16.7615L124.2068,6.5706c4.4418-8.7607,16.9546-8.7607,21.3965,0l95.9652,189.2743c3.043,6.0017,1.1655,13.3621-4.4343,17.0934-15.401,10.2622-49.5572,27.923-102.2291,27.923Z"/></clipPath><clipPath id="clippath-3"><path class="cls-6" d="m248.3529,395.846c57.3908,0,89.1768-17.205,103.0759-27.5194,5.2301-3.8812,6.9056-10.9526,3.9604-16.7615l-96.338-190.0097c-4.4418-8.7607-16.9546-8.7607-21.3965,0l-95.9652,189.2743c-3.043,6.0017-1.1655,13.3621,4.4343,17.0934,15.401,10.2622,49.5572,27.923,102.2291,27.923Z"/></clipPath><clipPath id="clippath-4"><path class="cls-6" d="m245.6209,331.9912c57.3908,0,89.1768-17.205,103.0759-27.5194,5.2301-3.8812,6.9056-10.9526,3.9604-16.7615l-96.338-190.0097c-4.4418-8.7607-16.9546-8.7607-21.3965,0l-95.9652,189.2743c-3.043,6.0017-1.1655,13.3621,4.4343,17.0934,15.401,10.2622,49.5572,27.923,102.2291,27.923Z"/></clipPath><clipPath id="clippath-5"><path class="cls-6" d="m245.9893,267.4855c-57.3908,0-89.1768-17.205-103.0759-27.5194-5.2301-3.8812-6.9056-10.9526-3.9604-16.7615L235.2911,33.1949c4.4418-8.7607,16.9546-8.7607,21.3965,0l95.9652,189.2743c3.043,6.0017,1.1655,13.3621-4.4343,17.0934-15.401,10.2622-49.5572,27.923-102.2291,27.923Z"/></clipPath></defs><g id="Layer_4"><path class="cls-15" d="m137.2687,369.2217c57.3908,0,89.1768-17.205,103.0759-27.5194,5.2301-3.8812,6.9056-10.9526,3.9604-16.7615l-96.338-190.0097c-4.4418-8.7607-16.9546-8.7607-21.3965,0L30.6053,324.2054c-3.043,6.0017-1.1655,13.3621,4.4343,17.0934,15.401,10.2622,49.5572,27.923,102.2291,27.923Z"/><g class="cls-7"><polygon class="cls-16" points="220.3303 290.1711 232.0285 313.8744 258.1866 317.6754 239.2585 336.1258 243.7268 362.1782 220.3303 349.8779 196.9338 362.1782 201.4021 336.1258 182.4739 317.6754 208.632 313.8744 220.3303 290.1711"/><polygon class="cls-16" points="186.0393 218.1641 197.7375 241.8673 223.8956 245.6683 204.9674 264.1187 209.4358 290.1711 186.0393 277.8708 162.6427 290.1711 167.1111 264.1187 148.1829 245.6683 174.341 241.8673 186.0393 218.1641"/><polygon class="cls-16" points="161.7575 143.5583 173.4558 167.2615 199.6139 171.0625 180.6857 189.5129 185.154 215.5653 161.7575 203.265 138.361 215.5653 142.8293 189.5129 123.9012 171.0625 150.0593 167.2615 161.7575 143.5583"/><polygon class="cls-16" points="108.004 218.1641 119.7023 241.8673 145.8604 245.6683 126.9322 264.1187 131.4005 290.1711 108.004 277.8708 84.6075 290.1711 89.0758 264.1187 70.1477 245.6683 96.3058 241.8673 108.004 218.1641"/><polygon class="cls-16" points="83.9998 143.5583 95.6981 167.2615 121.8562 171.0625 102.928 189.5129 107.3963 215.5653 83.9998 203.265 60.6033 215.5653 65.0716 189.5129 46.1435 171.0625 72.3015 167.2615 83.9998 143.5583"/><polygon class="cls-16" points="140.0708 290.1711 151.769 313.8744 177.9271 317.6754 158.9989 336.1258 163.4673 362.1782 140.0708 349.8779 116.6742 362.1782 121.1426 336.1258 102.2144 317.6754 128.3725 313.8744 140.0708 290.1711"/><polygon class="cls-16" points="60.9112 290.1711 72.6095 313.8744 98.7676 317.6754 79.8394 336.1258 84.3077 362.1782 60.9112 349.8779 37.5147 362.1782 41.983 336.1258 23.0549 317.6754 49.213 313.8744 60.9112 290.1711"/></g><polygon class="cls-16" points="137.4529 99.7411 144.1753 113.3622 159.207 115.5465 148.33 126.149 150.8977 141.12 137.4529 134.0517 124.0081 141.12 126.5758 126.149 115.6987 115.5465 130.7305 113.3622 137.4529 99.7411"/><path class="cls-13" d="m134.5366,305.3669c57.3908,0,89.1768-17.205,103.0759-27.5194,5.2301-3.8812,6.9056-10.9526,3.9604-16.7615l-96.338-190.0097c-4.4418-8.7607-16.9546-8.7607-21.3965,0L27.8732,260.3506c-3.043,6.0017-1.1655,13.3621,4.4343,17.0934,15.401,10.2622,49.5572,27.923,102.2291,27.923Z"/><g class="cls-8"><path class="cls-12" d="m244.9971,92.409c-56.9674,69.1152-169.5636,115.9902-297.1699,82.3354-2.4291-9.498-4.4454-18.9785-6.0549-28.4102,121.0751,37.7852,229.2583-4.1816,283.6567-67.6099,6.2026,4.8149,12.7302,9.3872,19.568,13.6846Z"/><path class="cls-12" d="m293.7559,116.2069c-61.1909,83.4736-182.6052,143.0137-324.2192,120.333-4.2419-9.4253-8.0631-18.9009-11.4659-28.397,135.2104,28.0762,252.7116-25.291,312.2055-101.8096,7.5419,3.6128,15.3746,6.9146,23.4797,9.8735Z"/><path class="cls-12" d="m350.1921,130.3206C286.9843,230.8992,158.1509,305.8543,3.1212,296.8948c-6.0687-9.0562-11.7177-18.23-16.9457-27.4941,148.952,15.6201,274.5699-51.8936,337.1507-144.2534,8.7147,2.1133,17.6776,3.8486,26.866,5.1733Z"/></g><path class="cls-14" d="m163.4586,64.5057c0,.5998-9.9818.6461-10.02,1.2363-.0386.598,13.6347,2.4229,13.5581,3.0098-.0775.5936-3.617.8529-3.732,1.4339-.1161.5867,1.1053,1.654.9522,2.2265-.1544.5772-.2766,1.3911-.4673,1.9526-.192.5653-4.4995-.3365-4.7269.2114-.2286.5511,1.0983,1.7992.8353,2.3314-.2642.5345-4.9537-1.4354-5.2512-.9214-.2985.5157,1.041,1.7894.7104,2.283-.3314.4949-5.1624-2.674-5.5247-2.2028-.3628.472,4.3391,4.6747,3.9468,5.1216-.3926.4472,2.4605,3.961,2.0398,4.3816s.1031,2.1671-.3442,2.5596c-.4469.3921-7.8208-7.7863-8.2928-7.4236-.4713.3621,3.6118,6.7275,3.1169,7.0588-.4937.3305-3.7647-4.045-4.2804-3.7466-.514.2973-1.4491-.9555-1.9836-.6914-.532.2628,3.4029,10.225,2.852,10.4534-.5477.2271-3.4294-5.511-3.9944-5.3193-.5612.1904-1.691-2.2389-2.2679-2.0847-.5723.153.8377,8.7734.2512,8.8894-.5803.1148-1.3215,1.0991-1.9144,1.1764-.5867.0765-2.1497-9.8958-2.7476-9.8572-.59.0381-.8534-2.9014-1.4531-2.9014s-.7053.4945-1.2955.4563c-.598-.0386-1.7457,7.9823-2.3325,7.9057-.5936-.0775-2.1177,4.3868-2.6987,4.2718-.5867-.1161,1.4836-11.4755.9111-11.6286-.5772-.1544-2.2288,4.1678-2.7902,3.9771-.5653-.192-2.484,3.1833-3.032,2.9559-.5511-.2286-2.0273,1.1076-2.5594.8446-.5345-.2642-.4648-2.0829-.9787-2.3804-.5157-.2985,4.0729-8.4854,3.5792-8.816-.4949-.3314-8.4512,9.8041-8.9224,9.4418-.472-.3628,1.5107-4.0917,1.0638-4.484-.4472-.3926.6484-2.4784.2278-2.8991s-2.8493.9752-3.2418.5279c-.3921-.4469.2744-1.8798-.0883-2.3519-.3621-.4713,3.4631-3.7988,3.1318-4.2937-.3305-.4937.2085-1.1607-.0898-1.6764-.2973-.514-3.8952.9806-4.1592.4461-.2628-.532-6.2988,1.4214-6.5272.8706-.2271-.5477,7.2333-4.0536,7.0416-4.6186-.1904-.5612-6.1349.6334-6.2891.0565-.153-.5723,6.6503-2.7124,6.5343-3.2989-.1148-.5803-4.8318-.2791-4.9091-.872-.0765-.5867-8.1535-.6866-8.1921-1.2845-.0381-.59,14.8385-1.728,14.8385-2.3277s.1882-.7646.2263-1.3548c.0386-.598,1.707-.5419,1.7836-1.1287.0775-.5936-7.1592-2.0747-7.0442-2.6557.1161-.5867-.5556-1.3171-.4025-1.8896.1544-.5772-.7033-1.4873-.5126-2.0488.192-.5653,8.927,2.3468,9.1543,1.7988.2286-.5511-13.2143-7.2536-12.9513-7.7858.2642-.5345,13.6504,6.0137,13.9478,5.4997.2985-.5157-3.8986-3.4023-3.568-3.8959.3314-.4949-3.8118-4.1796-3.4496-4.6509.3628-.472,3.4588,1.2403,3.8511.7934.3926-.4472,4.0077,2.4202,4.4284,1.9996s.0259-1.2194.4732-1.6119c.4469-.3921-2.3553-4.5078-1.8833-4.8705.4713-.3621,5.8021,6.5087,6.297,6.1774.4937-.3305-7.9601-15.0239-7.4444-15.3222.514-.2973,7.9194,12.098,8.4539,11.8339.532-.2628-.3383-2.8898.2125-3.1182.5477-.2271.5644-1.3689,1.1294-1.5607.5612-.1904-.2268-4.8914.3501-5.0456.5723-.153,3.1768,9.0728,3.7634,8.9568.5803-.1148.7043-.2103,1.2973-.2876.5867-.0765.3303-6.2719.9282-6.3105.59-.0381,1.1376-6.0913,1.7373-6.0913s.8246,11.0518,1.4147,11.0899c.598.0386,1.5811-5.7892,2.1679-5.7127.5936.0775.1582,5.3939.7392,5.5089.5867.1161,4.0376-11.8009,4.6101-11.6477.5772.1544-1.1761,8.652-.6147,8.8426.5653.192.7605,1.0308,1.3084,1.2581.5511.2286,5.3557-8.4657,5.8878-8.2026.5345.2642-2.2887,7.3472-1.7747,7.6447.5157.2985.721,1.084,1.2146,1.4146.4949.3314,4.6513-4.1384,5.1225-3.7761.472.3628-.7081,3.1705-.2612,3.5629.4472.3926.0925,1.8434.5131,2.2641s3.5834-1.4358,3.9759-.9886c.3921.4469-6.1354,6.6267-5.7727,7.0987.3621.4713-2.8872,3.0545-2.5559,3.5494.3305.4937,13.2925-6.9266,13.5908-6.4108.2973.514-5.4306,4.5091-5.1665,5.0436.2628.532.3651,1.1281.5935,1.679.2271.5477,5.1845-.5224,5.3763.0426.1904.5612-4.4425,2.7421-4.2883,3.3191.153.5723,4.1995.3597,4.3155.9462.1148.5803-9.8126,2.7204-9.7353,3.3134.0765.5867,14.5845-.1742,14.6232.4237.0381.59-6.5465,1.7066-6.5465,2.3062Z"/><path class="cls-3" d="m134.7208,4.2004c-12.3142,7.2631-13.4815,9.6288-25.9923,21.1644-11.7543,10.0664-13.0993.1984-21.8896,1.431-7.5302-2.1743-5.2772,10.6181-11.1653,5.2787-5.5588-5.0246-6.2966-11.4915-12.9578-8.2884-6.923,5.9494-8.9783,5.5488-17.6215,22.2916-8.5546,18.0288-9.5244,20.2392-17.1125,37.9345-6.3805,14.388-1.1329,11.5483-6.2862,24.1991"/><path class="cls-9" d="m134.7208,3.9808c-11.3304-.1043-11.5194-1.0389-22.6565.3379-10.977,1.9413-12.3618-3.5607-23.204-.0618-10.6438,4.0388-8.4019,11.4026-18.4937,16.2662-9.8767,5.3456-10.9691,2.4236-20.4524,8.9482-9.2268,6.8947-10.367,4.4375-19.1173,12.3509-8.4862,8.2493-8.7381,7.8271-16.6221,16.8164-7.5954,9.2964-4.8152,13.7261-11.6749,23.3213"/><path class="cls-11" d="m134.905,240.8612c-57.3908,0-89.1768-17.205-103.0759-27.5194-5.2301-3.8812-6.9056-10.9526-3.9604-16.7615L124.2068,6.5706c4.4418-8.7607,16.9546-8.7607,21.3965,0l95.9652,189.2743c3.043,6.0017,1.1655,13.3621-4.4343,17.0934-15.401,10.2622-49.5572,27.923-102.2291,27.923Z"/><g class="cls-2"><circle class="cls-10" cx="122.1145" cy="205.1659" r="15.7903"/><circle class="cls-10" cx="184.3274" cy="212.4083" r="15.7903"/><circle class="cls-10" cx="75.6919" cy="228.1986" r="15.7903"/><circle class="cls-10" cx="144.3172" cy="149.5217" r="15.7903"/><circle class="cls-10" cx="200.1178" cy="165.312" r="15.7903"/><circle class="cls-10" cx="200.1178" cy="116.0715" r="15.7903"/><circle class="cls-10" cx="144.3172" cy="93.8774" r="15.7903"/><circle class="cls-10" cx="91.4823" cy="136.5545" r="15.7903"/><circle class="cls-10" cx="59.9016" cy="174.4019" r="15.7903"/><circle class="cls-10" cx="96.9462" cy="76.491" r="15.7903"/><circle class="cls-10" cx="134.7208" cy="34.9219" r="15.7903"/></g><path class="cls-15" d="m248.3529,395.846c57.3908,0,89.1768-17.205,103.0759-27.5194,5.2301-3.8812,6.9056-10.9526,3.9604-16.7615l-96.338-190.0097c-4.4418-8.7607-16.9546-8.7607-21.3965,0l-95.9652,189.2743c-3.043,6.0017-1.1655,13.3621,4.4343,17.0934,15.401,10.2622,49.5572,27.923,102.2291,27.923Z"/><g class="cls-5"><polygon class="cls-16" points="331.4145 316.7954 343.1128 340.4987 369.2709 344.2996 350.3427 362.7501 354.811 388.8025 331.4145 376.5022 308.018 388.8025 312.4863 362.7501 293.5582 344.2996 319.7163 340.4987 331.4145 316.7954"/><polygon class="cls-16" points="297.1235 244.7883 308.8218 268.4916 334.9798 272.2926 316.0517 290.743 320.52 316.7954 297.1235 304.4951 273.727 316.7954 278.1953 290.743 259.2671 272.2926 285.4252 268.4916 297.1235 244.7883"/><polygon class="cls-16" points="272.8417 170.1825 284.54 193.8858 310.6981 197.6868 291.7699 216.1372 296.2383 242.1896 272.8417 229.8893 249.4452 242.1896 253.9136 216.1372 234.9854 197.6868 261.1435 193.8858 272.8417 170.1825"/><polygon class="cls-16" points="219.0883 244.7883 230.7865 268.4916 256.9446 272.2926 238.0164 290.743 242.4848 316.7954 219.0883 304.4951 195.6917 316.7954 200.1601 290.743 181.2319 272.2926 207.39 268.4916 219.0883 244.7883"/><polygon class="cls-16" points="195.084 170.1825 206.7823 193.8858 232.9404 197.6868 214.0122 216.1372 218.4805 242.1896 195.084 229.8893 171.6875 242.1896 176.1559 216.1372 157.2277 197.6868 183.3858 193.8858 195.084 170.1825"/><polygon class="cls-16" points="251.155 316.7954 262.8532 340.4987 289.0113 344.2996 270.0832 362.7501 274.5515 388.8025 251.155 376.5022 227.7585 388.8025 232.2268 362.7501 213.2986 344.2996 239.4567 340.4987 251.155 316.7954"/><polygon class="cls-16" points="171.9954 316.7954 183.6937 340.4987 209.8518 344.2996 190.9236 362.7501 195.392 388.8025 171.9954 376.5022 148.5989 388.8025 153.0673 362.7501 134.1391 344.2996 160.2972 340.4987 171.9954 316.7954"/></g><polygon class="cls-16" points="248.5371 126.3654 255.2595 139.9865 270.2913 142.1708 259.4142 152.7733 261.9819 167.7443 248.5371 160.676 235.0923 167.7443 237.66 152.7733 226.783 142.1708 241.8147 139.9865 248.5371 126.3654"/><path class="cls-13" d="m245.6209,331.9912c57.3908,0,89.1768-17.205,103.0759-27.5194,5.2301-3.8812,6.9056-10.9526,3.9604-16.7615l-96.338-190.0097c-4.4418-8.7607-16.9546-8.7607-21.3965,0l-95.9652,189.2743c-3.043,6.0017-1.1655,13.3621,4.4343,17.0934,15.401,10.2622,49.5572,27.923,102.2291,27.923Z"/><g class="cls-1"><path class="cls-12" d="m356.0813,119.0333c-56.9674,69.1152-169.5636,115.9902-297.1699,82.3354-2.4291-9.498-4.4454-18.9785-6.0549-28.4102,121.0751,37.7852,229.2583-4.1816,283.6567-67.6099,6.2026,4.8149,12.7302,9.3872,19.568,13.6846Z"/><path class="cls-12" d="m404.8402,142.8311c-61.1909,83.4736-182.6052,143.0137-324.2192,120.333-4.2419-9.4253-8.0631-18.9009-11.4659-28.397,135.2104,28.0762,252.7116-25.291,312.2055-101.8096,7.5419,3.6128,15.3746,6.9146,23.4797,9.8735Z"/><path class="cls-12" d="m461.2763,156.9449c-63.2079,100.5786-192.0412,175.5337-347.071,166.5742-6.0687-9.0562-11.7177-18.23-16.9457-27.4941,148.952,15.6201,274.5699-51.8936,337.1507-144.2534,8.7147,2.1133,17.6776,3.8486,26.866,5.1733Z"/></g><path class="cls-14" d="m274.5429,91.13c0,.5998-9.9818.6461-10.02,1.2363-.0386.598,13.6347,2.4229,13.5581,3.0098-.0775.5936-3.617.8529-3.732,1.4339-.1161.5867,1.1053,1.654.9522,2.2265-.1544.5772-.2766,1.3911-.4673,1.9526-.192.5653-4.4995-.3365-4.7269.2114-.2286.5511,1.0983,1.7992.8353,2.3314-.2642.5345-4.9537-1.4354-5.2512-.9214-.2985.5157,1.041,1.7894.7104,2.283-.3314.4949-5.1624-2.674-5.5247-2.2028-.3628.472,4.3391,4.6747,3.9468,5.1216-.3926.4472,2.4605,3.961,2.0398,4.3816s.1031,2.1671-.3442,2.5596c-.4469.3921-7.8208-7.7863-8.2928-7.4236-.4713.3621,3.6118,6.7275,3.1169,7.0588-.4937.3305-3.7647-4.045-4.2804-3.7466-.514.2973-1.4491-.9555-1.9836-.6914-.532.2628,3.4029,10.225,2.852,10.4534-.5477.2271-3.4294-5.511-3.9944-5.3193-.5612.1904-1.691-2.2389-2.2679-2.0847-.5723.153.8377,8.7734.2512,8.8894-.5803.1148-1.3215,1.0991-1.9144,1.1764-.5867.0765-2.1497-9.8958-2.7476-9.8572-.59.0381-.8534-2.9014-1.4531-2.9014s-.7053.4945-1.2955.4563c-.598-.0386-1.7457,7.9823-2.3325,7.9057-.5936-.0775-2.1177,4.3868-2.6987,4.2718-.5867-.1161,1.4836-11.4755.9111-11.6286-.5772-.1544-2.2288,4.1678-2.7902,3.9771-.5653-.192-2.484,3.1833-3.032,2.9559-.5511-.2286-2.0273,1.1076-2.5594.8446-.5345-.2642-.4648-2.0829-.9787-2.3804-.5157-.2985,4.0729-8.4854,3.5792-8.816-.4949-.3314-8.4512,9.8041-8.9224,9.4418-.472-.3628,1.5107-4.0917,1.0638-4.484-.4472-.3926.6484-2.4784.2278-2.8991s-2.8493.9752-3.2418.5279c-.3921-.4469.2744-1.8798-.0883-2.3519-.3621-.4713,3.4631-3.7988,3.1318-4.2937-.3305-.4937.2085-1.1607-.0898-1.6764-.2973-.514-3.8952.9806-4.1592.4461-.2628-.532-6.2988,1.4214-6.5272.8706-.2271-.5477,7.2333-4.0536,7.0416-4.6186-.1904-.5612-6.1349.6334-6.2891.0565-.153-.5723,6.6503-2.7124,6.5343-3.2989-.1148-.5803-4.8318-.2791-4.9091-.872-.0765-.5867-8.1535-.6866-8.1921-1.2845-.0381-.59,14.8385-1.728,14.8385-2.3277s.1882-.7646.2263-1.3548c.0386-.598,1.707-.5419,1.7836-1.1287.0775-.5936-7.1592-2.0747-7.0442-2.6557.1161-.5867-.5556-1.3171-.4025-1.8896.1544-.5772-.7033-1.4873-.5126-2.0488.192-.5653,8.927,2.3468,9.1543,1.7988.2286-.5511-13.2143-7.2536-12.9513-7.7858.2642-.5345,13.6504,6.0137,13.9478,5.4997.2985-.5157-3.8986-3.4023-3.568-3.8959.3314-.4949-3.8118-4.1796-3.4496-4.6509.3628-.472,3.4588,1.2403,3.8511.7934.3926-.4472,4.0077,2.4202,4.4284,1.9996s.0259-1.2194.4732-1.6119c.4469-.3921-2.3553-4.5078-1.8833-4.8705.4713-.3621,5.8021,6.5087,6.297,6.1774.4937-.3305-7.9601-15.0239-7.4444-15.3222.514-.2973,7.9194,12.098,8.4539,11.8339.532-.2628-.3383-2.8898.2125-3.1182.5477-.2271.5644-1.3689,1.1294-1.5607.5612-.1904-.2268-4.8914.3501-5.0456.5723-.153,3.1768,9.0728,3.7634,8.9568.5803-.1148.7043-.2103,1.2973-.2876.5867-.0765.3303-6.2719.9282-6.3105.59-.0381,1.1376-6.0913,1.7373-6.0913s.8246,11.0518,1.4147,11.0899c.598.0386,1.5811-5.7892,2.1679-5.7127.5936.0775.1582,5.3939.7392,5.5089.5867.1161,4.0376-11.8009,4.6101-11.6477.5772.1544-1.1761,8.652-.6147,8.8426.5653.192.7605,1.0308,1.3084,1.2581.5511.2286,5.3557-8.4657,5.8878-8.2026.5345.2642-2.2887,7.3472-1.7747,7.6447.5157.2985.721,1.084,1.2146,1.4146.4949.3314,4.6513-4.1384,5.1225-3.7761.472.3628-.7081,3.1705-.2612,3.5629.4472.3926.0925,1.8434.5131,2.2641s3.5834-1.4358,3.9759-.9886c.3921.4469-6.1354,6.6267-5.7727,7.0987.3621.4713-2.8872,3.0545-2.5559,3.5494.3305.4937,13.2925-6.9266,13.5908-6.4108.2973.514-5.4306,4.5091-5.1665,5.0436.2628.532.3651,1.1281.5935,1.679.2271.5477,5.1845-.5224,5.3763.0426.1904.5612-4.4425,2.7421-4.2883,3.3191.153.5723,4.1995.3597,4.3155.9462.1148.5803-9.8126,2.7204-9.7353,3.3134.0765.5867,14.5845-.1742,14.6232.4237.0381.59-6.5465,1.7066-6.5465,2.3062Z"/><path class="cls-3" d="m245.8051,30.8247c-12.3142,7.2631-13.4815,9.6288-25.9923,21.1644-11.7543,10.0664-13.0993.1984-21.8896,1.431-7.5302-2.1743-5.2772,10.6181-11.1653,5.2787-5.5588-5.0246-6.2966-11.4915-12.9578-8.2884-6.923,5.9494-8.9783,5.5488-17.6215,22.2916-8.5546,18.0288-9.5244,20.2392-17.1125,37.9345-6.3805,14.388-1.1329,11.5483-6.2862,24.1991"/><path class="cls-9" d="m245.8051,30.6051c-11.3304-.1043-11.5194-1.0389-22.6565.3379-10.977,1.9413-12.3618-3.5607-23.204-.0618-10.6438,4.0388-8.4019,11.4026-18.4937,16.2662-9.8767,5.3456-10.9691,2.4236-20.4524,8.9482-9.2268,6.8947-10.367,4.4375-19.1173,12.3509-8.4862,8.2493-8.7381,7.8271-16.6221,16.8164-7.5954,9.2964-4.8152,13.7261-11.6749,23.3213"/><path class="cls-11" d="m245.9893,267.4855c-57.3908,0-89.1768-17.205-103.0759-27.5194-5.2301-3.8812-6.9056-10.9526-3.9604-16.7615L235.2911,33.1949c4.4418-8.7607,16.9546-8.7607,21.3965,0l95.9652,189.2743c3.043,6.0017,1.1655,13.3621-4.4343,17.0934-15.401,10.2622-49.5572,27.923-102.2291,27.923Z"/><g class="cls-4"><circle class="cls-10" cx="233.1987" cy="231.7902" r="15.7903"/><circle class="cls-10" cx="295.4117" cy="239.0325" r="15.7903"/><circle class="cls-10" cx="186.7762" cy="254.8229" r="15.7903"/><circle class="cls-10" cx="255.4015" cy="176.1459" r="15.7903"/><circle class="cls-10" cx="311.202" cy="191.9363" r="15.7903"/><circle class="cls-10" cx="311.202" cy="142.6957" r="15.7903"/><circle class="cls-10" cx="255.4015" cy="120.5017" r="15.7903"/><circle class="cls-10" cx="202.5665" cy="163.1788" r="15.7903"/><circle class="cls-10" cx="170.9858" cy="201.0262" r="15.7903"/><circle class="cls-10" cx="208.0304" cy="103.1153" r="15.7903"/><circle class="cls-10" cx="245.8051" cy="61.5462" r="15.7903"/></g></g></svg>