<?xml version="1.0" encoding="UTF-8"?><svg id="Layer_2" xmlns="http://www.w3.org/2000/svg" xmlns:xlink="http://www.w3.org/1999/xlink" viewBox="0 0 696.1858 419.5421"><defs><style>.cls-1{clip-path:url(#clippath-4);}.cls-1,.cls-2,.cls-3,.cls-4,.cls-5,.cls-6,.cls-7,.cls-8,.cls-9,.cls-10,.cls-11{fill:none;}.cls-2{clip-path:url(#clippath-2);}.cls-3{clip-path:url(#clippath-6);}.cls-12{fill:#fcc79e;}.cls-4{clip-path:url(#clippath-7);}.cls-13{fill:#fdb614;}.cls-5{clip-path:url(#clippath-5);}.cls-14{fill:#f5842e;}.cls-15{fill:#f6a0ad;}.cls-6{clip-path:url(#clippath-3);}.cls-16{fill:#ffdc8f;}.cls-8{clip-path:url(#clippath);}.cls-9{opacity:.25;}.cls-10{clip-path:url(#clippath-1);}.cls-11{clip-path:url(#clippath-8);}.cls-17{fill:#ef3d5d;}</style><clipPath id="clippath"><path class="cls-7" d="m369.1289,269.4806c57.3908,0,89.1768-17.205,103.0759-27.5194,5.2301-3.8812,6.9056-10.9526,3.9604-16.7615l-96.338-190.0097c-4.4418-8.7607-16.9546-8.7607-21.3965,0l-95.9652,189.2743c-3.043,6.0017-1.1655,13.3621,4.4343,17.0934,15.401,10.2622,49.5572,27.923,102.2291,27.923Z"/></clipPath><clipPath id="clippath-1"><path class="cls-7" d="m238.4307,312.3266c57.3908,0,89.1768-17.205,103.0759-27.5194,5.2301-3.8812,6.9056-10.9526,3.9604-16.7615l-96.338-190.0097c-4.4418-8.7607-16.9546-8.7607-21.3965,0l-95.9652,189.2743c-3.043,6.0017-1.1655,13.3621,4.4343,17.0934,15.401,10.2622,49.5572,27.923,102.2291,27.923Z"/></clipPath><clipPath id="clippath-2"><path class="cls-7" d="m108.1124,359.7037c57.3908,0,89.1768-17.205,103.0759-27.5194,5.2301-3.8812,6.9056-10.9526,3.9604-16.7615L118.8106,125.4131c-4.4418-8.7607-16.9546-8.7607-21.3965,0L1.449,314.6874c-3.043,6.0017-1.1655,13.3621,4.4343,17.0934,15.401,10.2622,49.5572,27.923,102.2291,27.923Z"/></clipPath><clipPath id="clippath-3"><path class="cls-7" d="m479.4084,296.2537c57.3908,0,89.1768-17.205,103.0759-27.5194,5.2301-3.8812,6.9056-10.9526,3.9604-16.7615l-96.338-190.0097c-4.4418-8.7607-16.9546-8.7607-21.3965,0l-95.9652,189.2743c-3.043,6.0017-1.1655,13.3621,4.4343,17.0934,15.401,10.2622,49.5572,27.923,102.2291,27.923Z"/></clipPath><clipPath id="clippath-4"><path class="cls-7" d="m351.641,345.2886c57.3908,0,89.1768-17.205,103.0759-27.5194,5.2301-3.8812,6.9056-10.9526,3.9604-16.7615l-96.338-190.0097c-4.4418-8.7607-16.9546-8.7607-21.3965,0l-95.9652,189.2743c-3.043,6.0017-1.1655,13.3621,4.4343,17.0934,15.401,10.2622,49.5572,27.923,102.2291,27.923Z"/></clipPath><clipPath id="clippath-5"><path class="cls-7" d="m221.3227,392.6657c57.3908,0,89.1768-17.205,103.0759-27.5194,5.2301-3.8812,6.9056-10.9526,3.9604-16.7615l-96.338-190.0097c-4.4418-8.7607-16.9546-8.7607-21.3965,0l-95.9652,189.2743c-3.043,6.0017-1.1655,13.3621,4.4343,17.0934,15.401,10.2622,49.5572,27.923,102.2291,27.923Z"/></clipPath><clipPath id="clippath-6"><path class="cls-7" d="m587.705,326.1807c57.3908,0,89.1768-17.205,103.0759-27.5194,5.2301-3.8812,6.9056-10.9526,3.9604-16.7615l-96.338-190.0097c-4.4418-8.7607-16.9546-8.7607-21.3965,0l-95.9652,189.2743c-3.043,6.0017-1.1655,13.3621,4.4343,17.0934,15.401,10.2622,49.5572,27.923,102.2291,27.923Z"/></clipPath><clipPath id="clippath-7"><path class="cls-7" d="m477.2356,372.165c57.3908,0,89.1768-17.205,103.0759-27.5194,5.2301-3.8812,6.9056-10.9526,3.9604-16.7615l-96.338-190.0097c-4.4418-8.7607-16.9546-8.7607-21.3965,0l-95.9652,189.2743c-3.043,6.0017-1.1655,13.3621,4.4343,17.0934,15.401,10.2622,49.5572,27.923,102.2291,27.923Z"/></clipPath><clipPath id="clippath-8"><path class="cls-7" d="m346.9173,419.5421c57.3908,0,89.1768-17.205,103.0759-27.5194,5.2301-3.8812,6.9056-10.9526,3.9604-16.7615l-96.338-190.0097c-4.4418-8.7607-16.9546-8.7607-21.3965,0l-95.9652,189.2743c-3.043,6.0017-1.1655,13.3621,4.4343,17.0934,15.401,10.2622,49.5572,27.923,102.2291,27.923Z"/></clipPath></defs><g id="Layer_4"><path class="cls-17" d="m369.1289,269.4806c57.3908,0,89.1768-17.205,103.0759-27.5194,5.2301-3.8812,6.9056-10.9526,3.9604-16.7615l-96.338-190.0097c-4.4418-8.7607-16.9546-8.7607-21.3965,0l-95.9652,189.2743c-3.043,6.0017-1.1655,13.3621,4.4343,17.0934,15.401,10.2622,49.5572,27.923,102.2291,27.923Z"/><g class="cls-9"><g class="cls-8"><polygon class="cls-15" points="452.1905 190.43 463.8888 214.1332 490.0469 217.9342 471.1187 236.3846 475.587 262.437 452.1905 250.1367 428.794 262.437 433.2623 236.3846 414.3342 217.9342 440.4923 214.1332 452.1905 190.43"/><polygon class="cls-15" points="417.8995 118.4229 429.5977 142.1262 455.7558 145.9272 436.8277 164.3776 441.296 190.43 417.8995 178.1297 394.503 190.43 398.9713 164.3776 380.0431 145.9272 406.2012 142.1262 417.8995 118.4229"/><polygon class="cls-15" points="393.6177 43.8171 405.316 67.5204 431.4741 71.3214 412.5459 89.7718 417.0143 115.8242 393.6177 103.5239 370.2212 115.8242 374.6896 89.7718 355.7614 71.3214 381.9195 67.5204 393.6177 43.8171"/><polygon class="cls-15" points="339.8643 118.4229 351.5625 142.1262 377.7206 145.9272 358.7924 164.3776 363.2608 190.43 339.8643 178.1297 316.4677 190.43 320.9361 164.3776 302.0079 145.9272 328.166 142.1262 339.8643 118.4229"/><polygon class="cls-15" points="315.86 43.8171 327.5583 67.5204 353.7164 71.3214 334.7882 89.7718 339.2565 115.8242 315.86 103.5239 292.4635 115.8242 296.9319 89.7718 278.0037 71.3214 304.1618 67.5204 315.86 43.8171"/><polygon class="cls-15" points="371.931 190.43 383.6292 214.1332 409.7873 217.9342 390.8592 236.3846 395.3275 262.437 371.931 250.1367 348.5345 262.437 353.0028 236.3846 334.0746 217.9342 360.2327 214.1332 371.931 190.43"/><polygon class="cls-15" points="292.7714 190.43 304.4697 214.1332 330.6278 217.9342 311.6996 236.3846 316.168 262.437 292.7714 250.1367 269.3749 262.437 273.8433 236.3846 254.9151 217.9342 281.0732 214.1332 292.7714 190.43"/></g></g><polygon class="cls-15" points="369.3131 0 376.0355 13.6211 391.0673 15.8053 380.1902 26.4079 382.7579 41.3789 369.3131 34.3105 355.8683 41.3789 358.436 26.4079 347.559 15.8053 362.5907 13.6211 369.3131 0"/><path class="cls-14" d="m238.4307,312.3266c57.3908,0,89.1768-17.205,103.0759-27.5194,5.2301-3.8812,6.9056-10.9526,3.9604-16.7615l-96.338-190.0097c-4.4418-8.7607-16.9546-8.7607-21.3965,0l-95.9652,189.2743c-3.043,6.0017-1.1655,13.3621,4.4343,17.0934,15.401,10.2622,49.5572,27.923,102.2291,27.923Z"/><g class="cls-9"><g class="cls-10"><polygon class="cls-12" points="321.4923 233.276 333.1906 256.9793 359.3487 260.7803 340.4205 279.2307 344.8889 305.2831 321.4923 292.9828 298.0958 305.2831 302.5642 279.2307 283.636 260.7803 309.7941 256.9793 321.4923 233.276"/><polygon class="cls-12" points="287.2013 161.269 298.8996 184.9722 325.0577 188.7732 306.1295 207.2236 310.5978 233.276 287.2013 220.9758 263.8048 233.276 268.2731 207.2236 249.345 188.7732 275.5031 184.9722 287.2013 161.269"/><polygon class="cls-12" points="262.9196 86.6632 274.6178 110.3664 300.7759 114.1674 281.8477 132.6178 286.3161 158.6702 262.9196 146.37 239.5231 158.6702 243.9914 132.6178 225.0632 114.1674 251.2213 110.3664 262.9196 86.6632"/><polygon class="cls-12" points="209.1661 161.269 220.8643 184.9722 247.0224 188.7732 228.0943 207.2236 232.5626 233.276 209.1661 220.9758 185.7696 233.276 190.2379 207.2236 171.3097 188.7732 197.4678 184.9722 209.1661 161.269"/><polygon class="cls-12" points="185.1619 86.6632 196.8601 110.3664 223.0182 114.1674 204.09 132.6178 208.5584 158.6702 185.1619 146.37 161.7654 158.6702 166.2337 132.6178 147.3055 114.1674 173.4636 110.3664 185.1619 86.6632"/><polygon class="cls-12" points="241.2328 233.276 252.9311 256.9793 279.0892 260.7803 260.161 279.2307 264.6293 305.2831 241.2328 292.9828 217.8363 305.2831 222.3046 279.2307 203.3765 260.7803 229.5346 256.9793 241.2328 233.276"/><polygon class="cls-12" points="162.0733 233.276 173.7715 256.9793 199.9296 260.7803 181.0014 279.2307 185.4698 305.2831 162.0733 292.9828 138.6768 305.2831 143.1451 279.2307 124.2169 260.7803 150.375 256.9793 162.0733 233.276"/></g></g><polygon class="cls-12" points="238.6149 42.8461 245.3374 56.4671 260.3691 58.6514 249.492 69.2539 252.0598 84.2249 238.6149 77.1566 225.1701 84.2249 227.7379 69.2539 216.8608 58.6514 231.8925 56.4671 238.6149 42.8461"/><path class="cls-13" d="m108.1124,359.7037c57.3908,0,89.1768-17.205,103.0759-27.5194,5.2301-3.8812,6.9056-10.9526,3.9604-16.7615L118.8106,125.4131c-4.4418-8.7607-16.9546-8.7607-21.3965,0L1.449,314.6874c-3.043,6.0017-1.1655,13.3621,4.4343,17.0934,15.401,10.2622,49.5572,27.923,102.2291,27.923Z"/><g class="cls-9"><g class="cls-2"><polygon class="cls-16" points="191.174 280.6531 202.8723 304.3564 229.0303 308.1574 210.1022 326.6078 214.5705 352.6602 191.174 340.3599 167.7775 352.6602 172.2458 326.6078 153.3176 308.1574 179.4757 304.3564 191.174 280.6531"/><polygon class="cls-16" points="156.883 208.646 168.5812 232.3493 194.7393 236.1503 175.8112 254.6007 180.2795 280.6531 156.883 268.3528 133.4865 280.6531 137.9548 254.6007 119.0266 236.1503 145.1847 232.3493 156.883 208.646"/><polygon class="cls-16" points="132.6012 134.0403 144.2995 157.7435 170.4576 161.5445 151.5294 179.9949 155.9977 206.0473 132.6012 193.747 109.2047 206.0473 113.6731 179.9949 94.7449 161.5445 120.903 157.7435 132.6012 134.0403"/><polygon class="cls-16" points="78.8477 208.646 90.546 232.3493 116.7041 236.1503 97.7759 254.6007 102.2442 280.6531 78.8477 268.3528 55.4512 280.6531 59.9196 254.6007 40.9914 236.1503 67.1495 232.3493 78.8477 208.646"/><polygon class="cls-16" points="54.8435 134.0403 66.5418 157.7435 92.6999 161.5445 73.7717 179.9949 78.24 206.0473 54.8435 193.747 31.447 206.0473 35.9153 179.9949 16.9872 161.5445 43.1453 157.7435 54.8435 134.0403"/><polygon class="cls-16" points="110.9145 280.6531 122.6127 304.3564 148.7708 308.1574 129.8426 326.6078 134.311 352.6602 110.9145 340.3599 87.518 352.6602 91.9863 326.6078 73.0581 308.1574 99.2162 304.3564 110.9145 280.6531"/><polygon class="cls-16" points="31.7549 280.6531 43.4532 304.3564 69.6113 308.1574 50.6831 326.6078 55.1514 352.6602 31.7549 340.3599 8.3584 352.6602 12.8268 326.6078 -6.1014 308.1574 20.0567 304.3564 31.7549 280.6531"/></g></g><polygon class="cls-16" points="108.2966 90.2231 115.019 103.8442 130.0508 106.0285 119.1737 116.631 121.7414 131.602 108.2966 124.5337 94.8518 131.602 97.4195 116.631 86.5424 106.0285 101.5742 103.8442 108.2966 90.2231"/><path class="cls-17" d="m479.4084,296.2537c57.3908,0,89.1768-17.205,103.0759-27.5194,5.2301-3.8812,6.9056-10.9526,3.9604-16.7615l-96.338-190.0097c-4.4418-8.7607-16.9546-8.7607-21.3965,0l-95.9652,189.2743c-3.043,6.0017-1.1655,13.3621,4.4343,17.0934,15.401,10.2622,49.5572,27.923,102.2291,27.923Z"/><g class="cls-9"><g class="cls-6"><polygon class="cls-15" points="562.47 217.2031 574.1683 240.9063 600.3264 244.7073 581.3982 263.1577 585.8665 289.2101 562.47 276.9098 539.0735 289.2101 543.5419 263.1577 524.6137 244.7073 550.7718 240.9063 562.47 217.2031"/><polygon class="cls-15" points="528.179 145.196 539.8773 168.8993 566.0354 172.7002 547.1072 191.1507 551.5755 217.2031 528.179 204.9028 504.7825 217.2031 509.2508 191.1507 490.3227 172.7002 516.4808 168.8993 528.179 145.196"/><polygon class="cls-15" points="503.8973 70.5902 515.5955 94.2935 541.7536 98.0945 522.8254 116.5449 527.2938 142.5973 503.8973 130.297 480.5008 142.5973 484.9691 116.5449 466.0409 98.0945 492.199 94.2935 503.8973 70.5902"/><polygon class="cls-15" points="450.1438 145.196 461.842 168.8993 488.0001 172.7002 469.0719 191.1507 473.5403 217.2031 450.1438 204.9028 426.7473 217.2031 431.2156 191.1507 412.2874 172.7002 438.4455 168.8993 450.1438 145.196"/><polygon class="cls-15" points="426.1396 70.5902 437.8378 94.2935 463.9959 98.0945 445.0677 116.5449 449.5361 142.5973 426.1396 130.297 402.743 142.5973 407.2114 116.5449 388.2832 98.0945 414.4413 94.2935 426.1396 70.5902"/><polygon class="cls-15" points="482.2105 217.2031 493.9088 240.9063 520.0669 244.7073 501.1387 263.1577 505.607 289.2101 482.2105 276.9098 458.814 289.2101 463.2823 263.1577 444.3542 244.7073 470.5123 240.9063 482.2105 217.2031"/><polygon class="cls-15" points="403.051 217.2031 414.7492 240.9063 440.9073 244.7073 421.9791 263.1577 426.4475 289.2101 403.051 276.9098 379.6545 289.2101 384.1228 263.1577 365.1946 244.7073 391.3527 240.9063 403.051 217.2031"/></g></g><polygon class="cls-15" points="479.5926 26.7731 486.315 40.3942 501.3468 42.5784 490.4697 53.1809 493.0374 68.152 479.5926 61.0836 466.1478 68.152 468.7156 53.1809 457.8385 42.5784 472.8702 40.3942 479.5926 26.7731"/><path class="cls-14" d="m351.641,345.2886c57.3908,0,89.1768-17.205,103.0759-27.5194,5.2301-3.8812,6.9056-10.9526,3.9604-16.7615l-96.338-190.0097c-4.4418-8.7607-16.9546-8.7607-21.3965,0l-95.9652,189.2743c-3.043,6.0017-1.1655,13.3621,4.4343,17.0934,15.401,10.2622,49.5572,27.923,102.2291,27.923Z"/><g class="cls-9"><g class="cls-1"><polygon class="cls-12" points="434.7026 266.238 446.4009 289.9413 472.559 293.7423 453.6308 312.1927 458.0992 338.2451 434.7026 325.9448 411.3061 338.2451 415.7745 312.1927 396.8463 293.7423 423.0044 289.9413 434.7026 266.238"/><polygon class="cls-12" points="400.4116 194.231 412.1099 217.9342 438.268 221.7352 419.3398 240.1856 423.8081 266.238 400.4116 253.9377 377.0151 266.238 381.4835 240.1856 362.5553 221.7352 388.7134 217.9342 400.4116 194.231"/><polygon class="cls-12" points="376.1299 119.6252 387.8281 143.3284 413.9862 147.1294 395.0581 165.5798 399.5264 191.6322 376.1299 179.3319 352.7334 191.6322 357.2017 165.5798 338.2735 147.1294 364.4316 143.3284 376.1299 119.6252"/><polygon class="cls-12" points="322.3764 194.231 334.0746 217.9342 360.2327 221.7352 341.3046 240.1856 345.7729 266.238 322.3764 253.9377 298.9799 266.238 303.4482 240.1856 284.52 221.7352 310.6781 217.9342 322.3764 194.231"/><polygon class="cls-12" points="298.3722 119.6252 310.0704 143.3284 336.2285 147.1294 317.3003 165.5798 321.7687 191.6322 298.3722 179.3319 274.9757 191.6322 279.444 165.5798 260.5158 147.1294 286.6739 143.3284 298.3722 119.6252"/><polygon class="cls-12" points="354.4431 266.238 366.1414 289.9413 392.2995 293.7423 373.3713 312.1927 377.8396 338.2451 354.4431 325.9448 331.0466 338.2451 335.5149 312.1927 316.5868 293.7423 342.7449 289.9413 354.4431 266.238"/><polygon class="cls-12" points="275.2836 266.238 286.9818 289.9413 313.1399 293.7423 294.2117 312.1927 298.6801 338.2451 275.2836 325.9448 251.8871 338.2451 256.3554 312.1927 237.4272 293.7423 263.5853 289.9413 275.2836 266.238"/></g></g><polygon class="cls-12" points="351.8252 75.808 358.5477 89.4291 373.5794 91.6134 362.7023 102.2159 365.2701 117.1869 351.8252 110.1186 338.3804 117.1869 340.9482 102.2159 330.0711 91.6134 345.1028 89.4291 351.8252 75.808"/><path class="cls-13" d="m221.3227,392.6657c57.3908,0,89.1768-17.205,103.0759-27.5194,5.2301-3.8812,6.9056-10.9526,3.9604-16.7615l-96.338-190.0097c-4.4418-8.7607-16.9546-8.7607-21.3965,0l-95.9652,189.2743c-3.043,6.0017-1.1655,13.3621,4.4343,17.0934,15.401,10.2622,49.5572,27.923,102.2291,27.923Z"/><g class="cls-9"><g class="cls-5"><polygon class="cls-16" points="304.3843 313.6151 316.0826 337.3183 342.2407 341.1193 323.3125 359.5697 327.7808 385.6221 304.3843 373.3219 280.9878 385.6221 285.4561 359.5697 266.528 341.1193 292.686 337.3183 304.3843 313.6151"/><polygon class="cls-16" points="270.0933 241.608 281.7915 265.3113 307.9496 269.1123 289.0215 287.5627 293.4898 313.6151 270.0933 301.3148 246.6968 313.6151 251.1651 287.5627 232.2369 269.1123 258.395 265.3113 270.0933 241.608"/><polygon class="cls-16" points="245.8115 167.0022 257.5098 190.7055 283.6679 194.5065 264.7397 212.9569 269.208 239.0093 245.8115 226.709 222.415 239.0093 226.8834 212.9569 207.9552 194.5065 234.1133 190.7055 245.8115 167.0022"/><polygon class="cls-16" points="192.058 241.608 203.7563 265.3113 229.9144 269.1123 210.9862 287.5627 215.4546 313.6151 192.058 301.3148 168.6615 313.6151 173.1299 287.5627 154.2017 269.1123 180.3598 265.3113 192.058 241.608"/><polygon class="cls-16" points="168.0538 167.0022 179.7521 190.7055 205.9102 194.5065 186.982 212.9569 191.4503 239.0093 168.0538 226.709 144.6573 239.0093 149.1256 212.9569 130.1975 194.5065 156.3556 190.7055 168.0538 167.0022"/><polygon class="cls-16" points="224.1248 313.6151 235.823 337.3183 261.9811 341.1193 243.053 359.5697 247.5213 385.6221 224.1248 373.3219 200.7283 385.6221 205.1966 359.5697 186.2684 341.1193 212.4265 337.3183 224.1248 313.6151"/><polygon class="cls-16" points="144.9652 313.6151 156.6635 337.3183 182.8216 341.1193 163.8934 359.5697 168.3617 385.6221 144.9652 373.3219 121.5687 385.6221 126.0371 359.5697 107.1089 341.1193 133.267 337.3183 144.9652 313.6151"/></g></g><polygon class="cls-16" points="221.5069 123.1851 228.2293 136.8062 243.2611 138.9905 232.384 149.593 234.9517 164.564 221.5069 157.4956 208.0621 164.564 210.6298 149.593 199.7527 138.9905 214.7845 136.8062 221.5069 123.1851"/><path class="cls-17" d="m587.705,326.1807c57.3908,0,89.1768-17.205,103.0759-27.5194,5.2301-3.8812,6.9056-10.9526,3.9604-16.7615l-96.338-190.0097c-4.4418-8.7607-16.9546-8.7607-21.3965,0l-95.9652,189.2743c-3.043,6.0017-1.1655,13.3621,4.4343,17.0934,15.401,10.2622,49.5572,27.923,102.2291,27.923Z"/><g class="cls-9"><g class="cls-3"><polygon class="cls-15" points="670.7666 247.13 682.4649 270.8333 708.623 274.6343 689.6948 293.0847 694.1631 319.1371 670.7666 306.8368 647.3701 319.1371 651.8385 293.0847 632.9103 274.6343 659.0684 270.8333 670.7666 247.13"/><polygon class="cls-15" points="636.4756 175.123 648.1739 198.8262 674.332 202.6272 655.4038 221.0776 659.8721 247.13 636.4756 234.8298 613.0791 247.13 617.5474 221.0776 598.6193 202.6272 624.7774 198.8262 636.4756 175.123"/><polygon class="cls-15" points="612.1939 100.5172 623.8921 124.2204 650.0502 128.0214 631.122 146.4719 635.5904 172.5242 612.1939 160.224 588.7974 172.5242 593.2657 146.4719 574.3375 128.0214 600.4956 124.2204 612.1939 100.5172"/><polygon class="cls-15" points="558.4404 175.123 570.1386 198.8262 596.2967 202.6272 577.3685 221.0776 581.8369 247.13 558.4404 234.8298 535.0439 247.13 539.5122 221.0776 520.584 202.6272 546.7421 198.8262 558.4404 175.123"/><polygon class="cls-15" points="534.4362 100.5172 546.1344 124.2204 572.2925 128.0214 553.3643 146.4719 557.8327 172.5242 534.4362 160.224 511.0396 172.5242 515.508 146.4719 496.5798 128.0214 522.7379 124.2204 534.4362 100.5172"/><polygon class="cls-15" points="590.5071 247.13 602.2054 270.8333 628.3635 274.6343 609.4353 293.0847 613.9036 319.1371 590.5071 306.8368 567.1106 319.1371 571.5789 293.0847 552.6508 274.6343 578.8089 270.8333 590.5071 247.13"/><polygon class="cls-15" points="511.3476 247.13 523.0458 270.8333 549.2039 274.6343 530.2757 293.0847 534.7441 319.1371 511.3476 306.8368 487.9511 319.1371 492.4194 293.0847 473.4912 274.6343 499.6493 270.8333 511.3476 247.13"/></g></g><polygon class="cls-15" points="587.8892 56.7001 594.6116 70.3212 609.6434 72.5054 598.7663 83.1079 601.334 98.079 587.8892 91.0106 574.4444 98.079 577.0122 83.1079 566.1351 72.5054 581.1668 70.3212 587.8892 56.7001"/><path class="cls-14" d="m477.2356,372.165c57.3908,0,89.1768-17.205,103.0759-27.5194,5.2301-3.8812,6.9056-10.9526,3.9604-16.7615l-96.338-190.0097c-4.4418-8.7607-16.9546-8.7607-21.3965,0l-95.9652,189.2743c-3.043,6.0017-1.1655,13.3621,4.4343,17.0934,15.401,10.2622,49.5572,27.923,102.2291,27.923Z"/><g class="cls-9"><g class="cls-4"><polygon class="cls-12" points="560.2972 293.1144 571.9955 316.8176 598.1536 320.6186 579.2254 339.069 583.6937 365.1214 560.2972 352.8212 536.9007 365.1214 541.369 339.069 522.4409 320.6186 548.5989 316.8176 560.2972 293.1144"/><polygon class="cls-12" points="526.0062 221.1073 537.7044 244.8106 563.8625 248.6116 544.9344 267.062 549.4027 293.1144 526.0062 280.8141 502.6097 293.1144 507.078 267.062 488.1498 248.6116 514.3079 244.8106 526.0062 221.1073"/><polygon class="cls-12" points="501.7244 146.5015 513.4227 170.2048 539.5808 174.0058 520.6526 192.4562 525.1209 218.5086 501.7244 206.2083 478.3279 218.5086 482.7963 192.4562 463.8681 174.0058 490.0262 170.2048 501.7244 146.5015"/><polygon class="cls-12" points="447.9709 221.1073 459.6692 244.8106 485.8273 248.6116 466.8991 267.062 471.3674 293.1144 447.9709 280.8141 424.5744 293.1144 429.0428 267.062 410.1146 248.6116 436.2727 244.8106 447.9709 221.1073"/><polygon class="cls-12" points="423.9667 146.5015 435.665 170.2048 461.8231 174.0058 442.8949 192.4562 447.3632 218.5086 423.9667 206.2083 400.5702 218.5086 405.0385 192.4562 386.1104 174.0058 412.2685 170.2048 423.9667 146.5015"/><polygon class="cls-12" points="480.0377 293.1144 491.7359 316.8176 517.894 320.6186 498.9659 339.069 503.4342 365.1214 480.0377 352.8212 456.6412 365.1214 461.1095 339.069 442.1813 320.6186 468.3394 316.8176 480.0377 293.1144"/><polygon class="cls-12" points="400.8781 293.1144 412.5764 316.8176 438.7345 320.6186 419.8063 339.069 424.2746 365.1214 400.8781 352.8212 377.4816 365.1214 381.95 339.069 363.0218 320.6186 389.1799 316.8176 400.8781 293.1144"/></g></g><polygon class="cls-12" points="477.4198 102.6844 484.1422 116.3055 499.174 118.4897 488.2969 129.0923 490.8646 144.0633 477.4198 136.9949 463.975 144.0633 466.5427 129.0923 455.6656 118.4897 470.6974 116.3055 477.4198 102.6844"/><path class="cls-13" d="m346.9173,419.5421c57.3908,0,89.1768-17.205,103.0759-27.5194,5.2301-3.8812,6.9056-10.9526,3.9604-16.7615l-96.338-190.0097c-4.4418-8.7607-16.9546-8.7607-21.3965,0l-95.9652,189.2743c-3.043,6.0017-1.1655,13.3621,4.4343,17.0934,15.401,10.2622,49.5572,27.923,102.2291,27.923Z"/><g class="cls-9"><g class="cls-11"><polygon class="cls-16" points="429.9789 340.4915 441.6771 364.1947 467.8352 367.9957 448.907 386.4461 453.3754 412.4985 429.9789 400.1982 406.5823 412.4985 411.0507 386.4461 392.1225 367.9957 418.2806 364.1947 429.9789 340.4915"/><polygon class="cls-16" points="395.6878 268.4844 407.3861 292.1877 433.5442 295.9886 414.616 314.4391 419.0843 340.4915 395.6878 328.1912 372.2913 340.4915 376.7597 314.4391 357.8315 295.9886 383.9896 292.1877 395.6878 268.4844"/><polygon class="cls-16" points="371.4061 193.8786 383.1043 217.5819 409.2624 221.3829 390.3343 239.8333 394.8026 265.8857 371.4061 253.5854 348.0096 265.8857 352.4779 239.8333 333.5497 221.3829 359.7078 217.5819 371.4061 193.8786"/><polygon class="cls-16" points="317.6526 268.4844 329.3508 292.1877 355.5089 295.9886 336.5808 314.4391 341.0491 340.4915 317.6526 328.1912 294.2561 340.4915 298.7244 314.4391 279.7962 295.9886 305.9543 292.1877 317.6526 268.4844"/><polygon class="cls-16" points="293.6484 193.8786 305.3466 217.5819 331.5047 221.3829 312.5766 239.8333 317.0449 265.8857 293.6484 253.5854 270.2519 265.8857 274.7202 239.8333 255.792 221.3829 281.9501 217.5819 293.6484 193.8786"/><polygon class="cls-16" points="349.7193 340.4915 361.4176 364.1947 387.5757 367.9957 368.6475 386.4461 373.1158 412.4985 349.7193 400.1982 326.3228 412.4985 330.7912 386.4461 311.863 367.9957 338.0211 364.1947 349.7193 340.4915"/><polygon class="cls-16" points="270.5598 340.4915 282.258 364.1947 308.4161 367.9957 289.488 386.4461 293.9563 412.4985 270.5598 400.1982 247.1633 412.4985 251.6316 386.4461 232.7034 367.9957 258.8615 364.1947 270.5598 340.4915"/></g></g><polygon class="cls-16" points="347.1015 150.0615 353.8239 163.6826 368.8556 165.8668 357.9785 176.4694 360.5463 191.4404 347.1015 184.372 333.6566 191.4404 336.2244 176.4694 325.3473 165.8668 340.3791 163.6826 347.1015 150.0615"/></g></svg>