<?xml version="1.0" encoding="UTF-8"?><svg id="Layer_2" xmlns="http://www.w3.org/2000/svg" xmlns:xlink="http://www.w3.org/1999/xlink" viewBox="0 0 433.6849 336.2972"><defs><style>.cls-1{clip-path:url(#clippath-2);}.cls-1,.cls-2,.cls-3,.cls-4,.cls-5,.cls-6{fill:none;}.cls-7{fill:#fff;}.cls-2{stroke:#4a88c7;}.cls-2,.cls-6{stroke-linecap:round;stroke-miterlimit:10;stroke-width:5px;}.cls-8{fill:#3ac0f0;}.cls-9{fill:#ded826;}.cls-10{fill:#909039;}.cls-11{fill:#2f9086;}.cls-12{fill:#fdb614;}.cls-13{fill:#ffdc8f;}.cls-4{clip-path:url(#clippath);}.cls-5{clip-path:url(#clippath-1);}.cls-6{stroke:#3fc0ef;}</style><clipPath id="clippath"><path class="cls-3" d="m117.4564,274.1933c57.3908,0,89.1768-17.205,103.0759-27.5194,5.2301-3.8812,6.9056-10.9526,3.9604-16.7615L128.1546,39.9027c-4.4418-8.7607-16.9546-8.7607-21.3965,0L10.793,229.1769c-3.043,6.0017-1.1655,13.3621,4.4343,17.0934,15.401,10.2622,49.5572,27.923,102.2291,27.923Z"/></clipPath><clipPath id="clippath-1"><path class="cls-3" d="m325.5725,274.1933c-57.3908,0-89.1768-17.205-103.0759-27.5194-5.2301-3.8812-6.9056-10.9526-3.9604-16.7615l96.338-190.0097c4.4418-8.7607,16.9546-8.7607,21.3965,0l95.9652,189.2743c3.043,6.0017,1.1655,13.3621-4.4343,17.0934-15.401,10.2622-49.5572,27.923-102.2291,27.923Z"/></clipPath><clipPath id="clippath-2"><path class="cls-3" d="m217.0432,336.2972c57.3908,0,89.1768-17.205,103.0759-27.5194,5.2301-3.8812,6.9056-10.9526,3.9604-16.7615l-96.338-190.0097c-4.4418-8.7607-16.9546-8.7607-21.3965,0l-95.9652,189.2743c-3.043,6.0017-1.1655,13.3621,4.4343,17.0934,15.401,10.2622,49.5572,27.923,102.2291,27.923Z"/></clipPath></defs><g id="Layer_4"><path class="cls-10" d="m117.4564,274.1933c57.3908,0,89.1768-17.205,103.0759-27.5194,5.2301-3.8812,6.9056-10.9526,3.9604-16.7615L128.1546,39.9027c-4.4418-8.7607-16.9546-8.7607-21.3965,0L10.793,229.1769c-3.043,6.0017-1.1655,13.3621,4.4343,17.0934,15.401,10.2622,49.5572,27.923,102.2291,27.923Z"/><g class="cls-4"><path class="cls-9" d="m227.9167,61.2353c-56.9673,69.1157-169.564,115.9917-297.1699,82.3354-2.4292-9.4971-4.4448-18.9785-6.0542-28.4102,121.0737,37.7847,229.2573-4.1812,283.6562-67.6099,6.2036,4.8154,12.73,9.3867,19.5679,13.6846Z"/><path class="cls-9" d="m276.676,85.0336c-61.1914,83.4731-182.6064,143.0132-324.2192,120.3325-4.2422-9.4248-8.0635-18.9014-11.4663-28.3975,135.2104,28.0776,252.7124-25.2886,312.2056-101.8091,7.541,3.6123,15.375,6.9141,23.48,9.874Z"/><path class="cls-9" d="m333.112,99.1469c-63.207,100.5786-192.041,175.5337-347.0703,166.5747-6.0693-9.0562-11.7178-18.231-16.9468-27.4937,148.9526,15.6196,274.5708-51.894,337.1509-144.2544,8.7148,2.1138,17.6777,3.8501,26.8662,5.1733Z"/></g><path class="cls-11" d="m146.3784,33.3321c0,.5998-9.9818.6461-10.02,1.2363-.0386.598,13.6347,2.4229,13.5581,3.0098-.0775.5936-3.617.8529-3.732,1.4339-.1161.5867,1.1053,1.654.9522,2.2265-.1544.5772-.2766,1.3911-.4673,1.9526-.192.5653-4.4995-.3365-4.7269.2114-.2286.5511,1.0983,1.7992.8353,2.3314-.2642.5345-4.9537-1.4354-5.2512-.9214-.2985.5157,1.041,1.7894.7104,2.283-.3314.4949-5.1624-2.674-5.5247-2.2028-.3628.472,4.3391,4.6747,3.9468,5.1216-.3926.4472,2.4605,3.961,2.0398,4.3816s.1031,2.1671-.3442,2.5596c-.4469.3921-7.8208-7.7863-8.2928-7.4236-.4713.3621,3.6118,6.7275,3.1169,7.0588-.4937.3305-3.7647-4.045-4.2804-3.7466-.514.2973-1.4491-.9555-1.9836-.6914-.532.2628,3.4029,10.225,2.852,10.4534-.5477.2271-3.4294-5.511-3.9944-5.3193-.5612.1904-1.691-2.2389-2.2679-2.0847-.5723.153.8377,8.7734.2512,8.8894-.5803.1148-1.3215,1.0991-1.9144,1.1764-.5867.0765-2.1497-9.8958-2.7476-9.8572-.59.0381-.8534-2.9014-1.4531-2.9014s-.7053.4945-1.2955.4563c-.598-.0386-1.7457,7.9823-2.3325,7.9057-.5936-.0775-2.1177,4.3868-2.6987,4.2718-.5867-.1161,1.4836-11.4755.9111-11.6286-.5772-.1544-2.2288,4.1678-2.7902,3.9771-.5653-.192-2.484,3.1833-3.032,2.9559-.5511-.2286-2.0273,1.1076-2.5594.8446-.5345-.2642-.4648-2.0829-.9787-2.3804-.5157-.2985,4.0729-8.4854,3.5792-8.816-.4949-.3314-8.4512,9.8041-8.9224,9.4418-.472-.3628,1.5107-4.0917,1.0638-4.484-.4472-.3926.6484-2.4784.2278-2.8991s-2.8493.9752-3.2418.5279c-.3921-.4469.2744-1.8798-.0883-2.3519-.3621-.4713,3.4631-3.7988,3.1318-4.2937-.3305-.4937.2085-1.1607-.0898-1.6764-.2973-.514-3.8952.9806-4.1592.4461-.2628-.532-6.2988,1.4214-6.5272.8706-.2271-.5477,7.2333-4.0536,7.0416-4.6186-.1904-.5612-6.1349.6334-6.2891.0565-.153-.5723,6.6503-2.7124,6.5343-3.2989-.1148-.5803-4.8318-.2791-4.9091-.872-.0765-.5867-8.1535-.6866-8.1921-1.2845-.0381-.59,14.8385-1.728,14.8385-2.3277s.1882-.7646.2263-1.3548c.0386-.598,1.707-.5419,1.7836-1.1287.0775-.5936-7.1592-2.0747-7.0442-2.6557.1161-.5867-.5556-1.3171-.4025-1.8896.1544-.5772-.7033-1.4873-.5126-2.0488.192-.5653,8.927,2.3468,9.1543,1.7988.2286-.5511-13.2143-7.2536-12.9513-7.7858.2642-.5345,13.6504,6.0137,13.9478,5.4997.2985-.5157-3.8986-3.4023-3.568-3.8959.3314-.4949-3.8118-4.1796-3.4496-4.6509.3628-.472,3.4588,1.2403,3.8511.7934.3926-.4472,4.0077,2.4202,4.4284,1.9996s.0259-1.2194.4732-1.6119c.4469-.3921-2.3553-4.5078-1.8833-4.8705.4713-.3621,5.8021,6.5087,6.297,6.1774.4937-.3305-7.9601-15.0239-7.4444-15.3222.514-.2973,7.9194,12.098,8.4539,11.8339.532-.2628-.3383-2.8898.2125-3.1182.5477-.2271.5644-1.3689,1.1294-1.5607.5612-.1904-.2268-4.8914.3501-5.0456.5723-.153,3.1768,9.0728,3.7634,8.9568.5803-.1148.7043-.2103,1.2973-.2876.5867-.0765.3303-6.2719.9282-6.3105.59-.0381,1.1376-6.0913,1.7373-6.0913s.8246,11.0518,1.4147,11.0899c.598.0386,1.5811-5.7892,2.1679-5.7127.5936.0775.1582,5.3939.7392,5.5089.5867.1161,4.0376-11.8009,4.6101-11.6477.5772.1544-1.1761,8.652-.6147,8.8426.5653.192.7605,1.0308,1.3084,1.2581.5511.2286,5.3557-8.4657,5.8878-8.2026.5345.2642-2.2887,7.3472-1.7747,7.6447.5157.2985.721,1.084,1.2146,1.4146.4949.3314,4.6513-4.1384,5.1225-3.7761.472.3628-.7081,3.1705-.2612,3.5629.4472.3926.0925,1.8434.5131,2.2641s3.5834-1.4358,3.9759-.9886c.3921.4469-6.1354,6.6267-5.7727,7.0987.3621.4713-2.8872,3.0545-2.5559,3.5494.3305.4937,13.2925-6.9266,13.5908-6.4108.2973.514-5.4306,4.5091-5.1665,5.0436.2628.532.3651,1.1281.5935,1.679.2271.5477,5.1845-.5224,5.3763.0426.1904.5612-4.4425,2.7421-4.2883,3.3191.153.5723,4.1995.3597,4.3155.9462.1148.5803-9.8126,2.7204-9.7353,3.3134.0765.5867,14.5845-.1742,14.6232.4237.0381.59-6.5465,1.7066-6.5465,2.3062Z"/><path class="cls-2" d="m325.3883,37.5326c-12.3142,7.2631-13.4815,9.6288-25.9923,21.1644-11.7543,10.0664-13.0993.1984-21.8896,1.431-7.5302-2.1743-5.2772,10.6181-11.1653,5.2787-5.5588-5.0246-6.2966-11.4915-12.9578-8.2884-6.923,5.9494-8.9783,5.5488-17.6215,22.2916-8.5546,18.0288-9.5244,20.2392-17.1125,37.9345-6.3805,14.388-1.1329,11.5483-6.2862,24.1991"/><path class="cls-6" d="m325.3883,37.3129c-11.3304-.1043-11.5194-1.0389-22.6565.3379-10.977,1.9413-12.3618-3.5607-23.204-.0618-10.6438,4.0388-8.4019,11.4026-18.4937,16.2662-9.8767,5.3456-10.9691,2.4236-20.4524,8.9482-9.2268,6.8947-10.367,4.4375-19.1173,12.3509-8.4862,8.2493-8.7381,7.8271-16.6221,16.8164-7.5954,9.2964-4.8152,13.7261-11.6749,23.3213"/><path class="cls-8" d="m325.5725,274.1933c-57.3908,0-89.1768-17.205-103.0759-27.5194-5.2301-3.8812-6.9056-10.9526-3.9604-16.7615l96.338-190.0097c4.4418-8.7607,16.9546-8.7607,21.3965,0l95.9652,189.2743c3.043,6.0017,1.1655,13.3621-4.4343,17.0934-15.401,10.2622-49.5572,27.923-102.2291,27.923Z"/><g class="cls-5"><circle class="cls-7" cx="312.782" cy="238.498" r="15.7903"/><circle class="cls-7" cx="374.9949" cy="245.7404" r="15.7903"/><circle class="cls-7" cx="266.3594" cy="261.5307" r="15.7903"/><circle class="cls-7" cx="334.9847" cy="182.8538" r="15.7903"/><circle class="cls-7" cx="390.7853" cy="198.6441" r="15.7903"/><circle class="cls-7" cx="390.7853" cy="149.4036" r="15.7903"/><circle class="cls-7" cx="334.9847" cy="127.2095" r="15.7903"/><circle class="cls-7" cx="282.1498" cy="169.8866" r="15.7903"/><circle class="cls-7" cx="250.5691" cy="207.734" r="15.7903"/><circle class="cls-7" cx="287.6137" cy="109.8231" r="15.7903"/><circle class="cls-7" cx="325.3883" cy="68.254" r="15.7903"/></g><path class="cls-12" d="m217.0432,336.2972c57.3908,0,89.1768-17.205,103.0759-27.5194,5.2301-3.8812,6.9056-10.9526,3.9604-16.7615l-96.338-190.0097c-4.4418-8.7607-16.9546-8.7607-21.3965,0l-95.9652,189.2743c-3.043,6.0017-1.1655,13.3621,4.4343,17.0934,15.401,10.2622,49.5572,27.923,102.2291,27.923Z"/><g class="cls-1"><polygon class="cls-13" points="300.1048 257.2466 311.8031 280.9499 337.9612 284.7509 319.033 303.2013 323.5014 329.2537 300.1048 316.9534 276.7083 329.2537 281.1767 303.2013 262.2485 284.7509 288.4066 280.9499 300.1048 257.2466"/><polygon class="cls-13" points="265.8138 185.2396 277.5121 208.9428 303.6702 212.7438 284.742 231.1942 289.2103 257.2466 265.8138 244.9463 242.4173 257.2466 246.8856 231.1942 227.9575 212.7438 254.1156 208.9428 265.8138 185.2396"/><polygon class="cls-13" points="241.5321 110.6338 253.2303 134.337 279.3884 138.138 260.4602 156.5884 264.9286 182.6408 241.5321 170.3405 218.1356 182.6408 222.6039 156.5884 203.6757 138.138 229.8338 134.337 241.5321 110.6338"/><polygon class="cls-13" points="187.7786 185.2396 199.4768 208.9428 225.6349 212.7438 206.7068 231.1942 211.1751 257.2466 187.7786 244.9463 164.3821 257.2466 168.8504 231.1942 149.9222 212.7438 176.0803 208.9428 187.7786 185.2396"/><polygon class="cls-13" points="163.7744 110.6338 175.4726 134.337 201.6307 138.138 182.7025 156.5884 187.1709 182.6408 163.7744 170.3405 140.3779 182.6408 144.8462 156.5884 125.918 138.138 152.0761 134.337 163.7744 110.6338"/><polygon class="cls-13" points="219.8453 257.2466 231.5436 280.9499 257.7017 284.7509 238.7735 303.2013 243.2418 329.2537 219.8453 316.9534 196.4488 329.2537 200.9171 303.2013 181.989 284.7509 208.1471 280.9499 219.8453 257.2466"/><polygon class="cls-13" points="140.6858 257.2466 152.384 280.9499 178.5421 284.7509 159.6139 303.2013 164.0823 329.2537 140.6858 316.9534 117.2893 329.2537 121.7576 303.2013 102.8294 284.7509 128.9875 280.9499 140.6858 257.2466"/></g><polygon class="cls-13" points="217.2274 66.8166 223.9499 80.4377 238.9816 82.622 228.1045 93.2245 230.6723 108.1955 217.2274 101.1272 203.7826 108.1955 206.3504 93.2245 195.4733 82.622 210.505 80.4377 217.2274 66.8166"/></g></svg>