<?xml version="1.0" encoding="UTF-8"?><svg id="Layer_2" xmlns="http://www.w3.org/2000/svg" xmlns:xlink="http://www.w3.org/1999/xlink" viewBox="0 0 234.0697 344.4645"><defs><style>.cls-1{fill:#ded826;}.cls-2{fill:#909039;}.cls-3{fill:#2f9086;}.cls-4{fill:#fcb561;}.cls-5{fill:#9f302e;}.cls-6,.cls-7{fill:none;}.cls-8{fill:#a43f3b;}.cls-7{clip-path:url(#clippath);}</style><clipPath id="clippath"><path class="cls-6" d="m122.9038,165.3845c34.6162,0,53.7885-10.3775,62.172-16.5988,3.1547-2.341,4.1653-6.6062,2.3888-10.11l-58.108-114.6077c-2.6792-5.2842-10.2265-5.2842-12.9056,0l-57.8831,114.1641c-1.8354,3.62-.703,8.0596,2.6746,10.3102,9.2894,6.1898,29.8913,16.8422,61.6613,16.8422Z"/></clipPath></defs><g id="Layer_4"><path class="cls-5" d="m6.5297,154.352s33.2476,32.2455,76.3344,34.6355c43.0868,2.39,79.6968-25.9804,79.6968-25.9804,0,0-33.2476-32.2455-76.3344-34.6355-43.0868-2.39-79.6968,25.9804-79.6968,25.9804Z"/><path class="cls-5" d="m92.4995,118.1384c.2405.2026,16.5616,5.9425,29.1436,23.3767,13.3333,17.03,17.6256,39.3595,17.8249,39.0163-.3713.1136,4.3934-8.2868,4.4298-20.3478.3963-11.8408-3.9357-27.3423-14.1862-36.3452-10.0829-9.2867-20.5776-10.1732-27.209-9.2788-6.852.9746-9.8407,3.7302-10.003,3.5788Z"/><path class="cls-5" d="m121.1859,94.7073c-.0964-.0033-1.1979,3.9262-.5817,11.1856.3481,7.2201,2.4136,17.7702,2.4672,30.0974.4088,12.5252-3.2741,23.1253-7.2221,29.4558-3.9126,6.5223-8.0902,8.7752-7.8518,9.0326.2154-.1067,3.547,1.8804,10.0498,2.1815,6.2977.1014,15.767-1.4833,23.5185-13.3459,8.0791-11.4621,6.8876-32.0801-.7515-46.1247-6.908-14.6277-20.2637-22.6819-19.6284-22.4823Z"/><path class="cls-8" d="m135.2436,174.6262c-.0139-.1606-2.6784-1.0202-5.5866-4.41-2.7143-3.3515-5.672-9.2334-1.7972-18.5465,3.5239-9.3117,16.0108-17.6543,27.3303-20.1282,11.3509-3.0478,21.5343-.2272,21.1815-.4656.0573.0656-2.1901,2.2342-6.9829,5.2637-4.6685,3.1217-11.8827,7.1047-18.8828,12.9284-7.2619,5.7378-11.5531,12.395-13.4445,17.2704-1.9937,4.9311-1.5875,8.0802-1.8178,8.0879Z"/><path class="cls-5" d="m102.6906,151.3999s-.3021,65.0741,35.9773,88.4407c36.2793,23.3666,95.4018-3.8228,95.4018-3.8228,0,0,.3021-65.0741-35.9773-88.4407-36.2793-23.3666-95.4018,3.8228-95.4018,3.8228Z"/><path class="cls-4" d="m113.332,344.4208h.0002c50.288,1.5146,88.2271-36.5495,84.7035-79.7504l-5.1954-63.6991c-.1252-1.5351-1.7479-2.8316-3.6066-2.8876l-142.8585-4.3027c-1.8587-.056-3.5565,1.1406-3.7739,2.6653l-9.0196,63.271c-6.1171,42.9105,29.4624,83.1889,79.7504,84.7035Z"/><path class="cls-8" d="m156.2147,166.9891c.0597.1115,18.2429,4.1471,32.5655,23.057,14.5783,18.4956,20.0231,40.433,20.5231,39.8171-.409.2161,4.7114-10.105,3.7866-23.721-.4139-13.4248-6.8733-30.1445-18.6436-38.3103-11.6297-8.5124-22.2425-7.8212-28.7415-5.9502-6.6995,2.018-9.2851,5.2158-9.4901,5.1073Z"/><path class="cls-5" d="m0,233.8519c.1521.4435,11.6347.7325,30.3275,3.2366,18.5048,1.9551,44.2196,6.1254,68.4878,1.6525,24.2798-4.4403,40.8416-21.5679,50.6094-39.6954,9.8897-17.7736,12.9856-36.547,13.1381-36.1024-.1521-.4435-11.6348-.7323-30.3275-3.2365-18.5046-1.9552-44.2194-6.1257-68.4877-1.6525-24.2796,4.4404-40.8411,21.5679-50.6093,39.6955C3.2488,215.523.1523,234.2967,0,233.8519Z"/><path class="cls-5" d="m151.3926,236.5762c10.3798-2.4396,11.3881-12.7593,8.6033-21.6154-2.7779-9.1483-9.3492-16.8327-13.9671-20.7552-19.2386-15.9497-14.7476-31.5308-14.824-31.5751-.1809.0703,13.9045-3.8625,25.8483-3.7645,6.1025.1031,11.8475,1.2791,16.7996,5.2719,5.0379,4.0362,9.2829,10.8891,14.3635,23.3499,2.2846,6.5875,4.4236,13.2005,4.6021,20.5099.123,7.2167-1.7144,15.1292-8.6635,22.178-5.9907,6.185-15.2207,8.0307-22.1605,8.0671-7.0204.0777-11.7508-1.6537-10.6018-1.6665Z"/><path class="cls-8" d="m128.2329,157.0425c-.0778-.1566,4.8141,5.899,7.9033,12.8842,3.5223,7.1223,5.2416,15.1743,8.8209,22.1793,7.2921,13.4954,21.2616,31.4277,21.6293,31.4533-.6029-.0293,8.0644-7.1563,11.4375-20.8042,3.7984-13.0574,2.3025-32.6359-8.8079-43.9305-10.8032-11.4943-22.7294-11.2906-30.0454-8.8708-7.6319,2.5182-10.6535,7.2525-10.9376,7.0888Z"/><path class="cls-8" d="m22.8508,123.509c10.1441,26.7337,50.5553,29.1116,67.6947,25.7786,35.4062-6.7329,47.7599,9.9331,47.9261,9.9601-.4471.1343-31.801,63.4319-88.413,35.6414-14.9496-7.2229-29.0101-14.7461-34.3798-35.7126-4.6262-18.0859,6.0463-38.7087,7.172-35.6674Z"/><path class="cls-2" d="m122.9038,165.3845c34.6162,0,53.7885-10.3775,62.172-16.5988,3.1547-2.341,4.1653-6.6062,2.3888-10.11l-58.108-114.6077c-2.6792-5.2842-10.2265-5.2842-12.9056,0l-57.8831,114.1641c-1.8354,3.62-.703,8.0596,2.6746,10.3102,9.2894,6.1898,29.8913,16.8422,61.6613,16.8422Z"/><g class="cls-7"><path class="cls-1" d="m189.5302,36.935c-34.3613,41.689-102.2754,69.9624-179.2437,49.6621-1.4648-5.7285-2.6816-11.4463-3.6519-17.1357,73.0283,22.7905,138.2812-2.5229,171.0923-40.7803,3.7412,2.9033,7.6787,5.6611,11.8032,8.2539Z"/><path class="cls-1" d="m218.9394,51.289c-36.9077,50.3491-110.1411,86.2612-195.5581,72.5811-2.5591-5.6851-4.8628-11.3999-6.9155-17.1284,81.5537,16.9351,152.4277-15.2544,188.3115-61.4082,4.5483,2.1792,9.2729,4.1714,14.1621,5.9556Z"/><path class="cls-1" d="m252.9804,59.8022c-38.1245,60.6646-115.8335,105.8755-209.3418,100.4722-3.6606-5.4619-7.0679-10.9961-10.2212-16.583,89.8428,9.4209,165.6113-31.3018,203.3584-87.0093,5.2563,1.2754,10.6616,2.3213,16.2046,3.1201Z"/></g><path class="cls-3" d="m140.3486,20.1049c0,.3618-6.0207.3897-6.0437.7457-.0233.3607,8.224,1.4614,8.1778,1.8154-.0467.358-2.1817.5145-2.251.8649-.07.3539.6667.9976.5743,1.3429-.0931.3482-.1669.8391-.2819,1.1778-.1158.341-2.714-.203-2.8511.1275-.1379.3324.6624,1.0852.5038,1.4062-.1593.3224-2.9879-.8658-3.1673-.5558-.18.3111.6279,1.0793.4285,1.377-.1999.2985-3.1138-1.6129-3.3323-1.3286-.2188.2847,2.6172,2.8197,2.3806,3.0892-.2368.2697,1.4841,2.3892,1.2304,2.6428s.0622,1.3072-.2076,1.5439c-.2696.2365-4.7173-4.6964-5.002-4.4777-.2843.2184,2.1785,4.0578,1.88,4.2576-.2978.1993-2.2707-2.4398-2.5818-2.2598-.31.1793-.874-.5763-1.1964-.4171-.3209.1585,2.0525,6.1674,1.7202,6.3051-.3304.137-2.0685-3.3241-2.4093-3.2084-.3385.1149-1.02-1.3504-1.3679-1.2574-.3452.0923.5053,5.2918.1515,5.3618-.35.0692-.7971.6629-1.1547.7096-.3539.0462-1.2966-5.9688-1.6573-5.9455-.3559.023-.5148-1.75-.8765-1.75s-.4254.2982-.7814.2752c-.3607-.0233-1.0529,4.8146-1.4069,4.7685-.358-.0467-1.2773,2.646-1.6277,2.5766-.3539-.07.8949-6.9216.5496-7.014-.3482-.0931-1.3443,2.5139-1.683,2.3989-.341-.1158-1.4983,1.9201-1.8288,1.7829-.3324-.1379-1.2228.6681-1.5437.5094-.3224-.1593-.2803-1.2563-.5903-1.4358-.3111-.18,2.4566-5.1181,2.1589-5.3175-.2985-.1999-5.0975,5.9135-5.3817,5.695-.2847-.2188.9112-2.468.6417-2.7046-.2697-.2368.3911-1.4949.1374-1.7486s-1.7186.5882-1.9553.3184c-.2365-.2696.1655-1.1338-.0532-1.4186-.2184-.2843,2.0888-2.2913,1.889-2.5898-.1993-.2978.1258-.7001-.0542-1.0112-.1793-.31-2.3494.5915-2.5087.2691-.1585-.3209-3.7992.8574-3.937.5251-.137-.3304,4.3629-2.445,4.2473-2.7858-.1149-.3385-3.7004.3821-3.7934.0341-.0923-.3452,4.0112-1.636,3.9412-1.9898-.0692-.35-2.9144-.1683-2.961-.526-.0462-.3539-4.9179-.4141-4.9412-.7747-.023-.3559,8.9501-1.0423,8.9501-1.404s.1135-.4612.1365-.8172c.0233-.3607,1.0296-.3268,1.0758-.6808.0467-.358-4.3182-1.2514-4.2488-1.6018.07-.3539-.3351-.7944-.2428-1.1397.0931-.3482-.4242-.8971-.3092-1.2358.1158-.341,5.3845,1.4155,5.5216,1.085.1379-.3324-7.9704-4.3752-7.8118-4.6961.1593-.3224,8.2334,3.6272,8.4129,3.3172.18-.3111-2.3515-2.0521-2.1521-2.3499.1999-.2985-2.2992-2.521-2.0807-2.8053.2188-.2847,2.0862.7481,2.3229.4786.2368-.2697,2.4173,1.4598,2.6711,1.2061s.0157-.7355.2854-.9722c.2696-.2365-1.4207-2.719-1.1359-2.9377.2843-.2184,3.4997,3.9258,3.7982,3.726.2978-.1993-4.8013-9.0619-4.4902-9.2419.31-.1793,4.7767,7.2971,5.0991,7.1379.3209-.1585-.2041-1.743.1282-1.8808.3304-.137.3404-.8257.6812-.9414.3385-.1149-.1368-2.9503.2112-3.0433.3452-.0923,1.9162,5.4724,2.2699,5.4024.35-.0692.4248-.1268.7825-.1735.3539-.0462.1992-3.783.5598-3.8063.3559-.023.6862-3.6741,1.0479-3.6741s.4973,6.6661.8533,6.6891c.3607.0233.9536-3.4919,1.3076-3.4457.358.0467.0954,3.2534.4459,3.3228.3539.07,2.4353-7.1179,2.7806-7.0255.3482.0931-.7094,5.2186-.3707,5.3336.341.1158.4587.6217.7892.7588.3324.1379,3.2304-5.1062,3.5513-4.9476.3224.1593-1.3805,4.4316-1.0705,4.611.3111.18.4349.6538.7326.8532.2985.1999,2.8055-2.4961,3.0897-2.2776.2847.2188-.4271,1.9124-.1576,2.149.2697.2368.0558,1.1119.3095,1.3656s2.1614-.8661,2.3981-.5963c.2365.2696-3.7007,3.997-3.4819,4.2817.2184.2843-1.7414,1.8424-1.5416,2.1409.1993.2978,8.0176-4.1779,8.1976-3.8668.1793.31-3.2755,2.7198-3.1163,3.0421.1585.3209.2202.6805.358,1.0127.137.3304,3.1271-.3151,3.2428.0257.1149.3385-2.6796,1.654-2.5865,2.002.0923.3452,2.533.217,2.603.5707.0692.35-5.9186,1.6409-5.872,1.9985.0462.3539,8.7969-.1051,8.8202.2555.023.3559-3.9486,1.0293-3.9486,1.391Z"/></g></svg>