<?xml version="1.0" encoding="UTF-8"?><svg id="Layer_2" xmlns="http://www.w3.org/2000/svg" xmlns:xlink="http://www.w3.org/1999/xlink" viewBox="0 0 6995.3036 4385.098"><defs><style>.cls-1{clip-path:url(#clippath-4);}.cls-1,.cls-2,.cls-3,.cls-4,.cls-5,.cls-6,.cls-7,.cls-8{fill:none;}.cls-2{clip-path:url(#clippath-2);}.cls-9{fill:#fff;}.cls-10{fill:#e4c08c;}.cls-11{fill:#bd8caf;}.cls-12{fill:#4a4a4a;}.cls-13{fill:#e5ded5;}.cls-14{fill:#4e4e4e;}.cls-15{fill:#d3ad7b;}.cls-16{fill:#e4c524;}.cls-17{fill:#c075a1;}.cls-18{fill:#c8c1ba;}.cls-19{fill:#a34f3b;}.cls-20{fill:#c8abc3;}.cls-21{fill:#c14d8d;}.cls-3{clip-path:url(#clippath-3);}.cls-4{opacity:.36;}.cls-22{fill:#74903b;}.cls-23{fill:#d9a8c0;}.cls-6{clip-path:url(#clippath);}.cls-24{fill:#2f2f2e;}.cls-25{fill:#cccccb;}.cls-26{fill:#205287;}.cls-7{clip-path:url(#clippath-1);}.cls-27{fill:#9f412e;}.cls-8{opacity:.34;}</style><clipPath id="clippath"><path class="cls-5" d="m2099.9791,3505.0824l377.2711,149.9967c18.1681,7.2233-9.7554,34.0425-52.67,56.9934l-32.4699,17.365c-32.6529,17.4628-73.6294,31.0038-97.1803,32.1986l-308.0528,15.6283c-88.3299,4.4812-191.7075-21.0525-213.5258-72.2697l-29.4798-69.2022c-54.5973-128.1643,157.8587-209.5304,356.1075-130.71Z"/></clipPath><clipPath id="clippath-1"><path class="cls-5" d="m2338.5828,2143.2971c-166.9025-25.6555-346.0436-71.9754-570.1233-362.2069-36.4056-47.1532-117.8254-207.1179-117.8254-207.1179-2.8966-5.9303-10.1195-8.4114-16.049-5.5142l-265.8336,108.7477c-5.93,2.8973-8.4115,10.1198-5.514,16.0497l46.7521,71.3886c2.8975,5.9299,10.1199,8.4112,16.0499,5.5139l157.5727-72.6434,364.8091,615.5068-74.0233,210.2542c-2.1915,6.2253,1.1085,13.1122,7.3341,15.3039l289.9769,130.3092c6.2256,2.1916-26.0731-318.7135-20.0779-321.4744,94.2741-43.4151,189.435-189.517,189.435-189.517,2.0668-3.0888,9.0097-14.3078,9.0097-14.3078,0,0-7.8054.2743-11.4931-.2925Z"/></clipPath><clipPath id="clippath-2"><path class="cls-5" d="m4879.6535,2436.1431l-279.8098-323.7879c3.5287-1.3765,5.8201-3.2755,6.3511-5.6067,22.2402-100.7129,98.0318-165.1842,181.0834-218.2022,41.4426-26.5819,84.4039-50.5601,124.9653-73.399,40.8096-22.6213,79.2184-44.104,117.2991-60.6694,13.2781-5.839,23.4165-24.4667,19.0082-44.097-14.9557-69.9342-70.1419-162.3642-138.9034-253.0931-64.0687-84.4043-139.8113-167.3351-212.2083-234.9693-3.1351-8.5774-6.4509-17.3132-10.0383-26.2866-15.2035-38.5999-35.3388-81.5145-57.8308-126.4908-3.4853-6.9959-9.6154-9.1843-14.0984-5.2777-28.5985,25.1456-71.4106,37.8579-114.1454,50.6367-43.0816,12.4752-86.0859,25.0185-123.0692,42.8294-5.8364,2.7269-9.0244,9.5701-7.2387,15.0826,11.5891,35.438,22.2107,70.0294,37.7653,108.9362,8.0348,20.4009,17.4586,42.0163,27.8694,64.4956-21.141,22.4233-40.7256,45.8901-58.3269,70.6783-56.6121,77.1321-102.8855,159.2089-148.4346,234.8812-44.4209,76.6586-87.7385,147.244-105.1839,230.4865-8.4421,41.8667-9.8265,87.4126-1.9739,138.1783,5.2243,34.7585,14.8183,71.9861,27.4626,110.4093l7.1868,397.7679c.1856,10.2396,5.2961,19.0752,11.3542,19.4683l410.0998,26.6116c6.0582.3929,7.7096-8.0041,3.7344-18.4891l-59.5291-157.0179c-2.1684-5.7202,5.9768-9.4681,8.9103-4.0996l90.5332,165.6828c5.593,10.2359,13.2425,17.295,16.9065,15.5185l248.042-120.2342c3.6647-1.7758.1047-10.8176-7.781-19.9427Z"/></clipPath><clipPath id="clippath-3"><path class="cls-5" d="m4986.0426,2865.3399l-152.4193-416.9386c-28.7416-78.6219,17.43-147.7193,94.0714-147.7765l58.8897-.0439c60.0222-.0448,115.5395,51.7156,128.8447,111.7438l74.9985,338.3647c8.8021,39.7115-13.106,89.9322-51.3151,115.2285l-36.3484,24.0645c-45.6975,30.2541-99.8324,21.558-116.7217-24.6423Z"/></clipPath><clipPath id="clippath-4"><path class="cls-5" d="m5826.1201,2632.0416l-281.9188-311.1621c-55.5705-61.3348-35.188-115.9216,34.5769-115.9134l50.2954.0059c48.5589.0057,108.0675,35.612,137.5595,76.7967l165.1239,230.5902c19.2561,26.8905,22.2111,66.1454,5.5867,91.0755l-16.4147,24.6156c-21.5185,32.2693-64.8305,37.0796-94.8089,3.9917Z"/></clipPath></defs><g id="Layer_4"><path class="cls-9" d="m3726.4917,4271.3639c-144.3104-144.9534-305.3325-265.1964-471.35-363.6796-165.9908-98.1796-336.9764-174.5998-500.6126-224.8893-56.9752-19.4583-54.4735-55.2037,43.8443-90.0105,314.7512-112.579,658.1273-288.2445,974.2263-556.6689,14.1404-12.1149,43.3423-22.102,66.7119-21.5559,106.2712.5759,217.7274,14.7674,332.1405,40.3998,32.7927,8.1197,28.8725,29.9632,24.9722,48.3977-73.5806,408.257-156.3829,782.6343-207.1159,1121.1153-19.7231,104.5387-48.4513,156.16-89.7835,160.2969-41.613,4.5507-95.8284-38.3828-173.0332-113.4053Z"/><path class="cls-25" d="m3786.2931,4210.909c-147.6697-142.5995-310.7894-260.756-477.7463-356.308-166.9315-95.2595-337.7001-167.9139-500.0895-212.7593-43.999-13.9716,16.32-32.4003,95.8096-63.7071,283.3033-111.3887,588.5598-275.9808,873.4489-515.8519,11.5414-9.719,35.5668-17.1726,54.781-16.2358,98.1243,2.9299,200.2865,16.8631,304.8125,40.2126,26.6667,6.5951,23.354,23.9725,20.0944,38.7119-81.4906,355.5111-169.1288,679.0689-226.6802,969.2318-31.428,167.8874-45.4227,202.6493-144.4303,116.7058Z"/><path class="cls-9" d="m4004.9365,3101.0948c-32.3619-5.7637-64.4487-10.5506-96.2054-14.3121-10.3645-1.2619-16.233-13.2332-12.8338-27.7095.5467-2.3453,1.0941-4.6911,1.6432-7.0374,1.5567-6.6369,6.7845-11.9514,11.5751-11.5679,43.1251,3.5153,86.9482,9.0492,131.3309,16.4673,4.9329.819,5.8377,7.3439,2.1027,14.2112-1.3181,2.4233-2.6372,4.8426-3.9577,7.2577-8.1567,14.9631-23.1003,24.582-33.655,22.6906Z"/><path class="cls-25" d="m3292.6926,3917.5715c-36.9454-22.6279-74.1601-44.1229-111.5096-64.4709-16.7668-9.153-23.8774-24.8457-15.589-35.5313t0,0c8.0932-10.4322,27.9416-12.6005,43.9529-4.226,35.6999,18.6658,71.3204,38.4017,106.745,59.1878,17.073,9.98,25.8723,29.0972,19.8379,41.8206h0c-6.1908,13.0399-25.5811,14.156-43.4373,3.2198Z"/><circle class="cls-16" cx="2435.4931" cy="431.8141" r="96.8478"/><circle class="cls-16" cx="4335.8622" cy="163.67" r="101.5718"/><circle class="cls-16" cx="3693.201" cy="902.8837" r="87.5682"/><circle class="cls-16" cx="5813.3543" cy="562.3319" r="99.8561"/><circle class="cls-16" cx="215.9071" cy="215.9071" r="215.9071"/><circle class="cls-16" cx="4490.9919" cy="3531.054" r="96.703"/><circle class="cls-16" cx="732.9141" cy="2112.8488" r="175.4305"/><path class="cls-27" d="m1916.2117,500.0373s-74.5076,146.5356-216.4181,204.1596c-141.9105,57.6239-297.4853,4.5152-297.4853,4.5152,0,0,74.5076-146.5356,216.4181-204.1596,141.9105-57.6239,297.4853-4.5152,297.4853-4.5152Z"/><path class="cls-27" d="m1585.885,477.4165c-.5742.9569-48.7642,39.0165-70.938,112.0347-25.1619,72.5259-13.8684,152.4371-14.9324,151.5145,1.3774-.0459-24.29-22.7649-38.2964-63.2175-14.9609-39.2986-18.2612-96.3311,5.7908-138.3576,23.1624-42.7866,57.3772-57.844,80.6716-62.4747,24.1272-4.6155,37.3337,1.1958,37.7043.5006Z"/><path class="cls-27" d="m1462.5994,431.7702c.3198-.1221,8.5415,11.8032,14.8293,36.8855,7.1426,24.6418,12.3525,62.4412,26.3633,103.8904,13.0459,42.5234,37.6133,73.8729,58.1558,90.5826,20.6445,17.3943,37.2642,20.1491,36.76,21.2878-.8462-.1104-9.7441,10.3964-31.2305,18.8931-21.0276,7.59-54.6443,13.17-94.3254-17.7347-40.3198-29.1832-60.0537-99.7786-50.5732-155.7263,6.3547-57.0638,41.9241-99.4799,40.0208-98.0785Z"/><path class="cls-19" d="m1507.4,716.2763c-.1382-.5553,7.8182-6.5085,13.6801-21.2373,5.2549-14.377,8.4145-37.5301-15.316-64.3379-22.5503-27.207-74.0782-40.8426-114.9308-36.1182-41.6186,2.8336-72.5617,24.0263-71.6517,22.8197-.1169.2862,9.925,4.9801,29.5042,9.6343,19.2679,5.1069,48.0741,10.1748,78.2805,21.6694,30.9865,10.9047,53.0575,28.3161,65.0201,42.508,12.3703,14.2607,14.6315,25.3013,15.4135,25.062Z"/><path class="cls-27" d="m1589.9582,600.8218s75.9243,218.1353-18.9832,338.3504c-94.9075,120.2151-324.7073,96.9871-324.7073,96.9871,0,0-75.9243-218.1353,18.9832-338.3504,94.9075-120.2151,324.7073-96.9871,324.7073-96.9871Z"/><path class="cls-10" d="m1776.4265,1261.1293l-.0006.0002c-167.0959,62.9744-338.292-21.1504-376.1926-170.2512l-55.884-219.8473c-1.3467-5.298,2.609-11.5192,8.785-13.8467l474.6872-178.8981c6.176-2.3276,13.2538-.2647,15.7387,4.6043l103.1174,202.0461c69.9344,137.0281-3.1553,313.2182-170.2512,376.1926Z"/><path class="cls-19" d="m1428.1992,714.776c-.072.443-56.4758,34.9241-82.7949,114.9005-27.6545,78.8799-20.6819,158.8013-23.0696,157.3091,1.6221.2545-27.4507-28.5034-40.0198-75.283-14.0642-45.5497-11.6243-109.121,18.4939-150.0864,29.2471-41.9676,65.6748-51.8638,89.6487-53.0632,24.8162-.9369,37.1785,6.8232,37.7417,6.223Z"/><path class="cls-27" d="m2029.6514,759.4378c0,1.6641-38.2197,15.8525-98.0972,45.7783-59.8782,27.8658-141.4138,71.4694-228.042,84.3879-86.6296,13.0415-161.9514-25.3984-215.614-75.0162-53.6641-48.2893-85.6694-107.7562-85.6699-106.088,0-1.6641,38.2202-15.8522,98.0974-45.7781,59.8777-27.866,141.4128-71.4699,228.0417-84.3881,86.6289-13.0411,161.9497,25.3988,215.6135,75.0165,53.6633,48.2892,85.6711,107.7561,85.6704,106.0876Z"/><path class="cls-27" d="m1524.4944,942.8603c-37.6578,3.758-52.923-29.7293-53.7679-62.6689-1.2044-33.9127,12.0126-67.2774,23.0014-85.7627,46.2323-75.6968,13.2177-122.8398,13.4229-123.0765.6884.0276-51.1299,3.0381-91.1178,17.1161-20.3701,7.371-38.3051,17.933-50.3349,37.0389-12.2681,19.3507-18.6318,47.2457-21.3455,94.9306-.0871,24.747.3438,49.4124,8.1586,74.1585,7.8947,24.3713,23.1719,48.8219,54.6175,64.4886,27.2334,13.8694,60.3472,9.4412,83.6891,1.5749,23.6601-7.8206,37.5491-19.0792,33.6766-17.7995Z"/><path class="cls-19" d="m1510.6966,649.1695c.0808-.6154-9.3723,25.3474-11.7031,52.3558-3.6272,27.9675-.1306,56.9807-4.084,84.6202-8.9475,53.7042-35.2068,129.9922-36.4119,130.5014,1.9905-.7924-35.3137-14.7435-62.3496-56.6828-27.7839-39.4672-45.2996-106.9228-20.9985-157.6339,23.0393-51.0277,63.3157-64.0728,90.6643-64.3701,28.5225-.3308,44.1172,12.0861,44.8828,11.2094Z"/><path class="cls-10" d="m2154.9716,2918.6885h.0004c107.8668,11.7377,160.7781,12.6781,163.3014-78.8819l40.3413-369.2896c1.5566-56.4817-53.8044-116.5882-125.9691-138.5778h-.0003c-75.7637-23.0863-151.8239,1.1238-166.6883,59.4692l-79.5722,312.3343c-25.4444,99.8735,52.6964,202.335,168.5868,214.9458Z"/><path class="cls-10" d="m2322.5532,3527.7199l.0005-.0002c119.3988-61.2398,165.4536-131.2068,149.5337-224.8537-15.2659-89.8-153.814-463.0595-153.814-463.0595-22.3998-82.7027-79.2383-233.7588-169.8788-229.9049h-.0003c-99.0246,4.2104-179.9853,82.9683-170.4939,182.68l258.2789,479.6765c16.4776,173.1054,33.5324,198.2225,86.374,255.4618Z"/><path class="cls-10" d="m2805.9244,1850.2172l.0002.0002c45.5422,44.7531,64.0726,68.367-7.4803,101.0872l-278.4545,145.6175c-44.1396,20.1845-110.2791,15.8684-151.9263-9.1964h-.0002c-43.7243-26.3149-50.1486-69.0762-9.0089-95.9242l220.2292-143.7228c70.4216-45.9575,177.7109-45.9433,226.6407,2.1387Z"/><path class="cls-10" d="m3343.8504,1715.9829c9.407,9.6893,19.05,50.5477,19.05,50.5477,12.7879,56.3531-67.1827,69.5601-146.5856,94.6559-76.1412,24.0649-417.8706,90.1181-417.8706,90.1181-72.9271,18.3896-211.4816,44.7731-238.904,2.4361v-.0002c-29.959-46.2531,5.103-110.0447,87.1406-140.1407l466.403-69.5296c160.031-35.1789,208.1018-51.4322,230.7665-28.0873Z"/><path class="cls-19" d="m1825.9094,415.2716c-3.2837,101.4345-136.2249,155.9376-197.6064,164.4772-126.6253,18.1525-148.9171,88.3287-149.444,88.6106,1.6555-.0638,179.79,176.3615,337.8708,17.8873,41.8781-41.4597,80.4249-82.9041,74.3179-159.4797-5.2874-66.0479-64.8599-123.0021-65.1384-111.4954Z"/><path class="cls-26" d="m2698.5951,2031.4l-108.7303-187.9594c-2.8093-4.8565-9.218-7.3262-14.2876-5.4855l-183.3745,66.5789-61.7319-44.243c-25.4143-18.2146-65.0563-12.2977-89.4054,12.9481l-253.1916,262.5157c-30.0598,31.1671-38.6423,80.3152-17.6379,109.7801l57.7452,81.0031-81.7262,200.0899c-4.9653,12.1563.4283,23.8392,12.1404,25.6536l478.6596,74.1572c12.9772,2.0103,21.6962-8.0884,19.4074-22.0669l-58.4405-356.8967,35.9339-45.3683c1.2901-.3859,2.5721-.9284,3.8105-1.6682l257.7681-154.0067c4.8232-2.8816,6.1792-9.6416,3.0609-15.032Z"/><path class="cls-10" d="m1694.8143,1171.3007h164.8774c6.623,0,12,5.377,12,12v92.1585c0,44.0905-35.7959,79.8863-79.8863,79.8863h-29.1047c-44.0905,0-79.8863-35.7959-79.8863-79.8863v-92.1585c0-6.623,5.377-12,12-12Z" transform="translate(-331.3388 707.9366) rotate(-20.6502)"/><path class="cls-22" d="m2328.6219,2026.4681c-28.2356,54.4928-61.0344,116.4433-101.6846,174.7398-40.2104,57.8486-88.3926,112.5037-138.3274,140.8132-59.3174,33.8853-126.6421,50.6311-168.8511-33.4377-57.7505-113.2369-114.3989-230.1593-177.6111-355.7145-61.7798-125.4269-130.1045-261.8724-177.1648-410.6039-18.9136-59.2778-14.2412-125.3253,11.8953-179.7997,25.5229-54.7455,72.1021-97.1654,122.3745-116.2646,71.1248-27.2496,143.2209-50.2366,212.0574-70.3818,97.5786-27.9348,163.7305,27.6299,187.3816,120.5135,38.4451,111.0264,94.198,213.146,142.499,302.9623,49.5562,90.1491,91.3076,169.8232,131.3252,244.1609,21.8928,59.4573-14.4109,120.9219-43.894,183.0125Z"/><path class="cls-10" d="m1239.1782,1716.2338l347.7946-111.5763c23.2882-10.6,28.0327-55.5406,11.2121-100.1723v-.0002c-16.8207-44.6318-49.8906-74.8496-74.1864-66.9231l-362.1919,73.3745c-38.3373,11.5944-52.8217,69.3713-30.7426,127.956v.0002c22.0792,58.5847,71.3541,93.1206,108.1142,77.3412Z"/><path class="cls-10" d="m782.1819,1395.9897l53.2612,101.5965c8.2489,15.7348,3.3111,34.4849-11.3827,40.8851l-55.0023,23.9576c-14.6937,6.4002-31.429-2.9097-36.9169-19.8471l-35.4339-109.3616c-3.5822-11.0559,2.7169-23.733,13.8629-28.5879l41.7223-18.1731c11.146-4.8549,24.5049-.7403,29.8894,9.5306Z"/><path class="cls-10" d="m446.389,1677.8373l89.133,4.9654c6.5753.3663,11.8185,5.3659,11.6516,11.1102l-1.2109,41.6773c-.1669,5.7443-5.6832,10.1445-12.2585,9.7782l-89.133-4.9654c-6.5753-.3663-11.8185-5.3659-11.6516-11.1102l1.2109-41.6773c.1669-5.7443,5.6832-10.1445,12.2585-9.7782Z"/><path class="cls-10" d="m421.4864,1597.0355l89.1287,5.0624c6.575.3734,11.7993,5.8055,11.6096,12.0712l-1.3763,45.4602c-.1897,6.2657-5.7244,11.0867-12.2994,10.7132l-89.1287-5.0624c-6.575-.3734-11.7993-5.8055-11.6096-12.0712l1.3763-45.4602c.1897-6.2657,5.7244-11.0867,12.2994-10.7132Z"/><path class="cls-10" d="m490.0454,1453.4553l41.4548,10.6063c3.0581.7824,4.4636,6.3979,3.1232,12.4789l-9.7244,44.1197c-1.3403,6.081-4.939,10.4162-7.9971,9.6337l-41.4548-10.6063c-3.0581-.7824-4.4636-6.3979-3.1232-12.4789l9.7244-44.1197c1.3403-6.081,4.939-10.4162,7.9971-9.6337Z"/><path class="cls-10" d="m405.1004,1512.0822l87.3735,18.3143c6.4455,1.351,10.8053,7.4738,9.6885,13.6062l-8.1029,44.4929c-1.1168,6.1324-7.3041,10.0444-13.7496,8.6934l-87.3735-18.3143c-6.4455-1.351-10.8053-7.4738-9.6885-13.6062l8.1029-44.4929c1.1168-6.1324,7.3041-10.0444,13.7496-8.6934Z"/><path class="cls-10" d="m891.8294,1600.4394v.0002c-2.1827,65.5243-62.4481,123.5545-138.5753,129.3076l-157.173,11.878c-10.9906.8306-19.8109-5.9411-19.5073-15.0554l8.0302-241.0554c.3036-9.1142,9.586-16.2118,20.5344-15.7761l156.5696,6.2303c75.8349,3.0177,132.3042,58.9465,130.1215,124.4707Z"/><path class="cls-10" d="m535.1602,1682.8358l87.9403-5.4562c6.4873-.4025,11.792,4.3575,11.7882,10.5778l-.0243,39.8373c-.0038,6.2203-5.3147,11.6389-11.802,12.0414l-87.9403,5.4562c-6.4873.4025-11.792-4.3575-11.7882-10.5778l.0243-39.8373c.0038-6.2203,5.3147-11.6389,11.802-12.0414Z"/><path class="cls-10" d="m504.2169,1601.6763l87.7686,7.7427c6.4746.5712,11.0087,6.0702,10.0756,12.2201l-6.7694,44.6198c-.933,6.1499-6.9938,10.7143-13.4684,10.1431l-87.7686-7.7427c-6.4746-.5712-11.0087-6.0702-10.0756-12.2201l6.7694-44.6198c.933-6.1499,6.9938-10.7143,13.4684-10.1431Z"/><path class="cls-10" d="m848.8495,1711.5567l374.8325,8.0946c25.1558-4.8124,40.0537-55.1454,33.8289-111.9893v-.0002c-6.2249-56.8439-31.6052-102.2341-57.1339-100.8267l-377.9704-13.8276c-40.0742,1.1675-59.7816,46.3451-51.6107,120.9597v.0003c8.1709,74.6146,40.1638,93.9195,78.0536,97.5893Z"/><path class="cls-10" d="m529.7455,1463.7086l78.284,6.6126c5.775.4878,9.7541,5.9207,8.8425,12.0732l-6.614,44.6383c-.9116,6.1524-6.3824,10.7872-12.1574,10.2993l-78.284-6.6126c-5.775-.4878-9.7541-5.9207-8.8425-12.0732l6.614-44.6383c.9116-6.1524,6.3824-10.7872,12.1574-10.2993Z"/><path class="cls-10" d="m490.7636,1530.4828l103.7411,9.1518c6.4746.5712,11.0087,6.0702,10.0756,12.2201l-6.7694,44.6198c-.933,6.1499-6.9938,10.7143-13.4684,10.1431l-103.7411-9.1518c-6.4746-.5712-11.0087-6.0702-10.0756-12.2201l6.7694-44.6198c.933-6.1499,6.9938-10.7143,13.4684-10.1431Z"/><path class="cls-10" d="m676.4392,1367.3143l87.5711,13.7458c13.5626,2.1289,20.1476,13.076,13.9595,24.2211l-23.1637,41.719c-6.1881,11.1451-21.9005,16.6369-34.3004,12.4138l-80.0633-27.2677c-8.094-2.7566-10.6262-11.8441-5.9322-20.2983l17.571-31.6462c4.694-8.4542,15.505-14.2772,24.358-12.8875Z"/><path class="cls-10" d="m2429.5277,1279.0604l-320.65,148.6874c-29.4177,10.6479-60.296-16.7454-68.3399-59.8966v-.0002c-7.844-42.0793,8.9846-83.8818,37.139-93.8063l307.5541-138.1791c26.8433-9.4157,58.8235,13.7691,71.4159,52.3297h0c12.9026,39.5105.8678,80.7885-27.1191,90.8651Z"/><path class="cls-10" d="m2512.6287,966.2011l14.8791,57.4355c2.3721,9.1565,10.3968,16.1609,17.6028,15.0542l26.0929-4.0073c6.7446-1.0358,9.0108-9.2172,5.3205-17.7296l-23.3962-53.9694c-2.3245-5.3621-8.3257-9.2814-13.477-8.9229l-19.7569,1.3752c-5.4085.3765-8.7287,5.1153-7.2653,10.7643Z"/><path class="cls-10" d="m2710.4435,1015.9323l-29.4589,12.7852c-2.2609.9812-3.2436,3.6432-2.1725,5.91l7.7659,16.435c1.0696,2.2636,3.7755,3.2532,6.0021,2.2048l29.0128-13.6602c2.0575-.9687,2.9002-3.526,1.8825-5.6878l-7.389-15.6956c-1.0191-2.1648-3.554-3.1981-5.643-2.2915Z"/><path class="cls-10" d="m2699.596,984.282l-30.5873,9.4787c-2.3466.7272-3.595,3.7051-2.7626,6.6135l6.0343,21.0839c.831,2.9036,3.418,4.6105,5.7373,3.7977l30.2336-10.5952c2.1449-.7517,3.2453-3.6328,2.4554-6.4066l-5.7354-20.1404c-.7911-2.7781-3.2054-4.5039-5.3753-3.8315Z"/><path class="cls-10" d="m2639.1039,922.5657l-25.6646,18.3559c-1.9287,1.3794-2.0987,4.6017-.3752,7.1546l12.4447,18.4337c1.707,2.5285,4.6544,3.4421,6.5471,2.0361l25.1891-18.7117c1.8243-1.3552,1.9632-4.4946.3111-6.9822l-12.043-18.1331c-1.6677-2.511-4.5507-3.4826-6.4093-2.1533Z"/><path class="cls-10" d="m2694.633,940.0927l-40.0844,19.379c-3.0719,1.4851-4.6239,4.9924-3.4349,7.7842l8.5919,20.1753c1.1795,2.7697,4.6281,3.7534,7.65,2.196l39.439-20.3267c2.8014-1.4438,4.1796-4.7944,3.0748-7.4546l-8.0465-19.3745c-1.1133-2.6805-4.3432-3.7548-7.1898-2.3785Z"/><path class="cls-10" d="m2542.485,1085.5591h0c23.2869,29.1156,62.6873,36.4064,87.5776,16.2995l46.2072-37.3271c2.9974-2.4214,3.1736-7.2735.3912-10.784l-73.9115-93.2522c-2.8068-3.5412-7.5741-4.4572-10.5936-2.0341l-46.5493,37.3548c-25.0748,20.122-26.47,60.5506-3.1216,89.743Z"/><path class="cls-10" d="m2680.0839,1029.3302l-28.6495,19.175c-2.201,1.4731-2.4705,4.3958-.5876,6.4871l12.0571,13.3915c1.8823,2.0906,5.1881,2.541,7.3351,1.0088l27.9472-19.9444c1.9799-1.4129,2.1244-4.1942.3308-6.1877l-11.4888-12.769c-1.7942-1.9941-4.9146-2.5197-6.9442-1.1613Z"/><path class="cls-10" d="m2666.9261,994.6359l-28.1693,18.7799c-2.1627,1.4418-2.4466,4.7163-.6213,7.2674l13.197,18.4441c1.8126,2.5333,5.0196,3.361,7.1175,1.849l27.3304-19.6974c1.9378-1.3966,2.113-4.5181.3975-6.9453l-12.488-17.6689c-1.727-2.4434-4.7668-3.3601-6.7637-2.0288Z"/><path class="cls-10" d="m2613.4139,1115.4581l-173.3701,157.5808c-16.8404,10.2289-48.5858-9.4351-70.4381-43.4588h0c-21.6993-33.7856-25.8336-69.6075-9.2927-79.8387l185.1505-137.1204c16.6965-10.5681,40.1671,3.0637,63.0168,36.6797h0c23.0131,33.8566,18.0031,52.1382,4.9336,66.1573Z"/><path class="cls-10" d="m2612.2237,941.7458l-25.1952,21.0878c-1.9266,1.6126-1.6221,4.7417.6839,6.9445l16.6732,15.9275c2.2902,2.1877,5.6877,2.6079,7.5433.9431l24.2701-21.7755c1.7276-1.55,1.35-4.5363-.8331-6.6446l-15.8915-15.3464c-2.1975-2.1222-5.4575-2.6372-7.2507-1.1363Z"/><path class="cls-10" d="m2653.5571,960.0792l-33.0703,22.0429c-2.1624,1.4414-2.3596,4.6706-.4286,7.1667l13.961,18.0472c1.9175,2.4787,5.2075,3.2635,7.3018,1.7536l32.0362-23.097c1.909-1.3763,1.9903-4.4272.1886-6.788l-13.1156-17.1855c-1.8137-2.3765-4.9029-3.2531-6.8732-1.9399Z"/><path class="cls-10" d="m2539.0289,931.4869l-24.9181,24.2194c-4.0421,3.9288-2.7818,10.1428,3.0208,13.5464l21.4206,12.5645c5.6437,3.3104,12.5515,2.0014,15.2181-2.611l16.5179-28.57c1.6054-2.7767-.4001-6.9585-4.4014-9.4238l-15.1278-9.3203c-4.0819-2.5148-9.3192-2.7484-11.73-.4052Z"/><path class="cls-22" d="m1692.3247,1576.2144l-210.0102,112.3555c-7.585,4.058-16.3726.8194-19.4162-7.2567l-88.8523-235.7603c-3.0437-8.076,1.4205-16.3089,9.7971-18.2665l231.9276-54.2001c4.9914-1.1665,10.9164,2.8958,13.2224,9.0143l67.3156,178.6148c2.3059,6.1185.5358,13.0809-3.9839,15.499Z"/><path class="cls-22" d="m2204.3539,1409.2298l-180.6027,72.2358c-.6545.2618-1.2591.6259-1.8352,1.0319-6.5877,4.6424-14.8534,3.642-18.6413-2.54l-103.251-169.6022c-3.8696-6.3156-.6207-13.8789,7.0643-17.0685.4719-.1959.968-.337,1.4664-.45l232.2239-52.6251c.6307-.2329,1.3008-.3598,1.9918-.3896,4.3586-.1882,8.9341,3.7205,10.6001,8.6747l55.4819,146.1624c.1689.445.3842.8701.6061,1.2913.0233.0441.0462.0884.0689.1327,2.5428,4.9755.015,11.0714-5.1731,13.1465Z"/><path class="cls-22" d="m2155.0355,3249.8925c54.5087-104.8874,203.1353,78.6426,315.3246,46.4529,137.3427,189.6985,40.1078,364.0949-26.3378,402.7917l-50.695,29.5239c-51.3509,29.9059-129.8329,26.2791-179.3638-4.4587l-410.6096-18.8597c-44.7698-27.7832-66.9321-70.4276-65.7327-122.8346.6206-27.1179,25.1278-82.6682,25.1278-82.6682,80.4706-196.3889,308.5538-88.8257,392.2866-249.9472Z"/><path class="cls-22" d="m3296.7039,1660.0057c-71.0247,25.2207,45.3588,100.6518,16.0211,169.8162,143.6923,33.4295,162.4378,56.9543,214.5639,42.5649,12.4973-3.4499,31.4225-22.1805,39.2198-31.9901,18.274-22.9904,36.1519-53.9231,32.4734-111.0251,0,0,22.096-184.2334-1.2114-238.5646-7.7377-18.0373-42.5257-43.956-72.5927-42.7393-16.2986.6596-44.0229-1.3004-50.847,8.2259-78.4515,109.5165-70.2858,165.5955-177.6271,203.7122Z"/><path class="cls-13" d="m2099.9791,3505.0824l377.2711,149.9967c18.1681,7.2233-9.7554,34.0425-52.67,56.9934l-32.4699,17.365c-32.6529,17.4628-73.6294,31.0038-97.1803,32.1986l-308.0528,15.6283c-88.3299,4.4812-191.7075-21.0525-213.5258-72.2697l-28.44-66.7613c-54.5973-128.1643,156.8189-211.9713,355.0677-133.1509Z"/><g class="cls-6"><polygon class="cls-18" points="2605.3895 3599.1574 2611.3715 3588.4836 2210.6433 3812.3822 2224.7117 3810.9108 2605.3895 3599.1574"/><polygon class="cls-18" points="2610.522 3579.0115 2617.7055 3565.4595 2167.2179 3820.1119 2185.2378 3818.0562 2610.522 3579.0115"/><polygon class="cls-18" points="2591.756 3567.67 2598.5913 3551.1738 2094.2876 3840.53 2118.8331 3837.0033 2591.756 3567.67"/><polygon class="cls-18" points="2596.2058 3534.7766 2604.807 3511.9737 2019.0754 3855.1004 2052.4406 3850.047 2596.2058 3534.7766"/><polygon class="cls-18" points="2591.134 3497.0948 2601.0967 3464.9012 1915.0261 3878.2327 1962.0092 3870.5276 2591.134 3497.0948"/><polygon class="cls-18" points="2597.8024 3426.8241 2611.9564 3373.8104 1765.4988 3907.8819 1836.6369 3895.7209 2597.8024 3426.8241"/><polygon class="cls-18" points="2674.0742 3263.3331 2712.3093 3147.4364 1565.048 3932.267 1680.2062 3913.7941 2674.0742 3263.3331"/></g><path class="cls-13" d="m3597.7358,1490.7144c-4.6394-10.8148-19.0064-24.4571-36.246-33.3908,2.6959,3.4149,4.8027,6.7594,6.1582,9.8743,25.323,58.1921,4.9955,253.9386,4.9955,253.9386-7.0516,64.5867-13.536,93.479-32.3671,117.6642-8.0343,10.3191-27.6148,29.9597-40.6845,33.4366-5.7537,1.5308-11.1203,2.6124-16.301,3.2877,14.6192,2.061,27.6586,1.2701,43.9636-3.2308,12.4974-3.4501,31.4222-22.1804,39.2196-31.9901,18.2743-22.9905,36.1518-53.9231,32.4731-111.025,0,0,22.096-184.2335-1.2114-238.5647Z"/><g class="cls-4"><g class="cls-7"><path class="cls-14" d="m2698.1118,2031.5359l-108.7309-187.9593c-2.8092-4.8565-9.2179-7.3261-14.2871-5.4856l-183.375,66.5791-1.7835-1.2792c-4.3578-8.1016-9.5854-16.2404-15.7928-24.4368-64.0704-70.781-106.1654-155.7619-151.097-240.757-32.3259-63.1303-66.8048-127.2964-103.5929-195.0668l84.4176-33.7647c5.1884-2.0752,7.7158-8.1708,5.1736-13.1467-.0229-.0441-.0458-.0884-.0697-.1324-.2213-.4212-.4369-.8463-.6056-1.2913l-55.4817-146.1627c-1.6657-4.9543-6.2414-8.8627-10.6006-8.6744-.6911.0298-1.3603.1565-1.9916.3895l-146.4225,33.1814c-.4435-.2769-.885-.5595-1.3295-.8332-37.0453-22.3224-77.4268-33.6531-118.3748-25.1624-58.228,12.0773-118.3838,25.2809-179.9256,39.6779-42.6395,10.0476-86.9666,41.7856-116.9344,87.4001-1.9045,2.8718-3.7491,5.8-5.5347,8.7797l-188.4133,44.031c-8.377,1.958-12.8411,10.1906-9.7974,18.2667l88.8523,235.7603c3.0437,8.0761,11.8309,11.3146,19.4164,7.2565l92.6576-49.5719c37.6781,104.7183,94.3369,202.3768,154.5391,293.0551,80.1054,120.4006,165.6506,229.5763,238.1483,347.7151,17.2665,28.8679,35.3903,48.9228,54.1071,61.9838l-75.5122,184.8763c-4.9655,12.1565.4288,23.839,12.1405,25.6536l478.6598,74.1572c12.9773,2.0102,21.6958-8.0883,19.4072-22.0667l-58.4408-356.8966,35.934-45.3684c1.2905-.386,2.5722-.9284,3.8108-1.6684l257.7677-154.0065c4.8239-2.8818,6.1794-9.6416,3.0614-15.0322Z"/></g></g><path class="cls-15" d="m4963.0428,966.3525v.0002c20.5643,42.7613,74.4226,62.6453,122.6314,42.9852l99.5322-40.5905c6.96-2.8384,10.3625-10.0469,7.5021-15.9949l-75.6533-157.3134c-2.8604-5.9479-10.6158-7.7906-17.1783-4.1258l-93.849,52.408c-45.456,25.384-63.5493,79.87-42.9851,122.6313Z"/><path class="cls-15" d="m4985.972,778.4338l-2.7301,83.7688c-.4228,12.9737,8.0975,23.8801,18.955,23.5919l40.6423-1.079c10.8575-.2883,18.3519-11.6199,16.7345-24.5394l-10.4429-83.419c-1.0557-8.4333-8.6255-14.8943-16.8615-14.6756l-30.8295.8185c-8.236.2187-15.1919,7.0653-15.4679,15.5339Z"/><path class="cls-10" d="m5032.6172,820.6342l14.9555-45.5623c2.3162-7.0565-2.9935-13.0897-11.9145-13.0565l-33.3934.1242c-8.921.0332-16.7696,6.1153-17.4095,13.1656l-4.132,45.522c-.4177,4.6021,4.7901,8.2049,11.5571,8.1797l25.3308-.0942c6.7671-.0252,13.4942-3.6724,15.0061-8.2785Z"/><rect class="cls-10" x="4000.7418" y="2529.8343" width="779.0133" height="325.8557" rx="162.9277" ry="162.9277" transform="translate(6448.0015 -2028.562) rotate(82.0267)"/><path class="cls-15" d="m4972.2666,1539.1749l-175.5562-239.7336c-3.8452-5.2509-3.1097-12.5567,1.705-16.9358l275.3759-250.4568c5.0862-4.626,5.5794-12.4551,1.1139-17.6827l-87.9002-102.9018c-4.4655-5.2277-12.2755-5.9641-17.6395-1.6633l-353.7541,283.6353c-16.6255,13.3299-29.0832,29.7742-36.9329,47.2925-16.836,32.1117-15.1512,72.3543,7.7155,103.5801l227.584,310.7808c32.0087,43.7103,93.391,53.1961,137.1012,21.1871v-.0002c43.7108-32.0087,53.1967-93.3913,21.1875-137.1016Z"/><path class="cls-10" d="m4661.6918,1160.4448l-116.0828-273.5268c-2.5426-5.9911-.1559-12.9351,5.5327-16.0971l325.3528-180.8481c6.0093-3.3403,8.2797-10.8492,5.128-16.9595l-62.0398-120.276c-3.1518-6.1103-10.5864-8.6132-16.7918-5.653l-409.2413,195.2242c-19.2332,9.1748-35.1212,22.3346-46.7689,37.5937-23.733,27.4108-31.2955,66.9723-16.1754,102.5999l150.4851,354.589c21.165,49.8717,78.7516,73.1429,128.6234,51.9776l.0002-.0002c49.8721-21.165,73.1434-78.7518,51.9779-128.6237Z"/><path class="cls-15" d="m4770.2468,2327.8272l207.4787,283.7404c4.5444,6.2148,13.0452,8.0001,19.7058,4.1385l380.9486-220.8611c7.0362-4.0793,16.0402-1.8335,20.3364,5.0724l84.5672,135.9365c4.2962,6.9059,2.3315,15.9754-4.4374,20.4844l-446.4083,297.3609c-20.9798,13.9752-43.9795,22.1366-66.5412,24.7179-42.2321,7.4909-87.0038-8.8106-114.0284-45.7686l-268.9668-367.8296c-37.8294-51.7337-26.5574-124.3389,25.1766-162.1681h.0003c51.7339-37.8298,124.3393-26.5579,162.1686,25.1764Z"/><path class="cls-10" d="m4819.7781,1358.441h132.1021c6.623,0,12,5.377,12,12v66.0511c0,43.0775-34.9735,78.0509-78.0509,78.0509h-.0002c-43.0775,0-78.051-34.9735-78.051-78.051v-66.0511c0-6.623,5.377-12,12-12Z" transform="translate(2154.4374 -2861.686) rotate(41.181)"/><path class="cls-17" d="m4879.6537,2436.1431l-310.2764-359.043c-3.276-3.7912-7.8243-5.942-10.1408-4.8188l-168.0235-59.9577c-1.9313-1.8007-4.2582-3.0178-6.3884-3.1561l-227.8951,109.3643c-3.8302-.2485-6.9019,2.9927-6.8253,7.2462l7.2792,402.8674c.1852,10.2393,5.63,21.491,11.3539,19.468,106.8171-37.7533,307.5747,19.96,410.0998,26.6116,6.0582.393,7.7096-8.0041,3.7344-18.4891l-59.5288-157.0175c-2.1688-5.7205,5.9766-9.4683,8.9101-4.0997l90.533,165.6826c5.5934,10.2362,13.2425,17.295,16.9068,15.5188l248.042-120.2342c3.6643-1.7762.1047-10.8176-7.781-19.9427Z"/><path class="cls-10" d="m4808.2242,943.2488h543.0559c6.623,0,12,5.377,12,12v247.6297c0,156.4832-127.0445,283.5277-283.5277,283.5277h-.0006c-156.4832,0-283.5277-127.0445-283.5277-283.5277v-247.6297c0-6.623,5.377-12,12-12Z" transform="translate(3856.3612 -3862.8691) rotate(63.0039)"/><rect class="cls-15" x="5082.082" y="783.2267" width="76.8795" height="44.9002" rx="12" ry="12" transform="translate(232.0381 2529.5058) rotate(-28.366)"/><rect class="cls-15" x="5117.3363" y="816.8636" width="76.8795" height="48.7054" rx="12" ry="12" transform="translate(219.3862 2550.5223) rotate(-28.366)"/><rect class="cls-15" x="4967.2257" y="671.6981" width="76.8795" height="48.7054" rx="12" ry="12" transform="translate(605.5619 3182.064) rotate(-37.3824)"/><rect class="cls-10" x="5101.4601" y="770.8726" width="56.4104" height="48.7054" rx="12" ry="12" transform="translate(42.9853 1830.3757) rotate(-20.3149)"/><rect class="cls-10" x="5122.6262" y="814.6874" width="70.4029" height="45.8349" rx="12" ry="12" transform="translate(181.7953 2432.5564) rotate(-26.9961)"/><rect class="cls-15" x="4979.5487" y="621.1523" width="76.8795" height="48.7054" rx="12" ry="12" transform="translate(638.7809 3179.1637) rotate(-37.3824)"/><rect class="cls-15" x="4962.854" y="571.1075" width="76.8795" height="48.7054" rx="12" ry="12" transform="translate(665.7356 3158.7487) rotate(-37.3824)"/><rect class="cls-15" x="4948.7584" y="521.2809" width="76.8795" height="48.7054" rx="12" ry="12" transform="translate(693.0917 3139.9565) rotate(-37.3824)"/><path class="cls-23" d="m5048.5508,1710.3809c-14.9557-69.9342-70.1419-162.3642-138.9034-253.0931-64.0687-84.4043-139.8113-167.3351-212.2083-234.9693-3.1351-8.5774-6.4509-17.3132-10.0383-26.2866-15.2035-38.5999-35.3388-81.5145-57.8308-126.4908-3.4853-6.9959-9.6154-9.1843-14.0984-5.2777-28.5985,25.1456-71.4106,37.8579-114.1454,50.6367-43.0816,12.4752-86.0859,25.0185-123.0692,42.8294-5.8364,2.7269-9.0244,9.5701-7.2387,15.0826,11.5891,35.438,22.2107,70.0294,37.7653,108.9362,8.0348,20.4009,17.4586,42.0163,27.8694,64.4956-21.141,22.4233-40.7256,45.8901-58.3269,70.6783-56.6121,77.1321-106.403,128.6333-164.7602,209.0797-52.0242,71.7163-119.2121,162.2937-136.6575,245.5362-8.4421,41.8667-9.8265,87.4126-1.9739,138.1783,7.5966,50.5416,24.4313,106.3028,46.4503,163.3705,6.1563,15.5795,16.501,17.9012,24.1406,6.8365,66.5363-96.485,267.4942-88.4945,425.5717-65.8747,18.0362,2.4548,33.5948-.7014,35.0977-7.3003,22.2401-100.7128,98.0318-165.1841,181.0834-218.2023,41.4426-26.5819,84.4039-50.56,124.9652-73.3989,40.8096-22.6213,79.2184-44.104,117.2991-60.6694,13.2781-5.839,23.4165-24.4667,19.0082-44.097Z"/><path class="cls-10" d="m4769.9038,625.4904v-.0002c-5.1385-47.1701,30.0781-92.512,81.3951-101.2966l105.9495-18.1368c7.4087-1.2682,14.1067,3.0535,14.8214,9.6147l18.9036,173.5327c.7147,6.5612-4.8956,12.2237-12.4036,12.5804l-107.3695,5.1009c-52.0047,2.4706-96.158-34.2251-101.2965-81.3952Z"/><rect class="cls-10" x="4951.3723" y="505.9379" width="76.8795" height="44.9002" rx="12" ry="12" transform="translate(1.6948 -15.7669) rotate(.1811)"/><rect class="cls-10" x="4965.3569" y="552.1013" width="76.8795" height="48.7054" rx="12" ry="12" transform="translate(1.8468 -15.8108) rotate(.1811)"/><rect class="cls-10" x="4969.342" y="652.9637" width="76.8795" height="48.7054" rx="12" ry="12" transform="translate(2.1656 -15.8229) rotate(.1811)"/><path class="cls-10" d="m4888.674,772.911l-46.5846-69.6745c-7.2148-10.7909-5.7448-24.5526,3.6253-30.0454l35.0743-20.561c9.37-5.4928,21.7206.167,27.1748,11.99l35.2164,76.3387c3.5602,7.7175.5479,17.2029-6.5597,21.3695l-26.6058,15.5967c-7.1077,4.1666-16.6311,2.0298-21.3405-5.014Z"/><path class="cls-10" d="m4963.6627,787.0302l-61.0906-4.513c-9.4615-.6989-15.0578-8.1547-11.9662-16.5336l11.5725-31.3643c3.0916-8.3789,13.2479-13.2819,22.1284-11.0085l57.3398,14.6787c5.7968,1.4839,8.4421,7.8526,6.097,14.2085l-8.7784,23.7916c-2.3451,6.3559-9.1265,11.1969-15.3025,10.7407Z"/><g class="cls-8"><g class="cls-2"><path class="cls-21" d="m4968.6087,1250.483c-2.5254,0-15.6699,37.8172-48.7349,97.7034-32.1909,59.8862-84.3013,141.8415-144.7339,230.1175-118.2749,176.552-274.813,378.387-256.9487,479.5193,8.936,50.5662,35.6353,115.4131,77.3369,184.2398,41.3823,68.827,97.7671,141.6337,158.7544,208.1197,60.6709,66.486,125.9434,126.6512,177.793,170.1948,51.5347,43.5436,89.646,70.466,88.6719,70.4659-13.3853-304.7035,180.4312-609.4071,318.4521-914.1106-88.313-175.4166-195.1157-350.8333-370.5908-526.2499Z"/></g></g><rect class="cls-10" x="4970.6967" y="602.3676" width="87.9111" height="48.7054" rx="12" ry="12" transform="translate(2.0057 -15.8449) rotate(.1811)"/><rect class="cls-10" x="4503.0467" y="2395.4578" width="229.5387" height="738.2059" rx="114.7692" ry="114.7692" transform="translate(2962.5933 -2356.6948) rotate(41.181)"/><path class="cls-20" d="m4850.7338,2708.7764c-105.9251-33.1142-73.8725-151.0661-140.4275-231.1764,63.6371-95.0069,140.7471-176.9181,217.3885-176.9753l58.8897-.0439c60.0222-.0448,115.5395,51.7156,128.8447,111.7438l74.9985,338.3647c8.8021,39.7115-13.106,89.9322-51.3151,115.2285l-36.3484,24.0645c-152.9411,87.8938-162.7078-153.2818-252.0306-181.2058Z"/><path class="cls-13" d="m4986.0426,2865.3399l-152.4193-416.9386c-28.7416-78.6219,17.43-147.7193,94.0714-147.7765l58.8897-.0439c60.0222-.0448,115.5395,51.7156,128.8447,111.7438l74.9985,338.3647c8.8021,39.7115-13.106,89.9322-51.3151,115.2285l-36.3484,24.0645c-45.6975,30.2541-99.8324,21.558-116.7217-24.6423Z"/><g class="cls-3"><rect class="cls-18" x="4939.3766" y="2072.6341" width="34.0204" height="630.0852" transform="translate(7034.0192 -2706.4585) rotate(86.4661)"/><rect class="cls-18" x="4955.335" y="2146.4937" width="34.0204" height="630.0852" transform="translate(7122.7131 -2653.0795) rotate(86.4661)"/><rect class="cls-18" x="4998.996" y="2217.0614" width="34.0204" height="630.0852" transform="translate(7234.1164 -2630.4395) rotate(86.4661)"/><rect class="cls-18" x="5014.9544" y="2290.921" width="34.0204" height="630.0852" transform="translate(7322.8103 -2577.0606) rotate(86.4661)"/><rect class="cls-18" x="5038.6725" y="2360.0734" width="34.0204" height="630.0852" transform="translate(7414.0874 -2535.8436) rotate(86.4661)"/><rect class="cls-18" x="5054.6309" y="2433.933" width="34.0204" height="630.0852" transform="translate(7502.7813 -2482.4646) rotate(86.4661)"/><rect class="cls-18" x="5042.1089" y="2507.9935" width="34.0204" height="630.0852" transform="translate(7564.9507 -2400.471) rotate(86.4661)"/></g><path class="cls-11" d="m5556.1286,2553.7224c-153.5077,45.7427-114.4484-103.4992-177.7488-158.8775,64.9799-106.1508,67.5003-149.104,173.1503-186.5541l67.8891-.0926c60.6523-9.7309,124.605,32.2057,147.151,89.0845l166.1239,234.6093c14.9153,37.628.3876,90.5461-34.3923,121.5866l-33.0862,29.5289c-129.7002,64.491-157.1348-160.3454-309.0872-129.2851Z"/><path class="cls-13" d="m5826.1201,2632.0416l-281.9188-311.1621c-55.5705-61.3348-35.188-115.9216,34.5769-115.9134l50.2954.0059c48.5589.0057,108.0675,35.612,137.5595,76.7967l165.1239,230.5902c19.2561,26.8905,22.2111,66.1454,5.5867,91.0755l-16.4147,24.6156c-21.5185,32.2693-64.8305,37.0796-94.8089,3.9917Z"/><g class="cls-1"><polygon class="cls-18" points="5320.6413 2281.9868 5335.6218 2311.5239 5865.4071 2259.4291 5853.4051 2237.5876 5320.6413 2281.9868"/><polygon class="cls-18" points="5366.357 2345.5353 5381.4197 2375.1749 5898.8689 2306.7245 5886.8233 2284.8263 5366.357 2345.5353"/><polygon class="cls-18" points="5441.0426 2403.0507 5456.021 2432.3272 5948.1017 2350.1689 5936.1235 2328.4688 5441.0426 2403.0507"/><polygon class="cls-18" points="5485.7858 2465.3086 5500.8428 2494.6833 5981.0369 2396.7459 5969.0165 2374.9908 5485.7858 2465.3086"/><polygon class="cls-18" points="5536.565 2521.969 5551.6441 2551.2941 6016.8536 2439.4536 6004.8278 2417.7248 5536.565 2521.969"/><polygon class="cls-18" points="5580.8604 2583.6222 5596.0165 2613.0434 6049.5436 2485.6916 6037.4763 2463.9088 5580.8604 2583.6222"/><polygon class="cls-18" points="5597.0561 2652.026 5612.4612 2682.0126 6066.5327 2535.6971 6054.3113 2513.6042 5597.0561 2652.026"/></g><path class="cls-24" d="m5257.083,663.8873c109.7635,224.0803,265.9904,392.8273,438.7788,499.7145,169.8937,107.7396,356.3489,153.617,459.7065,151.6135,215.9165,2.5495,481.2973,86.2405,575.164,151.093,162.233,112.0868,263.8312,325.7629,264.5713,327.5785-1.2546-.2253-156.8112-123.6886-254.8251-148.0252-155.9061-38.711-173.0693,57.1374-415.6043,94.0653-153.0951,23.31-219.5281-85.3833-403.5073-130.5993-184.5944-43.8959-441.023,46.267-574.5814-101.2315-72.9539-80.2079-119.1164-192.6129-149.5421-322.721-28.9885-129.0581-42.2406-275.8214-16.1756-400.4819,9.2017-44.487,49.0215-174.4804,76.0153-121.0059Z"/><path class="cls-24" d="m5618.4351,853.5585c-15.9596,66.4743-92.8417,75.2523-126.0041,68.2993-68.4867-13.9886-89.953,27.8892-90.267,27.9676.871.2978,68.845,153.6737,173.424,81.2308,27.6312-18.8453,53.5255-38.3646,61.103-90.3112,6.5253-44.8089-16.4944-94.7467-18.2559-87.1866Z"/><path class="cls-24" d="m5652.1324,1134.972c283.5206,164.4842,442.0215,39.8722,548.9451,19.3142,149.2286-28.6918,384.2896-26.9804,385.6224-27.0696-3.5017.6261-236.4301,232.056-688.8678,140.7807-108.5555-21.9001-236.7104-3.1445-287.8912-37.7564-44.1029-29.8612,32.009-99.9981,42.1915-95.269Z"/><path class="cls-24" d="m5167.0491,1241.4343c32.081,66.3168-41.3018,171.4195-80.8141,209.3629-81.3293,78.6155-72.9648,135.0982-73.2334,135.5568,1.1221-.9174,183.9267,17.0657,239.4683-167.5434,14.8908-48.5731,27.4854-95.3723-2.6648-140.8896-26.0189-39.2489-86.4602-43.9599-82.756-36.4867Z"/><path class="cls-24" d="m5249.9902,1661.9744c-44.5591-64.5873,10.1508-147.1498,43.0375-174.8807,67.597-57.5417,48.7731-109.5297,48.9597-109.8981-.9634.6439-188.6977-44.6191-210.7896,112.0898-6.0922,41.188-10.194,81.1512,28.5929,126.7773,33.4664,39.3461,95.3105,53.2042,90.1994,45.9117Z"/><path class="cls-24" d="m6536.2887,1765.2561c-170.2439,77.2469-449.7164-118.0575-551.6219-221.866-211.098-213.7095-357.5708-196.4088-358.7861-197.1289,2.4767,2.9364-30.1492,469.1858,455.0299,624.6195,127.6786,41.6053,250.5581,77.2093,366.7746,3.3934,100.2103-63.7036,107.7812-217.9505,88.6034-209.018Z"/><path class="cls-24" d="m5333.4241,1660.0036c-26.1601-43.0985,16.8026-132.2922,41.161-166.6816,50.1038-71.1617,40.7074-111.0571,40.8597-111.4376-.7023.8595-126.1158,18.4484-151.7287,162.7796-6.9274,38.022-12.4109,74.3609,11.0702,102.5747,20.2616,24.325,61.6462,17.6065,58.6378,12.7648Z"/><path class="cls-24" d="m5476.2004,698.6001c-59.5254,51.125-27.6217,144.8901-2.8726,180.0757,50.7326,72.8465,19.3011,118.3344,19.3879,118.7382-.7679-.8678-193.8403-4.8584-175.3348-162.0312,4.5875-41.3826,10.7882-81.0743,59.9072-115.3307,42.3757-29.5367,105.7105-27.2041,98.9122-21.452Z"/><path class="cls-24" d="m5103.756,808.892c-3.4388,50.2992,75.695,109.7899,113.1286,129.1468,77.1937,40.1934,87.1738,79.9468,87.4839,80.2148-1.0186-.4408-120.4966,41.5462-209.5478-74.8902-23.6192-30.5908-45.1826-60.3498-37.286-96.1971,6.8233-30.914,46.6694-43.957,46.2213-38.2743Z"/><path class="cls-24" d="m5918.7482,1328.1851c45.447,261.7233,172.3587,562.2976,298.8257,639.5584,162.3495,97.6812,232.1327,193.4617,257.0264,268.5483,25.5807,74.4556,6.2724,128.2182,6.3026,127.2942-.2115-1.2658-43.8798-.4816-112.8994-14.7377-68.7876-13.7771-162.9261-42.5957-258.6539-91.9661-95.9225-49.1667-193.4429-118.8893-273.5475-209.8538-80.7339-91.0435-144.0519-203.3288-186.0642-339.4275-22.2011-72.6154-23.8553-157.7718-3.4165-229.8316,20.903-72.0458,63.8985-130.9948,141.7266-150.8752,28.6471-7.1598,122.615-44.1962,130.7001,1.2909Z"/><path class="cls-24" d="m5453.4854,1848.6672c-1.1961,1.0063-3.8946-186.9381-35.094-340.8029-31.9369-153.719-92.3756-273.3594-226.088-132.3078-139.2282,143.7531-228.3223,180.7193-293.6547,179.8246-65.2849-1.8741-106.8072-41.608-149.8108-73.8107-55.9175-39.4512-90.1575-85.1006-110.3134-125.799-20.1715-39.9101-26.2581-74.8734-26.2294-74.756-.0267,1.486,26.2184,73.1291,96.6094,83.5483,71.1207,9.5517,185.6978-20.2438,378.8199-230.3867,191.707-209.9979,282.86-132.1545,325.2835,7.2861,41.6656,140.8595,44.1966,345.8115,46.1313,424.081.8771,73.8412-6.0143,283.6322-5.6539,283.1228Z"/><path class="cls-24" d="m4537.7503,1107.5772c-.353.3219,63.6733,29.701,127.8672,33.5287,68.252,4.9651,131.873-18.2874,233.3984-107.3699,108.9072-85.4268,199.8213-98.7414,263.083-95.1827,64.9521,5.8078,110.001,28.596,164.7158,71.5802,52.3472,42.3481,69.7163,86.2689,76.5356,117.4721,6.4307,31.4567,2.6318,51.4376,2.6035,51.4763-.3813.4778-10.2505-24.164-60.2632-54.2028-25.2686-14.6705-61.6934-30.6646-113.0581-38.4846-50.8779-7.4504-117.8271-6.3315-192.1118,22.6401-146.1958,62.8142-204.6655,115.6606-259.1841,122.7191-51.0532,10.6351-95.8413-15.9941-127.5596-36.405-27.5088-19.845-115.0586-88.2504-116.0269-87.7714Z"/><path class="cls-24" d="m5209.609,905.2593c-12.0055-48.168-6.228-129.9383,5.8787-185.792,11.9538-56.4345,30.2366-86.9512,39.7077-45.9892,20.8569,95.2875,58.3939,105.0077,111.4891,134.7649,52.0115,29.7725,119.582,79.5814,175.5184,255.4081,98.2709,325.383,140.138,534.6235,183.5073,694.3369,42.1508,160.2109,85.8031,270.894,159.4775,410.6759,47.5267,89.4599,124.8098,166.1572,217.8368,224.7575,92.7069,58.8451,201.1575,99.5926,303.6115,122.7751,102.4587,23.5393,198.927,29.5154,267.8414,27.0358,69.2493-2.0103,110.9455-12.4755,111.5704-10.9837-.9519-1.1908-61.7365,42.6359-170.4227,77.8072-107.6223,35.7514-263.1466,62.8473-428.8808,41.6451-164.2567-17.1388-338.7523-82.5893-470.5811-180.8556-133.9556-99.179-225.2452-231.1751-272.0902-402.4431-30.1912-105.4617-57.8174-281.8051-78.4396-468.8942-18.2245-185.4514-29.4432-381.6468,28.5449-488.9963,49.3534-84.5874,21.529-91.7132-49.8889-97.0676-32.9114-2.6875-112.6629-17.1134-134.6804-108.185Z"/><path class="cls-12" d="m5415.5802,1106.3372c63.9161,14.573,158.2275,35.9277,171.1974,38.9119l-155.3973-83.9386c27.5681-17.2352,66.567-41.6204,68.8911-43.0595-4.6237.0012-42.9778.2357-74.7941.4232-1.822-.573-3.6047-1.1336-5.3299-1.6764,23.9071-28.4159,49.4991-58.8354,54.4288-64.6935l-84.1567,38.1085-2.8542-149.524-48.3622,148.9551c-.2769.488-.351.6192-.6205,1.0944l-7.3315-7.9322s-8.7871,7.1898-14.408,11.7888c-13.1125-9.3701-26.4048-18.8683-32.9791-23.563l4.301,44.8384c-53.79-20.7782-110.9934-42.8462-119.1238-46.0095,8.3089,5.8878,33.7766,24.0184,63.9197,45.4645-5.6685-.9875-9.0263-1.5724-9.0263-1.5724,2.4359,1.4681,14.4194,8.7487,30.3733,18.4425l-51.8707-4.54,69.5407,31.6579c.1883.1955.377.3911.5648.5862-23.7242,10.8952-43.5328,19.9958-49.0083,22.5243,7.2122-.2082,29.7662-.8322,56.4016-1.5722.3424,1.9601.6553,3.7529.6553,3.7529.8189.3108,1.7167.6517,2.6592,1.0093-37.0938,43.4303-78.0175,91.3445-81.3569,95.2879,0,0,74.2539-46.9496,122.4014-77.3924.8353-.3939,1.6833-.7975,2.5435-1.2106-.1165,4.1178-.2131,7.8026-.2826,10.8529l.0452.0037c-.0347.2342-.07.4737-.104.7028,0,0,2.2986.192,4.0405.3376,3.5481,30.2947,8.7286,72.4227,10.8312,89.8997,1.1771-6.6724,7.7652-44.3407,12.5777-71.8342,5.1916,5.5285,9.9662,10.6126,9.9662,10.6126.2472-5.0238.8971-17.9835,1.4658-29.3493,16.256,21.9837,31.2455,42.2549,31.2455,42.2549-1.1819-6.367-3.5436-19.0719-6.4283-34.5891l8.2624,6.9599-4.8681-11.6261c3.0778,1.4648,5.942,2.8335,8.4932,4.0625,0,0,.0108-.5153.0112-.5282,27.2962,15.4574,51.0408,28.8997,58.6552,33.218l-45.1694-47.1391Zm-47.9099-56.0282c3.3365,2.3193,7.3594,5.114,7.8409,5.4542-.4117.008-7.348.1732-12.2514.2896l6.2942,21.8932c-.9993-1.3266-8.3064-10.9294-13.2469-17.4499l-.8507,9.1954c-.2845-1.0982-1.1733-4.5203-2.1951-8.4549-.0014.0017-.0632.0651-.0632.0651-.121-.341-.258-.7222-.4057-1.1313l-.8637,1.8061-.0401-1.4749c-1.5284,2.1446-2.7797,3.9006-3.407,4.7802,0,0,.8275-3.6278,1.7255-7.562-1.399,1.3734-2.9944,2.9392-3.612,3.5467,0,0,.1018-.9846.2126-2.0555-3.7418,3.0693-8.8678,7.2747-9.7769,8.0189,1.8411-2.331,6.2664-7.9582,9.4679-11.9917-.1642-.1465-.3811-.3395-.3811-.3395.0304-.0262.0621-.0536.0936-.08l-.0042-.0037c.3666-.3747.811-.8265,1.3083-1.3308-.138-.0118-.2739-.0238-.4077-.0364-8.6035.2459-21.872.625-21.872.625.8129-.2451,10.7231-3.1984,19.7058-5.8754-.056-.1139-.1092-.2222-.1579-.3213,0,0,.1785-.2464.3742-.5156-2.8618-1.8689-5.2849-3.4517-6.0607-3.9568.8685.0883,4.0044.4135,7.7599.8033.0035-.038.0067-.0763.0102-.1143l-3.5125-9.062,4.868,4.3841c-.5193-2.3815-.9092-4.1703-.9904-4.5327,0,0,.2808.3202.7549.8602-.6118-4.8897-1.1281-9.0224-1.2995-10.3673.4739.9925,3.8317,7.952,6.9859,14.4996l4.8369-5.8997c.1315,1.0686.3966,3.2297.6582,5.3621,1.1273-.1588,2.8903-.4071,2.8903-.4071l-.1709,1.5276c.0839-.0394.1069-.0503.1935-.0906l22.5942-14.9873-17.3264,18.829,13.2582,1.4508c-1.204.3663-7.4553,2.2701-13.295,4.0482.1159.1945.2353.3955.3578.601Z"/></g></svg>