<?xml version="1.0" encoding="UTF-8"?><svg id="Layer_2" xmlns="http://www.w3.org/2000/svg" xmlns:xlink="http://www.w3.org/1999/xlink" viewBox="0 0 5306.5476 2697.8332"><defs><style>.cls-1{stroke:#4a88c7;}.cls-1,.cls-2{stroke-linecap:round;stroke-miterlimit:10;stroke-width:10px;}.cls-1,.cls-2,.cls-3,.cls-4{fill:none;}.cls-5{fill:#cfcfce;}.cls-6{fill:#fff;}.cls-7{fill:#a9a8a9;}.cls-8{fill:#3ac0f0;}.cls-9{fill:#e7f6fc;}.cls-10{fill:#1d97b7;}.cls-2{stroke:#3fc0ef;}.cls-11{fill:#20201f;}.cls-12{fill:#848384;}.cls-4{clip-path:url(#clippath);}</style><clipPath id="clippath"><path class="cls-3" d="m506.7177,11.1673l-194.398,329.1039c-6.2628,10.8475,1.5657,24.4068,14.0913,24.4068l483.5342,60.5649c12.5256,0,20.354-13.5593,14.0913-24.4068L534.9002,11.1673c-6.2628-10.8475-21.9197-10.8475-28.1825,0Z"/></clipPath></defs><g id="Layer_4"><path class="cls-1" d="m525.6448,7.2616c-24.4927,14.4462-26.8146,19.1516-51.6981,42.0956-23.379,20.0219-26.0543.3945-43.5381,2.8462-14.9774-4.3247-10.4963,21.1193-22.2075,10.4992-11.0563-9.9939-12.5238-22.8563-25.7728-16.4855-13.7696,11.8332-17.8577,11.0364-35.0488,44.3375-17.015,35.859-18.9438,40.2555-34.0365,75.4511-12.6908,28.6176-2.2533,22.9693-12.5031,48.1316"/><path class="cls-2" d="m525.6448,6.8247c-22.536-.2074-22.912-2.0664-45.0634.6721-21.8331,3.8611-24.5874-7.0821-46.1524-.1229-21.1703,8.033-16.7113,22.6797-36.7836,32.3531-19.6447,10.6322-21.8174,4.8205-40.6794,17.7979-18.352,13.7135-20.6198,8.8261-38.0239,24.5658-16.8789,16.4077-17.3798,15.568-33.061,33.4474-15.1071,18.4904-9.5772,27.301-23.2211,46.3856"/><path class="cls-8" d="m506.7177,12.0048l-194.398,329.1039c-6.2628,10.8475,1.5657,24.4068,14.0913,24.4068l483.5342,60.5649c12.5256,0,20.354-13.5593,14.0913-24.4068L534.9002,12.0048c-6.2628-10.8475-21.9197-10.8475-28.1825,0Z"/><g class="cls-4"><circle class="cls-6" cx="487.2088" cy="214.1373" r="32.3486"/><circle class="cls-6" cx="413.2423" cy="267.1884" r="32.3486"/><circle class="cls-6" cx="525.6448" cy="299.537" r="32.3486"/><circle class="cls-6" cx="610.9234" cy="261.2075" r="32.3486"/><circle class="cls-6" cx="693.8289" cy="225.7835" r="32.3486"/><circle class="cls-6" cx="713.0291" cy="312.4077" r="32.3486"/><circle class="cls-6" cx="445.591" cy="128.7376" r="32.3486"/><circle class="cls-6" cx="525.6448" cy="60.965" r="32.3486"/><circle class="cls-6" cx="568.178" cy="161.0862" r="32.3486"/></g><ellipse class="cls-10" cx="568.178" cy="380.956" rx="56.6926" ry="259.4192" transform="translate(120.8672 898.5145) rotate(-83.0054)"/><path class="cls-11" d="m95.6257,336.8393c15.2595-7.877,30.6598-15.7556,46.2293-23.6297-.4188,32.235-1.7563,64.5051-4.0781,96.8015-12.9224-24.4105-26.921-48.7977-42.1512-73.1718Z"/><path class="cls-11" d="m92.7197,2441.3419c-18.8714-15.4553-37.8782-30.9166-56.967-46.3837,2.3645-49.0701,8.3203-98.1991,16.6507-147.3944,9.9522,64.7095,23.0057,129.3055,40.3163,193.7781Z"/><path class="cls-11" d="m977.3357,2309.0445c-306.1386,34.0569-603.0796,68.0807-884.0433,102.0703-45.4282,5.5552-88.6826-30.7342-91.6097-80.7109-7.7818-159.3575,12.5261-319.4189,38.2804-479.8241,26.1833-160.4053,57.813-321.1536,82.6067-481.89,24.8005-160.7365,42.7582-321.4585,41.7058-481.8096-1.4716-160.3507-21.9546-320.3308-83.6963-479.5822-18.3668-46.1062.1299-79.3112,45.5216-73.9941,275.3523,32.6411,534.1444,65.3148,782.5758,98.0197,33.0197,4.3192,59.109,41.3937,59.7109,82.5572,2.2778,141.5106,15.3703,283.5321,35.3186,425.8151,19.659,142.283,46.1756,284.8265,68.4576,427.3814,46.4835,285.1095,69.6475,570.2668-.2584,853.4723-10.6772,44.2099-54.5018,84.0136-94.5698,88.4948Z"/><path class="cls-12" d="m1057.6507,2358.7009c-314.3226,35.303-616.7194,70.5704-899.2728,105.7998-45.5762,5.7527-89.9693-31.8514-93.8871-83.6587-10.5406-165.1885,8.9983-331.1743,33.6309-497.5564,25.1664-166.383,55.4273-333.1606,78.6873-499.9353,23.2841-166.7764,39.5541-333.5489,37.2026-499.9205-2.8451-166.3711-24.3119-332.34-87.8556-497.5065-18.967-47.8202.9035-82.2459,48.6315-76.7402,289.3343,33.8509,559.8239,67.7377,818.5145,101.6579,34.3995,4.4774,59.8992,42.9376,59.0219,85.6307-2.8137,146.784,10.2373,294.1285,32.9101,441.7556,22.3319,147.6271,54.2856,295.5367,81.4325,443.4497,27.1253,147.9117,49.45,295.8273,52.0569,443.467,2.9055,147.6406-13.9067,295.0037-58.1966,441.8148-13.8386,45.8355-61.7866,87.1052-102.8761,91.7421Z"/><path class="cls-9" d="m1022.7635,2309.9277c-278.4055,29.2373-549.6014,58.4652-809.1118,87.6522-47.2132,5.3652-89.0176-32.2431-89.2117-83.6435.8291-154.6204,21.1463-309.8909,43.5488-465.4838,22.7837-155.5916,47.6523-311.5059,66.4137-467.4169,18.7762-155.9097,31.4381-311.8164,30.0693-467.3923-1.7267-155.5759-17.4831-310.8219-63.8051-465.4081-14.7371-47.6861,6.9388-82.2895,51.8788-77.1158,242.6033,28.2377,473.7707,56.4979,697.5749,84.7779,34.2675,4.3018,60.9626,42.916,61.4351,85.9708,1.6899,139.0454,15.674,278.5679,36.7678,418.329,20.8354,139.7619,48.78,279.7641,72.2776,419.7693,48.8493,280.012,73.8228,560.0384,2.3595,838.1926-11.6048,46.0555-58.1839,87.3353-100.1969,91.7687Z"/><path class="cls-12" d="m743.3005,552.5809c-72.902-8.2166-146.2879-16.4337-220.2528-24.6448-12.8163-1.4272-25.3242-15.2743-27.937-30.7588t0,0c-2.6099-15.4714,5.9016-26.8727,19.0482-25.3567,75.574,8.734,150.3465,17.4696,224.451,26.212,12.1132,1.4318,22.9275,14.8052,24.0975,29.7652q.0008,0,0,0c1.1776,14.9638-7.5284,26.1198-19.4069,24.7832Z"/><path class="cls-5" d="m993.5346,2242.2704c-166.4957,40.7791-331.856,85.1883-492.3467,133.469-6.041,1.8307-15.2799-5.5051-20.1612-16.3765-116.564-257.1283-40.0443-500.558,31.0062-735.109,67.2164-224.4231,129.5997-441.1783-3.5764-672.9692-5.4897-9.6068-5.6339-17.3911.1591-17.3138,153.7019,1.8652,303.4369,5.4396,450.1008,10.756,5.39.1955,15.3082,7.5736,21.7257,16.4185,154.857,212.8423,137.6999,410.5943,94.0128,611.6911-45.8735,209.048-120.8365,423.479-73.653,649.3764,1.9487,9.5753-1.1684,18.5594-7.2673,20.0575Z"/><path d="m1064.0286,1415.918c-149.1551,7.8583-303.1748,17.3526-462.363,28.5475-.4911.0355-.7647-.4953-.6159-1.1694.5961-2.694,1.1856-5.3967,1.7656-8.0884.1464-.6738.6626-1.2678,1.1513-1.2925,158.7373-10.8854,312.3156-20.084,461.0528-27.6588.4449-.0194.7632.4667.7006,1.0848-.2422,2.4659-.496,4.9409-.7579,7.407-.0656.6176-.4859,1.145-.9335,1.1699Z"/><path d="m1066.8312,1385.0313c-147.8117,6.9562-300.4086,15.5123-458.1395,25.7278-.484.0291-.7726-.4987-.6433-1.1705.5181-2.6917,1.028-5.3761,1.5268-8.0654.1252-.6705.6229-1.2538,1.1052-1.2814,157.2672-9.9136,309.412-18.1825,456.8008-24.8596.4407-.0127.7727.4646.7337,1.0903-.1537,2.4654-.3217,4.9304-.4964,7.3942-.0443.6297-.4456,1.1499-.8873,1.1645Z"/><path d="m1059.9692,1448.5709c-150.5528,8.8276-306.0328,19.3347-466.6975,31.5857-.4954.0357-.7578-.4932-.5922-1.1681.6676-2.7058,1.3281-5.4091,1.981-8.1195.1656-.6794.6989-1.2591,1.1938-1.3033,160.2322-11.9312,315.2887-22.1407,465.4285-30.678.4504-.0299.7529.464.6698,1.0842-.3268,2.4693-.6606,4.9433-1.005,7.42-.0858.6187-.5282,1.1577-.9784,1.179Z"/><path d="m838.3145,1496.2277c-83.3014,6.0838-168.0522,12.6689-254.2797,19.7677-.5003.0409-.7548-.4863-.5739-1.168.7256-2.7199,1.4448-5.4356,2.1594-8.1543.1814-.6793.732-1.2683,1.2293-1.3135,86.0095-6.9234,170.5425-13.3403,253.6239-19.2629.4742-.0311.7498.4731.613,1.12-.5443,2.5868-1.0959,5.1748-1.6536,7.7652-.1396.6432-.645,1.2114-1.1184,1.2458Z"/><path d="m1034.3089,1122.4049c-136.8033-.1692-277.2161,1.0758-421.8422,3.7472-.445.0078-.9271-.5345-1.073-1.2165-.586-2.6932-1.1931-5.3886-1.8227-8.0846-.159-.6754.0717-1.2434.5159-1.2436,144.1635-2.4108,284.163-3.407,420.6124-2.989.4097.0022.9402.5199,1.177,1.1451.9424,2.5003,1.8658,5.0045,2.7683,7.5002.2269.6307.077,1.1439-.3357,1.1411Z"/><path d="m1022.044,1091.0517c-135.6887-.9659-274.8071-.5195-417.9648,1.3267-.439.0099-.9535-.5488-1.1476-1.2242-.7676-2.7029-1.5567-5.4112-2.3714-8.1176-.2018-.6815-.0153-1.2421.4235-1.2459,142.7119-1.5952,281.4311-1.7925,416.7873-.5764.4083.0056.9695.5212,1.249,1.1554,1.1135,2.5192,2.2059,5.0333,3.2767,7.5392.2702.6325.1548,1.1454-.2526,1.1428Z"/><path d="m1045.0311,1155.3327c-138.0425.6765-279.8782,2.7824-426.0953,6.3281-.4488.0098-.8979-.528-1.0005-1.2065-.4067-2.6805-.8316-5.37-1.2787-8.0564-.1138-.6721.1612-1.2417.608-1.2471,145.7425-3.285,287.1529-5.1353,424.8196-5.5583.4141-.0004.9125.5133,1.1055,1.1339.7716,2.4911,1.5252,4.9757,2.2602,7.4675.1848.6248-.0044,1.1341-.419,1.1389Z"/><path d="m855.1431,1191.233c-76.1052,1.5368-153.4186,3.4805-232.0283,5.8408-.4524.0081-.8739-.5249-.9332-1.1992-.2381-2.6744-.4947-5.3612-.771-8.0379-.0686-.6771.2419-1.2369.6952-1.2472,78.3489-2.2178,155.416-4.0246,231.2899-5.4219.4318-.0126.8826.5133,1.0004,1.1604.4646,2.5733.9127,5.1472,1.3416,7.7151.1056.646-.1604,1.1812-.5945,1.1897Z"/><path d="m1002.5871,1713.7836c-159.5336,17.3535-323.7827,36.7796-492.3537,58.4087-.5195.0651-.7876-.4674-.5944-1.1753.7644-2.8358,1.535-5.672,2.3077-8.5088.193-.7113.7779-1.348,1.296-1.4126,168.4498-21.2507,332.5092-40.316,491.8179-57.3312.4776-.0519.7371.4358.5784,1.0762-.6314,2.5586-1.2639,5.1189-1.8954,7.679-.1575.6432-.6792,1.2117-1.1566,1.2641Z"/><path d="m1010.505,1681.7967c-158.7733,16.2718-322.3749,34.5518-490.4984,54.9853-.5198.0679-.7763-.466-.5759-1.1738.7996-2.8181,1.5974-5.6412,2.4031-8.4516.2017-.7082.7907-1.3356,1.3064-1.3974,167.9514-20.0569,331.32-37.9938,489.8357-53.9284.4744-.0461.7334.4328.5752,1.0754-.6313,2.5477-1.2604,5.0868-1.8932,7.6386-.1575.6403-.6791,1.2087-1.1529,1.252Z"/><path d="m994.3098,1747.73c-160.2079,18.5214-324.9919,39.1682-493.8458,62.092-.5192.07-.7979-.461-.6175-1.1784.7163-2.863,1.4365-5.7111,2.1661-8.5707.182-.7101.7576-1.3604,1.2779-1.4297,168.7908-22.5397,333.4343-42.818,493.4555-60.9935.4793-.054.7433.4249.5859,1.0769-.6241,2.575-1.2452,5.1475-1.8665,7.7252-.1562.6509-.6753,1.2177-1.1556,1.2783Z"/><path d="m757.8479,1810.9934c-87.6571,11.5946-176.4957,23.8298-266.4135,36.7325-.5185.0774-.8131-.4548-.6471-1.18.6521-2.8786,1.3166-5.7625,1.9834-8.6329.1659-.7264.7312-1.376,1.2512-1.4473,89.9166-12.694,178.7291-24.7293,266.3409-36.1228.4989-.0636.7729.4451.6114,1.1237-.6465,2.7246-1.2909,5.439-1.9278,8.163-.1599.6839-.6992,1.2951-1.1985,1.3638Z"/><path d="m948.0745,2026.8831c-159.4446,28.5849-321.1655,59.7876-483.554,93.7774-.4991.1063-.9482-.4327-.991-1.1939-.1794-3.0264-.3361-6.0572-.4773-9.0836-.0363-.7599.3453-1.4633.8488-1.5694,162.9549-33.5568,325.065-64.352,484.7774-92.5433.4783-.0847.8345.3996.7922,1.0838-.1662,2.7119-.3217,5.4231-.4637,8.134-.0357.6767-.4557,1.3137-.9323,1.3949Z"/><path d="m950.412,1993.0098c-160.2222,27.3328-323.1097,57.219-487.2099,89.8461-.5055.1034-.925-.4398-.9305-1.1927-.0268-3.0077-.0316-6.0173-.0228-9.0236.0024-.7594.4193-1.45.9264-1.5527,164.5767-32.1979,327.7807-61.682,488.2018-88.6248.4809-.0834.8198.4029.7549,1.0832-.2573,2.6946-.504,5.3892-.7406,8.0833-.0592.674-.5004,1.3089-.9793,1.3812Z"/><path d="m946.9511,2062.8507c-158.3892,29.9225-318.6014,62.5164-478.8695,97.9589-.492.1143-.9702-.4365-1.0587-1.1933-.3524-3.0482-.6864-6.0938-.998-9.1421-.079-.7641.2655-1.4869.7592-1.5867,160.9313-35.0155,321.6201-67.1869,480.3476-96.7169.4755-.0849.8486.3925.8358,1.0847-.0586,2.7249-.1061,5.4575-.1401,8.1854-.009.6826-.4007,1.3211-.8763,1.41Z"/><path d="m726.2409,2144.7361c-84.0356,18.0236-168.2051,36.8412-252.1918,56.4799-.4848.1154-.9977-.431-1.1312-1.196-.541-3.0682-1.0615-6.1337-1.5596-9.1984-.1267-.7689.1707-1.4912.6612-1.6038,84.395-19.4051,168.9145-38.0063,253.2525-55.8008.482-.0963.9179.4062.9769,1.135.2293,2.8906.4765,5.7837.7402,8.6757.0667.7258-.2683,1.4157-.7483,1.5084Z"/><path class="cls-7" d="m978.9739,2259.0377c-138.6201,53.0576-270.0791,105.6211-394.4868,151.6846-23.0312,8.4106-58.1973,7.1509-71.0156-3.0591-32.9502-25.2441-33.3018-55.3457-18.5137-95.3843,14.8398-39.6685,44.8203-89.2739,73.7119-145.0068,28.9438-55.3643,56.8003-116.8564,68.5703-171.7988,11.8198-54.5737,7.5522-102.5991-26.5723-122.5132-13.8901-7.543-15.2241-12.0479,5.8301-34.2754,112.311-119.8208,279.0796-254.7407,413.5308-337.6401,24.8438-15.5674,24.5801-8.126,47.9199,1.6006,121.6221,56.0161,92.666,195.5317,41.1421,330.2842-51.8921,137.3447-126.354,269.9268-104.2393,371.9688,3.7412,20.5918-10.1201,44.3516-35.8774,54.1396Z"/><path d="m1112.0159,1738.4361c-157.3574,78.1675-308.6533,172.9731-450.9795,280.0068-1.8569,1.3843-2.8901,1.1655-2.2554-.5464h0c.6201-1.7212,2.667-4.2759,4.5317-5.6777,142.0576-107.3521,293.0918-202.2739,450.1846-280.4575,2.0625-1.0332,3.4512-.3711,3.0332,1.4639h0c-.4292,1.8516-2.4409,4.1963-4.5146,5.2109Z"/><path d="m1116.366,1717.2208c-156.501,78.2422-306.957,173.4541-448.3462,281.4424-1.8677,1.4209-2.9253,1.2158-2.3677-.4683t0,0c.563-1.6821,2.5112-4.2124,4.3687-5.6372,141.0781-108.2783,291.2451-203.6035,447.4668-281.8809,2.0391-1.0259,3.5117-.4058,3.1943,1.3965h0c-.3022,1.7998-2.2485,4.1084-4.3159,5.1475Z"/><path d="m1106.2689,1761.2369c-158.1436,78.0986-310.2539,172.4482-453.4648,278.4053-1.8789,1.3804-2.8535,1.1304-2.1567-.6138q.0039-.0015,0,0c.6792-1.7158,2.8062-4.3027,4.6807-5.6958,142.9746-106.2837,294.835-200.7837,452.7573-278.8887,2.0732-1.0225,3.374-.3447,2.8838,1.5269q-.0015.0049,0,0c-.4946,1.8525-2.6177,4.2559-4.7002,5.2661Z"/><path d="m876.7234,1906.2223c-79.7798,48.144-157.5063,99.9868-232.8896,154.8154-1.8975,1.3726-2.8389,1.0913-2.0771-.6616q.0015-.0005,0,0c.7549-1.7471,2.9307-4.3223,4.8018-5.6904,75.2637-55.0156,152.8887-106.9922,232.5586-155.2197,1.9966-1.1997,3.1362-.6938,2.4556,1.1768t0,0c-.6548,1.8521-2.8423,4.3657-4.8491,5.5796Z"/><path d="m1091.9969,1564.2667c-146.4268,82.1377-285.8145,182.5674-415.1724,298.4868-1.7178,1.5376-3.5225,2.0532-4.041,1.1772t0,0c-.5327-.855.3853-2.812,2.085-4.3428,128.7676-116.3193,267.6357-217.0928,413.5693-299.5601,1.9106-1.0859,4.3423-1.0469,5.3057.1377h0c.9946,1.1538.1646,3.0366-1.7466,4.1011Z"/><path d="m1079.8275,1551.2135c-144.8906,83.2832-282.5234,184.8672-409.9414,302.084-1.6826,1.5483-3.6172,2.2378-4.3105,1.5225q.0005.0049,0,0c-.7109-.6904.0566-2.5068,1.7231-4.0566,126.769-117.6313,263.8521-219.6401,408.2446-303.3276,1.8965-1.0991,4.4521-1.1685,5.6328-.1235.0063.002.0063-.0068,0,0,1.187,1.0391.561,2.8047-1.3486,3.9014Z"/><path d="m1102.3929,1579.525c-147.9268,81.1279-289.083,180.5049-420.375,295.228-1.7144,1.4937-3.4194,1.897-3.77.8511q-.0005.0024,0,0c-.3682-1.0195.748-3.1064,2.4521-4.6104,130.728-115.0669,271.3901-214.7437,418.8701-296.1377,1.9453-1.0723,4.2002-.9014,4.9688.3809h0c.7866,1.2705-.1968,3.2188-2.146,4.2881Z"/><path d="m901.5784,1723.0763c-74.5015,50.7285-146.7788,106.0449-216.4272,165.4927-1.7739,1.519-3.2993,1.7222-3.5195.5742q.0029.0015,0,0c-.1797-1.1816,1.0498-3.3398,2.7988-4.8457,69.3721-59.6089,141.3945-115.0718,215.6528-165.9355,1.8672-1.2739,3.7412-1.272,4.1743.0195.0015-.0073.0015-.0083,0,0,.3862,1.3223-.8042,3.417-2.6792,4.6948Z"/><path d="m1035.9666,1949.3136c-161.0239,76.1172-315.6528,163.8926-462.4253,256.5674-1.9463,1.228-2.8525.936-2.0898-.6191t0,0c.7554-1.5444,3.022-3.8589,4.9463-5.0869,146.7622-93.3379,301.3989-181.5,462.4556-257.7915,2.1235-.9971,3.188-.2607,2.4023,1.6484h0c-.7827,1.9058-3.1812,4.272-5.2891,5.2817Z"/><path d="m1045.2293,1927.0938c-161.0269,76.604-315.7349,165.5815-462.4141,260.3438-1.9136,1.2251-2.8677.9761-2.0283-.6553q-.0093.0083,0,0c.8262-1.6177,3.0547-3.9556,5.002-5.2222,146.6201-95.3765,301.3174-184.6909,462.3452-261.4453,2.1191-1.0059,3.1904-.2686,2.395,1.6597.002-.001.001-.001,0,0-.7808,1.9175-3.1802,4.3042-5.2998,5.3193Z"/><path d="m1026.3504,1972.5475c-160.9023,75.4731-315.3604,161.8687-462.1138,252.1763-1.9238,1.1621-2.9131.9326-2.1724-.5776t0,0c.7446-1.5137,2.9302-3.7314,4.8687-4.9351,146.7754-91.0181,301.2881-177.8423,462.2432-253.5229,2.1147-1.0063,3.2144-.2769,2.4312,1.6289q-.0063,0,0,0c-.7827,1.8682-3.146,4.251-5.2568,5.2305Z"/><path d="m791.8162,2108.4986c-80.707,43.2944-159.4824,88.4468-236.2354,134.3701-1.9336,1.1528-2.9512.9272-2.2764-.5308q.001.0039,0,0c.688-1.4565,2.8354-3.6021,4.7651-4.77,76.7949-46.335,155.5869-91.7979,236.3428-135.3384,2.0239-1.0938,3.1011-.5713,2.3867,1.1572-.0044-.0015-.0034-.0015,0,0-.7188,1.7319-2.9492,4.021-4.9829,5.1118Z"/><path d="m971.9666,2144.9957c-155.2935,66.0513-303.7163,136.3394-445.4443,202.9863-1.8667.877-3.4839.7773-3.5723-.2305q.0039,0,0,0c-.0728-1.0132,1.3833-2.5825,3.2686-3.46,142.1089-67.6108,290.9243-138.6323,446.5981-205.1655,2.0498-.8804,3.5146-.2544,3.2749,1.355q-.0015,0,0,0c-.2305,1.6274-2.0791,3.6353-4.125,4.5146Z"/><path d="m975.098,2126.0646c-156.4517,67.5635-306.0767,140.1484-448.9688,209.8892-1.8638.9019-3.396.811-3.3374-.2573.0044.0005.0034-.0024,0,0,.0679-1.0625,1.6558-2.6885,3.5552-3.6377,143.2202-70.7021,293.1997-143.9951,449.9692-212.0044,2.0532-.8984,3.4585-.2539,3.1206,1.3896t0,0c-.3364,1.6533-2.2759,3.7393-4.3389,4.6206Z"/><path d="m970.0291,2164.483c-153.9302,64.3848-300.896,132.1621-441.1748,195.5259-1.8486.8413-3.6143.7437-3.8403-.2129q-.0078.0044,0,0c-.2393-.9658,1.085-2.4385,2.9341-3.2837,140.7378-64.335,288.1528-132.8613,442.5005-197.7515,2.0063-.8486,3.5845-.2617,3.4614,1.3203t0,0c-.1255,1.5879-1.8589,3.5449-3.8809,4.4019Z"/><path d="m756.5003,2273.9684c-76.2646,33.1436-150.623,65.9971-223.165,97.4453-1.8252.7852-3.6924.6992-4.1328-.2036h0c-.439-.9072.7378-2.3145,2.5728-3.1147,72.8174-31.9497,147.4463-65.2573,223.9697-98.793,1.9297-.8472,3.6445-.4653,3.8506.8135q-.001-.0015,0,0c.187,1.291-1.1655,3.0166-3.0952,3.8525Z"/><path class="cls-5" d="m1708.0945,2171.3028c-119.5894,66.478-241.4077,138.7749-365.5112,209.7002-19.1895,11.0039-60.0088,10.6641-86.3931-2.4482-179.8472-87.4204-209.189-222.064-257.6748-356.3101-24.4609-66.0103-54.5166-130.6909-109.395-171.7329-54.4956-40.019-133.8149-56.4019-247.9751-2.2349-40.6738,20.5684-54.248,22.2969-24.6475-9.5923,187.0366-195.8687,387.4761-336.8169,582.4976-435.6943,28.373-14.6489,79.8291-20.5464,109.562-9.7798,171.8105,64.124,217.1699,210.4346,247.564,350.2715,30.2002,142.4707,45.4355,278.4678,152.5693,382.854,15.8916,15.7163,16.9668,35.1694-.5962,44.9668Z"/><path d="m1488.7015,1648.8087c-156.6118,63.5718-318.7104,145.4341-482.5811,243.019-2.2324,1.3218-4.8193,1.0337-5.79-.6235t0,0c-.9692-1.6626.0376-4.1206,2.2842-5.4419,164.1792-98.2095,326.6509-180.2622,483.6396-243.8438,2.0117-.8135,4.2051.0762,4.873,1.9688.0029.001.0029.0029,0,0,.6841,1.8955-.4165,4.1211-2.4258,4.9214Z"/><path d="m1480.5692,1626.8814c-157.855,63.6416-321.2144,146.2461-486.0781,245.8574-2.2246,1.3428-4.9531,1.1533-6.0098-.4287-.0015-.0024.0015-.0024,0,0-1.0679-1.5635-.1313-3.999,2.1113-5.3438,165.1846-100.2979,328.9834-183.1865,487.2383-246.8691,2.0254-.8252,4.2881.0264,5.0483,1.9087-.001-.0107-.001-.0049,0,0,.7334,1.8564-.2939,4.0596-2.3101,4.8755Z"/><path d="m1496.3699,1672.2774c-155.4175,63.6426-316.269,144.8711-479.2012,240.5884-2.228,1.2974-4.7173.9282-5.5938-.7969t0,0c-.8569-1.7485.2183-4.2036,2.4395-5.5195,163.2031-96.2456,324.3984-177.6411,480.1743-241.2549,1.9922-.8193,4.1143.0928,4.7109,2.0112q.002.0063,0,0c.5928,1.9175-.5283,4.1753-2.5298,4.9717Z"/><path d="m1282.7171,1796.6905c-84.1631,41.8481-169.5264,88.063-255.5645,137.9668-2.1831,1.2808-4.6528.8569-5.4229-.9434q-.0005.001,0,0c-.7715-1.7881.3477-4.3047,2.5635-5.582,86.1987-50.1465,171.6724-96.5293,256.0239-138.4541,2.0972-1.0439,4.3354-.2959,4.999,1.6172t0,0c.6626,1.9307-.5259,4.3564-2.5991,5.3955Z"/><path d="m1359.2025,1463.6222c-174.7383,73.3867-355.4268,175.124-532.958,309.3174-2.4463,1.8423-6.457,3.2358-9.0327,3.1787t0,0c-2.5615-.0601-2.7188-1.5913-.2847-3.4502,178.1509-136.4531,359.7231-239.583,535.3975-313.8247,2.2305-.938,5.6074-.6362,7.522.6699t0,0c1.8691,1.3174,1.5918,3.1797-.644,4.1089Z"/><path d="m1336.4339,1448.7945c-177.7549,76.3135-361.4795,182.7725-540.9385,324.5591-2.4619,1.9341-6.7295,3.6997-9.5137,3.9751h0c-2.7954.2769-3.146-1.0581-.6743-3.0371,180.0786-144.4165,364.7974-252.5112,543.5415-329.8511,2.2871-.9844,5.8555-.8184,7.9434.3882h0c2.0742,1.1953,1.9092,2.9922-.3584,3.9658Z"/><path d="m1380.9036,1480.6349c-171.8452,70.8481-349.5698,168.3804-525.1289,295.6709-2.3862,1.7266-6.2046,2.8145-8.5439,2.4575q0,.0073,0,0c-2.335-.3535-2.3057-2.0605.0972-3.8301,176.1333-129.2334,354.7271-227.9199,527.3833-299.4717,2.207-.9126,5.4209-.5054,7.1074.9253h0c1.7021,1.4263,1.2686,3.3569-.915,4.248Z"/><path d="m1159.3914,1612.4205c-91.9194,49.3242-184.6079,106.1182-276.9082,170.6221-2.3599,1.6528-5.9741,2.4556-8.0898,1.8384t0,0c-2.1104-.6172-1.9092-2.4893.46-4.1572,92.6138-65.3955,185.6616-122.8652,277.958-172.7383,2.2788-1.2427,5.6519-1.2573,7.4556-.0259q.002-.0078,0,0c1.8145,1.2251,1.376,3.2339-.8755,4.4609Z"/><path d="m1540.4359,1864.2696c-147.7446,66.6816-300.5103,146.2539-457.1162,231.8262-2.1372,1.1655-4.3813.5571-5.0586-1.3184t0,0c-.6504-1.8945.5811-4.3779,2.686-5.5459,156.8706-85.8687,309.9214-165.4868,457.9644-232.0254,1.9102-.8364,3.7764.0435,4.1943,1.9839h0c.4111,1.9502-.7627,4.2295-2.6699,5.0796Z"/><path d="m1535.6229,1841.6187c-148.6406,66.2485-302.375,145.9077-459.7812,232.4614-2.1294,1.1777-4.4028.584-5.0317-1.3154.0029-.0068.0029-.0059,0,0-.626-1.896.5996-4.4253,2.7505-5.5967,157.6592-86.8755,311.6582-166.5405,460.5879-232.6606,1.9106-.8618,3.7739.0747,4.1929,2.019h0c.4082,1.9409-.8145,4.2349-2.7183,5.0923Z"/><path d="m1545.7601,1887.9713c-146.748,67.1167-298.4473,146.5825-454.1284,231.1401-2.1323,1.1436-4.4136.5586-5.1064-1.3081-.001.0068.0049.0059,0,0-.6924-1.8452.4639-4.353,2.5903-5.4829,155.9629-84.8647,307.9736-164.3618,455.0327-231.3457,1.8799-.8677,3.7783.0337,4.2148,1.9399.0015-.0015-.0054-.0054,0,0,.4375,1.9243-.7354,4.1997-2.603,5.0566Z"/><path d="m1343.032,2013.5787c-79.5674,40.7817-160.4014,83.9644-242.4746,128.2432-2.0972,1.1362-4.4575.5532-5.1841-1.2822q0,.001,0,0c-.7549-1.8394.3672-4.2866,2.4658-5.4111,82.2554-44.438,163.2427-87.7134,243.0005-128.5171,1.9927-1.0161,4.0728-.2534,4.6777,1.6519.0142-.0098-.0063.0059,0,0,.5952,1.9009-.5122,4.3042-2.4854,5.3154Z"/><path d="m1610.9236,2063.8429c-135.2295,68.7471-274.3291,145.8281-417.4956,222.5215-1.9341,1.0322-4.7524.6592-6.2515-.8384t0,0c-1.4761-1.502-1.1089-3.5938.8599-4.627,143.8672-76.98,283.6016-154.2085,419.4097-222.9805,1.7466-.8813,3.9321-.2524,4.8813,1.3667h0c.9575,1.6401.3306,3.6685-1.4038,4.5576Z"/><path d="m1600.1512,2044.6925c-137.0415,68.792-278.1499,146.3467-423.4424,223.9453-1.9658,1.0566-4.7051.6279-6.061-.9258t0,0c-1.3618-1.5493-.8394-3.7007,1.146-4.7598,145.9229-77.8755,287.6113-155.5815,425.1968-224.3657,1.7744-.8804,3.8857-.2339,4.7627,1.4565t0,0c.874,1.6895.1387,3.7402-1.6021,4.6494Z"/><path d="m1623.4583,2083.4254c-133.1553,68.6196-269.9307,145.1274-410.6323,220.876-1.8965,1.0225-4.8379.7041-6.4585-.7427-.002.0005-.001.0015,0,0-1.6543-1.4233-1.377-3.4565.5176-4.4863,141.4517-76.0239,278.9478-152.7026,412.73-221.3789,1.7402-.8892,3.957-.3052,5.0161,1.2729h0c1.0537,1.5684.5439,3.5801-1.1729,4.459Z"/><path d="m1450.2864,2202.8956c-71.0352,38.9253-143.0439,78.9038-216.1587,118.4927-1.8716,1.0176-4.8706.7295-6.6841-.6392t0,0c-1.7891-1.3682-1.709-3.3223.168-4.3315,73.5615-39.7319,145.9814-79.8579,217.4365-118.8682,1.7637-.9692,4.3701-.5522,5.8135.9277h0c1.4263,1.4531,1.186,3.46-.5752,4.4185Z"/><path class="cls-7" d="m1736.4905,2274.6061c-144.2549,36.4014-282.3359,77.3916-412.27,117.3613-23.9917,7.4111-62.1206-5.3867-77.6587-28.8081-80.5107-116.4155-21.7705-239.9585,38.9209-381.4072,60.0098-139.2139,121.9697-296.335,32.127-428.335-18.645-26.729-20.7856-35.604,5.7393-45.873,141.9873-56.062,337.7148-105.0444,485.707-122.7285,27.4409-3.4917,26.9575,5.1118,51.769,29.271,127.3701,128.7554,91.1787,260.6626,33.0239,396.3794-58.9062,135.21-139.7783,274.2275-119.1133,405.499,3.3716,25.8774-11.4634,51.854-38.2451,58.6411Z"/><path d="m1889.5609,1699.7706c-167.9448,21.7275-336.6489,62.2432-502.1299,117.771-2.1621.7163-3.4033-.3813-2.7168-2.46h0c.6709-2.0967,3.0098-4.4033,5.1792-5.1182,165.2935-55.4375,333.7642-95.7227,501.4419-117.1587,2.2046-.2773,3.6353,1.0537,3.1396,2.9673h0c-.5063,1.9243-2.7026,3.7261-4.9141,3.9985Z"/><path d="m1894.825,1677.5133c-167.0928,20.811-335.0547,60.6196-499.8452,115.856-2.1782.7197-3.4468-.3545-2.8496-2.4385t0,0c.6099-2.0688,2.8403-4.3579,5.0078-5.0796,164.5615-55.1523,332.2568-94.7412,499.0801-115.2817,2.1797-.272,3.7002,1.0767,3.312,2.978t0,0c-.3765,1.9106-2.4976,3.6851-4.7051,3.9658Z"/><path d="m1882.785,1723.3482c-168.7515,22.7637-338.1802,64.042-504.2627,119.8813-2.1763.7212-3.355-.3677-2.6025-2.4785.0015-.0005.0015.0005,0,0,.7363-2.0811,3.1611-4.4189,5.334-5.1504,165.9297-55.7412,335.1357-96.8066,503.6587-119.2461,2.2129-.2876,3.5625,1.0327,2.9814,2.958q0,.0024,0,0c-.5801,1.9038-2.8848,3.7524-5.1089,4.0356Z"/><path d="m1632.5838,1793.0934c-88.4878,21.0771-176.564,46.5986-263.7554,75.9551-2.1929.73-3.3276-.3677-2.5103-2.4873q.0015.002,0,0c.8145-2.103,3.2881-4.4438,5.4531-5.1748,87.1172-29.3081,175.1299-54.7622,263.5176-75.7119,2.2222-.5186,3.4673.7139,2.6978,2.75t0,0c-.7456,2.0322-3.1763,4.1367-5.4028,4.6689Z"/><path d="m1873.9339,1491.8995c-158.6797,17.8096-317.5781,55.3682-473.0762,110.2065-2.064.7197-4.271-.1016-4.9424-1.8335t0,0c-.6846-1.7158.3799-3.7324,2.4297-4.4531,155.0742-54.9902,313.5908-92.6621,471.9268-110.6006,2.0669-.2412,4.6636,1.0625,5.6533,2.9155h0c1.0239,1.8276.0767,3.5337-1.9912,3.7651Z"/><path d="m1861.3421,1470.6192c-157.6309,18.2842-315.2861,56.2832-469.3716,111.6587-2.0342.728-4.416-.019-5.3032-1.689.001.002.001.0029,0,0-.9072-1.6499-.0215-3.603,2.0015-4.334,153.6196-55.5566,310.8813-93.7666,468.2012-112.2466,2.0679-.2446,4.8052,1.0444,6.0361,2.8672.0044.002.0044-.002,0,0,1.2402,1.8208.5137,3.5015-1.564,3.7437Z"/><path d="m1884.5125,1514.5621c-159.7378,17.5513-319.9565,54.8228-476.9062,109.3008-2.0449.7104-4.1289-.1597-4.5874-1.9692q-.0029.0005,0,0c-.4893-1.7866.8193-3.8413,2.8579-4.5645,156.5229-54.5703,316.3716-91.9023,475.7842-109.4995,2.105-.228,4.4927,1.103,5.2681,2.9482t0,0c.7944,1.8379-.3091,3.5635-2.4165,3.7842Z"/><path d="m1662.4095,1575.567c-84.0186,18.6753-167.707,42.4009-250.561,70.7915-2.1074.7305-3.96-.2295-4.2661-2.0732.0029-.0049.0029,0,0,0-.2554-1.8584,1.1772-3.9502,3.2593-4.6665,82.6431-28.4131,166.1333-52.1562,249.9639-70.8301,2.1064-.4614,4.207.6655,4.6665,2.5317q0-.0103,0,0c.4175,1.8721-.9487,3.7793-3.0625,4.2466Z"/><path d="m1803.1966,1914.774c-171.7217,31.5757-342.3535,78.27-508.5249,134.1709-2.2056.7427-3.3062-.3403-2.5322-2.3975t0,0c.7666-2.0537,3.2607-4.3457,5.4419-5.085,166.3428-55.9966,337.0752-102.5747,508.8438-133.8599,2.2646-.3994,3.3662.8613,2.4858,2.8364t0,0c-.8828,1.9653-3.4688,3.9058-5.7144,4.335Z"/><path d="m1813.5589,1891.8531c-171.7656,30.605-342.7402,76.8765-509.3926,133.0869-2.1772.7183-3.3208-.3257-2.4624-2.4224-.0117.0093-.0117.0063,0,0,.8501-2.084,3.3188-4.375,5.5332-5.1235,166.7534-56.2808,337.7974-102.4009,509.5747-132.7002,2.2568-.397,3.3701.8784,2.4771,2.8525q.001-.0044,0,0c-.8809,1.9663-3.4756,3.8979-5.73,4.3066Z"/><path d="m1792.4539,1938.9845c-171.5181,32.5142-341.6626,79.5923-507.1606,135.0547-2.168.6982-3.3613-.3281-2.6235-2.3696h0c.7388-2.0454,3.1392-4.3003,5.3228-5.0376,165.7139-55.606,336.0225-102.5767,507.6172-134.8232,2.2549-.4355,3.3955.8262,2.5195,2.8179q-.0049-.0005,0,0c-.8711,1.9531-3.4219,3.9443-5.6753,4.3579Z"/><path d="m1538.7625,2019.7877c-88.355,23.6694-175.8296,50.3433-262.0176,79.0679-2.1724.7227-3.395-.3105-2.7388-2.3394,0,.0024,0,.0083,0,0,.668-2.0142,3.0078-4.2632,5.1763-4.9824,86.3398-28.8301,173.9199-55.5234,262.3838-79.1528,2.2192-.5918,3.4106.5908,2.6333,2.6255-.0054-.0049-.0054-.0029,0,0-.7744,2.0366-3.2061,4.1821-5.437,4.7812Z"/><path d="m1731.3807,2131.1983c-163.937,37.2373-323.8188,83.5693-477.3076,131.8896-2.0205.6401-3.8701-.3306-4.0923-2.147q.0015-.0005,0,0c-.1997-1.813,1.2759-3.8599,3.3232-4.4741,154.1685-48.6582,314.6479-95.1426,479.0815-132.2964,2.1665-.4932,3.6841.7012,3.4043,2.626q-.0029,0,0,0c-.2749,1.9365-2.2437,3.9072-4.4092,4.4019Z"/><path d="m1735.0311,2108.6803c-165.4575,36.9741-327.188,83.7085-482.7866,133.1211-2.0381.6328-3.7949-.3135-3.8555-2.1655q.0049.0034,0,0c-.0513-1.8384,1.5894-3.8755,3.6582-4.5503,156.2251-49.7432,318.5015-96.5938,484.3818-133.4668,2.1729-.4873,3.6406.7217,3.2461,2.6499t0,0c-.3867,1.9385-2.4609,3.9355-4.644,4.4116Z"/><path d="m1728.9832,2154.8351c-162.1655,37.4463-319.8794,83.2773-470.8975,130.418-1.9839.6309-3.9956-.3496-4.3594-2.1323-.0088.0068-.0088.0049,0,0-.3857-1.8081.9473-3.7817,2.9395-4.4058,151.7798-47.4834,310.1606-93.4873,472.8643-130.8696,2.1167-.4922,3.7554.6758,3.5947,2.6016h0c-.1626,1.9253-2.0181,3.8862-4.1416,4.3882Z"/><path d="m1502.6956,2236.565c-81.1514,22.6582-160.6729,46.5371-238.3008,70.5747-1.9551.5967-4.0566-.3535-4.6484-2.1226h0c-.5972-1.7808.5649-3.7339,2.5327-4.3345,78.0581-24.2251,157.9917-48.2329,239.5142-70.9795,2.0532-.5698,3.9019.5122,4.1489,2.395q-.001-.0024,0,0c.2271,1.8823-1.1948,3.9009-3.2466,4.4668Z"/><path class="cls-5" d="m2471.0237,2293.9381c-119.3809,45.562-243.6113,103.9185-370.5356,169.9746-19.6152,10.2422-60.3926,7.1494-86.3281-9.6333-177.1445-113.4575-204.3623-287.8677-252.356-465.2036-24.3931-88.8975-54.8159-179.668-114.8374-260.3623-59.9795-79.9946-149.5586-149.9146-291.3135-180.9937-51.1206-10.3501-69.7358-25.1323-32.3042-40.1758,234.6377-91.4155,461.7861-133.6206,668.9546-139.689,30.2368-1.0659,83.5249,18.6636,113.3022,43.9375,170.8428,147.292,208.4062,301.9014,232.793,447.4478,23.688,145.5703,34.1997,282.0771,134.7749,393.6997,14.9717,16.6328,15.3779,34.2578-2.1499,40.998Z"/><path d="m2275.8904,1745.0841c-156.9038,10.0859-325.8062,40.1045-502.8579,89.3799-2.4121.6616-5.165-.7563-6.1602-3.1587h0c-.9971-2.4082.1338-4.9424,2.5679-5.5894,177.6011-49.127,346.9868-78.7256,504.3066-88.2896,2.0171-.1226,4.144,1.5054,4.7275,3.6055.0029-.0015.0029-.0005,0,0,.5977,2.1123-.5723,3.9414-2.584,4.0522Z"/><path d="m2268.7274,1720.5514c-158.2808,8.4585-328.811,37.1997-507.6616,86.0249-2.415.6553-5.332-.7529-6.4292-3.1274t0,0c-1.1128-2.3608-.0503-4.8853,2.3867-5.5327,179.4399-48.7217,350.5269-77.0947,509.2666-85.0581,2.0303-.1152,4.2305,1.5283,4.9077,3.6582q-.0015-.0078,0,0c.6514,2.1016-.4463,3.9238-2.4702,4.0352Z"/><path d="m2282.5286,1770.8551c-155.5991,11.8755-322.9165,43.3511-498.2666,93.2979-2.3994.6704-5.0264-.7563-5.9194-3.1807t0,0c-.8711-2.4351.335-4.9546,2.729-5.6372,175.832-49.7256,343.5947-80.7627,499.5811-92.1011,1.9946-.1465,4.0503,1.4492,4.5625,3.5435q.0029.0083,0,0c.5103,2.0859-.6831,3.9502-2.6865,4.0776Z"/><path d="m2063.7371,1828.4391c-87.1758,16.7065-177.209,38.6802-269.4575,65.6045-2.3452.7031-4.9409-.7432-5.7119-3.189q-.002.001,0,0c-.771-2.4321.48-5.0151,2.856-5.6836,92.5103-26.772,182.7388-48.5796,270.1465-65.0386,2.1729-.4097,4.418,1.146,5.019,3.4067h0c.5981,2.2783-.6997,4.4736-2.8521,4.8999Z"/><path d="m2154.18,1508.0284c-178.8716.0654-373.5454,26.2773-577.4741,83.7441-2.8071.7847-7.4126-.0591-10.3794-1.8623h0c-2.9468-1.7954-3.1274-3.9097-.3208-4.7026,205.3247-58.4937,401.3374-85.0767,581.4272-85.1104,2.2876.0049,5.6763,1.791,7.5562,3.9697h0c1.8271,2.1694,1.4775,3.9634-.8091,3.9614Z"/><path d="m2131.7674,1482.6617c-182.8325.1255-382.0903,27.6528-590.5605,88.6704-2.8574.8247-7.8281.1343-11.0786-1.4995t0,0c-3.2642-1.6475-3.6841-3.6777-.8003-4.5308,209.9937-62.3032,410.7749-90.3608,594.9258-90.5693,2.3516.0029,5.9609,1.7783,8.0298,3.9663h0c2.0532,2.1699,1.8169,3.9551-.5161,3.9629Z"/><path d="m2175.3323,1534.794c-175.1465.3169-365.457,25.6685-565.0269,80.1846-2.7197.7358-7.0459-.2397-9.6968-2.1655q-.0024.0024,0,0c-2.6484-1.9248-2.6035-4.1123.1353-4.8682,200.8062-55.3218,392.3882-80.8589,568.5742-81.0767,2.2544.0029,5.4624,1.7832,7.0977,3.9565t0,0c1.6475,2.1841,1.1455,3.9712-1.0835,3.9692Z"/><path d="m1943.4925,1578.9103c-97.8857,12.8091-199.2588,32.8872-303.2188,60.6689-2.6621.7192-6.7148-.3774-9.0801-2.4155h0c-2.3623-2.0366-2.1152-4.2886.5591-5.0044,104.5894-28.0947,206.5503-48.3359,305.0029-61.2183,2.4277-.3271,5.9668,1.2129,7.8086,3.4087q-.0005-.0059,0,0c1.8535,2.1973,1.3262,4.2275-1.0718,4.5605Z"/><path d="m2318.3406,1972.0978c-147.7876,27.4736-305.4009,72.5293-469.877,130.9932-2.2476.7993-4.5483-.519-5.1929-2.9082t0,0c-.6138-2.4072.73-4.9922,2.9429-5.7891,164.8838-58.1118,322.8184-102.6743,470.9067-129.5693,1.915-.3291,3.708,1.0156,4.0439,3.0059t0,0c.3257,2.0029-.9116,3.9199-2.8237,4.2676Z"/><path d="m2314.5008,1948.7662c-148.6714,25.6294-307.4019,69.0532-473.1274,126.4121-2.2446.7847-4.5776-.5552-5.1787-2.9731q.0068-.0029,0,0c-.5981-2.4209.7515-5.041,3.0156-5.8052,166.127-57.0156,325.166-99.916,474.1201-124.9653,1.9111-.334,3.7031,1.0723,4.041,3.0796h0c.3271,1.9951-.9658,3.9189-2.8706,4.252Z"/><path d="m2322.6424,1996.5006c-146.8105,29.3823-303.2061,76.1245-466.2905,135.7217-2.2339.8062-4.5708-.4595-5.2266-2.8281.0039.0078,0,.0078,0,0-.6616-2.3413.6118-4.9858,2.8374-5.7632,163.5044-59.2827,320.2534-105.5161,467.3701-134.334,1.8823-.3823,3.7134.9653,4.0654,2.9268.0015-.0054-.0044-.0054,0,0,.3506,1.9746-.8867,3.8994-2.7559,4.2769Z"/><path d="m2116.0438,2075.5006c-81.5864,24.522-165.4536,53.2905-251.2007,85.4536-2.1895.8262-4.5977-.4121-5.291-2.7373t0,0c-.7192-2.334.5054-4.9258,2.7031-5.7305,85.9971-31.9897,170.0645-60.5591,251.8682-84.8267,2.042-.6025,4.1045.6855,4.6323,2.8291.0103,0-.0024,0,0,0,.52,2.1323-.688,4.4019-2.7119,5.0117Z"/><path d="m2379.7708,2179.2188c-135.2949,41.8291-277.8389,98.8076-425.2451,165.0957-1.9927.8882-4.8198.0757-6.2842-1.8364t0,0c-1.4414-1.9102-.9883-4.2246,1.0352-5.1099,148.1948-66.1597,291.4331-122.894,427.3091-164.3892,1.7456-.5293,3.8657.4492,4.7363,2.1572h0c.8755,1.7227.1841,3.5439-1.5513,4.0825Z"/><path d="m2369.9354,2159.0758c-137.1235,40.7212-281.8403,96.8853-431.6748,162.707-2.0283.895-4.7881-.0034-6.104-1.9873h0c-1.3286-1.9771-.7144-4.3472,1.3286-5.2383,150.5645-65.644,295.9102-121.5444,433.5845-161.8872,1.772-.5146,3.8228.4941,4.6177,2.2646t0,0c.7944,1.769-.0063,3.5933-1.752,4.1411Z"/><path d="m2391.3196,2199.901c-133.188,42.8555-273.2544,100.543-417.8872,167.1978-1.9424.8984-4.8965.1729-6.4824-1.6704.0015.0024.0015.0015,0,0-1.6133-1.8154-1.2568-4.0771.688-4.9692,145.4717-66.5708,286.3057-124.0396,420.1299-166.6221,1.7378-.5464,3.894.3784,4.8711,2.0444t0,0c.9746,1.6646.3965,3.4683-1.3193,4.0195Z"/><path d="m2215.3665,2290.6515c-72.2842,29.6763-146.1006,62.7251-221.1382,98.123-1.9204.9082-4.9253.2422-6.6982-1.498h0c-1.7441-1.7363-1.5947-3.9014.3325-4.8037,75.5249-35.3687,149.7944-68.3862,222.5171-97.9697,1.7974-.7383,4.3716.0596,5.7441,1.752t0,0c1.3569,1.6724,1.0347,3.6626-.7573,4.3965Z"/><path class="cls-7" d="m2512.2337,2399.3126c-142.9268,20.3848-282.0186,49.9688-413.4492,83.3716-24.2588,6.2866-61.8457-10.3159-76.5024-37.8315-76.6411-138.4736-12.4634-274.1328,54.5103-408.0645,66.1777-135.604,135.1514-269.4839,49.7358-443.021-17.8545-35.9551-19.668-46.458,7.6284-45.5098,146.5874,3.6572,338.0269,35.167,474.6567,79.0859,25.4292,7.9014,24.7124,15.4004,46.8862,46.0483,112.6582,160.3296,79.1992,248.2397,21.0547,349.5029-58.0742,97.5107-140.832,208.374-125.1367,327.9229,2.4863,23.1133-12.833,44.6006-39.3838,48.4951Z"/><path d="m2675.3807,1927.8609c-156.9067-31.2822-321.6343-41.8535-489.3174-34.8193-2.1851.082-3.3853-1.4189-2.6152-3.3506h0c.7559-1.9536,3.1885-3.6138,5.3877-3.6836,167.4355-6.5562,331.8311,4.5952,488.3564,36.4741,2.0542.4199,3.3608,1.9814,2.8535,3.4492t0,0c-.5151,1.4751-2.5933,2.354-4.665,1.9302Z"/><path d="m2680.7855,1910.5763c-155.6904-33.1694-319.375-45.5317-486.188-40.0151-2.2075.0601-3.4263-1.4351-2.7466-3.3833h0c.6973-1.9326,3.0166-3.5742,5.209-3.6416,166.5327-5.0591,329.8618,7.8569,485.1768,41.5869,2.0269.4355,3.4175,2.0449,3.0068,3.5327h0c-.394,1.499-2.3989,2.3496-4.458,1.9204Z"/><path d="m2668.511,1945.9039c-158.1323-29.1699-323.9253-37.7744-492.4131-29.0786-2.21.0996-3.3447-1.3633-2.5029-3.3257.0005,0,.0015,0,0,0,.8154-1.9414,3.3438-3.6221,5.5493-3.73,168.271-8.1929,333.7417.9917,491.5171,30.8052,2.0693.3984,3.2969,1.9141,2.7129,3.3755q0,.0044,0,0c-.5825,1.4453-2.7808,2.3545-4.8633,1.9536Z"/><path d="m2428.2054,1938.8014c-86.4844-4.332-174.3213-3.5371-262.8765,1.8921-2.2285.1294-3.3252-1.3374-2.4131-3.2979-.0005-.0039-.0005-.0029,0,0,.9058-1.9536,3.4761-3.6548,5.6758-3.7852,88.4468-5.1558,176.1724-5.6743,262.5073-1.019,2.1665.1265,3.3315,1.6226,2.5098,3.313t0,0c-.7925,1.6943-3.228,3.001-5.4033,2.897Z"/><path d="m2665.8289,1745.3468c-146.3438-42.9092-300.249-64.8896-457.5884-68.021-2.0908-.0469-4.2559-1.7256-4.8584-3.7466t0,0c-.6143-2.0083.5312-3.6597,2.6045-3.6108,156.9849,3.2227,310.5757,25.3105,456.6357,68.2954,1.9106.5591,4.2651,2.6343,5.1274,4.5854h0c.8955,1.9424-.0137,3.0605-1.9209,2.4976Z"/><path d="m2654.7669,1722.3819c-145.5278-43.085-298.4214-65.3213-454.6006-68.6807-2.0591-.0464-4.4155-1.7319-5.2329-3.791q-.002.0034,0,0c-.8452-2.0444.1235-3.6948,2.1748-3.6475,155.8018,3.3965,308.4092,25.6426,453.708,68.7388,1.9092.5669,4.3984,2.7075,5.4829,4.7378.0054.0044.0054-.0015,0,0,1.0938,2.0322.3867,3.21-1.5322,2.6426Z"/><path d="m2675.0159,1768.5846c-147.2549-42.439-302.3145-63.9507-460.9233-66.6064-2.0713-.041-4.1084-1.6865-4.4937-3.7007q-.0034-.001,0,0c-.4111-2.0073.9707-3.605,3.0332-3.5806,158.2251,2.8086,312.9624,24.5049,459.9209,67.1064,1.9404.5723,4.0996,2.5635,4.772,4.4219h0c.6875,1.8555-.3682,2.9258-2.3091,2.3594Z"/><path d="m2464.7576,1745.2252c-81.0376-11.6333-163.6899-17.8101-247.3481-18.8574-2.1304-.0117-3.938-1.6602-4.1665-3.6465q.0015-.0005,0,0c-.1792-1.978,1.3345-3.5864,3.4365-3.5581,83.4609,1.1606,165.9209,7.4517,246.7808,19.2183,2.0361.3027,3.9951,2.0771,4.375,3.9644.0005-.0083.0005-.0073,0,0,.3315,1.8804-1.0356,3.1753-3.0776,2.8794Z"/><path d="m2588.2308,2090.8565c-165.0815-9.9595-335.0347-1.5532-504.8457,20.0952-2.2544.2896-3.3188-1.1313-2.4556-3.1543t0,0c.854-2.0215,3.4663-3.9033,5.6934-4.1826,169.9668-21.2114,339.9238-29.0132,504.9009-18.3198,2.1782.1509,3.186,1.4985,2.293,3.0278h0c-.9004,1.5259-3.4229,2.6528-5.5859,2.5337Z"/><path d="m2598.783,2073.1451c-164.6475-12.3208-334.625-5.8892-504.8486,14.3726-2.2227.2544-3.335-1.144-2.3828-3.1738q-.0093.0044,0,0c.9448-2.0195,3.5239-3.8721,5.7856-4.1338,170.2998-19.8115,340.2422-25.6191,504.748-12.5591,2.1616.1743,3.189,1.5337,2.2803,3.0498.0029-.0049.0029-.001,0,0-.8931,1.5127-3.4175,2.6045-5.5825,2.4443Z"/><path d="m2577.2352,2109.7843c-165.3726-7.4985-335.1519,2.9526-504.3281,25.9956-2.2178.2773-3.375-1.0986-2.5503-3.1343t0,0c.8281-2.0396,3.3398-3.9224,5.5742-4.2319,169.3848-22.6367,339.2344-32.4834,504.5405-24.2637,2.1733.0942,3.2261,1.4546,2.3306,3.0073-.0078-.0015-.0078-.0024,0,0-.8931,1.5181-3.396,2.7368-5.5669,2.627Z"/><path d="m2327.7254,2133.0567c-87.9614,5.4131-176.3364,14.9014-264.4463,27.6348-2.2246.3145-3.4141-1.0615-2.6685-3.1143q0,.0054,0,0c.7568-2.0361,3.21-3.9619,5.4233-4.2744,88.2646-12.5474,176.7266-21.7778,264.751-26.8843,2.2046-.126,3.3276,1.2588,2.4854,3.0801-.0044-.0039-.0044-.0029,0,0-.8462,1.8267-3.3276,3.4165-5.5449,3.5581Z"/><path d="m2512.0814,2269.9405c-161.0117,10.4043-321.9463,34.4033-478.2559,65.5815-2.0542.4141-3.8843-.9111-4.0308-2.9438.0029-.0005.0039-.0015,0,0-.1309-2.0264,1.4346-4.0566,3.522-4.4336,157.0498-30.9478,318.5615-54.5698,479.9805-64.3823,2.1265-.125,3.5679,1.1543,3.2275,2.8462-.0024-.001-.0024-.002,0,0-.3291,1.6958-2.3223,3.189-4.4434,3.332Z"/><path d="m2516.3929,2250.2267c-162.2363,8.5142-324.9434,31.1948-483.5566,61.6616-2.0669.3862-3.811-.9214-3.7949-2.9692q.0054-.001,0,0c.0273-2.0312,1.7549-4.0088,3.8647-4.4307,159.2964-30.2217,322.521-52.4844,485.083-60.3936,2.1323-.1084,3.5161,1.1973,3.0684,2.8677h0c-.4385,1.6777-2.5254,3.1631-4.6646,3.2642Z"/><path d="m2508.9437,2290.8868c-159.5312,12.3101-318.3408,37.6284-471.9741,69.5024-2.0225.4268-3.9971-.9082-4.2954-2.9165q-.0093.0024,0,0c-.3154-2.0396,1.1035-4.0249,3.1313-4.4443,154.4585-31.6592,313.9185-56.6133,473.9082-68.3613,2.0825-.1538,3.6392,1.1138,3.4199,2.8223t0,0c-.2266,1.7085-2.0947,3.2241-4.1899,3.3975Z"/><path d="m2283.1199,2339.941c-81.3901,12.8159-161.8188,28.2095-240.6982,45.2178-1.9893.4165-4.0566-.8677-4.5801-2.8857h0c-.5298-2.0239.7192-4.0239,2.7178-4.4404,79.3457-16.9141,160.2012-32.1562,241.9556-44.7896,2.0571-.3208,3.8462.9839,4.0112,2.8677q-.0039-.0034,0,0c.144,1.8921-1.3481,3.7085-3.4062,4.0303Z"/><path class="cls-5" d="m3223.0526,2472.1808c-109.8723,13.7705-229.6667,46.9619-355.6985,96.623-19.4749,7.6772-60.1125,6.0806-85.675-6.9878-87.2617-43.1855-135.7002-107.499-167.6221-178.9365-31.8999-71.9248-47.2837-150.9756-67.9321-234.856-20.7246-83.9385-46.7158-172.6982-101.5718-265.3794-55.0269-92.311-138.9175-188.5435-279.4038-278.959-51.0884-31.8271-69.6147-56.2549-30.9927-55.4277,241.0938,6.9414,456.999,57.7725,641.2466,139.2158,26.9583,11.7471,73.4392,50.3291,99.1108,82.52,145.9888,187.2314,181.7422,303.627,207.0254,408.9526,25.1548,102.6694,39.8398,194.269,140.6953,270.5928,15.1616,11.1338,16.959,20.5645.8179,22.6421Z"/><path d="m3024.2447,2081.2931c-136.5942-44.7798-291.9055-67.9419-462.425-68.2627-2.3232-.0156-4.9043-1.957-5.7837-4.3428h0c-.8765-2.3945.2837-4.3633,2.6245-4.3247,171.0322,1.1006,326.709,25.1729,463.5779,70.8604,1.7546.5845,3.635,2.4341,4.1836,4.0957q.0027.002,0,0c.5586,1.6699-.4233,2.5576-2.1772,1.9741Z"/><path d="m3017.577,2061.6881c-137.5171-47.6772-294.0991-73.7163-466.314-76.5015-2.3232-.0396-5.0674-2.0444-6.0381-4.4624q-.0015-.0039,0,0c-.9873-2.4087.1035-4.3853,2.4526-4.3203,172.7896,3.5425,329.8147,30.4556,467.6521,79.0352,1.7632.6128,3.7007,2.522,4.3262,4.2495.0027-.0054-.0012-.0054,0,0,.603,1.707-.3198,2.6025-2.0789,1.9995Z"/><path d="m3030.5269,2101.4186c-135.7852-41.7017-289.9172-61.7866-458.8889-59.3828-2.3076.0229-4.7852-1.8647-5.5581-4.2227h0c-.7563-2.3672.4741-4.3047,2.7769-4.3311,169.4102-1.5811,323.8557,19.415,459.8838,62.0322,1.7383.5415,3.5664,2.3218,4.0537,3.9385q.0029.0049,0,0c.4883,1.6094-.52,2.5156-2.2673,1.9658Z"/><path d="m2834.3841,2081.0387c-80.2002-9.6382-165.1104-13.1011-254.0688-10.3491-2.2588.085-4.707-1.7764-5.3647-4.1045q-.0024-.0015,0,0c-.666-2.3203.6104-4.3076,2.8989-4.3506,89.1836-2.2817,174.2451,1.6226,254.6077,11.749,1.9973.252,4.0466,2.0547,4.5811,3.979t0,0c.5303,1.9326-.6763,3.3027-2.6541,3.0762Z"/><path d="m2916.4175,1863.9396c-155.2537-70.5967-334.8289-117.0039-534.8157-133.1309-2.7534-.2246-7.1929-2.6445-10.0054-5.4146h0c-2.7959-2.7637-2.8887-4.8555-.1323-4.6274,201.6807,16.1821,382.6777,63.104,539.0969,134.4673,1.9851.9097,4.928,3.6147,6.5579,6.0151h0c1.5847,2.373,1.2859,3.6006-.7014,2.6904Z"/><path d="m2896.9693,1835.6476c-159.0916-72.9463-343.5164-120.9834-549.1047-137.1025-2.8154-.2329-7.6357-2.6948-10.7515-5.4668h0c-3.1226-2.7842-3.4575-4.9229-.606-4.6958,207.498,16.0122,393.5557,64.4917,553.9446,138.1499,2.0491.9419,5.1833,3.7632,6.9771,6.2739t0,0c1.7793,2.4863,1.5728,3.7744-.4595,2.8413Z"/><path d="m2934.7967,1892.4493c-151.7261-68.0059-326.7979-112.4414-521.5469-128.0703-2.6499-.2158-6.7974-2.6016-9.29-5.3228q-.0015.001,0,0c-2.4883-2.7212-2.373-4.7866.3125-4.5693,196.2212,15.8164,372.5884,60.8818,525.2944,129.6543,1.9502.8843,4.7397,3.4829,6.158,5.752t0,0c1.4299,2.2769,1.0037,3.4282-.928,2.5562Z"/><path d="m2727.7083,1843.483c-89.7314-22.6943-185.4277-38.2549-286.4707-46.0718-2.5859-.1929-6.4482-2.5347-8.6543-5.2192h0c-2.2061-2.6826-1.877-4.7168.7202-4.5112,101.7642,7.998,198.0962,23.8389,288.3989,46.8569,2.2271.5576,5.4321,3.0615,7.0723,5.5166,0-.0063,0-.0005,0,0,1.647,2.46,1.1313,3.9697-1.0664,3.4287Z"/><path d="m3067.1285,2248.3907c-132.1733-17.0527-280.3608-12.0029-440.6433,13.7329-2.1865.3467-4.376-1.1133-4.9346-3.2588h0c-.5298-2.1538.8354-4.1714,2.9927-4.5186,160.5964-24.8779,308.9714-29.0469,441.2791-11.0933,1.7102.2437,3.3601,1.5767,3.7212,2.979t0,0c.3513,1.4121-.7078,2.3818-2.415,2.1587Z"/><path d="m3063.0191,2231.8893c-132.5525-19.9014-281.3943-17.7637-442.6321,5.2344-2.1836.3242-4.3965-1.2031-4.9111-3.3784q.0073-.0029,0,0c-.5083-2.1782.8579-4.2202,3.062-4.5068,161.5444-22.1304,310.5527-23.356,443.23-2.5498,1.7024.2617,3.3479,1.6523,3.7039,3.0781t0,0c.3474,1.416-.7532,2.373-2.4526,2.1226Z"/><path d="m3071.7261,2265.5875c-131.7175-14.1025-279.1677-6.0439-438.3767,22.5166-2.1768.376-4.4023-1.0117-4.98-3.126.002.0049.0078.0049,0,0-.5806-2.0947.7192-4.1699,2.8916-4.5254,159.5327-27.7446,307.1973-34.9194,439.0671-19.937,1.6853.1812,3.3801,1.5034,3.7566,2.877-.0002.0015-.0022-.0015,0,0,.3784,1.3862-.6841,2.3716-2.3586,2.1948Z"/><path d="m2882.0511,2281.2457c-76.7554,4.8813-157.3745,15.8062-241.2124,32.3779-2.1387.4312-4.4434-.9233-5.0552-2.9863h0c-.6411-2.0737.6177-4.1216,2.7612-4.5249,84.0386-16.1377,164.7981-26.6357,241.7-31.0649,1.9207-.1143,3.8577,1.2051,4.3555,2.8979.0117.0005-.0059-.0015,0,0,.4924,1.6821-.6448,3.1772-2.5491,3.3003Z"/><path d="m3130.8983,2393.4469c-123.9529,5.9102-260.8269,33.4736-406.5684,79.7646-1.9692.6177-4.729-.1704-6.1328-1.7939t0,0c-1.3833-1.6147-.896-3.4751,1.103-4.0835,146.4653-45.8564,283.9385-72.8994,408.3572-78.23,1.5994-.0674,3.614.8633,4.499,2.0479t0,0c.8911,1.1953.3325,2.2178-1.2581,2.2949Z"/><path d="m3120.879,2379.4176c-125.4019,4.0063-264.1367,29.8335-412.0935,74.6553-2.001.6133-4.6895-.2852-5.9395-1.9814h0c-1.2642-1.6909-.6187-3.6001,1.3999-4.1973,148.6184-44.3115,287.8792-69.5742,413.7056-72.9434,1.625-.0347,3.5605.9204,4.374,2.1533h0c.8096,1.2319.1528,2.2456-1.4465,2.3135Z"/><path d="m3142.626,2407.8141c-122.2292,7.7378-256.9148,36.9185-400.0901,84.5117-1.9253.6421-4.8179-.0542-6.3467-1.5898,0-.0005,0,.0005,0,0-1.5591-1.521-1.1714-3.311.7524-3.9521,143.9553-47.2441,279.3289-75.9463,402.0813-83.1772,1.5935-.085,3.6506.7842,4.6406,1.937h0c.9878,1.1519.5396,2.1733-1.0376,2.2705Z"/><path d="m2978.3362,2448.6334c-69.2061,15.1357-141.29,35.8633-215.6338,61.5967-1.9033.6626-4.8545.0464-6.5776-1.3813t0,0c-1.6968-1.4272-1.519-3.1401.3906-3.792,74.8066-25.5874,147.3057-46.1519,216.9109-61.0762,1.718-.3745,4.2122.3862,5.5649,1.6636t0,0c1.3372,1.2632,1.0574,2.6157-.655,2.9893Z"/><path class="cls-7" d="m3221.1343,2544.5973c-131.4558,7.8789-258.8372,16.292-380.2656,26.374-22.4263,1.9399-56.5137-6.6577-69.0815-19.439-65.4919-65.3813-2.0886-121.9839,60.1379-175.1538,62.2598-54.3237,123.3428-105.2144,53.981-185.7983-14.3616-16.9302-15.6047-21.564,7.5437-18.6318,124.1687,15.8354,289.6448,32.2231,413.8633,39.9731,23.0688,1.481,22.4434,4.6636,42.8123,15.874,104.9172,56.8691,74.1956,102.3262,21.0471,149.5449-53.1636,46.7124-128.7544,95.186-113.925,146.4131,2.3679,10.0098-11.6824,19.3428-36.113,20.8438Z"/><path d="m3369.3633,2336.0812c-144.9712-2.3818-291.0659-7.3711-438.1985-14.1055-1.9187-.0933-2.9377-.8003-2.2302-1.5742h0c.6985-.7866,2.8577-1.3442,4.7881-1.2495,146.8538,6.8784,292.6306,11.98,437.2869,14.4546,1.9019.0322,3.1113.6191,2.6521,1.2944t0,0c-.4673.6777-2.3848,1.2188-4.2983,1.1802Z"/><path d="m3374.2693,2328.1515c-143.9629-2.6748-289.0596-8.0234-435.2229-15.2173-1.9312-.0962-2.9727-.8071-2.3435-1.5913h0c.6423-.7793,2.7063-1.3389,4.6235-1.2437,145.8496,7.3374,290.6152,12.7964,434.2568,15.564,1.8755.0298,3.168.6294,2.7957,1.3091t0,0c-.3545.6836-2.2065,1.2109-4.1096,1.1792Z"/><path d="m3363.1126,2344.4156c-145.9614-2.0752-293.061-6.6963-441.1306-12.9219-1.9421-.0835-2.9089-.7788-2.1333-1.561q.0017.001,0,0c.7556-.7754,3.0037-1.3438,4.939-1.2583,147.812,6.3818,294.606,11.0986,440.283,13.2754,1.9116.0293,3.0508.6074,2.5193,1.2832-.0007.0015-.0007.0005,0,0-.53.6719-2.5579,1.2158-4.4773,1.1826Z"/><path d="m3145.066,2348.6168c-77.4009-2.0361-155.0625-4.6211-233.0012-7.6084-1.9607-.0825-2.8918-.77-2.0559-1.5498h0c.8345-.7729,3.1245-1.3491,5.0603-1.2705,77.8101,3.0669,155.3501,5.7222,232.6079,7.8223,1.9402.0547,2.9768.6904,2.2358,1.397t0,0c-.717.7061-2.9011,1.2607-4.8469,1.2095Z"/><path d="m3359.7159,2257.7979c-134.5613-5.7915-269.595-14.5396-405.4011-25.687-1.8054-.1499-3.6423-.9937-4.1277-1.8857t0,0c-.4954-.8896.5237-1.5078,2.312-1.3564,135.3989,11.3062,270.0508,20.2173,404.2427,26.1577,1.7532.0762,3.9265.7617,4.7273,1.5288h0c.8313.7568.0007,1.3203-1.7532,1.2427Z"/><path d="m3349.4737,2248.8707c-133.4329-6.2939-267.2317-15.5596-401.7014-27.2314-1.7729-.1582-3.77-1.0225-4.4365-1.9468-.0037-.0005-.0032.0024,0,0-.6887-.9214.175-1.5474,1.9392-1.3916,134.0388,11.854,267.4641,21.2798,400.5522,27.7339,1.7476.085,4.0352.7949,5.0386,1.5728.0049.0015.0049-.0024,0,0,1.0107.7812.3677,1.3408-1.3921,1.2632Z"/><path d="m3368.2676,2267.0152c-135.7283-5.3037-272.0916-13.5508-409.3198-24.1602-1.7888-.1382-3.5281-.9614-3.8245-1.832-.0015-.0044-.0015.0024,0,0-.3235-.8633.9041-1.46,2.6853-1.3237,136.8054,10.7646,272.7893,19.1611,408.1616,24.605,1.7866.0762,3.7852.7432,4.4124,1.4858t0,0c.6426.7397-.3223,1.2974-2.115,1.2251Z"/><path d="m3178.2542,2267.1827c-72.0381-3.9233-144.3066-8.5708-216.845-13.8569-1.845-.1245-3.387-.9302-3.5503-1.7812.0017.001.0037,0,0,0-.1211-.8472,1.2153-1.4312,3.0381-1.2974,72.321,5.3618,144.3845,10.0884,216.2217,14.084,1.8069.1035,3.5491.8193,3.8799,1.6079.0002-.0029.0007-.0029,0,0,.2922.7856-.9314,1.3442-2.7444,1.2437Z"/><path d="m3289.9935,2410.9469c-151.1292.5522-302.7024-.5493-454.1086-1.9893-2.0083-.0215-2.918-.6963-2.1013-1.522h0c.8118-.8203,3.1765-1.4678,5.1599-1.4453,151.4502,1.6567,302.9761,2.9048,454.0457,2.4614,1.9939.001,2.925.5459,2.1108,1.2349t0,0c-.8198.689-3.1265,1.2456-5.1064,1.2603Z"/><path d="m3299.5941,2402.982c-150.842.1997-302.2947-1.3853-453.7671-3.4814-1.9773-.0322-2.9343-.7061-2.0352-1.522q-.0095-.0005,0,0c.8862-.812,3.2183-1.4429,5.2285-1.4146,151.4529,2.2954,302.8259,4.0239,453.5791,3.9351,1.981.001,2.9268.5527,2.1006,1.2373q.0024-.001,0,0c-.8123.6821-3.1233,1.2407-5.106,1.2456Z"/><path d="m3279.9925,2419.3941c-151.3059.9395-302.8865.3799-454.0552-.3457-1.9797-.0205-2.9758-.6924-2.1882-1.5215t0,0c.79-.8306,3.0747-1.4917,5.0676-1.4805,151.2546.936,302.8528,1.6646,454.1194.8398,1.9893-.0156,2.9585.54,2.1418,1.2324-.0056-.002-.0061-.002,0,0-.8169.6792-3.0962,1.2671-5.0854,1.2754Z"/><path d="m3053.8401,2429.0509c-79.1467.1934-158.2395.1914-237.1309.2085-1.9932-.001-3.0132-.6748-2.2959-1.522q-.0007.0015,0,0c.73-.8354,2.9634-1.5122,4.9468-1.5156,78.9797.0967,158.1038.208,237.2847.0967,1.9849.0005,2.9844.603,2.2109,1.3584q-.0044-.0044,0,0c-.7729.7524-3.0239,1.3657-5.0156,1.374Z"/><path d="m3220.764,2488.9957c-147.363,4.7485-292.9373,9.2427-435.3191,14.9551-1.8728.0771-3.4861-.5986-3.5625-1.4995.0017.001.0022.001,0,0-.0586-.8979,1.416-1.7095,3.3125-1.7651,142.9495-5.4683,288.9626-9.7495,436.6719-14.3418,1.9463-.0615,3.2661.4912,2.9602,1.2124q-.0007-.0005,0,0c-.3022.7368-2.1187,1.3726-4.063,1.439Z"/><path d="m3224.6788,2480.5333c-148.4055,4.2461-295.3186,8.0713-439.4526,12.9927-1.8777.0562-3.4089-.6108-3.3403-1.5068.0027-.0005.0027.0044,0,0,.0789-.8887,1.699-1.6641,3.6155-1.7368,144.6492-4.6733,291.9441-8.2925,440.6279-12.3833,1.949-.0586,3.217.4922,2.8125,1.2163t0,0c-.3987.7178-2.3079,1.3623-4.2629,1.418Z"/><path d="m3217.9219,2497.9791c-146.1016,5.2964-290.0454,10.4907-430.334,17.0439-1.8464.0918-3.6018-.5908-3.8127-1.4897-.0093.001-.0093,0,0,0-.2251-.9121,1.1147-1.7168,2.9648-1.7979,140.9353-6.3091,285.3865-11.2886,431.8784-16.4243,1.9058-.0742,3.334.4775,3.1367,1.2085t0,0c-.2.7349-1.9133,1.3862-3.8333,1.4595Z"/><path d="m3011.6089,2515.5738c-74.2327,3.2559-147.574,6.7139-219.7627,10.5752-1.8198.0923-3.6655-.5688-4.083-1.4771t0,0c-.4236-.9102.7678-1.7344,2.594-1.8232,72.5632-3.7358,146.2434-7.0796,220.77-10.2241,1.8777-.0835,3.4915.5239,3.6221,1.3271q-.0015-.0029,0,0c.1128.8062-1.2622,1.5405-3.1404,1.6221Z"/><path class="cls-5" d="m3888.6168,2556.422c-108.4595,21.3442-221.106,42.9907-338.0452,66.3691-18.0686,3.6343-55.6965,2.2222-79.4412-4.2051-162.2158-42.9897-181.1753-112.1431-219.4595-182.2407-38.1951-71.959-95.7156-144.8604-332.9934-238.3291-43.0107-17.5981-57.9604-30.1313-25.2278-26.0679,204.6208,24.6416,393.4856,39.7773,567.8403,47.749,25.396,1.2266,70.1338,10.1074,95.3469,19.584,145.0725,53.3433,181.0017,106.5825,204.353,159.2759,23.344,52.1797,34.1106,103.8145,128.6797,142.0742,14.0789,5.8101,14.8816,12.6353-1.053,15.7905Z"/><path d="m3704.565,2358.9186c-137.5928,8.5054-283.6899,14.7632-438.9126,19.4004-2.1172.062-4.4697-.6948-5.2737-1.6948t0,0c-.804-.9976.2493-1.8677,2.3782-1.918,155.5862-4.2725,301.9871-10.2471,439.8586-18.5249,1.77-.1064,3.647.4277,4.1794,1.1748q.0007-.002,0,0c.543.7534-.4653,1.4604-2.23,1.5625Z"/><path d="m3698.0699,2350.1588c-138.5249,7.7705-285.6582,13.1182-442.0784,16.5703-2.1133.0439-4.6055-.7412-5.4919-1.7407q-.0002.0024,0,0c-.8997-.9971.0881-1.8701,2.2192-1.9043,156.8237-3.0762,304.3159-8.1357,443.1526-15.667,1.7764-.0991,3.7139.438,4.3262,1.1929q-.0017-.002,0,0c.5891.7495-.3606,1.4487-2.1277,1.5488Z"/><path d="m3710.6365,2368.149c-136.7234,9.2583-281.8303,16.4517-435.96,22.3037-2.1089.0752-4.3643-.665-5.0806-1.6519t0,0c-.6921-.9956.4187-1.856,2.521-1.9326,154.4382-5.4951,299.8147-12.415,436.7983-21.4521,1.7498-.1147,3.5735.3999,4.0442,1.1538.0032-.002.0032.002,0,0,.4714.7485-.5623,1.4741-2.323,1.5791Z"/><path d="m3519.0716,2390.2789c-76.2937,4.4561-155.0798,8.4746-236.3853,12.2207-2.0649.104-4.3052-.6313-4.915-1.6113-.002.0005-.002-.0005,0,0-.6138-.98.5425-1.8677,2.6355-1.9497,81.4707-3.5557,160.3701-7.418,236.8093-11.7319,1.9006-.1035,3.8547.499,4.3704,1.3379t0,0c.5151.8462-.6318,1.6226-2.5149,1.7344Z"/><path d="m3597.9146,2274.5665c-153.2209.1797-317.3083-4.0879-493.1555-13.4834-2.4211-.1299-6.3103-1.2031-8.7625-2.4082t0,0c-2.4348-1.2012-2.5022-2.0762-.0823-1.9355,177.0339,10.0303,342.1086,14.7617,496.2229,14.9438,1.9568.0015,4.8596.6528,6.4675,1.4424h0c1.5662.7876,1.2688,1.4399-.6902,1.4409Z"/><path d="m3578.7584,2265.2926c-156.1274-.9907-323.6167-6.7983-503.3616-18.2988-2.4656-.1611-6.6589-1.3066-9.3552-2.5479t0,0c-2.7012-1.2427-2.9727-2.147-.4846-1.978,181.0825,12.2021,349.6997,18.5107,506.8013,19.8916,2.0049.0229,5.082.689,6.8445,1.4966q0-.001,0,0c1.7498.7988,1.5466,1.4531-.4443,1.4365Z"/><path d="m3616.0899,2284.213c-150.5022,1.3286-311.3977-1.4536-483.5969-8.8213-2.3435-.0967-6.0017-1.1211-8.188-2.2773-.0032.002-.0032.0029,0,0-2.1858-1.1602-2.0657-2.0146.3013-1.9087,173.2224,7.9473,335.0481,11.1641,486.3057,10.1626,1.9336-.0166,4.6938.6211,6.1003,1.395h0c1.4197.7812.9915,1.4326-.9224,1.4497Z"/><path d="m3417.4432,2294.5826c-83.731-.6597-170.4316-2.4331-260.2603-5.3501-2.2986-.0713-5.7253-1.0439-7.6726-2.1675t0,0c-1.9453-1.1167-1.6519-1.9751.6575-1.8906,90.3362,3.21,177.4861,5.2334,261.6367,6.0962,2.0742.0132,5.0732.7817,6.6145,1.6919.0012-.0054.0022-.0054,0,0,1.5547.9082,1.0776,1.6279-.9758,1.6201Z"/><path d="m3744.6226,2440.9596c-131.6638,14.8125-271.052,28.7734-418.7683,43.3794-2.0166.1978-4.043-.3931-4.5662-1.3232t0,0c-.4968-.9326.7502-1.8398,2.7395-2.0405,147.9661-14.3037,287.5452-28.0381,419.4133-42.6592,1.7034-.1841,3.324.2534,3.6489.9805t0,0c.3137.7295-.7673,1.4795-2.4673,1.6631Z"/><path d="m3740.9034,2432.4811c-132.2517,14.1948-272.3181,27.4097-420.7861,41.0557-2.0098.1909-4.0581-.4272-4.5398-1.3647.0059,0,.0054,0,0,0-.4792-.937.7722-1.8599,2.8008-2.0361,148.7073-13.3374,288.9504-26.3208,421.3918-40.3184,1.7012-.1836,3.314.2754,3.6401,1.0054t0,0c.3135.7246-.811,1.4756-2.5068,1.6582Z"/><path d="m3748.782,2449.8277c-130.9973,15.4497-269.6165,30.1802-416.4702,45.77-2.0095.2109-4.0706-.3643-4.6116-1.2769.0002.0029.0051.0068,0,0-.542-.9053.6465-1.8457,2.6472-2.0425,147.1157-15.3047,285.9604-29.8057,417.1699-45.0684,1.6768-.2002,3.3369.2422,3.675.9526.0017.0005-.0027-.0005,0,0,.3408.7168-.7446,1.4678-2.4104,1.665Z"/><path d="m3564.7076,2481.0274c-72.8618,8.4209-147.9517,16.876-225.3535,25.6641-1.9773.2295-4.1096-.3271-4.6858-1.2275h0c-.5994-.9038.5496-1.8267,2.5295-2.0415,77.5693-8.6387,152.7876-16.9658,225.7974-25.2681,1.821-.2065,3.6638.2739,4.1345,1.0615.0132-.0015-.0029-.0005,0,0,.469.7812-.6174,1.5996-2.4221,1.8115Z"/><path d="m3803.0516,2515.9024c-122.0991,19.7266-250.4463,39.5723-385.5015,61.374-1.8228.293-4.3921-.0596-5.7009-.7925h0c-1.2878-.7368-.8518-1.5786,1.0037-1.8706,135.7144-21.645,264.6211-41.3472,387.2009-60.9478,1.5737-.2539,3.5166.0508,4.3359.6636t0,0c.8245.6182.2297,1.3184-1.3381,1.5732Z"/><path d="m3793.7899,2508.6739c-123.6021,19.3198-253.6968,38.6899-390.7617,59.96-1.8511.2939-4.3521-.1025-5.5212-.8618h0c-1.1785-.7603-.593-1.6255,1.2776-1.9126,137.6602-21.085,268.2524-40.3018,392.303-59.4888,1.6001-.2466,3.4697.0708,4.2214.7061t0,0c.7478.6367.0549,1.3408-1.519,1.5972Z"/><path d="m3813.9102,2523.2994c-120.3506,20.1118-246.6489,40.4185-379.3687,62.6997-1.7805.2993-4.4744-.0122-5.8992-.7178q.001.0005,0,0c-1.4556-.6938-1.1045-1.522.6809-1.8223,133.427-22.1475,260.366-42.3164,381.249-62.3257,1.5691-.2529,3.5481.0283,4.4653.6191h0c.9167.5923.4226,1.2896-1.1274,1.5469Z"/><path d="m3655.0667,2559.6466c-65.5662,11.1611-132.7903,22.6084-201.7239,34.6323-1.7639.3062-4.5095.0239-6.113-.6416h0c-1.5811-.6655-1.4258-1.4575.3472-1.7637,69.3572-11.9712,136.9666-23.3647,202.906-34.4604,1.6287-.2812,3.9783.0059,5.2393.6201h0c1.2471.6084.9673,1.3379-.6555,1.6133Z"/><path class="cls-7" d="m3913.211,2593.0646c-131.3728,11.2358-258.6902,22.0103-379.9705,33.395-22.396,2.1562-57.0347-4.2441-70.3049-14.5376-69.1006-52.5137-8.4116-100.748,51.2861-149.0181,59.6694-48.7046,118.3472-97.4438,44.5764-161.0254-15.2896-13.2998-16.7783-17.1084,6.6082-16.5166,125.4387,3.3638,292.1858,2.937,416.9849-2.0718,23.1816-.8799,22.7202,2.1025,43.6987,10.5718,215.8103,86.7861-112.9348,187.7959-77.7502,279.0513,2.887,9.0635-10.717,18.0449-35.1287,20.1514Z"/><path d="m4050.9832,2393.3111c-145.3225,8.6924-292.0291,14.3672-439.9895,17.7563-1.9304.0366-2.99-.4946-2.3191-1.2119t0,0c.6592-.7119,2.7998-1.333,4.7397-1.3716,147.6843-3.3252,294.0798-8.9482,439.0894-17.6133,1.907-.1128,3.1501.3364,2.7234,1.0107t0,0c-.4341.6733-2.3262,1.3169-4.2439,1.4297Z"/><path d="m4055.4854,2385.5138c-144.3225,8.5938-290.0447,14.125-437.0505,17.2935-1.9409.0391-3.0288-.502-2.4336-1.2168h0c.6042-.7134,2.6462-1.3267,4.5745-1.3662,146.6956-3.1001,292.0911-8.5835,436.0959-17.1416,1.8806-.1187,3.2034.3472,2.8682,1.0093t0,0c-.3184.666-2.1479,1.3105-4.0544,1.4219Z"/><path d="m4045.1553,2401.5675c-146.3076,8.7852-294.0073,14.5957-442.884,18.2217-1.9531.0366-2.96-.4868-2.2212-1.2075.0012,0,.0012-.001,0,0,.7175-.708,2.9441-1.3301,4.8909-1.3779,148.6262-3.5518,296.0232-9.3252,442.0476-18.085,1.9155-.1108,3.0884.3364,2.5898,1.0137q-.0005.002,0,0c-.498.6714-2.4976,1.3247-4.4231,1.4351Z"/><path d="m3826.8782,2420.6251c-77.698,3.2847-155.7156,5.8696-234.0667,7.896-1.9712.0449-2.9414-.4873-2.1423-1.2031q.001,0,0,0c.7983-.7119,3.0654-1.3389,5.0115-1.3857,78.2251-1.9868,156.1235-4.5493,233.6804-7.8076,1.947-.0845,3.0208.4175,2.3135,1.0996t0,0c-.6816.6904-2.8413,1.3135-4.7964,1.4009Z"/><path d="m4037.254,2320.9503c-135.05,6.7983-270.8474,10.3804-407.6694,11.2046-1.8157.0117-3.7073-.5752-4.2383-1.3086t0,0c-.5417-.7236.4475-1.3369,2.2498-1.3467,136.4197-.7114,271.8474-4.1675,406.5352-10.8657,1.7615-.0923,3.9709.3589,4.8135.9961t0,0c.873.6313.0708,1.2339-1.6907,1.3203Z"/><path d="m4026.5333,2313.5602c-133.9485,6.4346-268.5388,9.6328-404.0527,10.0737-1.7881.0117-3.8335-.5908-4.5515-1.3291q-.0024.001,0,0c-.7361-.7354.0945-1.3447,1.8738-1.3506,135.0916-.3101,269.3167-3.3872,402.9309-9.6982,1.7559-.0791,4.0811.3643,5.1279.999.0044.002.0044-.002,0,0,1.052.6279.4373,1.2246-1.3284,1.3052Z"/><path d="m4046.2972,2328.7936c-136.1909,7.1523-273.292,11.0771-411.5103,12.2783-1.8027.0151-3.5879-.5601-3.9314-1.291q-.0012.0015,0,0c-.3665-.7334.8318-1.3281,2.6257-1.3462,137.8-1.0908,274.5354-4.9199,410.3738-11.9702,1.7937-.0898,3.8289.3535,4.4958.9941h0c.6824.6299-.2571,1.2441-2.0537,1.335Z"/><path d="m3855.9466,2345.2164c-72.4036,2.3589-145.1047,3.9067-218.1504,4.71-1.8589.0278-3.4448-.5513-3.6536-1.2739q.0024.0039,0,0c-.1646-.7212,1.1445-1.3257,2.9812-1.3452,72.8276-.7534,145.334-2.2485,217.5376-4.5625,1.8167-.0557,3.5989.4482,3.9717,1.1274.0007-.0024.0002-.0044,0,0,.333.6816-.8652,1.2832-2.6865,1.3442Z"/><path d="m3975.345,2468.0455c-151.4138,9.3281-303.4607,16.3252-455.4646,22.1519-2.0161.0762-2.9668-.4531-2.1873-1.1846t0,0c.772-.7324,3.1113-1.3799,5.103-1.4609,152.0574-5.7251,304.0657-12.6743,455.4211-21.9766,1.9983-.1191,2.9607.3291,2.1787,1.0122h0c-.7832.6797-3.0674,1.3281-5.051,1.458Z"/><path d="m3984.5533,2460.1456c-151.136,9.2549-303.0813,16.0889-455.1851,21.6021-1.9858.063-2.978-.4556-2.1208-1.187q-.0095.0039,0,0c.8472-.7266,3.1553-1.3721,5.1738-1.4478,152.0874-5.4185,303.9692-12.2065,455.0151-21.4365,1.9861-.1187,2.9617.3345,2.1687,1.0127.0012-.0029.0012-.002,0,0-.7776.6807-3.0657,1.335-5.0518,1.4565Z"/><path d="m3965.7588,2476.378c-151.5747,9.4033-303.6133,16.6016-455.3391,22.772-1.9866.0732-3.0232-.4482-2.2742-1.1821h0c.7512-.7349,3.0066-1.3872,5.0085-1.4746,151.8247-6.0669,303.8838-13.2056,455.4248-22.584,1.9902-.1255,2.9917.3276,2.2102,1.0103-.0046-.0024-.0046-.0034,0,0-.7795.6714-3.0383,1.3433-5.0303,1.4585Z"/><path d="m3739.5484,2496.9967c-79.3564,4.0732-158.6987,7.7188-237.8608,11.144-1.9971.084-3.0591-.4385-2.3828-1.1792.0005-.0005,0,.0005,0,0,.6887-.7393,2.8958-1.4053,4.886-1.4888,79.2566-3.3662,158.634-6.9756,238.03-11.0093,1.9893-.1001,3.0239.3862,2.2869,1.0811-.0046-.0039-.0046-.002,0,0-.7397.6934-2.9604,1.3486-4.9592,1.4521Z"/><path d="m3909.9817,2542.7296c-147.4692,10.4731-293.2393,19.731-435.8044,29.1357-1.8772.1255-3.5315-.3892-3.6519-1.1353q.002.001,0,0c-.1057-.7505,1.3323-1.4683,3.2324-1.5815,143.147-9.271,289.3687-18.4487,437.1936-28.8662,1.9458-.1401,3.2993.3071,3.0293.9736q-.0015-.0015,0,0c-.262.6743-2.053,1.3276-3.999,1.4736Z"/><path d="m3913.4713,2534.8961c-148.5381,10.3091-295.6841,19.2778-440.052,28.2744-1.8831.1123-3.4568-.3955-3.4302-1.1445.0039-.002.0044-.002,0,0,.0337-.7437,1.6196-1.4507,3.5383-1.5728,144.8958-8.8628,292.4402-17.7485,441.2617-28.0093,1.9502-.1343,3.252.3149,2.8821.9795h0c-.364.6748-2.2429,1.335-4.2,1.4727Z"/><path d="m3907.5953,2550.9796c-146.1787,10.6567-290.2812,20.229-430.6951,30.0605-1.8491.1353-3.644-.3823-3.9023-1.1245q-.0095.0005,0,0c-.2744-.7598,1.0303-1.4639,2.8821-1.5938,141.0789-9.6987,285.698-19.189,432.2761-29.7847,1.9045-.1411,3.3669.2964,3.2065.9668t0,0c-.1672.6704-1.8484,1.3354-3.7673,1.4756Z"/><path d="m3701.6419,2574.2135c-74.2751,5.3535-147.6667,10.625-219.8943,15.9878-1.8196.1294-3.7048-.3638-4.1726-1.1123h0c-.4736-.7461.6787-1.4668,2.5085-1.5991,72.6094-5.2983,146.3462-10.5103,220.9241-15.8203,1.8787-.1343,3.5271.3345,3.7004,1.0278q-.0027.0015,0,0c.156.6953-1.1873,1.3838-3.0662,1.5161Z"/><path class="cls-5" d="m4582.6172,2583.9864c-107.4614,25.6235-219.1797,50.1997-335.1628,74.7471-17.9197,3.8159-55.7117,2.9341-79.8428-2.832-164.7993-38.2715-187.3984-100.2227-229.3621-162.5332-41.9868-63.1597-103.3374-126.6802-346.1812-187.7407-44.0679-11.647-59.7241-21.0337-26.6621-20.2656,206.6238,4.2031,396.6345.0137,571.5432-10.1689,25.481-1.4253,70.7085,2.4937,96.4307,9.2119,295.6685,74.9873,155.6753,208.4492,349.4277,282.873,14.4175,5.6807,15.5981,12.9297-.1907,16.7085Z"/><path d="m4387.7183,2389.8727c-137.2024,19.0562-283.1438,35.5493-438.4492,49.7397-2.1167.1865-4.5156-.3525-5.3726-1.2109h0c-.8567-.8594.1555-1.7236,2.2842-1.9077,155.6899-13.9688,301.9502-30.3086,439.4412-49.2319,1.7629-.2427,3.6697.147,4.2441.8647q0,.0015,0,0c.5845.7202-.3877,1.5093-2.1477,1.7461Z"/><path d="m4380.7523,2381.5455c-138.1677,18.6382-285.1956,34.6128-441.7629,48.103-2.1157.1826-4.6504-.3682-5.593-1.2251q.0012,0,0,0c-.9521-.8506-.0063-1.71,2.1252-1.8843,156.9939-13.2612,304.3958-29.0747,442.8845-47.5815,1.7727-.2397,3.738.145,4.3921.8608q-.0012-.002,0,0c.6299.7061-.2812,1.4902-2.0459,1.7271Z"/><path d="m4394.2869,2398.7345c-136.2957,19.4785-281.2029,36.501-435.3486,51.4189-2.1091.2036-4.4104-.3374-5.1768-1.1978h0c-.7483-.8628.325-1.7222,2.4265-1.9268,154.4727-14.7012,299.6655-31.5654,436.2302-50.9263,1.7466-.2524,3.5991.1421,4.1082.8638.0042.0068.0042-.001,0,0,.511.7217-.4856,1.5283-2.2395,1.7681Z"/><path d="m4203.7271,2434.1622c-76.1531,9.4341-154.863,18.2524-236.1411,26.5542-2.0652.2168-4.3484-.3184-5.0078-1.1836-.0034.0015-.0034.0005,0,0-.6667-.8623.4465-1.7422,2.5398-1.9473,81.4568-8.1895,160.2834-16.9219,236.5903-26.2695,1.8965-.2285,3.8867.2227,4.4458.998t0,0c.5564.7817-.5471,1.6118-2.427,1.8481Z"/><path d="m4276.5384,2314.9371c-153.2688,14.5581-317.7957,25.1011-494.5786,30.7612-2.4346.0776-6.3901-.5679-8.9092-1.436h0c-2.5037-.8696-2.616-1.6401-.1821-1.7061,178.012-5.2686,343.5559-15.543,497.7378-29.9102,1.9565-.1777,4.8955.1855,6.5466.8091t0,0c1.6074.6226,1.3447,1.2964-.6145,1.4819Z"/><path d="m4256.8841,2307.648c-156.2463,13.9448-324.2664,23.6079-505.0901,27.9463-2.4785.0576-6.7485-.6143-9.5122-1.4912t0,0c-2.7739-.8745-3.0913-1.6528-.5881-1.7017,182.2048-3.8979,351.3958-13.2749,508.6326-27.0112,2.0071-.1729,5.1213.1865,6.9268.8076h0c1.7922.6162,1.6233,1.2705-.3689,1.4502Z"/><path d="m4295.2313,2322.7574c-150.4829,15.1636-311.7285,26.5503-484.73,33.4688-2.3547.0903-6.074-.5259-8.3254-1.3862q-.002.0015,0,0c-2.251-.8535-2.1724-1.6299.2031-1.7227,174.0662-6.564,336.2649-17.6958,487.5215-32.6899,1.9338-.1895,4.7258.1738,6.177.8125h0c1.4604.6421,1.0674,1.3237-.8462,1.5176Z"/><path d="m4096.9722,2350.4254c-83.8694,6.5171-170.8162,11.9526-261.0081,16.2456-2.3086.1187-5.7915-.4917-7.8025-1.3477t0,0c-2.0105-.8516-1.7561-1.6377.5615-1.7412,90.7173-4.1162,178.1294-9.4111,262.4307-15.8032,2.0793-.165,5.1184.3086,6.7107,1.0317.0012-.0039.0007-.0039,0,0,1.6064.7275,1.1606,1.4512-.8923,1.6147Z"/><path d="m4432.1976,2470.3824c-130.9863,22.6162-269.8501,43.4824-417.1282,63.5547-2.01.2788-4.0715-.1938-4.644-1.0234t0,0c-.5461-.8364.6565-1.7437,2.6396-2.0112,147.5427-19.9004,286.6091-40.6387,417.8083-63.146,1.6963-.2847,3.3374.0679,3.7048.7891h0c.3579.728-.6885,1.5474-2.3806,1.8369Z"/><path d="m4428.0206,2461.9615c-131.6013,22.2725-271.1819,42.7217-419.2576,62.2344-2.0054.2681-4.0869-.2075-4.6201-1.0513.0051-.0015.0056-.0054,0,0-.5291-.8428.678-1.7549,2.7012-2.0137,148.3318-19.3442,288.0999-39.6499,419.8992-61.8135,1.6912-.2896,3.3328.0835,3.6973.8062h0c.3533.7222-.7332,1.5493-2.4199,1.8379Z"/><path d="m4436.837,2479.193c-130.2922,22.9653-268.3538,44.2671-414.7148,64.9028-2.002.2793-4.0981-.1621-4.688-.9897.0017.0024.0042.0024,0,0-.5891-.8159.551-1.7349,2.5481-2.0059,146.6399-20.4805,284.9373-41.6484,415.4482-64.5078,1.6682-.293,3.3528.0566,3.73.7681,0,.0005-.0024-.0005,0,0,.3806.7104-.6672,1.5415-2.3235,1.8325Z"/><path d="m4254.1883,2519.8043c-72.532,11.688-147.322,23.0513-224.436,34.3022-1.9707.2817-4.1362-.1421-4.759-.9526t0,0c-.6484-.814.4551-1.7153,2.4294-1.9971,77.2876-11.1626,152.2153-22.4604,224.8997-34.0801,1.8152-.2866,3.6824.0942,4.1968.8403.012-.0024-.0042.0044,0,0,.51.7432-.5334,1.5996-2.3308,1.8872Z"/><path d="m4494.7261,2544.5206c-121.1968,25.1655-248.7314,49.1382-382.9583,73.1855-1.8127.3232-4.4045.0566-5.7551-.604t0,0c-1.3301-.6606-.9336-1.4653.9097-1.7925,134.8938-23.9673,262.9973-47.8687,384.6812-72.9844,1.5645-.3154,3.5244-.084,4.3772.5151h0c.8599.6084.2993,1.3555-1.2546,1.6802Z"/><path d="m4485.0616,2537.4215c-122.7197,24.9839-252.0283,48.728-388.2957,72.5073-1.8438.3286-4.3677.0229-5.5781-.6611t0,0c-1.22-.6812-.677-1.5122,1.1816-1.8364,136.8711-23.6865,266.6909-47.3535,389.8618-72.2754,1.5884-.3208,3.48-.0718,4.2654.5542h0c.7815.6235.1296,1.3843-1.4351,1.7114Z"/><path d="m4505.9988,2551.7691c-119.4275,25.332-244.8914,49.5127-376.7495,73.7871-1.7695.3228-4.4863.0923-5.95-.5425q.0012.001,0,0c-1.4946-.627-1.1851-1.4121.5881-1.7441,132.5769-24.2109,258.6887-48.3301,378.6521-73.6211,1.5576-.3208,3.5547-.1079,4.5051.4736t0,0c.9465.5811.4934,1.3252-1.0459,1.647Z"/><path d="m4348.8448,2594.066c-65.0945,13.0713-131.8572,25.9814-200.3232,38.9438-1.752.3315-4.5171.1187-6.1602-.4785t0,0c-1.6201-.5967-1.5024-1.3604.2566-1.687,68.8933-12.936,136.0432-25.8276,201.5164-38.875,1.6177-.3252,3.9834-.1123,5.2815.4639h0c1.2837.5679,1.0396,1.3062-.571,1.6328Z"/><path class="cls-7" d="m4625.2618,2625.0616c-131.0173,14.4712-258.0457,27.6011-379.0234,40.3828-22.3386,2.3965-57.407-3.3184-71.2554-12.9087-72.0618-48.6929-13.7581-95.0278,43.4495-145.2441,57.1748-49.8911,113.2529-103.6636,35.9868-159.7114-16.0178-11.6172-17.7112-15.1426,5.7214-16.7466,125.7156-8.3276,292.4011-24.5044,416.7849-41.5781,23.1072-3.105,22.8157.1147,44.2615,7.4038,110.3702,37.3511,84.8625,93.7524,36.7739,148.3955-48.0859,55.3745-118.7534,108.9917-98.6377,157.6753,3.408,9.6919-9.7156,19.6353-34.0615,22.3315Z"/><path d="m4751.795,2403.1681c-144.8145,19.1108-291.2778,34.8296-439.2327,47.7603-1.9294.1665-3.0203-.3022-2.3872-1.0483t0,0c.623-.751,2.7305-1.5039,4.6709-1.6665,147.6775-12.9429,293.8303-28.6753,438.3284-47.8193,1.8992-.2524,3.1687.1616,2.7817.9268t0,0c-.394.7695-2.25,1.6016-4.1611,1.8472Z"/><path d="m4755.8463,2394.3253c-143.8066,19.2017-289.2832,34.9819-436.2812,47.9316-1.9414.1694-3.0576-.2964-2.5017-1.0439t0,0c.5669-.7471,2.5762-1.4873,4.5054-1.6611,146.6892-12.9521,291.8333-28.75,435.3232-47.9731,1.873-.2495,3.2241.1528,2.9263.9121h0c-.2805.7505-2.0715,1.5806-3.9719,1.8345Z"/><path d="m4746.4432,2412.5846c-145.8049,18.9961-293.2781,34.6133-442.1423,47.5239-1.9548.1606-2.9895-.2993-2.2891-1.0537.001-.0005.001-.0024,0,0,.6814-.7402,2.8762-1.499,4.8223-1.6694,148.6189-12.9146,295.7795-28.5718,441.301-47.5981,1.9094-.2485,3.1082.1724,2.6489.9424-.0007.0039-.0007.0049,0,0-.4595.7656-2.4204,1.6133-4.3408,1.855Z"/><path d="m4529.1683,2446.8297c-77.5654,8.2812-155.5215,15.7354-233.8679,22.478-1.9705.1636-2.9734-.3062-2.2102-1.0562-.0002-.0024-.0002-.0015,0,0,.7583-.749,2.9985-1.4961,4.9436-1.6719,78.2195-6.7471,156.054-14.2129,233.4802-22.5112,1.9451-.2046,3.0427.2397,2.3762,1.001h0c-.6453.7559-2.7698,1.5479-4.7219,1.7603Z"/><path d="m4733.8995,2325.1534c-134.5569,18.7056-270.1384,33.9546-407.0056,46.1553-1.8176.1553-3.741-.2666-4.3123-.9463t0,0c-.5825-.6733.376-1.3687,2.1782-1.5254,136.4712-12.1299,271.686-27.3154,405.8865-45.9438,1.7554-.2461,3.9868.0557,4.8669.6807h0c.9075.6143.1423,1.3369-1.6138,1.5796Z"/><path d="m4722.7623,2318.0201c-133.4749,18.4673-267.863,33.4683-403.4399,45.4297-1.7876.1548-3.8682-.2544-4.626-.9297q-.0029,0,0,0c-.7783-.665.0229-1.3418,1.8013-1.4985,135.1604-11.8711,269.1926-26.8027,402.3359-45.1782,1.7498-.2427,4.0989.0444,5.1807.644.0054-.001.0054-.002,0,0,1.0891.5981.5066,1.2886-1.252,1.5327Z"/><path d="m4743.3882,2332.9625c-135.6838,18.9136-272.5569,34.3677-410.8049,46.7812-1.8018.1587-3.6196-.2642-4.0039-.9644q-.0034,0,0,0c-.4067-.6885.7607-1.3818,2.5547-1.5518,137.834-12.3574,274.3438-27.7549,409.6794-46.6079,1.7874-.2476,3.8469.0737,4.55.7163t0,0c.7197.6338-.1851,1.3828-1.9753,1.6265Z"/><path d="m4554.0411,2366.0089c-72.2683,8.3091-144.9104,15.7222-217.9644,22.3037-1.8574.1719-3.479-.2764-3.7256-.978q.0012-.002,0,0c-.2053-.6982,1.0735-1.4102,2.9099-1.5757,72.8389-6.5562,145.2832-13.9497,217.3567-22.2329,1.8123-.2046,3.6252.1753,4.0349.8589,0-.0044,0-.0054,0,0,.3694.688-.7927,1.4155-2.6116,1.624Z"/><path d="m4680.4107,2488.7794c-151.0088,17.5278-302.8735,32.0835-454.8452,44.6978-2.0154.1714-2.9944-.3081-2.2544-1.0474t0,0c.7363-.7441,3.0405-1.4834,5.0344-1.6523,152.0286-12.6094,303.8538-27.2217,454.7993-44.8062,1.9932-.228,2.9819.2075,2.2383.9849t0,0c-.7478.7749-2.9939,1.5903-4.9724,1.8232Z"/><path d="m4689.1758,2479.7857c-150.7173,17.7197-302.479,32.4199-454.5569,45.0474-1.9863.1597-3.0068-.3003-2.1885-1.0513q-.009.0029,0,0c.811-.7441,3.0879-1.4902,5.1055-1.6562,152.0654-12.6357,303.7573-27.3779,454.3848-45.1587,1.9797-.2314,2.9827.207,2.2275.9854q.0029-.001,0,0c-.7405.7749-2.988,1.5962-4.9724,1.8335Z"/><path d="m4671.2903,2498.2252c-151.1816,17.3042-303.0386,31.7437-454.7241,44.3447-1.9873.1567-3.0522-.3022-2.3418-1.0435h0c.7148-.7446,2.936-1.4771,4.939-1.6475,151.7886-12.6025,303.667-27.0752,454.8091-44.4473,1.9866-.2363,3.0125.2061,2.27.9829q-.0049,0,0,0c-.7419.7666-2.9656,1.5869-4.9521,1.8105Z"/><path d="m4445.963,2530.2906c-79.249,7.6855-158.5278,14.7383-237.666,21.3394-1.9978.1636-3.0891-.2954-2.45-1.0381q-.0012-.0029,0,0c.6533-.7329,2.8262-1.4741,4.8154-1.6426,79.2339-6.6021,158.5493-13.6606,237.8379-21.3672,1.9883-.1938,3.0488.2563,2.3491,1.0029-.0049-.0005-.0049-.0015,0,0-.7036.7378-2.8896,1.5112-4.8865,1.7056Z"/><path d="m4619.1944,2571.4884c-147.1208,15.8208-292.677,29.5483-435.0708,42.4131-1.8735.1714-3.5591-.2778-3.7209-.9897q.0007.0005,0,0c-.1482-.7124,1.2556-1.4448,3.156-1.6055,142.9832-12.8423,288.9968-26.5962,436.469-42.4556,1.9419-.2119,3.3223.2158,3.0894.9399-.0027.001-.0027.002,0,0-.2258.7314-1.9812,1.4863-3.9226,1.6978Z"/><path d="m4622.2481,2563.0299c-148.1863,15.9678-295.1306,29.7451-439.3469,42.5513-1.8835.1616-3.4827-.2739-3.499-.9976.0034.0029.0034.001,0,0-.0051-.7139,1.5476-1.4326,3.4626-1.6123,144.7532-12.7856,292.092-26.5825,440.5654-42.5986,1.947-.2119,3.2742.2197,2.9414.9458t0,0c-.3252.7285-2.1694,1.5039-4.1235,1.7114Z"/><path d="m4617.2679,2580.3448c-145.8308,15.668-289.7053,29.3604-429.9272,42.291-1.8459.1738-3.6726-.2793-3.9714-.9814q-.0098.0015,0,0c-.3149-.7144.9561-1.438,2.804-1.6021,140.8948-12.9102,285.2927-26.6133,431.519-42.3242,1.9031-.2061,3.3879.2139,3.2664.9331t0,0c-.1274.7212-1.7749,1.4751-3.6907,1.6836Z"/><path d="m4412.2115,2610.1998c-74.1401,7.3311-147.4087,14.3262-219.5247,21.1216-1.8176.1646-3.7332-.2642-4.2419-.9731t0,0c-.5122-.708.6025-1.4268,2.4297-1.5942,72.501-6.7881,146.1201-13.7705,220.5627-21.1157,1.876-.1851,3.5493.2466,3.7637.9448q-.0007.002,0,0c.1934.7041-1.1143,1.4287-2.9895,1.6167Z"/><path class="cls-5" d="m5295.5728,2605.5143c-106.0704,32.0449-216.5585,61.7578-331.4149,89.7412-17.745,4.3535-55.7059,3.1699-80.2483-3.3789-335.3097-85.5322-103.8112-264.7871-595.994-343.5752-44.7283-7.5444-60.8992-15.1265-27.7749-17.4678,206.9832-15.0615,396.6301-37.457,570.6873-64.7749,25.3616-3.9414,70.7468-3.6357,96.8311,1.8022,149.927,30.1387,191.9602,90.2002,221.391,150.5957,29.4257,60.9131,46.2494,122.1592,145.6338,166.6113,14.8162,6.812,16.4712,15.7202.889,20.4463Z"/><path d="m5088.2359,2378.6866c-135.9753,29.8784-280.9438,56.8892-435.5349,80.8965-2.1067.3237-4.5374-.1226-5.4441-.9927h0c-.9062-.8721.0566-1.8525,2.1775-2.1724,154.9832-23.915,300.2756-50.8496,436.5453-80.6777,1.7487-.3804,3.6791-.0337,4.2959.7788.0006-.001.0009.001,0,0,.6285.8101-.2924,1.7915-2.0397,2.1675Z"/><path d="m5080.7603,2369.3165c-136.954,29.7148-283.0249,56.5059-438.9092,80.1963-2.1057.3193-4.6765-.125-5.665-.9766q.0002-.0029,0,0c-1.001-.8481-.105-1.8228,2.0198-2.1396,156.3193-23.5889,302.7704-50.3154,440.0507-79.9761,1.7555-.3857,3.7469-.0459,4.4425.7549-.001-.0029-.001-.0059,0,0,.6729.793-.1899,1.7588-1.9387,2.1411Z"/><path d="m5095.3489,2388.7359c-135.059,30.0625-278.9692,57.2852-432.3748,81.625-2.0989.3315-4.4309-.1235-5.2478-1.0063h0c-.7954-.8853.2251-1.8667,2.3186-2.2012,153.7375-24.2388,297.9417-51.4058,433.2739-81.4092,1.7301-.3862,3.6049-.0249,4.16.7964.0032.002.0032.0029,0,0,.5555.8203-.391,1.8223-2.13,2.1953Z"/><path d="m4906.9405,2439.6578c-75.6095,14.6523-153.8438,28.5068-234.7117,41.6108-2.0527.3418-4.3677-.124-5.0791-1.0161-.0015.002-.0015-.001,0,0-.7163-.8931.3491-1.9058,2.4309-2.2275,81.0498-13.0444,159.4027-26.8687,235.1715-41.4854,1.8833-.3662,3.9011.0498,4.5063.8975h0c.6036.8569-.452,1.856-2.318,2.2207Z"/><path d="m4972.5864,2299.1476c-152.2028,28.4302-316.007,53.2212-492.5114,73.3359-2.4299.2749-6.4231-.0659-8.9905-.7544h0c-2.5518-.687-2.7075-1.4692-.2766-1.7378,177.7581-19.9268,342.5886-44.6289,495.7159-73.0073,1.9434-.3564,4.8999-.1709,6.5868.4194h0c1.6423.5933,1.4229,1.3833-.5243,1.7441Z"/><path d="m4952.5192,2292.3521c-155.2086,28.272-322.5485,52.7651-503.1747,72.2437-2.4768.2627-6.78-.0703-9.5962-.729h0c-2.8245-.6616-3.1848-1.4253-.6819-1.6855,182.0347-19.2646,350.5552-43.6543,506.7681-71.8794,1.9946-.3589,5.1257-.1948,6.9661.3672t0,0c1.8271.5591,1.699,1.3208-.2814,1.6831Z"/><path d="m4991.7283,2306.7096c-149.3945,28.5801-309.8708,53.6709-482.5227,74.376-2.3521.2808-6.1025-.0747-8.4045-.7822-.0024.0024-.0024.0015,0,0-2.2961-.71-2.2639-1.5176.1079-1.7974,173.7334-20.5396,335.1794-45.5425,485.3541-74.0767,1.9194-.3657,4.7322-.1528,6.2188.4731t0,0c1.4977.6304,1.1461,1.4438-.7535,1.8071Z"/><path d="m4795.2842,2352.7516c-83.4419,13.4917-170.0601,25.9341-260.0295,37.2314-2.3037.2891-5.8213-.0781-7.8794-.8135h0c-2.0554-.7358-1.8484-1.5708.4648-1.854,90.5071-11.2158,177.5964-23.5957,261.4749-37.0469,2.0686-.3384,5.1321-.0493,6.7671.6318q.0007-.0039,0,0c1.6448.6816,1.2463,1.5117-.7979,1.8511Z"/><path d="m5137.7103,2471.6676c-129.6678,31.4775-267.4254,60.3252-413.7659,86.981-1.9971.3647-4.0879-.0786-4.7092-.9644h0c-.5947-.8984.5586-1.9141,2.5278-2.2793,146.6123-26.5728,284.5776-55.3823,414.4585-86.8057,1.678-.3955,3.3469-.0361,3.7563.8037t0,0c.4019.8413-.5925,1.8608-2.2676,2.2646Z"/><path d="m5133.0059,2461.8331c-130.2922,31.3232-268.7744,60.0039-415.9355,86.4097-1.9922.3604-4.1045-.085-4.686-.9824.0046-.001.0046-.0049,0,0-.5781-.8994.5771-1.9307,2.5898-2.2866,147.4231-26.3325,286.0984-54.9526,416.5891-86.2266,1.675-.4082,3.3398-.0264,3.7493.8159h0c.3987.8394-.6362,1.8677-2.3066,2.27Z"/><path d="m5142.9024,2481.9688c-128.9625,31.6343-265.9064,60.6577-411.312,87.5547-1.9893.3569-4.1138-.0493-4.7515-.9414.001.0005.0054.0005,0,0-.6399-.8735.4534-1.9126,2.4363-2.2681,145.6895-26.8325,282.8704-55.8052,412.0574-87.3867,1.6516-.4077,3.3577-.0483,3.7806.7866.0009-.0015-.0028-.0005,0,0,.4242.8364-.5704,1.8472-2.2108,2.2549Z"/><path d="m4962.5546,2535.2853c-71.9188,15.6245-146.1522,30.5718-222.7467,44.9756-1.9553.3701-4.1521-.0488-4.8218-.9141t0,0c-.6946-.8687.3582-1.8911,2.3188-2.2524,76.7739-14.3687,151.1409-29.2847,223.2179-44.8833,1.7987-.3867,3.6935-.0039,4.252.8354.0126.0024-.005.0015,0,0,.5564.8354-.4377,1.8501-2.2202,2.2388Z"/><path d="m5204.972,2558.6358c-119.8159,32.3872-246.155,62.313-379.298,90.4966-1.7986.3799-4.4126.1035-5.8041-.6182t0,0c-1.3713-.7212-1.0216-1.6323.8068-2.0107,133.8143-28.166,260.7247-58.0811,381.0283-90.4541,1.5458-.4155,3.525-.1704,4.4172.542t0,0c.8989.7183.3857,1.6274-1.1503,2.0444Z"/><path d="m5194.8422,2550.274c-121.3412,32.3535-249.4655,62.2324-384.6591,90.3413-1.8286.3833-4.376.0786-5.6292-.6689h0c-1.2615-.7495-.7668-1.6753,1.0771-2.0571,135.8048-28.0776,264.4357-57.9438,386.2329-90.2808,1.5698-.4146,3.4805-.1509,4.3069.582t0,0c.8242.7378.2158,1.6577-1.3287,2.0835Z"/><path d="m5216.7245,2567.1876c-118.0443,32.3887-242.3024,62.3613-373.0673,90.5894-1.7572.3843-4.4908.1343-5.9963-.563.0002.002.0005.002,0,0-1.5344-.6919-1.2715-1.5767.4875-1.9604,131.4854-28.2188,256.396-58.1719,374.9758-90.5693,1.5413-.418,3.554-.1865,4.5432.5h0c.9877.6924.5775,1.5879-.943,2.0034Z"/><path d="m5061.8867,2619.6031c-64.4406,16.0332-130.5885,31.4629-198.4696,46.4385-1.7372.3882-4.5226.1597-6.2042-.5068h0c-1.6588-.6606-1.587-1.52.1578-1.9009,68.3093-14.9741,134.8472-30.4146,199.6666-46.4395,1.6002-.4014,3.9862-.1777,5.3218.4863t0,0c1.3204.6553,1.1227,1.5303-.4724,1.9224Z"/></g></svg>