<?xml version="1.0" encoding="UTF-8"?><svg id="Layer_2" xmlns="http://www.w3.org/2000/svg" viewBox="0 0 177.62 356.28"><g id="Layer_1-2"><path d="m177.62,105.6801v42.08c0,.11-.09.2-.2.2h-2.49v183.26c-.02.46-.05.91-.1,1.36-1.17,12-11.43,22.3-22.82,23.28-.19.02-.39.03-.58.05-.02,0-.04.01-.05,0-.25.02-.51.03-.76.03,0,0,0,.34-61.81.34-62.06,0-62.06-.34-62.06-.34-.56,0-1.11-.04-1.64-.12-11.2401-1.18-21.28-11.38-22.44-23.24-.04-.45-.07-.9-.09-1.36v-173.83H.2c-.11,0-.2-.09-.2-.21v-26.61c0-.11.09-.2.2-.2h2.38v-7.3H.2c-.11,0-.2-.09-.2-.21v-26.58c0-.12.09-.21.2-.21h2.38v-12.06H.21c-.12,0-.21-.09-.21-.21v-12.87c0-.11.09-.2.21-.2h2.37V25.06C3.07,12.63,13.44,1.69,25.11.46c.53-.08,1.08-.12,1.64-.12,0,0,0-.34,62.06-.34,61.81,0,61.81.34,61.81.34.25,0,.51.01.76.03.01-.0099.03,0,.05,0,.1899.02.39.03.58.05,11.82,1.02,22.42,12.07,22.92,24.64v80.42h2.49c.11,0,.2.09.2.2Z"/></g></svg>