<?xml version="1.0" encoding="UTF-8"?><svg id="Layer_2" xmlns="http://www.w3.org/2000/svg" viewBox="0 0 476.2646 360.837"><defs><style>.cls-1{fill:#edeb7b;}.cls-1,.cls-2,.cls-3,.cls-4,.cls-5,.cls-6,.cls-7,.cls-8,.cls-9,.cls-10,.cls-11{stroke-width:0px;}.cls-2{fill:#8aceb7;}.cls-3{fill:#c9de7b;}.cls-4{fill:#e56667;}.cls-5{fill:#fff1ba;}.cls-6{fill:#b8dfcd;}.cls-7{fill:#9563a8;}.cls-8{fill:#f076a1;}.cls-9{fill:#ffe476;}.cls-10{fill:#ffd459;}.cls-11{fill:#53b858;}</style></defs><g id="Layer_1-2"><path class="cls-8" d="m270.6658,273.2677c-.7207,3.625,3.3343-.244,5.0299-.854-2.4642-.1867-4.5539-.1364-5.0299.854Z"/><path class="cls-8" d="m75.5316,223.4001c.6437-1.5294-.157-1.4299-.8086-1.5228.051,1.1286,1.2309,4.4618.8086,1.5228Z"/><path class="cls-8" d="m266.062,284.997c-.4054.4459-.6247,1.0027-.7695,1.6051.9923-.935,3.2994-3.4418.7695-1.6051Z"/><path class="cls-5" d="m105.8174,241.6522c.1721-2.5737-3.4711-.2178-4.8279-.109,2.7604.5159,4.6062.651,4.8279.109Z"/><path class="cls-5" d="m94.4438,231.4099c-1.4519-1.1118-2.7861-2.1718-3.8267-3.1048-.1744,2.4821.2535,2.7615,3.8267,3.1048Z"/><path class="cls-5" d="m238.2102,302.7208c1.1901,3.2872,6.2278-1.8042,8.6859-2.4155-6.4477-4.7778-9.06-7.878-8.6859,2.4155Z"/><path class="cls-1" d="m73.5252,226.5681c1.5059-2.8644,1.9999-2.4561.6864-6.0876-16.9492-26.5576-15.6635,25.9391-.6864,6.0876Z"/><path class="cls-5" d="m234.8208,293.089c-.6765.4574.9021,4.3489,3.3895,9.6318.2514-3.3747,1.8648-10.8222-3.3895-9.6318Z"/><path class="cls-9" d="m266.062,284.997c77.8814-100.8188-109.9956-136.4014-179.0376-158.9737,13.3963,12.8619,41.6574,29.1341,9.1277,37.8864,24.4446,26.7087-37.3329,15.7667,8.4123,38.5781-.4113,2.7242,6.6161-9.1767,6.0497-6.3618,6.1692,3.5446-8.9531,30.127,8.7996,15.5653-2.8274,17.591-15.0094-.6927-23.5367-3.2624-18.7351,32.1986,17.3319,20.1564,29.4394,24.8667-76.4293,23.4698,5.8535,20.4279-30.1103,34.9198,17.6962,9.7355,47.8552,16.3112,1.7882,13.2934,10.8238,17.4711,63.4992,23.8412,28.8481,3.689,3.2007-.9153,30.7191-32.2982,23.5512-11.8353,29.1239,9.2897,18.2351-39.3582,3.3269-5.6768,2.3992-4.4278,3.5251-20.3675-7.5665-7.3779,4.3009-7.6058,15.0724-26.7959,17.6345-6.1422,9.8152-3.4063,2.5111-10.1719,12.8873,4.0091,4.7842.3035-4.6359,16.3643.8654,16.0819.5349-3.3452-.2195,3.5388-.1895,4.4834,4.1155-7.4579-20.0539,4.5503-20.0597,6.3416,17.2173,4.7446,42.5567,7.1814,16.749,27.5519,21.3587.7468,72.4657,4.4799,61.7828-19.5405,11.8149,9.518,22.748,3.9061,31.2383-8.0959Zm15.5132-36.9833c-.1923-.7609-.4189-1.4355-.6978-1.9583,1.796-.7254.8713.7945.6978,1.9583Z"/><path class="cls-9" d="m129.1266,283.4442c-.2095-.085-.3991.2809-.6055.3734.1955-.1188.3972-.2432.6055-.3734Z"/><path class="cls-9" d="m149.0454,273.5701c.6729-.6416-2.5471-1.0545-3.0706-.9241,1.2956.7098,2.352,1.3037,3.0706.9241Z"/><path class="cls-9" d="m141.0443,275.435c2.5214-1.6122,3.698-2.5754,4.93-2.789-2.7718-2.4514-8.5525-1.6107-4.93,2.789Z"/><path class="cls-9" d="m144.229,302.1725c12.3404-6.9425,15.8451-8.6024-2.5177-6.2715,9.175-35.9148-24.768-13.474,2.5177,6.2715Z"/><path class="cls-9" d="m78.2714,245.2986c-.1772-1.0913-4.8822-1.2565-10.5732-1.2211.5196,7.9302,9.7595,3.7683,10.5732,1.2211Z"/><path class="cls-9" d="m161.7164,254.0786c.8607-.907-.6182-1.5269-1.1215-2.2482.385.7868.7604,1.5492,1.1215,2.2482Z"/><path class="cls-9" d="m157.1507,248.6792c-4.4822-4.1445-2.7791,1.3178-3.09,5.0602,1.2967-1.3175,2.2517-3.3808,3.09-5.0602Z"/><path class="cls-9" d="m161.1837,254.749c-.8955.0687-.6936.3467.058-.0028-.3626.0758-1.0282.208-.058.0028Z"/><path class="cls-9" d="m164.18,254.144c-2.4535-.3511,1.1925,3.8526,2.3859,2.759-.7431-1.4622-1.5338-2.5244-2.3859-2.759Z"/><path class="cls-9" d="m161.2494,254.7366c-.041.0077-.0204.0038,0,0-.0223,0-.0399.0086,0,0Z"/><path class="cls-9" d="m162.2832,254.5214c.3019-.0992.9119-.0341.5052-.3583-.4094.081-.395.2204-.5052.3583Z"/><path class="cls-9" d="m161.2977,254.7248c.5737-.0566.7903-.1501.4185-.6464-.0909.2203-.4375.5352-.4185.6464Z"/><path class="cls-9" d="m172.3228,269.24c2.5989-.2064-3.1936-15.6197-5.7538-12.3375,2.9444,4.2209,3.4145,10.1536,5.7538,12.3375Z"/><path class="cls-2" d="m144.4693,260.5049c.2236.0094.4523-.0722.6831-.1994-.2207.0821-.4467.1523-.6831.1994Z"/><path class="cls-2" d="m141.0443,275.435c-2.2153-6.1899-8.9748,7.2455-11.9889,7.9558,3.3815-1.8266,8.3231-5.6005,11.9889-7.9558Z"/><path class="cls-2" d="m129.1266,283.4442c-.7791-1.6634-1.1833,1.3097-3.2923,1.7605,4.6807-2.0877,11.494,8.2379,3.2923-1.7605Z"/><path class="cls-2" d="m123.6967,281.3395c.5114-2.805-28.8344-10.345-28.4934-13.1242.3469-2.8254,13.3704-4.1556,13.5413-6.9566-43.9855-16.6353,5.4374-20.2979,16.5682-27.9604-13.1636-5.0283-48.2247,8.0529-29.4307-24.8687,8.2489,2.1512,20.2351,21.2002,23.5351,3.2586-17.5311,14.4536-2.7068-12.4352-8.8063-15.5617.5698-2.8154-6.4575,9.0855-6.0499,6.3656-45.0516-22.8184,15.763-16.1583-8.4036-38.5808-21.7676,12.4793-45.0858,42.5287-21.4315,57.9643,2.2031,7.2958-26.6219,18.1021,3.5484,23.4248-22.1083,13.2902,31.3424,47.0708,45.4225,36.039Z"/><path class="cls-2" d="m139.7789,271.1982c-.5364.146-.508.737-.1686,1.5801.9302-1.0504,2.5825-2.254.1686-1.5801Z"/><path class="cls-2" d="m140.7583,296.0941c.0664-1.4576-3.3604-4.173-6.7216-6.8464,2.0306,1.614,4.4843,9.4921,6.7216,6.8464Z"/><path class="cls-2" d="m175.531,311.1121c22.166-20.5751-4.617-21.1454-19.2411-26.0269-.2348-2.243,15.3421-7.1464,19.5251-10.1887-4.1154-18.8453-17.5579,7.2098-29.8406-2.2514-8.0477.4687.0644,8.9083-2.2682,10.4555-3.5645,20.14-.067,10.5931,11.4531,11.805-1.0564.5749-6.5415,6.3211-10.9303,7.267-38.1-14.4384,13.9282,16.7547,31.3019,8.9396Z"/><path class="cls-2" d="m145.9744,272.6461c5.1911,2.4635,9.3307-5.5554,1.3102-6.7836-1.824.9227-8.9282,5.3582-1.3102,6.7836Z"/><path class="cls-2" d="m175.9146,279.1667c.2291.742.3569.3835.4368-.4269-.0828.2387-.2248.3866-.4368.4269Z"/><path class="cls-2" d="m176.8362,273.526c-.1726-.8104-.2476-.2839-.2949.7303.2269-.2645.3419-.5107.2949-.7303Z"/><path class="cls-2" d="m176.5413,274.2563c-1.3184.6866.0175,2.6026-.1185,3.4554.0536-1.1198.0741-2.5009.1185-3.4554Z"/><path class="cls-2" d="m176.4228,277.7116c-.0185.389-.0422.7335-.0714,1.0282.0861-.248.107-.5951.0714-1.0282Z"/><path class="cls-2" d="m166.5663,256.9028c4.0697-2.4496,4.7411,8.6493,7.2173,12.1579,11.4255-7.4868-10.7032-29.3126-7.2173-12.1579Z"/><path class="cls-2" d="m119.5441,211.4995c-.0353.0192-.0785.0935-.1258.1908.1852-.1716.2356-.2504.1258-.1908Z"/><path class="cls-2" d="m166.5663,256.9028c-2.4405.2082,1.2241,2.6797,1.6048,3.7972-.5121-1.3704-1.045-2.6962-1.6048-3.7972Z"/><path class="cls-2" d="m154.1759,246.883c-2.7622-1.3176-5.7024,11.7336-9.0237,13.4223,5.4436-3.9298,10.3815-6.6677,9.0237-13.4223Z"/><path class="cls-2" d="m162.2832,254.5214c1.3324-2.3637-2.2836,1.1222-1.0415.2245,3.093,3.6478,5.773,2.2888,1.0415-.2245Z"/><path class="cls-2" d="m161.1837,254.749c5.8599-5.3499-6.4336-14.1548-7.0099-7.8676,4.0415.6613-1.4435,20.1954-1.4487,20.8029,3.6844-3.8359,4.7274-12.9659,8.4586-12.9352Z"/><path class="cls-2" d="m164.18,254.144c-.4394-.1145-1.1682-.0164-1.3916.019.3049.4434.9686-.0316,1.3916-.019Z"/><path class="cls-2" d="m168.1715,260.6999c.6766,1.8098,1.3175,3.6892,1.9361,5.2263,1.8044-1.474-.0411-2.0782-1.9361-5.2263Z"/><path class="cls-6" d="m442.8912,147.6388c-53.5378-1.1347-17.6793-14.5074-63.8792,38.8492-42.2113,17.2214,38.419,51.922,32.3746,52.1165-68.3322-63.2545,9.6883-40.1088,31.5046-90.9656Z"/><path class="cls-6" d="m247.8102,88.6911c-10.1783-12.6821-13.3343-28.2674-15.8043-43.9422-34.7614-35.5345,3.3776,59.8878,15.8043,43.9422Z"/><path class="cls-5" d="m407.7576,144.5174c-5.2792,3.1762-10.5553-.3705-16.1324,2.1142-27.7645,38.6189-19.4711-12.5975-53.8439,3.89-45.1943.8409-27.6364-41.1799-66.3334-37.2662-9.7976-1.2837-4.6817-12.3934-1.7004-16.6039-38.8684-11.4837-19.1924-1.9506-20.0071,19.6198-39.8601,50.8144,142.6424,124.8694,158.017,28.246Z"/><path class="cls-1" d="m243.2679,93.7649c-39.7761-85.114-48.2596,3.8603-3.1732,47.1048,2.5997-20.8924,18.7756-24.0327,3.1732-47.1048Z"/><path class="cls-9" d="m334.4679,148.2227c3.8133,4.4106,7.4939,2.0972,12.3916-1.8957-4.1183-1.632-7.8483-.094-12.3916,1.8957Z"/><path class="cls-9" d="m406.6821,141.3516c-5.4295.9728-12.9777,5.0662-3.2251,4.7306,4.286-.9077,11.4435-4.6725,3.2251-4.7306Z"/><path class="cls-11" d="m232.0048,44.7493c2.8302,29.3716,13.7086,47.9961,35.9465,53.1916-8.4611,21.2512,9.6029,14.0161,23.0573,15.9628,26.1033,60.8228,50.4826,11.9073,84.6614,49.3996,230.0133-49.518-131.4669-251.6391-143.6653-118.5539Z"/><path class="cls-9" d="m353.3328,87.9775c-.3425,56.3846,2.0733,16.9168,7.1135-5.8392,6.5601.8397,7.1268,39.7449,14.1884,41.1083,6.5777,1.2699,22.1994-34.5034,29.0471-32.5651,12.2169,58.6967-6.2559,49.0798,42.3055,16.9166.0132.0118-7.1696,13.2988-12.522,23.2084,14.779-26.0584,14.2966-25.2438,1.1671-1.7154,5.5083-9.4712,12.2136-21.0072,12.226-21,4.9878,2.9192-10.2618,38.6034-5.4474,41.7238,65.1575-29.1854-61.8665-115.2578-88.0781-61.8375Z"/><path class="cls-9" d="m344.8376,102.0802c-2.7874,4.0622-2.8543,13.8848-2.106,16.8002.0763-1.935,1.0592-9.1737,2.106-16.8002Z"/><path class="cls-9" d="m431.2715,134.8689c5.7524-10.5263-5.1688,8.9822-3.7364,6.4028.0047.0058,1.5371-2.6235,3.7364-6.4028Z"/><path class="cls-9" d="m342.8272,119.3157c.101.2059.1889-.4039.3204-1.1552-.1368.6095-.246,1.0125-.3204,1.1552Z"/><path class="cls-9" d="m342.7307,118.8802c-.0066.3398-.0208.6562.0964.4355-.0314-.0604-.0635-.1972-.0964-.4355Z"/><path class="cls-9" d="m427.7566,141.3986c.0088.0049,3.1615-5.6461,6.8761-12.3079-1.7172,2.786-6.5326,11.5572-6.8761,12.3079Z"/><path class="cls-9" d="m343.1475,118.1605c.7078-3.1549,2.1664-11.93,3.5362-20.07-3.2371,5.6977-2.562,17.3001-3.5362,20.07Z"/><path class="cls-9" d="m352.6284,119.9685c.5349-.0462.0727-20.0741.0659-31.2002-4.8719,7.9443.8588,32.0988-.0659,31.2002Z"/><path class="cls-9" d="m467.6617,168.857c10.2912,2.4721,5.2125-11.4663,3.8204-17.8165-3.1585,8.3698-5.8565,16.1621-3.8204,17.8165Z"/><path class="cls-9" d="m447.9516,224.9428c14.6811-69.8679,22.4394-51.0733-41.6931-39.3078-24.9262-65.4649-2.8462-58.3156-59.162-17.2178-5.3997-1.3665,2.6312,10.4389,3.4764,14.0829,20.2002,48.6196,16.5917-46.6619,36.5817,47.3075,25.4572-6.3741,64.145-42.5873,20.511,7.2819,23.5437-26.9323,23.4117-26.8842.0878.0221,22.0865-26.5308,31.5035-33.318,11.2717,2.4347,13.0759,5.0699,54.0803-15.8809,29.6997-13.1825,7.6628-4.2439,22.0994-12.8517.5857-1.2162-.9877.5511,10.2496-5.3438,16.4986-9.3156-8.7931,4.4917-17.8523,9.1209-17.8576,9.1107Z"/><path class="cls-3" d="m425.3925,216.8009c-4.9622,5.7635-13.4277,15.2138-17.6664,20.304,4.4903-5.1576,12.6443-14.5338,17.6664-20.304Z"/><path class="cls-3" d="m429.4268,211.5732c-5.7413-4.844-27.0108,14.7417-37.8693,18.0708,15.6381,18.7662,33.0776-14.1431,37.8693-18.0708Z"/><path class="cls-3" d="m434.6327,129.0907c4.1351-7.4159,8.9594-16.0717,10.9306-19.595-.5252.9242-19.8703,34.9097-10.9306,19.595Z"/><path class="cls-3" d="m445.5633,109.4957c.5774-1.0201.9165-1.622.9137-1.6236s-.3413.6006-.9137,1.6236Z"/><path class="cls-3" d="m441.411,149.815c-4.8144-3.1204,10.4352-38.8046,5.4474-41.7238-24.5736,42.1898-22.4625,39.6682-.8713-.4888-48.8895,32.5874-30.0122,41.275-42.303-16.9246-40.8331,41.1327-22.0427,47.4063-43.2363-8.5444-.7258-.172-5.809,37.856-6.5802,37.7886-.9302,1.9225.6852-25.9321-1.1708-31.1544.6105,34.2515-.1668,41.4432-2.1023,2.8126-9.3215,29.402-21.0401,35.5345-3.5052,76.8321,56.5017-41.2766,34.1982-48.0781,59.169,17.2221,64.1766-11.828,56.3501-30.4458,41.6895,39.3117,18.4533.9903,40.939-53.0644,19.7157-56.0955,5.3598-38.6604,1.9485-36.1846-26.2525-19.0357Z"/><path class="cls-3" d="m429.7258,211.8303c-.0031-.0027-1.7593,2.0132-4.3334,4.9706,2.5789-2.9531,4.3365-4.9679,4.3334-4.9706Z"/><path class="cls-3" d="m430.1284,212.1883c-.0091-.0081-15.4617,17.2243-22.3757,24.9244,14.2597,10.6117,24.7441-22.44,22.3757-24.9244Z"/><path class="cls-3" d="m387.1584,229.8048c-10.0035-9.6609-3.8508-71.9456-25.9863-29.1598,18.7191,11.5175,22.3588,66.3031,25.6391,69.2079-3.517-13.8488,5.4512-33.5219.3473-40.0481Z"/><path class="cls-3" d="m342.7307,118.8802c.9623-.7554,1.6505-11.6363,2.1077-16.7996-1.0475,7.6261-2.0305,14.8648-2.1077,16.7996Z"/><path class="cls-3" d="m449.3094,225.1487c-.6187.3339-.9762.5278-.9751.5299s.3583-.1923.9751-.5299Z"/><path class="cls-3" d="m448.7212,226.3654c2.8623,2.3296,14.9395-3.3075,16.436-9.4737-8.2525,4.7511-16.4418,9.464-16.436,9.4737Z"/><path class="cls-3" d="m449.3094,225.1487c2.4664-1.3311,9.2904-4.9955,16.0941-8.649-5.3505,2.3533-14.1013,7.7683-16.0941,8.649Z"/><path class="cls-9" d="m232.9905,42.3157c.0494-.0007,23.0348-15.6597,32.5488-22.0845-16.2277-19.349-31.5218,13.3656-32.5488,22.0845Z"/><path class="cls-9" d="m277.5243,60.9169c1.8392,6.8063-29.3835,27.524-27.9441,34.2463,34.6534,18.0219,7.0057,32.5553,43.8918,48.5429,43.4441-40.0581-32.5595-170.9345-15.9477-82.7891Z"/><path class="cls-9" d="m140.7478,24.237c7.2895,7.8545,15.6599-2.7586,16.0304-7.0193-6.0168-5.6074-18.6518-6.0822-16.0304,7.0193Z"/><path class="cls-9" d="m161.6659,159.347c3.6669.9648,7.5523,1.9327,11.5999,2.903-4.5565-2.5922-6.8313-6.1209-11.5999-2.903Z"/><path class="cls-9" d="m252.8906,170.5542c15.7233,26.7698,89.4029,1.7418,99.3059,2.2354-49.316,1.9151-71.1226-30.9536-99.3059-2.2354Z"/><path class="cls-9" d="m190.9969,116.3588c2.886-1.8798,5.1084-3.6686,5.9374-5.2757-2.7178,1.4856-8.6833,1.0085-5.9374,5.2757Z"/><path class="cls-9" d="m129.4804,139.2724c1.2495,3.4022,9.3483-8.8034,8.5923-6.6905,26.9924,13.2608,1.5193-18.9389-8.5923,6.6905Z"/><path class="cls-7" d="m249.771,11.9622c-19.7471-11.8687-113.9377-20.3097-108.6353,1.7903,30.9777-1.8622-1.2377,12.0572,13.5283,27.7622,11.4508-15.2714,23.8562-25.5338,23.8562-25.5338,5.4621-1.2059,41.0813,76.908,40.9687,80.9764-52.1633,23.0659-14.9105,84.8495,36.8806,81.2299-6.1013-45.2683,86.8054,11.6388-6.8014-83.0193,23.2963-29.2969,34.0325-29.0261,21.559-71.1601-8.5975-9.9919-37.1912,21.0126-38.138,18.3042-1.8433-4.7793,10.7529-19.9232,16.7818-30.3498Z"/><path class="cls-7" d="m138.0735,132.5792c-27.6747,20.6364,22.3418,23.3317,40.3343,30.8857-11.5195-13.6003-24.3198-27.5192-40.3343-30.8857Z"/><path class="cls-7" d="m127.5054,133.2475c1.9525,10.9948,6.0961.0157,10.839-3.9709-3.9203,1.323-7.5725,2.6466-10.839,3.9709Z"/><path class="cls-7" d="m35.0824,68.2677c-9.8523,9.9552-15.2141,17.0986-4.5709,28.5999,1.4538-10.6787,2.9639-20.4637,4.5709-28.5999Z"/><path class="cls-1" d="m208.378,169.4932c24.0007,5.9805,45.563,12.9972,66.7962,12.7062-21.578-4.9449-43.2915-8.5685-66.7962-12.7062Z"/><path class="cls-1" d="m56.8034,126.0771c39.5605-50.5339-7.776-82.2513,83.9516-101.8342,5.2635-52.992-176.8961,62.163-83.9516,101.8342Z"/><path class="cls-1" d="m138.3433,129.2766c9.4622-8.8196-33.9879-37.5563-26.6568-33.1041,2.6005,11.3384,10.5139,44.1954,26.6568,33.1041Z"/><path class="cls-1" d="m182.8455,92.6283c4.3547,7.1963,3.0364,25.468,14.0875,18.4548,52.6517-2.0124-12.3037-81.3979-18.4058-95.1131-33.1864,12.3029-15.4485,70.1357,4.3184,76.6583Z"/><path class="cls-5" d="m89.7168,237.6082c4.2902.762,8.6734,1.36,13.1396,1.7839-4.8165-3.0815-7.5364-7.1461-13.1396-1.7839Z"/><path class="cls-5" d="m89.6031,224.6538c.5648,4.8577,3.0867,2.45,6.6543,1.0822-2.2941-1.3194-5.6946-4.5805-6.6543-1.0822Z"/><path class="cls-5" d="m123.2911,204.0771c-1.9002-8.9536-12.5943-10.2076-12.8827.859,1.5017,3.1856,13.8317.1529,12.8827-.859Z"/><path class="cls-5" d="m36.133,214.6402c.3412-1.2573-3.7081-3.7486-8.6985-6.492,2.5284,1.7097,6.2272,6.9958,8.6985,6.492Z"/><path class="cls-5" d="m208.5931,170.1705c-12.2205-51.5371-30.5457-73.4884-53.9355-128.6541-12.6776-38.9933-45.9443,3.1528-70.4244,3.8275-9.0086,13.537-9.5551,72.7996-27.4347,80.7306-23.1812-3.2163-32.3561-71.7405-49.0432-13.2597,14.3943-10.259,12.4383-2.6652,12.4713,8.7688,7.1396,6.0286,7.5757,11.3259,4.592,20.2004-6.9122,39.7296-25.2377,30.0266,15.6619,37.5478-22.4365,18.0673-5.6041,10.8476,9.8991,9.8873,24.0216-22.6519-16.2572-28.2861,12.4075-33.96-2.6559-47.4626,10.0676-21.2251,11.6239,5.994.9756,2.7937,28.7457-2.2827,29.6623,1.0713-8.2442,7.8029-44.8098,21.445-18.4964,34.0952-.7033,10.458-1.1122,11.6513,13.6364,12.2053,9.1399-.5895,2.2777-2.8379,1.3987-7.4232,11.7535-7.7678,22.6429-3.3138,5.2985-19.2095,10.0481-13.2766,15.2435,4.755,13.7845,11.3162,12.1291,8.2538,24.476,26.9455,31.1855,40.8013-18.2205,16.4512,200.8356-54.9211,57.7128-63.9391Zm-64.5093-42.7766c51.4839,43.8309,17.2107,39.4503-13.9405,17.6317-9.045-34.154-40.0195-73.8909,13.9405-17.6317Z"/><path class="cls-5" d="m126.957,237.6206c-2.4732,4.9188,7.9792,1.135,11.3148,1.6322-3.7241-1.6076-7.2865-2.4682-11.3148-1.6322Z"/><path class="cls-5" d="m141.3418,224.8775c-2.5743-15.2646-18.1854-13.8907-26.5533-4.6126-.5029,3.8266,24.7002,9.5635,26.5533,4.6126Z"/><path class="cls-5" d="m116.3842,211.6811c-42.3272,18.1526,10.5065,34.4234,9.0495,23.0321-12.3374-4.635-13.237-9.9467-10.9697-20.3768,1.0175-3.6213,22.0318-.1308,22.9035-2.7141-8.2433-4.107-47.05-7.63-20.9833.0588Z"/><path class="cls-5" d="m94.9634,210.6656c-17.1994,17.7908,15.5156,11.4618,11.4929-1.4177-2.9378-.2625-10.2-1.4894-11.4929,1.4177Z"/><path class="cls-5" d="m116.3168,195.1127c-.0968.0838-.0477.0399,0,0-.0628.0371-.2473.0415,0,0Z"/><path class="cls-9" d="m103.3766,221.5532c4.6156-8.3865-9.3253.7524-11.7884,1.1622,2.7864,4.1249,10.8555,1.9669,11.7884-1.1622Z"/><path class="cls-9" d="m150.8829,234.1077c-11.9459-20.2466-9.6002-26.5265-36.4201-19.771-7.5117,20.4838,23.0319,28.7071,36.4201,19.771Zm-36.094-13.8398c8.3726-9.2805,23.974-10.6555,26.5531,4.6071-1.8524,4.9448-27.0752-.7774-26.5531-4.6071Z"/><path class="cls-9" d="m102.7988,231.6163c.6563-7.0884-28.5239-1.1971-3.5871-22.9938-14.7664-.5978-14.3294-1.6919-13.6413-12.2024-26.0376-12.368,9.1218-25.5508,18.5054-34.0949-41.7394-1.4234-23.3089,3.6685-38.208-36.0279-7.1266,11.6385,3.9038,31.6234-14.8605,32.8797,17.9474,19.4801-1.2784,34.2816-23.0132,32.5652-.6394-3.3375,13.0641-9.283,12.487-12.4069-30.4359-8.9974-27.1272,7.9562-19.521-26.3928,13.0717-27.3672-2.0218-21.4989-.7801-44.0454-40.2555,13.01-12.4561,89.8992,15.5873,106.3168,12.8132,15.5222,98.4495,35.0268,67.0315,16.4024Z"/><path class="cls-9" d="m116.3842,211.6811c-4.6788-4.0391-9.5936-2.1521-11.401,5.7069,6.0645-2.1971,11.5771-4.3067,11.401-5.7069Z"/><path class="cls-9" d="m116.172,195.2374c6.5443,6.1166,12.0159,10.6031-2.0996,11.3342,6.0931,1.4893,18.1315,2.9791,23.3075,4.9822-4.2343-11.452-24.2563-16.3184-17.5224-28.0274-4.2616-10.2537-23.2706-9.0805-3.6855,11.711Z"/><path class="cls-9" d="m105.1791,207.6542c-2.2113.2896-4.2752.6047-5.9675.9718,2.0622-.2633,9.3536,2.0148,5.9675-.9718Z"/><path class="cls-9" d="m116.072,238.6642c3.1038,1.4029,10.2626,3.5582,10.8853-1.043-3.8365.3292-7.6098.6685-10.8853,1.043Z"/><path class="cls-9" d="m110.408,204.9344c9.0966-15.7523-2.775-7.5466-9.7978-3.736-1.2898,7.1935,18.4656,7.7231,9.7978,3.736Z"/><path class="cls-10" d="m249.101,145.792c.6765-.6272.3348-.5168-.3479-.329-.3376.4879-.0655.3811.3479.329Z"/><path class="cls-10" d="m239.3404,167.92c-2.2093,4.5024,3.9336.9285,7.0899.592-2.3372-.235-5.0764-.2168-7.0899-.592Z"/><path class="cls-10" d="m239.3327,167.9182c.0062-.0027.003-.0014,0,0,.0049.0018.0092.0024,0,0Z"/><path class="cls-10" d="m356.1046,180.4016c-2.4159-1.7387-3.093,5.2102-3.5273,6.31,1.3083-.6156,2.4735-2.8403,3.5273-6.31Z"/><path class="cls-10" d="m237.3262,161.4359c-.7901,2.0279-1.3228,3.9334-.6215,5.1547,1.4989-1.471,6.6414-7.2148.6215-5.1547Z"/><path class="cls-10" d="m244.9716,171.9671c-.0898-.1541-.1326-.278-.168-.3969.0177.1229.0661.2535.168.3969Z"/><path class="cls-10" d="m230.9407,151.0623c-2.267-.5772-4.1548-.8702-5.8591,1.4518,1.4611-.1893,3.5202-.7382,5.8591-1.4518Z"/><path class="cls-10" d="m248.5507,145.8581c-3.6695-.1257-9.9859,3.4949-9.3056,7.1723,3.5379-2.6987,7.5083-4.4017,9.3056-7.1723Z"/><path class="cls-10" d="m246.9725,170.887c1.7583-1.2984-1.2105-.3149-1.6856-.0452.4094-.0841,1.0116-.0432,1.6856.0452Z"/><path class="cls-10" d="m309.1752,272.4765c-.1283-.9434-.2584-1.8624-.3902-2.7571.0658,1.0341.18,1.9833.3902,2.7571Z"/><path class="cls-10" d="m249.3868,165.0204c10.0387,3.4584,3.8786-9.9499-7.8301-4.2108-8.1655,10.5153,4.9278,2.9782,7.8301,4.2108Z"/><path class="cls-10" d="m314.2585,158.4666c.0521-1.4744.3426-3.1093.2759-4.4784-.1144,1.4281-1.6147,3.3024-.2759,4.4784Z"/><path class="cls-10" d="m254.7518,307.4294c6.2829,6.4674,1.0077-13.6446-.5258-17.8471-5.7554-7.019-15.2644,25.1727.5258,17.8471Z"/><path class="cls-10" d="m248.8204,185.9954c9.3763,6.5438,2.1207-5.276,6.6612-.3401,14.7397-9.7602-10.2605-11.9397-6.6612.3401Z"/><path class="cls-10" d="m221.5706,179.5845c7.125,12.0121,9.1817-11.081,23.8045,4.1998-17.0906-12.8624,2.2562-16.5459-27.7633-12.8808-1.5041-1.2618,3.3773-10.3457,7.4702-18.3898-13.59-.2369-13.3878,27.3133-3.5115,27.0708Z"/><path class="cls-10" d="m406.3069,263.3388c4.7802,7.7692,3.1945,1.0033,2.4483-3.8802-1.7779,1.856-2.7815,3.2614-2.4483,3.8802Z"/><path class="cls-10" d="m187.6968,208.7125c-9.0814,4.0211-8.8533,7.0274-7.7439,15.6737,9.648,1.6591,6.0998-8.5378,7.7439-15.6737Z"/><path class="cls-10" d="m181.7744,227.3439c-3.7522-2.4525,1.0076,10.0144,1.7589,13.4109-.1735-3.3971,5.3128-14.2679-1.7589-13.4109Z"/><path class="cls-10" d="m208.8465,278.359c-.5789-2.8853-1.3141-5.386-2.022-7.2439.4178,4.1168,1.0108,7.0911,2.022,7.2439Z"/><path class="cls-10" d="m398.3165,252.0003c6.791,1.8152,10.3268-9.6998,5.5576-14.4895-.5408,3.2332-7.7677,12.159-5.5576,14.4895Z"/><path class="cls-10" d="m244.5643,146.7572c2.3428-.9098,4.4206-.7195,5.2839-3.1817-2.6626-1.282-11.1516,5.1294-5.2839,3.1817Z"/><path class="cls-10" d="m303.6993,267.3489c-.1154,3.6239,1.6908,1.8645,4.832.6871.18-2.5626-3.2345-.5184-4.832-.6871Z"/><path class="cls-10" d="m256.712,186.5841c.3261.3014,1.8463,1.688,1.8769.1344-.7815.1213-1.4367.1168-1.8769-.1344Z"/><path class="cls-10" d="m302.1482,269.8099c.575.3526.6249-1.5754,1.4402-2.4454-1.4723-.2903-1.9324,1.7861-1.4402,2.4454Z"/><path class="cls-10" d="m218.5524,195.1638c1.3528-1.4565,2.6465-3.1558,3.9231-4.9309-2.6962.4327-7.3707,7.6378-3.9231,4.9309Z"/><path class="cls-5" d="m223.2292,259.5803c-7.1555,20.5943-20.4113-.6069-14.3702,18.7783,9.1856.4957,31.2545-19.3875,14.3702-18.7783Z"/><path class="cls-5" d="m233.3069,289.9556c-8.8959,5.9541,2.8959,11.7658,9.2244,14.9275-3.0614-3.3303-6.5333-15.1809-9.2244-14.9275Z"/><path class="cls-5" d="m318.5148,266.9311c.8283,3.8401,4.3628-1.2881,5.8594-1.8394-2.605,1.0174-11.6294-.3403-5.8594,1.8394Z"/><path class="cls-5" d="m328.2362,237.9349c-.9088-.6397-3.3171.8659-6.2262,3.0995,1.484-.8527,7.0957-1.0209,6.2262-3.0995Z"/><path class="cls-5" d="m318.3798,242.9601c.9831-.5311,2.6889-.9683,3.6301-1.9258-2.109.6602-3.7516,1.3132-3.6301,1.9258Z"/><path class="cls-5" d="m322.9711,275.5392c-2.2337-3.5282-2.6544-8.9215-6.6207-4.2947,3.5973,2.7631,7.351,5.693,6.6207,4.2947Z"/><path class="cls-5" d="m372.9134,256.0652c-3.4784.4415-6.5632.9203-8.1762,1.5135,1.2943.3658,4.4864-.4293,8.1762-1.5135Z"/><path class="cls-5" d="m403.537,236.41c1.3374,3.0286,2.4399,6.346,3.5437,12.0881,51.0307-22.598-27.8777-94.3742-3.5437-12.0881Z"/><path class="cls-5" d="m244.1093,305.7335c2.4127,2.0005,1.6014-3.2049,2.3547-4.6224-.7323,2.6409-1.5002,4.4945-2.3547,4.6224Z"/><path class="cls-5" d="m374.7293,283.389c.076-.3456.088-.8364.068-1.3998-.143.5887-.178,1.0681-.068,1.3998Z"/><path class="cls-5" d="m339.773,267.3276c1.7037,2.5567-5.5566,6.7772-3.6963,9.6138,1.4069-4.3672,17.6325-9.3155,3.6963-9.6138Z"/><path class="cls-5" d="m200.8666,174.3694c15.8394,16.8949,16.5347-2.772,13.8797-16.64-4.5198,4.3042-19.3289,10.0678-13.8797,16.64Z"/><path class="cls-5" d="m363.6193,258.7256c-.0345-.1041-.0569-.1941-.0682-.271-.0074.088.013.1783.0682.271Z"/><path class="cls-5" d="m372.0404,262.5826c-1.2698-1.8498-6.1377-3.7973-8.2663-4.4874.8529-.8289,8.2986,7.6412,8.2663,4.4874Z"/><path class="cls-5" d="m429.341,246.3666c-.0339-1.6475-.1233-3.2949-.2759-4.9408-1.0683,1.1331.3142,3.3245.2759,4.9408Z"/><path class="cls-5" d="m212.4509,283.5049c.5938.5499,1.1957,1.0955,1.8034,1.6381-.6757-1.0134-1.2861-1.6216-1.8034-1.6381Z"/><path class="cls-5" d="m219.326,262.2121c1.0925-10.7972-8.8211-8.2326-8.2918-18.4546-10.2538,8.6947-7.5301,31.819,8.2918,18.4546Z"/><path class="cls-5" d="m392.418,259.1402c.2439-2.8151-3.0891-6.8188-7.4338-4.6076-1.0454,5.9054,4.7324,7.467,7.4338,4.6076Z"/><path class="cls-5" d="m192.1944,222.0627c8.6188-22.5801-5.4363-22.3248-6.098,1.923,10.6526,1.0788,13.7881-3.1705,6.098-1.923Z"/><path class="cls-5" d="m411.3108,270.2352c2.4844,8.0764,6.3315-2.1959,12.144-2.8501-6.7674-5.1019-20.0016-12.3096-12.144,2.8501Z"/><path class="cls-5" d="m336.4411,155.1075c-3.7704,2.062-14.5091,6.7824-14.2674,9.2666,6.0524,7.7114,15.0516-2.6563,14.2674-9.2666Z"/><path class="cls-5" d="m361.1323,206.0277c-9.9698,7.2857-12.0191,6.5505-12.0766-3.6989-4.6471,14.2699,4.001,20.4167,12.0766,3.6989Z"/><path class="cls-5" d="m315.7656,266.0071c-1.1995.0015-2.9934-.1194-4.2101.6604,1.0028-.2466,2.4993-.4614,4.2101-.6604Z"/><path class="cls-5" d="m385.5188,235.1188c1.549-1.7351-1.4254.6623-2.3071,1.0117,1.262.1412,1.8448.1778,2.3071-1.0117Z"/><path class="cls-5" d="m310.4813,267.6366c-4.4738,1.085-.4198,11.4558,5.8675,3.6048-3.3899-2.603-6.6425-5.061-5.8675-3.6048Z"/><path class="cls-5" d="m366.0665,244.6416c-7.752-5.9483-26.6478-1.3233-19.4344,13.3896,7.9379,2.8425,36.8712-10.6635,19.4344-13.3896Z"/><path class="cls-5" d="m368.2793,221.2414c-9.4157,3.1055-15.2146,1.9355-10.6055,15.5915,32.5532,9.221,7.7255-26.0396,10.6055-15.5915Z"/><path class="cls-5" d="m261.1482,178.6618c-1.0893-1.4556-.8943,1.7392-1.2665,2.5455,1.0117-1.2008,1.5201-2.1005,1.2665-2.5455Z"/><path class="cls-5" d="m354.281,228.623c-3.0334,2.1715-7.514,5.7687-8.7824,9.2688,4.9248,3.0515,7.1772-7.4083,8.7824-9.2688Z"/><path class="cls-5" d="m364.5215,203.7611c-4.0785,2.4185-1.4286,3.5259,1.6469,4.8912-.5486-1.625-1.098-3.2604-1.6469-4.8912Z"/><path class="cls-5" d="m258.589,186.7186c-.635,1.7796,1.204.4418,1.6845-.3761-.6055.1636-1.1728.2967-1.6845.3761Z"/><path class="cls-5" d="m384.1898,249.1671c5.1015,8.8331-2.6886-3.8586-.1271-8.0397-10.0991,6.1325-7.0749,4.0594.1271,8.0397Z"/><path class="cls-5" d="m310.4935,256.4883c.3971-.5009.2001-.2517,0,0,.238.841.5035-.4891,0,0Z"/><path class="cls-5" d="m211.1548,220.589c2.3243-2.8935,3.9629-10.2771,3.4241-15.7222-12.7354,1.1066-4.6067,32.873-3.4241,15.7222Z"/><path class="cls-5" d="m204.0484,232.901c.6557.2444,1.9367-.7824,3.5659-2.5087-2.7064-.3561-3.7002-1.09-3.5659,2.5087Z"/><path class="cls-5" d="m315.5092,248.958c-1.1969.7048-.6075,2.0913-2.5056,4.2377,3.6234,2.6446,2.5099-2.886,2.5056-4.2377Z"/><path class="cls-5" d="m387.8621,237.4064c-2.4941-2.9444-3.93.5278-3.7973,3.7196,2.4609-1.6579,4.0353-2.9995,3.7973-3.7196Z"/><path class="cls-5" d="m251.9178,287.3164c-3.5882-2.8105-2.7647,4.9717-4.0145,7.7163,1.1783-4.1463,2.4992-6.8834,4.0145-7.7163Z"/><path class="cls-5" d="m317.3993,244.5242c.029.0126.0554.0144.0854.0311-.0421-.0232-.0801-.105-.0854-.0311Z"/><path class="cls-5" d="m318.1363,243.096c-.0953.0175-.1825.07-.2615.1588.0814-.0526.1681-.1055.2615-.1588Z"/><path class="cls-5" d="m308.3151,266.6801c.1714.3844-.0241,1.3811.3928,1.2795-.1219-.4724.2866-1.492-.3928-1.2795Z"/><path class="cls-5" d="m214.5786,204.8666c1.8257-3.3003,2.9065-7.5705,2.7977-10.9754-3.6682,1.8418-2.2517,7.9791-2.7977,10.9754Z"/><path class="cls-5" d="m195.685,199.6524c-.1928.1114-.0974.0568,0,0-.1024-.0748-.1934.1207,0,0Z"/><path class="cls-5" d="m192.9734,246.4748c19.7189-3.0265,8.767-22.4344-7.3569-18.6161-2.9934,10.0544-.5801,32.1494,7.3569,18.6161Z"/><path class="cls-5" d="m194.5684,202.2696c.8191,1.7773,2.3016,1.3934,2.4931,3.7284,1.6913-3.7036,4.0943-8.0566-2.4931-3.7284Z"/><path class="cls-5" d="m202.1618,197.3555c6.0382-3.1837-.4059-9.2451-1.456-.093.6773-.1715,1.1871-.1655,1.456.093Z"/><path class="cls-5" d="m215.3767,195.3102c1.717-11.3342-2.9342-8-9.7351-1.1511,3.4451,2.5645,4.9184,5.168,9.7351,1.1511Z"/><path class="cls-5" d="m327.6789,207.0146c2.9064,1.1786,1.4427-1.3996.343-2.9117-.5818,1.4947-.7632,2.541-.343,2.9117Z"/><path class="cls-5" d="m317.8324,163.0015c1.7233-3.842,2.9804-7.0808,2.118-7.8414-7.1488-4.5759-6.751,4.4329-2.118,7.8414Z"/><path class="cls-5" d="m316.033,216.9153c15.0799,8.1936,18.9384,21.5312,1.3121,27.876-.9407,7.6021-1.919,21.9191-6.6718,12.0722-10.7239,19.2827,18.954,2.5571,21.5643-4.7719,9.1708-7.0717,22.4244-7.4237,5.9769-20.8695.654.4472,11.1979-3.31,10.434-10.7029-12.0703,17.6988-9.279-15.4301-24.2614-9.8317,6.6898-23.3125-16.1391-17.4083-8.3541,6.2276Z"/><path class="cls-5" d="m347.8346,199.3305c13.4728,8.5943,15.826-9.1385,8.2651-18.9277-1.9899,8.4389-11.2873,9.8995-8.2651,18.9277Z"/><path class="cls-9" d="m233.6247,233.6233c15.2161-8.6123-7.4216-4.6152-13.346.9891-2.553,9.1873,11.5077-2.5427,13.346-.9891Z"/><path class="cls-9" d="m221.4096,217.3669c-.3258-7.478-6.4019,4.2146-2.219,6.0921,2.5119,2.5145,4.7617-6.7765,2.219-6.0921Z"/><path class="cls-9" d="m222.7793,238.5118c-5.1225.4476-5.9298,8.9807-4.7173,9.8674.3494,1.1159,13.1876-8.2135,4.7173-9.8674Z"/><path class="cls-9" d="m225.4374,211.2229c-3.324-1.1739-4.2769,8.0758-.2727,5.6565.7041-3.1446.9422-5.3288.2727-5.6565Z"/><path class="cls-9" d="m228.2065,188.4123c6.5854.2897,12.9894-.5471,17.3024,6.2049,20.9811-8.7882-26.2212-25.9716-17.3024-6.2049Z"/><path class="cls-9" d="m236.987,204.4495c6.7838,2.4842-4.5647-6.4819,8.5524-1.4274,10.1837-14.5282-10.674-2.5734-8.5524,1.4274Z"/><path class="cls-9" d="m313.5783,157.5893c-1.8386,4.8998-1.7921,6.2995,3.4589,7.1652,1.9104-2.6693-2.2285-4.7376-3.4589-7.1652Z"/><path class="cls-9" d="m217.581,196.574c-4.5449,7.0189,1.9341,8.414,3.8195,16.3487,5.2678-14.2706,12.1792-36.91-3.8195-16.3487Z"/><path class="cls-9" d="m229.1834,256.0681c3.244-3.8579,13.0006-21.4906,4.8621-22.2911-9.9284,5.3167-6.3637,11.1958-4.8621,22.2911Z"/><path class="cls-9" d="m236.1233,213.1173c-2.0847-1.332-7.1753,2.1742-10.9583,3.7616-10.0782,22.1729,25.7052,2.0927,10.9583-3.7616Z"/><path class="cls-9" d="m312.7646,178.4619c3.2681,5.5127,6.4935-15.2698,4.9749-13.3928-3.6655,2.4969-6.1402,13.2408-4.9749,13.3928Z"/><path class="cls-9" d="m354.3121,158.0102c-5.8291-.807-9.163,6.416-14.1751,4.9204,1.4051-17.8126-27.1531,13.685,20.8118,8.1265-14.7898,29.495,21.3004,19.1475,7.3564,43.8989,16.9771,65.4613,71.4721-48.6556-13.9932-56.9458Z"/><path class="cls-9" d="m219.326,262.2121c4.3542-8.7656,23.398,9.755,9.8591-6.1413-6.6894,5.003-3.4033-6.7364-3.0352-11.9111-9.0174,1.3082-9.7032,11.2352-6.8238,18.0524Z"/><path class="cls-9" d="m284.714,253.714c2.4081-1.5276,6.3365-5.8668,10.0023-9.665-7.0271-12.8553-28.496,9.8367-10.0023,9.665Z"/><path class="cls-9" d="m299.6454,250.3364c2.4186,5.1822,10.9216,5.3043,4.1736.9675-2.5615-1.774,3.1665-10.9604-.6961-13.6078-6.9292.2287-19.0777,27.2901-3.4775,12.6403Z"/><path class="cls-9" d="m268.8102,274.2618c-10.9124-13.4845,11.5145-10.5609,18.3717-12.4151,8.9759-9.5543-5.3764-6.4538-9.5885-9.6374-8.4534-2.2727-17.2175,22.1198-19.5349,18.3687-7.7569-31.0032-9.0548,20.7371,10.7517,3.6838Z"/><path class="cls-9" d="m341.0665,206.9482c-14.1811-2.509-5.7239,11.4057-.7091,16.2795-.399-4.3713,7.2942-13.7757.7091-16.2795Z"/><path class="cls-9" d="m246.7077,257.7178c.8681-.101,2.1548-1.0153,3.6531-2.3362-1.206-2.1205-2.4478,1.4768-3.6531,2.3362Z"/><path class="cls-9" d="m344.2699,224.8452c-.004.0035-.0084.0079-.0123.0114.0041-.004.0083-.0074.0123-.0114Z"/><path class="cls-9" d="m251.8739,251.7228c-.3926.4411-.7917.8978-1.1935,1.3609.5122-.4932,2.7795-1.4041,1.1935-1.3609Z"/><path class="cls-9" d="m256.9033,249.0154c-1.3424.7816-2.8236,1.7795-4.3013,2.7786,1.9729.62,2.9155-1.7421,4.3013-2.7786Z"/><path class="cls-9" d="m343.2344,174.2371c-19.0702,7.5969,6.9317-4.7068-7.4077,13.9303,4.8453-3.8325,8.2621-14.0529,7.4077-13.9303Z"/><path class="cls-9" d="m249.1872,254.0441c.4944.8455.9666-.5762,1.4933-.9603-.509.3361-1.0081.6584-1.4933.9603Z"/><path class="cls-9" d="m315.4974,183.7973c-.3624-.9433-.7013-1.8876-1.0778-2.7638-.4994,2.0955-2.1499,4.3292,1.0778,2.7638Z"/><path class="cls-9" d="m215.6676,208.4299c-1.8035,2.6349-4.9599,12.4147-4.9946,18.4483,4.8598-4.0158,9.4851-13.9348,4.9946-18.4483Z"/><path class="cls-9" d="m267.9051,192.2702c-3.7613,12.9651,17.1444.9261,19.2606,4.0469.2114,14.6245,4.082,11.2834,16.0308,12.5619.0888,6.4811.8596,8.8511,6.9703,5.0432,10.4831,8.6432,3.375-12.0967,5.1651-16.2254-8.7796,5.956-4.4763-3.6841-1.973-13.2054-10.3432,3.9153-15.5744-9.0604-9.691-18.2159-12.9689-4.5609-32.1939,40.1572-31.0898,8.2915-8.9003,5.9639-1.7934,8.7317-4.6729,17.7032Z"/><path class="cls-9" d="m347.4323,199.1232c.2038-5.6842,1.19-8.8848-3.9151-3.359-.177,4.0144,1.2554,3.7231,3.9151,3.359Z"/><path class="cls-9" d="m267.5074,184.9501c-2.6149.095-6.6108.429-8.4375,2.6741,3.1607-.7123,10.3065,3.2564,8.4375-2.6741Z"/><path class="cls-9" d="m335.8268,188.1674c-7.113,5.0641-8.4912.8604-14.8594,5.4931,6.9598,13.2604,8.6436,4.5001,14.8594-5.4931Z"/><path class="cls-9" d="m329.7771,207.0361c6.0514-1.4317,18.2381-12.9147,12.006-20.2711-7.098-.5703-15.5512,16.6659-12.006,20.2711Z"/><path class="cls-9" d="m246.7411,211.6113c7.4209,2.0324,18.9906-7.1848,18.1514-14.8476-6.4153,1.7244-21.2142,3.841-18.1514,14.8476Z"/><path class="cls-9" d="m347.2936,202.84c-2.8542.2527-1.7217,3.4075-2.9704,6.1525,4.3177,3.3074,2.3374-3.11,2.9704-6.1525Z"/><path class="cls-9" d="m370.9573,198.8568c-.5785-.3769-2.0108.5756-3.9451,2.3122,1.2103-.1263,5.1043-1.028,3.9451-2.3122Z"/><path class="cls-9" d="m267.9051,192.2702c-.1123-7.408-2.7612,2.1636-3.0133,4.4919,2.2853.0872,2.1477-3.0925,3.0133-4.4919Z"/><path class="cls-9" d="m369.5137,209.4763c-1.1972-2.1334,1.1139-6.0176,1.9257-9.0704-7.8587-.5918-7.7288,10.3007-1.9257,9.0704Z"/><path class="cls-9" d="m269.5803,238.1952c-.193-.21-.3996-.3846-.6588-.4742-.6083,1.5097-.5691,1.5679.6588.4742Z"/><path class="cls-9" d="m371.5079,200.1511c.0633-.2628.1135-.5183.1482-.7653-.4249.096-.1443.4093-.1482.7653Z"/><path class="cls-9" d="m268.2885,203.8561c2.0123,1.4819,6.8655-.6668,10.0886-.1968,5.5408-6.8465-16.3526-5.518-10.0886.1968Z"/><path class="cls-9" d="m262.6698,209.1507c4.3357,6.1369,5.1212-5.4673,3.7956-5.8569-2.3568-1.6282-7.0948,5.6521-3.7956,5.8569Z"/><path class="cls-9" d="m249.984,228.3658c.1099,1.3669,3.4605-.4295,2.0671-.8131-1.2991-.5932-5.9712.5589-2.0671.8131Z"/><path class="cls-9" d="m268.3385,231.6661c-.1249,1.3888-.3652,2.1159-.856,1.4276-7.4486,4.3237,7.4784,6.8847.856-1.4276Z"/><path class="cls-9" d="m314.8257,249.3524c1.494-.4545.9017-2.7396,1.3721-3.6098-1.4312,1.1053-2.8947,1.8897-1.3721,3.6098Z"/><path class="cls-9" d="m277.7374,222.5347c-2.4082-1.2925-11.8201,14.0448-3.8502,6.3432-9.3257,10.4056,16.9186-7.0832,3.8502-6.3432Z"/><path class="cls-9" d="m206.5531,268.0155c.0226.2979.0451.597.0689.888.6629-.5055.7944-.7345-.0689-.888Z"/><path class="cls-9" d="m263.6065,244.0549c3.4795,2.4692,3.3036-1.6677,4.8118-4.9141-1.6601,1.7931-4.6185,2.5765-4.8118,4.9141Z"/><path class="cls-9" d="m246.2558,203.7823c-5.6775-4.0388-9.4786,10.157-3.9077,8.7696,1.2855-3.4734,4.7332-7.547,3.9077-8.7696Z"/><path class="cls-9" d="m267.4483,196.6345c-1.4331-.7517-2.5605,2.2336-2.0589,3.2919,2.2763,1.7397,1.7758-1.5948,2.0589-3.2919Z"/><path class="cls-9" d="m247.6419,213.8434c-2.6441-7.0054-9.9972,4.4078-2.3006,3.6067,11.9712-4.7943,21.8188-12.6411,2.3006-3.6067Z"/><path class="cls-9" d="m207.3228,268.2664c7.8025,2.8159,14.1879,3.6449,12.0028-6.0546-3.9736,2.0415-8.6094,3.1972-12.0028,6.0546Z"/><path class="cls-9" d="m277.2399,251.6072c.0913.0447.162.0947.2427.1246-.082-.0413-.1532-.0847-.2427-.1246Z"/><path class="cls-9" d="m258.9466,254.088c.3721-2.5894.6046-4.8701.4241-6.2798-1.4786,1.8763-2.6641,4.6089-.4241,6.2798Z"/><path class="cls-9" d="m311.1434,235.8152c10.5372-10.0992-8.195-27.5806-8.8246-12.1466,4.6742,11.6736-.4515,39.6972,8.8246,12.1466Z"/><path class="cls-9" d="m259.6043,265.6339c-2.4841-1.5018.3317-8.5982-.6577-11.5459.2311,3.5347-3.6866,9.9506.6577,11.5459Z"/><path class="cls-9" d="m253.9747,251.93c-4.6525,3.623-3.0109,3.993.9162,6.5667.9496-3.1401,4.3214-6.8435-.9162-6.5667Z"/><path class="cls-9" d="m259.2078,235.8689c-3.5086,6.2443,3.0944,3.0878.6004,9.5774,5.7972-2.6233,7.6486-9.9223-.6004-9.5774Z"/><path class="cls-9" d="m409.852,288.4814c-1.1112-3.3622-18.9316-3.2777-19.5406-6.1949-3.4195-3.5759,22.1176-4.2129,21.0023-12.0488-10.0302-5.1979,2.9993-24.167-4.2298-21.743-4.6179,2.4953-8.15,4.1568-8.7674,3.5057-2.2102-2.3305,5.0168-11.2563,5.5612-14.4887-5.7326-10.1452-11.9234-16.139-18.9534-1.2823,7.5988,1.6735-9.447,9.5786,2.8785,15.9697-6.1764-7.1546-21.9328-5.0481-25.0703,4.3458-30.8893,10.248-4.87-23.0169-30.4958-4.4552-21.3278,23.4906-17.0643,1.3598-9.2631,23.4487-.3564-.5161-8.9614-5.0163-12.7066-1.2595-5.2694-18.3546-9.7271,11.8602-6.5419,14.1539-3.3324-.2007-9.1881,14.3915-12.3965,14.2449-7.0269-7.5478-3.4953-30.6624-18.9372-15.4129-18.5399,27.0569-11.8416-14.537-22.4797-.9273,7.1729,1.104,10.7768,27.5631,4.8414,21.0931-10.3456,7.3765,50.8034,17.7183,63.9566,17.6633,10.8086-13.2824,33.3664-23.3773,41.5399-4.8507,18.5819-14.9983,1.6232-11.0657,4.8705-29.578-15.1867,19.3561-35.9632-5.395-12.6101-5.8738,9.1598-7.3916,17.2303-17.2951,12.6122,5.8756,15.7505-13.7433,14.8951,5.9181,8.8328,18.0934,9.7055-2.618,19.852-11.7607,28.2797-16.1561-2.1427,16.1697,16.599-3.0197,7.6175-4.1229Zm-64.4152-19.5576c.6387,2.9744-10.1524,4.7354-9.3601,8.0177.0609-4.9448,5.8432-13.4386,9.3601-8.0177Zm27.4766-12.8586c-3.6898,1.0842-6.8819,1.8793-8.1762,1.5135,1.613-.5931,4.6978-1.0719,8.1762-1.5135Zm-9.3623,2.3894c.0113.077.0337.167.0682.271-.0552-.0928-.0755-.183-.0682-.271Zm.2225-.3585c2.2086,1.0177,8.6795,2.535,8.1789,5.6721-2.0044-1.0952-7.0484-5.6877-8.1789-5.6721Zm10.9557,25.293c-.11-.3317-.0749-.8111.068-1.3998.0199.5634.008,1.0543-.068,1.3998Zm10.9336-22.7949c-.3213-4.2084-1.4198-6.7407,3.4449-7.0598,5.2211,5.1738,4.3361,7.1586-3.4449,7.0598Z"/><path class="cls-9" d="m303.0571,266.2637c-5.173-1.9814-15.3208,13.3478-10.0046,17.6477,4.1442-1.6413,10.183-16.9223,10.0046-17.6477Z"/><path class="cls-9" d="m309.7171,254.8531c-3.2348-4.232-6.0022,3.1716-10.0692-4.5212-20.7985,10.4694,3.0744,20.4597,10.0692,4.5212Z"/><path class="cls-9" d="m181.7744,227.3439c6.844.2613,29.2555,6.667,14.4739-5.3464,5.2836,6.1263-21.7343-2.5263-14.4739,5.3464Z"/><path class="cls-9" d="m303.6697,267.2323c4.8041.8063,5.8669-2.6275,4.5601-6.4992-1.5503,2.1804-3.3756,4.5616-4.5601,6.4992Z"/><path class="cls-9" d="m240.7686,160.9301c-.7124.9993-1.2484,1.8937-1.5063,2.621.2796-.6941,3.3408-3.1756,1.5063-2.621Z"/><path class="cls-9" d="m184.2889,193.0682c-.172.5041-.6227,1.3035.0554.6579-.0306-.2093-.0426-.4339-.0554-.6579Z"/><path class="cls-9" d="m188.1895,191.2137c-.7354-.9172-1.2324-2.0757-1.6268-3.2693-1.564,2.034-1.206,5.5308,1.6268,3.2693Z"/><path class="cls-9" d="m225.082,152.5137c.8019-1.1917-.5338-.2131-1.2271.0602.337.0233.7487.0017,1.2271-.0602Z"/><path class="cls-9" d="m248.136,146.6827c.3653-.3125.6913-.6109.965-.8907-.5922-.0912-.7666.4433-.965.8907Z"/><path class="cls-9" d="m230.9407,151.0623c-9.0061-.2698-14.2557,19.3143-13.3271,19.8381,6.5708.444,14.4869-2.3554,21.0255-.6209,1.4994-4.5395,1.1717-8.1671-1.9336-3.6886,1.2493-6.3705-3.2827-4.0363-6.174-5.5046,14.0334-12.0224,14.9683-22.2719.4092-10.024Z"/><path class="cls-9" d="m189.4276,192.3483c1.6329,1.0269,3.5057-.1798,1.2875-1.4431-1.2546-.4935-3.5577.2839-1.2875,1.4431Z"/><path class="cls-9" d="m250.0772,143.9753c-.3345-.9764-.9781,1.1195-1.3239,1.4873.8197.0263,1.5172-.9227,1.3239-1.4873Z"/><path class="cls-9" d="m248.7533,145.4629c-1.2463.3187-2.6794.7769-4.1891,1.2942,1.5742-.6801,3.4321-.3444,4.1891-1.2942Z"/><path class="cls-9" d="m256.1699,161.5666c2.3769-2.4152-4.4907-3.2132-4.9625-1.5262.7442,1.1002,2.7331,1.3825,4.9625,1.5262Z"/><path class="cls-9" d="m179.7768,212.5471c-.1196.5873.1298.3107.4099.0947-.1573-.0023-.2844-.0473-.4099-.0947Z"/><path class="cls-9" d="m311.0837,255.7415c.1076-.5312.0139-.919-.3591-1.1082-1.7401-.6373-.3098,2.9731.3591,1.1082Z"/><path class="cls-9" d="m202.1618,197.3555c-1.343-.9569-1.9143.9215-2.3139,2.0696.6167-.5566,1.8047-1.2491,2.3139-2.0696Z"/><path class="cls-9" d="m313.004,253.1959c5.4249-8.5647-2.9113-2.9802-5.3609-1.3308,1.2022,1.5575,3.7335.7119,5.3609,1.3308Z"/><path class="cls-9" d="m197.7843,218.9477c2.7161,2.9216,2.7998,7.9026,6.3388,11.0249,11.3133,1.5853,2.9992-27.9513-6.3388-11.0249Z"/><path class="cls-9" d="m357.1903,226.586c-.0072-.0193-.0308.0095-.0603.0618.0379-.0308.0631-.0543.0603-.0618Z"/><path class="cls-9" d="m418.557,269.6187c-.2581,3.3652,6.0836-1.0596,5.3361-1.17-.6056-2.5049-6.1811,1.1891-5.3361,1.17Z"/><path class="cls-9" d="m308.708,267.9594c2.6185-1.3319,1.9427-.8191,7.6424,3.2844,9.0186-5.4361-8.0677-7.0969-7.6424-3.2844Z"/><path class="cls-9" d="m264.7987,278.6717c-7.706-8.5223-25.4761-5.1385-12.2417,2.6807,4.6314,4.7862,4.3076,6.4023,12.2417-2.6807Z"/><path class="cls-9" d="m354.281,228.623c-5.2978,1.767-9.6728-.4641-15.4464,2.6272,7.558,10.8614,6.443,3.4388,15.4464-2.6272Z"/><path class="cls-9" d="m357.6734,236.8361c-1.3734-17.7326-2.8067-6.6167-9.0851,2.0318-6.7955-2.8347-.4356,4.017-3.2836,6.7276,13.6403-7.6034,17.5033.0575,29.7562,1.0717,29.2894-16.732-14.0542-6.8975-17.3874-9.8312Z"/><path class="cls-9" d="m193.2584,197.8272c-.5068-2.9309-.4728-4.7721-3.4114-2.6768,1.1502.7102,2.2346,1.6901,3.4114,2.6768Z"/><path class="cls-9" d="m338.2167,231.2252c.1571.0585.3733.0564.6181.0256-1.3127-.5822-2.1853-.6083-.6181-.0256Z"/><path class="cls-9" d="m194.5684,202.2696c4.9135-2.8787,6.626-2.3168,2.5555-1.7928-3.4897-2.3521-4.6011-3.054-2.5555,1.7928Z"/><path class="cls-9" d="m327.8146,145.3035c.2459.132.5526.1544.9035.0971-.3185-.0592-1.51-.5014-.9035-.0971Z"/><path class="cls-9" d="m331.3902,157.6799c-.2595.0715.1533.3149.1375.4785-.0647-.1356-.0989-.3098-.1375-.4785Z"/><path class="cls-9" d="m428.5783,241.8686c1.0979-1.1747-.1154-3.4044-.0821-4.9757-1.6806.5901.1647,3.24.0821,4.9757Z"/><path class="cls-9" d="m198.6259,191.0178c-1.8737.7998-7.4313.4938-6.2186,2.8543,2.1273-1.0978,4.3637-2.269,6.2186-2.8543Z"/><path class="cls-9" d="m306.9404,162.1634c6.8459,4.7944,10.8307-10.9782,1.9538-8.2599.8529.9134-4.7153,7.9537-1.9538,8.2599Z"/><path class="cls-9" d="m249.1797,187.1422c-3.1512-20.1914-15.216,4.7279.2118-22.1224-9.687.7623-19.8735,10.6212-.2118,22.1224Zm-4.2081-15.1751c-.1019-.1435-.1503-.274-.168-.3969.0353.119.0782.2428.168.3969Z"/><path class="cls-9" d="m346.1659,161.0242c-2.1754.6641-.7683,1.5559-.3535,2.6644-.1737-.4847-.0204-1.4219.3535-2.6644Z"/><path class="cls-9" d="m249.1797,187.1422c.0777.1386.1624.2629.2624.3548-.0714-.114-.1702-.2352-.2624-.3548Z"/><path class="cls-9" d="m305.6196,162.1326c-1.2118.3282-2.7854,1.4362-4.4778,2.8371,2.961,2.4509,3.2525-.3883,4.4778-2.8371Z"/><path class="cls-9" d="m341.2095,152.6872c1.3996-.7235,2.7076-1.4192,3.8474-2.0672-2.6755-1.4658-3.4819-.8734-3.8474,2.0672Z"/><path class="cls-9" d="m311.1434,235.8152c.0986-.241.197-.4818.2946-.7215-1.0091-1.13-.8674-.7797-.2946.7215Z"/><path class="cls-9" d="m288.8081,265.6079c-.0052-1.0856,2.073-4.1679.5723-3.967-.1941,1.3203-.4148,2.6847-.5723,3.967Z"/><path class="cls-9" d="m274.1221,263.7034c-7.6793.7806-11.5679,1.7107-5.311,10.5578,3.046-4.9779,14.6052-11.5513,5.311-10.5578Z"/><path class="cls-9" d="m339.9952,157.8474c.2981-1.5369.7298-3.3042,1.2143-5.1602-3.9705,1.7952-5.7761,2.4686-1.2143,5.1602Z"/><path class="cls-9" d="m287.182,261.8493c2.1357.227,2.5541-.8364,2.5174-2.7518-.8752.9938-1.7266,1.9397-2.5174,2.7518Z"/><path class="cls-9" d="m396.8809,349.3705c-.509-.4492-1.0205-.8974-1.5215-1.3491.1288.7155.6274,1.0668,1.5215,1.3491Z"/><path class="cls-9" d="m373.9275,308.8105c-.5292-.5906-1.4857-1.0175-2.2112-.9244.672.402,1.3556.9842,2.2112.9244Z"/><path class="cls-4" d="m249.8484,143.5756c-.4488,5.7972-19.4196,12.4967-19.314,17.5096,4.3849,3.7573,24.8307-6.4142,25.6368.4799-2.1167,4.1584-15.1744,12.7043-14.9242,16.9041,5.6831,3.3173,30.4426-6.9782,14.2371,7.186-2.8008-2.0515-3.6695-2.0062-.1373.1266-7.8276,6.4415-9.0407,6.6147-7.66,16.5224,11.6435-1.4039,29.7722-14.0673,10.6776-14.789,13.3876-5.3308,3.0207,1.003,14.2085-12.9533-2.1369,35.6119,35.1535-31.7595,47.3746-19.4018.3687,29.8119-31.035,57.4901,15.8756,33.0037,6.1432-10.1466,7.7728-14.4657-2.9692-8.8828,23.703-16.0606-1.5046,8.0829,8.9279,7.4842,2.459,19.6967,14.7292-8.7206,19.1703-15.7015-92.9094,3.2052,54.1952-42.3617-111.1037-27.4883Z"/><path class="cls-4" d="m303.6993,267.3489c-1.7076.6941-11.9278,28.1466-12.5015,10.0004,15.9155-15.5695,1.6903-15.5572-8.4085-16.0041-7.9218,2.3046-19.3499,22.6368-26.6476,24.597,6.4041,23.139,13.9266-2.3275,26.238-4.5961,9.0546,35.8945,22.2704,13.0332,21.3197-13.9971Z"/><path class="cls-4" d="m320.9113,241.8912c2.2318-.8277,4.912-1.6723,6.4234-2.4509-2.0104.8126-4.7281.907-6.4234,2.4509Z"/><path class="cls-4" d="m204.1237,229.9723c-.49-1.1834-1.9122-1.5548-2.6474-2.6001.1156,2.9886,3.2861,8.36,2.6474,2.6001Z"/><path class="cls-4" d="m246.4636,301.1109c.4618-7.916,13.6178-54.158.247-43.3935,7.9427-12.653,8.8761-.8143,12.6606-9.9084-.7136,3.0357.6096,21.7669-1.8948,16.0367-1.5019,25.2186,24.9777-40.5337,37.2388-19.7948,15.409-8.7473,6.7005-16.2519,8.4833-35.1716-27.4075,3.6173-3.4193-20.8301-30.0453-10.0045,15.6991,2.8696-5.7881,9.6397-7.7601,1.0491-4.0824-1.8145,7.6548,14.327-2.724,9.2295-3.5495-1.6429-13.5195,9.2976-17.3279,8.2972-10.5279-11.9435-2.7731,9.9565-16.8144,9.8984-9.7046-.4516-.242-10.9934-5.704-9.7663-.064,5.3995-4.7588,9.7986-5.3666.9088-11.085,13.8283-16.7456,23.3551-28.5893,34.7639,7.5562,12.1225,33.5263,52.3167,44.4387,36.7055,3.3861-1.34,9.5317,25.6075,13.1581,11.1501Zm22.5877-63.338c-2.7801,10.4156-6.7262,6.1834-11.2302,2.8172,1.5755-4.4723,16.039-12.4894,11.2302-2.8172Zm13.087-12.723c-9.964,9.2315-13.2861,10.3107-9.0095-.4374,3.6157-1.2798,8.4569-5.4391,9.0095.4374Zm-30.0877,2.5029c1.2597,1.8018-2.7699.6422-4.0435.6603,1.4932-.7543,2.9143-1.1802,4.0435-.6603Zm-32.7799,47.4976c-18.388,11.0536-11.179-15.0486-14.0748-25.6668,9.0331-11.8572,4.3064,15.5141,21.0089-7.848-17.8282,20.1631-6.2203-15.3738,12.3033-14.2981,1.3155,7.1059-.4827,2.2191-4.8843,6.3853,8.8686.652-1.1283,18.3711-4.4371,22.4465-.0658,4.1144,8.927,4.7712,2.2808,7.0079-3.4213-.6467-8.9615,12.5062-12.1967,11.9731Z"/><path class="cls-4" d="m349.8177,212.1795c-7.5747-8.8318-9.9089,10.3659-9.1431,14.7736,4.3012-.1804,11.8717-11.2864,9.1431-14.7736Z"/><path class="cls-4" d="m350.8565,211.057c6.3719-.3845,21.2368-12.6117,20.5753-13.657-5.5788-.4739-29.4205,2.5533-20.5753,13.657Z"/><path class="cls-4" d="m324.3879,210.6869c31.4426-1.7578,29.1187-23.2391,5.3888-3.6516-6.5844-.9107,4.7894-13.1234,7.3772-19.5093-4.7064,4.8599-12.4587,17.7823-12.766,23.1609Z"/><path class="cls-4" d="m226.1548,257.3214c5.2659.8601,1.8226-12.8511.6946-13.0022-2.1743,2.0321-2.2883,12.3995-.6946,13.0022Z"/><path class="cls-4" d="m300.9836,176.6583c1.2692,7.9302,16.6003,13.9293,11.7852,1.8014-1.4743-5.4329,9.4058-16.3928-5.8313-16.2931-3.5123.3952-7.3703,13.8777-5.9539,14.4917Z"/><path class="cls-4" d="m239.7122,203.6154c.9105,1.8422,3.4795-.1574,5.8264-.5927-3.2595-2.6176-11.5013-1.0299-5.8264.5927Z"/><path class="cls-4" d="m245.5385,203.0224c2.5728,1.7131-1.8595,5.4099-3.1891,9.5279,5.1266,1.4279,7.0861-11.0005,3.1891-9.5279Z"/><path class="cls-4" d="m228.2065,188.4123c-.1089-.1893-.2896-.2767-.4901-.337.1498.1334.2987.2648.4901.337Z"/><path class="cls-4" d="m239.5013,189.1022c-17.8606-10.9178-12.4888,36.3448-22.178,14.9986-6.6555.8147,2.1442,7.6763.1309,14.3907,2.9726-2.9872,3.1059-5.4812,3.9542-1.1247,3.6907.5813-1.0764-7.1288,4.03-6.1424-1.1873,10.1452,7.9684-.7579,14.2789,2.0395.4496-6.0311,2.0819-8.9318-2.7307-8.8131-.7101-2.8938,14.0053-10.7369,2.5146-15.3486Z"/><path class="cls-4" d="m233.6247,233.6233c-2.1453-.616-6.9311,2.7382-10.8454,4.8885,4.9605,4.9336,6.7953-1.7638,10.8454-4.8885Z"/><path class="cls-4" d="m281.8207,253.6838c-1.3949-.6134-2.8258-1.0413-4.227-1.4767.7465,1.3777,2.5536,1.3457,4.227,1.4767Z"/><path class="cls-4" d="m273.8881,228.8758c-.8737-.5617-1.2619-.1293-1.4589.6896.5041-.66.9929-.9479,1.4589-.6896Z"/><path class="cls-4" d="m371.3903,199.5189c-1.5049,18.3788-14.6792-2.93-24.7125,28.2798-.3359,9.2083,19.9393-10.3245,21.6011-6.5557-4.2837-7.3435,11.1773-27.9451,3.1115-21.724Z"/><path class="cls-4" d="m252.602,251.794c-.6458.4366-1.2902.8724-1.9216,1.2896-4.1856,5.1169,5.9534-1.4909,1.9216-1.2896Z"/><path class="cls-4" d="m263.8313,242.7734c1.532-1.4788,4.4912-2.6294,5.0904-5.0522-4.2889-2.8053-4.4312,2.3416-5.0904,5.0522Z"/><path class="cls-4" d="m265.0997,199.369c.3926-.9579.7727-1.8932,1.1375-2.802-1.8188-.3099-1.5444,1.7376-1.1375,2.802Z"/><path class="cls-4" d="m303.8169,251.3065c5.9315,5.9813,14.3418-14.9251,11.5533,3.0174,2.6718-15.666,30.481-23.0387-5.2092-40.401-11.2927,5.5203,13.5426,6.4576,1.2715,21.1695-4.5449,9.0951-5.763,21.9165-6.7191,6.2226-.9002,3.8898-2.4237,8.4876-.8966,9.9915Zm13.5825-6.7823c.0054-.0739.0433.0078.0854.0311-.03-.0167-.0564-.0185-.0854-.0311Zm.7369-1.4282c-.0934.0532-.18.1061-.2615.1588.079-.0887.1662-.1413.2615-.1588Z"/><path class="cls-4" d="m282.9108,254.2066c.3986.2115,1.0239.0018,1.8032-.4926-1.0314.1293-4.2-.4519-1.8032.4926Z"/><path class="cls-4" d="m284.714,253.714c6.5985-1.0438,4.065,5.2117,5.3291,7.8826,4.924-16.1823,6.6604-19.7252-5.3291-7.8826Z"/><path class="cls-4" d="m267.9051,192.2702c1.542-5.033,3.2088-7.0426-.3975-7.32.154,2.0782-.1559,4.4028.3975,7.32Z"/><path class="cls-4" d="m258.9466,254.088c-3.6457-4.0481-4.5356,7.3547-1.471,9.7555.368-3.0335,1.02-6.6174,1.471-9.7555Z"/><path class="cls-4" d="m277.4826,251.7318c.1405.0873.3019.1609.4308.2316-.1237-.0808-.28-.1556-.4308-.2316Z"/><path class="cls-4" d="m267.9768,196.956c-2.7949,2.9849.8761,4.0535,5.1764,1.9189-2.2356-.3044-4.371-.6568-5.1764-1.9189Z"/><path class="cls-4" d="m252.6661,211.7799c-2.7623,1.2884-3.6025-.0659-5.9249-.169.3278,3.8364,2.6237,2.4066,5.9249.169Z"/><path class="cls-4" d="m261.2171,208.8201c4.8995-9.4679-4.4056.5816-8.5511,2.9593,2.8174-.994,6.2607-2.908,8.5511-2.9593Z"/><path class="cls-4" d="m267.4483,196.6345c.1842-1.538.3937-3.0667.4568-4.3643-.0857,1.2953-2.8759,4.6308-.4568,4.3643Z"/><path class="cls-4" d="m402.2364,292.6075c-8.8961,3.5237-20.2792,17.1982-30.5209,15.279-13.1881,14.3241-9.6196,15.5712-21.4243-.2144-11.1451,7.1753-24.8937,4.7638-31.5748,17.4254-3.6456,1.3761-13.1618-6.0141-13.029-.4123,31.6708-9.7488,97.5844,34.6746,105.5618,36.1518-65.668-53.9887-29.4605-26.8008-9.0128-68.2295Z"/><path class="cls-4" d="m180.1866,212.6419c25.9954-14.9928,11.913-2.8561,12.0056,9.4219,4.4287-3.4215,13.1623,11.1506,6.7679-1.2253-1.2029-5.8397,29.6393-25.0974,11.1817-23.4101-7.5842-9.8154-11.4028,10.7082-14.1431,6.4204-7.1296-20.7551-15.8072-10.749-15.8121,8.793Z"/><path class="cls-4" d="m186.5627,187.9444c1.7151,4.957,7.2616,4.4225,12.0626,3.0737-11.2405.2126-2.5531,15.676,2.0814,6.246,24.3022-21.857,3.63,5.7123,27.0089-9.1908-4.4213-10.0775-10.3748-8.5419-18.9811-7.2444-11.6772-13.5062-14.7032-6.4083-22.1718,7.1154Z"/><path class="cls-4" d="m427.6969,237.2615c-3.4852-15.274-20.6755,14.1384-20.4151,20.2875,8.0879,7.6888,27.6094,10.2947,4.5723,15.9986-51.2158,10.4253,31.439,37.3763,15.8427-36.2861Z"/><path class="cls-4" d="m308.4303,252.6875c.5927,2.3138,3.8032,1.4926,2.243,4.1757,4.9759,10.7503,7.7559-7.0835-2.243-4.1757Z"/><path class="cls-4" d="m252.5593,281.3464c-2.227.8708,2.5411,3.6594,3.5817,4.5956-1.2246-2.602-2.428-4.6341-3.5817-4.5956Z"/><path class="cls-4" d="m309.7171,254.8531c.8538-.222-12.6201,9.7571-6.6607,11.4096,1.2248,1.167,9.0623-8.7227,6.6607-11.4096Z"/><path class="cls-4" d="m341.2095,152.6872c-6.0742,17.6988,5.6395,5.655,13.1029,5.3209,3.5235-3.861-9.6471-9.5341-13.1029-5.3209Z"/><path class="cls-4" d="m373.9527,308.7598c6.2901-11.1246,3.3124-14.1538,2.2243-23.2995-12.6409-.6682-16.6688,20.5035-2.2243,23.2995Z"/><path class="cls-4" d="m365.714,275.2825c-3.8972-1.3548-10.819,9.883-13.2018,9.5125-34.7038,7.1985,20.4024,27.8013,13.2018-9.5125Z"/></g></svg>